<?xml version="1.0" encoding="utf-8"?>
<svg width="100%" height="100%" viewBox="-70.0 -70.0 140.0 140.0" preserveAspectRatio="xMidYMid meet" version="1.1" baseProfile="full" xmlns="http://www.w3.org/2000/svg">
<g style="stroke:#FFFFFF; stroke-width: 1.2978713763747793; stroke-linejoin: round;">
<path fill="#B31B1B" fill-opacity="0.37" d="m-36.66043462300095,18.67942442994569 l15.295560855708736,-15.295560855708743 l-3.383863574236944,21.364873767292217 l-15.295560855708736,15.295560855708743z"/>
<path fill="#B31B1B" fill-opacity="0.37" d="m-18.679424429945673,36.66043462300097 l15.295560855708736,-15.29556085570875 l-21.364873767292217,3.3838635742369547 l-15.295560855708736,15.29556085570875z"/>
<path fill="#B31B1B" fill-opacity="0.9" d="m-21.364873767292213,3.383863574236951 l-19.273531065121087,-9.820354579300659 l-15.295560855708736,15.295560855708754 l19.273531065121087,9.820354579300659z"/>
<path fill="#B31B1B" fill-opacity="0.9" d="m-3.3838635742369405,21.364873767292213 l9.820354579300666,19.273531065121087 l-15.295560855708747,15.295560855708743 l-9.820354579300666,-19.273531065121087z"/>
<path fill="#B31B1B" fill-opacity="0.9" d="m-21.364873767292217,3.3838635742369476 l-15.295560855708736,15.295560855708743 l-19.27353106512109,-9.820354579300663 l15.295560855708736,-15.295560855708743z"/>
<path fill="#B31B1B" fill-opacity="0.9" d="m-3.383863574236937,21.364873767292217 l-15.295560855708736,15.29556085570875 l9.82035457930067,19.273531065121077 l15.295560855708736,-15.29556085570875z"/>
<path fill="#B31B1B" fill-opacity="0.37" d="m-40.6384048324133,-6.436491005063708 l19.273531065121087,9.820354579300659 l-9.82035457930067,-19.273531065121084 l-19.273531065121087,-9.820354579300659z"/>
<path fill="#B31B1B" fill-opacity="0.9" d="m0.0,-0.0 l-21.364873767292217,3.3838635742369476 l-3.383863574236944,21.364873767292217 l21.364873767292217,-3.3838635742369476z"/>
<path fill="#B31B1B" fill-opacity="0.9" d="m0.0,0.0 l-3.383863574236937,21.364873767292217 l-21.364873767292217,3.3838635742369547 l3.383863574236937,-21.364873767292217z"/>
<path fill="#B31B1B" fill-opacity="0.37" d="m6.436491005063726,40.6384048324133 l-9.820354579300666,-19.273531065121087 l19.273531065121087,9.820354579300663 l9.820354579300666,19.273531065121087z"/>
<path fill="#B31B1B" fill-opacity="0.9" d="m0.0,0.0 l-21.364873767292213,3.383863574236951 l-9.82035457930067,-19.273531065121084 l21.364873767292213,-3.383863574236951z"/>
<path fill="#B31B1B" fill-opacity="0.9" d="m0.0,-0.0 l-3.3838635742369405,21.364873767292213 l19.273531065121087,9.820354579300663 l3.3838635742369405,-21.364873767292213z"/>
<path fill="#B31B1B" fill-opacity="0.9" d="m0.0,-0.0 l-9.820354579300659,-19.273531065121077 l-21.36487376729222,3.3838635742369405 l9.820354579300659,19.273531065121077z"/>
<path fill="#B31B1B" fill-opacity="0.9" d="m0.0,0.0 l19.273531065121084,9.82035457930065 l-3.3838635742369334,21.364873767292224 l-19.273531065121084,-9.82035457930065z"/>
<path fill="#B31B1B" fill-opacity="0.37" d="m-29.093885644421743,-29.09388564442174 l19.273531065121084,9.820354579300663 l-21.36487376729222,3.3838635742369405 l-19.273531065121084,-9.820354579300663z"/>
<path fill="#B31B1B" fill-opacity="0.37" d="m29.09388564442175,29.093885644421732 l-9.820354579300666,-19.273531065121084 l-3.3838635742369334,21.364873767292224 l9.820354579300666,19.273531065121084z"/>
<path fill="#B31B1B" fill-opacity="0.9" d="m-9.820354579300666,-19.273531065121077 l3.3838635742369334,-21.364873767292224 l-19.273531065121084,-9.820354579300648 l-3.3838635742369334,21.364873767292224z"/>
<path fill="#B31B1B" fill-opacity="0.9" d="m19.27353106512108,9.820354579300657 l21.36487376729222,-3.383863574236946 l9.820354579300655,19.273531065121087 l-21.36487376729222,3.383863574236946z"/>
<path fill="#B31B1B" fill-opacity="0.9" d="m-9.820354579300659,-19.273531065121077 l-19.273531065121084,-9.820354579300663 l3.383863574236937,-21.364873767292217 l19.273531065121084,9.820354579300663z"/>
<path fill="#B31B1B" fill-opacity="0.9" d="m19.273531065121084,9.82035457930065 l9.820354579300666,19.273531065121084 l21.36487376729222,-3.3838635742369547 l-9.820354579300666,-19.273531065121084z"/>
<path fill="#B31B1B" fill-opacity="0.9" d="m0.0,0.0 l-9.820354579300666,-19.273531065121077 l15.29556085570873,-15.295560855708743 l9.820354579300666,19.273531065121077z"/>
<path fill="#B31B1B" fill-opacity="0.9" d="m0.0,-0.0 l19.27353106512108,9.820354579300657 l15.29556085570874,-15.295560855708736 l-19.27353106512108,-9.820354579300657z"/>
<path fill="#B31B1B" fill-opacity="0.9" d="m0.0,-0.0 l15.29556085570873,-15.295560855708738 l-9.820354579300657,-19.27353106512109 l-15.29556085570873,15.295560855708738z"/>
<path fill="#B31B1B" fill-opacity="0.9" d="m0.0,0.0 l15.29556085570873,-15.295560855708738 l19.27353106512109,9.820354579300648 l-15.29556085570873,15.295560855708738z"/>
<path fill="#B31B1B" fill-opacity="0.37" d="m-6.436491005063733,-40.6384048324133 l-3.3838635742369334,21.364873767292224 l15.29556085570873,-15.295560855708743 l3.3838635742369334,-21.364873767292224z"/>
<path fill="#B31B1B" fill-opacity="0.37" d="m40.6384048324133,6.436491005063711 l-21.36487376729222,3.383863574236946 l15.29556085570874,-15.295560855708736 l21.36487376729222,-3.383863574236946z"/>
<path fill="#B31B1B" fill-opacity="0.37" d="m18.679424429945676,-36.66043462300097 l-3.383863574236946,21.36487376729223 l-9.820354579300657,-19.27353106512109 l3.383863574236946,-21.36487376729223z"/>
<path fill="#B31B1B" fill-opacity="0.37" d="m36.66043462300095,-18.679424429945694 l-21.364873767292224,3.3838635742369565 l19.27353106512109,9.820354579300648 l21.364873767292224,-3.3838635742369565z"/>
<path fill="#B31B1B" fill-opacity="0.9" d="m15.29556085570873,-15.295560855708738 l21.364873767292224,-3.3838635742369565 l3.3838635742369405,-21.36487376729222 l-21.364873767292224,3.3838635742369565z"/>
</g>
</svg>