<?xml version="1.0" encoding="utf-8"?>
<svg width="100%" height="100%" viewBox="-70.0 -70.0 140.0 140.0" preserveAspectRatio="xMidYMid meet" version="1.1" baseProfile="full" xmlns="http://www.w3.org/2000/svg">
<g style="stroke:#FFFFFF; stroke-width: 0.802128623625221; stroke-linejoin: round;">
<path fill="#B31B1B" fill-opacity="0.9" d="m-55.93396568812204,8.859069850645028 l13.20421815353761,-2.09134270217114 l6.069312911583481,11.911697281471803 l-13.20421815353761,2.09134270217114z"/>
<path fill="#B31B1B" fill-opacity="0.9" d="m-8.859069850645003,55.93396568812204 l2.091342702171133,-13.204218153537603 l-11.911697281471803,-6.069312911583474 l-2.091342702171133,13.204218153537603z"/>
<path fill="#B31B1B" fill-opacity="0.9" d="m-55.933965688122036,8.859069850645046 l13.204218153537603,-2.0913427021711435 l2.091342702171133,-13.20421815353761 l-13.204218153537603,2.0913427021711435z"/>
<path fill="#B31B1B" fill-opacity="0.37" d="m-30.818050253112645,12.837040060057376 l-11.911697281471788,-6.069312911583488 l6.069312911583481,11.911697281471803 l11.911697281471788,6.069312911583488z"/>
<path fill="#B31B1B" fill-opacity="0.37" d="m-12.837040060057362,30.818050253112652 l6.069312911583491,11.911697281471788 l-11.911697281471803,-6.069312911583474 l-6.069312911583491,-11.911697281471788z"/>
<path fill="#B31B1B" fill-opacity="0.9" d="m-8.859069850645021,55.93396568812204 l2.0913427021711364,-13.20421815353761 l13.20421815353761,-2.091342702171133 l-2.0913427021711364,13.20421815353761z"/>
<path fill="#B31B1B" fill-opacity="0.9" d="m-42.72974753458443,6.767727148473902 l9.453176485820421,-9.453176485820434 l11.911697281471799,6.0693129115834825 l-9.453176485820421,9.453176485820434z"/>
<path fill="#B31B1B" fill-opacity="0.9" d="m-24.74873734152916,24.748737341529164 l-6.069312911583484,-11.911697281471788 l9.453176485820428,-9.453176485820428 l6.069312911583484,11.911697281471788z"/>
<path fill="#B31B1B" fill-opacity="0.9" d="m-24.748737341529154,24.74873734152917 l11.911697281471792,6.069312911583481 l9.453176485820425,-9.453176485820435 l-11.911697281471792,-6.069312911583481z"/>
<path fill="#B31B1B" fill-opacity="0.9" d="m-6.767727148473885,42.72974753458443 l9.453176485820434,-9.453176485820428 l-6.06931291158349,-11.911697281471792 l-9.453176485820434,9.453176485820428z"/>
<path fill="#B31B1B" fill-opacity="0.9" d="m-42.72974753458443,6.767727148473888 l11.911697281471788,6.069312911583488 l9.453176485820428,-9.453176485820428 l-11.911697281471788,-6.069312911583488z"/>
<path fill="#B31B1B" fill-opacity="0.9" d="m-6.76772714847387,42.72974753458444 l-6.069312911583491,-11.911697281471788 l9.453176485820425,-9.453176485820435 l6.069312911583491,11.911697281471788z"/>
<path fill="#B31B1B" fill-opacity="0.37" d="m-33.27657104876401,-2.6854493373465314 l-9.453176485820421,9.453176485820434 l2.091342702171133,-13.20421815353761 l9.453176485820421,-9.453176485820434z"/>
<path fill="#B31B1B" fill-opacity="0.37" d="m2.685449337346549,33.276571048764005 l-9.453176485820434,9.453176485820428 l13.20421815353761,-2.091342702171133 l9.453176485820434,-9.453176485820428z"/>
<path fill="#B31B1B" fill-opacity="0.9" d="m-31.185228346592883,-15.889667490884133 l-2.0913427021711293,13.204218153537601 l11.911697281471799,6.0693129115834825 l2.0913427021711293,-13.204218153537601z"/>
<path fill="#B31B1B" fill-opacity="0.9" d="m15.889667490884147,31.185228346592876 l-13.204218153537598,2.0913427021711293 l-6.06931291158349,-11.911697281471792 l13.204218153537598,-2.0913427021711293z"/>
<path fill="#B31B1B" fill-opacity="0.37" d="m-13.204218153537601,2.0913427021711355 l-2.091342702171138,13.204218153537603 l-6.069312911583477,-11.911697281471792 l2.091342702171138,-13.204218153537603z"/>
<path fill="#B31B1B" fill-opacity="0.37" d="m-13.2042181535376,2.0913427021711373 l-6.069312911583491,-11.911697281471792 l-2.091342702171122,13.204218153537607 l6.069312911583491,11.911697281471792z"/>
<path fill="#B31B1B" fill-opacity="0.37" d="m-2.091342702171132,13.2042181535376 l11.911697281471795,6.069312911583484 l-13.204218153537603,2.0913427021711293 l-11.911697281471795,-6.069312911583484z"/>
<path fill="#B31B1B" fill-opacity="0.37" d="m-2.0913427021711293,13.204218153537603 l-13.204218153537603,2.0913427021711435 l11.911697281471795,6.06931291158347 l13.204218153537603,-2.0913427021711435z"/>
<path fill="#B31B1B" fill-opacity="0.9" d="m-15.29556085570874,15.29556085570874 l2.091342702171138,-13.204218153537603 l13.204218153537601,-2.0913427021711355 l-2.091342702171138,13.204218153537603z"/>
<path fill="#B31B1B" fill-opacity="0.9" d="m-15.295560855708732,15.295560855708747 l13.204218153537603,-2.0913427021711435 l2.0913427021711293,-13.204218153537603 l-13.204218153537603,2.0913427021711435z"/>
<path fill="#B31B1B" fill-opacity="0.9" d="m-19.27353106512109,-9.820354579300655 l6.069312911583491,11.911697281471792 l13.2042181535376,-2.0913427021711373 l-6.069312911583491,-11.911697281471792z"/>
<path fill="#B31B1B" fill-opacity="0.9" d="m9.820354579300663,19.273531065121084 l-11.911697281471795,-6.069312911583484 l2.091342702171132,-13.2042181535376 l11.911697281471795,6.069312911583484z"/>
<path fill="#B31B1B" fill-opacity="0.9" d="m-19.273531065121087,-9.820354579300657 l13.204218153537605,-2.0913427021711346 l6.0693129115834825,11.911697281471792 l-13.204218153537605,2.0913427021711346z"/>
<path fill="#B31B1B" fill-opacity="0.9" d="m9.820354579300666,19.273531065121084 l2.0913427021711275,-13.204218153537607 l-11.911697281471794,-6.069312911583477 l-2.0913427021711275,13.204218153537607z"/>
<path fill="#B31B1B" fill-opacity="0.9" d="m-31.18522834659288,-15.889667490884136 l9.453176485820421,-9.453176485820428 l11.911697281471799,6.069312911583488 l-9.453176485820421,9.453176485820428z"/>
<path fill="#B31B1B" fill-opacity="0.9" d="m15.88966749088415,31.185228346592872 l9.453176485820421,-9.453176485820428 l-6.069312911583488,-11.911697281471794 l-9.453176485820421,9.453176485820428z"/>
<path fill="#B31B1B" fill-opacity="0.37" d="m-21.732051860772458,-25.342843976704565 l2.09134270217114,-13.204218153537603 l-9.453176485820425,9.453176485820428 l-2.09134270217114,13.204218153537603z"/>
<path fill="#B31B1B" fill-opacity="0.37" d="m25.34284397670457,21.732051860772444 l13.204218153537603,-2.09134270217114 l-9.453176485820425,9.453176485820428 l-13.204218153537603,2.09134270217114z"/>
<path fill="#B31B1B" fill-opacity="0.37" d="m-6.069312911583486,-11.911697281471788 l9.453176485820421,-9.453176485820435 l-13.204218153537601,2.091342702171147 l-9.453176485820421,9.453176485820435z"/>
<path fill="#B31B1B" fill-opacity="0.37" d="m11.911697281471794,6.06931291158348 l9.45317648582043,-9.453176485820425 l-2.0913427021711435,13.204218153537601 l-9.45317648582043,9.453176485820425z"/>
<path fill="#B31B1B" fill-opacity="0.37" d="m-6.0693129115834825,-11.911697281471792 l-13.204218153537605,2.0913427021711346 l9.453176485820428,-9.45317648582042 l13.204218153537605,-2.0913427021711346z"/>
<path fill="#B31B1B" fill-opacity="0.37" d="m11.911697281471794,6.069312911583477 l-2.0913427021711275,13.204218153537607 l9.453176485820418,-9.453176485820434 l2.0913427021711275,-13.204218153537607z"/>
<path fill="#B31B1B" fill-opacity="0.9" d="m3.383863574236935,-21.364873767292224 l-9.453176485820421,9.453176485820435 l6.069312911583486,11.911697281471788 l9.453176485820421,-9.453176485820435z"/>
<path fill="#B31B1B" fill-opacity="0.9" d="m21.364873767292224,-3.383863574236944 l-9.45317648582043,9.453176485820425 l-11.911697281471794,-6.06931291158348 l9.45317648582043,-9.453176485820425z"/>
<path fill="#B31B1B" fill-opacity="0.9" d="m3.3838635742369405,-21.364873767292224 l6.0693129115834825,11.911697281471795 l-9.453176485820423,9.453176485820428 l-6.0693129115834825,-11.911697281471795z"/>
<path fill="#B31B1B" fill-opacity="0.9" d="m21.36487376729222,-3.383863574236953 l-11.911697281471797,-6.069312911583475 l-9.453176485820423,9.453176485820428 l11.911697281471797,6.069312911583475z"/>
<path fill="#B31B1B" fill-opacity="0.9" d="m-25.710022070184806,-50.458759411713956 l6.069312911583488,11.911697281471788 l-9.453176485820425,9.453176485820428 l-6.069312911583488,-11.911697281471788z"/>
<path fill="#B31B1B" fill-opacity="0.9" d="m50.45875941171397,25.710022070184777 l-11.911697281471795,-6.069312911583474 l-9.453176485820425,9.453176485820428 l11.911697281471795,6.069312911583474z"/>
<path fill="#B31B1B" fill-opacity="0.9" d="m-19.640709158601336,-38.54706213024216 l11.9116972814718,6.069312911583474 l-2.091342702171131,13.20421815353761 l-11.9116972814718,-6.069312911583474z"/>
<path fill="#B31B1B" fill-opacity="0.9" d="m38.54706213024217,19.640709158601318 l-6.069312911583481,-11.911697281471795 l-13.204218153537607,2.0913427021711346 l6.069312911583481,11.911697281471795z"/>
<path fill="#B31B1B" fill-opacity="0.9" d="m-19.640709158601318,-38.54706213024217 l-2.09134270217114,13.204218153537603 l11.911697281471799,6.069312911583488 l2.09134270217114,-13.204218153537603z"/>
<path fill="#B31B1B" fill-opacity="0.9" d="m38.547062130242175,19.640709158601304 l-13.204218153537603,2.09134270217114 l-6.069312911583488,-11.911697281471794 l13.204218153537603,-2.09134270217114z"/>
<path fill="#B31B1B" fill-opacity="0.9" d="m5.4752062764080645,-34.56909192082982 l-13.2042181535376,2.091342702171133 l-2.091342702171131,13.20421815353761 l13.2042181535376,-2.091342702171133z"/>
<path fill="#B31B1B" fill-opacity="0.9" d="m34.56909192082982,-5.475206276408079 l-2.091342702171133,13.204218153537601 l-13.204218153537607,2.0913427021711346 l2.091342702171133,-13.204218153537601z"/>
<path fill="#B31B1B" fill-opacity="0.37" d="m9.453176485820423,-9.453176485820428 l11.911697281471797,6.069312911583475 l-6.06931291158349,-11.911697281471785 l-11.911697281471797,-6.069312911583475z"/>
<path fill="#B31B1B" fill-opacity="0.9" d="m-25.710022070184817,-50.45875941171395 l6.069312911583481,11.911697281471788 l13.204218153537603,-2.09134270217114 l-6.069312911583481,-11.911697281471788z"/>
<path fill="#B31B1B" fill-opacity="0.9" d="m50.458759411713956,25.7100220701848 l-11.911697281471788,-6.069312911583481 l2.091342702171133,-13.204218153537607 l11.911697281471788,6.069312911583481z"/>
<path fill="#B31B1B" fill-opacity="0.37" d="m-7.729011877129535,-32.47774921865869 l-11.9116972814718,-6.069312911583474 l13.204218153537603,-2.09134270217114 l11.9116972814718,6.069312911583474z"/>
<path fill="#B31B1B" fill-opacity="0.37" d="m32.47774921865869,7.729011877129523 l6.069312911583481,11.911697281471795 l2.091342702171133,-13.204218153537607 l-6.069312911583481,-11.911697281471795z"/>
<path fill="#B31B1B" fill-opacity="0.9" d="m5.475206276408073,-34.56909192082983 l11.911697281471795,6.069312911583481 l-2.091342702171138,13.204218153537608 l-11.911697281471795,-6.069312911583481z"/>
<path fill="#B31B1B" fill-opacity="0.9" d="m34.56909192082982,-5.475206276408089 l-6.069312911583481,-11.911697281471794 l-13.204218153537608,2.0913427021711453 l6.069312911583481,11.911697281471794z"/>
<path fill="#B31B1B" fill-opacity="0.9" d="m30.591121711417472,-30.591121711417486 l-2.091342702171133,13.204218153537603 l-13.204218153537608,2.0913427021711453 l2.091342702171133,-13.204218153537603z"/>
<path fill="#B31B1B" fill-opacity="0.37" d="m17.38690355787987,-28.499779009246346 l13.204218153537603,-2.09134270217114 l-11.911697281471795,-6.069312911583481 l-13.204218153537603,2.09134270217114z"/>
<path fill="#B31B1B" fill-opacity="0.37" d="m28.49977900924634,-17.386903557879883 l2.091342702171133,-13.204218153537603 l6.069312911583481,11.911697281471792 l-2.091342702171133,13.204218153537603z"/>
<path fill="#B31B1B" fill-opacity="0.9" d="m40.04429819723789,-40.044298197237914 l-9.453176485820421,9.453176485820428 l-11.911697281471795,-6.069312911583481 l9.453176485820421,-9.453176485820428z"/>
<path fill="#B31B1B" fill-opacity="0.9" d="m40.04429819723789,-40.044298197237914 l-9.453176485820421,9.453176485820428 l6.069312911583481,11.911697281471792 l9.453176485820421,-9.453176485820428z"/>
</g>
</svg>