<?xml version="1.0" encoding="utf-8"?>
<svg width="100%" height="100%" viewBox="-70.0 -70.0 140.0 140.0" preserveAspectRatio="xMidYMid meet" version="1.1" baseProfile="full" xmlns="http://www.w3.org/2000/svg">
<g style="stroke:#FFFFFF; stroke-width: 0.4957427527495585; stroke-linejoin: round;">
<path fill="#B31B1B" fill-opacity="0.9" d="m-44.02226840665024,14.928382762228512 l-3.7510416677171747,-7.361833783649299 l-8.160655613754628,1.2925208720658148 l3.7510416677171747,7.361833783649299z"/>
<path fill="#B31B1B" fill-opacity="0.9" d="m-14.928382762228491,44.022268406650255 l7.361833783649303,3.7510416677171676 l-1.2925208720658148,8.16065561375462 l-7.361833783649303,-3.7510416677171676z"/>
<path fill="#B31B1B" fill-opacity="0.9" d="m-46.480789202301615,-0.5941066351753932 l-1.2925208720658006,8.160655613754624 l-8.16065561375462,1.2925208720658148 l1.2925208720658006,-8.160655613754624z"/>
<path fill="#B31B1B" fill-opacity="0.9" d="m0.5941066351754145,46.480789202301615 l-8.160655613754624,1.2925208720658148 l-1.2925208720658112,8.160655613754614 l8.160655613754624,-1.2925208720658148z"/>
<path fill="#B31B1B" fill-opacity="0.37" d="m-47.773310074367416,7.566548978579231 l1.2925208720658006,-8.160655613754624 l3.751041667717182,7.3618337836492955 l-1.2925208720658006,8.160655613754624z"/>
<path fill="#B31B1B" fill-opacity="0.9" d="m-36.66043462300095,18.67942442994569 l1.2925208720658077,-8.16065561375462 l-7.361833783649288,-3.751041667717182 l-1.2925208720658077,8.16065561375462z"/>
<path fill="#B31B1B" fill-opacity="0.9" d="m-36.66043462300095,18.67942442994569 l8.160655613754614,-1.2925208720658148 l3.7510416677171783,7.361833783649288 l-8.160655613754614,1.2925208720658148z"/>
<path fill="#B31B1B" fill-opacity="0.9" d="m-18.679424429945673,36.66043462300097 l1.2925208720658112,-8.16065561375462 l-7.361833783649292,-3.7510416677171747 l-1.2925208720658112,8.16065561375462z"/>
<path fill="#B31B1B" fill-opacity="0.9" d="m-18.679424429945673,36.66043462300097 l8.160655613754619,-1.2925208720658148 l3.7510416677171836,7.361833783649288 l-8.160655613754619,1.2925208720658148z"/>
<path fill="#B31B1B" fill-opacity="0.37" d="m-7.56654897857921,47.77331007436743 l8.160655613754624,-1.2925208720658148 l-7.361833783649299,-3.751041667717182 l-8.160655613754624,1.2925208720658148z"/>
<path fill="#B31B1B" fill-opacity="0.37" d="m-47.773310074367416,7.566548978579213 l3.7510416677171747,7.361833783649299 l1.2925208720658077,-8.160655613754624 l-3.7510416677171747,-7.361833783649299z"/>
<path fill="#B31B1B" fill-opacity="0.37" d="m-7.566548978579188,47.77331007436742 l-7.361833783649303,-3.7510416677171676 l8.16065561375462,-1.2925208720658148 l7.361833783649303,3.7510416677171676z"/>
<path fill="#B31B1B" fill-opacity="0.37" d="m-35.367913750935145,10.51876881619107 l5.842384369888315,-5.842384369888316 l-1.2925208720658148,8.160655613754622 l-5.842384369888315,5.842384369888316z"/>
<path fill="#B31B1B" fill-opacity="0.37" d="m-28.49977900924634,17.386903557879876 l-8.160655613754614,1.2925208720658148 l5.842384369888308,-5.842384369888315 l8.160655613754614,-1.2925208720658148z"/>
<path fill="#B31B1B" fill-opacity="0.37" d="m-17.38690355787986,28.499779009246346 l-1.2925208720658112,8.16065561375462 l5.842384369888311,-5.842384369888315 l1.2925208720658112,-8.16065561375462z"/>
<path fill="#B31B1B" fill-opacity="0.37" d="m-10.518768816191054,35.36791375093515 l5.842384369888313,-5.842384369888322 l-8.16065561375462,1.292520872065822 l-5.842384369888313,5.842384369888322z"/>
<path fill="#B31B1B" fill-opacity="0.9" d="m-40.6384048324133,-6.436491005063708 l3.7510416677171747,7.3618337836492955 l-5.842384369888308,5.842384369888315 l-3.7510416677171747,-7.3618337836492955z"/>
<path fill="#B31B1B" fill-opacity="0.9" d="m-29.52552938104683,4.676384446302762 l-7.3618337836492955,-3.7510416677171747 l-5.842384369888308,5.842384369888315 l7.3618337836492955,3.7510416677171747z"/>
<path fill="#B31B1B" fill-opacity="0.9" d="m-22.657394639358028,11.544519187991561 l-5.842384369888311,5.842384369888315 l3.7510416677171783,7.361833783649288 l5.842384369888311,-5.842384369888315z"/>
<path fill="#B31B1B" fill-opacity="0.9" d="m-11.54451918799155,22.65739463935803 l-5.842384369888311,5.842384369888315 l-7.361833783649292,-3.7510416677171747 l5.842384369888311,-5.842384369888315z"/>
<path fill="#B31B1B" fill-opacity="0.9" d="m-4.67638444630275,29.52552938104683 l3.75104166771718,7.3618337836492955 l-5.842384369888315,5.842384369888308 l-3.75104166771718,-7.3618337836492955z"/>
<path fill="#B31B1B" fill-opacity="0.9" d="m6.436491005063726,40.6384048324133 l-7.3618337836492955,-3.7510416677171747 l-5.842384369888315,5.842384369888308 l7.3618337836492955,3.7510416677171747z"/>
<path fill="#B31B1B" fill-opacity="0.9" d="m-29.52552938104683,4.6763844463027535 l-5.842384369888315,5.842384369888316 l-7.361833783649288,-3.751041667717182 l5.842384369888315,-5.842384369888316z"/>
<path fill="#B31B1B" fill-opacity="0.9" d="m-4.676384446302741,29.52552938104683 l-5.842384369888313,5.842384369888322 l3.7510416677171836,7.361833783649288 l5.842384369888313,-5.842384369888322z"/>
<path fill="#B31B1B" fill-opacity="0.37" d="m-18.90635297164085,18.906352971640853 l-3.7510416677171783,-7.361833783649292 l7.361833783649288,3.7510416677171783 l3.7510416677171783,7.361833783649292z"/>
<path fill="#B31B1B" fill-opacity="0.37" d="m-18.906352971640842,18.90635297164086 l7.361833783649292,3.751041667717171 l-3.751041667717182,-7.361833783649285 l-7.361833783649292,-3.751041667717171z"/>
<path fill="#B31B1B" fill-opacity="0.37" d="m-36.887363164696126,0.9253427785855877 l7.3618337836492955,3.7510416677171747 l-3.751041667717182,-7.361833783649294 l-7.3618337836492955,-3.7510416677171747z"/>
<path fill="#B31B1B" fill-opacity="0.9" d="m-21.364873767292217,3.3838635742369476 l-8.160655613754614,1.292520872065806 l-1.2925208720658148,8.160655613754622 l8.160655613754614,-1.292520872065806z"/>
<path fill="#B31B1B" fill-opacity="0.9" d="m-3.383863574236937,21.364873767292217 l-1.2925208720658041,8.160655613754614 l-8.16065561375462,1.292520872065822 l1.2925208720658041,-8.160655613754614z"/>
<path fill="#B31B1B" fill-opacity="0.37" d="m-0.9253427785855699,36.887363164696126 l-3.75104166771718,-7.3618337836492955 l7.361833783649299,3.7510416677171747 l3.75104166771718,7.3618337836492955z"/>
<path fill="#B31B1B" fill-opacity="0.9" d="m-21.364873767292217,3.3838635742369476 l7.361833783649288,3.7510416677171747 l-1.2925208720658112,8.160655613754617 l-7.361833783649288,-3.7510416677171747z"/>
<path fill="#B31B1B" fill-opacity="0.9" d="m-3.383863574236937,21.364873767292217 l-3.751041667717179,-7.361833783649285 l-8.160655613754617,1.2925208720658148 l3.751041667717179,7.361833783649285z"/>
<path fill="#B31B1B" fill-opacity="0.37" d="m-32.47774921865869,-7.729011877129517 l-8.160655613754614,1.2925208720658095 l7.361833783649288,3.7510416677171765 l8.160655613754614,-1.2925208720658095z"/>
<path fill="#B31B1B" fill-opacity="0.37" d="m7.729011877129533,32.47774921865869 l-1.2925208720658077,8.160655613754614 l-3.7510416677171765,-7.3618337836492955 l1.2925208720658077,-8.160655613754614z"/>
<path fill="#B31B1B" fill-opacity="0.9" d="m-21.364873767292213,3.383863574236951 l-8.160655613754617,1.2925208720658112 l-3.751041667717182,-7.361833783649294 l8.160655613754617,-1.2925208720658112z"/>
<path fill="#B31B1B" fill-opacity="0.9" d="m-3.3838635742369405,21.364873767292213 l-1.2925208720658095,8.160655613754617 l7.361833783649299,3.7510416677171747 l1.2925208720658095,-8.160655613754617z"/>
<path fill="#B31B1B" fill-opacity="0.9" d="m-40.6384048324133,-6.436491005063708 l8.160655613754614,-1.2925208720658095 l1.2925208720658041,-8.160655613754615 l-8.160655613754614,1.2925208720658095z"/>
<path fill="#B31B1B" fill-opacity="0.9" d="m6.436491005063726,40.6384048324133 l1.2925208720658077,-8.160655613754614 l8.160655613754614,-1.2925208720658112 l-1.2925208720658077,8.160655613754614z"/>
<path fill="#B31B1B" fill-opacity="0.9" d="m-5.842384369888311,5.842384369888312 l-8.160655613754617,1.2925208720658103 l-1.2925208720658112,8.160655613754617 l8.160655613754617,-1.2925208720658103z"/>
<path fill="#B31B1B" fill-opacity="0.9" d="m-5.842384369888309,5.842384369888314 l-1.2925208720658068,8.160655613754617 l-8.160655613754617,1.2925208720658148 l1.2925208720658068,-8.160655613754617z"/>
<path fill="#B31B1B" fill-opacity="0.9" d="m-25.11591543500939,-3.977970209412339 l-7.3618337836492955,-3.7510416677171783 l1.2925208720658041,-8.160655613754615 l7.3618337836492955,3.7510416677171783z"/>
<path fill="#B31B1B" fill-opacity="0.37" d="m-14.003039983642928,7.134905241954122 l8.160655613754617,-1.2925208720658103 l-7.36183378364929,-3.7510416677171765 l-8.160655613754617,1.2925208720658103z"/>
<path fill="#B31B1B" fill-opacity="0.37" d="m-7.134905241954116,14.003039983642932 l1.2925208720658068,-8.160655613754617 l3.75104166771718,7.361833783649289 l-1.2925208720658068,8.160655613754617z"/>
<path fill="#B31B1B" fill-opacity="0.9" d="m3.9779702094123515,25.11591543500939 l3.751041667717182,7.3618337836492955 l8.160655613754614,-1.2925208720658112 l-3.751041667717182,-7.3618337836492955z"/>
<path fill="#B31B1B" fill-opacity="0.9" d="m-21.364873767292213,3.383863574236951 l5.842384369888308,-5.842384369888315 l-3.7510416677171854,-7.361833783649292 l-5.842384369888308,5.842384369888315z"/>
<path fill="#B31B1B" fill-opacity="0.9" d="m-3.3838635742369405,21.364873767292213 l5.84238436988831,-5.842384369888308 l7.361833783649293,3.7510416677171783 l-5.84238436988831,5.842384369888308z"/>
<path fill="#B31B1B" fill-opacity="0.37" d="m-15.522489397403906,-2.4585207956513635 l8.160655613754614,-1.2925208720658112 l-5.842384369888308,5.842384369888312 l-8.160655613754614,1.2925208720658112z"/>
<path fill="#B31B1B" fill-opacity="0.37" d="m2.4585207956513697,15.522489397403906 l1.2925208720658086,-8.160655613754615 l-5.84238436988831,5.842384369888309 l-1.2925208720658086,8.160655613754615z"/>
<path fill="#B31B1B" fill-opacity="0.37" d="m-23.82339456294359,-12.138625823166956 l-1.2925208720658006,8.160655613754617 l5.8423843698883005,-5.842384369888316 l1.2925208720658006,-8.160655613754617z"/>
<path fill="#B31B1B" fill-opacity="0.37" d="m12.138625823166969,23.823394562943584 l-8.160655613754617,1.2925208720658077 l5.842384369888311,-5.842384369888308 l8.160655613754617,-1.2925208720658077z"/>
<path fill="#B31B1B" fill-opacity="0.37" d="m-23.823394562943587,-12.138625823166958 l5.842384369888315,-5.842384369888315 l-1.2925208720658148,8.160655613754615 l-5.842384369888315,5.842384369888315z"/>
<path fill="#B31B1B" fill-opacity="0.37" d="m12.138625823166972,23.82339456294358 l5.842384369888308,-5.842384369888315 l-8.160655613754614,1.2925208720658183 l-5.842384369888308,5.842384369888315z"/>
<path fill="#B31B1B" fill-opacity="0.9" d="m0.0,-0.0 l-5.842384369888311,5.842384369888312 l-7.36183378364929,-3.7510416677171765 l5.842384369888311,-5.842384369888312z"/>
<path fill="#B31B1B" fill-opacity="0.9" d="m0.0,0.0 l-7.361833783649292,-3.7510416677171747 l-5.842384369888308,5.842384369888312 l7.361833783649292,3.7510416677171747z"/>
<path fill="#B31B1B" fill-opacity="0.9" d="m0.0,-0.0 l3.7510416677171783,7.36183378364929 l-5.84238436988831,5.842384369888309 l-3.7510416677171783,-7.36183378364929z"/>
<path fill="#B31B1B" fill-opacity="0.9" d="m0.0,0.0 l-5.842384369888309,5.842384369888314 l3.75104166771718,7.361833783649289 l5.842384369888309,-5.842384369888314z"/>
<path fill="#B31B1B" fill-opacity="0.9" d="m-29.093885644421743,-29.09388564442174 l3.7510416677171747,7.361833783649292 l-5.842384369888311,5.842384369888311 l-3.7510416677171747,-7.361833783649292z"/>
<path fill="#B31B1B" fill-opacity="0.9" d="m-17.981010193055273,-17.981010193055273 l-7.3618337836492955,-3.7510416677171747 l-5.842384369888311,5.842384369888311 l7.3618337836492955,3.7510416677171747z"/>
<path fill="#B31B1B" fill-opacity="0.9" d="m17.98101019305528,17.981010193055265 l3.751041667717182,7.3618337836492955 l-5.842384369888311,5.842384369888311 l-3.751041667717182,-7.3618337836492955z"/>
<path fill="#B31B1B" fill-opacity="0.9" d="m29.09388564442175,29.093885644421732 l-7.361833783649288,-3.751041667717171 l-5.842384369888311,5.842384369888311 l7.361833783649288,3.751041667717171z"/>
<path fill="#B31B1B" fill-opacity="0.9" d="m-7.361833783649292,-3.7510416677171747 l-8.160655613754614,1.2925208720658112 l-3.7510416677171854,-7.361833783649292 l8.160655613754614,-1.2925208720658112z"/>
<path fill="#B31B1B" fill-opacity="0.9" d="m3.7510416677171783,7.36183378364929 l-1.2925208720658086,8.160655613754615 l7.361833783649293,3.7510416677171783 l1.2925208720658086,-8.160655613754615z"/>
<path fill="#B31B1B" fill-opacity="0.9" d="m-7.361833783649291,-3.7510416677171756 l-3.7510416677171774,-7.361833783649291 l-8.160655613754619,1.2925208720658095 l3.7510416677171774,7.361833783649291z"/>
<path fill="#B31B1B" fill-opacity="0.9" d="m3.751041667717179,7.361833783649289 l7.361833783649293,3.751041667717174 l-1.292520872065806,8.16065561375462 l-7.361833783649293,-3.751041667717174z"/>
<path fill="#B31B1B" fill-opacity="0.9" d="m-9.820354579300659,-19.273531065121077 l-1.2925208720658095,8.16065561375461 l-8.160655613754619,1.2925208720658095 l1.2925208720658095,-8.16065561375461z"/>
<path fill="#B31B1B" fill-opacity="0.9" d="m19.273531065121084,9.82035457930065 l-8.160655613754612,1.292520872065813 l-1.292520872065806,8.16065561375462 l8.160655613754612,-1.292520872065813z"/>
<path fill="#B31B1B" fill-opacity="0.37" d="m-25.342843976704568,-21.732051860772447 l-3.7510416677171747,-7.361833783649292 l7.361833783649285,3.7510416677171747 l3.7510416677171747,7.361833783649292z"/>
<path fill="#B31B1B" fill-opacity="0.37" d="m21.73205186077246,25.34284397670456 l7.361833783649288,3.751041667717171 l-3.7510416677171783,-7.361833783649288 l-7.361833783649288,-3.751041667717171z"/>
<path fill="#B31B1B" fill-opacity="0.9" d="m0.0,0.0 l1.2925208720658063,-8.160655613754617 l-7.361833783649292,-3.751041667717171 l-1.2925208720658063,8.160655613754617z"/>
<path fill="#B31B1B" fill-opacity="0.9" d="m0.0,-0.0 l8.160655613754617,-1.29252087206581 l3.7510416677171765,7.36183378364929 l-8.160655613754617,1.29252087206581z"/>
<path fill="#B31B1B" fill-opacity="0.9" d="m0.0,-0.0 l-7.361833783649291,-3.7510416677171756 l1.2925208720658086,-8.160655613754617 l7.361833783649291,3.7510416677171756z"/>
<path fill="#B31B1B" fill-opacity="0.9" d="m0.0,0.0 l3.751041667717179,7.361833783649289 l8.160655613754614,-1.2925208720658121 l-3.751041667717179,-7.361833783649289z"/>
<path fill="#B31B1B" fill-opacity="0.37" d="m-11.112875451366468,-11.112875451366467 l3.7510416677171774,7.361833783649291 l1.2925208720658086,-8.160655613754617 l-3.7510416677171774,-7.361833783649291z"/>
<path fill="#B31B1B" fill-opacity="0.37" d="m11.112875451366472,11.112875451366463 l-7.361833783649293,-3.751041667717174 l8.160655613754614,-1.2925208720658121 l7.361833783649293,3.751041667717174z"/>
<path fill="#B31B1B" fill-opacity="0.37" d="m-20.933230030667133,-30.386406516487547 l7.361833783649297,3.7510416677171747 l-8.160655613754622,1.2925208720658077 l-7.361833783649297,-3.7510416677171747z"/>
<path fill="#B31B1B" fill-opacity="0.9" d="m-9.820354579300659,-19.273531065121077 l-3.7510416677171765,-7.3618337836492955 l-8.160655613754622,1.2925208720658077 l3.7510416677171765,7.3618337836492955z"/>
<path fill="#B31B1B" fill-opacity="0.9" d="m19.273531065121084,9.82035457930065 l7.361833783649288,3.7510416677171747 l-1.2925208720658006,8.160655613754619 l-7.361833783649288,-3.7510416677171747z"/>
<path fill="#B31B1B" fill-opacity="0.37" d="m30.38640651648756,20.93323003066712 l-3.751041667717189,-7.361833783649294 l-1.2925208720658006,8.160655613754619 l3.751041667717189,7.361833783649294z"/>
<path fill="#B31B1B" fill-opacity="0.37" d="m-2.458520795651374,-15.522489397403906 l3.7510416677171805,7.361833783649288 l-7.361833783649292,-3.751041667717171 l-3.7510416677171805,-7.361833783649288z"/>
<path fill="#B31B1B" fill-opacity="0.37" d="m15.522489397403909,2.458520795651366 l-7.361833783649292,-3.751041667717176 l3.7510416677171765,7.36183378364929 l7.361833783649292,3.751041667717176z"/>
<path fill="#B31B1B" fill-opacity="0.9" d="m0.0,0.0 l8.160655613754617,-1.2925208720658121 l1.292520872065806,-8.160655613754617 l-8.160655613754617,1.2925208720658121z"/>
<path fill="#B31B1B" fill-opacity="0.9" d="m-29.093885644421743,-29.09388564442174 l8.16065561375461,-1.2925208720658077 l1.2925208720658148,-8.16065561375462 l-8.16065561375461,1.2925208720658077z"/>
<path fill="#B31B1B" fill-opacity="0.9" d="m29.09388564442175,29.093885644421732 l1.2925208720658112,-8.160655613754614 l8.160655613754614,-1.2925208720658148 l-1.2925208720658112,8.160655613754614z"/>
<path fill="#B31B1B" fill-opacity="0.9" d="m-13.571396247017848,-26.63536484877037 l1.292520872065806,-8.160655613754624 l-7.361833783649294,-3.7510416677171676 l-1.292520872065806,8.160655613754624z"/>
<path fill="#B31B1B" fill-opacity="0.9" d="m26.635364848770376,13.571396247017834 l8.160655613754617,-1.2925208720658077 l3.7510416677171747,7.361833783649292 l-8.160655613754617,1.2925208720658077z"/>
<path fill="#B31B1B" fill-opacity="0.9" d="m-13.571396247017836,-26.635364848770372 l-7.361833783649297,-3.7510416677171747 l1.2925208720658148,-8.16065561375462 l7.361833783649297,3.7510416677171747z"/>
<path fill="#B31B1B" fill-opacity="0.9" d="m26.635364848770372,13.571396247017825 l3.751041667717189,7.361833783649294 l8.160655613754614,-1.2925208720658148 l-3.751041667717189,-7.361833783649294z"/>
<path fill="#B31B1B" fill-opacity="0.9" d="m-9.820354579300666,-19.273531065121077 l-3.751041667717182,-7.361833783649292 l5.842384369888313,-5.842384369888318 l3.751041667717182,7.361833783649292z"/>
<path fill="#B31B1B" fill-opacity="0.9" d="m19.27353106512108,9.820354579300657 l7.3618337836492955,3.7510416677171765 l5.842384369888311,-5.842384369888311 l-7.3618337836492955,-3.7510416677171765z"/>
<path fill="#B31B1B" fill-opacity="0.9" d="m-9.820354579300666,-19.273531065121077 l7.361833783649292,3.751041667717171 l5.842384369888309,-5.842384369888318 l-7.361833783649292,-3.751041667717171z"/>
<path fill="#B31B1B" fill-opacity="0.9" d="m19.27353106512108,9.820354579300657 l-3.751041667717171,-7.361833783649291 l5.842384369888315,-5.84238436988831 l3.751041667717171,7.361833783649291z"/>
<path fill="#B31B1B" fill-opacity="0.9" d="m1.2925208720658063,-8.160655613754617 l-3.7510416677171805,-7.361833783649288 l5.842384369888309,-5.842384369888318 l3.7510416677171805,7.361833783649288z"/>
<path fill="#B31B1B" fill-opacity="0.9" d="m8.160655613754617,-1.29252087206581 l7.361833783649292,3.751041667717176 l5.842384369888315,-5.84238436988831 l-7.361833783649292,-3.751041667717176z"/>
<path fill="#B31B1B" fill-opacity="0.9" d="m-27.801364772355935,-37.25454125817635 l5.842384369888311,-5.842384369888315 l-3.751041667717182,-7.361833783649288 l-5.842384369888311,5.842384369888315z"/>
<path fill="#B31B1B" fill-opacity="0.9" d="m1.2925208720658086,-8.160655613754617 l5.842384369888311,-5.842384369888315 l-3.751041667717179,-7.361833783649292 l-5.842384369888311,5.842384369888315z"/>
<path fill="#B31B1B" fill-opacity="0.9" d="m8.160655613754617,-1.2925208720658121 l5.842384369888311,-5.842384369888315 l7.361833783649292,3.751041667717174 l-5.842384369888311,5.842384369888315z"/>
<path fill="#B31B1B" fill-opacity="0.9" d="m37.25454125817636,27.801364772355917 l5.842384369888315,-5.842384369888311 l7.3618337836492955,3.751041667717171 l-5.842384369888315,5.842384369888311z"/>
<path fill="#B31B1B" fill-opacity="0.37" d="m-21.95898040246764,-43.09692562806466 l8.160655613754614,-1.2925208720658148 l-5.842384369888311,5.842384369888315 l-8.160655613754614,1.2925208720658148z"/>
<path fill="#B31B1B" fill-opacity="0.37" d="m43.096925628064675,21.958980402467624 l1.2925208720658077,-8.16065561375462 l-5.842384369888315,5.842384369888315 l-1.2925208720658077,8.16065561375462z"/>
<path fill="#B31B1B" fill-opacity="0.37" d="m7.13490524195412,-14.003039983642932 l-5.842384369888311,5.842384369888315 l8.160655613754614,-1.2925208720658112 l5.842384369888311,-5.842384369888315z"/>
<path fill="#B31B1B" fill-opacity="0.37" d="m14.003039983642928,-7.134905241954127 l-5.842384369888311,5.842384369888315 l1.292520872065806,-8.160655613754617 l5.842384369888311,-5.842384369888315z"/>
<path fill="#B31B1B" fill-opacity="0.37" d="m-21.958980402467624,-43.09692562806467 l-5.842384369888311,5.842384369888315 l8.160655613754617,-1.2925208720658148 l5.842384369888311,-5.842384369888315z"/>
<path fill="#B31B1B" fill-opacity="0.37" d="m43.096925628064675,21.958980402467606 l-5.842384369888315,5.842384369888311 l1.2925208720658148,-8.160655613754614 l5.842384369888315,-5.842384369888311z"/>
<path fill="#B31B1B" fill-opacity="0.37" d="m-12.278875374952042,-34.79602046252499 l-1.292520872065806,8.160655613754624 l5.842384369888313,-5.842384369888318 l1.292520872065806,-8.160655613754624z"/>
<path fill="#B31B1B" fill-opacity="0.37" d="m34.79602046252499,12.278875374952026 l-8.160655613754617,1.2925208720658077 l5.842384369888311,-5.842384369888311 l8.160655613754617,-1.2925208720658077z"/>
<path fill="#B31B1B" fill-opacity="0.9" d="m-6.436491005063733,-40.6384048324133 l-5.842384369888309,5.842384369888308 l-7.361833783649294,-3.7510416677171676 l5.842384369888309,-5.842384369888308z"/>
<path fill="#B31B1B" fill-opacity="0.9" d="m40.6384048324133,6.436491005063711 l-5.842384369888308,5.842384369888315 l3.7510416677171747,7.361833783649292 l5.842384369888308,-5.842384369888315z"/>
<path fill="#B31B1B" fill-opacity="0.9" d="m-13.798324788713025,-44.389446500130475 l-8.160655613754614,1.2925208720658148 l-3.7510416677171783,-7.361833783649288 l8.160655613754614,-1.2925208720658148z"/>
<path fill="#B31B1B" fill-opacity="0.9" d="m44.38944650013048,13.798324788713003 l-1.2925208720658077,8.16065561375462 l7.361833783649281,3.7510416677171747 l1.2925208720658077,-8.16065561375462z"/>
<path fill="#B31B1B" fill-opacity="0.37" d="m-2.6854493373465527,-33.27657104876401 l-3.75104166771718,-7.361833783649288 l-1.2925208720658024,8.160655613754614 l3.75104166771718,7.361833783649288z"/>
<path fill="#B31B1B" fill-opacity="0.37" d="m33.27657104876401,2.6854493373465385 l7.361833783649288,3.751041667717173 l-8.160655613754614,1.2925208720658112 l-7.361833783649288,-3.751041667717173z"/>
<path fill="#B31B1B" fill-opacity="0.37" d="m4.182685404342257,-26.408436307075206 l-8.160655613754615,1.2925208720658148 l7.361833783649294,3.7510416677171676 l8.160655613754615,-1.2925208720658148z"/>
<path fill="#B31B1B" fill-opacity="0.37" d="m26.408436307075206,-4.182685404342269 l-1.2925208720658112,8.160655613754615 l-3.751041667717171,-7.36183378364929 l1.2925208720658112,-8.160655613754615z"/>
<path fill="#B31B1B" fill-opacity="0.37" d="m4.182685404342266,-26.408436307075206 l7.361833783649288,3.7510416677171783 l-8.160655613754614,1.2925208720658041 l-7.361833783649288,-3.7510416677171783z"/>
<path fill="#B31B1B" fill-opacity="0.9" d="m15.29556085570873,-15.295560855708738 l-8.16065561375461,1.292520872065806 l-3.751041667717179,-7.361833783649292 l8.16065561375461,-1.292520872065806z"/>
<path fill="#B31B1B" fill-opacity="0.9" d="m15.29556085570873,-15.295560855708738 l-1.2925208720658024,8.16065561375461 l7.361833783649292,3.751041667717174 l1.2925208720658024,-8.16065561375461z"/>
<path fill="#B31B1B" fill-opacity="0.37" d="m26.408436307075206,-4.182685404342278 l-3.751041667717182,-7.361833783649287 l-1.2925208720658041,8.160655613754612 l3.751041667717182,7.361833783649287z"/>
<path fill="#B31B1B" fill-opacity="0.9" d="m-3.9779702094123586,-25.11591543500939 l1.292520872065806,-8.16065561375462 l8.160655613754617,-1.2925208720658077 l-1.292520872065806,8.16065561375462z"/>
<path fill="#B31B1B" fill-opacity="0.9" d="m25.115915435009395,3.977970209412346 l8.160655613754617,-1.2925208720658077 l1.2925208720658077,-8.160655613754617 l-8.160655613754617,1.2925208720658077z"/>
<path fill="#B31B1B" fill-opacity="0.9" d="m-6.436491005063733,-40.6384048324133 l3.75104166771718,7.361833783649288 l8.160655613754617,-1.2925208720658077 l-3.75104166771718,-7.361833783649288z"/>
<path fill="#B31B1B" fill-opacity="0.9" d="m40.6384048324133,6.436491005063711 l-7.361833783649288,-3.751041667717173 l1.2925208720658077,-8.160655613754617 l7.361833783649288,3.751041667717173z"/>
<path fill="#B31B1B" fill-opacity="0.9" d="m11.544519187991554,-22.657394639358028 l1.2925208720658095,-8.16065561375462 l-7.36183378364929,-3.7510416677171783 l-1.2925208720658095,8.16065561375462z"/>
<path fill="#B31B1B" fill-opacity="0.9" d="m22.657394639358024,-11.544519187991565 l8.16065561375462,-1.2925208720658148 l3.7510416677171747,7.36183378364929 l-8.16065561375462,1.2925208720658148z"/>
<path fill="#B31B1B" fill-opacity="0.9" d="m15.29556085570873,-15.295560855708738 l5.842384369888313,-5.842384369888316 l-3.7510416677171747,-7.361833783649292 l-5.842384369888313,5.842384369888316z"/>
<path fill="#B31B1B" fill-opacity="0.9" d="m15.29556085570873,-15.295560855708738 l5.842384369888313,-5.842384369888316 l7.3618337836492955,3.751041667717171 l-5.842384369888313,5.842384369888316z"/>
<path fill="#B31B1B" fill-opacity="0.37" d="m12.837040060057364,-30.81805025311265 l5.842384369888313,-5.842384369888318 l-1.2925208720658077,8.16065561375462 l-5.842384369888313,5.842384369888318z"/>
<path fill="#B31B1B" fill-opacity="0.37" d="m30.818050253112645,-12.83704006005738 l5.842384369888308,-5.842384369888315 l-8.160655613754614,1.2925208720658112 l-5.842384369888308,5.842384369888315z"/>
<path fill="#B31B1B" fill-opacity="0.9" d="m18.679424429945676,-36.66043462300097 l-5.842384369888313,5.842384369888318 l-7.36183378364929,-3.7510416677171783 l5.842384369888313,-5.842384369888318z"/>
<path fill="#B31B1B" fill-opacity="0.9" d="m36.66043462300095,-18.679424429945694 l-5.842384369888308,5.842384369888315 l3.7510416677171747,7.36183378364929 l5.842384369888308,-5.842384369888315z"/>
<path fill="#B31B1B" fill-opacity="0.37" d="m22.43046609766286,-29.29860083935168 l-1.2925208720658148,8.160655613754624 l-3.7510416677171747,-7.361833783649292 l1.2925208720658148,-8.160655613754624z"/>
<path fill="#B31B1B" fill-opacity="0.37" d="m29.298600839351664,-22.430466097662872 l-8.16065561375462,1.2925208720658183 l7.3618337836492955,3.751041667717171 l8.16065561375462,-1.2925208720658183z"/>
<path fill="#B31B1B" fill-opacity="0.9" d="m21.137945225597043,-21.137945225597054 l8.16065561375462,-1.2925208720658183 l1.2925208720658077,-8.160655613754614 l-8.16065561375462,1.2925208720658183z"/>
<path fill="#B31B1B" fill-opacity="0.9" d="m18.679424429945676,-36.66043462300097 l3.751041667717182,7.361833783649288 l8.160655613754614,-1.2925208720658077 l-3.751041667717182,-7.361833783649288z"/>
<path fill="#B31B1B" fill-opacity="0.9" d="m36.66043462300095,-18.679424429945694 l-7.361833783649288,-3.7510416677171783 l1.2925208720658077,-8.160655613754614 l7.361833783649288,3.7510416677171783z"/>
<path fill="#B31B1B" fill-opacity="0.37" d="m34.201913827349586,-34.2019138273496 l3.751041667717182,7.361833783649288 l-7.3618337836492955,-3.7510416677171747 l-3.751041667717182,-7.361833783649288z"/>
<path fill="#B31B1B" fill-opacity="0.9" d="m26.840080043700294,-37.952955495066774 l7.361833783649292,3.7510416677171747 l5.842384369888308,-5.842384369888315 l-7.361833783649292,-3.7510416677171747z"/>
<path fill="#B31B1B" fill-opacity="0.9" d="m37.95295549506677,-26.84008004370031 l-3.751041667717182,-7.361833783649288 l5.842384369888308,-5.842384369888315 l3.751041667717182,7.361833783649288z"/>
</g>
</svg>