<?xml version="1.0" encoding="utf-8"?>
<svg width="100%" height="100%" viewBox="-70.0 -70.0 140.0 140.0" preserveAspectRatio="xMidYMid meet" version="1.1" baseProfile="full" xmlns="http://www.w3.org/2000/svg">
<g style="stroke:#FFFFFF; stroke-width: 0.30638587087566255; stroke-linejoin: round;">
<path fill="#B31B1B" fill-opacity="0.9" d="m-51.38410219029953,11.17734109451133 l5.043562539782982,-0.7988218301053251 l2.318271243866306,4.549863497822507 l-5.043562539782982,0.7988218301053251z"/>
<path fill="#B31B1B" fill-opacity="0.9" d="m-11.17734109451131,51.384102190299544 l0.7988218301053287,-5.043562539782997 l-4.5498634978225105,-2.318271243866292 l-0.7988218301053287,5.043562539782997z"/>
<path fill="#B31B1B" fill-opacity="0.9" d="m-55.933965688122036,8.859069850645046 l3.610792115932121,-3.610792115932121 l4.5498634978225,2.318271243866306 l-3.610792115932121,3.610792115932121z"/>
<path fill="#B31B1B" fill-opacity="0.9" d="m-8.859069850645021,55.93396568812204 l3.6107921159321172,-3.610792115932128 l-2.318271243866306,-4.549863497822486 l-3.6107921159321172,3.610792115932128z"/>
<path fill="#B31B1B" fill-opacity="0.9" d="m-55.93396568812204,8.859069850645028 l4.549863497822514,2.3182712438663025 l3.6107921159321137,-3.6107921159321172 l-4.549863497822514,-2.3182712438663025z"/>
<path fill="#B31B1B" fill-opacity="0.9" d="m-8.859069850645003,55.93396568812204 l-2.318271243866306,-4.5498634978225 l3.610792115932121,-3.610792115932121 l2.318271243866306,4.5498634978225z"/>
<path fill="#B31B1B" fill-opacity="0.37" d="m-41.21029812082345,16.361153186079385 l0.7988218301053251,-5.043562539782991 l-3.6107921159321137,3.610792115932119 l-0.7988218301053251,5.043562539782991z"/>
<path fill="#B31B1B" fill-opacity="0.37" d="m-16.361153186079367,41.21029812082346 l5.043562539782995,-0.7988218301053251 l-3.610792115932119,3.610792115932121 l-5.043562539782995,0.7988218301053251z"/>
<path fill="#B31B1B" fill-opacity="0.37" d="m-46.34053965051655,10.378519264406005 l-5.043562539782982,0.7988218301053251 l3.6107921159321137,-3.6107921159321172 l5.043562539782982,-0.7988218301053251z"/>
<path fill="#B31B1B" fill-opacity="0.37" d="m-10.37851926440598,46.34053965051655 l-0.7988218301053287,5.043562539782997 l3.610792115932121,-3.610792115932121 l0.7988218301053287,-5.043562539782997z"/>
<path fill="#B31B1B" fill-opacity="0.9" d="m-42.72974753458443,6.767727148473888 l-3.6107921159321137,3.6107921159321172 l2.318271243866306,4.549863497822507 l3.6107921159321137,-3.6107921159321172z"/>
<path fill="#B31B1B" fill-opacity="0.9" d="m-6.76772714847387,42.72974753458444 l-3.61079211593211,3.6107921159321066 l-4.5498634978225105,-2.318271243866292 l3.61079211593211,-3.6107921159321066z"/>
<path fill="#B31B1B" fill-opacity="0.37" d="m-47.27961103240694,4.449455904607596 l-5.043562539782975,0.7988218301053287 l4.5498634978225,2.318271243866306 l5.043562539782975,-0.7988218301053287z"/>
<path fill="#B31B1B" fill-opacity="0.9" d="m-29.298600839351664,22.430466097662862 l-2.318271243866306,-4.549863497822503 l-5.043562539782982,0.7988218301053323 l2.318271243866306,4.549863497822503z"/>
<path fill="#B31B1B" fill-opacity="0.9" d="m-22.43046609766285,29.298600839351675 l4.549863497822507,2.3182712438663025 l-0.7988218301053287,5.0435625397829895 l-4.549863497822507,-2.3182712438663025z"/>
<path fill="#B31B1B" fill-opacity="0.37" d="m-4.449455904607575,47.27961103240694 l-0.7988218301053287,5.043562539782975 l-2.318271243866306,-4.549863497822486 l0.7988218301053287,-5.043562539782975z"/>
<path fill="#B31B1B" fill-opacity="0.9" d="m-40.41147629071813,11.317590646296393 l4.5498634978225,2.318271243866306 l-0.7988218301053251,5.043562539782991 l-4.5498634978225,-2.318271243866306z"/>
<path fill="#B31B1B" fill-opacity="0.9" d="m-11.317590646296372,40.411476290718134 l-2.3182712438663113,-4.5498634978225 l-5.0435625397829895,0.7988218301053323 l2.3182712438663113,4.5498634978225z"/>
<path fill="#B31B1B" fill-opacity="0.9" d="m-52.323173572189916,5.248277734712925 l5.043562539782975,-0.7988218301053287 l0.7988218301053251,-5.0435625397829895 l-5.043562539782975,0.7988218301053287z"/>
<path fill="#B31B1B" fill-opacity="0.9" d="m-5.248277734712904,52.323173572189916 l0.7988218301053287,-5.043562539782975 l5.0435625397829895,-0.7988218301053251 l-0.7988218301053287,5.043562539782975z"/>
<path fill="#B31B1B" fill-opacity="0.9" d="m-30.818050253112645,12.837040060057376 l-5.043562539782982,0.7988218301053234 l-0.7988218301053251,5.043562539782991 l5.043562539782982,-0.7988218301053234z"/>
<path fill="#B31B1B" fill-opacity="0.9" d="m-12.837040060057362,30.818050253112652 l-0.7988218301053216,5.043562539782982 l-5.0435625397829895,0.7988218301053323 l0.7988218301053216,-5.043562539782982z"/>
<path fill="#B31B1B" fill-opacity="0.9" d="m-42.72974753458443,6.767727148473902 l-4.549863497822507,-2.318271243866306 l0.7988218301053251,-5.0435625397829895 l4.549863497822507,2.318271243866306z"/>
<path fill="#B31B1B" fill-opacity="0.37" d="m-35.86161279289563,13.6358618901627 l5.043562539782982,-0.7988218301053234 l-4.5498634978225,-2.318271243866306 l-5.043562539782982,0.7988218301053234z"/>
<path fill="#B31B1B" fill-opacity="0.37" d="m-31.61687208321797,17.88060259984036 l0.7988218301053251,-5.043562539782982 l2.318271243866306,4.5498634978225 l-0.7988218301053251,5.043562539782982z"/>
<path fill="#B31B1B" fill-opacity="0.9" d="m-24.74873734152916,24.748737341529164 l-4.549863497822503,-2.3182712438663025 l0.7988218301053251,-5.043562539782986 l4.549863497822503,2.3182712438663025z"/>
<path fill="#B31B1B" fill-opacity="0.9" d="m-24.748737341529154,24.74873734152917 l2.3182712438663025,4.549863497822503 l5.0435625397829895,-0.7988218301053287 l-2.3182712438663025,-4.549863497822503z"/>
<path fill="#B31B1B" fill-opacity="0.37" d="m-17.880602599840344,31.616872083217977 l5.043562539782982,-0.7988218301053251 l-4.5498634978225,-2.318271243866306 l-5.043562539782982,0.7988218301053251z"/>
<path fill="#B31B1B" fill-opacity="0.37" d="m-13.635861890162683,35.861612792895635 l0.7988218301053216,-5.043562539782982 l2.318271243866308,4.5498634978225 l-0.7988218301053216,5.043562539782982z"/>
<path fill="#B31B1B" fill-opacity="0.9" d="m-6.767727148473885,42.72974753458443 l2.3182712438663096,4.549863497822507 l5.0435625397829895,-0.7988218301053251 l-2.3182712438663096,-4.549863497822507z"/>
<path fill="#B31B1B" fill-opacity="0.9" d="m-42.72974753458443,6.767727148473888 l5.043562539782982,-0.7988218301053287 l2.318271243866306,4.5498634978225105 l-5.043562539782982,0.7988218301053287z"/>
<path fill="#B31B1B" fill-opacity="0.9" d="m-6.76772714847387,42.72974753458444 l0.7988218301053269,-5.0435625397829895 l-4.5498634978225105,-2.318271243866299 l-0.7988218301053269,5.0435625397829895z"/>
<path fill="#B31B1B" fill-opacity="0.37" d="m-44.24919694834542,-2.8256988891315906 l2.318271243866313,4.549863497822507 l-4.549863497822507,-2.3182712438663096 l-2.318271243866313,-4.549863497822507z"/>
<path fill="#B31B1B" fill-opacity="0.9" d="m-42.72974753458443,6.767727148473902 l5.0435625397829895,-0.7988218301053234 l0.798821830105318,-5.043562539782991 l-5.0435625397829895,0.7988218301053234z"/>
<path fill="#B31B1B" fill-opacity="0.37" d="m-26.268186755290145,15.155311303923678 l2.318271243866306,4.549863497822503 l-4.5498634978225,-2.318271243866306 l-2.318271243866306,-4.549863497822503z"/>
<path fill="#B31B1B" fill-opacity="0.9" d="m-24.74873734152916,24.748737341529164 l0.7988218301053216,-5.043562539782982 l5.0435625397829895,-0.7988218301053287 l-0.7988218301053216,5.043562539782982z"/>
<path fill="#B31B1B" fill-opacity="0.9" d="m-24.748737341529154,24.74873734152917 l5.043562539782986,-0.7988218301053251 l0.7988218301053251,-5.043562539782986 l-5.043562539782986,0.7988218301053251z"/>
<path fill="#B31B1B" fill-opacity="0.37" d="m-15.155311303923668,26.26818675529015 l-4.5498634978225,-2.3182712438663025 l2.318271243866306,4.5498634978225 l4.5498634978225,2.3182712438663025z"/>
<path fill="#B31B1B" fill-opacity="0.9" d="m-6.767727148473885,42.72974753458443 l0.7988218301053234,-5.043562539782982 l5.043562539782991,-0.7988218301053251 l-0.7988218301053234,5.043562539782982z"/>
<path fill="#B31B1B" fill-opacity="0.37" d="m2.8256988891316084,44.249196948345414 l-4.549863497822507,-2.318271243866306 l2.318271243866313,4.549863497822507 l4.549863497822507,2.318271243866306z"/>
<path fill="#B31B1B" fill-opacity="0.37" d="m-33.136321496978944,8.287176562234869 l-4.549863497822507,-2.3182712438663096 l2.318271243866306,4.5498634978225105 l4.549863497822507,2.3182712438663096z"/>
<path fill="#B31B1B" fill-opacity="0.37" d="m-8.287176562234853,33.13632149697895 l2.3182712438663096,4.5498634978225 l-4.5498634978225105,-2.318271243866299 l-2.3182712438663096,-4.5498634978225z"/>
<path fill="#B31B1B" fill-opacity="0.9" d="m-41.93092570447911,1.7241646086909164 l3.6107921159321137,-3.6107921159321172 l-2.318271243866306,-4.549863497822507 l-3.6107921159321137,3.6107921159321172z"/>
<path fill="#B31B1B" fill-opacity="0.9" d="m-37.686184994801444,5.968905318368579 l3.6107921159321066,-3.610792115932119 l4.549863497822507,2.3182712438663025 l-3.6107921159321066,3.610792115932119z"/>
<path fill="#B31B1B" fill-opacity="0.9" d="m-30.818050253112645,12.837040060057376 l4.5498634978225,2.3182712438663025 l3.6107921159321172,-3.6107921159321172 l-4.5498634978225,-2.3182712438663025z"/>
<path fill="#B31B1B" fill-opacity="0.9" d="m-23.94991551142384,19.705174801746182 l-2.318271243866306,-4.549863497822503 l3.6107921159321172,-3.6107921159321172 l2.318271243866306,4.549863497822503z"/>
<path fill="#B31B1B" fill-opacity="0.9" d="m-19.705174801746168,23.949915511423846 l4.5498634978225,2.3182712438663025 l3.6107921159321172,-3.6107921159321172 l-4.5498634978225,-2.3182712438663025z"/>
<path fill="#B31B1B" fill-opacity="0.9" d="m-12.837040060057362,30.818050253112652 l-2.318271243866306,-4.549863497822503 l3.6107921159321172,-3.6107921159321172 l2.318271243866306,4.549863497822503z"/>
<path fill="#B31B1B" fill-opacity="0.9" d="m-5.968905318368561,37.68618499480145 l3.6107921159321155,-3.6107921159321137 l-2.3182712438663042,-4.549863497822507 l-3.6107921159321155,3.6107921159321137z"/>
<path fill="#B31B1B" fill-opacity="0.9" d="m-1.7241646086908986,41.93092570447911 l3.6107921159321172,-3.6107921159321137 l4.549863497822507,2.318271243866306 l-3.6107921159321172,3.6107921159321137z"/>
<path fill="#B31B1B" fill-opacity="0.9" d="m-30.818050253112645,12.837040060057376 l-2.318271243866299,-4.549863497822507 l3.6107921159321137,-3.6107921159321155 l2.318271243866299,4.549863497822507z"/>
<path fill="#B31B1B" fill-opacity="0.9" d="m-12.837040060057362,30.818050253112652 l4.549863497822509,2.318271243866299 l3.610792115932112,-3.610792115932121 l-4.549863497822509,-2.318271243866299z"/>
<path fill="#B31B1B" fill-opacity="0.9" d="m-37.68618499480145,5.968905318368559 l4.549863497822507,2.3182712438663096 l3.6107921159321137,-3.6107921159321155 l-4.549863497822507,-2.3182712438663096z"/>
<path fill="#B31B1B" fill-opacity="0.9" d="m-5.968905318368543,37.68618499480145 l-2.3182712438663096,-4.5498634978225 l3.610792115932112,-3.610792115932121 l2.3182712438663096,4.5498634978225z"/>
<path fill="#B31B1B" fill-opacity="0.37" d="m-38.320133588546994,-1.8866275072412009 l5.043562539782982,-0.7988218301053305 l-3.6107921159321137,3.610792115932119 l-5.043562539782982,0.7988218301053305z"/>
<path fill="#B31B1B" fill-opacity="0.37" d="m-34.07539287886934,2.35811320243646 l-3.6107921159321066,3.610792115932119 l0.798821830105318,-5.043562539782991 l3.6107921159321066,-3.610792115932119z"/>
<path fill="#B31B1B" fill-opacity="0.37" d="m-20.339123395491725,16.094382685814065 l-3.6107921159321137,3.6107921159321172 l5.0435625397829895,-0.7988218301053287 l3.6107921159321137,-3.6107921159321172z"/>
<path fill="#B31B1B" fill-opacity="0.37" d="m-16.094382685814054,20.33912339549173 l-3.6107921159321137,3.6107921159321172 l0.7988218301053251,-5.043562539782986 l3.6107921159321137,-3.6107921159321172z"/>
<path fill="#B31B1B" fill-opacity="0.37" d="m-2.3581132024364457,34.07539287886934 l-3.6107921159321155,3.6107921159321137 l5.043562539782991,-0.7988218301053251 l3.6107921159321155,-3.6107921159321137z"/>
<path fill="#B31B1B" fill-opacity="0.37" d="m1.8866275072412186,38.320133588546994 l0.7988218301053305,-5.0435625397829895 l-3.610792115932119,3.610792115932121 l-0.7988218301053305,5.0435625397829895z"/>
<path fill="#B31B1B" fill-opacity="0.9" d="m-15.29556085570874,15.29556085570874 l-5.043562539782986,0.7988218301053251 l-2.3182712438663025,-4.549863497822503 l5.043562539782986,-0.7988218301053251z"/>
<path fill="#B31B1B" fill-opacity="0.9" d="m-15.295560855708732,15.295560855708747 l-0.7988218301053216,5.043562539782982 l4.549863497822503,2.3182712438663025 l0.7988218301053216,-5.043562539782982z"/>
<path fill="#B31B1B" fill-opacity="0.9" d="m-33.27657104876401,-2.6854493373465314 l-5.043562539782982,0.7988218301053305 l-2.318271243866306,-4.549863497822507 l5.043562539782982,-0.7988218301053305z"/>
<path fill="#B31B1B" fill-opacity="0.9" d="m-33.27657104876401,-2.6854493373465314 l-0.7988218301053251,5.043562539782991 l4.549863497822507,2.3182712438663025 l0.7988218301053251,-5.043562539782991z"/>
<path fill="#B31B1B" fill-opacity="0.37" d="m-26.4084363070752,4.182685404342276 l-2.318271243866306,-4.549863497822503 l-0.7988218301053251,5.0435625397829895 l2.318271243866306,4.549863497822503z"/>
<path fill="#B31B1B" fill-opacity="0.37" d="m-22.163695597397542,8.42742611401993 l-5.0435625397829895,0.7988218301053287 l4.549863497822503,2.3182712438663025 l5.0435625397829895,-0.7988218301053287z"/>
<path fill="#B31B1B" fill-opacity="0.37" d="m-8.42742611401992,22.163695597397545 l-0.7988218301053287,5.0435625397829895 l-2.3182712438663025,-4.549863497822503 l0.7988218301053287,-5.0435625397829895z"/>
<path fill="#B31B1B" fill-opacity="0.37" d="m-4.182685404342264,26.4084363070752 l4.549863497822503,2.3182712438663096 l-5.0435625397829895,0.7988218301053216 l-4.549863497822503,-2.3182712438663096z"/>
<path fill="#B31B1B" fill-opacity="0.9" d="m2.685449337346549,33.276571048764005 l-5.043562539782995,0.7988218301053323 l-2.3182712438663042,-4.549863497822507 l5.043562539782995,-0.7988218301053323z"/>
<path fill="#B31B1B" fill-opacity="0.9" d="m2.685449337346549,33.276571048764005 l-0.7988218301053305,5.0435625397829895 l4.549863497822507,2.318271243866306 l0.7988218301053305,-5.0435625397829895z"/>
<path fill="#B31B1B" fill-opacity="0.37" d="m-26.4084363070752,4.182685404342269 l-0.7988218301053323,5.0435625397829895 l-2.318271243866299,-4.549863497822505 l0.7988218301053323,-5.0435625397829895z"/>
<path fill="#B31B1B" fill-opacity="0.37" d="m-4.182685404342257,26.408436307075203 l-5.043562539782991,0.7988218301053323 l4.549863497822507,2.3182712438662954 l5.043562539782991,-0.7988218301053323z"/>
<path fill="#B31B1B" fill-opacity="0.9" d="m-27.20725813718053,9.226247944125259 l0.7988218301053323,-5.0435625397829895 l5.043562539782982,-0.7988218301053216 l-0.7988218301053323,5.0435625397829895z"/>
<path fill="#B31B1B" fill-opacity="0.9" d="m-9.226247944125248,27.207258137180535 l5.043562539782991,-0.7988218301053323 l0.7988218301053198,-5.043562539782986 l-5.043562539782991,0.7988218301053323z"/>
<path fill="#B31B1B" fill-opacity="0.9" d="m-34.79602046252499,-12.278875374952019 l-0.7988218301053251,5.0435625397829895 l-5.043562539782982,0.7988218301053216 l0.7988218301053251,-5.0435625397829895z"/>
<path fill="#B31B1B" fill-opacity="0.9" d="m12.278875374952035,34.79602046252499 l-5.0435625397829895,0.7988218301053251 l-0.7988218301053198,5.043562539782982 l5.0435625397829895,-0.7988218301053251z"/>
<path fill="#B31B1B" fill-opacity="0.37" d="m-35.59484229263032,-7.2353128351690295 l2.318271243866306,4.549863497822498 l0.7988218301053251,-5.043562539782986 l-2.318271243866306,-4.549863497822498z"/>
<path fill="#B31B1B" fill-opacity="0.37" d="m7.235312835169045,35.59484229263032 l-4.549863497822496,-2.318271243866313 l5.043562539782984,-0.798821830105318 l4.549863497822496,2.318271243866313z"/>
<path fill="#B31B1B" fill-opacity="0.9" d="m-28.726707550941505,-0.3671780934802271 l2.318271243866306,4.549863497822503 l5.043562539782986,-0.7988218301053251 l-2.318271243866306,-4.549863497822503z"/>
<path fill="#B31B1B" fill-opacity="0.9" d="m-17.613832099575042,10.745697357886238 l0.7988218301053251,-5.043562539782989 l-4.5498634978225,-2.3182712438663016 l-0.7988218301053251,5.043562539782989z"/>
<path fill="#B31B1B" fill-opacity="0.9" d="m-10.745697357886232,17.613832099575045 l5.043562539782991,-0.7988218301053287 l2.3182712438663042,4.5498634978225 l-5.043562539782991,0.7988218301053287z"/>
<path fill="#B31B1B" fill-opacity="0.9" d="m0.36717809348023955,28.72670755094151 l-4.549863497822503,-2.3182712438663096 l0.7988218301053234,-5.043562539782986 l4.549863497822503,2.3182712438663096z"/>
<path fill="#B31B1B" fill-opacity="0.9" d="m-15.29556085570874,15.29556085570874 l3.6107921159321137,-3.610792115932112 l-2.3182712438663025,-4.549863497822505 l-3.6107921159321137,3.610792115932112z"/>
<path fill="#B31B1B" fill-opacity="0.9" d="m-15.295560855708732,15.295560855708747 l3.61079211593211,-3.6107921159321155 l4.549863497822506,2.3182712438663007 l-3.61079211593211,3.6107921159321155z"/>
<path fill="#B31B1B" fill-opacity="0.9" d="m-33.27657104876401,-2.6854493373465314 l3.6107921159321137,-3.610792115932112 l4.549863497822507,2.3182712438663042 l-3.6107921159321137,3.610792115932112z"/>
<path fill="#B31B1B" fill-opacity="0.9" d="m2.685449337346549,33.276571048764005 l3.61079211593211,-3.61079211593211 l-2.318271243866308,-4.549863497822503 l-3.61079211593211,3.61079211593211z"/>
<path fill="#B31B1B" fill-opacity="0.37" d="m-29.6657789328319,-6.296241453278643 l0.7988218301053216,-5.043562539782988 l-3.61079211593211,3.6107921159321137 l-0.7988218301053216,5.043562539782988z"/>
<path fill="#B31B1B" fill-opacity="0.37" d="m6.296241453278659,29.665778932831895 l5.043562539782988,-0.7988218301053216 l-3.6107921159321137,3.6107921159321137 l-5.043562539782988,0.7988218301053216z"/>
<path fill="#B31B1B" fill-opacity="0.37" d="m-23.683145011158516,-1.1659999235855505 l-5.0435625397829895,0.7988218301053234 l3.6107921159321137,-3.610792115932112 l5.0435625397829895,-0.7988218301053234z"/>
<path fill="#B31B1B" fill-opacity="0.37" d="m-16.815010269469717,5.702134818103249 l3.6107921159321155,-3.6107921159321137 l-0.7988218301053269,5.043562539782987 l-3.6107921159321155,3.6107921159321137z"/>
<path fill="#B31B1B" fill-opacity="0.37" d="m-5.702134818103241,16.815010269469717 l3.610792115932112,-3.6107921159321137 l-5.043562539782987,0.7988218301053287 l-3.610792115932112,3.6107921159321137z"/>
<path fill="#B31B1B" fill-opacity="0.37" d="m1.1659999235855611,23.683145011158516 l-0.7988218301053216,5.043562539782993 l3.610792115932112,-3.6107921159321172 l0.7988218301053216,-5.043562539782993z"/>
<path fill="#B31B1B" fill-opacity="0.9" d="m-31.185228346592883,-15.889667490884133 l-3.61079211593211,3.6107921159321137 l2.318271243866306,4.549863497822502 l3.61079211593211,-3.6107921159321137z"/>
<path fill="#B31B1B" fill-opacity="0.9" d="m15.889667490884147,31.185228346592876 l-3.610792115932112,3.6107921159321172 l-4.549863497822502,-2.318271243866306 l3.610792115932112,-3.6107921159321172z"/>
<path fill="#B31B1B" fill-opacity="0.9" d="m-20.07235289522641,-4.776792039517667 l2.3182712438663096,4.549863497822501 l-3.6107921159321137,3.6107921159321172 l-2.3182712438663096,-4.549863497822501z"/>
<path fill="#B31B1B" fill-opacity="0.9" d="m-13.204218153537601,2.0913427021711355 l-3.6107921159321155,3.6107921159321137 l-4.5498634978225,-2.3182712438663016 l3.6107921159321155,-3.6107921159321137z"/>
<path fill="#B31B1B" fill-opacity="0.9" d="m-13.2042181535376,2.0913427021711373 l-4.5498634978225,-2.3182712438663033 l-3.6107921159321137,3.6107921159321172 l4.5498634978225,2.3182712438663033z"/>
<path fill="#B31B1B" fill-opacity="0.9" d="m-2.091342702171132,13.2042181535376 l2.318271243866305,4.5498634978225 l-3.6107921159321137,3.6107921159321137 l-2.318271243866305,-4.5498634978225z"/>
<path fill="#B31B1B" fill-opacity="0.9" d="m-2.0913427021711293,13.204218153537603 l-3.610792115932112,3.6107921159321137 l2.3182712438663042,4.5498634978225 l3.610792115932112,-3.6107921159321137z"/>
<path fill="#B31B1B" fill-opacity="0.9" d="m4.7767920395176775,20.072352895226405 l-4.549863497822504,-2.318271243866306 l-3.6107921159321137,3.6107921159321137 l4.549863497822504,2.318271243866306z"/>
<path fill="#B31B1B" fill-opacity="0.37" d="m-10.885946909671297,6.641206199993638 l-0.7988218301053287,5.0435625397829895 l-2.3182712438663025,-4.549863497822505 l0.7988218301053287,-5.0435625397829895z"/>
<path fill="#B31B1B" fill-opacity="0.37" d="m-6.641206199993632,10.885946909671302 l-5.04356253978299,0.7988218301053287 l4.549863497822506,2.3182712438663007 l5.04356253978299,-0.7988218301053287z"/>
<path fill="#B31B1B" fill-opacity="0.9" d="m-28.866957102726577,-11.339803993061631 l-0.7988218301053216,5.043562539782988 l4.549863497822507,2.3182712438663042 l0.7988218301053216,-5.043562539782988z"/>
<path fill="#B31B1B" fill-opacity="0.9" d="m11.339803993061647,28.866957102726573 l-5.043562539782988,0.7988218301053216 l-2.318271243866308,-4.549863497822503 l5.043562539782988,-0.7988218301053216z"/>
<path fill="#B31B1B" fill-opacity="0.9" d="m-11.684768739776626,11.684768739776628 l0.7988218301053287,-5.0435625397829895 l5.043562539782986,-0.798821830105326 l-0.7988218301053287,5.0435625397829895z"/>
<path fill="#B31B1B" fill-opacity="0.9" d="m-11.684768739776622,11.684768739776631 l5.04356253978299,-0.7988218301053287 l0.7988218301053225,-5.043562539782989 l-5.04356253978299,0.7988218301053287z"/>
<path fill="#B31B1B" fill-opacity="0.9" d="m-19.27353106512109,-9.820354579300655 l-5.043562539782975,0.7988218301053287 l-0.7988218301053251,5.043562539782988 l5.043562539782975,-0.7988218301053287z"/>
<path fill="#B31B1B" fill-opacity="0.9" d="m9.820354579300663,19.273531065121084 l-0.7988218301053251,5.043562539782979 l-5.043562539782986,0.7988218301053287 l0.7988218301053251,-5.043562539782979z"/>
<path fill="#B31B1B" fill-opacity="0.37" d="m-17.7540816513601,-0.22692854169516607 l4.5498634978225,2.3182712438663033 l-2.318271243866306,-4.549863497822501 l-4.5498634978225,-2.3182712438663033z"/>
<path fill="#B31B1B" fill-opacity="0.37" d="m0.22692854169517318,17.7540816513601 l-2.318271243866305,-4.5498634978225 l4.549863497822502,2.318271243866306 l2.318271243866305,4.5498634978225z"/>
<path fill="#B31B1B" fill-opacity="0.9" d="m-31.185228346592883,-15.889667490884133 l2.318271243866306,4.549863497822502 l5.043562539782986,-0.7988218301053251 l-2.318271243866306,-4.549863497822502z"/>
<path fill="#B31B1B" fill-opacity="0.9" d="m15.889667490884147,31.185228346592876 l-4.5498634978225,-2.3182712438663025 l0.7988218301053216,-5.0435625397829895 l4.5498634978225,2.3182712438663025z"/>
<path fill="#B31B1B" fill-opacity="0.37" d="m-24.317093604904066,-9.021532749195327 l-4.5498634978225105,-2.3182712438663042 l5.043562539782986,-0.7988218301053251 l4.5498634978225105,2.3182712438663042z"/>
<path fill="#B31B1B" fill-opacity="0.9" d="m-13.204218153537601,2.0913427021711355 l2.3182712438663042,4.5498634978225025 l5.043562539782986,-0.798821830105326 l-2.3182712438663042,-4.5498634978225025z"/>
<path fill="#B31B1B" fill-opacity="0.9" d="m-2.0913427021711293,13.204218153537603 l-4.5498634978225025,-2.3182712438663007 l0.7988218301053225,-5.043562539782989 l4.5498634978225025,2.3182712438663007z"/>
<path fill="#B31B1B" fill-opacity="0.37" d="m9.021532749195337,24.317093604904063 l2.3182712438663096,4.5498634978225105 l0.7988218301053216,-5.0435625397829895 l-2.3182712438663096,-4.5498634978225105z"/>
<path fill="#B31B1B" fill-opacity="0.9" d="m-31.18522834659288,-15.889667490884136 l5.043562539782986,-0.7988218301053251 l2.318271243866306,4.549863497822503 l-5.043562539782986,0.7988218301053251z"/>
<path fill="#B31B1B" fill-opacity="0.9" d="m15.88966749088415,31.185228346592872 l0.7988218301053216,-5.0435625397829895 l-4.5498634978225,-2.3182712438663025 l-0.7988218301053216,5.0435625397829895z"/>
<path fill="#B31B1B" fill-opacity="0.9" d="m-19.27353106512109,-9.820354579300655 l4.549863497822503,2.3182712438663042 l-0.798821830105318,5.043562539782988 l-4.549863497822503,-2.3182712438663042z"/>
<path fill="#B31B1B" fill-opacity="0.9" d="m9.820354579300663,19.273531065121084 l-2.318271243866305,-4.549863497822502 l-5.043562539782988,0.7988218301053234 l2.318271243866305,4.549863497822502z"/>
<path fill="#B31B1B" fill-opacity="0.37" d="m-12.405396323432278,-2.9522198376118487 l-2.3182712438663096,-4.5498634978225025 l-0.798821830105318,5.043562539782988 l2.3182712438663096,4.5498634978225025z"/>
<path fill="#B31B1B" fill-opacity="0.37" d="m2.952219837611855,12.405396323432278 l4.5498634978225025,2.3182712438663042 l-5.043562539782988,0.7988218301053234 l-4.5498634978225025,-2.3182712438663042z"/>
<path fill="#B31B1B" fill-opacity="0.37" d="m-3.6107921159321146,3.6107921159321146 l-4.549863497822501,-2.3182712438663033 l2.3182712438663042,4.549863497822501 l4.549863497822501,2.3182712438663033z"/>
<path fill="#B31B1B" fill-opacity="0.37" d="m-3.610792115932113,3.6107921159321164 l2.3182712438663056,4.549863497822501 l-4.549863497822502,-2.3182712438663033 l-2.3182712438663056,-4.549863497822501z"/>
<path fill="#B31B1B" fill-opacity="0.9" d="m-13.2042181535376,2.0913427021711373 l0.7988218301053216,-5.043562539782986 l5.043562539782986,-0.798821830105326 l-0.7988218301053216,5.043562539782986z"/>
<path fill="#B31B1B" fill-opacity="0.9" d="m-2.091342702171132,13.2042181535376 l5.043562539782987,-0.7988218301053216 l0.7988218301053234,-5.043562539782988 l-5.043562539782987,0.7988218301053216z"/>
<path fill="#B31B1B" fill-opacity="0.37" d="m-21.59180230898739,-14.370218077123155 l-4.549863497822503,-2.318271243866306 l2.318271243866306,4.549863497822503 l4.549863497822503,2.318271243866306z"/>
<path fill="#B31B1B" fill-opacity="0.37" d="m14.370218077123168,21.591802308987383 l2.3182712438663042,4.5498634978225 l-4.5498634978225,-2.3182712438663025 l-2.3182712438663042,-4.5498634978225z"/>
<path fill="#B31B1B" fill-opacity="0.9" d="m-31.18522834659288,-15.889667490884136 l0.7988218301053216,-5.043562539782982 l5.0435625397829895,-0.7988218301053287 l-0.7988218301053216,5.043562539782982z"/>
<path fill="#B31B1B" fill-opacity="0.9" d="m15.88966749088415,31.185228346592872 l5.043562539782986,-0.7988218301053251 l0.7988218301053251,-5.043562539782986 l-5.043562539782986,0.7988218301053251z"/>
<path fill="#B31B1B" fill-opacity="0.9" d="m-14.723667567298587,-7.502083335434351 l2.3182712438663096,4.5498634978225025 l5.043562539782986,-0.798821830105326 l-2.3182712438663096,-4.5498634978225025z"/>
<path fill="#B31B1B" fill-opacity="0.9" d="m7.5020833354343575,14.723667567298582 l-4.5498634978225025,-2.3182712438663042 l0.7988218301053234,-5.043562539782988 l4.5498634978225025,2.3182712438663042z"/>
<path fill="#B31B1B" fill-opacity="0.9" d="m-14.723667567298584,-7.502083335434353 l5.0435625397829895,-0.7988218301053234 l2.3182712438663033,4.549863497822501 l-5.0435625397829895,0.7988218301053234z"/>
<path fill="#B31B1B" fill-opacity="0.9" d="m7.50208333543436,14.72366756729858 l0.7988218301053216,-5.043562539782988 l-4.5498634978225025,-2.3182712438663033 l-0.7988218301053216,5.043562539782988z"/>
<path fill="#B31B1B" fill-opacity="0.9" d="m-8.160655613754615,1.2925208720658112 l4.549863497822501,2.3182712438663033 l3.6107921159321146,-3.6107921159321146 l-4.549863497822501,-2.3182712438663033z"/>
<path fill="#B31B1B" fill-opacity="0.9" d="m-8.160655613754615,1.2925208720658126 l3.610792115932113,-3.6107921159321155 l4.5498634978225025,2.318271243866303 l-3.610792115932113,3.6107921159321155z"/>
<path fill="#B31B1B" fill-opacity="0.9" d="m-1.2925208720658081,8.160655613754615 l3.6107921159321132,-3.6107921159321137 l-2.318271243866305,-4.549863497822502 l-3.6107921159321132,3.6107921159321137z"/>
<path fill="#B31B1B" fill-opacity="0.9" d="m-1.2925208720658072,8.160655613754617 l-2.3182712438663056,-4.549863497822501 l3.610792115932113,-3.6107921159321164 l2.3182712438663056,4.549863497822501z"/>
<path fill="#B31B1B" fill-opacity="0.9" d="m-19.273531065121087,-9.820354579300657 l4.549863497822503,2.3182712438663042 l3.6107921159321155,-3.6107921159321137 l-4.549863497822503,-2.3182712438663042z"/>
<path fill="#B31B1B" fill-opacity="0.9" d="m9.820354579300666,19.273531065121084 l-2.318271243866306,-4.549863497822503 l3.610792115932112,-3.6107921159321172 l2.318271243866306,4.549863497822503z"/>
<path fill="#B31B1B" fill-opacity="0.9" d="m-19.273531065121087,-9.820354579300657 l-2.3182712438663025,-4.549863497822498 l3.6107921159321172,-3.6107921159321172 l2.3182712438663025,4.549863497822498z"/>
<path fill="#B31B1B" fill-opacity="0.9" d="m9.820354579300666,19.273531065121084 l4.549863497822502,2.318271243866299 l3.610792115932112,-3.6107921159321172 l-4.549863497822502,-2.318271243866299z"/>
<path fill="#B31B1B" fill-opacity="0.9" d="m-30.386406516487558,-20.93323003066712 l3.6107921159321137,-3.6107921159321172 l-2.318271243866299,-4.549863497822503 l-3.6107921159321137,3.6107921159321172z"/>
<path fill="#B31B1B" fill-opacity="0.9" d="m-26.141665806809893,-16.68848932098946 l3.6107921159321137,-3.6107921159321137 l4.549863497822507,2.3182712438663025 l-3.6107921159321137,3.6107921159321137z"/>
<path fill="#B31B1B" fill-opacity="0.9" d="m16.688489320989472,26.141665806809883 l3.6107921159321137,-3.6107921159321137 l-2.318271243866306,-4.549863497822503 l-3.6107921159321137,3.6107921159321137z"/>
<path fill="#B31B1B" fill-opacity="0.9" d="m20.933230030667136,30.386406516487547 l3.6107921159321137,-3.6107921159321172 l4.5498634978225,2.3182712438663025 l-3.6107921159321137,3.6107921159321172z"/>
<path fill="#B31B1B" fill-opacity="0.37" d="m-4.5498634978225025,-2.318271243866303 l-3.610792115932113,3.6107921159321155 l0.7988218301053234,-5.043562539782988 l3.610792115932113,-3.6107921159321155z"/>
<path fill="#B31B1B" fill-opacity="0.37" d="m2.318271243866305,4.549863497822502 l-3.6107921159321132,3.6107921159321137 l5.043562539782986,-0.7988218301053251 l3.6107921159321132,-3.6107921159321137z"/>
<path fill="#B31B1B" fill-opacity="0.37" d="m-4.549863497822502,-2.3182712438663033 l0.7988218301053238,-5.043562539782987 l-3.6107921159321132,3.6107921159321146 l-0.7988218301053238,5.043562539782987z"/>
<path fill="#B31B1B" fill-opacity="0.37" d="m2.318271243866306,4.549863497822501 l5.043562539782986,-0.798821830105326 l-3.610792115932113,3.6107921159321146 l-5.043562539782986,0.798821830105326z"/>
<path fill="#B31B1B" fill-opacity="0.37" d="m-26.775614400555444,-24.544022146599236 l5.043562539782986,-0.7988218301053287 l-3.61079211593211,3.6107921159321172 l-5.043562539782986,0.7988218301053287z"/>
<path fill="#B31B1B" fill-opacity="0.37" d="m-22.53087369087778,-20.299281436921575 l-3.6107921159321137,3.6107921159321137 l0.7988218301053251,-5.043562539782986 l3.6107921159321137,-3.6107921159321137z"/>
<path fill="#B31B1B" fill-opacity="0.37" d="m20.299281436921586,22.53087369087777 l-3.6107921159321137,3.6107921159321137 l5.0435625397829895,-0.7988218301053216 l3.6107921159321137,-3.6107921159321137z"/>
<path fill="#B31B1B" fill-opacity="0.37" d="m24.54402214659925,26.77561440055543 l0.7988218301053216,-5.043562539782986 l-3.61079211593211,3.6107921159321172 l-0.7988218301053216,5.043562539782986z"/>
<path fill="#B31B1B" fill-opacity="0.37" d="m-9.680105027515594,-8.300905165539676 l-5.0435625397829895,0.7988218301053234 l3.6107921159321155,-3.6107921159321137 l5.0435625397829895,-0.7988218301053234z"/>
<path fill="#B31B1B" fill-opacity="0.37" d="m8.300905165539682,9.680105027515593 l-0.7988218301053216,5.043562539782988 l3.610792115932112,-3.6107921159321172 l0.7988218301053216,-5.043562539782988z"/>
<path fill="#B31B1B" fill-opacity="0.9" d="m-6.0693129115834825,-11.911697281471792 l-3.610792115932112,3.6107921159321155 l2.3182712438663033,4.549863497822501 l3.610792115932112,-3.6107921159321155z"/>
<path fill="#B31B1B" fill-opacity="0.9" d="m11.911697281471794,6.069312911583477 l-3.610792115932112,3.6107921159321155 l-4.5498634978225025,-2.3182712438663033 l3.610792115932112,-3.6107921159321155z"/>
<path fill="#B31B1B" fill-opacity="0.9" d="m-3.7510416677171805,-7.36183378364929 l4.549863497822503,2.3182712438663025 l-0.7988218301053229,5.043562539782988 l-4.549863497822503,-2.3182712438663025z"/>
<path fill="#B31B1B" fill-opacity="0.9" d="m7.361833783649292,3.751041667717177 l-2.3182712438663042,-4.549863497822502 l-5.043562539782988,0.7988218301053251 l2.3182712438663042,4.549863497822502z"/>
<path fill="#B31B1B" fill-opacity="0.9" d="m-3.751041667717178,-7.36183378364929 l-0.7988218301053238,5.043562539782987 l4.549863497822502,2.3182712438663033 l0.7988218301053238,-5.043562539782987z"/>
<path fill="#B31B1B" fill-opacity="0.9" d="m7.361833783649292,3.7510416677171747 l-5.043562539782986,0.798821830105326 l-2.318271243866306,-4.549863497822501 l5.043562539782986,-0.798821830105326z"/>
<path fill="#B31B1B" fill-opacity="0.37" d="m-10.619176409405982,-14.229968525338093 l4.5498634978225,2.3182712438663007 l-5.043562539782986,0.7988218301053251 l-4.5498634978225,-2.3182712438663007z"/>
<path fill="#B31B1B" fill-opacity="0.37" d="m14.229968525338096,10.619176409405975 l-2.3182712438663025,-4.549863497822498 l-0.7988218301053216,5.043562539782986 l2.3182712438663025,4.549863497822498z"/>
<path fill="#B31B1B" fill-opacity="0.9" d="m-21.732051860772458,-25.342843976704565 l-2.318271243866306,-4.5498634978225 l-5.043562539782979,0.7988218301053251 l2.318271243866306,4.5498634978225z"/>
<path fill="#B31B1B" fill-opacity="0.9" d="m-21.732051860772458,-25.342843976704565 l-0.7988218301053216,5.0435625397829895 l4.549863497822507,2.3182712438663025 l0.7988218301053216,-5.0435625397829895z"/>
<path fill="#B31B1B" fill-opacity="0.37" d="m-14.863917119083645,-18.47470923501575 l-2.3182712438663096,-4.549863497822507 l-0.798821830105318,5.043562539782986 l2.3182712438663096,4.549863497822507z"/>
<path fill="#B31B1B" fill-opacity="0.37" d="m18.47470923501576,14.863917119083636 l4.5498634978225105,2.318271243866308 l-5.0435625397829895,0.7988218301053216 l-4.5498634978225105,-2.318271243866308z"/>
<path fill="#B31B1B" fill-opacity="0.9" d="m25.34284397670457,21.732051860772444 l-5.043562539782986,0.7988218301053251 l-2.318271243866306,-4.549863497822503 l5.043562539782986,-0.7988218301053251z"/>
<path fill="#B31B1B" fill-opacity="0.9" d="m25.34284397670457,21.732051860772444 l4.549863497822507,2.318271243866306 l-0.7988218301053287,5.043562539782982 l-4.549863497822507,-2.318271243866306z"/>
<path fill="#B31B1B" fill-opacity="0.9" d="m-15.662738949188972,-13.43114669523277 l5.0435625397829895,-0.7988218301053234 l0.7988218301053234,-5.043562539782984 l-5.0435625397829895,0.7988218301053234z"/>
<path fill="#B31B1B" fill-opacity="0.9" d="m13.431146695232774,15.662738949188967 l0.7988218301053216,-5.043562539782991 l5.043562539782988,-0.7988218301053251 l-0.7988218301053216,5.043562539782991z"/>
<path fill="#B31B1B" fill-opacity="0.9" d="m5.84238436988831,-5.842384369888313 l-0.7988218301053225,5.043562539782986 l-5.043562539782988,0.7988218301053269 l0.7988218301053225,-5.043562539782986z"/>
<path fill="#B31B1B" fill-opacity="0.9" d="m-23.25150127453343,-34.936270014310054 l-0.7988218301053323,5.0435625397829895 l-5.043562539782979,0.7988218301053251 l0.7988218301053323,-5.0435625397829895z"/>
<path fill="#B31B1B" fill-opacity="0.9" d="m34.93627001431006,23.25150127453342 l-5.043562539782982,0.7988218301053287 l-0.7988218301053287,5.043562539782982 l5.043562539782982,-0.7988218301053287z"/>
<path fill="#B31B1B" fill-opacity="0.9" d="m-6.069312911583486,-11.911697281471788 l0.7988218301053216,-5.0435625397829895 l-4.549863497822502,-2.318271243866299 l-0.7988218301053216,5.0435625397829895z"/>
<path fill="#B31B1B" fill-opacity="0.9" d="m11.911697281471794,6.06931291158348 l5.043562539782984,-0.7988218301053234 l2.3182712438663025,4.549863497822501 l-5.043562539782984,0.7988218301053234z"/>
<path fill="#B31B1B" fill-opacity="0.9" d="m-6.069312911583486,-11.911697281471788 l5.043562539782985,-0.7988218301053305 l2.3182712438663073,4.549863497822502 l-5.043562539782985,0.7988218301053305z"/>
<path fill="#B31B1B" fill-opacity="0.9" d="m11.911697281471794,6.06931291158348 l0.7988218301053269,-5.043562539782985 l-4.549863497822503,-2.3182712438663047 l-0.7988218301053269,5.043562539782985z"/>
<path fill="#B31B1B" fill-opacity="0.37" d="m0.7988218301053229,-5.043562539782988 l-4.549863497822503,-2.3182712438663025 l5.043562539782987,-0.7988218301053269 l4.549863497822503,2.3182712438663025z"/>
<path fill="#B31B1B" fill-opacity="0.37" d="m5.043562539782988,-0.7988218301053251 l2.3182712438663042,4.549863497822502 l0.7988218301053251,-5.043562539782987 l-2.3182712438663042,-4.549863497822502z"/>
<path fill="#B31B1B" fill-opacity="0.9" d="m-17.182188362949955,-23.02457273283826 l5.043562539782993,-0.798821830105318 l2.3182712438663025,4.5498634978225 l-5.043562539782993,0.798821830105318z"/>
<path fill="#B31B1B" fill-opacity="0.9" d="m-6.0693129115834825,-11.911697281471792 l-4.5498634978225,-2.3182712438663007 l0.7988218301053234,-5.043562539782984 l4.5498634978225,2.3182712438663007z"/>
<path fill="#B31B1B" fill-opacity="0.37" d="m0.7988218301053247,-5.043562539782988 l5.043562539782986,-0.7988218301053251 l-4.549863497822502,-2.3182712438663042 l-5.043562539782986,0.7988218301053251z"/>
<path fill="#B31B1B" fill-opacity="0.37" d="m5.043562539782988,-0.7988218301053269 l0.7988218301053225,-5.043562539782986 l2.318271243866307,4.549863497822501 l-0.7988218301053225,5.043562539782986z"/>
<path fill="#B31B1B" fill-opacity="0.9" d="m11.911697281471794,6.069312911583477 l2.3182712438663025,4.549863497822498 l5.043562539782988,-0.7988218301053251 l-2.3182712438663025,-4.549863497822498z"/>
<path fill="#B31B1B" fill-opacity="0.9" d="m23.02457273283827,17.182188362949944 l0.7988218301053145,-5.043562539782991 l-4.5498634978225,-2.3182712438663025 l-0.7988218301053145,5.043562539782991z"/>
<path fill="#B31B1B" fill-opacity="0.37" d="m-24.050323104638764,-29.892707474527064 l2.318271243866306,4.5498634978225 l0.7988218301053251,-5.043562539782982 l-2.318271243866306,-4.5498634978225z"/>
<path fill="#B31B1B" fill-opacity="0.37" d="m29.89270747452708,24.05032310463875 l-4.549863497822507,-2.318271243866306 l5.0435625397829895,-0.7988218301053251 l4.549863497822507,2.318271243866306z"/>
<path fill="#B31B1B" fill-opacity="0.37" d="m-28.29506381431642,-34.13744818420472 l5.0435625397829895,-0.7988218301053323 l-4.549863497822503,-2.318271243866299 l-5.0435625397829895,0.7988218301053323z"/>
<path fill="#B31B1B" fill-opacity="0.37" d="m34.137448184204736,28.295063814316407 l0.7988218301053251,-5.043562539782986 l2.318271243866299,4.549863497822496 l-0.7988218301053251,5.043562539782986z"/>
<path fill="#B31B1B" fill-opacity="0.9" d="m-21.732051860772458,-25.342843976704565 l3.6107921159321137,-3.6107921159321137 l4.549863497822509,2.318271243866306 l-3.6107921159321137,3.6107921159321137z"/>
<path fill="#B31B1B" fill-opacity="0.9" d="m25.34284397670457,21.732051860772444 l3.6107921159321137,-3.6107921159321137 l-2.318271243866313,-4.549863497822505 l-3.6107921159321137,3.6107921159321137z"/>
<path fill="#B31B1B" fill-opacity="0.37" d="m-18.121259744840344,-28.95363609263668 l0.7988218301053251,-5.043562539782982 l-3.6107921159321137,3.6107921159321137 l-0.7988218301053251,5.043562539782982z"/>
<path fill="#B31B1B" fill-opacity="0.37" d="m28.953636092636685,18.12125974484033 l5.0435625397829895,-0.7988218301053251 l-3.6107921159321137,3.6107921159321137 l-5.0435625397829895,0.7988218301053251z"/>
<path fill="#B31B1B" fill-opacity="0.37" d="m-12.138625823166976,-23.823394562943577 l3.6107921159321137,-3.610792115932121 l-5.043562539782986,0.7988218301053287 l-3.6107921159321137,3.610792115932121z"/>
<path fill="#B31B1B" fill-opacity="0.37" d="m23.823394562943584,12.138625823166961 l3.610792115932121,-3.6107921159321137 l-0.7988218301053287,5.043562539782986 l-3.610792115932121,3.6107921159321137z"/>
<path fill="#B31B1B" fill-opacity="0.37" d="m-5.2704910814781645,-16.955259821254778 l-0.7988218301053216,5.0435625397829895 l3.610792115932112,-3.6107921159321172 l0.7988218301053216,-5.0435625397829895z"/>
<path fill="#B31B1B" fill-opacity="0.37" d="m16.955259821254778,5.2704910814781565 l-5.043562539782984,0.7988218301053234 l3.6107921159321155,-3.6107921159321137 l5.043562539782984,-0.7988218301053234z"/>
<path fill="#B31B1B" fill-opacity="0.37" d="m-1.025750371800501,-12.710519111577119 l3.6107921159321146,-3.610792115932119 l-5.043562539782988,0.7988218301053323 l-3.6107921159321146,3.610792115932119z"/>
<path fill="#B31B1B" fill-opacity="0.37" d="m12.71051911157712,1.0257503718004948 l3.6107921159321137,-3.6107921159321146 l-0.7988218301053251,5.043562539782986 l-3.6107921159321137,3.6107921159321146z"/>
<path fill="#B31B1B" fill-opacity="0.37" d="m-12.138625823166961,-23.823394562943577 l-5.043562539782993,0.798821830105318 l3.610792115932119,-3.6107921159321137 l5.043562539782993,-0.798821830105318z"/>
<path fill="#B31B1B" fill-opacity="0.37" d="m23.823394562943584,12.138625823166953 l-0.7988218301053145,5.043562539782991 l3.610792115932103,-3.610792115932119 l0.7988218301053145,-5.043562539782991z"/>
<path fill="#B31B1B" fill-opacity="0.9" d="m-8.527833707234862,-27.434186678875697 l-3.6107921159321137,3.610792115932121 l2.3182712438663096,4.5498634978225 l3.6107921159321137,-3.610792115932121z"/>
<path fill="#B31B1B" fill-opacity="0.9" d="m27.434186678875705,8.527833707234848 l-3.610792115932121,3.6107921159321137 l-4.549863497822503,-2.3182712438663042 l3.610792115932121,-3.6107921159321137z"/>
<path fill="#B31B1B" fill-opacity="0.9" d="m-1.659698965546049,-20.566051937186895 l-3.6107921159321155,3.6107921159321172 l-4.549863497822502,-2.318271243866299 l3.6107921159321155,-3.6107921159321172z"/>
<path fill="#B31B1B" fill-opacity="0.9" d="m20.566051937186895,1.6596989655460384 l-3.6107921159321172,3.610792115932118 l2.3182712438663025,4.549863497822501 l3.6107921159321172,-3.610792115932118z"/>
<path fill="#B31B1B" fill-opacity="0.9" d="m2.5850417441316136,-16.321311227509238 l-3.6107921159321146,3.610792115932119 l2.3182712438663073,4.549863497822502 l3.6107921159321146,-3.610792115932119z"/>
<path fill="#B31B1B" fill-opacity="0.9" d="m9.453176485820423,-9.453176485820428 l-4.549863497822501,-2.3182712438663025 l-3.6107921159321137,3.6107921159321137 l4.549863497822501,2.3182712438663025z"/>
<path fill="#B31B1B" fill-opacity="0.9" d="m9.453176485820423,-9.453176485820428 l2.318271243866308,4.549863497822501 l-3.6107921159321137,3.6107921159321155 l-2.318271243866308,-4.549863497822501z"/>
<path fill="#B31B1B" fill-opacity="0.9" d="m16.321311227509234,-2.58504174413162 l-3.6107921159321137,3.6107921159321146 l-4.549863497822503,-2.3182712438663047 l3.6107921159321137,-3.6107921159321146z"/>
<path fill="#B31B1B" fill-opacity="0.9" d="m-26.508843900290124,-45.415196871930966 l2.318271243866299,4.5498634978225 l-3.61079211593211,3.6107921159321137 l-2.318271243866299,-4.5498634978225z"/>
<path fill="#B31B1B" fill-opacity="0.9" d="m-19.640709158601318,-38.54706213024217 l-4.549863497822507,-2.318271243866299 l-3.61079211593211,3.6107921159321137 l4.549863497822507,2.318271243866299z"/>
<path fill="#B31B1B" fill-opacity="0.9" d="m-19.640709158601318,-38.54706213024217 l2.318271243866299,4.549863497822507 l-3.6107921159321137,3.6107921159321137 l-2.318271243866299,-4.549863497822507z"/>
<path fill="#B31B1B" fill-opacity="0.9" d="m2.585041744131619,-16.321311227509234 l2.3182712438663033,4.549863497822503 l-3.6107921159321137,3.6107921159321137 l-2.3182712438663033,-4.549863497822503z"/>
<path fill="#B31B1B" fill-opacity="0.9" d="m16.321311227509234,-2.585041744131626 l-4.549863497822503,-2.3182712438663016 l-3.6107921159321137,3.6107921159321155 l4.549863497822503,2.3182712438663016z"/>
<path fill="#B31B1B" fill-opacity="0.9" d="m38.547062130242175,19.640709158601304 l-4.5498634978225,-2.318271243866299 l-3.6107921159321137,3.6107921159321137 l4.5498634978225,2.318271243866299z"/>
<path fill="#B31B1B" fill-opacity="0.9" d="m38.547062130242175,19.640709158601304 l2.318271243866299,4.5498634978225 l-3.6107921159321137,3.6107921159321137 l-2.318271243866299,-4.5498634978225z"/>
<path fill="#B31B1B" fill-opacity="0.9" d="m45.41519687193098,26.50884390029011 l-4.549863497822507,-2.318271243866306 l-3.6107921159321137,3.6107921159321137 l4.549863497822507,2.318271243866306z"/>
<path fill="#B31B1B" fill-opacity="0.9" d="m-17.322437914735026,-33.997198632419654 l4.5498634978225,2.318271243866299 l-0.7988218301053216,5.043562539782986 l-4.5498634978225,-2.318271243866299z"/>
<path fill="#B31B1B" fill-opacity="0.9" d="m33.99719863241967,17.32243791473501 l-2.318271243866306,-4.549863497822498 l-5.043562539782986,0.7988218301053234 l2.318271243866306,4.549863497822498z"/>
<path fill="#B31B1B" fill-opacity="0.9" d="m-17.32243791473502,-33.99719863241966 l-0.7988218301053251,5.043562539782982 l4.549863497822509,2.318271243866306 l0.7988218301053251,-5.043562539782982z"/>
<path fill="#B31B1B" fill-opacity="0.9" d="m33.997198632419675,17.322437914735005 l-5.0435625397829895,0.7988218301053251 l-2.318271243866313,-4.549863497822505 l5.0435625397829895,-0.7988218301053251z"/>
<path fill="#B31B1B" fill-opacity="0.9" d="m-7.729011877129535,-32.47774921865869 l-5.043562539782991,0.7988218301053323 l-0.7988218301053216,5.043562539782986 l5.043562539782991,-0.7988218301053323z"/>
<path fill="#B31B1B" fill-opacity="0.9" d="m32.47774921865869,7.729011877129523 l-0.7988218301053251,5.043562539782988 l-5.043562539782986,0.7988218301053234 l0.7988218301053251,-5.043562539782988z"/>
<path fill="#B31B1B" fill-opacity="0.37" d="m-6.209562463368554,-22.884323181053198 l-2.318271243866308,-4.5498634978225 l4.549863497822503,2.318271243866306 l2.318271243866308,4.5498634978225z"/>
<path fill="#B31B1B" fill-opacity="0.37" d="m22.884323181053198,6.209562463368544 l4.549863497822507,2.3182712438663042 l-2.3182712438663096,-4.549863497822502 l-4.549863497822507,-2.3182712438663042z"/>
<path fill="#B31B1B" fill-opacity="0.9" d="m3.383863574236935,-21.364873767292224 l-0.7988218301053216,5.043562539782986 l-5.043562539782988,0.7988218301053323 l0.7988218301053216,-5.043562539782986z"/>
<path fill="#B31B1B" fill-opacity="0.9" d="m21.364873767292224,-3.383863574236944 l-5.0435625397829895,0.7988218301053243 l-0.7988218301053251,5.043562539782986 l5.0435625397829895,-0.7988218301053243z"/>
<path fill="#B31B1B" fill-opacity="0.37" d="m-24.190572656423825,-40.86533337410847 l-2.318271243866299,-4.5498634978225 l4.5498634978225,2.318271243866299 l2.318271243866299,4.5498634978225z"/>
<path fill="#B31B1B" fill-opacity="0.37" d="m4.903312987997922,-11.77144772968673 l-2.3182712438663033,-4.549863497822503 l4.549863497822501,2.3182712438663025 l2.3182712438663033,4.549863497822503z"/>
<path fill="#B31B1B" fill-opacity="0.37" d="m11.77144772968673,-4.903312987997928 l4.549863497822503,2.3182712438663016 l-2.318271243866306,-4.549863497822501 l-4.549863497822503,-2.3182712438663016z"/>
<path fill="#B31B1B" fill-opacity="0.37" d="m40.865333374108474,24.190572656423804 l4.549863497822507,2.318271243866306 l-2.318271243866306,-4.549863497822503 l-4.549863497822507,-2.318271243866306z"/>
<path fill="#B31B1B" fill-opacity="0.9" d="m-19.640709158601336,-38.54706213024216 l2.3182712438663096,4.549863497822507 l5.043562539782984,-0.7988218301053394 l-2.3182712438663096,-4.549863497822507z"/>
<path fill="#B31B1B" fill-opacity="0.37" d="m-12.772574416912526,-31.678927388553355 l-4.5498634978225,-2.318271243866299 l5.043562539782984,-0.7988218301053394 l4.5498634978225,2.318271243866299z"/>
<path fill="#B31B1B" fill-opacity="0.37" d="m31.67892738855336,12.77257441691251 l2.318271243866306,4.549863497822498 l0.7988218301053251,-5.043562539782982 l-2.318271243866306,-4.549863497822498z"/>
<path fill="#B31B1B" fill-opacity="0.9" d="m38.54706213024217,19.640709158601318 l-4.5498634978225,-2.3182712438663096 l0.7988218301053251,-5.043562539782982 l4.5498634978225,2.3182712438663096z"/>
<path fill="#B31B1B" fill-opacity="0.9" d="m-25.710022070184817,-50.45875941171395 l4.549863497822503,2.318271243866299 l-0.7988218301053251,5.0435625397829895 l-4.549863497822503,-2.318271243866299z"/>
<path fill="#B31B1B" fill-opacity="0.9" d="m50.458759411713956,25.7100220701848 l-2.318271243866299,-4.549863497822507 l-5.043562539782982,0.7988218301053323 l2.318271243866299,4.549863497822507z"/>
<path fill="#B31B1B" fill-opacity="0.37" d="m-18.841887328496014,-43.59062467002515 l-2.318271243866299,-4.5498634978225 l-0.7988218301053251,5.0435625397829895 l2.318271243866299,4.5498634978225z"/>
<path fill="#B31B1B" fill-opacity="0.37" d="m43.59062467002516,18.841887328495993 l4.5498634978225,2.318271243866299 l-5.043562539782982,0.7988218301053323 l-4.5498634978225,-2.318271243866299z"/>
<path fill="#B31B1B" fill-opacity="0.9" d="m-7.729011877129535,-32.47774921865869 l4.549863497822496,2.318271243866306 l-0.7988218301053198,5.0435625397829895 l-4.549863497822496,-2.318271243866306z"/>
<path fill="#B31B1B" fill-opacity="0.9" d="m3.383863574236935,-21.364873767292224 l-2.318271243866306,-4.549863497822493 l-5.043562539782988,0.7988218301053251 l2.318271243866306,4.549863497822493z"/>
<path fill="#B31B1B" fill-opacity="0.9" d="m21.364873767292224,-3.383863574236944 l4.549863497822493,2.3182712438663042 l-0.7988218301053216,5.043562539782986 l-4.549863497822493,-2.3182712438663042z"/>
<path fill="#B31B1B" fill-opacity="0.9" d="m32.47774921865869,7.729011877129523 l-2.318271243866299,-4.5498634978225 l-5.043562539782993,0.7988218301053234 l2.318271243866299,4.5498634978225z"/>
<path fill="#B31B1B" fill-opacity="0.9" d="m-25.710022070184806,-50.458759411713956 l-0.798821830105318,5.0435625397829895 l4.5498634978225,2.318271243866299 l0.798821830105318,-5.0435625397829895z"/>
<path fill="#B31B1B" fill-opacity="0.9" d="m3.3838635742369405,-21.364873767292224 l-0.7988218301053216,5.0435625397829895 l4.549863497822501,2.3182712438663025 l0.7988218301053216,-5.0435625397829895z"/>
<path fill="#B31B1B" fill-opacity="0.37" d="m10.251998315925746,-14.496739025603414 l-0.7988218301053234,5.043562539782986 l-2.3182712438663033,-4.549863497822503 l0.7988218301053234,-5.043562539782986z"/>
<path fill="#B31B1B" fill-opacity="0.37" d="m14.49673902560341,-10.251998315925754 l-5.043562539782988,0.7988218301053251 l4.549863497822505,2.3182712438663016 l5.043562539782988,-0.7988218301053251z"/>
<path fill="#B31B1B" fill-opacity="0.9" d="m21.36487376729222,-3.383863574236953 l-5.043562539782986,0.7988218301053269 l-2.318271243866306,-4.549863497822501 l5.043562539782986,-0.7988218301053269z"/>
<path fill="#B31B1B" fill-opacity="0.9" d="m50.45875941171397,25.710022070184777 l-5.0435625397829895,0.7988218301053323 l-2.318271243866306,-4.549863497822503 l5.0435625397829895,-0.7988218301053323z"/>
<path fill="#B31B1B" fill-opacity="0.9" d="m-19.640709158601336,-38.54706213024216 l0.7988218301053216,-5.0435625397829895 l5.0435625397829895,-0.7988218301053251 l-0.7988218301053216,5.0435625397829895z"/>
<path fill="#B31B1B" fill-opacity="0.37" d="m-10.047283120995845,-37.02761271648119 l2.3182712438663096,4.5498634978225 l-4.549863497822507,-2.318271243866306 l-2.3182712438663096,-4.5498634978225z"/>
<path fill="#B31B1B" fill-opacity="0.37" d="m37.027612716481194,10.047283120995829 l-4.549863497822507,-2.318271243866306 l2.318271243866306,4.549863497822503 l4.549863497822507,2.318271243866306z"/>
<path fill="#B31B1B" fill-opacity="0.9" d="m38.54706213024217,19.640709158601318 l5.0435625397829895,-0.7988218301053251 l0.7988218301053251,-5.0435625397829895 l-5.0435625397829895,0.7988218301053251z"/>
<path fill="#B31B1B" fill-opacity="0.9" d="m9.453176485820423,-9.453176485820428 l5.043562539782988,-0.7988218301053251 l0.7988218301053198,-5.043562539782984 l-5.043562539782988,0.7988218301053251z"/>
<path fill="#B31B1B" fill-opacity="0.9" d="m1.8644141604759543,-30.958299804897713 l-5.043562539782993,0.7988218301053323 l-0.7988218301053198,5.0435625397829895 l5.043562539782993,-0.7988218301053323z"/>
<path fill="#B31B1B" fill-opacity="0.9" d="m30.958299804897713,-1.8644141604759685 l-0.7988218301053251,5.043562539782991 l-5.043562539782993,0.7988218301053234 l0.7988218301053251,-5.043562539782991z"/>
<path fill="#B31B1B" fill-opacity="0.9" d="m-21.160158572362313,-48.14048816784765 l2.318271243866299,4.5498634978225 l5.0435625397829895,-0.7988218301053251 l-2.318271243866299,-4.5498634978225z"/>
<path fill="#B31B1B" fill-opacity="0.9" d="m48.14048816784766,21.160158572362292 l-4.5498634978225,-2.318271243866299 l0.7988218301053251,-5.0435625397829895 l4.5498634978225,2.318271243866299z"/>
<path fill="#B31B1B" fill-opacity="0.37" d="m-3.1791483793070388,-30.15947797479238 l5.043562539782993,-0.7988218301053323 l-4.549863497822507,-2.318271243866299 l-5.043562539782993,0.7988218301053323z"/>
<path fill="#B31B1B" fill-opacity="0.37" d="m1.0655923303706292,-25.914737265114717 l0.7988218301053251,-5.043562539782997 l2.3182712438663025,4.549863497822507 l-0.7988218301053251,5.043562539782997z"/>
<path fill="#B31B1B" fill-opacity="0.37" d="m25.914737265114717,-1.0655923303706398 l5.043562539782997,-0.7988218301053287 l-4.549863497822507,-2.3182712438663007 l-5.043562539782997,0.7988218301053287z"/>
<path fill="#B31B1B" fill-opacity="0.37" d="m30.159477974792388,3.1791483793070228 l0.7988218301053251,-5.043562539782991 l2.318271243866299,4.549863497822507 l-0.7988218301053251,5.043562539782991z"/>
<path fill="#B31B1B" fill-opacity="0.9" d="m7.933727072059443,-19.046602523425918 l2.3182712438663033,4.549863497822503 l5.043562539782984,-0.7988218301053234 l-2.3182712438663033,-4.549863497822503z"/>
<path fill="#B31B1B" fill-opacity="0.9" d="m19.046602523425914,-7.933727072059451 l-4.549863497822503,-2.3182712438663025 l0.7988218301053198,-5.043562539782984 l4.549863497822503,2.3182712438663025z"/>
<path fill="#B31B1B" fill-opacity="0.9" d="m-14.597146618818348,-39.345883960347486 l4.549863497822503,2.318271243866299 l3.610792115932112,-3.6107921159321137 l-4.549863497822503,-2.318271243866299z"/>
<path fill="#B31B1B" fill-opacity="0.9" d="m39.34588396034749,14.597146618818329 l-2.318271243866299,-4.5498634978225 l3.6107921159321066,-3.6107921159321172 l2.318271243866299,4.5498634978225z"/>
<path fill="#B31B1B" fill-opacity="0.9" d="m-7.729011877129535,-32.47774921865869 l-2.3182712438663096,-4.5498634978225 l3.610792115932112,-3.6107921159321137 l2.3182712438663096,4.5498634978225z"/>
<path fill="#B31B1B" fill-opacity="0.9" d="m32.47774921865869,7.729011877129523 l4.549863497822507,2.318271243866306 l3.6107921159321066,-3.6107921159321172 l-4.549863497822507,-2.318271243866306z"/>
<path fill="#B31B1B" fill-opacity="0.9" d="m3.3838635742369405,-21.364873767292224 l3.6107921159321155,-3.6107921159321137 l4.549863497822498,2.3182712438663096 l-3.6107921159321155,3.6107921159321137z"/>
<path fill="#B31B1B" fill-opacity="0.9" d="m21.36487376729222,-3.383863574236953 l3.61079211593211,-3.6107921159321137 l-2.318271243866306,-4.549863497822498 l-3.61079211593211,3.6107921159321137z"/>
<path fill="#B31B1B" fill-opacity="0.37" d="m-10.986354502886234,-42.9566760762796 l-3.6107921159321137,3.6107921159321137 l0.7988218301053234,-5.0435625397829895 l3.6107921159321137,-3.6107921159321137z"/>
<path fill="#B31B1B" fill-opacity="0.37" d="m42.95667607627961,10.986354502886213 l-3.6107921159321137,3.6107921159321155 l5.0435625397829895,-0.7988218301053251 l3.6107921159321137,-3.6107921159321155z"/>
<path fill="#B31B1B" fill-opacity="0.37" d="m-4.118219761197427,-36.0885413345908 l-3.6107921159321084,3.6107921159321137 l5.043562539782982,-0.7988218301053251 l3.6107921159321084,-3.6107921159321137z"/>
<path fill="#B31B1B" fill-opacity="0.37" d="m36.0885413345908,4.118219761197407 l-3.6107921159321137,3.6107921159321155 l0.7988218301053251,-5.043562539782984 l3.6107921159321137,-3.6107921159321155z"/>
<path fill="#B31B1B" fill-opacity="0.37" d="m6.994655690169056,-24.975665883224337 l0.7988218301053198,-5.043562539782982 l-3.61079211593211,3.6107921159321137 l-0.7988218301053198,5.043562539782982z"/>
<path fill="#B31B1B" fill-opacity="0.37" d="m24.97566588322433,-6.994655690169067 l5.043562539782986,-0.7988218301053251 l-3.61079211593211,3.6107921159321137 l-5.043562539782986,0.7988218301053251z"/>
<path fill="#B31B1B" fill-opacity="0.37" d="m12.97728961184243,-19.845424353531243 l3.6107921159321137,-3.6107921159321172 l-5.0435625397829895,0.7988218301053323 l-3.6107921159321137,3.6107921159321172z"/>
<path fill="#B31B1B" fill-opacity="0.37" d="m19.845424353531236,-12.977289611842437 l3.6107921159321137,-3.6107921159321172 l-0.7988218301053251,5.0435625397829895 l-3.6107921159321137,3.6107921159321172z"/>
<path fill="#B31B1B" fill-opacity="0.9" d="m5.4752062764080645,-34.56909192082982 l-4.549863497822502,-2.318271243866306 l-3.6107921159321155,3.6107921159321137 l4.549863497822502,2.318271243866306z"/>
<path fill="#B31B1B" fill-opacity="0.9" d="m5.4752062764080645,-34.56909192082982 l-3.61079211593211,3.6107921159321066 l2.3182712438663025,4.549863497822507 l3.61079211593211,-3.6107921159321066z"/>
<path fill="#B31B1B" fill-opacity="0.9" d="m34.56909192082982,-5.475206276408079 l-3.6107921159321066,3.61079211593211 l-4.549863497822507,-2.3182712438663007 l3.6107921159321066,-3.61079211593211z"/>
<path fill="#B31B1B" fill-opacity="0.9" d="m34.56909192082982,-5.475206276408079 l2.318271243866306,4.549863497822502 l-3.6107921159321137,3.6107921159321155 l-2.318271243866306,-4.549863497822502z"/>
<path fill="#B31B1B" fill-opacity="0.9" d="m16.588081727774544,-23.45621646946336 l2.3182712438663025,4.549863497822503 l-3.6107921159321155,3.610792115932119 l-2.3182712438663025,-4.549863497822503z"/>
<path fill="#B31B1B" fill-opacity="0.9" d="m23.45621646946335,-16.588081727774554 l-4.549863497822503,-2.3182712438663025 l-3.6107921159321155,3.610792115932119 l4.549863497822503,2.3182712438663025z"/>
<path fill="#B31B1B" fill-opacity="0.9" d="m5.475206276408073,-34.56909192082983 l2.3182712438663025,4.549863497822507 l-3.61079211593211,3.6107921159321137 l-2.3182712438663025,-4.549863497822507z"/>
<path fill="#B31B1B" fill-opacity="0.9" d="m34.56909192082982,-5.475206276408089 l-4.549863497822503,-2.3182712438663025 l-3.61079211593211,3.6107921159321137 l4.549863497822503,2.3182712438663025z"/>
<path fill="#B31B1B" fill-opacity="0.9" d="m0.9253427785855628,-36.887363164696126 l-5.0435625397829895,0.7988218301053251 l-2.318271243866306,-4.5498634978225 l5.0435625397829895,-0.7988218301053251z"/>
<path fill="#B31B1B" fill-opacity="0.9" d="m36.887363164696126,-0.925342778585577 l-0.7988218301053251,5.043562539782984 l4.5498634978225,2.3182712438663042 l0.7988218301053251,-5.043562539782984z"/>
<path fill="#B31B1B" fill-opacity="0.9" d="m7.793477520274376,-30.01922842300732 l4.549863497822503,2.318271243866299 l-0.7988218301053251,5.043562539782993 l-4.549863497822503,-2.318271243866299z"/>
<path fill="#B31B1B" fill-opacity="0.9" d="m30.019228423007316,-7.793477520274392 l-2.3182712438663025,-4.549863497822502 l-5.0435625397829895,0.7988218301053287 l2.3182712438663025,4.549863497822502z"/>
<path fill="#B31B1B" fill-opacity="0.9" d="m17.38690355787987,-28.499779009246346 l-5.0435625397829895,0.7988218301053251 l-0.7988218301053251,5.043562539782993 l5.0435625397829895,-0.7988218301053251z"/>
<path fill="#B31B1B" fill-opacity="0.37" d="m18.906352971640846,-18.906352971640857 l4.549863497822503,2.3182712438663025 l-2.318271243866306,-4.5498634978225 l-4.549863497822503,-2.3182712438663025z"/>
<path fill="#B31B1B" fill-opacity="0.9" d="m28.49977900924634,-17.386903557879883 l-0.7988218301053251,5.0435625397829895 l-5.0435625397829895,0.7988218301053287 l0.7988218301053251,-5.0435625397829895z"/>
<path fill="#B31B1B" fill-opacity="0.9" d="m5.475206276408073,-34.56909192082983 l5.043562539782986,-0.7988218301053251 l2.3182712438663042,4.549863497822503 l-5.043562539782986,0.7988218301053251z"/>
<path fill="#B31B1B" fill-opacity="0.37" d="m12.34334101809688,-27.70095717914102 l-4.549863497822503,-2.318271243866299 l5.043562539782988,-0.7988218301053287 l4.549863497822503,2.318271243866299z"/>
<path fill="#B31B1B" fill-opacity="0.37" d="m27.700957179141014,-12.343341018096893 l2.3182712438663025,4.549863497822502 l0.7988218301053287,-5.043562539782988 l-2.3182712438663025,-4.549863497822502z"/>
<path fill="#B31B1B" fill-opacity="0.9" d="m34.56909192082982,-5.475206276408089 l0.7988218301053251,-5.043562539782986 l-4.5498634978225,-2.3182712438663042 l-0.7988218301053251,5.043562539782986z"/>
<path fill="#B31B1B" fill-opacity="0.9" d="m17.38690355787987,-28.499779009246346 l4.549863497822503,2.318271243866299 l-0.7988218301053287,5.043562539782993 l-4.549863497822503,-2.318271243866299z"/>
<path fill="#B31B1B" fill-opacity="0.9" d="m28.49977900924634,-17.386903557879883 l-2.3182712438663025,-4.5498634978225 l-5.043562539782993,0.7988218301053287 l2.3182712438663025,4.5498634978225z"/>
<path fill="#B31B1B" fill-opacity="0.37" d="m15.068632314013561,-33.049642507068846 l2.318271243866308,4.5498634978225 l-4.549863497822505,-2.3182712438663025 l-2.318271243866308,-4.5498634978225z"/>
<path fill="#B31B1B" fill-opacity="0.37" d="m33.04964250706884,-15.068632314013577 l-4.5498634978225,-2.318271243866306 l2.318271243866306,4.549863497822503 l4.5498634978225,2.318271243866306z"/>
<path fill="#B31B1B" fill-opacity="0.9" d="m26.980329595485358,-26.98032959548537 l-0.7988218301053216,5.043562539782986 l-5.043562539782993,0.7988218301053287 l0.7988218301053216,-5.043562539782986z"/>
<path fill="#B31B1B" fill-opacity="0.37" d="m21.936767055702372,-26.181507765380047 l5.043562539782986,-0.7988218301053216 l-4.5498634978225,-2.3182712438663096 l-5.043562539782986,0.7988218301053216z"/>
<path fill="#B31B1B" fill-opacity="0.37" d="m26.181507765380037,-21.936767055702383 l0.7988218301053216,-5.043562539782986 l2.318271243866306,4.549863497822496 l-0.7988218301053216,5.043562539782986z"/>
<path fill="#B31B1B" fill-opacity="0.9" d="m10.51876881619106,-35.36791375093515 l4.549863497822502,2.318271243866306 l3.6107921159321155,-3.610792115932121 l-4.549863497822502,-2.318271243866306z"/>
<path fill="#B31B1B" fill-opacity="0.9" d="m17.38690355787987,-28.499779009246346 l3.6107921159321172,-3.610792115932121 l-2.3182712438663096,-4.5498634978225 l-3.6107921159321172,3.610792115932121z"/>
<path fill="#B31B1B" fill-opacity="0.9" d="m28.49977900924634,-17.386903557879883 l3.610792115932121,-3.6107921159321137 l4.549863497822493,2.3182712438663025 l-3.610792115932121,3.6107921159321137z"/>
<path fill="#B31B1B" fill-opacity="0.9" d="m35.367913750935145,-10.518768816191075 l-2.318271243866306,-4.549863497822502 l3.6107921159321137,-3.6107921159321172 l2.318271243866306,4.549863497822502z"/>
<path fill="#B31B1B" fill-opacity="0.37" d="m20.997695673811986,-32.11057112517847 l-3.6107921159321172,3.610792115932121 l5.0435625397829895,-0.7988218301053323 l3.6107921159321172,-3.610792115932121z"/>
<path fill="#B31B1B" fill-opacity="0.37" d="m32.11057112517846,-20.997695673811997 l-3.610792115932121,3.6107921159321137 l0.7988218301053251,-5.0435625397829895 l3.610792115932121,-3.6107921159321137z"/>
<path fill="#B31B1B" fill-opacity="0.9" d="m30.591121711417472,-30.591121711417486 l-3.6107921159321137,3.6107921159321172 l-4.5498634978225,-2.3182712438663096 l3.6107921159321137,-3.6107921159321172z"/>
<path fill="#B31B1B" fill-opacity="0.9" d="m30.591121711417472,-30.591121711417486 l-3.6107921159321137,3.6107921159321172 l2.318271243866306,4.549863497822496 l3.6107921159321137,-3.6107921159321172z"/>
<path fill="#B31B1B" fill-opacity="0.9" d="m26.04125821359497,-32.909392955283785 l-5.043562539782982,0.798821830105318 l-2.3182712438663096,-4.5498634978225 l5.043562539782982,-0.798821830105318z"/>
<path fill="#B31B1B" fill-opacity="0.9" d="m32.90939295528378,-26.041258213594983 l-0.798821830105318,5.043562539782986 l4.549863497822493,2.3182712438663025 l0.798821830105318,-5.043562539782986z"/>
<path fill="#B31B1B" fill-opacity="0.37" d="m23.722986969728666,-37.45925645310629 l2.3182712438663025,4.549863497822507 l0.7988218301053251,-5.0435625397829895 l-2.3182712438663025,-4.549863497822507z"/>
<path fill="#B31B1B" fill-opacity="0.9" d="m30.591121711417472,-30.591121711417486 l0.7988218301053145,-5.043562539782975 l-4.549863497822493,-2.318271243866313 l-0.7988218301053145,5.043562539782975z"/>
<path fill="#B31B1B" fill-opacity="0.9" d="m30.591121711417472,-30.591121711417486 l5.043562539782975,-0.798821830105318 l2.31827124386632,4.549863497822493 l-5.043562539782975,0.798821830105318z"/>
<path fill="#B31B1B" fill-opacity="0.37" d="m37.45925645310628,-23.72298696972868 l-4.5498634978225,-2.3182712438663025 l5.0435625397829895,-0.7988218301053287 l4.5498634978225,2.3182712438663025z"/>
<path fill="#B31B1B" fill-opacity="0.37" d="m31.389943541522786,-35.63468425120046 l3.6107921159321243,-3.610792115932121 l-0.7988218301053251,5.043562539782982 l-3.6107921159321243,3.610792115932121z"/>
<path fill="#B31B1B" fill-opacity="0.37" d="m35.63468425120045,-31.389943541522804 l3.610792115932121,-3.610792115932121 l-5.043562539782982,0.7988218301053251 l-3.610792115932121,3.610792115932121z"/>
<path fill="#B31B1B" fill-opacity="0.9" d="m35.00073565745491,-39.24547636713258 l-3.6107921159321243,3.610792115932121 l-4.549863497822493,-2.318271243866313 l3.6107921159321243,-3.610792115932121z"/>
<path fill="#B31B1B" fill-opacity="0.9" d="m39.24547636713257,-35.000735657454925 l-3.610792115932121,3.610792115932121 l2.31827124386632,4.549863497822493 l3.610792115932121,-3.610792115932121z"/>
<path fill="#B31B1B" fill-opacity="0.9" d="m40.04429819723789,-40.044298197237914 l-0.7988218301053251,5.0435625397829895 l-5.043562539782982,0.7988218301053251 l0.7988218301053251,-5.0435625397829895z"/>
</g>
</svg>