<?xml version="1.0" encoding="utf-8"?>
<svg width="100%" height="100%" viewBox="-70.0 -70.0 140.0 140.0" preserveAspectRatio="xMidYMid meet" version="1.1" baseProfile="full" xmlns="http://www.w3.org/2000/svg">
<g style="stroke:#FFFFFF; stroke-width: 1.2978713763747793; stroke-linejoin: round;">
<path fill="#B31B1B" fill-opacity="0.37" d="m18.67942442994569,36.66043462300096 l-15.295560855708745,-15.295560855708743 l21.364873767292217,3.3838635742369476 l15.295560855708745,15.295560855708743z"/>
<path fill="#B31B1B" fill-opacity="0.37" d="m36.66043462300097,18.679424429945676 l-15.29556085570875,-15.295560855708738 l3.3838635742369547,21.364873767292217 l15.29556085570875,15.295560855708738z"/>
<path fill="#B31B1B" fill-opacity="0.9" d="m3.3838635742369494,21.364873767292217 l-9.82035457930066,19.27353106512109 l15.295560855708754,15.295560855708729 l9.82035457930066,-19.27353106512109z"/>
<path fill="#B31B1B" fill-opacity="0.9" d="m21.364873767292217,3.3838635742369423 l19.273531065121084,-9.820354579300664 l15.295560855708743,15.295560855708743 l-19.273531065121084,9.820354579300664z"/>
<path fill="#B31B1B" fill-opacity="0.9" d="m3.383863574236946,21.364873767292217 l15.295560855708745,15.295560855708743 l-9.820354579300666,19.273531065121084 l-15.295560855708745,-15.295560855708743z"/>
<path fill="#B31B1B" fill-opacity="0.9" d="m21.364873767292217,3.3838635742369387 l15.29556085570875,15.295560855708738 l19.273531065121077,-9.820354579300666 l-15.29556085570875,-15.295560855708738z"/>
<path fill="#B31B1B" fill-opacity="0.37" d="m-6.436491005063711,40.63840483241331 l9.82035457930066,-19.27353106512109 l-19.273531065121084,9.82035457930067 l-9.82035457930066,19.27353106512109z"/>
<path fill="#B31B1B" fill-opacity="0.9" d="m-0.0,0.0 l3.383863574236946,21.364873767292217 l21.364873767292217,3.3838635742369476 l-3.383863574236946,-21.364873767292217z"/>
<path fill="#B31B1B" fill-opacity="0.9" d="m0.0,-0.0 l21.364873767292217,3.3838635742369387 l3.3838635742369547,21.364873767292217 l-21.364873767292217,-3.3838635742369387z"/>
<path fill="#B31B1B" fill-opacity="0.37" d="m40.6384048324133,-6.436491005063722 l-19.273531065121084,9.820354579300664 l9.820354579300663,-19.273531065121087 l19.273531065121084,-9.820354579300664z"/>
<path fill="#B31B1B" fill-opacity="0.9" d="m0.0,-0.0 l3.3838635742369494,21.364873767292217 l-19.273531065121084,9.82035457930067 l-3.3838635742369494,-21.364873767292217z"/>
<path fill="#B31B1B" fill-opacity="0.9" d="m-0.0,0.0 l21.364873767292217,3.3838635742369423 l9.820354579300663,-19.273531065121087 l-21.364873767292217,-3.3838635742369423z"/>
<path fill="#B31B1B" fill-opacity="0.9" d="m-0.0,0.0 l-19.27353106512108,9.820354579300659 l3.3838635742369405,21.36487376729222 l19.27353106512108,-9.820354579300659z"/>
<path fill="#B31B1B" fill-opacity="0.9" d="m0.0,-0.0 l9.820354579300652,-19.273531065121084 l21.364873767292224,3.3838635742369334 l-9.820354579300652,19.273531065121084z"/>
<path fill="#B31B1B" fill-opacity="0.37" d="m-29.093885644421743,29.093885644421743 l9.820354579300663,-19.273531065121084 l3.3838635742369405,21.36487376729222 l-9.820354579300663,19.273531065121084z"/>
<path fill="#B31B1B" fill-opacity="0.37" d="m29.093885644421736,-29.09388564442175 l-19.273531065121084,9.820354579300666 l21.364873767292224,3.3838635742369334 l19.273531065121084,-9.820354579300666z"/>
<path fill="#B31B1B" fill-opacity="0.9" d="m-19.27353106512108,9.820354579300664 l-21.364873767292227,-3.383863574236935 l-9.820354579300648,19.273531065121084 l21.364873767292227,3.383863574236935z"/>
<path fill="#B31B1B" fill-opacity="0.9" d="m9.820354579300659,-19.273531065121084 l-3.383863574236944,-21.364873767292224 l19.27353106512109,-9.820354579300655 l3.383863574236944,21.364873767292224z"/>
<path fill="#B31B1B" fill-opacity="0.9" d="m-19.27353106512108,9.820354579300659 l-9.820354579300663,19.273531065121084 l-21.36487376729222,-3.383863574236937 l9.820354579300663,-19.273531065121084z"/>
<path fill="#B31B1B" fill-opacity="0.9" d="m9.820354579300652,-19.273531065121084 l19.273531065121084,-9.820354579300666 l-3.383863574236951,-21.36487376729222 l-19.273531065121084,9.820354579300666z"/>
<path fill="#B31B1B" fill-opacity="0.9" d="m0.0,-0.0 l-19.27353106512108,9.820354579300664 l-15.295560855708747,-15.295560855708732 l19.27353106512108,-9.820354579300664z"/>
<path fill="#B31B1B" fill-opacity="0.9" d="m-0.0,0.0 l9.820354579300659,-19.273531065121084 l-15.295560855708734,-15.295560855708743 l-9.820354579300659,19.273531065121084z"/>
<path fill="#B31B1B" fill-opacity="0.9" d="m-0.0,0.0 l-15.295560855708738,-15.295560855708734 l-19.27353106512109,9.820354579300657 l15.295560855708738,15.295560855708734z"/>
<path fill="#B31B1B" fill-opacity="0.9" d="m0.0,-0.0 l-15.295560855708738,-15.295560855708734 l9.82035457930065,-19.273531065121084 l15.295560855708738,15.295560855708734z"/>
<path fill="#B31B1B" fill-opacity="0.37" d="m-40.63840483241331,6.436491005063729 l21.364873767292227,3.383863574236935 l-15.295560855708747,-15.295560855708732 l-21.364873767292227,-3.383863574236935z"/>
<path fill="#B31B1B" fill-opacity="0.37" d="m6.436491005063715,-40.63840483241331 l3.383863574236944,21.364873767292224 l-15.295560855708734,-15.295560855708743 l-3.383863574236944,-21.364873767292224z"/>
<path fill="#B31B1B" fill-opacity="0.37" d="m-36.66043462300097,-18.679424429945676 l21.36487376729223,3.3838635742369423 l-19.27353106512109,9.820354579300657 l-21.36487376729223,-3.3838635742369423z"/>
<path fill="#B31B1B" fill-opacity="0.37" d="m-18.67942442994569,-36.66043462300096 l3.383863574236953,21.364873767292224 l9.82035457930065,-19.273531065121084 l-3.383863574236953,-21.364873767292224z"/>
<path fill="#B31B1B" fill-opacity="0.9" d="m-15.295560855708738,-15.295560855708734 l-3.383863574236953,-21.364873767292224 l-21.364873767292224,-3.3838635742369405 l3.383863574236953,21.364873767292224z"/>
</g>
</svg>