<?xml version="1.0" encoding="utf-8"?>
<svg width="100%" height="100%" viewBox="-70.0 -70.0 140.0 140.0" preserveAspectRatio="xMidYMid meet" version="1.1" baseProfile="full" xmlns="http://www.w3.org/2000/svg">
<g style="stroke:#FFFFFF; stroke-width: 0.802128623625221; stroke-linejoin: round;">
<path fill="#B31B1B" fill-opacity="0.9" d="m8.859069850645025,55.93396568812204 l-2.09134270217114,-13.204218153537603 l11.911697281471806,-6.069312911583481 l2.09134270217114,13.204218153537603z"/>
<path fill="#B31B1B" fill-opacity="0.9" d="m55.93396568812204,8.85906985064501 l-13.204218153537596,-2.0913427021711364 l-6.069312911583481,11.911697281471803 l13.204218153537596,2.0913427021711364z"/>
<path fill="#B31B1B" fill-opacity="0.9" d="m8.859069850645042,55.933965688122036 l-2.0913427021711435,-13.204218153537603 l-13.20421815353761,-2.0913427021711257 l2.0913427021711435,13.204218153537603z"/>
<path fill="#B31B1B" fill-opacity="0.37" d="m12.837040060057374,30.81805025311265 l-6.06931291158349,11.911697281471792 l11.911697281471806,-6.069312911583481 l6.06931291158349,-11.911697281471792z"/>
<path fill="#B31B1B" fill-opacity="0.37" d="m30.818050253112652,12.837040060057365 l11.911697281471795,-6.069312911583491 l-6.069312911583481,11.911697281471803 l-11.911697281471795,6.069312911583491z"/>
<path fill="#B31B1B" fill-opacity="0.9" d="m55.93396568812204,8.859069850645021 l-13.20421815353761,-2.091342702171133 l-2.091342702171133,-13.20421815353761 l13.20421815353761,2.091342702171133z"/>
<path fill="#B31B1B" fill-opacity="0.9" d="m6.767727148473899,42.72974753458443 l-9.453176485820434,-9.453176485820421 l6.069312911583484,-11.911697281471795 l9.453176485820434,9.453176485820421z"/>
<path fill="#B31B1B" fill-opacity="0.9" d="m24.748737341529164,24.748737341529164 l-11.91169728147179,6.069312911583484 l-9.453176485820428,-9.453176485820432 l11.91169728147179,-6.069312911583484z"/>
<path fill="#B31B1B" fill-opacity="0.9" d="m24.74873734152917,24.748737341529157 l6.069312911583481,-11.911697281471792 l-9.453176485820435,-9.453176485820427 l-6.069312911583481,11.911697281471792z"/>
<path fill="#B31B1B" fill-opacity="0.9" d="m42.72974753458443,6.767727148473888 l-9.453176485820421,-9.453176485820434 l-11.911697281471795,6.069312911583488 l9.453176485820421,9.453176485820434z"/>
<path fill="#B31B1B" fill-opacity="0.9" d="m6.767727148473885,42.72974753458444 l6.06931291158349,-11.911697281471792 l-9.453176485820428,-9.453176485820432 l-6.06931291158349,11.911697281471792z"/>
<path fill="#B31B1B" fill-opacity="0.9" d="m42.72974753458445,6.767727148473874 l-11.911697281471795,6.069312911583491 l-9.453176485820435,-9.453176485820427 l11.911697281471795,-6.069312911583491z"/>
<path fill="#B31B1B" fill-opacity="0.37" d="m-2.685449337346535,33.27657104876401 l9.453176485820434,9.453176485820421 l-13.20421815353761,-2.0913427021711257 l-9.453176485820434,-9.453176485820421z"/>
<path fill="#B31B1B" fill-opacity="0.37" d="m33.27657104876401,-2.6854493373465456 l9.453176485820421,9.453176485820434 l-2.091342702171133,-13.20421815353761 l-9.453176485820421,-9.453176485820434z"/>
<path fill="#B31B1B" fill-opacity="0.9" d="m-15.889667490884136,31.185228346592886 l13.204218153537601,2.0913427021711257 l6.069312911583484,-11.911697281471795 l-13.204218153537601,-2.0913427021711257z"/>
<path fill="#B31B1B" fill-opacity="0.9" d="m31.18522834659288,-15.889667490884145 l2.091342702171133,13.2042181535376 l-11.911697281471795,6.069312911583488 l-2.091342702171133,-13.2042181535376z"/>
<path fill="#B31B1B" fill-opacity="0.37" d="m2.0913427021711346,13.204218153537603 l13.204218153537605,2.09134270217114 l-11.911697281471794,6.069312911583474 l-13.204218153537605,-2.09134270217114z"/>
<path fill="#B31B1B" fill-opacity="0.37" d="m2.0913427021711364,13.2042181535376 l-11.911697281471792,6.069312911583491 l13.204218153537605,2.0913427021711257 l11.911697281471792,-6.069312911583491z"/>
<path fill="#B31B1B" fill-opacity="0.37" d="m13.204218153537601,2.0913427021711337 l6.069312911583486,-11.911697281471795 l2.0913427021711293,13.204218153537605 l-6.069312911583486,11.911697281471795z"/>
<path fill="#B31B1B" fill-opacity="0.37" d="m13.204218153537603,2.091342702171131 l2.0913427021711435,13.204218153537605 l6.06931291158347,-11.911697281471797 l-2.0913427021711435,-13.204218153537605z"/>
<path fill="#B31B1B" fill-opacity="0.9" d="m15.29556085570874,15.295560855708743 l-13.204218153537605,-2.09134270217114 l-2.0913427021711346,-13.204218153537603 l13.204218153537605,2.09134270217114z"/>
<path fill="#B31B1B" fill-opacity="0.9" d="m15.295560855708747,15.295560855708736 l-2.0913427021711435,-13.204218153537605 l-13.204218153537603,-2.091342702171131 l2.0913427021711435,13.204218153537605z"/>
<path fill="#B31B1B" fill-opacity="0.9" d="m-9.820354579300655,19.27353106512109 l11.911697281471792,-6.069312911583491 l-2.0913427021711364,-13.2042181535376 l-11.911697281471792,6.069312911583491z"/>
<path fill="#B31B1B" fill-opacity="0.9" d="m19.273531065121087,-9.820354579300663 l-6.069312911583486,11.911697281471795 l-13.204218153537601,-2.0913427021711337 l6.069312911583486,-11.911697281471795z"/>
<path fill="#B31B1B" fill-opacity="0.9" d="m-9.820354579300659,19.273531065121087 l-2.0913427021711346,-13.204218153537607 l11.911697281471794,-6.069312911583482 l2.0913427021711346,13.204218153537607z"/>
<path fill="#B31B1B" fill-opacity="0.9" d="m19.273531065121084,-9.820354579300666 l-13.204218153537605,-2.0913427021711293 l-6.069312911583479,11.911697281471795 l13.204218153537605,2.0913427021711293z"/>
<path fill="#B31B1B" fill-opacity="0.9" d="m-15.88966749088414,31.18522834659288 l-9.453176485820425,-9.453176485820421 l6.069312911583484,-11.911697281471799 l9.453176485820425,9.453176485820421z"/>
<path fill="#B31B1B" fill-opacity="0.9" d="m31.185228346592876,-15.88966749088415 l-9.453176485820425,-9.453176485820421 l-11.911697281471799,6.069312911583488 l9.453176485820425,9.453176485820421z"/>
<path fill="#B31B1B" fill-opacity="0.37" d="m-25.342843976704565,21.732051860772458 l-13.204218153537603,-2.09134270217114 l9.453176485820425,9.453176485820425 l13.204218153537603,2.09134270217114z"/>
<path fill="#B31B1B" fill-opacity="0.37" d="m21.73205186077245,-25.34284397670457 l-2.09134270217114,-13.204218153537603 l9.453176485820425,9.453176485820425 l2.09134270217114,13.204218153537603z"/>
<path fill="#B31B1B" fill-opacity="0.37" d="m-11.911697281471792,6.069312911583486 l-9.453176485820432,-9.453176485820423 l2.0913427021711435,13.204218153537601 l9.453176485820432,9.453176485820423z"/>
<path fill="#B31B1B" fill-opacity="0.37" d="m6.069312911583482,-11.911697281471794 l-9.453176485820425,-9.45317648582043 l13.204218153537603,2.09134270217114 l9.453176485820425,9.45317648582043z"/>
<path fill="#B31B1B" fill-opacity="0.37" d="m-11.911697281471794,6.069312911583482 l2.0913427021711346,13.204218153537607 l-9.453176485820421,-9.453176485820428 l-2.0913427021711346,-13.204218153537607z"/>
<path fill="#B31B1B" fill-opacity="0.37" d="m6.069312911583479,-11.911697281471795 l13.204218153537605,2.0913427021711293 l-9.453176485820432,-9.453176485820418 l-13.204218153537605,-2.0913427021711293z"/>
<path fill="#B31B1B" fill-opacity="0.9" d="m-21.364873767292224,-3.383863574236937 l9.453176485820432,9.453176485820423 l11.911697281471792,-6.069312911583486 l-9.453176485820432,-9.453176485820423z"/>
<path fill="#B31B1B" fill-opacity="0.9" d="m-3.383863574236944,-21.364873767292224 l9.453176485820425,9.45317648582043 l-6.069312911583482,11.911697281471794 l-9.453176485820425,-9.45317648582043z"/>
<path fill="#B31B1B" fill-opacity="0.9" d="m-21.364873767292224,-3.383863574236944 l11.911697281471795,-6.069312911583481 l9.453176485820428,9.453176485820425 l-11.911697281471795,6.069312911583481z"/>
<path fill="#B31B1B" fill-opacity="0.9" d="m-3.383863574236951,-21.364873767292224 l-6.069312911583477,11.911697281471799 l9.453176485820428,9.453176485820425 l6.069312911583477,-11.911697281471799z"/>
<path fill="#B31B1B" fill-opacity="0.9" d="m-50.45875941171396,25.710022070184806 l11.911697281471795,-6.069312911583488 l9.453176485820425,9.453176485820425 l-11.911697281471795,6.069312911583488z"/>
<path fill="#B31B1B" fill-opacity="0.9" d="m25.710022070184785,-50.45875941171397 l-6.069312911583474,11.911697281471795 l9.453176485820425,9.453176485820425 l6.069312911583474,-11.911697281471795z"/>
<path fill="#B31B1B" fill-opacity="0.9" d="m-38.54706213024217,19.640709158601332 l6.069312911583481,-11.911697281471799 l13.204218153537607,2.091342702171131 l-6.069312911583481,11.911697281471799z"/>
<path fill="#B31B1B" fill-opacity="0.9" d="m19.640709158601318,-38.547062130242175 l-11.911697281471792,6.069312911583488 l2.091342702171133,13.204218153537603 l11.911697281471792,-6.069312911583488z"/>
<path fill="#B31B1B" fill-opacity="0.9" d="m-38.54706213024217,19.640709158601318 l13.204218153537603,2.09134270217114 l6.069312911583484,-11.911697281471799 l-13.204218153537603,-2.09134270217114z"/>
<path fill="#B31B1B" fill-opacity="0.9" d="m19.64070915860131,-38.547062130242175 l2.09134270217114,13.204218153537603 l-11.911697281471799,6.069312911583488 l-2.09134270217114,-13.204218153537603z"/>
<path fill="#B31B1B" fill-opacity="0.9" d="m-34.56909192082983,-5.475206276408068 l2.09134270217114,13.204218153537601 l13.204218153537607,2.091342702171131 l-2.09134270217114,-13.204218153537601z"/>
<path fill="#B31B1B" fill-opacity="0.9" d="m-5.475206276408075,-34.56909192082983 l13.204218153537601,2.09134270217114 l2.091342702171133,13.204218153537603 l-13.204218153537601,-2.09134270217114z"/>
<path fill="#B31B1B" fill-opacity="0.37" d="m-9.453176485820428,-9.453176485820425 l6.069312911583477,-11.911697281471799 l-11.911697281471787,6.06931291158349 l-6.069312911583477,11.911697281471799z"/>
<path fill="#B31B1B" fill-opacity="0.9" d="m-50.458759411713956,25.710022070184813 l11.911697281471788,-6.069312911583481 l-2.09134270217114,-13.204218153537603 l-11.911697281471788,6.069312911583481z"/>
<path fill="#B31B1B" fill-opacity="0.9" d="m25.710022070184806,-50.45875941171396 l-6.069312911583488,11.911697281471788 l-13.204218153537603,-2.091342702171133 l6.069312911583488,-11.911697281471788z"/>
<path fill="#B31B1B" fill-opacity="0.37" d="m-32.47774921865869,7.729011877129533 l-6.069312911583481,11.911697281471799 l-2.09134270217114,-13.204218153537603 l6.069312911583481,-11.911697281471799z"/>
<path fill="#B31B1B" fill-opacity="0.37" d="m7.729011877129526,-32.47774921865869 l11.911697281471792,-6.069312911583488 l-13.204218153537603,-2.091342702171133 l-11.911697281471792,6.069312911583488z"/>
<path fill="#B31B1B" fill-opacity="0.9" d="m-34.56909192082983,-5.475206276408077 l6.069312911583477,-11.911697281471795 l13.204218153537612,2.091342702171138 l-6.069312911583477,11.911697281471795z"/>
<path fill="#B31B1B" fill-opacity="0.9" d="m-5.4752062764080875,-34.56909192082982 l-11.911697281471792,6.069312911583477 l2.0913427021711417,13.204218153537608 l11.911697281471792,-6.069312911583477z"/>
<path fill="#B31B1B" fill-opacity="0.9" d="m-30.591121711417486,-30.59112171141748 l13.204218153537607,2.0913427021711364 l2.0913427021711417,13.204218153537608 l-13.204218153537607,-2.0913427021711364z"/>
<path fill="#B31B1B" fill-opacity="0.37" d="m-28.49977900924635,-17.386903557879872 l-2.0913427021711364,-13.204218153537607 l-6.069312911583481,11.911697281471803 l2.0913427021711364,13.204218153537607z"/>
<path fill="#B31B1B" fill-opacity="0.37" d="m-17.38690355787988,-28.499779009246343 l-13.204218153537607,-2.0913427021711364 l11.911697281471795,-6.069312911583481 l13.204218153537607,2.0913427021711364z"/>
<path fill="#B31B1B" fill-opacity="0.9" d="m-40.044298197237914,-40.0442981972379 l9.453176485820428,9.453176485820421 l-6.069312911583481,11.911697281471803 l-9.453176485820428,-9.453176485820421z"/>
<path fill="#B31B1B" fill-opacity="0.9" d="m-40.044298197237914,-40.0442981972379 l9.453176485820428,9.453176485820421 l11.911697281471795,-6.069312911583481 l-9.453176485820428,-9.453176485820421z"/>
</g>
</svg>