<?xml version="1.0" encoding="utf-8"?>
<svg width="100%" height="100%" viewBox="-70.0 -70.0 140.0 140.0" preserveAspectRatio="xMidYMid meet" version="1.1" baseProfile="full" xmlns="http://www.w3.org/2000/svg">
<g style="stroke:#FFFFFF; stroke-width: 0.4957427527495585; stroke-linejoin: round;">
<path fill="#B31B1B" fill-opacity="0.9" d="m14.92838276222851,44.02226840665025 l-7.361833783649301,3.751041667717182 l1.2925208720658148,8.160655613754614 l7.361833783649301,-3.751041667717182z"/>
<path fill="#B31B1B" fill-opacity="0.9" d="m44.022268406650255,14.928382762228495 l3.7510416677171747,-7.361833783649299 l8.160655613754614,1.2925208720658148 l-3.7510416677171747,7.361833783649299z"/>
<path fill="#B31B1B" fill-opacity="0.9" d="m-0.5941066351753967,46.48078920230162 l8.160655613754624,1.2925208720658006 l1.2925208720658148,8.160655613754614 l-8.160655613754624,-1.2925208720658006z"/>
<path fill="#B31B1B" fill-opacity="0.9" d="m46.48078920230162,-0.594106635175411 l1.2925208720658077,8.160655613754624 l8.160655613754614,1.2925208720658077 l-1.2925208720658077,-8.160655613754624z"/>
<path fill="#B31B1B" fill-opacity="0.37" d="m7.5665489785792275,47.77331007436742 l-8.160655613754624,-1.2925208720658006 l7.3618337836492955,-3.751041667717189 l8.160655613754624,1.2925208720658006z"/>
<path fill="#B31B1B" fill-opacity="0.9" d="m18.67942442994569,36.66043462300096 l-8.160655613754622,-1.2925208720658077 l-3.7510416677171836,7.361833783649288 l8.160655613754622,1.2925208720658077z"/>
<path fill="#B31B1B" fill-opacity="0.9" d="m18.67942442994569,36.66043462300096 l-1.2925208720658183,-8.160655613754617 l7.361833783649292,-3.7510416677171783 l1.2925208720658183,8.160655613754617z"/>
<path fill="#B31B1B" fill-opacity="0.9" d="m36.66043462300097,18.679424429945676 l-8.160655613754617,-1.2925208720658112 l-3.7510416677171783,7.361833783649292 l8.160655613754617,1.2925208720658112z"/>
<path fill="#B31B1B" fill-opacity="0.9" d="m36.66043462300097,18.679424429945676 l-1.2925208720658148,-8.160655613754619 l7.3618337836492955,-3.7510416677171836 l1.2925208720658148,8.160655613754619z"/>
<path fill="#B31B1B" fill-opacity="0.37" d="m47.77331007436743,7.566548978579213 l-1.2925208720658077,-8.160655613754624 l-3.751041667717189,7.361833783649299 l1.2925208720658077,8.160655613754624z"/>
<path fill="#B31B1B" fill-opacity="0.37" d="m7.56654897857921,47.77331007436743 l7.361833783649301,-3.751041667717182 l-8.160655613754626,-1.2925208720658077 l-7.361833783649301,3.751041667717182z"/>
<path fill="#B31B1B" fill-opacity="0.37" d="m47.77331007436743,7.5665489785791955 l-3.7510416677171747,7.361833783649299 l-1.2925208720658077,-8.16065561375462 l3.7510416677171747,-7.361833783649299z"/>
<path fill="#B31B1B" fill-opacity="0.37" d="m10.518768816191068,35.36791375093515 l-5.842384369888316,-5.842384369888322 l8.160655613754622,1.2925208720658183 l5.842384369888316,5.842384369888322z"/>
<path fill="#B31B1B" fill-opacity="0.37" d="m17.386903557879872,28.499779009246343 l1.2925208720658183,8.160655613754617 l-5.842384369888316,-5.842384369888311 l-1.2925208720658183,-8.160655613754617z"/>
<path fill="#B31B1B" fill-opacity="0.37" d="m28.49977900924635,17.386903557879865 l8.160655613754617,1.2925208720658112 l-5.842384369888315,-5.842384369888311 l-8.160655613754617,-1.2925208720658112z"/>
<path fill="#B31B1B" fill-opacity="0.37" d="m35.36791375093515,10.518768816191058 l-5.842384369888318,-5.842384369888316 l1.2925208720658183,8.160655613754624 l5.842384369888318,5.842384369888316z"/>
<path fill="#B31B1B" fill-opacity="0.9" d="m-6.436491005063711,40.63840483241331 l7.3618337836492955,-3.751041667717182 l5.842384369888315,5.842384369888308 l-7.3618337836492955,3.751041667717182z"/>
<path fill="#B31B1B" fill-opacity="0.9" d="m4.676384446302761,29.52552938104683 l-3.7510416677171765,7.3618337836492955 l5.842384369888315,5.842384369888308 l3.7510416677171765,-7.3618337836492955z"/>
<path fill="#B31B1B" fill-opacity="0.9" d="m11.544519187991561,22.65739463935803 l5.842384369888311,5.842384369888311 l7.361833783649292,-3.7510416677171783 l-5.842384369888311,-5.842384369888311z"/>
<path fill="#B31B1B" fill-opacity="0.9" d="m22.65739463935803,11.544519187991554 l5.842384369888318,5.842384369888311 l-3.7510416677171783,7.361833783649292 l-5.842384369888318,-5.842384369888311z"/>
<path fill="#B31B1B" fill-opacity="0.9" d="m29.52552938104683,4.6763844463027535 l7.3618337836492955,-3.75104166771718 l5.842384369888308,5.842384369888315 l-7.3618337836492955,3.75104166771718z"/>
<path fill="#B31B1B" fill-opacity="0.9" d="m40.6384048324133,-6.436491005063722 l-3.7510416677171747,7.3618337836492955 l5.842384369888308,5.842384369888315 l3.7510416677171747,-7.3618337836492955z"/>
<path fill="#B31B1B" fill-opacity="0.9" d="m4.676384446302752,29.52552938104683 l5.842384369888316,5.842384369888322 l-3.7510416677171836,7.361833783649288 l-5.842384369888316,-5.842384369888322z"/>
<path fill="#B31B1B" fill-opacity="0.9" d="m29.525529381046834,4.676384446302741 l5.842384369888318,5.842384369888316 l7.3618337836492955,-3.7510416677171836 l-5.842384369888318,-5.842384369888316z"/>
<path fill="#B31B1B" fill-opacity="0.37" d="m18.906352971640853,18.906352971640853 l-7.361833783649292,3.7510416677171783 l3.7510416677171783,-7.361833783649288 l7.361833783649292,-3.7510416677171783z"/>
<path fill="#B31B1B" fill-opacity="0.37" d="m18.90635297164086,18.906352971640846 l3.751041667717171,-7.361833783649292 l-7.361833783649285,3.751041667717182 l-3.751041667717171,7.361833783649292z"/>
<path fill="#B31B1B" fill-opacity="0.37" d="m0.9253427785855841,36.887363164696126 l3.7510416677171765,-7.3618337836492955 l-7.3618337836492955,3.751041667717182 l-3.7510416677171765,7.3618337836492955z"/>
<path fill="#B31B1B" fill-opacity="0.9" d="m3.383863574236946,21.364873767292217 l1.292520872065806,8.160655613754614 l8.160655613754622,1.2925208720658183 l-1.292520872065806,-8.160655613754614z"/>
<path fill="#B31B1B" fill-opacity="0.9" d="m21.364873767292217,3.3838635742369387 l8.160655613754617,1.2925208720658024 l1.2925208720658183,8.160655613754624 l-8.160655613754617,-1.2925208720658024z"/>
<path fill="#B31B1B" fill-opacity="0.37" d="m36.887363164696126,0.9253427785855735 l-7.3618337836492955,3.75104166771718 l3.751041667717182,-7.361833783649299 l7.3618337836492955,-3.75104166771718z"/>
<path fill="#B31B1B" fill-opacity="0.9" d="m3.383863574236946,21.364873767292217 l3.7510416677171765,-7.361833783649288 l8.160655613754617,1.2925208720658148 l-3.7510416677171765,7.361833783649288z"/>
<path fill="#B31B1B" fill-opacity="0.9" d="m21.364873767292217,3.3838635742369387 l-7.361833783649285,3.751041667717179 l1.2925208720658148,8.160655613754617 l7.361833783649285,-3.751041667717179z"/>
<path fill="#B31B1B" fill-opacity="0.37" d="m-7.729011877129521,32.477749218658694 l1.2925208720658095,8.160655613754614 l3.7510416677171765,-7.3618337836492955 l-1.2925208720658095,-8.160655613754614z"/>
<path fill="#B31B1B" fill-opacity="0.37" d="m32.47774921865869,-7.7290118771295315 l8.160655613754614,1.2925208720658095 l-7.361833783649288,3.7510416677171765 l-8.160655613754614,-1.2925208720658095z"/>
<path fill="#B31B1B" fill-opacity="0.9" d="m3.3838635742369494,21.364873767292217 l1.2925208720658112,8.160655613754614 l-7.3618337836492955,3.751041667717182 l-1.2925208720658112,-8.160655613754614z"/>
<path fill="#B31B1B" fill-opacity="0.9" d="m21.364873767292217,3.3838635742369423 l8.160655613754614,1.2925208720658112 l3.751041667717182,-7.361833783649299 l-8.160655613754614,-1.2925208720658112z"/>
<path fill="#B31B1B" fill-opacity="0.9" d="m-6.436491005063711,40.63840483241331 l-1.2925208720658095,-8.160655613754614 l-8.160655613754615,-1.2925208720658077 l1.2925208720658095,8.160655613754614z"/>
<path fill="#B31B1B" fill-opacity="0.9" d="m40.6384048324133,-6.436491005063722 l-8.160655613754614,-1.2925208720658095 l-1.2925208720658077,-8.160655613754614 l8.160655613754614,1.2925208720658095z"/>
<path fill="#B31B1B" fill-opacity="0.9" d="m5.842384369888312,5.842384369888312 l1.2925208720658103,8.160655613754617 l8.160655613754617,1.2925208720658148 l-1.2925208720658103,-8.160655613754617z"/>
<path fill="#B31B1B" fill-opacity="0.9" d="m5.842384369888314,5.84238436988831 l8.160655613754617,1.2925208720658077 l1.2925208720658148,8.160655613754617 l-8.160655613754617,-1.2925208720658077z"/>
<path fill="#B31B1B" fill-opacity="0.9" d="m-3.977970209412341,25.11591543500939 l-3.75104166771718,7.361833783649303 l-8.160655613754615,-1.2925208720658077 l3.75104166771718,-7.361833783649303z"/>
<path fill="#B31B1B" fill-opacity="0.37" d="m7.134905241954122,14.003039983642928 l-1.2925208720658103,-8.160655613754617 l-3.7510416677171774,7.361833783649291 l1.2925208720658103,8.160655613754617z"/>
<path fill="#B31B1B" fill-opacity="0.37" d="m14.003039983642932,7.134905241954118 l-8.160655613754617,-1.2925208720658077 l7.361833783649289,-3.751041667717179 l8.160655613754617,1.2925208720658077z"/>
<path fill="#B31B1B" fill-opacity="0.9" d="m25.11591543500939,-3.9779702094123497 l7.3618337836492955,-3.751041667717182 l-1.2925208720658077,-8.160655613754614 l-7.3618337836492955,3.751041667717182z"/>
<path fill="#B31B1B" fill-opacity="0.9" d="m3.3838635742369494,21.364873767292217 l-5.842384369888315,-5.842384369888309 l-7.36183378364929,3.7510416677171836 l5.842384369888315,5.842384369888309z"/>
<path fill="#B31B1B" fill-opacity="0.9" d="m21.364873767292217,3.3838635742369423 l-5.842384369888309,-5.842384369888311 l3.75104166771718,-7.361833783649294 l5.842384369888309,5.842384369888311z"/>
<path fill="#B31B1B" fill-opacity="0.37" d="m-2.4585207956513653,15.522489397403907 l-1.2925208720658103,-8.160655613754615 l5.842384369888312,5.842384369888308 l1.2925208720658103,8.160655613754615z"/>
<path fill="#B31B1B" fill-opacity="0.37" d="m15.522489397403907,-2.458520795651369 l-8.160655613754617,-1.2925208720658095 l5.84238436988831,5.842384369888312 l8.160655613754617,1.2925208720658095z"/>
<path fill="#B31B1B" fill-opacity="0.37" d="m-12.13862582316696,23.82339456294359 l8.160655613754619,1.2925208720658006 l-5.842384369888315,-5.8423843698883005 l-8.160655613754619,-1.2925208720658006z"/>
<path fill="#B31B1B" fill-opacity="0.37" d="m23.823394562943584,-12.138625823166969 l1.2925208720658077,8.160655613754619 l-5.842384369888304,-5.842384369888313 l-1.2925208720658077,-8.160655613754619z"/>
<path fill="#B31B1B" fill-opacity="0.37" d="m-12.138625823166961,23.823394562943587 l-5.842384369888315,-5.842384369888315 l8.160655613754617,1.2925208720658148 l5.842384369888315,5.842384369888315z"/>
<path fill="#B31B1B" fill-opacity="0.37" d="m23.823394562943584,-12.138625823166972 l-5.842384369888315,-5.842384369888308 l1.2925208720658148,8.160655613754614 l5.842384369888315,5.842384369888308z"/>
<path fill="#B31B1B" fill-opacity="0.9" d="m-0.0,0.0 l5.842384369888312,5.842384369888312 l-3.7510416677171774,7.361833783649291 l-5.842384369888312,-5.842384369888312z"/>
<path fill="#B31B1B" fill-opacity="0.9" d="m0.0,-0.0 l-3.7510416677171756,7.361833783649292 l5.842384369888312,5.842384369888308 l3.7510416677171756,-7.361833783649292z"/>
<path fill="#B31B1B" fill-opacity="0.9" d="m-0.0,0.0 l7.361833783649291,-3.7510416677171783 l5.84238436988831,5.842384369888312 l-7.361833783649291,3.7510416677171783z"/>
<path fill="#B31B1B" fill-opacity="0.9" d="m0.0,-0.0 l5.842384369888314,5.84238436988831 l7.361833783649289,-3.751041667717179 l-5.842384369888314,-5.84238436988831z"/>
<path fill="#B31B1B" fill-opacity="0.9" d="m-29.093885644421743,29.093885644421743 l7.361833783649292,-3.751041667717171 l5.842384369888311,5.842384369888308 l-7.361833783649292,3.751041667717171z"/>
<path fill="#B31B1B" fill-opacity="0.9" d="m-17.981010193055276,17.981010193055273 l-3.7510416677171747,7.361833783649299 l5.842384369888311,5.842384369888308 l3.7510416677171747,-7.361833783649299z"/>
<path fill="#B31B1B" fill-opacity="0.9" d="m17.98101019305527,-17.98101019305528 l7.3618337836492955,-3.7510416677171783 l5.842384369888311,5.842384369888308 l-7.3618337836492955,3.7510416677171783z"/>
<path fill="#B31B1B" fill-opacity="0.9" d="m29.093885644421736,-29.09388564442175 l-3.751041667717171,7.361833783649292 l5.842384369888311,5.842384369888308 l3.751041667717171,-7.361833783649292z"/>
<path fill="#B31B1B" fill-opacity="0.9" d="m-3.7510416677171756,7.361833783649292 l1.2925208720658103,8.160655613754615 l-7.36183378364929,3.7510416677171836 l-1.2925208720658103,-8.160655613754615z"/>
<path fill="#B31B1B" fill-opacity="0.9" d="m7.361833783649291,-3.7510416677171783 l8.160655613754617,1.2925208720658095 l3.75104166771718,-7.361833783649294 l-8.160655613754617,-1.2925208720658095z"/>
<path fill="#B31B1B" fill-opacity="0.9" d="m-3.7510416677171765,7.361833783649291 l-7.361833783649292,3.7510416677171774 l1.2925208720658095,8.160655613754619 l7.361833783649292,-3.7510416677171774z"/>
<path fill="#B31B1B" fill-opacity="0.9" d="m7.36183378364929,-3.751041667717179 l3.7510416677171747,-7.361833783649293 l8.160655613754619,1.292520872065806 l-3.7510416677171747,7.361833783649293z"/>
<path fill="#B31B1B" fill-opacity="0.9" d="m-19.27353106512108,9.820354579300659 l8.160655613754612,1.2925208720658095 l1.2925208720658095,8.160655613754619 l-8.160655613754612,-1.2925208720658095z"/>
<path fill="#B31B1B" fill-opacity="0.9" d="m9.820354579300652,-19.273531065121084 l1.292520872065813,8.160655613754612 l8.160655613754619,1.292520872065806 l-1.292520872065813,-8.160655613754612z"/>
<path fill="#B31B1B" fill-opacity="0.37" d="m-21.73205186077245,25.34284397670457 l-7.361833783649292,3.751041667717171 l3.7510416677171783,-7.361833783649285 l7.361833783649292,-3.751041667717171z"/>
<path fill="#B31B1B" fill-opacity="0.37" d="m25.342843976704565,-21.732051860772458 l3.751041667717171,-7.361833783649292 l-7.361833783649285,3.7510416677171783 l-3.751041667717171,7.361833783649292z"/>
<path fill="#B31B1B" fill-opacity="0.9" d="m0.0,-0.0 l-8.160655613754617,-1.2925208720658063 l-3.7510416677171747,7.361833783649292 l8.160655613754617,1.2925208720658063z"/>
<path fill="#B31B1B" fill-opacity="0.9" d="m-0.0,0.0 l-1.2925208720658095,-8.160655613754617 l7.361833783649291,-3.7510416677171765 l1.2925208720658095,8.160655613754617z"/>
<path fill="#B31B1B" fill-opacity="0.9" d="m-0.0,0.0 l-3.7510416677171765,7.361833783649291 l-8.160655613754617,-1.2925208720658095 l3.7510416677171765,-7.361833783649291z"/>
<path fill="#B31B1B" fill-opacity="0.9" d="m0.0,-0.0 l7.36183378364929,-3.751041667717179 l-1.2925208720658112,-8.160655613754617 l-7.36183378364929,3.751041667717179z"/>
<path fill="#B31B1B" fill-opacity="0.37" d="m-11.112875451366468,11.112875451366468 l7.361833783649292,-3.7510416677171774 l-8.160655613754617,-1.2925208720658095 l-7.361833783649292,3.7510416677171774z"/>
<path fill="#B31B1B" fill-opacity="0.37" d="m11.112875451366465,-11.112875451366472 l-3.7510416677171747,7.361833783649293 l-1.2925208720658112,-8.160655613754617 l3.7510416677171747,-7.361833783649293z"/>
<path fill="#B31B1B" fill-opacity="0.37" d="m-30.38640651648755,20.933230030667133 l3.7510416677171783,-7.361833783649299 l1.2925208720658077,8.160655613754624 l-3.7510416677171783,7.361833783649299z"/>
<path fill="#B31B1B" fill-opacity="0.9" d="m-19.27353106512108,9.820354579300659 l-7.361833783649292,3.7510416677171747 l1.2925208720658077,8.160655613754624 l7.361833783649292,-3.7510416677171747z"/>
<path fill="#B31B1B" fill-opacity="0.9" d="m9.820354579300652,-19.273531065121084 l3.7510416677171765,-7.361833783649292 l8.160655613754622,1.2925208720658041 l-3.7510416677171765,7.361833783649292z"/>
<path fill="#B31B1B" fill-opacity="0.37" d="m20.933230030667122,-30.38640651648756 l-7.361833783649294,3.7510416677171854 l8.160655613754622,1.2925208720658041 l7.361833783649294,-3.7510416677171854z"/>
<path fill="#B31B1B" fill-opacity="0.37" d="m-15.522489397403909,2.4585207956513733 l7.361833783649292,-3.7510416677171796 l-3.7510416677171747,7.361833783649292 l-7.361833783649292,3.7510416677171796z"/>
<path fill="#B31B1B" fill-opacity="0.37" d="m2.458520795651368,-15.522489397403909 l-3.7510416677171774,7.361833783649292 l7.361833783649291,-3.7510416677171765 l3.7510416677171774,-7.361833783649292z"/>
<path fill="#B31B1B" fill-opacity="0.9" d="m0.0,-0.0 l-1.2925208720658112,-8.160655613754617 l-8.160655613754617,-1.2925208720658077 l1.2925208720658112,8.160655613754617z"/>
<path fill="#B31B1B" fill-opacity="0.9" d="m-29.093885644421743,29.093885644421743 l-1.2925208720658077,-8.16065561375461 l-8.160655613754617,-1.2925208720658148 l1.2925208720658077,8.16065561375461z"/>
<path fill="#B31B1B" fill-opacity="0.9" d="m29.093885644421736,-29.09388564442175 l-8.160655613754614,-1.2925208720658112 l-1.2925208720658112,-8.160655613754614 l8.160655613754614,1.2925208720658112z"/>
<path fill="#B31B1B" fill-opacity="0.9" d="m-26.635364848770372,13.571396247017848 l-8.16065561375462,-1.2925208720658077 l-3.7510416677171747,7.361833783649292 l8.16065561375462,1.2925208720658077z"/>
<path fill="#B31B1B" fill-opacity="0.9" d="m13.571396247017837,-26.635364848770376 l-1.2925208720658077,-8.160655613754617 l7.361833783649288,-3.751041667717182 l1.2925208720658077,8.160655613754617z"/>
<path fill="#B31B1B" fill-opacity="0.9" d="m-26.635364848770372,13.571396247017834 l-3.7510416677171783,7.361833783649299 l-8.160655613754617,-1.2925208720658148 l3.7510416677171783,-7.361833783649299z"/>
<path fill="#B31B1B" fill-opacity="0.9" d="m13.571396247017828,-26.635364848770376 l7.361833783649294,-3.7510416677171854 l-1.2925208720658112,-8.160655613754614 l-7.361833783649294,3.7510416677171854z"/>
<path fill="#B31B1B" fill-opacity="0.9" d="m-19.27353106512108,9.820354579300664 l-7.361833783649292,3.7510416677171836 l-5.842384369888315,-5.842384369888315 l7.361833783649292,-3.7510416677171836z"/>
<path fill="#B31B1B" fill-opacity="0.9" d="m9.820354579300659,-19.273531065121084 l3.7510416677171783,-7.361833783649292 l-5.842384369888311,-5.842384369888311 l-3.7510416677171783,7.361833783649292z"/>
<path fill="#B31B1B" fill-opacity="0.9" d="m-19.27353106512108,9.820354579300664 l3.751041667717171,-7.361833783649291 l-5.842384369888315,-5.84238436988831 l-3.751041667717171,7.361833783649291z"/>
<path fill="#B31B1B" fill-opacity="0.9" d="m9.820354579300659,-19.273531065121084 l-7.361833783649291,3.7510416677171747 l-5.842384369888312,-5.842384369888315 l7.361833783649291,-3.7510416677171747z"/>
<path fill="#B31B1B" fill-opacity="0.9" d="m-8.160655613754617,-1.2925208720658063 l-7.361833783649292,3.7510416677171796 l-5.842384369888315,-5.84238436988831 l7.361833783649292,-3.7510416677171796z"/>
<path fill="#B31B1B" fill-opacity="0.9" d="m-1.2925208720658095,-8.160655613754617 l3.7510416677171774,-7.361833783649292 l-5.842384369888312,-5.842384369888315 l-3.7510416677171774,7.361833783649292z"/>
<path fill="#B31B1B" fill-opacity="0.9" d="m-37.25454125817636,27.801364772355935 l-5.842384369888308,-5.842384369888311 l-7.3618337836492955,3.751041667717182 l5.842384369888308,5.842384369888311z"/>
<path fill="#B31B1B" fill-opacity="0.9" d="m-8.160655613754617,-1.2925208720658095 l-5.842384369888315,-5.842384369888312 l-7.361833783649292,3.7510416677171774 l5.842384369888315,5.842384369888312z"/>
<path fill="#B31B1B" fill-opacity="0.9" d="m-1.2925208720658112,-8.160655613754617 l-5.842384369888315,-5.842384369888311 l3.7510416677171747,-7.3618337836492955 l5.842384369888315,5.842384369888311z"/>
<path fill="#B31B1B" fill-opacity="0.9" d="m27.801364772355925,-37.25454125817636 l-5.842384369888311,-5.842384369888315 l3.751041667717171,-7.3618337836492955 l5.842384369888311,5.842384369888315z"/>
<path fill="#B31B1B" fill-opacity="0.37" d="m-43.09692562806466,21.95898040246764 l-1.2925208720658148,-8.160655613754615 l5.842384369888308,5.842384369888309 l1.2925208720658148,8.160655613754615z"/>
<path fill="#B31B1B" fill-opacity="0.37" d="m21.958980402467624,-43.096925628064675 l-8.160655613754617,-1.2925208720658077 l5.842384369888311,5.842384369888308 l8.160655613754617,1.2925208720658077z"/>
<path fill="#B31B1B" fill-opacity="0.37" d="m-14.003039983642932,-7.1349052419541215 l5.842384369888315,5.842384369888312 l-1.2925208720658112,-8.160655613754615 l-5.842384369888315,-5.842384369888312z"/>
<path fill="#B31B1B" fill-opacity="0.37" d="m-7.134905241954126,-14.003039983642928 l5.842384369888315,5.842384369888311 l-8.160655613754617,-1.2925208720658077 l-5.842384369888315,-5.842384369888311z"/>
<path fill="#B31B1B" fill-opacity="0.37" d="m-43.09692562806467,21.958980402467624 l5.842384369888308,5.842384369888311 l-1.2925208720658077,-8.160655613754617 l-5.842384369888308,-5.842384369888311z"/>
<path fill="#B31B1B" fill-opacity="0.37" d="m21.958980402467613,-43.096925628064675 l5.842384369888311,5.842384369888315 l-8.160655613754614,-1.2925208720658148 l-5.842384369888311,-5.842384369888315z"/>
<path fill="#B31B1B" fill-opacity="0.37" d="m-34.79602046252499,12.27887537495204 l8.16065561375462,1.2925208720658077 l-5.842384369888315,-5.842384369888315 l-8.16065561375462,-1.2925208720658077z"/>
<path fill="#B31B1B" fill-opacity="0.37" d="m12.27887537495203,-34.79602046252499 l1.2925208720658077,8.160655613754617 l-5.842384369888311,-5.842384369888311 l-1.2925208720658077,-8.160655613754617z"/>
<path fill="#B31B1B" fill-opacity="0.9" d="m-40.63840483241331,6.436491005063729 l5.842384369888315,5.842384369888311 l-3.7510416677171747,7.361833783649292 l-5.842384369888315,-5.842384369888311z"/>
<path fill="#B31B1B" fill-opacity="0.9" d="m6.436491005063715,-40.63840483241331 l5.842384369888315,5.842384369888315 l7.361833783649288,-3.751041667717182 l-5.842384369888315,-5.842384369888315z"/>
<path fill="#B31B1B" fill-opacity="0.9" d="m-44.389446500130475,13.798324788713023 l1.2925208720658148,8.160655613754615 l-7.3618337836492955,3.7510416677171747 l-1.2925208720658148,-8.160655613754615z"/>
<path fill="#B31B1B" fill-opacity="0.9" d="m13.798324788713007,-44.38944650013048 l8.160655613754617,1.2925208720658077 l3.751041667717182,-7.361833783649288 l-8.160655613754617,-1.2925208720658077z"/>
<path fill="#B31B1B" fill-opacity="0.37" d="m-33.27657104876402,2.685449337346549 l-7.361833783649288,3.75104166771718 l8.16065561375462,1.2925208720658041 l7.361833783649288,-3.75104166771718z"/>
<path fill="#B31B1B" fill-opacity="0.37" d="m2.685449337346542,-33.27657104876402 l3.751041667717173,-7.361833783649288 l1.2925208720658112,8.16065561375462 l-3.751041667717173,7.361833783649288z"/>
<path fill="#B31B1B" fill-opacity="0.37" d="m-26.408436307075206,-4.18268540434226 l1.2925208720658112,8.160655613754617 l3.751041667717171,-7.361833783649294 l-1.2925208720658112,-8.160655613754617z"/>
<path fill="#B31B1B" fill-opacity="0.37" d="m-4.182685404342267,-26.408436307075206 l8.160655613754615,1.2925208720658077 l-7.361833783649292,3.7510416677171747 l-8.160655613754615,-1.2925208720658077z"/>
<path fill="#B31B1B" fill-opacity="0.37" d="m-26.40843630707521,-4.182685404342269 l3.751041667717182,-7.361833783649288 l1.2925208720658041,8.160655613754614 l-3.751041667717182,7.361833783649288z"/>
<path fill="#B31B1B" fill-opacity="0.9" d="m-15.295560855708738,-15.295560855708734 l1.292520872065806,8.160655613754614 l-7.361833783649292,3.7510416677171774 l-1.292520872065806,-8.160655613754614z"/>
<path fill="#B31B1B" fill-opacity="0.9" d="m-15.295560855708738,-15.295560855708734 l8.160655613754612,1.292520872065806 l3.7510416677171747,-7.3618337836492955 l-8.160655613754612,-1.292520872065806z"/>
<path fill="#B31B1B" fill-opacity="0.37" d="m-4.182685404342276,-26.40843630707521 l-7.361833783649288,3.751041667717182 l8.160655613754614,1.2925208720658041 l7.361833783649288,-3.751041667717182z"/>
<path fill="#B31B1B" fill-opacity="0.9" d="m-25.115915435009395,3.977970209412357 l-8.160655613754624,-1.2925208720658077 l-1.2925208720658077,-8.160655613754617 l8.160655613754624,1.2925208720658077z"/>
<path fill="#B31B1B" fill-opacity="0.9" d="m3.977970209412348,-25.1159154350094 l-1.292520872065806,-8.16065561375462 l-8.160655613754617,-1.2925208720658077 l1.292520872065806,8.16065561375462z"/>
<path fill="#B31B1B" fill-opacity="0.9" d="m-40.63840483241331,6.436491005063729 l7.361833783649288,-3.75104166771718 l-1.2925208720658077,-8.160655613754617 l-7.361833783649288,3.75104166771718z"/>
<path fill="#B31B1B" fill-opacity="0.9" d="m6.436491005063715,-40.63840483241331 l-3.751041667717173,7.361833783649288 l-8.160655613754617,-1.2925208720658077 l3.751041667717173,-7.361833783649288z"/>
<path fill="#B31B1B" fill-opacity="0.9" d="m-22.657394639358028,-11.544519187991558 l-8.160655613754624,-1.2925208720658095 l-3.7510416677171747,7.36183378364929 l8.160655613754624,1.2925208720658095z"/>
<path fill="#B31B1B" fill-opacity="0.9" d="m-11.544519187991565,-22.657394639358028 l-1.292520872065813,-8.160655613754617 l7.36183378364929,-3.7510416677171747 l1.292520872065813,8.160655613754617z"/>
<path fill="#B31B1B" fill-opacity="0.9" d="m-15.295560855708738,-15.295560855708734 l-5.842384369888316,-5.842384369888313 l-7.3618337836492955,3.7510416677171747 l5.842384369888316,5.842384369888313z"/>
<path fill="#B31B1B" fill-opacity="0.9" d="m-15.295560855708738,-15.295560855708734 l-5.842384369888316,-5.842384369888313 l3.7510416677171747,-7.3618337836492955 l5.842384369888316,5.842384369888313z"/>
<path fill="#B31B1B" fill-opacity="0.37" d="m-30.818050253112652,-12.837040060057367 l-5.842384369888315,-5.842384369888309 l8.160655613754617,1.2925208720658041 l5.842384369888315,5.842384369888309z"/>
<path fill="#B31B1B" fill-opacity="0.37" d="m-12.837040060057378,-30.818050253112645 l-5.842384369888313,-5.842384369888315 l1.2925208720658112,8.160655613754617 l5.842384369888313,5.842384369888315z"/>
<path fill="#B31B1B" fill-opacity="0.9" d="m-36.66043462300097,-18.679424429945676 l5.842384369888315,5.842384369888309 l-3.7510416677171747,7.36183378364929 l-5.842384369888315,-5.842384369888309z"/>
<path fill="#B31B1B" fill-opacity="0.9" d="m-18.67942442994569,-36.66043462300096 l5.842384369888313,5.842384369888315 l7.36183378364929,-3.7510416677171747 l-5.842384369888313,-5.842384369888315z"/>
<path fill="#B31B1B" fill-opacity="0.37" d="m-29.29860083935168,-22.430466097662862 l8.160655613754624,1.2925208720658148 l-7.3618337836492955,3.7510416677171747 l-8.160655613754624,-1.2925208720658148z"/>
<path fill="#B31B1B" fill-opacity="0.37" d="m-22.430466097662872,-29.298600839351668 l1.2925208720658183,8.16065561375462 l3.7510416677171747,-7.3618337836492955 l-1.2925208720658183,-8.16065561375462z"/>
<path fill="#B31B1B" fill-opacity="0.9" d="m-21.137945225597054,-21.137945225597047 l-1.2925208720658183,-8.16065561375462 l-8.160655613754614,-1.2925208720658112 l1.2925208720658183,8.16065561375462z"/>
<path fill="#B31B1B" fill-opacity="0.9" d="m-36.66043462300097,-18.679424429945676 l7.361833783649288,-3.7510416677171854 l-1.2925208720658077,-8.160655613754617 l-7.361833783649288,3.7510416677171854z"/>
<path fill="#B31B1B" fill-opacity="0.9" d="m-18.67942442994569,-36.66043462300096 l-3.751041667717182,7.361833783649292 l-8.160655613754614,-1.2925208720658112 l3.751041667717182,-7.361833783649292z"/>
<path fill="#B31B1B" fill-opacity="0.37" d="m-34.2019138273496,-34.201913827349586 l7.361833783649292,-3.751041667717182 l-3.7510416677171783,7.361833783649288 l-7.361833783649292,3.751041667717182z"/>
<path fill="#B31B1B" fill-opacity="0.9" d="m-37.952955495066774,-26.840080043700294 l3.7510416677171747,-7.361833783649292 l-5.842384369888315,-5.842384369888315 l-3.7510416677171747,7.361833783649292z"/>
<path fill="#B31B1B" fill-opacity="0.9" d="m-26.840080043700308,-37.95295549506677 l-7.361833783649292,3.751041667717182 l-5.842384369888315,-5.842384369888315 l7.361833783649292,-3.751041667717182z"/>
</g>
</svg>