<?xml version="1.0" encoding="utf-8"?>
<svg width="100%" height="100%" viewBox="-70.0 -70.0 140.0 140.0" preserveAspectRatio="xMidYMid meet" version="1.1" baseProfile="full" xmlns="http://www.w3.org/2000/svg">
<g style="stroke:#FFFFFF; stroke-width: 0.30638587087566255; stroke-linejoin: round;">
<path fill="#B31B1B" fill-opacity="0.9" d="m11.177341094511327,51.38410219029954 l-0.7988218301053251,-5.0435625397829895 l4.549863497822509,-2.318271243866299 l0.7988218301053251,5.0435625397829895z"/>
<path fill="#B31B1B" fill-opacity="0.9" d="m51.384102190299544,11.177341094511313 l-5.0435625397829895,-0.7988218301053287 l-2.318271243866299,4.5498634978225105 l5.0435625397829895,0.7988218301053287z"/>
<path fill="#B31B1B" fill-opacity="0.9" d="m8.859069850645042,55.933965688122036 l-3.610792115932121,-3.6107921159321137 l2.318271243866306,-4.5498634978225 l3.610792115932121,3.6107921159321137z"/>
<path fill="#B31B1B" fill-opacity="0.9" d="m55.93396568812204,8.859069850645021 l-3.610792115932121,-3.6107921159321137 l-4.549863497822493,2.318271243866306 l3.610792115932121,3.6107921159321137z"/>
<path fill="#B31B1B" fill-opacity="0.9" d="m8.859069850645025,55.93396568812204 l2.3182712438663025,-4.549863497822507 l-3.6107921159321172,-3.6107921159321066 l-2.3182712438663025,4.549863497822507z"/>
<path fill="#B31B1B" fill-opacity="0.9" d="m55.93396568812204,8.85906985064501 l-4.5498634978225,2.3182712438663025 l-3.6107921159321137,-3.6107921159321172 l4.5498634978225,-2.3182712438663025z"/>
<path fill="#B31B1B" fill-opacity="0.37" d="m16.36115318607938,41.21029812082346 l-5.043562539782991,-0.7988218301053251 l3.610792115932121,3.6107921159321137 l5.043562539782991,0.7988218301053251z"/>
<path fill="#B31B1B" fill-opacity="0.37" d="m41.21029812082347,16.36115318607937 l-0.7988218301053251,-5.043562539782991 l3.6107921159321137,3.6107921159321155 l0.7988218301053251,5.043562539782991z"/>
<path fill="#B31B1B" fill-opacity="0.37" d="m10.378519264406002,46.34053965051655 l0.7988218301053251,5.0435625397829895 l-3.6107921159321172,-3.6107921159321066 l-0.7988218301053251,-5.0435625397829895z"/>
<path fill="#B31B1B" fill-opacity="0.37" d="m46.340539650516554,10.378519264405984 l5.0435625397829895,0.7988218301053287 l-3.6107921159321137,-3.6107921159321172 l-5.0435625397829895,-0.7988218301053287z"/>
<path fill="#B31B1B" fill-opacity="0.9" d="m6.767727148473885,42.72974753458444 l3.6107921159321172,3.6107921159321066 l4.549863497822509,-2.318271243866299 l-3.6107921159321172,-3.6107921159321066z"/>
<path fill="#B31B1B" fill-opacity="0.9" d="m42.72974753458445,6.767727148473874 l3.6107921159321066,3.61079211593211 l-2.318271243866299,4.5498634978225105 l-3.6107921159321066,-3.61079211593211z"/>
<path fill="#B31B1B" fill-opacity="0.37" d="m4.449455904607593,47.27961103240695 l0.7988218301053287,5.043562539782975 l2.318271243866306,-4.5498634978225 l-0.7988218301053287,-5.043562539782975z"/>
<path fill="#B31B1B" fill-opacity="0.9" d="m22.430466097662862,29.298600839351668 l-4.549863497822503,2.3182712438663025 l0.7988218301053323,5.0435625397829895 l4.549863497822503,-2.3182712438663025z"/>
<path fill="#B31B1B" fill-opacity="0.9" d="m29.298600839351675,22.430466097662855 l2.3182712438663025,-4.549863497822503 l5.0435625397829895,0.7988218301053251 l-2.3182712438663025,4.549863497822503z"/>
<path fill="#B31B1B" fill-opacity="0.37" d="m47.27961103240695,4.449455904607579 l5.043562539782975,0.7988218301053287 l-4.549863497822493,2.318271243866306 l-5.043562539782975,-0.7988218301053287z"/>
<path fill="#B31B1B" fill-opacity="0.9" d="m11.31759064629639,40.411476290718134 l2.318271243866308,-4.5498634978225 l5.043562539782993,0.7988218301053251 l-2.318271243866308,4.5498634978225z"/>
<path fill="#B31B1B" fill-opacity="0.9" d="m40.41147629071814,11.31759064629638 l-4.5498634978225,2.318271243866308 l0.7988218301053251,5.0435625397829895 l4.5498634978225,-2.318271243866308z"/>
<path fill="#B31B1B" fill-opacity="0.9" d="m5.2482777347129215,52.32317357218992 l-0.7988218301053287,-5.043562539782975 l-5.0435625397829895,-0.7988218301053251 l0.7988218301053287,5.043562539782975z"/>
<path fill="#B31B1B" fill-opacity="0.9" d="m52.32317357218992,5.248277734712907 l-5.043562539782975,-0.7988218301053287 l-0.7988218301053251,-5.0435625397829895 l5.043562539782975,0.7988218301053287z"/>
<path fill="#B31B1B" fill-opacity="0.9" d="m12.837040060057374,30.81805025311265 l0.7988218301053234,5.043562539782986 l5.043562539782993,0.7988218301053251 l-0.7988218301053234,-5.043562539782986z"/>
<path fill="#B31B1B" fill-opacity="0.9" d="m30.818050253112652,12.837040060057365 l5.0435625397829895,0.7988218301053216 l0.7988218301053251,5.0435625397829895 l-5.0435625397829895,-0.7988218301053216z"/>
<path fill="#B31B1B" fill-opacity="0.9" d="m6.767727148473899,42.72974753458443 l-2.318271243866306,4.549863497822514 l-5.0435625397829895,-0.7988218301053251 l2.318271243866306,-4.549863497822514z"/>
<path fill="#B31B1B" fill-opacity="0.37" d="m13.635861890162698,35.861612792895635 l-0.7988218301053234,-5.043562539782986 l-2.318271243866306,4.549863497822503 l0.7988218301053234,5.043562539782986z"/>
<path fill="#B31B1B" fill-opacity="0.37" d="m17.88060259984036,31.61687208321797 l-5.043562539782984,-0.7988218301053216 l4.549863497822498,-2.318271243866306 l5.043562539782984,0.7988218301053216z"/>
<path fill="#B31B1B" fill-opacity="0.9" d="m24.748737341529164,24.748737341529164 l-2.3182712438663025,4.549863497822503 l-5.0435625397829895,-0.7988218301053251 l2.3182712438663025,-4.549863497822503z"/>
<path fill="#B31B1B" fill-opacity="0.9" d="m24.74873734152917,24.748737341529157 l4.549863497822503,-2.3182712438663025 l-0.7988218301053251,-5.0435625397829895 l-4.549863497822503,2.3182712438663025z"/>
<path fill="#B31B1B" fill-opacity="0.37" d="m31.616872083217977,17.88060259984035 l-0.7988218301053251,-5.043562539782986 l-2.3182712438663025,4.5498634978225 l0.7988218301053251,5.043562539782986z"/>
<path fill="#B31B1B" fill-opacity="0.37" d="m35.86161279289564,13.635861890162687 l-5.0435625397829895,-0.7988218301053216 l4.5498634978225,-2.318271243866308 l5.0435625397829895,0.7988218301053216z"/>
<path fill="#B31B1B" fill-opacity="0.9" d="m42.72974753458443,6.767727148473888 l4.549863497822514,-2.3182712438663096 l-0.7988218301053251,-5.0435625397829895 l-4.549863497822514,2.3182712438663096z"/>
<path fill="#B31B1B" fill-opacity="0.9" d="m6.767727148473885,42.72974753458444 l-0.7988218301053287,-5.0435625397829895 l4.549863497822512,-2.318271243866299 l0.7988218301053287,5.0435625397829895z"/>
<path fill="#B31B1B" fill-opacity="0.9" d="m42.72974753458445,6.767727148473874 l-5.043562539782997,-0.7988218301053305 l-2.318271243866299,4.549863497822514 l5.043562539782997,0.7988218301053305z"/>
<path fill="#B31B1B" fill-opacity="0.37" d="m-2.825698889131594,44.24919694834542 l4.549863497822507,-2.318271243866313 l-2.3182712438663096,4.549863497822514 l-4.549863497822507,2.318271243866313z"/>
<path fill="#B31B1B" fill-opacity="0.9" d="m6.767727148473899,42.72974753458443 l-0.7988218301053216,-5.043562539782982 l-5.043562539782993,-0.7988218301053251 l0.7988218301053216,5.043562539782982z"/>
<path fill="#B31B1B" fill-opacity="0.37" d="m15.155311303923677,26.268186755290145 l4.549863497822502,-2.3182712438663025 l-2.318271243866306,4.5498634978225 l-4.549863497822502,2.3182712438663025z"/>
<path fill="#B31B1B" fill-opacity="0.9" d="m24.748737341529164,24.748737341529164 l-5.043562539782986,-0.7988218301053216 l-0.7988218301053251,-5.0435625397829895 l5.043562539782986,0.7988218301053216z"/>
<path fill="#B31B1B" fill-opacity="0.9" d="m24.74873734152917,24.748737341529157 l-0.7988218301053216,-5.043562539782986 l-5.0435625397829895,-0.7988218301053251 l0.7988218301053216,5.043562539782986z"/>
<path fill="#B31B1B" fill-opacity="0.37" d="m26.268186755290152,15.155311303923668 l-2.3182712438663025,4.549863497822503 l4.5498634978225,-2.318271243866306 l2.3182712438663025,-4.549863497822503z"/>
<path fill="#B31B1B" fill-opacity="0.9" d="m42.72974753458443,6.767727148473888 l-5.043562539782982,-0.7988218301053234 l-0.7988218301053251,-5.043562539782991 l5.043562539782982,0.7988218301053234z"/>
<path fill="#B31B1B" fill-opacity="0.37" d="m44.24919694834542,-2.8256988891316084 l-2.318271243866306,4.5498634978225105 l4.549863497822507,-2.318271243866313 l2.318271243866306,-4.5498634978225105z"/>
<path fill="#B31B1B" fill-opacity="0.37" d="m8.287176562234867,33.13632149697895 l-2.3182712438663113,4.5498634978225 l4.549863497822512,-2.318271243866299 l2.3182712438663113,-4.5498634978225z"/>
<path fill="#B31B1B" fill-opacity="0.37" d="m33.13632149697895,8.287176562234857 l4.5498634978225,-2.318271243866313 l-2.318271243866299,4.549863497822514 l-4.5498634978225,2.318271243866313z"/>
<path fill="#B31B1B" fill-opacity="0.9" d="m1.7241646086909128,41.93092570447911 l-3.6107921159321172,-3.6107921159321066 l-4.549863497822507,2.318271243866306 l3.6107921159321172,3.6107921159321066z"/>
<path fill="#B31B1B" fill-opacity="0.9" d="m5.968905318368577,37.68618499480145 l-3.610792115932121,-3.6107921159321137 l2.3182712438663042,-4.549863497822507 l3.610792115932121,3.6107921159321137z"/>
<path fill="#B31B1B" fill-opacity="0.9" d="m12.837040060057374,30.81805025311265 l2.3182712438663025,-4.549863497822503 l-3.6107921159321155,-3.6107921159321137 l-2.3182712438663025,4.549863497822503z"/>
<path fill="#B31B1B" fill-opacity="0.9" d="m19.70517480174618,23.949915511423843 l-4.549863497822502,2.3182712438663025 l-3.6107921159321155,-3.6107921159321137 l4.549863497822502,-2.3182712438663025z"/>
<path fill="#B31B1B" fill-opacity="0.9" d="m23.94991551142385,19.70517480174617 l2.3182712438663025,-4.549863497822503 l-3.610792115932121,-3.6107921159321137 l-2.3182712438663025,4.549863497822503z"/>
<path fill="#B31B1B" fill-opacity="0.9" d="m30.818050253112652,12.837040060057365 l-4.5498634978225,2.3182712438663025 l-3.610792115932121,-3.6107921159321137 l4.5498634978225,-2.3182712438663025z"/>
<path fill="#B31B1B" fill-opacity="0.9" d="m37.68618499480145,5.968905318368565 l-3.6107921159321137,-3.6107921159321155 l-4.549863497822507,2.3182712438663042 l3.6107921159321137,3.6107921159321155z"/>
<path fill="#B31B1B" fill-opacity="0.9" d="m41.930925704479115,1.7241646086909022 l-3.610792115932121,-3.6107921159321172 l2.318271243866306,-4.549863497822507 l3.610792115932121,3.6107921159321172z"/>
<path fill="#B31B1B" fill-opacity="0.9" d="m12.837040060057374,30.81805025311265 l-4.549863497822507,2.3182712438663025 l-3.6107921159321155,-3.610792115932121 l4.549863497822507,-2.3182712438663025z"/>
<path fill="#B31B1B" fill-opacity="0.9" d="m30.818050253112652,12.837040060057365 l2.318271243866299,-4.549863497822509 l-3.6107921159321172,-3.6107921159321155 l-2.318271243866299,4.549863497822509z"/>
<path fill="#B31B1B" fill-opacity="0.9" d="m5.968905318368556,37.68618499480145 l2.3182712438663113,-4.5498634978225 l-3.6107921159321155,-3.610792115932121 l-2.3182712438663113,4.5498634978225z"/>
<path fill="#B31B1B" fill-opacity="0.9" d="m37.68618499480145,5.968905318368543 l-4.5498634978225,2.318271243866313 l-3.6107921159321172,-3.6107921159321155 l4.5498634978225,-2.318271243866313z"/>
<path fill="#B31B1B" fill-opacity="0.37" d="m-1.8866275072412044,38.320133588547 l-0.7988218301053305,-5.0435625397829895 l3.610792115932119,3.6107921159321137 l0.7988218301053305,5.0435625397829895z"/>
<path fill="#B31B1B" fill-opacity="0.37" d="m2.3581132024364564,34.07539287886934 l3.610792115932121,3.6107921159321137 l-5.043562539782993,-0.7988218301053251 l-3.610792115932121,-3.6107921159321137z"/>
<path fill="#B31B1B" fill-opacity="0.37" d="m16.094382685814065,20.33912339549173 l3.6107921159321137,3.6107921159321137 l-0.7988218301053251,-5.0435625397829895 l-3.6107921159321137,-3.6107921159321137z"/>
<path fill="#B31B1B" fill-opacity="0.37" d="m20.33912339549173,16.094382685814058 l3.610792115932121,3.6107921159321137 l-5.0435625397829895,-0.7988218301053251 l-3.610792115932121,-3.6107921159321137z"/>
<path fill="#B31B1B" fill-opacity="0.37" d="m34.07539287886934,2.3581132024364493 l3.6107921159321137,3.6107921159321155 l-0.7988218301053251,-5.043562539782991 l-3.6107921159321137,-3.6107921159321155z"/>
<path fill="#B31B1B" fill-opacity="0.37" d="m38.320133588546994,-1.886627507241215 l-5.043562539782982,-0.7988218301053305 l3.6107921159321137,3.610792115932119 l5.043562539782982,0.7988218301053305z"/>
<path fill="#B31B1B" fill-opacity="0.9" d="m15.29556085570874,15.295560855708743 l0.7988218301053251,5.043562539782986 l-4.549863497822503,2.3182712438663025 l-0.7988218301053251,-5.043562539782986z"/>
<path fill="#B31B1B" fill-opacity="0.9" d="m15.295560855708747,15.295560855708736 l5.043562539782982,0.7988218301053216 l2.3182712438663025,-4.549863497822503 l-5.043562539782982,-0.7988218301053216z"/>
<path fill="#B31B1B" fill-opacity="0.9" d="m-2.685449337346535,33.27657104876401 l0.7988218301053305,5.0435625397829895 l-4.549863497822507,2.318271243866306 l-0.7988218301053305,-5.0435625397829895z"/>
<path fill="#B31B1B" fill-opacity="0.9" d="m-2.685449337346535,33.27657104876401 l5.043562539782991,0.7988218301053251 l2.3182712438663042,-4.549863497822507 l-5.043562539782991,-0.7988218301053251z"/>
<path fill="#B31B1B" fill-opacity="0.37" d="m4.1826854043422745,26.4084363070752 l-4.549863497822503,2.3182712438663096 l5.0435625397829895,0.7988218301053216 l4.549863497822503,-2.3182712438663096z"/>
<path fill="#B31B1B" fill-opacity="0.37" d="m8.42742611401993,22.163695597397545 l0.7988218301053269,5.0435625397829895 l2.3182712438663042,-4.549863497822503 l-0.7988218301053269,-5.0435625397829895z"/>
<path fill="#B31B1B" fill-opacity="0.37" d="m22.163695597397545,8.427426114019923 l5.043562539782993,0.7988218301053287 l-4.549863497822507,2.3182712438663025 l-5.043562539782993,-0.7988218301053287z"/>
<path fill="#B31B1B" fill-opacity="0.37" d="m26.4084363070752,4.182685404342267 l2.318271243866313,-4.549863497822505 l0.798821830105318,5.043562539782991 l-2.318271243866313,4.549863497822505z"/>
<path fill="#B31B1B" fill-opacity="0.9" d="m33.27657104876401,-2.6854493373465456 l0.7988218301053251,5.043562539782995 l-4.549863497822507,2.3182712438663042 l-0.7988218301053251,-5.043562539782995z"/>
<path fill="#B31B1B" fill-opacity="0.9" d="m33.27657104876401,-2.6854493373465456 l5.043562539782982,0.7988218301053305 l2.318271243866306,-4.549863497822507 l-5.043562539782982,-0.7988218301053305z"/>
<path fill="#B31B1B" fill-opacity="0.37" d="m4.182685404342267,26.408436307075203 l5.0435625397829895,0.7988218301053323 l-4.549863497822505,2.3182712438662954 l-5.0435625397829895,-0.7988218301053323z"/>
<path fill="#B31B1B" fill-opacity="0.37" d="m26.408436307075206,4.1826854043422586 l0.7988218301053323,5.043562539782993 l2.3182712438662954,-4.5498634978225105 l-0.7988218301053323,-5.043562539782993z"/>
<path fill="#B31B1B" fill-opacity="0.9" d="m9.226247944125257,27.207258137180535 l-5.0435625397829895,-0.7988218301053323 l-0.7988218301053216,-5.043562539782986 l5.0435625397829895,0.7988218301053323z"/>
<path fill="#B31B1B" fill-opacity="0.9" d="m27.20725813718054,9.226247944125252 l-0.7988218301053323,-5.043562539782993 l-5.0435625397829895,-0.7988218301053198 l0.7988218301053323,5.043562539782993z"/>
<path fill="#B31B1B" fill-opacity="0.9" d="m-12.278875374952023,34.79602046252499 l5.0435625397829895,0.7988218301053251 l0.7988218301053216,5.0435625397829895 l-5.0435625397829895,-0.7988218301053251z"/>
<path fill="#B31B1B" fill-opacity="0.9" d="m34.79602046252499,-12.278875374952033 l0.7988218301053251,5.0435625397829895 l5.043562539782982,0.7988218301053216 l-0.7988218301053251,-5.0435625397829895z"/>
<path fill="#B31B1B" fill-opacity="0.37" d="m-7.235312835169033,35.59484229263032 l4.549863497822498,-2.318271243866306 l-5.043562539782986,-0.798821830105318 l-4.549863497822498,2.318271243866306z"/>
<path fill="#B31B1B" fill-opacity="0.37" d="m35.59484229263032,-7.235312835169044 l-2.318271243866306,4.549863497822498 l-0.7988218301053251,-5.043562539782986 l2.318271243866306,-4.549863497822498z"/>
<path fill="#B31B1B" fill-opacity="0.9" d="m-0.3671780934802289,28.72670755094151 l4.549863497822503,-2.3182712438663096 l-0.7988218301053251,-5.043562539782982 l-4.549863497822503,2.3182712438663096z"/>
<path fill="#B31B1B" fill-opacity="0.9" d="m10.745697357886238,17.613832099575045 l-5.0435625397829895,-0.7988218301053287 l-2.3182712438663025,4.5498634978225 l5.0435625397829895,0.7988218301053287z"/>
<path fill="#B31B1B" fill-opacity="0.9" d="m17.61383209957505,10.745697357886232 l-0.7988218301053323,-5.0435625397829895 l4.5498634978225,-2.3182712438663042 l0.7988218301053323,5.0435625397829895z"/>
<path fill="#B31B1B" fill-opacity="0.9" d="m28.726707550941512,-0.3671780934802378 l-2.318271243866313,4.549863497822505 l-5.043562539782982,-0.7988218301053251 l2.318271243866313,-4.549863497822505z"/>
<path fill="#B31B1B" fill-opacity="0.9" d="m15.29556085570874,15.295560855708743 l-3.610792115932112,-3.6107921159321155 l-4.549863497822505,2.3182712438663007 l3.610792115932112,3.6107921159321155z"/>
<path fill="#B31B1B" fill-opacity="0.9" d="m15.295560855708747,15.295560855708736 l-3.6107921159321155,-3.610792115932112 l2.3182712438663007,-4.549863497822506 l3.6107921159321155,3.610792115932112z"/>
<path fill="#B31B1B" fill-opacity="0.9" d="m-2.685449337346535,33.27657104876401 l-3.610792115932112,-3.61079211593211 l2.318271243866306,-4.5498634978225105 l3.610792115932112,3.61079211593211z"/>
<path fill="#B31B1B" fill-opacity="0.9" d="m33.27657104876401,-2.6854493373465456 l-3.6107921159321137,-3.610792115932112 l-4.549863497822507,2.318271243866308 l3.6107921159321137,3.610792115932112z"/>
<path fill="#B31B1B" fill-opacity="0.37" d="m-6.296241453278647,29.665778932831902 l-5.043562539782988,-0.7988218301053216 l3.6107921159321137,3.6107921159321137 l5.043562539782988,0.7988218301053216z"/>
<path fill="#B31B1B" fill-opacity="0.37" d="m29.6657789328319,-6.2962414532786575 l-0.7988218301053251,-5.043562539782988 l3.6107921159321137,3.6107921159321137 l0.7988218301053251,5.043562539782988z"/>
<path fill="#B31B1B" fill-opacity="0.37" d="m-1.1659999235855523,23.68314501115852 l0.7988218301053234,5.0435625397829895 l-3.610792115932112,-3.6107921159321172 l-0.7988218301053234,-5.0435625397829895z"/>
<path fill="#B31B1B" fill-opacity="0.37" d="m5.702134818103248,16.815010269469717 l-3.6107921159321137,-3.6107921159321137 l5.043562539782988,0.7988218301053251 l3.6107921159321137,3.6107921159321137z"/>
<path fill="#B31B1B" fill-opacity="0.37" d="m16.815010269469717,5.702134818103243 l-3.6107921159321137,-3.610792115932112 l0.7988218301053287,5.043562539782987 l3.6107921159321137,3.610792115932112z"/>
<path fill="#B31B1B" fill-opacity="0.37" d="m23.68314501115852,-1.1659999235855594 l5.043562539782993,0.7988218301053216 l-3.610792115932121,-3.610792115932112 l-5.043562539782993,-0.7988218301053216z"/>
<path fill="#B31B1B" fill-opacity="0.9" d="m-15.889667490884136,31.185228346592886 l3.6107921159321137,3.6107921159321066 l4.549863497822502,-2.318271243866299 l-3.6107921159321137,-3.6107921159321066z"/>
<path fill="#B31B1B" fill-opacity="0.9" d="m31.18522834659288,-15.889667490884145 l3.6107921159321137,3.610792115932112 l-2.318271243866306,4.549863497822502 l-3.6107921159321137,-3.610792115932112z"/>
<path fill="#B31B1B" fill-opacity="0.9" d="m-4.776792039517669,20.07235289522641 l4.549863497822501,-2.318271243866306 l3.6107921159321172,3.6107921159321137 l-4.549863497822501,2.318271243866306z"/>
<path fill="#B31B1B" fill-opacity="0.9" d="m2.0913427021711346,13.204218153537603 l3.6107921159321137,3.6107921159321137 l-2.3182712438663025,4.5498634978225 l-3.6107921159321137,-3.6107921159321137z"/>
<path fill="#B31B1B" fill-opacity="0.9" d="m2.0913427021711364,13.2042181535376 l-2.3182712438663042,4.549863497822503 l3.6107921159321172,3.6107921159321137 l2.3182712438663042,-4.549863497822503z"/>
<path fill="#B31B1B" fill-opacity="0.9" d="m13.204218153537601,2.0913427021711337 l4.549863497822502,-2.318271243866305 l3.6107921159321137,3.6107921159321137 l-4.549863497822502,2.318271243866305z"/>
<path fill="#B31B1B" fill-opacity="0.9" d="m13.204218153537603,2.091342702171131 l3.6107921159321137,3.610792115932112 l4.5498634978225,-2.3182712438663042 l-3.6107921159321137,-3.610792115932112z"/>
<path fill="#B31B1B" fill-opacity="0.9" d="m20.072352895226405,-4.776792039517676 l-2.3182712438663025,4.549863497822504 l3.6107921159321137,3.6107921159321137 l2.3182712438663025,-4.549863497822504z"/>
<path fill="#B31B1B" fill-opacity="0.37" d="m6.641206199993638,10.8859469096713 l5.0435625397829895,0.7988218301053269 l-4.549863497822505,2.3182712438663007 l-5.0435625397829895,-0.7988218301053269z"/>
<path fill="#B31B1B" fill-opacity="0.37" d="m10.885946909671302,6.641206199993634 l0.7988218301053287,5.04356253978299 l2.3182712438663007,-4.549863497822506 l-0.7988218301053287,-5.04356253978299z"/>
<path fill="#B31B1B" fill-opacity="0.9" d="m-11.339803993061635,28.86695710272658 l5.043562539782988,0.7988218301053216 l2.318271243866306,-4.5498634978225105 l-5.043562539782988,-0.7988218301053216z"/>
<path fill="#B31B1B" fill-opacity="0.9" d="m28.866957102726573,-11.339803993061645 l0.7988218301053251,5.043562539782988 l-4.549863497822507,2.318271243866308 l-0.7988218301053251,-5.043562539782988z"/>
<path fill="#B31B1B" fill-opacity="0.9" d="m11.684768739776628,11.684768739776628 l-5.0435625397829895,-0.7988218301053269 l-0.798821830105326,-5.043562539782989 l5.0435625397829895,0.7988218301053269z"/>
<path fill="#B31B1B" fill-opacity="0.9" d="m11.684768739776631,11.684768739776624 l-0.7988218301053287,-5.04356253978299 l-5.043562539782989,-0.7988218301053234 l0.7988218301053287,5.04356253978299z"/>
<path fill="#B31B1B" fill-opacity="0.9" d="m-9.820354579300655,19.27353106512109 l0.7988218301053251,5.043562539782979 l5.0435625397829895,0.7988218301053216 l-0.7988218301053251,-5.043562539782979z"/>
<path fill="#B31B1B" fill-opacity="0.9" d="m19.273531065121087,-9.820354579300663 l5.043562539782979,0.7988218301053287 l0.7988218301053251,5.043562539782984 l-5.043562539782979,-0.7988218301053287z"/>
<path fill="#B31B1B" fill-opacity="0.37" d="m-0.22692854169516785,17.754081651360103 l2.3182712438663042,-4.549863497822503 l-4.549863497822502,2.318271243866308 l-2.3182712438663042,4.549863497822503z"/>
<path fill="#B31B1B" fill-opacity="0.37" d="m17.754081651360103,-0.2269285416951714 l-4.549863497822502,2.318271243866305 l2.318271243866306,-4.5498634978225025 l4.549863497822502,-2.318271243866305z"/>
<path fill="#B31B1B" fill-opacity="0.9" d="m-15.889667490884136,31.185228346592886 l4.549863497822502,-2.318271243866306 l-0.7988218301053251,-5.0435625397829895 l-4.549863497822502,2.318271243866306z"/>
<path fill="#B31B1B" fill-opacity="0.9" d="m31.18522834659288,-15.889667490884145 l-2.318271243866306,4.5498634978225 l-5.0435625397829895,-0.7988218301053234 l2.318271243866306,-4.5498634978225z"/>
<path fill="#B31B1B" fill-opacity="0.37" d="m-9.02153274919533,24.31709360490407 l-2.3182712438663042,4.5498634978225105 l-0.7988218301053251,-5.0435625397829895 l2.3182712438663042,-4.5498634978225105z"/>
<path fill="#B31B1B" fill-opacity="0.9" d="m2.0913427021711346,13.204218153537603 l4.549863497822503,-2.3182712438663025 l-0.798821830105326,-5.043562539782989 l-4.549863497822503,2.3182712438663025z"/>
<path fill="#B31B1B" fill-opacity="0.9" d="m13.204218153537603,2.091342702171131 l-2.3182712438663007,4.5498634978225025 l-5.043562539782989,-0.7988218301053234 l2.3182712438663007,-4.5498634978225025z"/>
<path fill="#B31B1B" fill-opacity="0.37" d="m24.317093604904066,-9.021532749195334 l4.549863497822507,-2.3182712438663113 l-5.0435625397829895,-0.7988218301053234 l-4.549863497822507,2.3182712438663113z"/>
<path fill="#B31B1B" fill-opacity="0.9" d="m-15.88966749088414,31.18522834659288 l-0.7988218301053216,-5.043562539782986 l4.5498634978225,-2.318271243866306 l0.7988218301053216,5.043562539782986z"/>
<path fill="#B31B1B" fill-opacity="0.9" d="m31.185228346592876,-15.88966749088415 l-5.043562539782986,-0.7988218301053216 l-2.318271243866306,4.5498634978225 l5.043562539782986,0.7988218301053216z"/>
<path fill="#B31B1B" fill-opacity="0.9" d="m-9.820354579300655,19.27353106512109 l2.3182712438663025,-4.549863497822503 l5.043562539782988,0.7988218301053198 l-2.3182712438663025,4.549863497822503z"/>
<path fill="#B31B1B" fill-opacity="0.9" d="m19.273531065121087,-9.820354579300663 l-4.549863497822503,2.318271243866306 l0.7988218301053234,5.043562539782988 l4.549863497822503,-2.318271243866306z"/>
<path fill="#B31B1B" fill-opacity="0.37" d="m-2.9522198376118496,12.405396323432278 l-4.549863497822503,2.3182712438663096 l5.043562539782988,0.7988218301053198 l4.549863497822503,-2.3182712438663096z"/>
<path fill="#B31B1B" fill-opacity="0.37" d="m12.405396323432278,-2.952219837611854 l2.318271243866306,-4.5498634978225025 l0.7988218301053234,5.043562539782988 l-2.318271243866306,4.5498634978225025z"/>
<path fill="#B31B1B" fill-opacity="0.37" d="m3.6107921159321146,3.610792115932115 l-2.318271243866304,4.549863497822502 l4.549863497822502,-2.318271243866305 l2.318271243866304,-4.549863497822502z"/>
<path fill="#B31B1B" fill-opacity="0.37" d="m3.6107921159321164,3.6107921159321132 l4.549863497822501,-2.318271243866305 l-2.3182712438663033,4.549863497822502 l-4.549863497822501,2.318271243866305z"/>
<path fill="#B31B1B" fill-opacity="0.9" d="m2.0913427021711364,13.2042181535376 l-5.043562539782986,-0.7988218301053216 l-0.798821830105326,-5.043562539782986 l5.043562539782986,0.7988218301053216z"/>
<path fill="#B31B1B" fill-opacity="0.9" d="m13.204218153537601,2.0913427021711337 l-0.7988218301053234,-5.043562539782988 l-5.043562539782987,-0.7988218301053243 l0.7988218301053234,5.043562539782988z"/>
<path fill="#B31B1B" fill-opacity="0.37" d="m-14.370218077123159,21.591802308987393 l-2.3182712438663025,4.5498634978225 l4.5498634978225,-2.318271243866306 l2.3182712438663025,-4.5498634978225z"/>
<path fill="#B31B1B" fill-opacity="0.37" d="m21.591802308987386,-14.370218077123168 l4.549863497822503,-2.3182712438663042 l-2.318271243866306,4.5498634978225 l-4.549863497822503,2.3182712438663042z"/>
<path fill="#B31B1B" fill-opacity="0.9" d="m-15.88966749088414,31.18522834659288 l-5.043562539782986,-0.7988218301053216 l-0.7988218301053251,-5.043562539782986 l5.043562539782986,0.7988218301053216z"/>
<path fill="#B31B1B" fill-opacity="0.9" d="m31.185228346592876,-15.88966749088415 l-0.7988218301053287,-5.043562539782986 l-5.043562539782982,-0.7988218301053216 l0.7988218301053287,5.043562539782986z"/>
<path fill="#B31B1B" fill-opacity="0.9" d="m-7.502083335434353,14.723667567298587 l4.549863497822503,-2.3182712438663096 l-0.798821830105326,-5.043562539782986 l-4.549863497822503,2.3182712438663096z"/>
<path fill="#B31B1B" fill-opacity="0.9" d="m14.723667567298584,-7.502083335434357 l-2.318271243866306,4.5498634978225025 l-5.043562539782987,-0.7988218301053243 l2.318271243866306,-4.5498634978225025z"/>
<path fill="#B31B1B" fill-opacity="0.9" d="m-7.502083335434355,14.723667567298586 l-0.7988218301053234,-5.043562539782991 l4.549863497822502,-2.3182712438663033 l0.7988218301053234,5.043562539782991z"/>
<path fill="#B31B1B" fill-opacity="0.9" d="m14.723667567298582,-7.502083335434358 l-5.043562539782988,-0.7988218301053234 l-2.3182712438663042,4.5498634978225025 l5.043562539782988,0.7988218301053234z"/>
<path fill="#B31B1B" fill-opacity="0.9" d="m1.2925208720658108,8.160655613754617 l2.318271243866304,-4.549863497822502 l-3.6107921159321146,-3.610792115932115 l-2.318271243866304,4.549863497822502z"/>
<path fill="#B31B1B" fill-opacity="0.9" d="m1.2925208720658121,8.160655613754615 l-3.610792115932116,-3.610792115932113 l2.318271243866304,-4.5498634978225025 l3.610792115932116,3.610792115932113z"/>
<path fill="#B31B1B" fill-opacity="0.9" d="m8.160655613754617,1.292520872065809 l-3.6107921159321155,-3.610792115932114 l-4.549863497822502,2.318271243866305 l3.6107921159321155,3.610792115932114z"/>
<path fill="#B31B1B" fill-opacity="0.9" d="m8.160655613754617,1.2925208720658081 l-4.549863497822501,2.318271243866305 l-3.6107921159321164,-3.6107921159321132 l4.549863497822501,-2.318271243866305z"/>
<path fill="#B31B1B" fill-opacity="0.9" d="m-9.820354579300659,19.273531065121087 l2.3182712438663042,-4.549863497822502 l-3.6107921159321137,-3.6107921159321172 l-2.3182712438663042,4.549863497822502z"/>
<path fill="#B31B1B" fill-opacity="0.9" d="m19.273531065121084,-9.820354579300666 l-4.549863497822502,2.318271243866308 l-3.6107921159321172,-3.6107921159321137 l4.549863497822502,-2.318271243866308z"/>
<path fill="#B31B1B" fill-opacity="0.9" d="m-9.820354579300659,19.273531065121087 l-4.5498634978225,2.318271243866306 l-3.6107921159321172,-3.610792115932121 l4.5498634978225,-2.318271243866306z"/>
<path fill="#B31B1B" fill-opacity="0.9" d="m19.273531065121084,-9.820354579300666 l2.3182712438663025,-4.549863497822502 l-3.6107921159321172,-3.610792115932112 l-2.3182712438663025,4.549863497822502z"/>
<path fill="#B31B1B" fill-opacity="0.9" d="m-20.933230030667126,30.386406516487558 l-3.6107921159321137,-3.6107921159321137 l-4.549863497822503,2.318271243866299 l3.6107921159321137,3.6107921159321137z"/>
<path fill="#B31B1B" fill-opacity="0.9" d="m-16.68848932098946,26.141665806809893 l-3.6107921159321172,-3.6107921159321137 l2.3182712438663025,-4.549863497822507 l3.6107921159321172,3.6107921159321137z"/>
<path fill="#B31B1B" fill-opacity="0.9" d="m26.14166580680989,-16.688489320989472 l-3.6107921159321172,-3.6107921159321137 l-4.549863497822503,2.318271243866306 l3.6107921159321172,3.6107921159321137z"/>
<path fill="#B31B1B" fill-opacity="0.9" d="m30.386406516487547,-20.933230030667136 l-3.6107921159321137,-3.6107921159321137 l2.3182712438663025,-4.5498634978225 l3.6107921159321137,3.6107921159321137z"/>
<path fill="#B31B1B" fill-opacity="0.37" d="m-2.318271243866304,4.5498634978225025 l3.610792115932116,3.610792115932113 l-5.043562539782988,-0.7988218301053234 l-3.610792115932116,-3.610792115932113z"/>
<path fill="#B31B1B" fill-opacity="0.37" d="m4.549863497822502,-2.318271243866305 l3.6107921159321155,3.610792115932114 l-0.798821830105326,-5.043562539782988 l-3.6107921159321155,-3.610792115932114z"/>
<path fill="#B31B1B" fill-opacity="0.37" d="m-2.3182712438663042,4.549863497822502 l-5.043562539782987,-0.7988218301053243 l3.6107921159321146,3.6107921159321137 l5.043562539782987,0.7988218301053243z"/>
<path fill="#B31B1B" fill-opacity="0.37" d="m4.549863497822502,-2.3182712438663056 l-0.798821830105326,-5.043562539782988 l3.6107921159321146,3.6107921159321137 l0.798821830105326,5.043562539782988z"/>
<path fill="#B31B1B" fill-opacity="0.37" d="m-24.54402214659924,26.775614400555444 l-0.7988218301053251,-5.043562539782986 l3.6107921159321137,3.6107921159321137 l0.7988218301053251,5.043562539782986z"/>
<path fill="#B31B1B" fill-opacity="0.37" d="m-20.29928143692158,22.53087369087778 l3.6107921159321172,3.6107921159321137 l-5.0435625397829895,-0.7988218301053216 l-3.6107921159321172,-3.6107921159321137z"/>
<path fill="#B31B1B" fill-opacity="0.37" d="m22.530873690877772,-20.299281436921586 l3.6107921159321172,3.6107921159321137 l-0.7988218301053251,-5.043562539782986 l-3.6107921159321172,-3.6107921159321137z"/>
<path fill="#B31B1B" fill-opacity="0.37" d="m26.775614400555433,-24.54402214659925 l-5.043562539782982,-0.7988218301053216 l3.6107921159321137,3.6107921159321137 l5.043562539782982,0.7988218301053216z"/>
<path fill="#B31B1B" fill-opacity="0.37" d="m-8.300905165539678,9.680105027515594 l0.7988218301053234,5.043562539782991 l-3.6107921159321137,-3.6107921159321172 l-0.7988218301053234,-5.043562539782991z"/>
<path fill="#B31B1B" fill-opacity="0.37" d="m9.680105027515594,-8.300905165539682 l5.043562539782988,0.7988218301053234 l-3.6107921159321172,-3.6107921159321137 l-5.043562539782988,-0.7988218301053234z"/>
<path fill="#B31B1B" fill-opacity="0.9" d="m-11.911697281471794,6.069312911583482 l3.6107921159321155,3.610792115932113 l4.549863497822502,-2.3182712438663033 l-3.6107921159321155,-3.610792115932113z"/>
<path fill="#B31B1B" fill-opacity="0.9" d="m6.069312911583479,-11.911697281471795 l3.6107921159321155,3.6107921159321137 l-2.3182712438663042,4.5498634978225025 l-3.6107921159321155,-3.6107921159321137z"/>
<path fill="#B31B1B" fill-opacity="0.9" d="m-7.36183378364929,3.75104166771718 l2.3182712438663025,-4.549863497822503 l5.043562539782988,0.7988218301053234 l-2.3182712438663025,4.549863497822503z"/>
<path fill="#B31B1B" fill-opacity="0.9" d="m3.751041667717178,-7.361833783649292 l-4.549863497822503,2.3182712438663042 l0.7988218301053251,5.043562539782988 l4.549863497822503,-2.3182712438663042z"/>
<path fill="#B31B1B" fill-opacity="0.9" d="m-7.361833783649291,3.7510416677171774 l5.043562539782987,0.7988218301053243 l2.3182712438663042,-4.549863497822502 l-5.043562539782987,-0.7988218301053243z"/>
<path fill="#B31B1B" fill-opacity="0.9" d="m3.7510416677171756,-7.361833783649293 l0.798821830105326,5.043562539782988 l-4.549863497822502,2.3182712438663056 l-0.798821830105326,-5.043562539782988z"/>
<path fill="#B31B1B" fill-opacity="0.37" d="m-14.229968525338094,10.619176409405982 l2.3182712438663007,-4.549863497822501 l0.7988218301053251,5.043562539782987 l-2.3182712438663007,4.549863497822501z"/>
<path fill="#B31B1B" fill-opacity="0.37" d="m10.619176409405977,-14.229968525338096 l-4.549863497822498,2.3182712438663007 l5.043562539782986,0.7988218301053234 l4.549863497822498,-2.3182712438663007z"/>
<path fill="#B31B1B" fill-opacity="0.9" d="m-25.342843976704565,21.732051860772458 l-4.549863497822507,2.318271243866306 l0.7988218301053287,5.043562539782979 l4.549863497822507,-2.318271243866306z"/>
<path fill="#B31B1B" fill-opacity="0.9" d="m-25.342843976704565,21.732051860772458 l5.043562539782986,0.7988218301053216 l2.3182712438663025,-4.549863497822507 l-5.043562539782986,-0.7988218301053216z"/>
<path fill="#B31B1B" fill-opacity="0.37" d="m-18.47470923501576,14.863917119083643 l-4.549863497822503,2.3182712438663113 l5.043562539782986,0.798821830105318 l4.549863497822503,-2.3182712438663113z"/>
<path fill="#B31B1B" fill-opacity="0.37" d="m14.86391711908364,-18.47470923501576 l2.318271243866308,-4.5498634978225105 l0.7988218301053216,5.0435625397829895 l-2.318271243866308,4.5498634978225105z"/>
<path fill="#B31B1B" fill-opacity="0.9" d="m21.73205186077245,-25.34284397670457 l0.7988218301053216,5.043562539782986 l-4.549863497822503,2.318271243866306 l-0.7988218301053216,-5.043562539782986z"/>
<path fill="#B31B1B" fill-opacity="0.9" d="m21.73205186077245,-25.34284397670457 l2.318271243866306,-4.549863497822507 l5.043562539782979,0.7988218301053287 l-2.318271243866306,4.549863497822507z"/>
<path fill="#B31B1B" fill-opacity="0.9" d="m-13.431146695232771,15.662738949188972 l-0.7988218301053234,-5.0435625397829895 l-5.043562539782986,-0.7988218301053234 l0.7988218301053234,5.0435625397829895z"/>
<path fill="#B31B1B" fill-opacity="0.9" d="m15.662738949188968,-13.431146695232774 l-5.043562539782991,-0.7988218301053216 l-0.7988218301053251,-5.043562539782988 l5.043562539782991,0.7988218301053216z"/>
<path fill="#B31B1B" fill-opacity="0.9" d="m-5.842384369888313,-5.842384369888311 l5.043562539782986,0.7988218301053234 l0.7988218301053265,5.043562539782988 l-5.043562539782986,-0.7988218301053234z"/>
<path fill="#B31B1B" fill-opacity="0.9" d="m-34.936270014310054,23.25150127453343 l5.043562539782982,0.7988218301053323 l0.7988218301053287,5.043562539782979 l-5.043562539782982,-0.7988218301053323z"/>
<path fill="#B31B1B" fill-opacity="0.9" d="m23.251501274533425,-34.93627001431006 l0.7988218301053323,5.043562539782982 l5.043562539782979,0.7988218301053287 l-0.7988218301053323,-5.043562539782982z"/>
<path fill="#B31B1B" fill-opacity="0.9" d="m-11.911697281471792,6.069312911583486 l-5.043562539782986,-0.7988218301053225 l-2.3182712438663025,4.549863497822501 l5.043562539782986,0.7988218301053225z"/>
<path fill="#B31B1B" fill-opacity="0.9" d="m6.069312911583482,-11.911697281471794 l-0.7988218301053234,-5.043562539782988 l4.549863497822501,-2.3182712438663025 l0.7988218301053234,5.043562539782988z"/>
<path fill="#B31B1B" fill-opacity="0.9" d="m-11.911697281471792,6.069312911583486 l-0.7988218301053287,-5.043562539782986 l4.549863497822503,-2.3182712438663065 l0.7988218301053287,5.043562539782986z"/>
<path fill="#B31B1B" fill-opacity="0.9" d="m6.069312911583482,-11.911697281471794 l-5.043562539782986,-0.7988218301053269 l-2.318271243866305,4.549863497822503 l5.043562539782986,0.7988218301053269z"/>
<path fill="#B31B1B" fill-opacity="0.37" d="m-5.043562539782988,-0.7988218301053234 l-2.3182712438663025,4.549863497822503 l-0.7988218301053269,-5.043562539782986 l2.3182712438663025,-4.549863497822503z"/>
<path fill="#B31B1B" fill-opacity="0.37" d="m-0.7988218301053251,-5.043562539782988 l4.549863497822503,-2.3182712438663042 l-5.043562539782988,-0.7988218301053251 l-4.549863497822503,2.3182712438663042z"/>
<path fill="#B31B1B" fill-opacity="0.9" d="m-23.024572732838262,17.182188362949955 l-0.7988218301053216,-5.043562539782993 l4.549863497822503,-2.3182712438663025 l0.7988218301053216,5.043562539782993z"/>
<path fill="#B31B1B" fill-opacity="0.9" d="m-11.911697281471794,6.069312911583482 l-2.3182712438663007,4.549863497822501 l-5.043562539782986,-0.7988218301053234 l2.3182712438663007,-4.549863497822501z"/>
<path fill="#B31B1B" fill-opacity="0.37" d="m-5.043562539782988,-0.7988218301053251 l-0.7988218301053251,-5.043562539782986 l-2.3182712438663042,4.549863497822502 l0.7988218301053251,5.043562539782986z"/>
<path fill="#B31B1B" fill-opacity="0.37" d="m-0.7988218301053265,-5.043562539782988 l-5.043562539782986,-0.7988218301053234 l4.549863497822502,-2.318271243866306 l5.043562539782986,0.7988218301053234z"/>
<path fill="#B31B1B" fill-opacity="0.9" d="m6.069312911583479,-11.911697281471795 l4.549863497822498,-2.3182712438663007 l-0.7988218301053251,-5.043562539782988 l-4.549863497822498,2.3182712438663007z"/>
<path fill="#B31B1B" fill-opacity="0.9" d="m17.182188362949947,-23.02457273283827 l-5.043562539782991,-0.7988218301053145 l-2.3182712438663042,4.5498634978225 l5.043562539782991,0.7988218301053145z"/>
<path fill="#B31B1B" fill-opacity="0.37" d="m-29.89270747452707,24.050323104638764 l4.549863497822507,-2.318271243866306 l-5.043562539782986,-0.7988218301053251 l-4.549863497822507,2.318271243866306z"/>
<path fill="#B31B1B" fill-opacity="0.37" d="m24.050323104638757,-29.89270747452708 l-2.318271243866306,4.549863497822507 l-0.7988218301053287,-5.0435625397829895 l2.318271243866306,-4.549863497822507z"/>
<path fill="#B31B1B" fill-opacity="0.37" d="m-34.13744818420473,28.29506381431642 l-0.7988218301053251,-5.0435625397829895 l-2.318271243866306,4.549863497822503 l0.7988218301053251,5.0435625397829895z"/>
<path fill="#B31B1B" fill-opacity="0.37" d="m28.295063814316414,-34.137448184204736 l-5.0435625397829895,-0.7988218301053251 l4.5498634978225,-2.318271243866299 l5.0435625397829895,0.7988218301053251z"/>
<path fill="#B31B1B" fill-opacity="0.9" d="m-25.342843976704565,21.732051860772458 l-3.6107921159321172,-3.6107921159321137 l2.3182712438663096,-4.5498634978225105 l3.6107921159321172,3.6107921159321137z"/>
<path fill="#B31B1B" fill-opacity="0.9" d="m21.73205186077245,-25.34284397670457 l-3.6107921159321172,-3.6107921159321137 l-4.549863497822505,2.3182712438663096 l3.6107921159321172,3.6107921159321137z"/>
<path fill="#B31B1B" fill-opacity="0.37" d="m-28.953636092636682,18.121259744840344 l-5.043562539782986,-0.7988218301053251 l3.6107921159321172,3.6107921159321137 l5.043562539782986,0.7988218301053251z"/>
<path fill="#B31B1B" fill-opacity="0.37" d="m18.121259744840334,-28.953636092636685 l-0.7988218301053287,-5.0435625397829895 l3.6107921159321172,3.6107921159321137 l0.7988218301053287,5.0435625397829895z"/>
<path fill="#B31B1B" fill-opacity="0.37" d="m-23.82339456294358,12.138625823166972 l-3.610792115932121,-3.610792115932112 l0.7988218301053287,5.043562539782988 l3.610792115932121,3.610792115932112z"/>
<path fill="#B31B1B" fill-opacity="0.37" d="m12.138625823166965,-23.823394562943587 l-3.6107921159321137,-3.6107921159321172 l5.043562539782986,0.7988218301053287 l3.6107921159321137,3.6107921159321172z"/>
<path fill="#B31B1B" fill-opacity="0.37" d="m-16.955259821254778,5.270491081478164 l5.043562539782986,0.7988218301053225 l-3.6107921159321172,-3.610792115932113 l-5.043562539782986,-0.7988218301053225z"/>
<path fill="#B31B1B" fill-opacity="0.37" d="m5.270491081478158,-16.95525982125478 l0.7988218301053234,5.043562539782988 l-3.6107921159321137,-3.6107921159321155 l-0.7988218301053234,-5.043562539782988z"/>
<path fill="#B31B1B" fill-opacity="0.37" d="m-12.71051911157712,1.0257503718005 l-3.6107921159321172,-3.6107921159321155 l0.7988218301053287,5.043562539782989 l3.6107921159321172,3.6107921159321155z"/>
<path fill="#B31B1B" fill-opacity="0.37" d="m1.0257503718004957,-12.71051911157712 l-3.6107921159321146,-3.6107921159321172 l5.043562539782987,0.7988218301053287 l3.6107921159321146,3.6107921159321172z"/>
<path fill="#B31B1B" fill-opacity="0.37" d="m-23.823394562943584,12.138625823166961 l0.7988218301053216,5.043562539782993 l-3.61079211593211,-3.610792115932121 l-0.7988218301053216,-5.043562539782993z"/>
<path fill="#B31B1B" fill-opacity="0.37" d="m12.138625823166956,-23.823394562943584 l5.043562539782991,0.7988218301053145 l-3.610792115932119,-3.6107921159321066 l-5.043562539782991,-0.7988218301053145z"/>
<path fill="#B31B1B" fill-opacity="0.9" d="m-27.4341866788757,8.52783370723486 l3.610792115932121,3.610792115932112 l4.5498634978225,-2.318271243866308 l-3.610792115932121,-3.610792115932112z"/>
<path fill="#B31B1B" fill-opacity="0.9" d="m8.527833707234851,-27.434186678875705 l3.6107921159321137,3.6107921159321172 l-2.318271243866306,4.549863497822503 l-3.6107921159321137,-3.6107921159321172z"/>
<path fill="#B31B1B" fill-opacity="0.9" d="m-20.5660519371869,1.6596989655460472 l3.610792115932121,3.6107921159321164 l-2.3182712438663025,4.549863497822501 l-3.610792115932121,-3.6107921159321164z"/>
<path fill="#B31B1B" fill-opacity="0.9" d="m1.6596989655460401,-20.5660519371869 l3.610792115932118,3.6107921159321172 l4.549863497822501,-2.3182712438663025 l-3.610792115932118,-3.6107921159321172z"/>
<path fill="#B31B1B" fill-opacity="0.9" d="m-16.321311227509238,-2.5850417441316154 l3.6107921159321172,3.6107921159321155 l4.549863497822503,-2.3182712438663065 l-3.6107921159321172,-3.6107921159321155z"/>
<path fill="#B31B1B" fill-opacity="0.9" d="m-9.453176485820428,-9.453176485820425 l-2.3182712438663042,4.549863497822501 l3.6107921159321155,3.6107921159321146 l2.3182712438663042,-4.549863497822501z"/>
<path fill="#B31B1B" fill-opacity="0.9" d="m-9.453176485820428,-9.453176485820425 l4.549863497822502,-2.318271243866306 l3.6107921159321155,3.6107921159321137 l-4.549863497822502,2.318271243866306z"/>
<path fill="#B31B1B" fill-opacity="0.9" d="m-2.585041744131619,-16.321311227509238 l3.6107921159321146,3.6107921159321172 l-2.318271243866305,4.549863497822503 l-3.6107921159321146,-3.6107921159321172z"/>
<path fill="#B31B1B" fill-opacity="0.9" d="m-45.41519687193097,26.508843900290124 l4.5498634978225,-2.3182712438663025 l3.6107921159321137,3.6107921159321137 l-4.5498634978225,2.3182712438663025z"/>
<path fill="#B31B1B" fill-opacity="0.9" d="m-38.54706213024217,19.640709158601318 l-2.318271243866306,4.549863497822503 l3.6107921159321137,3.6107921159321137 l2.318271243866306,-4.549863497822503z"/>
<path fill="#B31B1B" fill-opacity="0.9" d="m-38.54706213024217,19.640709158601318 l4.5498634978225,-2.318271243866299 l3.6107921159321172,3.6107921159321137 l-4.5498634978225,2.318271243866299z"/>
<path fill="#B31B1B" fill-opacity="0.9" d="m-16.321311227509234,-2.585041744131619 l4.549863497822502,-2.318271243866305 l3.6107921159321155,3.6107921159321146 l-4.549863497822502,2.318271243866305z"/>
<path fill="#B31B1B" fill-opacity="0.9" d="m-2.5850417441316242,-16.321311227509234 l-2.3182712438663025,4.549863497822503 l3.6107921159321155,3.6107921159321137 l2.3182712438663025,-4.549863497822503z"/>
<path fill="#B31B1B" fill-opacity="0.9" d="m19.64070915860131,-38.547062130242175 l-2.318271243866306,4.5498634978225 l3.6107921159321172,3.6107921159321137 l2.318271243866306,-4.5498634978225z"/>
<path fill="#B31B1B" fill-opacity="0.9" d="m19.64070915860131,-38.547062130242175 l4.5498634978225,-2.318271243866299 l3.6107921159321137,3.6107921159321137 l-4.5498634978225,2.318271243866299z"/>
<path fill="#B31B1B" fill-opacity="0.9" d="m26.508843900290117,-45.41519687193098 l-2.318271243866306,4.549863497822507 l3.6107921159321137,3.6107921159321137 l2.318271243866306,-4.549863497822507z"/>
<path fill="#B31B1B" fill-opacity="0.9" d="m-33.99719863241966,17.322437914735026 l2.318271243866299,-4.549863497822502 l5.0435625397829895,0.7988218301053234 l-2.318271243866299,4.549863497822502z"/>
<path fill="#B31B1B" fill-opacity="0.9" d="m17.322437914735012,-33.99719863241967 l-4.549863497822498,2.318271243866306 l0.7988218301053234,5.043562539782986 l4.549863497822498,-2.318271243866306z"/>
<path fill="#B31B1B" fill-opacity="0.9" d="m-33.99719863241967,17.32243791473502 l5.043562539782986,0.7988218301053251 l2.3182712438663096,-4.5498634978225105 l-5.043562539782986,-0.7988218301053251z"/>
<path fill="#B31B1B" fill-opacity="0.9" d="m17.322437914735005,-33.997198632419675 l0.7988218301053287,5.0435625397829895 l-4.549863497822505,2.3182712438663096 l-0.7988218301053287,-5.0435625397829895z"/>
<path fill="#B31B1B" fill-opacity="0.9" d="m-32.47774921865869,7.729011877129533 l0.7988218301053251,5.043562539782991 l5.0435625397829895,0.7988218301053234 l-0.7988218301053251,-5.043562539782991z"/>
<path fill="#B31B1B" fill-opacity="0.9" d="m7.729011877129526,-32.47774921865869 l5.043562539782988,0.7988218301053251 l0.7988218301053234,5.043562539782986 l-5.043562539782988,-0.7988218301053251z"/>
<path fill="#B31B1B" fill-opacity="0.37" d="m-22.884323181053198,6.209562463368552 l-4.549863497822503,2.318271243866308 l2.318271243866306,-4.549863497822503 l4.549863497822503,-2.318271243866308z"/>
<path fill="#B31B1B" fill-opacity="0.37" d="m6.209562463368545,-22.8843231810532 l2.318271243866306,-4.549863497822503 l-4.549863497822503,2.318271243866306 l-2.318271243866306,4.549863497822503z"/>
<path fill="#B31B1B" fill-opacity="0.9" d="m-21.364873767292224,-3.383863574236937 l5.043562539782986,0.7988218301053216 l0.7988218301053287,5.043562539782989 l-5.043562539782986,-0.7988218301053216z"/>
<path fill="#B31B1B" fill-opacity="0.9" d="m-3.383863574236944,-21.364873767292224 l0.7988218301053251,5.043562539782986 l5.043562539782987,0.7988218301053287 l-0.7988218301053251,-5.043562539782986z"/>
<path fill="#B31B1B" fill-opacity="0.37" d="m-40.865333374108474,24.19057265642382 l-4.5498634978225,2.3182712438663025 l2.318271243866306,-4.5498634978225 l4.5498634978225,-2.3182712438663025z"/>
<path fill="#B31B1B" fill-opacity="0.37" d="m-11.771447729686733,-4.903312987997924 l-4.549863497822502,2.318271243866305 l2.3182712438663025,-4.5498634978225025 l4.549863497822502,-2.318271243866305z"/>
<path fill="#B31B1B" fill-opacity="0.37" d="m-4.903312987997927,-11.77144772968673 l2.3182712438663025,-4.549863497822503 l-4.549863497822502,2.318271243866306 l-2.3182712438663025,4.549863497822503z"/>
<path fill="#B31B1B" fill-opacity="0.37" d="m24.19057265642381,-40.865333374108474 l2.318271243866306,-4.549863497822507 l-4.549863497822503,2.318271243866306 l-2.318271243866306,4.549863497822507z"/>
<path fill="#B31B1B" fill-opacity="0.9" d="m-38.54706213024217,19.640709158601332 l4.549863497822507,-2.318271243866306 l-0.7988218301053323,-5.043562539782986 l-4.549863497822507,2.318271243866306z"/>
<path fill="#B31B1B" fill-opacity="0.37" d="m-31.67892738855336,12.772574416912525 l-2.318271243866299,4.549863497822502 l-0.7988218301053323,-5.043562539782986 l2.318271243866299,-4.549863497822502z"/>
<path fill="#B31B1B" fill-opacity="0.37" d="m12.772574416912514,-31.67892738855336 l4.549863497822498,-2.318271243866306 l-5.043562539782982,-0.7988218301053251 l-4.549863497822498,2.318271243866306z"/>
<path fill="#B31B1B" fill-opacity="0.9" d="m19.640709158601318,-38.547062130242175 l-2.318271243866306,4.549863497822507 l-5.043562539782982,-0.7988218301053251 l2.318271243866306,-4.549863497822507z"/>
<path fill="#B31B1B" fill-opacity="0.9" d="m-50.458759411713956,25.710022070184813 l2.318271243866299,-4.5498634978225 l5.043562539782997,0.7988218301053251 l-2.318271243866299,4.5498634978225z"/>
<path fill="#B31B1B" fill-opacity="0.9" d="m25.710022070184806,-50.45875941171396 l-4.549863497822507,2.318271243866306 l0.7988218301053251,5.043562539782982 l4.549863497822507,-2.318271243866306z"/>
<path fill="#B31B1B" fill-opacity="0.37" d="m-43.59062467002515,18.84188732849601 l-4.549863497822507,2.3182712438663025 l5.043562539782997,0.7988218301053251 l4.549863497822507,-2.3182712438663025z"/>
<path fill="#B31B1B" fill-opacity="0.37" d="m18.841887328495996,-43.590624670025164 l2.3182712438663025,-4.549863497822493 l0.7988218301053251,5.043562539782982 l-2.3182712438663025,4.549863497822493z"/>
<path fill="#B31B1B" fill-opacity="0.9" d="m-32.47774921865869,7.729011877129533 l2.3182712438663025,-4.549863497822496 l5.0435625397829895,0.7988218301053198 l-2.3182712438663025,4.549863497822496z"/>
<path fill="#B31B1B" fill-opacity="0.9" d="m-21.364873767292224,-3.383863574236937 l-4.549863497822496,2.318271243866306 l0.7988218301053251,5.043562539782988 l4.549863497822496,-2.318271243866306z"/>
<path fill="#B31B1B" fill-opacity="0.9" d="m-3.383863574236944,-21.364873767292224 l2.318271243866306,-4.549863497822496 l5.043562539782986,0.7988218301053216 l-2.318271243866306,4.549863497822496z"/>
<path fill="#B31B1B" fill-opacity="0.9" d="m7.729011877129526,-32.47774921865869 l-4.5498634978225,2.318271243866299 l0.7988218301053216,5.0435625397829895 l4.5498634978225,-2.318271243866299z"/>
<path fill="#B31B1B" fill-opacity="0.9" d="m-50.45875941171396,25.710022070184806 l5.0435625397829895,0.798821830105318 l2.318271243866306,-4.5498634978225 l-5.0435625397829895,-0.798821830105318z"/>
<path fill="#B31B1B" fill-opacity="0.9" d="m-21.364873767292224,-3.383863574236944 l5.0435625397829895,0.7988218301053251 l2.3182712438663025,-4.5498634978225025 l-5.0435625397829895,-0.7988218301053251z"/>
<path fill="#B31B1B" fill-opacity="0.37" d="m-14.496739025603414,-10.25199831592575 l5.043562539782986,0.7988218301053251 l-4.549863497822503,2.3182712438663033 l-5.043562539782986,-0.7988218301053251z"/>
<path fill="#B31B1B" fill-opacity="0.37" d="m-10.251998315925754,-14.49673902560341 l0.7988218301053251,5.043562539782986 l2.3182712438663025,-4.549863497822503 l-0.7988218301053251,-5.043562539782986z"/>
<path fill="#B31B1B" fill-opacity="0.9" d="m-3.383863574236951,-21.364873767292224 l0.7988218301053269,5.0435625397829895 l-4.549863497822502,2.318271243866306 l-0.7988218301053269,-5.0435625397829895z"/>
<path fill="#B31B1B" fill-opacity="0.9" d="m25.710022070184785,-50.45875941171397 l0.7988218301053323,5.0435625397829895 l-4.549863497822503,2.318271243866306 l-0.7988218301053323,-5.0435625397829895z"/>
<path fill="#B31B1B" fill-opacity="0.9" d="m-38.54706213024217,19.640709158601332 l-5.043562539782982,-0.7988218301053216 l-0.7988218301053251,-5.043562539782988 l5.043562539782982,0.7988218301053216z"/>
<path fill="#B31B1B" fill-opacity="0.37" d="m-37.02761271648119,10.047283120995843 l4.5498634978225,-2.3182712438663096 l-2.318271243866306,4.549863497822507 l-4.5498634978225,2.3182712438663096z"/>
<path fill="#B31B1B" fill-opacity="0.37" d="m10.047283120995832,-37.027612716481194 l-2.318271243866306,4.549863497822507 l4.549863497822503,-2.318271243866306 l2.318271243866306,-4.549863497822507z"/>
<path fill="#B31B1B" fill-opacity="0.9" d="m19.640709158601318,-38.547062130242175 l-0.7988218301053216,-5.0435625397829895 l-5.0435625397829895,-0.798821830105318 l0.7988218301053216,5.0435625397829895z"/>
<path fill="#B31B1B" fill-opacity="0.9" d="m-9.453176485820428,-9.453176485820425 l-0.7988218301053251,-5.043562539782986 l-5.043562539782984,-0.7988218301053234 l0.7988218301053251,5.043562539782986z"/>
<path fill="#B31B1B" fill-opacity="0.9" d="m-30.958299804897713,-1.8644141604759543 l0.7988218301053287,5.043562539782991 l5.0435625397829895,0.7988218301053198 l-0.7988218301053287,-5.043562539782991z"/>
<path fill="#B31B1B" fill-opacity="0.9" d="m-1.864414160475965,-30.958299804897713 l5.043562539782991,0.7988218301053251 l0.7988218301053216,5.0435625397829895 l-5.043562539782991,-0.7988218301053251z"/>
<path fill="#B31B1B" fill-opacity="0.9" d="m-48.14048816784766,21.160158572362313 l4.549863497822507,-2.3182712438663025 l-0.7988218301053251,-5.043562539782988 l-4.549863497822507,2.3182712438663025z"/>
<path fill="#B31B1B" fill-opacity="0.9" d="m21.1601585723623,-48.14048816784766 l-2.3182712438663025,4.549863497822493 l-5.0435625397829895,-0.798821830105318 l2.3182712438663025,-4.549863497822493z"/>
<path fill="#B31B1B" fill-opacity="0.37" d="m-30.159477974792384,3.179148379307037 l-0.7988218301053287,-5.043562539782991 l-2.318271243866306,4.549863497822503 l0.7988218301053287,5.043562539782991z"/>
<path fill="#B31B1B" fill-opacity="0.37" d="m-25.91473726511472,-1.065592330370631 l-5.043562539782993,-0.7988218301053234 l4.549863497822507,-2.318271243866306 l5.043562539782993,0.7988218301053234z"/>
<path fill="#B31B1B" fill-opacity="0.37" d="m-1.065592330370638,-25.91473726511472 l-0.7988218301053269,-5.043562539782993 l-2.3182712438663025,4.549863497822507 l0.7988218301053269,5.043562539782993z"/>
<path fill="#B31B1B" fill-opacity="0.37" d="m3.1791483793070263,-30.159477974792388 l-5.043562539782991,-0.7988218301053251 l4.549863497822507,-2.318271243866306 l5.043562539782991,0.7988218301053251z"/>
<path fill="#B31B1B" fill-opacity="0.9" d="m-19.046602523425918,-7.933727072059445 l4.549863497822503,-2.318271243866305 l-0.7988218301053234,-5.043562539782984 l-4.549863497822503,2.318271243866305z"/>
<path fill="#B31B1B" fill-opacity="0.9" d="m-7.93372707205945,-19.046602523425918 l-2.3182712438663033,4.549863497822507 l-5.043562539782984,-0.7988218301053234 l2.3182712438663033,-4.549863497822507z"/>
<path fill="#B31B1B" fill-opacity="0.9" d="m-39.34588396034749,14.597146618818346 l2.318271243866306,-4.549863497822503 l-3.610792115932121,-3.6107921159321137 l-2.318271243866306,4.549863497822503z"/>
<path fill="#B31B1B" fill-opacity="0.9" d="m14.597146618818336,-39.34588396034749 l-4.549863497822503,2.318271243866299 l-3.6107921159321172,-3.6107921159321137 l4.549863497822503,-2.318271243866299z"/>
<path fill="#B31B1B" fill-opacity="0.9" d="m-32.47774921865869,7.729011877129533 l-4.5498634978225,2.3182712438663096 l-3.610792115932121,-3.6107921159321137 l4.5498634978225,-2.3182712438663096z"/>
<path fill="#B31B1B" fill-opacity="0.9" d="m7.729011877129526,-32.47774921865869 l2.318271243866306,-4.549863497822507 l-3.6107921159321172,-3.6107921159321137 l-2.318271243866306,4.549863497822507z"/>
<path fill="#B31B1B" fill-opacity="0.9" d="m-21.364873767292224,-3.383863574236944 l-3.6107921159321137,-3.6107921159321155 l2.3182712438663096,-4.549863497822498 l3.6107921159321137,3.6107921159321155z"/>
<path fill="#B31B1B" fill-opacity="0.9" d="m-3.383863574236951,-21.364873767292224 l-3.6107921159321137,-3.6107921159321137 l-4.5498634978225,2.3182712438663096 l3.6107921159321137,3.6107921159321137z"/>
<path fill="#B31B1B" fill-opacity="0.37" d="m-42.95667607627961,10.986354502886233 l3.6107921159321137,3.6107921159321137 l-5.043562539782982,-0.7988218301053234 l-3.6107921159321137,-3.6107921159321137z"/>
<path fill="#B31B1B" fill-opacity="0.37" d="m10.98635450288622,-42.95667607627961 l3.6107921159321155,3.6107921159321137 l-0.7988218301053287,-5.0435625397829895 l-3.6107921159321155,-3.6107921159321137z"/>
<path fill="#B31B1B" fill-opacity="0.37" d="m-36.08854133459081,4.118219761197423 l3.610792115932121,3.61079211593211 l-0.7988218301053323,-5.043562539782984 l-3.610792115932121,-3.61079211593211z"/>
<path fill="#B31B1B" fill-opacity="0.37" d="m4.118219761197411,-36.08854133459081 l3.6107921159321155,3.610792115932121 l-5.043562539782984,-0.7988218301053323 l-3.6107921159321155,-3.610792115932121z"/>
<path fill="#B31B1B" fill-opacity="0.37" d="m-24.975665883224337,-6.9946556901690595 l-5.043562539782986,-0.7988218301053198 l3.6107921159321137,3.61079211593211 l5.043562539782986,0.7988218301053198z"/>
<path fill="#B31B1B" fill-opacity="0.37" d="m-6.994655690169065,-24.975665883224337 l-0.7988218301053251,-5.043562539782982 l3.6107921159321137,3.61079211593211 l0.7988218301053251,5.043562539782982z"/>
<path fill="#B31B1B" fill-opacity="0.37" d="m-19.845424353531243,-12.97728961184243 l-3.6107921159321172,-3.6107921159321172 l0.7988218301053323,5.0435625397829895 l3.6107921159321172,3.6107921159321172z"/>
<path fill="#B31B1B" fill-opacity="0.37" d="m-12.977289611842437,-19.845424353531236 l-3.6107921159321172,-3.6107921159321172 l5.0435625397829895,0.7988218301053251 l3.6107921159321172,3.6107921159321172z"/>
<path fill="#B31B1B" fill-opacity="0.9" d="m-34.56909192082983,-5.475206276408068 l-2.318271243866306,4.549863497822505 l3.6107921159321137,3.610792115932112 l2.318271243866306,-4.549863497822505z"/>
<path fill="#B31B1B" fill-opacity="0.9" d="m-34.56909192082983,-5.475206276408068 l3.6107921159321137,3.6107921159321137 l4.549863497822507,-2.318271243866306 l-3.6107921159321137,-3.6107921159321137z"/>
<path fill="#B31B1B" fill-opacity="0.9" d="m-5.475206276408075,-34.56909192082983 l3.61079211593211,3.6107921159321137 l-2.3182712438663025,4.549863497822507 l-3.61079211593211,-3.6107921159321137z"/>
<path fill="#B31B1B" fill-opacity="0.9" d="m-5.475206276408075,-34.56909192082983 l4.549863497822502,-2.318271243866299 l3.6107921159321155,3.6107921159321066 l-4.549863497822502,2.318271243866299z"/>
<path fill="#B31B1B" fill-opacity="0.9" d="m-23.45621646946336,-16.588081727774547 l4.549863497822503,-2.3182712438663025 l3.610792115932119,3.6107921159321155 l-4.549863497822503,2.3182712438663025z"/>
<path fill="#B31B1B" fill-opacity="0.9" d="m-16.588081727774554,-23.456216469463353 l-2.3182712438663025,4.549863497822503 l3.610792115932119,3.6107921159321155 l2.3182712438663025,-4.549863497822503z"/>
<path fill="#B31B1B" fill-opacity="0.9" d="m-34.56909192082983,-5.475206276408077 l4.549863497822503,-2.3182712438663025 l3.6107921159321137,3.61079211593211 l-4.549863497822503,2.3182712438663025z"/>
<path fill="#B31B1B" fill-opacity="0.9" d="m-5.4752062764080875,-34.56909192082982 l-2.3182712438663025,4.5498634978225 l3.6107921159321137,3.61079211593211 l2.3182712438663025,-4.5498634978225z"/>
<path fill="#B31B1B" fill-opacity="0.9" d="m-36.88736316469613,-0.9253427785855628 l0.7988218301053251,5.043562539782986 l-4.5498634978225,2.318271243866306 l-0.7988218301053251,-5.043562539782986z"/>
<path fill="#B31B1B" fill-opacity="0.9" d="m-0.9253427785855735,-36.887363164696126 l5.043562539782984,0.798821830105318 l2.3182712438663042,-4.5498634978225 l-5.043562539782984,-0.798821830105318z"/>
<path fill="#B31B1B" fill-opacity="0.9" d="m-30.019228423007323,-7.793477520274379 l2.3182712438663025,-4.549863497822503 l5.043562539782993,0.7988218301053251 l-2.3182712438663025,4.549863497822503z"/>
<path fill="#B31B1B" fill-opacity="0.9" d="m-7.79347752027439,-30.01922842300732 l-4.549863497822503,2.3182712438663025 l0.7988218301053287,5.0435625397829895 l4.549863497822503,-2.3182712438663025z"/>
<path fill="#B31B1B" fill-opacity="0.9" d="m-28.49977900924635,-17.386903557879872 l0.7988218301053287,5.0435625397829895 l5.043562539782993,0.7988218301053251 l-0.7988218301053287,-5.0435625397829895z"/>
<path fill="#B31B1B" fill-opacity="0.37" d="m-18.906352971640857,-18.90635297164085 l2.3182712438663025,-4.549863497822503 l-4.5498634978225,2.318271243866306 l-2.3182712438663025,4.549863497822503z"/>
<path fill="#B31B1B" fill-opacity="0.9" d="m-17.38690355787988,-28.499779009246343 l5.043562539782986,0.7988218301053251 l0.7988218301053287,5.0435625397829895 l-5.043562539782986,-0.7988218301053251z"/>
<path fill="#B31B1B" fill-opacity="0.9" d="m-34.56909192082983,-5.475206276408077 l-0.7988218301053323,-5.043562539782986 l4.549863497822507,-2.3182712438663042 l0.7988218301053323,5.043562539782986z"/>
<path fill="#B31B1B" fill-opacity="0.37" d="m-27.70095717914102,-12.343341018096883 l-2.3182712438663025,4.549863497822503 l-0.7988218301053287,-5.043562539782988 l2.3182712438663025,-4.549863497822503z"/>
<path fill="#B31B1B" fill-opacity="0.37" d="m-12.343341018096893,-27.700957179141017 l4.549863497822503,-2.3182712438663025 l-5.043562539782988,-0.7988218301053251 l-4.549863497822503,2.3182712438663025z"/>
<path fill="#B31B1B" fill-opacity="0.9" d="m-5.4752062764080875,-34.56909192082982 l-5.043562539782986,-0.7988218301053323 l-2.3182712438663042,4.549863497822507 l5.043562539782986,0.7988218301053323z"/>
<path fill="#B31B1B" fill-opacity="0.9" d="m-28.49977900924635,-17.386903557879872 l2.3182712438663025,-4.549863497822503 l5.043562539782993,0.7988218301053287 l-2.3182712438663025,4.549863497822503z"/>
<path fill="#B31B1B" fill-opacity="0.9" d="m-17.38690355787988,-28.499779009246343 l-4.549863497822503,2.3182712438663025 l0.7988218301053287,5.043562539782993 l4.549863497822503,-2.3182712438663025z"/>
<path fill="#B31B1B" fill-opacity="0.37" d="m-33.049642507068846,-15.068632314013565 l4.549863497822496,-2.318271243866308 l-2.3182712438663025,4.549863497822505 l-4.549863497822496,2.318271243866308z"/>
<path fill="#B31B1B" fill-opacity="0.37" d="m-15.068632314013575,-33.049642507068846 l-2.3182712438663042,4.549863497822503 l4.549863497822502,-2.3182712438663025 l2.3182712438663042,-4.549863497822503z"/>
<path fill="#B31B1B" fill-opacity="0.9" d="m-26.98032959548537,-26.98032959548536 l5.043562539782986,0.7988218301053216 l0.7988218301053287,5.043562539782993 l-5.043562539782986,-0.7988218301053216z"/>
<path fill="#B31B1B" fill-opacity="0.37" d="m-26.181507765380047,-21.936767055702376 l-0.7988218301053216,-5.043562539782986 l-2.3182712438663096,4.5498634978225 l0.7988218301053216,5.043562539782986z"/>
<path fill="#B31B1B" fill-opacity="0.37" d="m-21.936767055702383,-26.18150776538004 l-5.043562539782986,-0.7988218301053216 l4.549863497822496,-2.318271243866306 l5.043562539782986,0.7988218301053216z"/>
<path fill="#B31B1B" fill-opacity="0.9" d="m-35.36791375093516,-10.518768816191063 l2.318271243866313,-4.549863497822502 l-3.610792115932121,-3.610792115932112 l-2.318271243866313,4.549863497822502z"/>
<path fill="#B31B1B" fill-opacity="0.9" d="m-28.49977900924635,-17.386903557879872 l-3.6107921159321172,-3.6107921159321172 l-4.5498634978225,2.318271243866313 l3.6107921159321172,3.6107921159321172z"/>
<path fill="#B31B1B" fill-opacity="0.9" d="m-17.38690355787988,-28.499779009246343 l-3.6107921159321172,-3.6107921159321172 l2.318271243866306,-4.5498634978225 l3.6107921159321172,3.6107921159321172z"/>
<path fill="#B31B1B" fill-opacity="0.9" d="m-10.518768816191074,-35.36791375093515 l-4.549863497822502,2.318271243866306 l-3.6107921159321155,-3.6107921159321137 l4.549863497822502,-2.318271243866306z"/>
<path fill="#B31B1B" fill-opacity="0.37" d="m-32.11057112517847,-20.99769567381199 l3.6107921159321172,3.6107921159321172 l-0.7988218301053287,-5.0435625397829895 l-3.6107921159321172,-3.6107921159321172z"/>
<path fill="#B31B1B" fill-opacity="0.37" d="m-20.997695673811997,-32.11057112517846 l3.6107921159321172,3.6107921159321172 l-5.043562539782993,-0.7988218301053251 l-3.6107921159321172,-3.6107921159321172z"/>
<path fill="#B31B1B" fill-opacity="0.9" d="m-30.591121711417486,-30.59112171141748 l3.6107921159321172,3.6107921159321172 l-2.3182712438663096,4.5498634978225 l-3.6107921159321172,-3.6107921159321172z"/>
<path fill="#B31B1B" fill-opacity="0.9" d="m-30.591121711417486,-30.59112171141748 l3.6107921159321172,3.6107921159321172 l4.549863497822496,-2.318271243866306 l-3.6107921159321172,-3.6107921159321172z"/>
<path fill="#B31B1B" fill-opacity="0.9" d="m-32.90939295528379,-26.041258213594976 l0.7988218301053251,5.043562539782986 l-4.5498634978225,2.318271243866313 l-0.7988218301053251,-5.043562539782986z"/>
<path fill="#B31B1B" fill-opacity="0.9" d="m-26.041258213594983,-32.909392955283785 l5.043562539782986,0.7988218301053251 l2.318271243866306,-4.5498634978225 l-5.043562539782986,-0.7988218301053251z"/>
<path fill="#B31B1B" fill-opacity="0.37" d="m-37.45925645310629,-23.722986969728673 l4.5498634978225,-2.3182712438663025 l-5.043562539782982,-0.798821830105318 l-4.5498634978225,2.3182712438663025z"/>
<path fill="#B31B1B" fill-opacity="0.9" d="m-30.591121711417486,-30.59112171141748 l-5.043562539782975,-0.7988218301053145 l-2.318271243866313,4.5498634978225 l5.043562539782975,0.7988218301053145z"/>
<path fill="#B31B1B" fill-opacity="0.9" d="m-30.591121711417486,-30.59112171141748 l-0.798821830105318,-5.043562539782975 l4.549863497822496,-2.318271243866313 l0.798821830105318,5.043562539782975z"/>
<path fill="#B31B1B" fill-opacity="0.37" d="m-23.72298696972868,-37.459256453106285 l-2.3182712438663025,4.5498634978225 l-0.7988218301053251,-5.043562539782982 l2.3182712438663025,-4.5498634978225z"/>
<path fill="#B31B1B" fill-opacity="0.37" d="m-35.63468425120046,-31.389943541522793 l-3.610792115932121,-3.6107921159321172 l5.043562539782982,0.7988218301053251 l3.610792115932121,3.6107921159321172z"/>
<path fill="#B31B1B" fill-opacity="0.37" d="m-31.389943541522804,-35.634684251200454 l-3.610792115932121,-3.6107921159321137 l0.7988218301053251,5.043562539782982 l3.610792115932121,3.6107921159321137z"/>
<path fill="#B31B1B" fill-opacity="0.9" d="m-39.24547636713258,-35.00073565745491 l3.610792115932121,3.6107921159321172 l-2.318271243866313,4.5498634978225 l-3.610792115932121,-3.6107921159321172z"/>
<path fill="#B31B1B" fill-opacity="0.9" d="m-35.000735657454925,-39.24547636713257 l3.610792115932121,3.6107921159321137 l4.549863497822496,-2.318271243866313 l-3.610792115932121,-3.6107921159321137z"/>
<path fill="#B31B1B" fill-opacity="0.9" d="m-40.044298197237914,-40.0442981972379 l5.0435625397829895,0.7988218301053323 l0.7988218301053251,5.043562539782982 l-5.0435625397829895,-0.7988218301053323z"/>
</g>
</svg>