<?xml version="1.0" encoding="utf-8"?>
<svg width="100%" height="100%" viewBox="-70.0 -70.0 140.0 140.0" preserveAspectRatio="xMidYMid meet" version="1.1" baseProfile="full" xmlns="http://www.w3.org/2000/svg">
<g style="stroke:#FFFFFF; stroke-width: 1.2978713763747793; stroke-linejoin: round;">
<path fill="#B31B1B" fill-opacity="0.37" d="m-12.714494240093813,39.13118960624632 l0.0,-21.631189606246323 l12.714494240093813,17.5 l-0.0,21.631189606246323z"/>
<path fill="#B31B1B" fill-opacity="0.37" d="m12.714494240093828,39.13118960624632 l-7.105427357601002e-15,-21.63118960624633 l-12.714494240093806,17.500000000000007 l7.105427357601002e-15,21.63118960624633z"/>
<path fill="#B31B1B" fill-opacity="0.9" d="m-12.714494240093808,17.5 l-20.572483830236564,6.684405196876845 l7.105427357601002e-15,21.631189606246323 l20.572483830236564,-6.684405196876845z"/>
<path fill="#B31B1B" fill-opacity="0.9" d="m12.714494240093815,17.499999999999993 l20.57248383023657,6.684405196876838 l-7.105427357601002e-15,21.631189606246323 l-20.57248383023657,-6.684405196876838z"/>
<path fill="#B31B1B" fill-opacity="0.9" d="m-12.714494240093813,17.5 l0.0,21.631189606246323 l-20.572483830236564,6.684405196876838 l-0.0,-21.631189606246323z"/>
<path fill="#B31B1B" fill-opacity="0.9" d="m12.71449424009382,17.499999999999993 l7.105427357601002e-15,21.63118960624633 l20.572483830236564,6.684405196876824 l-7.105427357601002e-15,-21.63118960624633z"/>
<path fill="#B31B1B" fill-opacity="0.37" d="m-33.28697807033037,24.184405196876845 l20.572483830236564,-6.684405196876845 l-20.57248383023657,-6.684405196876833 l-20.572483830236564,6.684405196876845z"/>
<path fill="#B31B1B" fill-opacity="0.9" d="m-0.0,0.0 l-12.714494240093813,17.5 l12.714494240093813,17.5 l12.714494240093813,-17.5z"/>
<path fill="#B31B1B" fill-opacity="0.9" d="m0.0,-0.0 l12.71449424009382,17.499999999999993 l-12.714494240093806,17.500000000000007 l-12.71449424009382,-17.499999999999993z"/>
<path fill="#B31B1B" fill-opacity="0.37" d="m33.286978070330385,24.18440519687683 l-20.57248383023657,-6.684405196876838 l20.572483830236564,-6.6844051968768365 l20.57248383023657,6.684405196876838z"/>
<path fill="#B31B1B" fill-opacity="0.9" d="m0.0,-0.0 l-12.714494240093808,17.5 l-20.57248383023657,-6.684405196876833 l12.714494240093808,-17.5z"/>
<path fill="#B31B1B" fill-opacity="0.9" d="m-0.0,0.0 l12.714494240093815,17.499999999999993 l20.572483830236564,-6.6844051968768365 l-12.714494240093815,-17.499999999999993z"/>
<path fill="#B31B1B" fill-opacity="0.9" d="m-0.0,0.0 l-20.572483830236557,-6.684405196876837 l-12.71449424009382,17.5 l20.572483830236557,6.684405196876837z"/>
<path fill="#B31B1B" fill-opacity="0.9" d="m0.0,-0.0 l20.572483830236557,-6.6844051968768445 l12.71449424009382,17.499999999999996 l-20.572483830236557,6.6844051968768445z"/>
<path fill="#B31B1B" fill-opacity="0.37" d="m-41.14496766047312,4.8936726828625885e-15 l20.572483830236564,-6.684405196876843 l-12.71449424009382,17.5 l-20.572483830236564,6.684405196876843z"/>
<path fill="#B31B1B" fill-opacity="0.37" d="m41.14496766047312,-1.022274320106334e-14 l-20.572483830236564,-6.684405196876834 l12.71449424009382,17.499999999999996 l20.572483830236564,6.684405196876834z"/>
<path fill="#B31B1B" fill-opacity="0.9" d="m-20.57248383023656,-6.684405196876831 l-12.714494240093831,-17.499999999999996 l-20.57248383023655,6.684405196876849 l12.714494240093831,17.499999999999996z"/>
<path fill="#B31B1B" fill-opacity="0.9" d="m20.57248383023656,-6.684405196876838 l12.714494240093817,-17.500000000000004 l20.572483830236564,6.684405196876842 l-12.714494240093817,17.500000000000004z"/>
<path fill="#B31B1B" fill-opacity="0.9" d="m-20.572483830236557,-6.684405196876837 l-20.572483830236564,6.684405196876843 l-12.714494240093813,-17.499999999999996 l20.572483830236564,-6.684405196876843z"/>
<path fill="#B31B1B" fill-opacity="0.9" d="m20.572483830236557,-6.6844051968768445 l20.572483830236564,6.684405196876834 l12.714494240093813,-17.500000000000004 l-20.572483830236564,-6.684405196876834z"/>
<path fill="#B31B1B" fill-opacity="0.9" d="m0.0,-0.0 l-20.57248383023656,-6.684405196876831 l-1.0658141036401503e-14,-21.63118960624632 l20.57248383023656,6.684405196876831z"/>
<path fill="#B31B1B" fill-opacity="0.9" d="m-0.0,0.0 l20.57248383023656,-6.684405196876838 l3.552713678800501e-15,-21.63118960624632 l-20.57248383023656,6.684405196876838z"/>
<path fill="#B31B1B" fill-opacity="0.9" d="m-0.0,0.0 l-3.973585066955857e-15,-21.631189606246316 l-20.57248383023656,-6.684405196876842 l3.973585066955857e-15,21.631189606246316z"/>
<path fill="#B31B1B" fill-opacity="0.9" d="m0.0,-0.0 l-3.973585066955857e-15,-21.631189606246316 l20.57248383023656,-6.684405196876849 l3.973585066955857e-15,21.631189606246316z"/>
<path fill="#B31B1B" fill-opacity="0.37" d="m-33.28697807033039,-24.184405196876828 l12.714494240093831,17.499999999999996 l-1.0658141036401503e-14,-21.63118960624632 l-12.714494240093831,-17.499999999999996z"/>
<path fill="#B31B1B" fill-opacity="0.37" d="m33.28697807033038,-24.184405196876842 l-12.714494240093817,17.500000000000004 l3.552713678800501e-15,-21.63118960624632 l12.714494240093817,-17.500000000000004z"/>
<path fill="#B31B1B" fill-opacity="0.37" d="m-12.714494240093824,-39.13118960624632 l12.71449424009382,17.500000000000007 l-20.57248383023656,-6.684405196876842 l-12.71449424009382,-17.500000000000007z"/>
<path fill="#B31B1B" fill-opacity="0.37" d="m12.71449424009381,-39.13118960624632 l-12.714494240093813,17.500000000000007 l20.57248383023656,-6.684405196876849 l12.714494240093813,-17.500000000000007z"/>
<path fill="#B31B1B" fill-opacity="0.9" d="m-3.973585066955857e-15,-21.631189606246316 l12.714494240093813,-17.500000000000007 l-12.71449424009382,-17.5 l-12.714494240093813,17.500000000000007z"/>
</g>
</svg>