<?xml version="1.0" encoding="utf-8"?>
<svg width="100%" height="100%" viewBox="-70.0 -70.0 140.0 140.0" preserveAspectRatio="xMidYMid meet" version="1.1" baseProfile="full" xmlns="http://www.w3.org/2000/svg">
<g style="stroke:#FFFFFF; stroke-width: 0.802128623625221; stroke-linejoin: round;">
<path fill="#B31B1B" fill-opacity="0.9" d="m-33.28697807033038,45.81559480312316 l7.8579895901427435,-10.815594803123162 l12.71449424009382,4.131189606246323 l-7.8579895901427435,10.815594803123162z"/>
<path fill="#B31B1B" fill-opacity="0.9" d="m33.28697807033039,45.81559480312315 l-7.8579895901427435,-10.815594803123162 l-12.71449424009382,4.131189606246338 l7.8579895901427435,10.815594803123162z"/>
<path fill="#B31B1B" fill-opacity="0.9" d="m-33.28697807033036,45.81559480312317 l7.8579895901427435,-10.815594803123162 l-7.857989590142751,-10.815594803123162 l-7.8579895901427435,10.815594803123162z"/>
<path fill="#B31B1B" fill-opacity="0.37" d="m-12.714494240093815,30.868810393753687 l-12.714494240093819,4.131189606246313 l12.71449424009382,4.131189606246323 l12.714494240093819,-4.131189606246313z"/>
<path fill="#B31B1B" fill-opacity="0.37" d="m12.714494240093826,30.86881039375368 l12.714494240093822,4.131189606246306 l-12.71449424009382,4.131189606246338 l-12.714494240093822,-4.131189606246306z"/>
<path fill="#B31B1B" fill-opacity="0.9" d="m33.28697807033038,45.815594803123155 l-7.8579895901427435,-10.815594803123162 l7.857989590142751,-10.815594803123162 l7.8579895901427435,10.815594803123162z"/>
<path fill="#B31B1B" fill-opacity="0.9" d="m-25.42898848018762,35.00000000000001 l-1.0658141036401503e-14,-13.368810393753687 l12.714494240093822,-4.13118960624632 l1.0658141036401503e-14,13.368810393753687z"/>
<path fill="#B31B1B" fill-opacity="0.9" d="m-6.760316620773979e-16,35.0 l-12.714494240093815,-4.131189606246313 l1.7763568394002505e-15,-13.368810393753687 l12.714494240093815,4.131189606246313z"/>
<path fill="#B31B1B" fill-opacity="0.9" d="m1.3534823053124607e-14,35.0 l12.714494240093812,-4.13118960624632 l-5.329070518200751e-15,-13.368810393753687 l-12.714494240093812,4.13118960624632z"/>
<path fill="#B31B1B" fill-opacity="0.9" d="m25.428988480187634,34.99999999999999 l3.552713678800501e-15,-13.36881039375368 l-12.714494240093822,-4.13118960624632 l-3.552713678800501e-15,13.36881039375368z"/>
<path fill="#B31B1B" fill-opacity="0.9" d="m-25.428988480187634,35.0 l12.714494240093819,-4.131189606246313 l1.7763568394002505e-15,-13.368810393753687 l-12.714494240093819,4.131189606246313z"/>
<path fill="#B31B1B" fill-opacity="0.9" d="m25.42898848018765,34.999999999999986 l-12.714494240093822,-4.131189606246306 l-5.329070518200751e-15,-13.368810393753687 l12.714494240093822,4.131189606246306z"/>
<path fill="#B31B1B" fill-opacity="0.37" d="m-25.42898848018763,21.63118960624632 l1.0658141036401503e-14,13.368810393753687 l-7.857989590142751,-10.815594803123162 l-1.0658141036401503e-14,-13.368810393753687z"/>
<path fill="#B31B1B" fill-opacity="0.37" d="m25.428988480187638,21.631189606246313 l-3.552713678800501e-15,13.36881039375368 l7.857989590142751,-10.815594803123162 l3.552713678800501e-15,-13.36881039375368z"/>
<path fill="#B31B1B" fill-opacity="0.9" d="m-33.28697807033038,10.815594803123167 l7.857989590142747,10.815594803123153 l12.714494240093822,-4.13118960624632 l-7.857989590142747,-10.815594803123153z"/>
<path fill="#B31B1B" fill-opacity="0.9" d="m33.28697807033038,10.815594803123156 l-7.85798959014274,10.815594803123156 l-12.714494240093822,-4.13118960624632 l7.85798959014274,-10.815594803123156z"/>
<path fill="#B31B1B" fill-opacity="0.37" d="m-7.8579895901427435,10.81559480312316 l7.8579895901427435,10.815594803123163 l-12.714494240093813,-4.131189606246323 l-7.8579895901427435,-10.815594803123163z"/>
<path fill="#B31B1B" fill-opacity="0.37" d="m-7.857989590142741,10.81559480312316 l-12.714494240093824,-4.1311896062463145 l7.857989590142756,10.815594803123155 l12.714494240093824,4.1311896062463145z"/>
<path fill="#B31B1B" fill-opacity="0.37" d="m7.857989590142744,10.815594803123156 l12.71449424009382,-4.131189606246318 l-7.857989590142749,10.815594803123155 l-12.71449424009382,4.131189606246318z"/>
<path fill="#B31B1B" fill-opacity="0.37" d="m7.857989590142747,10.815594803123156 l-7.857989590142739,10.815594803123167 l12.714494240093812,-4.1311896062463305 l7.857989590142739,-10.815594803123167z"/>
<path fill="#B31B1B" fill-opacity="0.9" d="m-4.1781054463491466e-16,21.631189606246323 l-7.8579895901427435,-10.815594803123163 l7.8579895901427435,-10.81559480312316 l7.8579895901427435,10.815594803123163z"/>
<path fill="#B31B1B" fill-opacity="0.9" d="m8.364980678546632e-15,21.631189606246323 l7.857989590142739,-10.815594803123167 l-7.857989590142747,-10.815594803123156 l-7.857989590142739,10.815594803123167z"/>
<path fill="#B31B1B" fill-opacity="0.9" d="m-20.572483830236564,6.684405196876845 l12.714494240093824,4.1311896062463145 l7.857989590142741,-10.81559480312316 l-12.714494240093824,-4.1311896062463145z"/>
<path fill="#B31B1B" fill-opacity="0.9" d="m20.572483830236564,6.684405196876838 l-12.71449424009382,4.131189606246318 l-7.857989590142744,-10.815594803123156 l12.71449424009382,-4.131189606246318z"/>
<path fill="#B31B1B" fill-opacity="0.9" d="m-20.572483830236564,6.684405196876842 l7.857989590142749,-10.81559480312316 l12.714494240093815,4.131189606246318 l-7.857989590142749,10.81559480312316z"/>
<path fill="#B31B1B" fill-opacity="0.9" d="m20.572483830236564,6.684405196876835 l-7.857989590142749,-10.815594803123158 l-12.714494240093815,4.131189606246323 l7.857989590142749,10.815594803123158z"/>
<path fill="#B31B1B" fill-opacity="0.9" d="m-33.28697807033038,10.815594803123162 l0.0,-13.368810393753677 l12.71449424009382,-4.131189606246322 l-0.0,13.368810393753677z"/>
<path fill="#B31B1B" fill-opacity="0.9" d="m33.28697807033038,10.815594803123151 l0.0,-13.36881039375368 l-12.71449424009382,-4.131189606246316 l-0.0,13.36881039375368z"/>
<path fill="#B31B1B" fill-opacity="0.37" d="m-33.28697807033038,-2.553215590630516 l-7.8579895901427435,-10.815594803123162 l0.0,13.368810393753682 l7.8579895901427435,10.815594803123162z"/>
<path fill="#B31B1B" fill-opacity="0.37" d="m33.28697807033038,-2.5532155906305283 l7.8579895901427435,-10.815594803123162 l0.0,13.36881039375368 l-7.8579895901427435,10.815594803123162z"/>
<path fill="#B31B1B" fill-opacity="0.37" d="m-12.714494240093817,-4.1311896062463145 l-8.881784197001252e-15,-13.368810393753682 l-7.857989590142735,10.815594803123165 l8.881784197001252e-15,13.368810393753682z"/>
<path fill="#B31B1B" fill-opacity="0.37" d="m12.714494240093817,-4.13118960624632 l1.7763568394002505e-15,-13.368810393753684 l7.857989590142742,10.815594803123165 l-1.7763568394002505e-15,13.368810393753684z"/>
<path fill="#B31B1B" fill-opacity="0.37" d="m-12.714494240093815,-4.131189606246318 l-7.857989590142749,10.81559480312316 l7.105427357601002e-15,-13.36881039375368 l7.857989590142749,-10.81559480312316z"/>
<path fill="#B31B1B" fill-opacity="0.37" d="m12.714494240093815,-4.131189606246323 l7.857989590142749,10.815594803123158 l-7.105427357601002e-15,-13.36881039375368 l-7.857989590142749,-10.815594803123158z"/>
<path fill="#B31B1B" fill-opacity="0.9" d="m-12.714494240093826,-17.499999999999996 l8.881784197001252e-15,13.368810393753682 l12.714494240093817,4.1311896062463145 l-8.881784197001252e-15,-13.368810393753682z"/>
<path fill="#B31B1B" fill-opacity="0.9" d="m12.714494240093819,-17.500000000000004 l-1.7763568394002505e-15,13.368810393753684 l-12.714494240093817,4.13118960624632 l1.7763568394002505e-15,-13.368810393753684z"/>
<path fill="#B31B1B" fill-opacity="0.9" d="m-12.71449424009382,-17.5 l12.714494240093819,4.13118960624632 l2.4558106285677464e-15,13.36881039375368 l-12.714494240093819,-4.13118960624632z"/>
<path fill="#B31B1B" fill-opacity="0.9" d="m12.714494240093813,-17.500000000000007 l-12.714494240093815,4.131189606246327 l2.4558106285677464e-15,13.36881039375368 l12.714494240093815,-4.131189606246327z"/>
<path fill="#B31B1B" fill-opacity="0.9" d="m-53.859461900566934,-17.499999999999993 l12.714494240093813,4.131189606246316 l0.0,13.368810393753682 l-12.714494240093813,-4.131189606246316z"/>
<path fill="#B31B1B" fill-opacity="0.9" d="m53.859461900566934,-17.500000000000014 l-12.714494240093813,4.131189606246323 l0.0,13.36881039375368 l12.714494240093813,-4.131189606246323z"/>
<path fill="#B31B1B" fill-opacity="0.9" d="m-41.14496766047313,-13.368810393753666 l12.714494240093813,-4.131189606246327 l7.857989590142754,10.815594803123162 l-12.714494240093813,4.131189606246327z"/>
<path fill="#B31B1B" fill-opacity="0.9" d="m41.14496766047313,-13.36881039375368 l-12.71449424009382,-4.13118960624632 l-7.857989590142747,10.815594803123162 l12.71449424009382,4.13118960624632z"/>
<path fill="#B31B1B" fill-opacity="0.9" d="m-41.14496766047312,-13.368810393753677 l7.8579895901427435,10.815594803123162 l12.71449424009382,-4.131189606246322 l-7.8579895901427435,-10.815594803123162z"/>
<path fill="#B31B1B" fill-opacity="0.9" d="m41.14496766047312,-13.36881039375369 l-7.8579895901427435,10.815594803123162 l-12.71449424009382,-4.131189606246316 l7.8579895901427435,-10.815594803123162z"/>
<path fill="#B31B1B" fill-opacity="0.9" d="m-20.57248383023657,-28.31559480312315 l-7.8579895901427435,10.815594803123158 l7.857989590142754,10.815594803123162 l7.8579895901427435,-10.815594803123158z"/>
<path fill="#B31B1B" fill-opacity="0.9" d="m20.572483830236564,-28.315594803123158 l7.8579895901427435,10.815594803123158 l-7.857989590142747,10.815594803123162 l-7.8579895901427435,-10.815594803123158z"/>
<path fill="#B31B1B" fill-opacity="0.37" d="m-2.4558106285677464e-15,-13.36881039375368 l12.714494240093815,-4.131189606246327 l-12.714494240093817,-4.131189606246309 l-12.714494240093815,4.131189606246327z"/>
<path fill="#B31B1B" fill-opacity="0.9" d="m-53.85946190056694,-17.49999999999998 l12.714494240093813,4.131189606246313 l7.857989590142736,-10.815594803123162 l-12.714494240093813,-4.131189606246313z"/>
<path fill="#B31B1B" fill-opacity="0.9" d="m53.85946190056694,-17.5 l-12.714494240093813,4.13118960624632 l-7.857989590142751,-10.815594803123162 l12.714494240093813,-4.13118960624632z"/>
<path fill="#B31B1B" fill-opacity="0.37" d="m-28.430473420379315,-17.499999999999993 l-12.714494240093813,4.131189606246327 l7.857989590142736,-10.815594803123162 l12.714494240093813,-4.131189606246327z"/>
<path fill="#B31B1B" fill-opacity="0.37" d="m28.430473420379307,-17.5 l12.71449424009382,4.13118960624632 l-7.857989590142751,-10.815594803123162 l-12.71449424009382,-4.13118960624632z"/>
<path fill="#B31B1B" fill-opacity="0.9" d="m-20.572483830236564,-28.315594803123158 l12.714494240093813,-4.131189606246327 l7.857989590142748,10.815594803123169 l-12.714494240093813,4.131189606246327z"/>
<path fill="#B31B1B" fill-opacity="0.9" d="m20.572483830236557,-28.315594803123165 l-12.714494240093817,-4.13118960624632 l-7.857989590142743,10.815594803123169 l12.714494240093817,4.13118960624632z"/>
<path fill="#B31B1B" fill-opacity="0.9" d="m-7.947170133911717e-15,-43.26237921249265 l7.857989590142747,10.815594803123162 l-7.857989590142743,10.815594803123169 l-7.857989590142747,-10.815594803123162z"/>
<path fill="#B31B1B" fill-opacity="0.37" d="m-7.8579895901427514,-32.446784409369485 l7.8579895901427435,-10.815594803123162 l-12.714494240093817,4.131189606246323 l-7.8579895901427435,10.815594803123162z"/>
<path fill="#B31B1B" fill-opacity="0.37" d="m7.857989590142739,-32.446784409369485 l-7.857989590142747,-10.815594803123162 l12.714494240093817,4.131189606246323 l7.857989590142747,10.815594803123162z"/>
<path fill="#B31B1B" fill-opacity="0.9" d="m-1.0402980762479462e-14,-56.63118960624632 l2.4558106285677456e-15,13.368810393753677 l-12.714494240093817,4.131189606246323 l-2.4558106285677456e-15,-13.368810393753677z"/>
<path fill="#B31B1B" fill-opacity="0.9" d="m-1.0402980762479462e-14,-56.63118960624632 l2.4558106285677456e-15,13.368810393753677 l12.714494240093817,4.131189606246323 l-2.4558106285677456e-15,-13.368810393753677z"/>
</g>
</svg>