<?xml version="1.0" encoding="utf-8"?>
<svg width="100%" height="100%" viewBox="-70.0 -70.0 140.0 140.0" preserveAspectRatio="xMidYMid meet" version="1.1" baseProfile="full" xmlns="http://www.w3.org/2000/svg">
<g style="stroke:#FFFFFF; stroke-width: 0.4957427527495585; stroke-linejoin: round;">
<path fill="#B31B1B" fill-opacity="0.9" d="m-20.572483830236557,41.684405196876845 l-7.857989590142751,-2.553215590630529 l-4.85650464995107,6.684405196876845 l7.857989590142751,2.553215590630529z"/>
<path fill="#B31B1B" fill-opacity="0.9" d="m20.57248383023657,41.68440519687683 l7.857989590142751,-2.553215590630529 l4.85650464995107,6.684405196876845 l-7.857989590142751,2.553215590630529z"/>
<path fill="#B31B1B" fill-opacity="0.9" d="m-33.28697807033037,32.446784409369485 l4.856504649951077,6.684405196876845 l-4.85650464995107,6.684405196876838 l-4.856504649951077,-6.684405196876845z"/>
<path fill="#B31B1B" fill-opacity="0.9" d="m33.286978070330385,32.44678440936947 l-4.856504649951077,6.684405196876845 l4.85650464995107,6.684405196876838 l4.856504649951077,-6.684405196876845z"/>
<path fill="#B31B1B" fill-opacity="0.37" d="m-28.430473420379293,39.13118960624633 l-4.856504649951077,-6.684405196876845 l7.857989590142751,2.553215590630522 l4.856504649951077,6.684405196876845z"/>
<path fill="#B31B1B" fill-opacity="0.9" d="m-12.714494240093813,39.13118960624632 l-4.856504649951074,-6.684405196876845 l-7.857989590142747,2.553215590630522 l4.856504649951074,6.684405196876845z"/>
<path fill="#B31B1B" fill-opacity="0.9" d="m-12.714494240093813,39.13118960624632 l4.856504649951069,-6.684405196876845 l7.8579895901427435,2.553215590630522 l-4.856504649951069,6.684405196876845z"/>
<path fill="#B31B1B" fill-opacity="0.9" d="m12.714494240093828,39.13118960624632 l-4.856504649951071,-6.684405196876845 l-7.8579895901427435,2.553215590630522 l4.856504649951071,6.684405196876845z"/>
<path fill="#B31B1B" fill-opacity="0.9" d="m12.714494240093828,39.13118960624632 l4.856504649951074,-6.684405196876845 l7.857989590142747,2.553215590630508 l-4.856504649951074,6.684405196876845z"/>
<path fill="#B31B1B" fill-opacity="0.37" d="m28.430473420379307,39.131189606246316 l4.856504649951077,-6.684405196876845 l-7.857989590142751,2.553215590630522 l-4.856504649951077,6.684405196876845z"/>
<path fill="#B31B1B" fill-opacity="0.37" d="m-28.430473420379307,39.131189606246316 l7.857989590142751,2.553215590630529 l-4.856504649951077,-6.684405196876845 l-7.857989590142751,-2.553215590630529z"/>
<path fill="#B31B1B" fill-opacity="0.37" d="m28.43047342037932,39.1311896062463 l-7.857989590142751,2.553215590630529 l4.856504649951077,-6.684405196876845 l7.857989590142751,-2.553215590630529z"/>
<path fill="#B31B1B" fill-opacity="0.37" d="m-17.570998890044887,32.44678440936948 l0.0,-8.262379212492643 l4.856504649951072,6.6844051968768525 l-0.0,8.262379212492643z"/>
<path fill="#B31B1B" fill-opacity="0.37" d="m-7.857989590142744,32.44678440936948 l-4.856504649951069,6.684405196876845 l-1.7763568394002505e-15,-8.262379212492636 l4.856504649951069,-6.684405196876845z"/>
<path fill="#B31B1B" fill-opacity="0.37" d="m7.857989590142757,32.44678440936948 l4.856504649951071,6.684405196876845 l-1.7763568394002505e-15,-8.262379212492643 l-4.856504649951071,-6.684405196876845z"/>
<path fill="#B31B1B" fill-opacity="0.37" d="m17.5709988900449,32.44678440936948 l-7.105427357601002e-15,-8.26237921249265 l-4.856504649951068,6.6844051968768525 l7.105427357601002e-15,8.26237921249265z"/>
<path fill="#B31B1B" fill-opacity="0.9" d="m-33.28697807033037,24.184405196876845 l7.8579895901427435,2.5532155906305185 l7.105427357601002e-15,8.262379212492643 l-7.8579895901427435,-2.5532155906305185z"/>
<path fill="#B31B1B" fill-opacity="0.9" d="m-17.57099889004488,24.184405196876842 l-7.857989590142747,2.553215590630522 l7.105427357601002e-15,8.262379212492643 l7.857989590142747,-2.553215590630522z"/>
<path fill="#B31B1B" fill-opacity="0.9" d="m-7.8579895901427435,24.18440519687684 l-8.881784197001252e-16,8.26237921249264 l7.8579895901427435,2.553215590630522 l8.881784197001252e-16,-8.26237921249264z"/>
<path fill="#B31B1B" fill-opacity="0.9" d="m7.857989590142752,24.18440519687684 l4.440892098500626e-15,8.26237921249264 l-7.8579895901427435,2.553215590630522 l-4.440892098500626e-15,-8.26237921249264z"/>
<path fill="#B31B1B" fill-opacity="0.9" d="m17.570998890044887,24.184405196876835 l7.857989590142747,2.553215590630522 l0.0,8.262379212492636 l-7.857989590142747,-2.553215590630522z"/>
<path fill="#B31B1B" fill-opacity="0.9" d="m33.286978070330385,24.18440519687683 l-7.857989590142751,2.5532155906305256 l0.0,8.262379212492636 l7.857989590142751,-2.5532155906305256z"/>
<path fill="#B31B1B" fill-opacity="0.9" d="m-17.570998890044887,24.184405196876835 l0.0,8.262379212492643 l-7.857989590142747,2.553215590630522 l-0.0,-8.262379212492643z"/>
<path fill="#B31B1B" fill-opacity="0.9" d="m17.570998890044894,24.184405196876828 l7.105427357601002e-15,8.26237921249265 l7.857989590142747,2.553215590630508 l-7.105427357601002e-15,-8.26237921249265z"/>
<path fill="#B31B1B" fill-opacity="0.37" d="m-5.164422348849657e-16,26.73762078750736 l-7.857989590142743,-2.553215590630522 l7.8579895901427435,-2.553215590630515 l7.857989590142743,2.553215590630522z"/>
<path fill="#B31B1B" fill-opacity="0.37" d="m1.0339684749155952e-14,26.73762078750736 l7.857989590142742,-2.553215590630522 l-7.857989590142744,-2.553215590630515 l-7.857989590142742,2.553215590630522z"/>
<path fill="#B31B1B" fill-opacity="0.37" d="m-25.428988480187627,26.737620787507364 l7.857989590142747,-2.553215590630522 l-7.857989590142751,-2.553215590630522 l-7.857989590142747,2.553215590630522z"/>
<path fill="#B31B1B" fill-opacity="0.9" d="m-12.714494240093813,17.5 l-4.856504649951074,6.684405196876835 l4.856504649951072,6.6844051968768525 l4.856504649951074,-6.684405196876835z"/>
<path fill="#B31B1B" fill-opacity="0.9" d="m12.71449424009382,17.499999999999993 l4.856504649951074,6.684405196876835 l-4.856504649951068,6.6844051968768525 l-4.856504649951074,-6.684405196876835z"/>
<path fill="#B31B1B" fill-opacity="0.37" d="m25.428988480187634,26.737620787507357 l-7.857989590142747,-2.553215590630522 l7.857989590142751,-2.553215590630522 l7.857989590142747,2.553215590630522z"/>
<path fill="#B31B1B" fill-opacity="0.9" d="m-12.714494240093813,17.5 l7.857989590142742,-2.5532155906305185 l4.856504649951072,6.684405196876842 l-7.857989590142742,2.5532155906305185z"/>
<path fill="#B31B1B" fill-opacity="0.9" d="m12.71449424009382,17.499999999999993 l-7.8579895901427435,-2.553215590630515 l-4.856504649951069,6.684405196876845 l7.8579895901427435,2.553215590630515z"/>
<path fill="#B31B1B" fill-opacity="0.37" d="m-28.430473420379304,17.500000000000004 l-4.8565046499510665,6.684405196876842 l7.85798959014274,-2.5532155906305256 l4.8565046499510665,-6.684405196876842z"/>
<path fill="#B31B1B" fill-opacity="0.37" d="m28.43047342037931,17.499999999999996 l4.856504649951074,6.684405196876835 l-7.857989590142747,-2.5532155906305185 l-4.856504649951074,-6.684405196876835z"/>
<path fill="#B31B1B" fill-opacity="0.9" d="m-12.714494240093808,17.5 l-4.856504649951072,6.684405196876842 l-7.857989590142751,-2.553215590630522 l4.856504649951072,-6.684405196876842z"/>
<path fill="#B31B1B" fill-opacity="0.9" d="m12.714494240093815,17.499999999999993 l4.856504649951072,6.684405196876842 l7.857989590142751,-2.553215590630522 l-4.856504649951072,-6.684405196876842z"/>
<path fill="#B31B1B" fill-opacity="0.9" d="m-33.28697807033037,24.184405196876845 l4.8565046499510665,-6.684405196876842 l-4.856504649951074,-6.6844051968768365 l-4.8565046499510665,6.684405196876842z"/>
<path fill="#B31B1B" fill-opacity="0.9" d="m33.286978070330385,24.18440519687683 l-4.856504649951074,-6.684405196876835 l4.8565046499510665,-6.68440519687684 l4.856504649951074,6.684405196876835z"/>
<path fill="#B31B1B" fill-opacity="0.9" d="m-1.595894271924326e-16,8.26237921249264 l-4.856504649951072,6.684405196876842 l4.856504649951072,6.684405196876842 l4.856504649951072,-6.684405196876842z"/>
<path fill="#B31B1B" fill-opacity="0.9" d="m3.1951383039686543e-15,8.26237921249264 l4.856504649951074,6.684405196876838 l-4.856504649951069,6.684405196876845 l-4.856504649951074,-6.684405196876838z"/>
<path fill="#B31B1B" fill-opacity="0.9" d="m-20.572483830236553,14.946784409369481 l-7.857989590142751,2.553215590630522 l-4.856504649951074,-6.6844051968768365 l7.857989590142751,-2.553215590630522z"/>
<path fill="#B31B1B" fill-opacity="0.37" d="m-4.856504649951072,14.946784409369481 l4.856504649951072,-6.684405196876842 l-7.8579895901427435,2.5532155906305203 l-4.856504649951072,6.684405196876842z"/>
<path fill="#B31B1B" fill-opacity="0.37" d="m4.856504649951077,14.946784409369478 l-4.856504649951074,-6.684405196876838 l7.8579895901427435,2.5532155906305167 l4.856504649951074,6.684405196876838z"/>
<path fill="#B31B1B" fill-opacity="0.9" d="m20.57248383023656,14.946784409369474 l7.857989590142751,2.553215590630522 l4.8565046499510665,-6.68440519687684 l-7.857989590142751,-2.553215590630522z"/>
<path fill="#B31B1B" fill-opacity="0.9" d="m-12.714494240093808,17.5 l-5.329070518200751e-15,-8.262379212492638 l-7.857989590142751,-2.5532155906305167 l5.329070518200751e-15,8.262379212492638z"/>
<path fill="#B31B1B" fill-opacity="0.9" d="m12.714494240093815,17.499999999999993 l1.7763568394002505e-15,-8.262379212492634 l7.857989590142747,-2.5532155906305203 l-1.7763568394002505e-15,8.262379212492634z"/>
<path fill="#B31B1B" fill-opacity="0.37" d="m-12.714494240093813,9.237620787507362 l4.85650464995107,-6.68440519687684 l2.6645352591003757e-15,8.262379212492638 l-4.85650464995107,6.68440519687684z"/>
<path fill="#B31B1B" fill-opacity="0.37" d="m12.714494240093817,9.237620787507359 l-4.856504649951072,-6.684405196876839 l-8.881784197001252e-16,8.262379212492636 l4.856504649951072,6.684405196876839z"/>
<path fill="#B31B1B" fill-opacity="0.37" d="m-25.428988480187634,8.262379212492645 l4.856504649951081,6.6844051968768365 l-1.0658141036401503e-14,-8.262379212492636 l-4.856504649951081,-6.6844051968768365z"/>
<path fill="#B31B1B" fill-opacity="0.37" d="m25.428988480187634,8.262379212492634 l-4.856504649951074,6.68440519687684 l3.552713678800501e-15,-8.262379212492636 l4.856504649951074,-6.68440519687684z"/>
<path fill="#B31B1B" fill-opacity="0.37" d="m-25.428988480187634,8.262379212492641 l3.552713678800501e-15,-8.26237921249264 l4.8565046499510665,6.68440519687684 l-3.552713678800501e-15,8.26237921249264z"/>
<path fill="#B31B1B" fill-opacity="0.37" d="m25.428988480187634,8.26237921249263 l-3.552713678800501e-15,-8.262379212492638 l-4.8565046499510665,6.684405196876842 l3.552713678800501e-15,8.262379212492638z"/>
<path fill="#B31B1B" fill-opacity="0.9" d="m-0.0,0.0 l-1.595894271924326e-16,8.26237921249264 l-7.8579895901427435,2.5532155906305203 l1.595894271924326e-16,-8.26237921249264z"/>
<path fill="#B31B1B" fill-opacity="0.9" d="m0.0,-0.0 l-7.8579895901427435,2.553215590630522 l2.6645352591003757e-15,8.262379212492638 l7.8579895901427435,-2.553215590630522z"/>
<path fill="#B31B1B" fill-opacity="0.9" d="m-0.0,0.0 l7.857989590142745,2.5532155906305194 l-8.881784197001252e-16,8.262379212492636 l-7.857989590142745,-2.5532155906305194z"/>
<path fill="#B31B1B" fill-opacity="0.9" d="m0.0,-0.0 l3.1951383039686543e-15,8.26237921249264 l7.8579895901427435,2.5532155906305167 l-3.1951383039686543e-15,-8.26237921249264z"/>
<path fill="#B31B1B" fill-opacity="0.9" d="m-41.14496766047312,4.8936726828625885e-15 l7.8579895901427435,2.553215590630519 l0.0,8.262379212492638 l-7.8579895901427435,-2.553215590630519z"/>
<path fill="#B31B1B" fill-opacity="0.9" d="m-25.42898848018763,2.006694143072129e-15 l-7.857989590142747,2.5532155906305216 l0.0,8.262379212492638 l7.857989590142747,-2.5532155906305216z"/>
<path fill="#B31B1B" fill-opacity="0.9" d="m25.42898848018763,-7.33576466127288e-15 l7.857989590142747,2.553215590630519 l0.0,8.26237921249264 l-7.857989590142747,-2.553215590630519z"/>
<path fill="#B31B1B" fill-opacity="0.9" d="m41.14496766047312,-1.022274320106334e-14 l-7.8579895901427435,2.5532155906305216 l0.0,8.26237921249264 l7.8579895901427435,-2.5532155906305216z"/>
<path fill="#B31B1B" fill-opacity="0.9" d="m-7.8579895901427435,2.553215590630522 l-4.85650464995107,6.68440519687684 l-7.857989590142751,-2.5532155906305167 l4.85650464995107,-6.68440519687684z"/>
<path fill="#B31B1B" fill-opacity="0.9" d="m7.857989590142745,2.5532155906305194 l4.856504649951072,6.684405196876839 l7.857989590142747,-2.5532155906305203 l-4.856504649951072,-6.684405196876839z"/>
<path fill="#B31B1B" fill-opacity="0.9" d="m-7.8579895901427435,2.5532155906305207 l-7.857989590142745,-2.5532155906305194 l-4.856504649951075,6.684405196876841 l7.857989590142745,2.5532155906305194z"/>
<path fill="#B31B1B" fill-opacity="0.9" d="m7.857989590142745,2.553215590630518 l7.8579895901427435,-2.553215590630523 l4.856504649951075,6.684405196876839 l-7.8579895901427435,2.553215590630523z"/>
<path fill="#B31B1B" fill-opacity="0.9" d="m-20.572483830236557,-6.684405196876837 l4.856504649951068,6.684405196876838 l-4.856504649951075,6.684405196876841 l-4.856504649951068,-6.684405196876838z"/>
<path fill="#B31B1B" fill-opacity="0.9" d="m20.572483830236557,-6.6844051968768445 l-4.856504649951068,6.68440519687684 l4.856504649951075,6.684405196876839 l4.856504649951068,-6.68440519687684z"/>
<path fill="#B31B1B" fill-opacity="0.37" d="m-33.28697807033038,2.553215590630524 l-7.8579895901427435,-2.553215590630519 l7.8579895901427435,-2.5532155906305207 l7.8579895901427435,2.553215590630519z"/>
<path fill="#B31B1B" fill-opacity="0.37" d="m33.28697807033038,2.5532155906305114 l7.8579895901427435,-2.5532155906305216 l-7.8579895901427435,-2.553215590630518 l-7.8579895901427435,2.5532155906305216z"/>
<path fill="#B31B1B" fill-opacity="0.9" d="m0.0,-0.0 l-4.8565046499510744,-6.684405196876838 l-7.857989590142743,2.553215590630524 l4.8565046499510744,6.684405196876838z"/>
<path fill="#B31B1B" fill-opacity="0.9" d="m-0.0,0.0 l4.856504649951073,-6.68440519687684 l7.857989590142744,2.5532155906305203 l-4.856504649951073,6.68440519687684z"/>
<path fill="#B31B1B" fill-opacity="0.9" d="m-0.0,0.0 l-7.8579895901427435,2.5532155906305207 l-4.856504649951072,-6.684405196876838 l7.8579895901427435,-2.5532155906305207z"/>
<path fill="#B31B1B" fill-opacity="0.9" d="m0.0,-0.0 l7.857989590142745,2.553215590630518 l4.85650464995107,-6.684405196876842 l-7.857989590142745,-2.553215590630518z"/>
<path fill="#B31B1B" fill-opacity="0.37" d="m-15.715979180285489,1.1106217003902096e-15 l7.857989590142745,2.5532155906305194 l-4.856504649951072,-6.684405196876838 l-7.857989590142745,-2.5532155906305194z"/>
<path fill="#B31B1B" fill-opacity="0.37" d="m15.715979180285489,-4.6633353791907106e-15 l-7.8579895901427435,2.553215590630523 l4.85650464995107,-6.684405196876842 l7.8579895901427435,-2.553215590630523z"/>
<path fill="#B31B1B" fill-opacity="0.37" d="m-36.28846301052205,-6.684405196876835 l7.857989590142751,-2.553215590630522 l-4.856504649951077,6.684405196876841 l-7.857989590142751,2.553215590630522z"/>
<path fill="#B31B1B" fill-opacity="0.9" d="m-20.572483830236557,-6.684405196876837 l-7.8579895901427435,-2.5532155906305194 l-4.856504649951077,6.684405196876841 l7.8579895901427435,2.5532155906305194z"/>
<path fill="#B31B1B" fill-opacity="0.9" d="m20.572483830236557,-6.6844051968768445 l7.8579895901427435,-2.553215590630523 l4.856504649951077,6.684405196876839 l-7.8579895901427435,2.553215590630523z"/>
<path fill="#B31B1B" fill-opacity="0.37" d="m36.28846301052205,-6.684405196876849 l-7.857989590142751,-2.5532155906305185 l4.856504649951077,6.684405196876839 l7.857989590142751,2.5532155906305185z"/>
<path fill="#B31B1B" fill-opacity="0.37" d="m-12.71449424009382,-9.237620787507357 l7.857989590142746,2.5532155906305185 l-7.857989590142743,2.553215590630524 l-7.857989590142746,-2.5532155906305185z"/>
<path fill="#B31B1B" fill-opacity="0.37" d="m12.714494240093817,-9.23762078750736 l-7.857989590142744,2.5532155906305203 l7.857989590142744,2.5532155906305203 l7.857989590142744,-2.5532155906305203z"/>
<path fill="#B31B1B" fill-opacity="0.9" d="m0.0,-0.0 l4.856504649951071,-6.684405196876842 l-4.856504649951074,-6.684405196876838 l-4.856504649951071,6.684405196876842z"/>
<path fill="#B31B1B" fill-opacity="0.9" d="m-41.14496766047312,4.8936726828625885e-15 l4.85650464995107,-6.68440519687684 l-4.85650464995107,-6.684405196876842 l-4.85650464995107,6.68440519687684z"/>
<path fill="#B31B1B" fill-opacity="0.9" d="m41.14496766047312,-1.022274320106334e-14 l-4.85650464995107,-6.684405196876838 l4.85650464995107,-6.684405196876842 l4.85650464995107,6.684405196876838z"/>
<path fill="#B31B1B" fill-opacity="0.9" d="m-28.430473420379307,-9.237620787507348 l-4.856504649951077,-6.684405196876842 l-7.8579895901427435,2.553215590630524 l4.856504649951077,6.684405196876842z"/>
<path fill="#B31B1B" fill-opacity="0.9" d="m28.430473420379307,-9.237620787507359 l4.856504649951077,-6.684405196876842 l7.8579895901427435,2.5532155906305203 l-4.856504649951077,6.684405196876842z"/>
<path fill="#B31B1B" fill-opacity="0.9" d="m-28.4304734203793,-9.237620787507357 l-7.857989590142751,2.553215590630522 l-4.85650464995107,-6.684405196876842 l7.857989590142751,-2.553215590630522z"/>
<path fill="#B31B1B" fill-opacity="0.9" d="m28.4304734203793,-9.237620787507367 l7.857989590142751,2.5532155906305185 l4.85650464995107,-6.684405196876842 l-7.857989590142751,-2.5532155906305185z"/>
<path fill="#B31B1B" fill-opacity="0.9" d="m-20.57248383023656,-6.684405196876831 l-7.857989590142747,-2.5532155906305167 l-7.105427357601002e-15,-8.262379212492645 l7.857989590142747,2.5532155906305167z"/>
<path fill="#B31B1B" fill-opacity="0.9" d="m20.57248383023656,-6.684405196876838 l7.857989590142747,-2.5532155906305203 l0.0,-8.262379212492641 l-7.857989590142747,2.5532155906305203z"/>
<path fill="#B31B1B" fill-opacity="0.9" d="m-20.57248383023656,-6.684405196876831 l7.85798959014274,-2.5532155906305256 l-5.329070518200751e-15,-8.26237921249264 l-7.85798959014274,2.5532155906305256z"/>
<path fill="#B31B1B" fill-opacity="0.9" d="m20.57248383023656,-6.684405196876838 l-7.8579895901427435,-2.553215590630522 l1.7763568394002505e-15,-8.262379212492643 l7.8579895901427435,2.553215590630522z"/>
<path fill="#B31B1B" fill-opacity="0.9" d="m-4.8565046499510744,-6.684405196876838 l-7.857989590142746,-2.5532155906305185 l-5.329070518200751e-15,-8.26237921249264 l7.857989590142746,2.5532155906305185z"/>
<path fill="#B31B1B" fill-opacity="0.9" d="m4.856504649951073,-6.68440519687684 l7.857989590142744,-2.5532155906305203 l1.7763568394002505e-15,-8.262379212492643 l-7.857989590142744,2.5532155906305203z"/>
<path fill="#B31B1B" fill-opacity="0.9" d="m-46.00147231042419,-6.684405196876834 l0.0,-8.26237921249264 l-7.8579895901427435,-2.5532155906305203 l-0.0,8.26237921249264z"/>
<path fill="#B31B1B" fill-opacity="0.9" d="m-4.856504649951073,-6.68440519687684 l-1.7763568394002505e-15,-8.26237921249264 l-7.857989590142746,-2.5532155906305203 l1.7763568394002505e-15,8.26237921249264z"/>
<path fill="#B31B1B" fill-opacity="0.9" d="m4.856504649951071,-6.684405196876842 l-1.7763568394002505e-15,-8.262379212492641 l7.857989590142744,-2.553215590630524 l1.7763568394002505e-15,8.262379212492641z"/>
<path fill="#B31B1B" fill-opacity="0.9" d="m46.00147231042419,-6.684405196876852 l0.0,-8.26237921249264 l7.8579895901427435,-2.553215590630524 l-0.0,8.26237921249264z"/>
<path fill="#B31B1B" fill-opacity="0.37" d="m-46.0014723104242,-14.946784409369462 l4.856504649951063,-6.684405196876844 l7.105427357601002e-15,8.26237921249264 l-4.856504649951063,6.684405196876844z"/>
<path fill="#B31B1B" fill-opacity="0.37" d="m46.0014723104242,-14.94678440936948 l-4.856504649951077,-6.68440519687684 l7.105427357601002e-15,8.26237921249264 l4.856504649951077,6.68440519687684z"/>
<path fill="#B31B1B" fill-opacity="0.37" d="m-4.8565046499510744,-14.94678440936948 l1.7763568394002505e-15,8.26237921249264 l4.85650464995107,-6.68440519687684 l-1.7763568394002505e-15,-8.26237921249264z"/>
<path fill="#B31B1B" fill-opacity="0.37" d="m4.856504649951069,-14.946784409369483 l1.7763568394002505e-15,8.262379212492641 l-4.856504649951074,-6.684405196876838 l-1.7763568394002505e-15,-8.262379212492641z"/>
<path fill="#B31B1B" fill-opacity="0.37" d="m-46.00147231042419,-14.946784409369473 l0.0,8.26237921249264 l4.85650464995107,-6.684405196876843 l-0.0,-8.26237921249264z"/>
<path fill="#B31B1B" fill-opacity="0.37" d="m46.00147231042419,-14.94678440936949 l0.0,8.26237921249264 l-4.85650464995107,-6.684405196876839 l-0.0,-8.26237921249264z"/>
<path fill="#B31B1B" fill-opacity="0.37" d="m-33.286978070330385,-15.92202598438419 l4.856504649951077,6.684405196876842 l-7.105427357601002e-15,-8.262379212492645 l-4.856504649951077,-6.684405196876842z"/>
<path fill="#B31B1B" fill-opacity="0.37" d="m33.286978070330385,-15.9220259843842 l-4.856504649951077,6.684405196876842 l0.0,-8.262379212492641 l4.856504649951077,-6.684405196876842z"/>
<path fill="#B31B1B" fill-opacity="0.9" d="m-33.28697807033039,-24.184405196876828 l7.105427357601002e-15,8.262379212492638 l-7.8579895901427435,2.553215590630524 l-7.105427357601002e-15,-8.262379212492638z"/>
<path fill="#B31B1B" fill-opacity="0.9" d="m33.28697807033038,-24.184405196876842 l7.105427357601002e-15,8.262379212492641 l7.8579895901427435,2.5532155906305203 l-7.105427357601002e-15,-8.262379212492641z"/>
<path fill="#B31B1B" fill-opacity="0.9" d="m-41.144967660473135,-21.631189606246306 l-4.856504649951063,6.684405196876844 l-7.8579895901427435,-2.5532155906305167 l4.856504649951063,-6.684405196876844z"/>
<path fill="#B31B1B" fill-opacity="0.9" d="m41.14496766047312,-21.63118960624632 l4.856504649951077,6.68440519687684 l7.8579895901427435,-2.5532155906305203 l-4.856504649951077,-6.68440519687684z"/>
<path fill="#B31B1B" fill-opacity="0.37" d="m-25.428988480187645,-21.631189606246313 l-7.857989590142747,-2.553215590630515 l4.856504649951077,6.684405196876835 l7.857989590142747,2.553215590630515z"/>
<path fill="#B31B1B" fill-opacity="0.37" d="m25.428988480187638,-21.63118960624632 l7.85798959014274,-2.553215590630522 l-4.85650464995107,6.684405196876842 l-7.85798959014274,2.553215590630522z"/>
<path fill="#B31B1B" fill-opacity="0.37" d="m-15.715979180285498,-21.631189606246313 l-4.85650464995107,6.684405196876842 l7.857989590142742,-2.5532155906305256 l4.85650464995107,-6.684405196876842z"/>
<path fill="#B31B1B" fill-opacity="0.37" d="m15.71597918028549,-21.63118960624632 l4.85650464995107,6.684405196876842 l-7.857989590142742,-2.5532155906305256 l-4.85650464995107,-6.684405196876842z"/>
<path fill="#B31B1B" fill-opacity="0.37" d="m-15.715979180285492,-21.63118960624632 l7.857989590142744,-2.5532155906305185 l-4.856504649951073,6.684405196876838 l-7.857989590142744,2.5532155906305185z"/>
<path fill="#B31B1B" fill-opacity="0.9" d="m-3.973585066955857e-15,-21.631189606246316 l-4.856504649951071,6.6844051968768365 l-7.857989590142746,-2.5532155906305203 l4.856504649951071,-6.6844051968768365z"/>
<path fill="#B31B1B" fill-opacity="0.9" d="m-3.973585066955857e-15,-21.631189606246316 l4.856504649951073,6.684405196876833 l7.857989590142744,-2.553215590630524 l-4.856504649951073,-6.684405196876833z"/>
<path fill="#B31B1B" fill-opacity="0.37" d="m15.715979180285485,-21.631189606246327 l-7.857989590142746,-2.5532155906305114 l4.8565046499510744,6.684405196876831 l7.857989590142746,2.5532155906305114z"/>
<path fill="#B31B1B" fill-opacity="0.9" d="m-20.572483830236568,-14.94678440936947 l-4.856504649951077,-6.684405196876842 l4.856504649951074,-6.684405196876838 l4.856504649951077,6.684405196876842z"/>
<path fill="#B31B1B" fill-opacity="0.9" d="m20.57248383023656,-14.946784409369478 l4.856504649951077,-6.684405196876842 l-4.856504649951074,-6.684405196876838 l-4.856504649951077,6.684405196876842z"/>
<path fill="#B31B1B" fill-opacity="0.9" d="m-33.28697807033039,-24.184405196876828 l7.857989590142747,2.553215590630515 l4.856504649951074,-6.684405196876838 l-7.857989590142747,-2.553215590630515z"/>
<path fill="#B31B1B" fill-opacity="0.9" d="m33.28697807033038,-24.184405196876842 l-7.85798959014274,2.553215590630522 l-4.856504649951074,-6.684405196876838 l7.85798959014274,-2.553215590630522z"/>
<path fill="#B31B1B" fill-opacity="0.9" d="m-7.857989590142748,-24.18440519687684 l-4.8565046499510744,-6.684405196876842 l-7.857989590142742,2.553215590630522 l4.8565046499510744,6.684405196876842z"/>
<path fill="#B31B1B" fill-opacity="0.9" d="m7.857989590142739,-24.18440519687684 l4.856504649951073,-6.684405196876849 l7.857989590142745,2.553215590630522 l-4.856504649951073,6.684405196876849z"/>
<path fill="#B31B1B" fill-opacity="0.9" d="m-3.973585066955857e-15,-21.631189606246316 l-1.5177744383881112e-15,-8.262379212492643 l-7.857989590142746,-2.5532155906305256 l1.5177744383881112e-15,8.262379212492643z"/>
<path fill="#B31B1B" fill-opacity="0.9" d="m-3.973585066955857e-15,-21.631189606246316 l-1.5177744383881112e-15,-8.262379212492643 l7.857989590142744,-2.5532155906305256 l1.5177744383881112e-15,8.262379212492643z"/>
<path fill="#B31B1B" fill-opacity="0.37" d="m-12.714494240093822,-30.86881039375368 l-1.7763568394002505e-15,-8.262379212492643 l4.856504649951073,6.684405196876838 l1.7763568394002505e-15,8.262379212492643z"/>
<path fill="#B31B1B" fill-opacity="0.37" d="m12.714494240093812,-30.868810393753687 l-1.7763568394002505e-15,-8.262379212492636 l-4.856504649951071,6.684405196876838 l1.7763568394002505e-15,8.262379212492636z"/>
<path fill="#B31B1B" fill-opacity="0.9" d="m-12.714494240093824,-39.13118960624632 l1.7763568394002505e-15,8.262379212492643 l-7.857989590142742,2.553215590630522 l-1.7763568394002505e-15,-8.262379212492643z"/>
<path fill="#B31B1B" fill-opacity="0.9" d="m12.71449424009381,-39.13118960624632 l1.7763568394002505e-15,8.262379212492636 l7.857989590142745,2.553215590630522 l-1.7763568394002505e-15,-8.262379212492636z"/>
<path fill="#B31B1B" fill-opacity="0.37" d="m-4.85650464995108,-36.57797401561581 l4.8565046499510744,6.684405196876849 l-7.857989590142746,-2.5532155906305256 l-4.8565046499510744,-6.684405196876849z"/>
<path fill="#B31B1B" fill-opacity="0.37" d="m4.856504649951066,-36.57797401561581 l-4.856504649951071,6.684405196876849 l7.857989590142744,-2.5532155906305256 l4.856504649951071,-6.684405196876849z"/>
<path fill="#B31B1B" fill-opacity="0.9" d="m-5.491359505343968e-15,-29.89356881873896 l4.856504649951071,-6.684405196876849 l-4.856504649951074,-6.684405196876838 l-4.856504649951071,6.684405196876849z"/>
<path fill="#B31B1B" fill-opacity="0.9" d="m-12.714494240093824,-39.13118960624632 l7.857989590142744,2.553215590630515 l4.856504649951072,-6.684405196876838 l-7.857989590142744,-2.553215590630515z"/>
<path fill="#B31B1B" fill-opacity="0.9" d="m12.71449424009381,-39.13118960624632 l-7.857989590142744,2.553215590630515 l-4.856504649951074,-6.684405196876838 l7.857989590142744,-2.553215590630515z"/>
<path fill="#B31B1B" fill-opacity="0.37" d="m-8.88520632409135e-15,-48.368810393753684 l7.857989590142746,2.553215590630522 l-7.857989590142745,2.553215590630515 l-7.857989590142746,-2.553215590630522z"/>
<path fill="#B31B1B" fill-opacity="0.9" d="m-7.857989590142753,-45.81559480312316 l7.857989590142744,-2.553215590630522 l-1.517774438388112e-15,-8.26237921249264 l-7.857989590142744,2.553215590630522z"/>
<path fill="#B31B1B" fill-opacity="0.9" d="m7.857989590142737,-45.81559480312316 l-7.857989590142746,-2.553215590630522 l-1.517774438388112e-15,-8.26237921249264 l7.857989590142746,2.553215590630522z"/>
</g>
</svg>