<?xml version="1.0" encoding="utf-8"?>
<svg width="100%" height="100%" viewBox="-70.0 -70.0 140.0 140.0" preserveAspectRatio="xMidYMid meet" version="1.1" baseProfile="full" xmlns="http://www.w3.org/2000/svg">
<g style="stroke:#FFFFFF; stroke-width: 0.30638587087566255; stroke-linejoin: round;">
<path fill="#B31B1B" fill-opacity="0.9" d="m-28.430473420379304,44.23762078750736 l3.0014849401916734,-4.131189606246323 l4.856504649951074,1.5779740156158084 l-3.0014849401916734,4.131189606246323z"/>
<path fill="#B31B1B" fill-opacity="0.9" d="m28.430473420379318,44.237620787507346 l-3.0014849401916734,-4.131189606246323 l-4.856504649951074,1.5779740156158084 l3.0014849401916734,4.131189606246323z"/>
<path fill="#B31B1B" fill-opacity="0.9" d="m-33.28697807033036,45.81559480312317 l0.0,-5.106431181261044 l4.85650464995107,-1.5779740156157942 l-0.0,5.106431181261044z"/>
<path fill="#B31B1B" fill-opacity="0.9" d="m33.28697807033038,45.815594803123155 l0.0,-5.106431181261044 l-4.85650464995107,-1.5779740156157942 l-0.0,5.106431181261044z"/>
<path fill="#B31B1B" fill-opacity="0.9" d="m-33.28697807033038,45.81559480312316 l4.856504649951074,-1.5779740156158013 l-3.552713678800501e-15,-5.106431181261044 l-4.856504649951074,1.5779740156158013z"/>
<path fill="#B31B1B" fill-opacity="0.9" d="m33.28697807033039,45.81559480312315 l-4.856504649951074,-1.5779740156158013 l3.552713678800501e-15,-5.106431181261044 l4.856504649951074,1.5779740156158013z"/>
<path fill="#B31B1B" fill-opacity="0.37" d="m-17.570998890044883,40.70916362186212 l-3.001484940191677,-4.131189606246316 l3.552713678800501e-15,5.106431181261044 l3.001484940191677,4.131189606246316z"/>
<path fill="#B31B1B" fill-opacity="0.37" d="m17.570998890044898,40.70916362186212 l3.001484940191677,-4.1311896062463305 l-3.552713678800501e-15,5.106431181261044 l-3.001484940191677,4.1311896062463305z"/>
<path fill="#B31B1B" fill-opacity="0.37" d="m-25.42898848018763,40.10643118126104 l-3.0014849401916734,4.131189606246323 l-3.552713678800501e-15,-5.106431181261044 l3.0014849401916734,-4.131189606246323z"/>
<path fill="#B31B1B" fill-opacity="0.37" d="m25.428988480187645,40.10643118126102 l3.0014849401916734,4.131189606246323 l3.552713678800501e-15,-5.106431181261044 l-3.0014849401916734,-4.131189606246323z"/>
<path fill="#B31B1B" fill-opacity="0.9" d="m-25.428988480187634,35.0 l3.552713678800501e-15,5.106431181261037 l4.856504649951074,1.5779740156158084 l-3.552713678800501e-15,-5.106431181261037z"/>
<path fill="#B31B1B" fill-opacity="0.9" d="m25.42898848018765,34.999999999999986 l-3.552713678800501e-15,5.106431181261037 l-4.856504649951074,1.5779740156158084 l3.552713678800501e-15,-5.106431181261037z"/>
<path fill="#B31B1B" fill-opacity="0.37" d="m-30.285493130138697,36.57797401561581 l-3.0014849401916663,4.131189606246316 l4.85650464995107,-1.5779740156157942 l3.0014849401916663,-4.131189606246316z"/>
<path fill="#B31B1B" fill-opacity="0.9" d="m-4.85650464995107,36.5779740156158 l-4.856504649951072,-1.5779740156158013 l-3.0014849401916717,4.131189606246323 l4.856504649951072,1.5779740156158013z"/>
<path fill="#B31B1B" fill-opacity="0.9" d="m4.856504649951084,36.5779740156158 l4.856504649951072,-1.5779740156158013 l3.0014849401916717,4.131189606246323 l-4.856504649951072,1.5779740156158013z"/>
<path fill="#B31B1B" fill-opacity="0.37" d="m30.28549313013871,36.577974015615794 l3.0014849401916663,4.131189606246316 l-4.85650464995107,-1.5779740156157942 l-3.0014849401916663,-4.131189606246316z"/>
<path fill="#B31B1B" fill-opacity="0.9" d="m-20.57248383023656,36.5779740156158 l4.856504649951074,-1.5779740156158013 l3.0014849401916734,4.131189606246323 l-4.856504649951074,1.5779740156158013z"/>
<path fill="#B31B1B" fill-opacity="0.9" d="m20.572483830236575,36.57797401561579 l-4.856504649951074,-1.577974015615787 l-3.0014849401916734,4.131189606246323 l4.856504649951074,1.577974015615787z"/>
<path fill="#B31B1B" fill-opacity="0.9" d="m-33.28697807033036,40.709163621862125 l3.0014849401916663,-4.131189606246316 l-3.0014849401916734,-4.131189606246323 l-3.0014849401916663,4.131189606246316z"/>
<path fill="#B31B1B" fill-opacity="0.9" d="m33.28697807033038,40.70916362186211 l-3.0014849401916663,-4.131189606246316 l3.0014849401916734,-4.131189606246323 l3.0014849401916663,4.131189606246316z"/>
<path fill="#B31B1B" fill-opacity="0.9" d="m-12.714494240093815,30.868810393753687 l-3.0014849401916717,4.131189606246313 l3.0014849401916734,4.131189606246323 l3.0014849401916717,-4.131189606246313z"/>
<path fill="#B31B1B" fill-opacity="0.9" d="m12.714494240093826,30.86881039375368 l3.001484940191675,4.13118960624632 l-3.0014849401916734,4.131189606246323 l-3.001484940191675,-4.13118960624632z"/>
<path fill="#B31B1B" fill-opacity="0.9" d="m-25.42898848018762,35.00000000000001 l-4.856504649951077,1.5779740156158013 l-3.0014849401916734,-4.131189606246323 l4.856504649951077,-1.5779740156158013z"/>
<path fill="#B31B1B" fill-opacity="0.37" d="m-15.715979180285487,35.0 l3.0014849401916717,-4.131189606246313 l-4.856504649951072,1.5779740156157906 l-3.0014849401916717,4.131189606246313z"/>
<path fill="#B31B1B" fill-opacity="0.37" d="m-9.713009299902142,35.0 l-3.0014849401916734,-4.131189606246313 l4.856504649951071,1.5779740156157906 l3.0014849401916734,4.131189606246313z"/>
<path fill="#B31B1B" fill-opacity="0.9" d="m-6.760316620773979e-16,35.0 l-4.856504649951069,1.5779740156158013 l-3.0014849401916743,-4.131189606246323 l4.856504649951069,-1.5779740156158013z"/>
<path fill="#B31B1B" fill-opacity="0.9" d="m1.3534823053124607e-14,35.0 l4.856504649951071,1.5779740156158013 l3.0014849401916726,-4.131189606246323 l-4.856504649951071,-1.5779740156158013z"/>
<path fill="#B31B1B" fill-opacity="0.37" d="m9.713009299902156,35.0 l3.00148494019167,-4.13118960624632 l-4.856504649951069,1.5779740156157978 l-3.00148494019167,4.13118960624632z"/>
<path fill="#B31B1B" fill-opacity="0.37" d="m15.715979180285501,35.0 l-3.001484940191675,-4.13118960624632 l4.856504649951075,1.5779740156157978 l3.001484940191675,4.13118960624632z"/>
<path fill="#B31B1B" fill-opacity="0.9" d="m25.428988480187634,34.99999999999999 l4.856504649951077,1.5779740156158013 l3.0014849401916734,-4.131189606246323 l-4.856504649951077,-1.5779740156158013z"/>
<path fill="#B31B1B" fill-opacity="0.9" d="m-25.428988480187634,35.0 l3.0014849401916734,-4.131189606246327 l4.856504649951074,1.5779740156158049 l-3.0014849401916734,4.131189606246327z"/>
<path fill="#B31B1B" fill-opacity="0.9" d="m25.42898848018765,34.999999999999986 l-3.0014849401916734,-4.13118960624632 l-4.856504649951074,1.577974015615812 l3.0014849401916734,4.13118960624632z"/>
<path fill="#B31B1B" fill-opacity="0.37" d="m-33.28697807033037,29.29083637813789 l4.856504649951077,1.5779740156157978 l-4.856504649951077,1.5779740156157978 l-4.856504649951077,-1.5779740156157978z"/>
<path fill="#B31B1B" fill-opacity="0.9" d="m-25.42898848018762,35.00000000000001 l3.0014849401916734,-4.13118960624632 l-3.0014849401916806,-4.131189606246323 l-3.0014849401916734,4.13118960624632z"/>
<path fill="#B31B1B" fill-opacity="0.37" d="m-7.857989590142744,29.290836378137882 l4.856504649951072,1.5779740156158013 l-4.856504649951072,1.5779740156157942 l-4.856504649951072,-1.5779740156158013z"/>
<path fill="#B31B1B" fill-opacity="0.9" d="m-6.760316620773979e-16,35.0 l-3.0014849401916712,-4.131189606246316 l3.0014849401916717,-4.131189606246323 l3.0014849401916712,4.131189606246316z"/>
<path fill="#B31B1B" fill-opacity="0.9" d="m1.3534823053124607e-14,35.0 l3.0014849401916703,-4.131189606246316 l-3.0014849401916734,-4.131189606246323 l-3.0014849401916703,4.131189606246316z"/>
<path fill="#B31B1B" fill-opacity="0.37" d="m7.857989590142755,29.290836378137882 l-4.856504649951072,1.5779740156158013 l4.856504649951074,1.5779740156157942 l4.856504649951072,-1.5779740156158013z"/>
<path fill="#B31B1B" fill-opacity="0.9" d="m25.428988480187634,34.99999999999999 l-3.0014849401916734,-4.131189606246313 l3.0014849401916734,-4.131189606246323 l3.0014849401916734,4.131189606246313z"/>
<path fill="#B31B1B" fill-opacity="0.37" d="m33.286978070330385,29.290836378137875 l-4.856504649951077,1.5779740156158049 l4.856504649951077,1.5779740156157906 l4.856504649951077,-1.5779740156158049z"/>
<path fill="#B31B1B" fill-opacity="0.37" d="m-17.570998890044887,29.29083637813788 l-4.856504649951074,1.5779740156157942 l4.856504649951074,1.5779740156158049 l4.856504649951074,-1.5779740156157942z"/>
<path fill="#B31B1B" fill-opacity="0.37" d="m17.5709988900449,29.29083637813787 l4.856504649951074,1.5779740156157942 l-4.856504649951074,1.577974015615812 l-4.856504649951074,-1.5779740156157942z"/>
<path fill="#B31B1B" fill-opacity="0.9" d="m-28.430473420379293,30.868810393753687 l-7.105427357601002e-15,-5.106431181261044 l-4.85650464995107,-1.5779740156157978 l7.105427357601002e-15,5.106431181261044z"/>
<path fill="#B31B1B" fill-opacity="0.9" d="m-22.427503539995946,30.868810393753687 l-7.105427357601002e-15,-5.106431181261044 l4.856504649951074,-1.5779740156158013 l7.105427357601002e-15,5.106431181261044z"/>
<path fill="#B31B1B" fill-opacity="0.9" d="m-12.714494240093815,30.868810393753687 l4.856504649951071,-1.5779740156158049 l8.881784197001252e-16,-5.106431181261044 l-4.856504649951071,1.5779740156158049z"/>
<path fill="#B31B1B" fill-opacity="0.9" d="m-3.001484940191672,30.868810393753684 l-4.856504649951072,-1.5779740156158013 l8.881784197001252e-16,-5.106431181261044 l4.856504649951072,1.5779740156158013z"/>
<path fill="#B31B1B" fill-opacity="0.9" d="m3.0014849401916837,30.868810393753684 l4.856504649951072,-1.5779740156158013 l-2.6645352591003757e-15,-5.106431181261044 l-4.856504649951072,1.5779740156158013z"/>
<path fill="#B31B1B" fill-opacity="0.9" d="m12.714494240093826,30.86881039375368 l-4.856504649951071,-1.5779740156157978 l-2.6645352591003757e-15,-5.106431181261044 l4.856504649951071,1.5779740156157978z"/>
<path fill="#B31B1B" fill-opacity="0.9" d="m22.42750353999596,30.86881039375368 l0.0,-5.106431181261044 l-4.856504649951074,-1.5779740156158013 l-0.0,5.106431181261044z"/>
<path fill="#B31B1B" fill-opacity="0.9" d="m28.430473420379307,30.86881039375368 l0.0,-5.106431181261044 l4.856504649951077,-1.5779740156158049 l-0.0,5.106431181261044z"/>
<path fill="#B31B1B" fill-opacity="0.9" d="m-12.714494240093815,30.868810393753687 l-4.856504649951072,-1.5779740156158084 l0.0,-5.106431181261044 l4.856504649951072,1.5779740156158084z"/>
<path fill="#B31B1B" fill-opacity="0.9" d="m12.714494240093826,30.86881039375368 l4.856504649951075,-1.5779740156158084 l-7.105427357601002e-15,-5.106431181261044 l-4.856504649951075,1.5779740156158084z"/>
<path fill="#B31B1B" fill-opacity="0.9" d="m-22.42750353999596,30.868810393753673 l4.856504649951074,-1.5779740156157942 l0.0,-5.106431181261044 l-4.856504649951074,1.5779740156157942z"/>
<path fill="#B31B1B" fill-opacity="0.9" d="m22.427503539995975,30.868810393753666 l-4.856504649951074,-1.5779740156157942 l-7.105427357601002e-15,-5.106431181261044 l4.856504649951074,1.5779740156157942z"/>
<path fill="#B31B1B" fill-opacity="0.37" d="m-28.4304734203793,25.762379212492643 l3.00148494019167,-4.131189606246323 l3.552713678800501e-15,5.106431181261044 l-3.00148494019167,4.131189606246323z"/>
<path fill="#B31B1B" fill-opacity="0.37" d="m-22.427503539995953,25.762379212492643 l7.105427357601002e-15,5.106431181261044 l-3.0014849401916806,-4.131189606246323 l-7.105427357601002e-15,-5.106431181261044z"/>
<path fill="#B31B1B" fill-opacity="0.37" d="m-3.001484940191672,25.76237921249264 l0.0,5.106431181261044 l3.0014849401916717,-4.131189606246323 l-0.0,-5.106431181261044z"/>
<path fill="#B31B1B" fill-opacity="0.37" d="m3.001484940191682,25.76237921249264 l1.7763568394002505e-15,5.106431181261044 l-3.0014849401916734,-4.131189606246323 l-1.7763568394002505e-15,-5.106431181261044z"/>
<path fill="#B31B1B" fill-opacity="0.37" d="m22.42750353999596,25.762379212492636 l0.0,5.106431181261044 l3.0014849401916734,-4.131189606246323 l-0.0,-5.106431181261044z"/>
<path fill="#B31B1B" fill-opacity="0.37" d="m28.430473420379307,25.762379212492636 l-3.00148494019167,-4.131189606246323 l-3.552713678800501e-15,5.106431181261044 l3.00148494019167,4.131189606246323z"/>
<path fill="#B31B1B" fill-opacity="0.9" d="m-4.1781054463491466e-16,21.631189606246323 l-3.0014849401916717,4.131189606246316 l-4.856504649951072,-1.5779740156158013 l3.0014849401916717,-4.131189606246316z"/>
<path fill="#B31B1B" fill-opacity="0.9" d="m8.364980678546632e-15,21.631189606246323 l3.0014849401916734,4.131189606246316 l4.85650464995107,-1.5779740156158013 l-3.0014849401916734,-4.131189606246316z"/>
<path fill="#B31B1B" fill-opacity="0.9" d="m-25.42898848018763,21.63118960624632 l-3.00148494019167,4.131189606246323 l-4.85650464995107,-1.5779740156157978 l3.00148494019167,-4.131189606246323z"/>
<path fill="#B31B1B" fill-opacity="0.9" d="m-25.42898848018763,21.63118960624632 l3.001484940191677,4.131189606246323 l4.856504649951074,-1.5779740156158013 l-3.001484940191677,-4.131189606246323z"/>
<path fill="#B31B1B" fill-opacity="0.37" d="m-15.71597918028548,21.63118960624632 l-4.856504649951077,-1.5779740156157978 l3.001484940191677,4.13118960624632 l4.856504649951077,1.5779740156157978z"/>
<path fill="#B31B1B" fill-opacity="0.37" d="m-9.713009299902144,21.63118960624632 l-3.0014849401916717,4.131189606246323 l4.856504649951072,-1.5779740156158049 l3.0014849401916717,-4.131189606246323z"/>
<path fill="#B31B1B" fill-opacity="0.37" d="m9.71300929990215,21.631189606246313 l3.001484940191675,4.131189606246323 l-4.856504649951074,-1.5779740156157978 l-3.001484940191675,-4.131189606246323z"/>
<path fill="#B31B1B" fill-opacity="0.37" d="m15.715979180285487,21.631189606246313 l4.856504649951077,-1.5779740156157978 l-3.001484940191677,4.13118960624632 l-4.856504649951077,1.5779740156157978z"/>
<path fill="#B31B1B" fill-opacity="0.9" d="m25.428988480187638,21.631189606246313 l-3.001484940191677,4.131189606246323 l-4.856504649951074,-1.5779740156158013 l3.001484940191677,-4.131189606246323z"/>
<path fill="#B31B1B" fill-opacity="0.9" d="m25.428988480187638,21.631189606246313 l3.00148494019167,4.131189606246323 l4.856504649951077,-1.5779740156158049 l-3.00148494019167,-4.131189606246323z"/>
<path fill="#B31B1B" fill-opacity="0.37" d="m-15.715979180285489,21.631189606246316 l3.0014849401916734,4.131189606246327 l-4.856504649951072,-1.5779740156158084 l-3.0014849401916734,-4.131189606246327z"/>
<path fill="#B31B1B" fill-opacity="0.37" d="m15.715979180285496,21.63118960624631 l-3.00148494019167,4.131189606246327 l4.856504649951068,-1.5779740156158084 l3.00148494019167,-4.131189606246327z"/>
<path fill="#B31B1B" fill-opacity="0.9" d="m-12.714494240093815,25.762379212492643 l-3.0014849401916734,-4.131189606246327 l3.001484940191675,-4.131189606246316 l3.0014849401916734,4.131189606246327z"/>
<path fill="#B31B1B" fill-opacity="0.9" d="m12.714494240093826,25.762379212492636 l3.00148494019167,-4.131189606246327 l-3.001484940191675,-4.131189606246316 l-3.00148494019167,4.131189606246327z"/>
<path fill="#B31B1B" fill-opacity="0.9" d="m-33.28697807033038,15.922025984384206 l3.001484940191677,4.131189606246323 l-3.00148494019167,4.131189606246316 l-3.001484940191677,-4.131189606246323z"/>
<path fill="#B31B1B" fill-opacity="0.9" d="m33.28697807033038,15.922025984384195 l-3.00148494019167,4.13118960624632 l3.001484940191677,4.131189606246316 l3.00148494019167,-4.13118960624632z"/>
<path fill="#B31B1B" fill-opacity="0.37" d="m-30.2854931301387,20.05321559063053 l4.85650464995107,1.5779740156157906 l-3.0014849401916734,-4.131189606246316 l-4.85650464995107,-1.5779740156157906z"/>
<path fill="#B31B1B" fill-opacity="0.37" d="m30.285493130138708,20.053215590630515 l-4.85650464995107,1.5779740156157978 l3.0014849401916734,-4.131189606246316 l4.85650464995107,-1.5779740156157978z"/>
<path fill="#B31B1B" fill-opacity="0.9" d="m-20.572483830236557,20.053215590630522 l4.856504649951077,1.5779740156157978 l3.0014849401916717,-4.13118960624632 l-4.856504649951077,-1.5779740156157978z"/>
<path fill="#B31B1B" fill-opacity="0.9" d="m-4.856504649951071,20.053215590630522 l-3.0014849401916734,-4.131189606246322 l-4.856504649951069,1.5779740156157995 l3.0014849401916734,4.131189606246322z"/>
<path fill="#B31B1B" fill-opacity="0.9" d="m4.856504649951078,20.053215590630522 l3.0014849401916717,-4.131189606246325 l4.856504649951071,1.577974015615796 l-3.0014849401916717,4.131189606246325z"/>
<path fill="#B31B1B" fill-opacity="0.9" d="m20.572483830236564,20.053215590630515 l-4.856504649951077,1.5779740156157978 l-3.0014849401916717,-4.13118960624632 l4.856504649951077,-1.5779740156157978z"/>
<path fill="#B31B1B" fill-opacity="0.9" d="m-4.1781054463491466e-16,21.631189606246323 l9.863169025004985e-17,-5.106431181261041 l-4.856504649951072,-1.5779740156158013 l-9.863169025004985e-17,5.106431181261041z"/>
<path fill="#B31B1B" fill-opacity="0.9" d="m8.364980678546632e-15,21.631189606246323 l-1.974704070609323e-15,-5.106431181261041 l4.856504649951071,-1.5779740156158049 l1.974704070609323e-15,5.106431181261041z"/>
<path fill="#B31B1B" fill-opacity="0.9" d="m-25.42898848018763,21.63118960624632 l0.0,-5.106431181261037 l4.856504649951077,-1.5779740156158013 l-0.0,5.106431181261037z"/>
<path fill="#B31B1B" fill-opacity="0.9" d="m25.428988480187638,21.631189606246313 l0.0,-5.106431181261037 l-4.856504649951077,-1.5779740156158013 l-0.0,5.106431181261037z"/>
<path fill="#B31B1B" fill-opacity="0.37" d="m-25.42898848018763,16.524758424985283 l-3.0014849401916734,-4.131189606246318 l0.0,5.106431181261039 l3.0014849401916734,4.131189606246318z"/>
<path fill="#B31B1B" fill-opacity="0.37" d="m25.428988480187638,16.524758424985276 l3.0014849401916734,-4.131189606246322 l0.0,5.106431181261042 l-3.0014849401916734,4.131189606246322z"/>
<path fill="#B31B1B" fill-opacity="0.37" d="m-17.57099889004488,15.922025984384202 l-3.001484940191677,4.13118960624632 l3.552713678800501e-15,-5.106431181261041 l3.001484940191677,-4.13118960624632z"/>
<path fill="#B31B1B" fill-opacity="0.37" d="m-7.857989590142744,15.9220259843842 l8.881784197001252e-16,-5.106431181261041 l3.0014849401916717,4.131189606246322 l-8.881784197001252e-16,5.106431181261041z"/>
<path fill="#B31B1B" fill-opacity="0.37" d="m7.85798959014275,15.922025984384197 l-2.6645352591003757e-15,-5.106431181261041 l-3.00148494019167,4.131189606246322 l2.6645352591003757e-15,5.106431181261041z"/>
<path fill="#B31B1B" fill-opacity="0.37" d="m17.570998890044887,15.922025984384195 l3.001484940191677,4.13118960624632 l-3.552713678800501e-15,-5.106431181261041 l-3.001484940191677,-4.13118960624632z"/>
<path fill="#B31B1B" fill-opacity="0.9" d="m-33.28697807033038,10.815594803123167 l0.0,5.106431181261039 l4.856504649951074,1.5779740156157978 l-0.0,-5.106431181261039z"/>
<path fill="#B31B1B" fill-opacity="0.9" d="m33.28697807033038,10.815594803123156 l0.0,5.106431181261039 l-4.8565046499510665,1.5779740156158013 l-0.0,-5.106431181261039z"/>
<path fill="#B31B1B" fill-opacity="0.9" d="m-17.570998890044883,10.815594803123162 l4.856504649951072,1.577974015615796 l3.552713678800501e-15,5.106431181261042 l-4.856504649951072,-1.577974015615796z"/>
<path fill="#B31B1B" fill-opacity="0.9" d="m-7.8579895901427435,10.81559480312316 l-8.881784197001252e-16,5.106431181261041 l-4.856504649951069,1.5779740156157995 l8.881784197001252e-16,-5.106431181261041z"/>
<path fill="#B31B1B" fill-opacity="0.9" d="m-7.857989590142741,10.81559480312316 l-4.856504649951071,1.5779740156157978 l3.552713678800501e-15,5.106431181261042 l4.856504649951071,-1.5779740156157978z"/>
<path fill="#B31B1B" fill-opacity="0.9" d="m7.857989590142744,10.815594803123156 l4.856504649951071,1.5779740156157978 l0.0,5.106431181261039 l-4.856504649951071,-1.5779740156157978z"/>
<path fill="#B31B1B" fill-opacity="0.9" d="m7.857989590142747,10.815594803123156 l2.6645352591003757e-15,5.106431181261041 l4.856504649951071,1.577974015615796 l-2.6645352591003757e-15,-5.106431181261041z"/>
<path fill="#B31B1B" fill-opacity="0.9" d="m17.57099889004489,10.815594803123155 l-4.856504649951075,1.5779740156157995 l0.0,5.106431181261039 l4.856504649951075,-1.5779740156157995z"/>
<path fill="#B31B1B" fill-opacity="0.37" d="m-3.001484940191673,12.39356881873896 l3.0014849401916726,4.131189606246323 l-4.856504649951072,-1.5779740156158013 l-3.0014849401916726,-4.131189606246323z"/>
<path fill="#B31B1B" fill-opacity="0.37" d="m3.0014849401916774,12.39356881873896 l-3.0014849401916712,4.131189606246323 l4.856504649951071,-1.5779740156158049 l3.0014849401916712,-4.131189606246323z"/>
<path fill="#B31B1B" fill-opacity="0.9" d="m-28.430473420379304,12.393568818738965 l3.0014849401916734,4.131189606246318 l4.856504649951077,-1.5779740156158013 l-3.0014849401916734,-4.131189606246318z"/>
<path fill="#B31B1B" fill-opacity="0.9" d="m28.43047342037931,12.393568818738954 l-3.0014849401916734,4.131189606246322 l-4.856504649951077,-1.5779740156158013 l3.0014849401916734,-4.131189606246322z"/>
<path fill="#B31B1B" fill-opacity="0.9" d="m-3.191788543848648e-16,16.524758424985283 l-3.0014849401916726,-4.131189606246323 l3.001484940191673,-4.13118960624632 l3.0014849401916726,4.131189606246323z"/>
<path fill="#B31B1B" fill-opacity="0.9" d="m6.390276607937309e-15,16.524758424985283 l3.0014849401916712,-4.131189606246323 l-3.0014849401916743,-4.13118960624632 l-3.0014849401916712,4.131189606246323z"/>
<path fill="#B31B1B" fill-opacity="0.9" d="m-20.572483830236564,6.684405196876845 l-3.001484940191663,4.131189606246316 l3.0014849401916734,4.13118960624632 l3.001484940191663,-4.131189606246316z"/>
<path fill="#B31B1B" fill-opacity="0.9" d="m20.572483830236564,6.684405196876838 l3.00148494019167,4.131189606246316 l-3.0014849401916734,4.13118960624632 l-3.00148494019167,-4.131189606246316z"/>
<path fill="#B31B1B" fill-opacity="0.37" d="m-12.714494240093812,12.393568818738958 l4.856504649951071,-1.5779740156157978 l-4.856504649951073,-1.5779740156157978 l-4.856504649951071,1.5779740156157978z"/>
<path fill="#B31B1B" fill-opacity="0.37" d="m12.714494240093815,12.393568818738954 l-4.856504649951071,-1.5779740156157978 l4.856504649951073,-1.5779740156157978 l4.856504649951071,1.5779740156157978z"/>
<path fill="#B31B1B" fill-opacity="0.9" d="m-33.28697807033038,10.815594803123167 l4.856504649951074,1.5779740156157978 l3.00148494019167,-4.13118960624632 l-4.856504649951074,-1.5779740156157978z"/>
<path fill="#B31B1B" fill-opacity="0.9" d="m33.28697807033038,10.815594803123156 l-4.8565046499510665,1.5779740156157978 l-3.001484940191677,-4.13118960624632 l4.8565046499510665,-1.5779740156157978z"/>
<path fill="#B31B1B" fill-opacity="0.37" d="m-23.573968770428227,10.815594803123162 l-4.856504649951077,1.577974015615803 l3.00148494019167,-4.13118960624632 l4.856504649951077,-1.577974015615803z"/>
<path fill="#B31B1B" fill-opacity="0.9" d="m-7.8579895901427435,10.81559480312316 l4.85650464995107,1.5779740156157995 l3.001484940191673,-4.13118960624632 l-4.85650464995107,-1.5779740156157995z"/>
<path fill="#B31B1B" fill-opacity="0.9" d="m7.857989590142747,10.815594803123156 l-4.85650464995107,1.577974015615803 l-3.0014849401916743,-4.13118960624632 l4.85650464995107,-1.577974015615803z"/>
<path fill="#B31B1B" fill-opacity="0.37" d="m23.573968770428234,10.815594803123155 l4.856504649951077,1.5779740156157995 l-3.001484940191677,-4.13118960624632 l-4.856504649951077,-1.5779740156157995z"/>
<path fill="#B31B1B" fill-opacity="0.9" d="m-33.28697807033038,10.815594803123162 l3.0014849401916734,-4.131189606246319 l4.85650464995107,1.5779740156157986 l-3.0014849401916734,4.131189606246319z"/>
<path fill="#B31B1B" fill-opacity="0.9" d="m33.28697807033038,10.815594803123151 l-3.0014849401916734,-4.131189606246319 l-4.85650464995107,1.5779740156157986 l3.0014849401916734,4.131189606246319z"/>
<path fill="#B31B1B" fill-opacity="0.9" d="m-20.572483830236564,6.684405196876845 l4.856504649951075,-1.5779740156158004 l3.001484940191675,4.131189606246317 l-4.856504649951075,1.5779740156158004z"/>
<path fill="#B31B1B" fill-opacity="0.9" d="m20.572483830236564,6.684405196876838 l-4.856504649951072,-1.5779740156157986 l-3.001484940191675,4.131189606246319 l4.856504649951072,1.5779740156157986z"/>
<path fill="#B31B1B" fill-opacity="0.37" d="m-10.859474530334415,6.684405196876842 l-4.856504649951074,-1.5779740156157969 l3.001484940191675,4.131189606246317 l4.856504649951074,1.5779740156157969z"/>
<path fill="#B31B1B" fill-opacity="0.37" d="m10.859474530334419,6.684405196876838 l4.856504649951074,-1.5779740156157986 l-3.001484940191675,4.131189606246319 l-4.856504649951074,1.5779740156157986z"/>
<path fill="#B31B1B" fill-opacity="0.37" d="m-9.863169025005005e-17,5.1064311812610415 l-4.856504649951072,1.5779740156157995 l4.856504649951072,1.5779740156157986 l4.856504649951072,-1.5779740156157995z"/>
<path fill="#B31B1B" fill-opacity="0.37" d="m1.9747040706093213e-15,5.1064311812610415 l4.856504649951072,1.5779740156157978 l-4.85650464995107,1.5779740156158004 l-4.856504649951072,-1.5779740156157978z"/>
<path fill="#B31B1B" fill-opacity="0.9" d="m-7.857989590142741,10.81559480312316 l-3.0014849401916743,-4.131189606246318 l3.0014849401916717,-4.13118960624632 l3.0014849401916743,4.131189606246318z"/>
<path fill="#B31B1B" fill-opacity="0.9" d="m7.857989590142744,10.815594803123156 l3.0014849401916743,-4.131189606246318 l-3.0014849401916734,-4.131189606246319 l-3.0014849401916743,4.131189606246318z"/>
<path fill="#B31B1B" fill-opacity="0.37" d="m-25.428988480187634,5.106431181261043 l-4.85650464995107,1.5779740156157995 l4.85650464995107,1.5779740156157986 l4.85650464995107,-1.5779740156157995z"/>
<path fill="#B31B1B" fill-opacity="0.37" d="m25.428988480187634,5.106431181261034 l4.85650464995107,1.5779740156157978 l-4.85650464995107,1.5779740156157986 l-4.85650464995107,-1.5779740156157978z"/>
<path fill="#B31B1B" fill-opacity="0.9" d="m-33.28697807033038,10.815594803123162 l-3.0014849401916734,-4.131189606246317 l3.0014849401916734,-4.131189606246321 l3.0014849401916734,4.131189606246317z"/>
<path fill="#B31B1B" fill-opacity="0.9" d="m33.28697807033038,10.815594803123151 l3.0014849401916734,-4.131189606246321 l-3.0014849401916734,-4.131189606246319 l-3.0014849401916734,4.131189606246321z"/>
<path fill="#B31B1B" fill-opacity="0.9" d="m-15.715979180285489,5.106431181261045 l4.856504649951074,1.5779740156157969 l3.0014849401916717,-4.13118960624632 l-4.856504649951074,-1.5779740156157969z"/>
<path fill="#B31B1B" fill-opacity="0.9" d="m15.715979180285492,5.10643118126104 l-4.856504649951074,1.5779740156157986 l-3.0014849401916734,-4.131189606246319 l4.856504649951074,-1.5779740156157986z"/>
<path fill="#B31B1B" fill-opacity="0.9" d="m-15.715979180285489,5.106431181261042 l3.0014849401916734,-4.131189606246321 l4.856504649951072,1.5779740156157986 l-3.0014849401916734,4.131189606246321z"/>
<path fill="#B31B1B" fill-opacity="0.9" d="m15.715979180285492,5.106431181261037 l-3.001484940191677,-4.13118960624632 l-4.85650464995107,1.5779740156158009 l3.001484940191677,4.13118960624632z"/>
<path fill="#B31B1B" fill-opacity="0.9" d="m-4.856504649951072,6.684405196876841 l4.856504649951072,-1.5779740156157995 l9.863169025005005e-17,-5.1064311812610415 l-4.856504649951072,1.5779740156157995z"/>
<path fill="#B31B1B" fill-opacity="0.9" d="m-4.85650464995107,6.684405196876841 l-1.7763568394002505e-15,-5.106431181261041 l4.856504649951072,-1.5779740156158004 l1.7763568394002505e-15,5.106431181261041z"/>
<path fill="#B31B1B" fill-opacity="0.9" d="m4.856504649951072,6.684405196876839 l0.0,-5.106431181261041 l-4.856504649951072,-1.5779740156157986 l-0.0,5.106431181261041z"/>
<path fill="#B31B1B" fill-opacity="0.9" d="m4.856504649951074,6.684405196876839 l-4.856504649951072,-1.5779740156157978 l-1.9747040706093213e-15,-5.1064311812610415 l4.856504649951072,1.5779740156157978z"/>
<path fill="#B31B1B" fill-opacity="0.9" d="m-20.572483830236564,6.684405196876842 l4.856504649951075,-1.5779740156157995 l0.0,-5.1064311812610415 l-4.856504649951075,1.5779740156157995z"/>
<path fill="#B31B1B" fill-opacity="0.9" d="m20.572483830236564,6.684405196876835 l-4.856504649951072,-1.5779740156157978 l-3.552713678800501e-15,-5.1064311812610415 l4.856504649951072,1.5779740156157978z"/>
<path fill="#B31B1B" fill-opacity="0.9" d="m-20.572483830236564,6.684405196876842 l-4.85650464995107,-1.5779740156157986 l3.552713678800501e-15,-5.1064311812610415 l4.85650464995107,1.5779740156157986z"/>
<path fill="#B31B1B" fill-opacity="0.9" d="m20.572483830236564,6.684405196876835 l4.85650464995107,-1.5779740156158004 l-3.552713678800501e-15,-5.1064311812610415 l-4.85650464995107,1.5779740156158004z"/>
<path fill="#B31B1B" fill-opacity="0.9" d="m-36.28846301052205,6.6844051968768445 l0.0,-5.1064311812610415 l-4.85650464995107,-1.5779740156157982 l-0.0,5.1064311812610415z"/>
<path fill="#B31B1B" fill-opacity="0.9" d="m-30.285493130138704,6.684405196876843 l0.0,-5.106431181261041 l4.856504649951074,-1.5779740156158 l-0.0,5.106431181261041z"/>
<path fill="#B31B1B" fill-opacity="0.9" d="m30.285493130138704,6.684405196876832 l0.0,-5.1064311812610415 l-4.856504649951074,-1.5779740156157982 l-0.0,5.1064311812610415z"/>
<path fill="#B31B1B" fill-opacity="0.9" d="m36.28846301052205,6.68440519687683 l0.0,-5.106431181261041 l4.85650464995107,-1.5779740156158 l-0.0,5.106431181261041z"/>
<path fill="#B31B1B" fill-opacity="0.37" d="m-4.856504649951072,1.5779740156158004 l1.7763568394002505e-15,5.106431181261041 l-3.0014849401916734,-4.131189606246319 l-1.7763568394002505e-15,-5.106431181261041z"/>
<path fill="#B31B1B" fill-opacity="0.37" d="m4.856504649951072,1.5779740156157986 l0.0,5.106431181261041 l3.0014849401916734,-4.13118960624632 l-0.0,-5.106431181261041z"/>
<path fill="#B31B1B" fill-opacity="0.37" d="m-4.856504649951072,1.5779740156157995 l-3.0014849401916734,-4.13118960624632 l1.7763568394002505e-15,5.106431181261041 l3.0014849401916734,4.13118960624632z"/>
<path fill="#B31B1B" fill-opacity="0.37" d="m4.856504649951072,1.5779740156157978 l3.0014849401916717,-4.13118960624632 l1.7763568394002505e-15,5.106431181261041 l-3.0014849401916717,4.13118960624632z"/>
<path fill="#B31B1B" fill-opacity="0.37" d="m-36.28846301052205,1.577974015615803 l3.0014849401916734,-4.131189606246319 l0.0,5.10643118126104 l-3.0014849401916734,4.131189606246319z"/>
<path fill="#B31B1B" fill-opacity="0.37" d="m-30.285493130138704,1.577974015615802 l0.0,5.106431181261041 l-3.0014849401916734,-4.131189606246319 l-0.0,-5.106431181261041z"/>
<path fill="#B31B1B" fill-opacity="0.37" d="m30.285493130138704,1.5779740156157909 l0.0,5.1064311812610415 l3.0014849401916734,-4.131189606246321 l-0.0,-5.1064311812610415z"/>
<path fill="#B31B1B" fill-opacity="0.37" d="m36.28846301052205,1.5779740156157898 l-3.0014849401916734,-4.131189606246318 l0.0,5.10643118126104 l3.0014849401916734,4.131189606246318z"/>
<path fill="#B31B1B" fill-opacity="0.37" d="m-12.714494240093815,0.975241575014722 l-3.0014849401916734,4.131189606246321 l0.0,-5.1064311812610415 l3.0014849401916734,-4.131189606246321z"/>
<path fill="#B31B1B" fill-opacity="0.37" d="m12.714494240093815,0.9752415750147173 l3.001484940191677,4.13118960624632 l-3.552713678800501e-15,-5.1064311812610415 l-3.001484940191677,-4.13118960624632z"/>
<path fill="#B31B1B" fill-opacity="0.9" d="m-12.714494240093815,-4.131189606246318 l0.0,5.10643118126104 l4.856504649951072,1.5779740156157986 l-0.0,-5.10643118126104z"/>
<path fill="#B31B1B" fill-opacity="0.9" d="m12.714494240093815,-4.131189606246323 l0.0,5.106431181261041 l-4.85650464995107,1.5779740156158009 l-0.0,-5.106431181261041z"/>
<path fill="#B31B1B" fill-opacity="0.9" d="m-7.857989590142746,-2.5532155906305176 l4.856504649951072,-1.5779740156158013 l3.0014849401916748,4.131189606246319 l-4.856504649951072,1.5779740156158013z"/>
<path fill="#B31B1B" fill-opacity="0.9" d="m7.857989590142744,-2.5532155906305203 l-4.856504649951072,-1.5779740156158004 l-3.001484940191673,4.131189606246321 l4.856504649951072,1.5779740156158004z"/>
<path fill="#B31B1B" fill-opacity="0.9" d="m-7.857989590142745,-2.55321559063052 l3.0014849401916734,4.13118960624632 l4.856504649951072,-1.5779740156157995 l-3.0014849401916734,-4.13118960624632z"/>
<path fill="#B31B1B" fill-opacity="0.9" d="m7.8579895901427435,-2.5532155906305225 l-3.0014849401916717,4.13118960624632 l-4.856504649951072,-1.5779740156157978 l3.0014849401916717,-4.13118960624632z"/>
<path fill="#B31B1B" fill-opacity="0.37" d="m-17.570998890044883,-2.553215590630518 l4.856504649951068,-1.5779740156158 l-3.0014849401916734,4.131189606246319 l-4.856504649951068,1.5779740156158z"/>
<path fill="#B31B1B" fill-opacity="0.37" d="m17.570998890044883,-2.5532155906305243 l-4.856504649951068,-1.577974015615799 l3.0014849401916734,4.131189606246319 l4.856504649951068,1.577974015615799z"/>
<path fill="#B31B1B" fill-opacity="0.9" d="m-33.28697807033038,-2.553215590630516 l-4.856504649951077,-1.5779740156157986 l-3.0014849401916663,4.13118960624632 l4.856504649951077,1.5779740156157986z"/>
<path fill="#B31B1B" fill-opacity="0.9" d="m-33.28697807033038,-2.553215590630516 l3.0014849401916734,4.131189606246318 l4.856504649951074,-1.5779740156158 l-3.0014849401916734,-4.131189606246318z"/>
<path fill="#B31B1B" fill-opacity="0.37" d="m-23.57396877042823,-2.5532155906305176 l-4.856504649951077,-1.5779740156157978 l3.001484940191677,4.131189606246317 l4.856504649951077,1.5779740156157978z"/>
<path fill="#B31B1B" fill-opacity="0.37" d="m23.57396877042823,-2.5532155906305265 l4.856504649951077,-1.5779740156157995 l-3.001484940191677,4.131189606246319 l-4.856504649951077,1.5779740156157995z"/>
<path fill="#B31B1B" fill-opacity="0.9" d="m33.28697807033038,-2.5532155906305283 l-3.0014849401916734,4.131189606246319 l-4.856504649951074,-1.5779740156157982 l3.0014849401916734,-4.131189606246319z"/>
<path fill="#B31B1B" fill-opacity="0.9" d="m33.28697807033038,-2.5532155906305283 l4.856504649951077,-1.5779740156158004 l3.0014849401916663,4.131189606246318 l-4.856504649951077,1.5779740156158004z"/>
<path fill="#B31B1B" fill-opacity="0.9" d="m-20.57248383023656,1.5779740156158024 l3.001484940191677,-4.131189606246321 l-3.0014849401916734,-4.13118960624632 l-3.001484940191677,4.131189606246321z"/>
<path fill="#B31B1B" fill-opacity="0.9" d="m20.57248383023656,1.5779740156157949 l-3.001484940191677,-4.131189606246319 l3.0014849401916734,-4.13118960624632 l3.001484940191677,4.131189606246319z"/>
<path fill="#B31B1B" fill-opacity="0.9" d="m-1.5177744383881108e-15,-8.26237921249264 l3.0014849401916734,4.131189606246318 l-3.001484940191672,4.131189606246322 l-3.0014849401916734,-4.131189606246318z"/>
<path fill="#B31B1B" fill-opacity="0.9" d="m-41.14496766047312,-8.262379212492636 l3.0014849401916663,4.131189606246322 l-3.0014849401916663,4.13118960624632 l-3.0014849401916663,-4.131189606246322z"/>
<path fill="#B31B1B" fill-opacity="0.9" d="m41.14496766047312,-8.26237921249265 l-3.0014849401916663,4.131189606246322 l3.0014849401916663,4.131189606246318 l3.0014849401916663,-4.131189606246322z"/>
<path fill="#B31B1B" fill-opacity="0.9" d="m-12.714494240093817,-4.1311896062463145 l-3.001484940191675,-4.131189606246318 l-4.856504649951068,1.5779740156158013 l3.001484940191675,4.131189606246318z"/>
<path fill="#B31B1B" fill-opacity="0.9" d="m12.714494240093817,-4.13118960624632 l3.0014849401916717,-4.13118960624632 l4.856504649951072,1.5779740156158013 l-3.0014849401916717,4.13118960624632z"/>
<path fill="#B31B1B" fill-opacity="0.9" d="m-12.714494240093817,-4.1311896062463145 l3.001484940191668,-4.131189606246322 l4.8565046499510744,1.5779740156157978 l-3.001484940191668,4.131189606246322z"/>
<path fill="#B31B1B" fill-opacity="0.9" d="m12.714494240093817,-4.13118960624632 l-3.0014849401916717,-4.13118960624632 l-4.856504649951073,1.5779740156157995 l3.0014849401916717,4.13118960624632z"/>
<path fill="#B31B1B" fill-opacity="0.37" d="m-3.0014849401916748,-4.131189606246319 l-4.856504649951072,1.5779740156158013 l3.0014849401916717,-4.131189606246321 l4.856504649951072,-1.5779740156158013z"/>
<path fill="#B31B1B" fill-opacity="0.37" d="m3.001484940191673,-4.131189606246321 l4.856504649951072,1.5779740156158004 l-3.0014849401916717,-4.13118960624632 l-4.856504649951072,-1.5779740156158004z"/>
<path fill="#B31B1B" fill-opacity="0.9" d="m-28.430473420379307,-4.131189606246315 l3.0014849401916806,-4.131189606246319 l4.85650464995107,1.5779740156157969 l-3.0014849401916806,4.131189606246319z"/>
<path fill="#B31B1B" fill-opacity="0.9" d="m-12.714494240093815,-4.131189606246318 l-4.856504649951068,1.5779740156158 l-3.0014849401916734,-4.13118960624632 l4.856504649951068,-1.5779740156158z"/>
<path fill="#B31B1B" fill-opacity="0.37" d="m-3.001484940191674,-4.13118960624632 l3.0014849401916726,-4.13118960624632 l-4.856504649951071,1.5779740156157995 l-3.0014849401916726,4.13118960624632z"/>
<path fill="#B31B1B" fill-opacity="0.37" d="m3.001484940191672,-4.131189606246322 l-3.0014849401916734,-4.131189606246318 l4.856504649951073,1.5779740156157978 l3.0014849401916734,4.131189606246318z"/>
<path fill="#B31B1B" fill-opacity="0.9" d="m12.714494240093815,-4.131189606246323 l4.856504649951068,1.577974015615799 l3.0014849401916734,-4.13118960624632 l-4.856504649951068,-1.577974015615799z"/>
<path fill="#B31B1B" fill-opacity="0.9" d="m28.430473420379307,-4.131189606246326 l-3.0014849401916806,-4.131189606246319 l-4.85650464995107,1.5779740156158004 l3.0014849401916806,4.131189606246319z"/>
<path fill="#B31B1B" fill-opacity="0.37" d="m-38.143482720281455,-4.1311896062463145 l4.856504649951077,1.5779740156157986 l-3.0014849401916734,-4.131189606246319 l-4.856504649951077,-1.5779740156157986z"/>
<path fill="#B31B1B" fill-opacity="0.37" d="m38.143482720281455,-4.131189606246329 l-4.856504649951077,1.5779740156158004 l3.0014849401916734,-4.131189606246321 l4.856504649951077,-1.5779740156158004z"/>
<path fill="#B31B1B" fill-opacity="0.37" d="m-44.146452600664794,-4.1311896062463145 l3.0014849401916734,-4.131189606246322 l-4.85650464995107,1.5779740156158022 l-3.0014849401916734,4.131189606246322z"/>
<path fill="#B31B1B" fill-opacity="0.37" d="m44.146452600664794,-4.1311896062463305 l-3.0014849401916734,-4.13118960624632 l4.85650464995107,1.5779740156157986 l3.0014849401916734,4.13118960624632z"/>
<path fill="#B31B1B" fill-opacity="0.9" d="m-33.28697807033038,-2.553215590630516 l0.0,-5.106431181261041 l4.856504649951077,-1.5779740156158004 l-0.0,5.106431181261041z"/>
<path fill="#B31B1B" fill-opacity="0.9" d="m33.28697807033038,-2.5532155906305283 l0.0,-5.106431181261041 l-4.856504649951077,-1.5779740156157986 l-0.0,5.106431181261041z"/>
<path fill="#B31B1B" fill-opacity="0.37" d="m-33.28697807033038,-7.659646771891556 l-3.0014849401916734,-4.131189606246319 l0.0,5.106431181261041 l3.0014849401916734,4.131189606246319z"/>
<path fill="#B31B1B" fill-opacity="0.37" d="m33.28697807033038,-7.659646771891569 l3.0014849401916734,-4.131189606246321 l0.0,5.106431181261041 l-3.0014849401916734,4.131189606246321z"/>
<path fill="#B31B1B" fill-opacity="0.37" d="m-25.428988480187634,-8.262379212492627 l-7.105427357601002e-15,-5.106431181261044 l-3.0014849401916663,4.131189606246323 l7.105427357601002e-15,5.106431181261044z"/>
<path fill="#B31B1B" fill-opacity="0.37" d="m25.428988480187634,-8.262379212492638 l0.0,-5.106431181261044 l3.0014849401916734,4.131189606246323 l-0.0,5.106431181261044z"/>
<path fill="#B31B1B" fill-opacity="0.37" d="m-15.715979180285492,-8.262379212492633 l3.001484940191675,4.131189606246318 l-3.552713678800501e-15,-5.106431181261042 l-3.001484940191675,-4.131189606246318z"/>
<path fill="#B31B1B" fill-opacity="0.37" d="m15.715979180285489,-8.26237921249264 l-3.0014849401916717,4.13118960624632 l0.0,-5.106431181261041 l3.0014849401916717,-4.13118960624632z"/>
<path fill="#B31B1B" fill-opacity="0.37" d="m-9.713009299902149,-8.262379212492636 l-1.7763568394002505e-15,-5.106431181261044 l-3.00148494019167,4.131189606246323 l1.7763568394002505e-15,5.106431181261044z"/>
<path fill="#B31B1B" fill-opacity="0.37" d="m9.713009299902145,-8.26237921249264 l1.7763568394002505e-15,-5.106431181261044 l3.00148494019167,4.131189606246323 l-1.7763568394002505e-15,5.106431181261044z"/>
<path fill="#B31B1B" fill-opacity="0.37" d="m-25.428988480187627,-8.262379212492634 l-3.0014849401916806,4.131189606246319 l7.105427357601002e-15,-5.1064311812610415 l3.0014849401916806,-4.131189606246319z"/>
<path fill="#B31B1B" fill-opacity="0.37" d="m25.428988480187627,-8.262379212492645 l3.0014849401916806,4.131189606246319 l-7.105427357601002e-15,-5.1064311812610415 l-3.0014849401916806,-4.131189606246319z"/>
<path fill="#B31B1B" fill-opacity="0.9" d="m-25.42898848018764,-13.368810393753671 l7.105427357601002e-15,5.106431181261044 l4.856504649951074,1.577974015615796 l-7.105427357601002e-15,-5.106431181261044z"/>
<path fill="#B31B1B" fill-opacity="0.9" d="m25.428988480187634,-13.368810393753682 l0.0,5.106431181261044 l-4.856504649951074,1.5779740156157995 l-0.0,-5.106431181261044z"/>
<path fill="#B31B1B" fill-opacity="0.9" d="m-15.715979180285494,-13.368810393753677 l1.7763568394002505e-15,5.106431181261044 l-4.856504649951068,1.5779740156158013 l-1.7763568394002505e-15,-5.106431181261044z"/>
<path fill="#B31B1B" fill-opacity="0.9" d="m15.71597918028549,-13.368810393753684 l-1.7763568394002505e-15,5.106431181261044 l4.856504649951072,1.5779740156158013 l1.7763568394002505e-15,-5.106431181261044z"/>
<path fill="#B31B1B" fill-opacity="0.9" d="m-9.71300929990215,-13.36881039375368 l1.7763568394002505e-15,5.106431181261044 l4.8565046499510744,1.5779740156157978 l-1.7763568394002505e-15,-5.106431181261044z"/>
<path fill="#B31B1B" fill-opacity="0.9" d="m-2.4558106285677464e-15,-13.36881039375368 l-4.856504649951071,1.5779740156157995 l8.881784197001252e-16,5.106431181261041 l4.856504649951071,-1.5779740156157995z"/>
<path fill="#B31B1B" fill-opacity="0.9" d="m-2.4558106285677464e-15,-13.36881039375368 l4.856504649951073,1.577974015615796 l8.881784197001252e-16,5.106431181261042 l-4.856504649951073,-1.577974015615796z"/>
<path fill="#B31B1B" fill-opacity="0.9" d="m9.713009299902147,-13.368810393753684 l-1.7763568394002505e-15,5.106431181261044 l-4.856504649951073,1.5779740156157995 l1.7763568394002505e-15,-5.106431181261044z"/>
<path fill="#B31B1B" fill-opacity="0.9" d="m-50.85797696037526,-13.368810393753675 l4.85650464995107,1.5779740156158013 l0.0,5.10643118126104 l-4.85650464995107,-1.5779740156158013z"/>
<path fill="#B31B1B" fill-opacity="0.9" d="m-41.14496766047312,-13.368810393753677 l-4.85650464995107,1.577974015615803 l0.0,5.10643118126104 l4.85650464995107,-1.577974015615803z"/>
<path fill="#B31B1B" fill-opacity="0.9" d="m-41.14496766047312,-13.368810393753677 l4.85650464995107,1.5779740156158013 l0.0,5.106431181261041 l-4.85650464995107,-1.5779740156158013z"/>
<path fill="#B31B1B" fill-opacity="0.9" d="m-9.713009299902145,-13.368810393753682 l4.856504649951072,1.5779740156158013 l8.881784197001252e-16,5.106431181261041 l-4.856504649951072,-1.5779740156158013z"/>
<path fill="#B31B1B" fill-opacity="0.9" d="m9.713009299902142,-13.368810393753686 l-4.856504649951072,1.5779740156158013 l8.881784197001252e-16,5.106431181261042 l4.856504649951072,-1.5779740156158013z"/>
<path fill="#B31B1B" fill-opacity="0.9" d="m41.14496766047312,-13.36881039375369 l-4.85650464995107,1.5779740156158013 l0.0,5.106431181261041 l4.85650464995107,-1.5779740156158013z"/>
<path fill="#B31B1B" fill-opacity="0.9" d="m41.14496766047312,-13.36881039375369 l4.85650464995107,1.5779740156157995 l0.0,5.10643118126104 l-4.85650464995107,-1.5779740156157995z"/>
<path fill="#B31B1B" fill-opacity="0.9" d="m50.85797696037526,-13.368810393753693 l-4.85650464995107,1.5779740156158013 l0.0,5.10643118126104 l4.85650464995107,-1.5779740156158013z"/>
<path fill="#B31B1B" fill-opacity="0.9" d="m-36.28846301052205,-11.790836378137868 l4.856504649951063,-1.5779740156157995 l3.0014849401916806,4.13118960624632 l-4.856504649951063,1.5779740156157995z"/>
<path fill="#B31B1B" fill-opacity="0.9" d="m36.28846301052205,-11.790836378137882 l-4.85650464995107,-1.577974015615796 l-3.0014849401916734,4.13118960624632 l4.85650464995107,1.577974015615796z"/>
<path fill="#B31B1B" fill-opacity="0.9" d="m-36.28846301052205,-11.790836378137875 l3.0014849401916734,4.131189606246319 l4.856504649951077,-1.5779740156158004 l-3.0014849401916734,-4.131189606246319z"/>
<path fill="#B31B1B" fill-opacity="0.9" d="m36.28846301052205,-11.79083637813789 l-3.0014849401916734,4.131189606246321 l-4.856504649951077,-1.5779740156157986 l3.0014849401916734,-4.131189606246321z"/>
<path fill="#B31B1B" fill-opacity="0.9" d="m-28.430473420379315,-17.499999999999993 l-3.0014849401916734,4.131189606246325 l3.0014849401916806,4.13118960624632 l3.0014849401916734,-4.131189606246325z"/>
<path fill="#B31B1B" fill-opacity="0.9" d="m28.430473420379307,-17.5 l3.0014849401916734,4.131189606246322 l-3.0014849401916734,4.13118960624632 l-3.0014849401916734,-4.131189606246322z"/>
<path fill="#B31B1B" fill-opacity="0.37" d="m-20.572483830236568,-11.790836378137874 l-4.856504649951074,-1.5779740156157978 l4.856504649951074,-1.5779740156157995 l4.856504649951074,1.5779740156157978z"/>
<path fill="#B31B1B" fill-opacity="0.37" d="m20.57248383023656,-11.79083637813788 l4.856504649951074,-1.5779740156158013 l-4.856504649951074,-1.577974015615796 l-4.856504649951074,1.5779740156158013z"/>
<path fill="#B31B1B" fill-opacity="0.9" d="m-12.714494240093826,-17.499999999999996 l3.001484940191675,4.131189606246316 l-3.00148494019167,4.131189606246323 l-3.001484940191675,-4.131189606246316z"/>
<path fill="#B31B1B" fill-opacity="0.9" d="m12.714494240093819,-17.500000000000004 l-3.0014849401916717,4.13118960624632 l3.00148494019167,4.131189606246323 l3.0014849401916717,-4.13118960624632z"/>
<path fill="#B31B1B" fill-opacity="0.37" d="m-46.00147231042419,-11.790836378137874 l-4.85650464995107,-1.5779740156158013 l4.85650464995107,-1.5779740156157978 l4.85650464995107,1.5779740156158013z"/>
<path fill="#B31B1B" fill-opacity="0.37" d="m-4.856504649951074,-11.79083637813788 l-4.856504649951072,-1.5779740156158013 l4.856504649951071,-1.5779740156157978 l4.856504649951072,1.5779740156158013z"/>
<path fill="#B31B1B" fill-opacity="0.37" d="m4.85650464995107,-11.790836378137884 l4.856504649951072,-1.5779740156158013 l-4.856504649951073,-1.5779740156157978 l-4.856504649951072,1.5779740156158013z"/>
<path fill="#B31B1B" fill-opacity="0.37" d="m46.00147231042419,-11.790836378137891 l4.85650464995107,-1.5779740156158013 l-4.85650464995107,-1.5779740156157978 l-4.85650464995107,1.5779740156158013z"/>
<path fill="#B31B1B" fill-opacity="0.9" d="m-41.14496766047313,-13.368810393753666 l4.856504649951077,1.5779740156157978 l3.0014849401916663,-4.131189606246322 l-4.856504649951077,-1.5779740156157978z"/>
<path fill="#B31B1B" fill-opacity="0.37" d="m-31.431958360570988,-13.368810393753668 l-4.856504649951063,1.5779740156157995 l3.0014849401916663,-4.131189606246322 l4.856504649951063,-1.5779740156157995z"/>
<path fill="#B31B1B" fill-opacity="0.37" d="m31.43195836057098,-13.368810393753678 l4.85650464995107,1.577974015615796 l-3.0014849401916663,-4.131189606246318 l-4.85650464995107,-1.577974015615796z"/>
<path fill="#B31B1B" fill-opacity="0.9" d="m41.14496766047313,-13.36881039375368 l-4.856504649951077,1.5779740156157978 l-3.0014849401916663,-4.131189606246318 l4.856504649951077,-1.5779740156157978z"/>
<path fill="#B31B1B" fill-opacity="0.9" d="m-53.85946190056694,-17.49999999999998 l4.85650464995107,-1.5779740156158013 l3.0014849401916734,4.131189606246318 l-4.85650464995107,1.5779740156158013z"/>
<path fill="#B31B1B" fill-opacity="0.9" d="m53.85946190056694,-17.5 l-4.85650464995107,-1.5779740156158013 l-3.0014849401916734,4.131189606246322 l4.85650464995107,1.5779740156158013z"/>
<path fill="#B31B1B" fill-opacity="0.37" d="m-44.1464526006648,-17.499999999999986 l-4.85650464995107,-1.5779740156157942 l3.0014849401916734,4.131189606246318 l4.85650464995107,1.5779740156157942z"/>
<path fill="#B31B1B" fill-opacity="0.37" d="m44.1464526006648,-17.5 l4.85650464995107,-1.5779740156158013 l-3.0014849401916734,4.131189606246322 l-4.85650464995107,1.5779740156158013z"/>
<path fill="#B31B1B" fill-opacity="0.9" d="m-28.430473420379315,-17.499999999999993 l4.85650464995107,-1.5779740156157978 l3.001484940191677,4.13118960624632 l-4.85650464995107,1.5779740156157978z"/>
<path fill="#B31B1B" fill-opacity="0.9" d="m-12.714494240093826,-17.499999999999996 l-4.856504649951068,-1.5779740156157942 l-3.0014849401916734,4.13118960624632 l4.856504649951068,1.5779740156157942z"/>
<path fill="#B31B1B" fill-opacity="0.9" d="m12.714494240093819,-17.500000000000004 l4.856504649951068,-1.5779740156157942 l3.0014849401916734,4.13118960624632 l-4.856504649951068,1.5779740156157942z"/>
<path fill="#B31B1B" fill-opacity="0.9" d="m28.430473420379307,-17.5 l-4.85650464995107,-1.5779740156157978 l-3.001484940191677,4.13118960624632 l4.85650464995107,1.5779740156157978z"/>
<path fill="#B31B1B" fill-opacity="0.9" d="m-53.859461900566934,-17.499999999999993 l3.0014849401916734,4.131189606246318 l4.85650464995107,-1.5779740156157978 l-3.0014849401916734,-4.131189606246318z"/>
<path fill="#B31B1B" fill-opacity="0.9" d="m-12.71449424009382,-17.5 l3.001484940191675,4.131189606246318 l4.856504649951071,-1.5779740156157978 l-3.001484940191675,-4.131189606246318z"/>
<path fill="#B31B1B" fill-opacity="0.37" d="m-3.001484940191676,-17.5 l3.0014849401916734,4.13118960624632 l-4.856504649951072,-1.5779740156157995 l-3.0014849401916734,-4.13118960624632z"/>
<path fill="#B31B1B" fill-opacity="0.37" d="m3.00148494019167,-17.5 l-3.0014849401916726,4.13118960624632 l4.856504649951072,-1.577974015615803 l3.0014849401916726,-4.13118960624632z"/>
<path fill="#B31B1B" fill-opacity="0.9" d="m12.714494240093813,-17.500000000000007 l-3.0014849401916717,4.131189606246322 l-4.856504649951073,-1.5779740156157978 l3.0014849401916717,-4.131189606246322z"/>
<path fill="#B31B1B" fill-opacity="0.9" d="m53.859461900566934,-17.500000000000014 l-3.0014849401916734,4.131189606246322 l-4.85650464995107,-1.5779740156157978 l3.0014849401916734,-4.131189606246322z"/>
<path fill="#B31B1B" fill-opacity="0.9" d="m-41.14496766047313,-13.368810393753666 l-3.0014849401916734,-4.13118960624632 l3.0014849401916663,-4.13118960624632 l3.0014849401916734,4.13118960624632z"/>
<path fill="#B31B1B" fill-opacity="0.37" d="m-33.286978070330385,-19.077974015615787 l4.85650464995107,1.5779740156157942 l-4.85650464995107,1.577974015615803 l-4.85650464995107,-1.5779740156157942z"/>
<path fill="#B31B1B" fill-opacity="0.37" d="m33.286978070330385,-19.0779740156158 l-4.856504649951077,1.5779740156158013 l4.856504649951077,1.5779740156157995 l4.856504649951077,-1.5779740156158013z"/>
<path fill="#B31B1B" fill-opacity="0.9" d="m41.14496766047313,-13.36881039375368 l3.0014849401916734,-4.13118960624632 l-3.0014849401916806,-4.13118960624632 l-3.0014849401916734,4.13118960624632z"/>
<path fill="#B31B1B" fill-opacity="0.9" d="m-2.4558106285677464e-15,-13.36881039375368 l3.0014849401916726,-4.13118960624632 l-3.001484940191674,-4.131189606246316 l-3.0014849401916726,4.13118960624632z"/>
<path fill="#B31B1B" fill-opacity="0.9" d="m-20.57248383023657,-23.209163621862114 l-3.0014849401916734,4.131189606246323 l3.001484940191677,4.13118960624632 l3.0014849401916734,-4.131189606246323z"/>
<path fill="#B31B1B" fill-opacity="0.9" d="m20.572483830236564,-23.20916362186212 l3.0014849401916734,4.131189606246323 l-3.001484940191677,4.13118960624632 l-3.0014849401916734,-4.131189606246323z"/>
<path fill="#B31B1B" fill-opacity="0.9" d="m-49.00295725061587,-19.07797401561578 l4.85650464995107,1.5779740156157942 l3.0014849401916663,-4.13118960624632 l-4.85650464995107,-1.5779740156157942z"/>
<path fill="#B31B1B" fill-opacity="0.9" d="m49.00295725061587,-19.0779740156158 l-4.85650464995107,1.5779740156158013 l-3.0014849401916806,-4.13118960624632 l4.85650464995107,-1.5779740156158013z"/>
<path fill="#B31B1B" fill-opacity="0.37" d="m-23.573968770428245,-19.07797401561579 l3.0014849401916734,-4.131189606246323 l-4.856504649951074,1.5779740156158013 l-3.0014849401916734,4.131189606246323z"/>
<path fill="#B31B1B" fill-opacity="0.37" d="m-17.570998890044894,-19.07797401561579 l-3.001484940191677,-4.131189606246323 l4.856504649951074,1.5779740156158013 l3.001484940191677,4.131189606246323z"/>
<path fill="#B31B1B" fill-opacity="0.37" d="m17.570998890044887,-19.077974015615798 l3.001484940191677,-4.131189606246323 l-4.856504649951074,1.5779740156158013 l-3.001484940191677,4.131189606246323z"/>
<path fill="#B31B1B" fill-opacity="0.37" d="m23.573968770428237,-19.077974015615798 l-3.0014849401916734,-4.131189606246323 l4.856504649951074,1.5779740156158013 l3.0014849401916734,4.131189606246323z"/>
<path fill="#B31B1B" fill-opacity="0.9" d="m-7.857989590142749,-19.0779740156158 l4.856504649951073,1.5779740156158013 l3.001484940191672,-4.131189606246316 l-4.856504649951073,-1.5779740156158013z"/>
<path fill="#B31B1B" fill-opacity="0.9" d="m7.857989590142742,-19.0779740156158 l-4.856504649951072,1.5779740156158013 l-3.001484940191674,-4.131189606246316 l4.856504649951072,-1.5779740156158013z"/>
<path fill="#B31B1B" fill-opacity="0.9" d="m-38.143482720281455,-17.499999999999986 l4.85650464995107,-1.5779740156158013 l-7.105427357601002e-15,-5.106431181261041 l-4.85650464995107,1.5779740156158013z"/>
<path fill="#B31B1B" fill-opacity="0.9" d="m38.143482720281455,-17.5 l-4.85650464995107,-1.5779740156158013 l-7.105427357601002e-15,-5.106431181261041 l4.85650464995107,1.5779740156158013z"/>
<path fill="#B31B1B" fill-opacity="0.9" d="m-28.430473420379315,-17.499999999999993 l-4.85650464995107,-1.5779740156157942 l-7.105427357601002e-15,-5.106431181261041 l4.85650464995107,1.5779740156157942z"/>
<path fill="#B31B1B" fill-opacity="0.9" d="m28.430473420379307,-17.5 l4.856504649951077,-1.5779740156158013 l-7.105427357601002e-15,-5.106431181261041 l-4.856504649951077,1.5779740156158013z"/>
<path fill="#B31B1B" fill-opacity="0.9" d="m-12.71449424009382,-17.5 l1.7763568394002505e-15,-5.106431181261041 l4.856504649951071,-1.5779740156157978 l-1.7763568394002505e-15,5.106431181261041z"/>
<path fill="#B31B1B" fill-opacity="0.9" d="m12.714494240093813,-17.500000000000007 l-1.7763568394002505e-15,-5.106431181261041 l-4.856504649951073,-1.5779740156157906 l1.7763568394002505e-15,5.106431181261041z"/>
<path fill="#B31B1B" fill-opacity="0.37" d="m-38.14348272028146,-22.606431181261026 l7.105427357601002e-15,5.106431181261041 l-3.0014849401916806,-4.13118960624632 l-7.105427357601002e-15,-5.106431181261041z"/>
<path fill="#B31B1B" fill-opacity="0.37" d="m38.14348272028145,-22.60643118126104 l7.105427357601002e-15,5.106431181261041 l3.0014849401916663,-4.13118960624632 l-7.105427357601002e-15,-5.106431181261041z"/>
<path fill="#B31B1B" fill-opacity="0.37" d="m-28.430473420379318,-22.606431181261033 l3.552713678800501e-15,5.106431181261041 l3.00148494019167,-4.13118960624632 l-3.552713678800501e-15,-5.106431181261041z"/>
<path fill="#B31B1B" fill-opacity="0.37" d="m28.43047342037931,-22.60643118126104 l-3.552713678800501e-15,5.106431181261041 l-3.00148494019167,-4.13118960624632 l3.552713678800501e-15,-5.106431181261041z"/>
<path fill="#B31B1B" fill-opacity="0.37" d="m-12.714494240093819,-22.60643118126104 l-3.001484940191675,-4.131189606246316 l1.7763568394002505e-15,5.106431181261037 l3.001484940191675,4.131189606246316z"/>
<path fill="#B31B1B" fill-opacity="0.37" d="m12.714494240093812,-22.606431181261048 l3.0014849401916717,-4.131189606246316 l1.7763568394002505e-15,5.106431181261037 l-3.0014849401916717,4.131189606246316z"/>
<path fill="#B31B1B" fill-opacity="0.37" d="m-4.856504649951076,-23.209163621862118 l-1.7763568394002505e-15,-5.106431181261044 l-3.00148494019167,4.131189606246323 l1.7763568394002505e-15,5.106431181261044z"/>
<path fill="#B31B1B" fill-opacity="0.37" d="m4.856504649951067,-23.209163621862118 l0.0,-5.106431181261044 l3.0014849401916717,4.131189606246323 l-0.0,5.106431181261044z"/>
<path fill="#B31B1B" fill-opacity="0.9" d="m-20.57248383023657,-28.31559480312315 l-4.856504649951074,1.5779740156157978 l0.0,5.106431181261041 l4.856504649951074,-1.5779740156157978z"/>
<path fill="#B31B1B" fill-opacity="0.9" d="m-20.57248383023657,-28.31559480312315 l0.0,5.106431181261037 l4.856504649951074,1.5779740156158013 l-0.0,-5.106431181261037z"/>
<path fill="#B31B1B" fill-opacity="0.9" d="m20.572483830236564,-28.315594803123158 l0.0,5.106431181261037 l-4.856504649951074,1.5779740156158013 l-0.0,-5.106431181261037z"/>
<path fill="#B31B1B" fill-opacity="0.9" d="m20.572483830236564,-28.315594803123158 l4.856504649951074,1.5779740156157978 l0.0,5.106431181261041 l-4.856504649951074,-1.5779740156157978z"/>
<path fill="#B31B1B" fill-opacity="0.9" d="m-4.856504649951078,-28.31559480312316 l4.856504649951073,1.5779740156158013 l9.38036190179636e-16,5.106431181261044 l-4.856504649951073,-1.5779740156158013z"/>
<path fill="#B31B1B" fill-opacity="0.9" d="m4.856504649951067,-28.31559480312316 l-4.856504649951073,1.5779740156158013 l9.38036190179636e-16,5.106431181261044 l4.856504649951073,-1.5779740156158013z"/>
<path fill="#B31B1B" fill-opacity="0.9" d="m-20.572483830236564,-28.315594803123158 l4.85650464995107,1.5779740156158013 l1.7763568394002505e-15,5.106431181261037 l-4.85650464995107,-1.5779740156158013z"/>
<path fill="#B31B1B" fill-opacity="0.9" d="m20.572483830236557,-28.315594803123165 l-4.856504649951074,1.5779740156158013 l1.7763568394002505e-15,5.106431181261037 l4.856504649951074,-1.5779740156158013z"/>
<path fill="#B31B1B" fill-opacity="0.9" d="m-25.428988480187645,-26.737620787507353 l-3.0014849401916734,4.13118960624632 l-4.856504649951074,-1.5779740156157942 l3.0014849401916734,-4.13118960624632z"/>
<path fill="#B31B1B" fill-opacity="0.9" d="m25.428988480187638,-26.73762078750736 l3.0014849401916734,4.13118960624632 l4.8565046499510665,-1.5779740156158013 l-3.0014849401916734,-4.13118960624632z"/>
<path fill="#B31B1B" fill-opacity="0.9" d="m-15.715979180285494,-26.737620787507357 l4.856504649951072,-1.5779740156158013 l3.0014849401916743,4.13118960624632 l-4.856504649951072,1.5779740156158013z"/>
<path fill="#B31B1B" fill-opacity="0.9" d="m15.715979180285483,-26.737620787507364 l-4.856504649951072,-1.5779740156158013 l-3.0014849401916726,4.131189606246327 l4.856504649951072,1.5779740156158013z"/>
<path fill="#B31B1B" fill-opacity="0.9" d="m-7.8579895901427514,-32.446784409369485 l-3.001484940191671,4.131189606246327 l3.0014849401916743,4.13118960624632 l3.001484940191671,-4.131189606246327z"/>
<path fill="#B31B1B" fill-opacity="0.37" d="m-4.911621257135493e-15,-26.73762078750736 l4.856504649951073,-1.5779740156158013 l-4.856504649951073,-1.5779740156157978 l-4.856504649951073,1.5779740156158013z"/>
<path fill="#B31B1B" fill-opacity="0.9" d="m7.857989590142739,-32.446784409369485 l3.0014849401916726,4.13118960624632 l-3.0014849401916726,4.131189606246327 l-3.0014849401916726,-4.13118960624632z"/>
<path fill="#B31B1B" fill-opacity="0.9" d="m-20.572483830236564,-28.315594803123158 l3.0014849401916663,-4.131189606246327 l4.856504649951075,1.5779740156158049 l-3.0014849401916663,4.131189606246327z"/>
<path fill="#B31B1B" fill-opacity="0.37" d="m-10.859474530334422,-28.315594803123158 l-4.856504649951072,1.5779740156158013 l3.0014849401916717,-4.131189606246323 l4.856504649951072,-1.5779740156158013z"/>
<path fill="#B31B1B" fill-opacity="0.37" d="m10.859474530334412,-28.315594803123165 l4.856504649951072,1.5779740156158013 l-3.0014849401916717,-4.131189606246323 l-4.856504649951072,-1.5779740156158013z"/>
<path fill="#B31B1B" fill-opacity="0.9" d="m20.572483830236557,-28.315594803123165 l-3.0014849401916734,-4.13118960624632 l-4.856504649951072,1.5779740156157978 l3.0014849401916734,4.13118960624632z"/>
<path fill="#B31B1B" fill-opacity="0.9" d="m-7.8579895901427514,-32.446784409369485 l4.856504649951072,-1.5779740156158013 l3.0014849401916743,4.131189606246327 l-4.856504649951072,1.5779740156158013z"/>
<path fill="#B31B1B" fill-opacity="0.9" d="m7.857989590142739,-32.446784409369485 l-4.856504649951072,-1.5779740156158013 l-3.0014849401916726,4.131189606246327 l4.856504649951072,1.5779740156158013z"/>
<path fill="#B31B1B" fill-opacity="0.37" d="m-12.714494240093824,-34.02475842498528 l4.856504649951073,1.5779740156157942 l-4.856504649951071,1.5779740156158049 l-4.856504649951073,-1.5779740156157942z"/>
<path fill="#B31B1B" fill-opacity="0.37" d="m12.71449424009381,-34.02475842498528 l-4.856504649951071,1.5779740156157942 l4.856504649951073,1.5779740156157978 l4.856504649951071,-1.5779740156157942z"/>
<path fill="#B31B1B" fill-opacity="0.9" d="m-7.00913394373208e-15,-38.1559480312316 l3.0014849401916743,4.131189606246316 l-3.0014849401916726,4.131189606246327 l-3.0014849401916743,-4.131189606246316z"/>
<path fill="#B31B1B" fill-opacity="0.37" d="m-3.0014849401916797,-34.024758424985286 l3.0014849401916726,-4.131189606246316 l-4.856504649951073,1.5779740156157942 l-3.0014849401916726,4.131189606246316z"/>
<path fill="#B31B1B" fill-opacity="0.37" d="m3.0014849401916672,-34.024758424985286 l-3.0014849401916743,-4.131189606246316 l4.856504649951073,1.5779740156157942 l3.0014849401916743,4.131189606246316z"/>
<path fill="#B31B1B" fill-opacity="0.9" d="m-17.570998890044898,-32.446784409369485 l4.856504649951074,-1.5779740156157942 l0.0,-5.106431181261044 l-4.856504649951074,1.5779740156157942z"/>
<path fill="#B31B1B" fill-opacity="0.9" d="m-7.8579895901427514,-32.446784409369485 l-8.881784197001252e-16,-5.106431181261044 l-4.856504649951072,-1.5779740156157942 l8.881784197001252e-16,5.106431181261044z"/>
<path fill="#B31B1B" fill-opacity="0.9" d="m7.857989590142739,-32.446784409369485 l-8.881784197001252e-16,-5.106431181261044 l4.856504649951072,-1.5779740156157942 l8.881784197001252e-16,5.106431181261044z"/>
<path fill="#B31B1B" fill-opacity="0.9" d="m17.570998890044883,-32.446784409369485 l-4.856504649951074,-1.5779740156157942 l0.0,-5.106431181261044 l4.856504649951074,1.5779740156157942z"/>
<path fill="#B31B1B" fill-opacity="0.37" d="m-7.857989590142752,-37.55321559063053 l8.881784197001252e-16,5.106431181261044 l3.0014849401916717,-4.131189606246323 l-8.881784197001252e-16,-5.106431181261044z"/>
<path fill="#B31B1B" fill-opacity="0.37" d="m7.857989590142738,-37.55321559063053 l8.881784197001252e-16,5.106431181261044 l-3.0014849401916734,-4.131189606246323 l-8.881784197001252e-16,-5.106431181261044z"/>
<path fill="#B31B1B" fill-opacity="0.9" d="m-7.947170133911717e-15,-43.26237921249265 l9.380361901796367e-16,5.106431181261044 l-4.856504649951073,1.5779740156157942 l-9.380361901796367e-16,-5.106431181261044z"/>
<path fill="#B31B1B" fill-opacity="0.9" d="m-7.947170133911717e-15,-43.26237921249265 l9.380361901796367e-16,5.106431181261044 l4.856504649951073,1.5779740156157942 l-9.380361901796367e-16,-5.106431181261044z"/>
<path fill="#B31B1B" fill-opacity="0.9" d="m-4.85650464995108,-41.684405196876845 l-3.0014849401916726,4.131189606246316 l-4.856504649951072,-1.5779740156157942 l3.0014849401916726,-4.131189606246316z"/>
<path fill="#B31B1B" fill-opacity="0.9" d="m4.856504649951064,-41.684405196876845 l3.0014849401916743,4.131189606246316 l4.856504649951072,-1.5779740156157942 l-3.0014849401916743,-4.131189606246316z"/>
<path fill="#B31B1B" fill-opacity="0.37" d="m-9.71300929990215,-43.26237921249265 l4.856504649951071,1.5779740156158013 l-3.0014849401916734,-4.131189606246316 l-4.856504649951071,-1.5779740156158013z"/>
<path fill="#B31B1B" fill-opacity="0.9" d="m-7.947170133911717e-15,-43.26237921249265 l-3.0014849401916734,-4.131189606246309 l-4.856504649951072,1.5779740156157942 l3.0014849401916734,4.131189606246309z"/>
<path fill="#B31B1B" fill-opacity="0.9" d="m-7.947170133911717e-15,-43.26237921249265 l3.0014849401916717,-4.131189606246309 l4.856504649951074,1.5779740156157942 l-3.0014849401916717,4.131189606246309z"/>
<path fill="#B31B1B" fill-opacity="0.37" d="m9.713009299902136,-43.26237921249265 l-4.856504649951073,1.5779740156158013 l3.0014849401916734,-4.131189606246316 l4.856504649951073,-1.5779740156158013z"/>
<path fill="#B31B1B" fill-opacity="0.37" d="m-3.0014849401916814,-47.393568818738956 l-8.881784197001252e-16,-5.106431181261044 l3.0014849401916734,4.131189606246316 l8.881784197001252e-16,5.106431181261044z"/>
<path fill="#B31B1B" fill-opacity="0.37" d="m3.0014849401916637,-47.393568818738956 l-8.881784197001252e-16,-5.106431181261044 l-3.0014849401916717,4.131189606246316 l8.881784197001252e-16,5.106431181261044z"/>
<path fill="#B31B1B" fill-opacity="0.9" d="m-3.0014849401916823,-52.5 l8.881784197001252e-16,5.106431181261044 l-4.856504649951072,1.5779740156157942 l-8.881784197001252e-16,-5.106431181261044z"/>
<path fill="#B31B1B" fill-opacity="0.9" d="m3.001484940191663,-52.5 l8.881784197001252e-16,5.106431181261044 l4.856504649951074,1.5779740156157942 l-8.881784197001252e-16,-5.106431181261044z"/>
<path fill="#B31B1B" fill-opacity="0.9" d="m-1.0402980762479462e-14,-56.63118960624632 l3.001484940191673,4.131189606246323 l-3.0014849401916717,4.131189606246316 l-3.001484940191673,-4.131189606246323z"/>
</g>
</svg>