<?xml version="1.0" encoding="utf-8"?>
<svg width="100%" height="100%" viewBox="-70.0 -70.0 140.0 140.0" preserveAspectRatio="xMidYMid meet" version="1.1" baseProfile="full" xmlns="http://www.w3.org/2000/svg">
<g style="stroke:#FFFFFF; stroke-width: 1.2978713763747793; stroke-linejoin: round;">
<path fill="#B31B1B" fill-opacity="0.37" d="m-39.13118960624632,-12.71449424009382 l21.631189606246327,3.552713678800501e-15 l-17.500000000000004,12.71449424009381 l-21.631189606246327,-3.552713678800501e-15z"/>
<path fill="#B31B1B" fill-opacity="0.37" d="m-39.13118960624632,12.71449424009382 l21.631189606246327,-3.552713678800501e-15 l-17.500000000000004,-12.71449424009381 l-21.631189606246327,3.552713678800501e-15z"/>
<path fill="#B31B1B" fill-opacity="0.9" d="m-17.499999999999996,-12.714494240093812 l-6.684405196876842,-20.572483830236564 l-21.631189606246323,7.105427357601002e-15 l6.684405196876842,20.572483830236564z"/>
<path fill="#B31B1B" fill-opacity="0.9" d="m-17.499999999999996,12.714494240093812 l-6.684405196876842,20.572483830236564 l-21.631189606246323,-7.105427357601002e-15 l6.684405196876842,-20.572483830236564z"/>
<path fill="#B31B1B" fill-opacity="0.9" d="m-17.499999999999996,-12.714494240093817 l-21.631189606246327,-3.552713678800501e-15 l-6.684405196876831,-20.572483830236564 l21.631189606246327,3.552713678800501e-15z"/>
<path fill="#B31B1B" fill-opacity="0.9" d="m-17.499999999999996,12.714494240093817 l-21.631189606246327,3.552713678800501e-15 l-6.684405196876831,20.572483830236564 l21.631189606246327,-3.552713678800501e-15z"/>
<path fill="#B31B1B" fill-opacity="0.37" d="m-24.18440519687684,-33.28697807033038 l6.684405196876842,20.572483830236564 l6.684405196876835,-20.572483830236564 l-6.684405196876842,-20.572483830236564z"/>
<path fill="#B31B1B" fill-opacity="0.9" d="m0.0,-0.0 l-17.499999999999996,-12.714494240093817 l-17.500000000000004,12.71449424009381 l17.499999999999996,12.714494240093817z"/>
<path fill="#B31B1B" fill-opacity="0.9" d="m0.0,0.0 l-17.499999999999996,12.714494240093817 l-17.500000000000004,-12.71449424009381 l17.499999999999996,-12.714494240093817z"/>
<path fill="#B31B1B" fill-opacity="0.37" d="m-24.18440519687684,33.28697807033038 l6.684405196876842,-20.572483830236564 l6.684405196876835,20.572483830236564 l-6.684405196876842,20.572483830236564z"/>
<path fill="#B31B1B" fill-opacity="0.9" d="m0.0,0.0 l-17.499999999999996,-12.714494240093812 l6.684405196876835,-20.572483830236564 l17.499999999999996,12.714494240093812z"/>
<path fill="#B31B1B" fill-opacity="0.9" d="m0.0,-0.0 l-17.499999999999996,12.714494240093812 l6.684405196876835,20.572483830236564 l17.499999999999996,-12.714494240093812z"/>
<path fill="#B31B1B" fill-opacity="0.9" d="m0.0,-0.0 l6.684405196876841,-20.572483830236557 l-17.499999999999996,-12.71449424009382 l-6.684405196876841,20.572483830236557z"/>
<path fill="#B31B1B" fill-opacity="0.9" d="m0.0,0.0 l6.684405196876841,20.572483830236557 l-17.499999999999996,12.71449424009382 l-6.684405196876841,-20.572483830236557z"/>
<path fill="#B31B1B" fill-opacity="0.37" d="m2.6645352591003757e-15,-41.14496766047312 l6.684405196876838,20.572483830236564 l-17.499999999999996,-12.71449424009382 l-6.684405196876838,-20.572483830236564z"/>
<path fill="#B31B1B" fill-opacity="0.37" d="m2.6645352591003757e-15,41.14496766047312 l6.684405196876838,-20.572483830236564 l-17.499999999999996,12.71449424009382 l-6.684405196876838,20.572483830236564z"/>
<path fill="#B31B1B" fill-opacity="0.9" d="m6.684405196876835,-20.57248383023656 l17.5,-12.714494240093824 l-6.684405196876845,-20.572483830236557 l-17.5,12.714494240093824z"/>
<path fill="#B31B1B" fill-opacity="0.9" d="m6.684405196876835,20.57248383023656 l17.5,12.714494240093824 l-6.684405196876845,20.572483830236557 l-17.5,-12.714494240093824z"/>
<path fill="#B31B1B" fill-opacity="0.9" d="m6.684405196876841,-20.572483830236557 l-6.684405196876838,-20.572483830236564 l17.5,-12.714494240093813 l6.684405196876838,20.572483830236564z"/>
<path fill="#B31B1B" fill-opacity="0.9" d="m6.684405196876841,20.572483830236557 l-6.684405196876838,20.572483830236564 l17.5,12.714494240093813 l6.684405196876838,-20.572483830236564z"/>
<path fill="#B31B1B" fill-opacity="0.9" d="m0.0,0.0 l6.684405196876835,-20.57248383023656 l21.63118960624632,-7.105427357601002e-15 l-6.684405196876835,20.57248383023656z"/>
<path fill="#B31B1B" fill-opacity="0.9" d="m0.0,-0.0 l6.684405196876835,20.57248383023656 l21.63118960624632,7.105427357601002e-15 l-6.684405196876835,-20.57248383023656z"/>
<path fill="#B31B1B" fill-opacity="0.9" d="m0.0,-0.0 l21.631189606246316,0.0 l6.684405196876845,-20.57248383023656 l-21.631189606246316,-0.0z"/>
<path fill="#B31B1B" fill-opacity="0.9" d="m0.0,0.0 l21.631189606246316,0.0 l6.684405196876845,20.57248383023656 l-21.631189606246316,-0.0z"/>
<path fill="#B31B1B" fill-opacity="0.37" d="m24.184405196876835,-33.286978070330385 l-17.5,12.714494240093824 l21.63118960624632,-7.105427357601002e-15 l17.5,-12.714494240093824z"/>
<path fill="#B31B1B" fill-opacity="0.37" d="m24.184405196876835,33.286978070330385 l-17.5,-12.714494240093824 l21.63118960624632,7.105427357601002e-15 l17.5,12.714494240093824z"/>
<path fill="#B31B1B" fill-opacity="0.37" d="m39.13118960624632,-12.714494240093817 l-17.500000000000007,12.714494240093817 l6.684405196876845,-20.57248383023656 l17.500000000000007,-12.714494240093817z"/>
<path fill="#B31B1B" fill-opacity="0.37" d="m39.13118960624632,12.714494240093817 l-17.500000000000007,-12.714494240093817 l6.684405196876845,20.57248383023656 l17.500000000000007,12.714494240093817z"/>
<path fill="#B31B1B" fill-opacity="0.9" d="m21.631189606246316,0.0 l17.500000000000007,12.714494240093817 l17.5,-12.714494240093817 l-17.500000000000007,-12.714494240093817z"/>
</g>
</svg>