<?xml version="1.0" encoding="utf-8"?>
<svg width="100%" height="100%" viewBox="-70.0 -70.0 140.0 140.0" preserveAspectRatio="xMidYMid meet" version="1.1" baseProfile="full" xmlns="http://www.w3.org/2000/svg">
<g style="stroke:#FFFFFF; stroke-width: 0.802128623625221; stroke-linejoin: round;">
<path fill="#B31B1B" fill-opacity="0.9" d="m-45.815594803123155,-33.286978070330385 l10.815594803123162,7.8579895901427435 l-4.1311896062463305,12.71449424009382 l-10.815594803123162,-7.8579895901427435z"/>
<path fill="#B31B1B" fill-opacity="0.9" d="m-45.815594803123155,33.286978070330385 l10.815594803123162,-7.8579895901427435 l-4.1311896062463305,-12.71449424009382 l-10.815594803123162,7.8579895901427435z"/>
<path fill="#B31B1B" fill-opacity="0.9" d="m-45.81559480312316,-33.28697807033037 l10.815594803123162,7.8579895901427435 l10.815594803123162,-7.857989590142751 l-10.815594803123162,-7.8579895901427435z"/>
<path fill="#B31B1B" fill-opacity="0.37" d="m-30.868810393753684,-12.71449424009382 l-4.131189606246309,-12.71449424009382 l-4.1311896062463305,12.71449424009382 l4.131189606246309,12.71449424009382z"/>
<path fill="#B31B1B" fill-opacity="0.37" d="m-30.868810393753684,12.71449424009382 l-4.131189606246309,12.71449424009382 l-4.1311896062463305,-12.71449424009382 l4.131189606246309,-12.71449424009382z"/>
<path fill="#B31B1B" fill-opacity="0.9" d="m-45.81559480312316,33.28697807033037 l10.815594803123162,-7.8579895901427435 l10.815594803123162,7.857989590142751 l-10.815594803123162,7.8579895901427435z"/>
<path fill="#B31B1B" fill-opacity="0.9" d="m-35.0,-25.428988480187627 l13.368810393753684,-7.105427357601002e-15 l4.13118960624632,12.714494240093822 l-13.368810393753684,7.105427357601002e-15z"/>
<path fill="#B31B1B" fill-opacity="0.9" d="m-35.0,-7.105427357601002e-15 l4.131189606246316,-12.714494240093813 l13.368810393753687,3.552713678800501e-15 l-4.131189606246316,12.714494240093813z"/>
<path fill="#B31B1B" fill-opacity="0.9" d="m-35.0,7.105427357601002e-15 l4.131189606246316,12.714494240093813 l13.368810393753687,-3.552713678800501e-15 l-4.131189606246316,-12.714494240093813z"/>
<path fill="#B31B1B" fill-opacity="0.9" d="m-35.0,25.428988480187627 l13.368810393753684,7.105427357601002e-15 l4.13118960624632,-12.714494240093822 l-13.368810393753684,-7.105427357601002e-15z"/>
<path fill="#B31B1B" fill-opacity="0.9" d="m-34.99999999999999,-25.42898848018764 l4.131189606246309,12.71449424009382 l13.368810393753687,3.552713678800501e-15 l-4.131189606246309,-12.71449424009382z"/>
<path fill="#B31B1B" fill-opacity="0.9" d="m-34.99999999999999,25.42898848018764 l4.131189606246309,-12.71449424009382 l13.368810393753687,-3.552713678800501e-15 l-4.131189606246309,12.71449424009382z"/>
<path fill="#B31B1B" fill-opacity="0.37" d="m-21.631189606246316,-25.428988480187634 l-13.368810393753684,7.105427357601002e-15 l10.815594803123162,-7.857989590142751 l13.368810393753684,-7.105427357601002e-15z"/>
<path fill="#B31B1B" fill-opacity="0.37" d="m-21.631189606246316,25.428988480187634 l-13.368810393753684,-7.105427357601002e-15 l10.815594803123162,7.857989590142751 l13.368810393753684,7.105427357601002e-15z"/>
<path fill="#B31B1B" fill-opacity="0.9" d="m-10.815594803123162,-33.28697807033038 l-10.815594803123155,7.8579895901427435 l4.13118960624632,12.714494240093822 l10.815594803123155,-7.8579895901427435z"/>
<path fill="#B31B1B" fill-opacity="0.9" d="m-10.815594803123162,33.28697807033038 l-10.815594803123155,-7.8579895901427435 l4.13118960624632,-12.714494240093822 l10.815594803123155,7.8579895901427435z"/>
<path fill="#B31B1B" fill-opacity="0.37" d="m-10.815594803123158,-7.857989590142745 l-10.815594803123165,7.857989590142741 l4.131189606246327,-12.714494240093813 l10.815594803123165,-7.857989590142741z"/>
<path fill="#B31B1B" fill-opacity="0.37" d="m-10.815594803123158,-7.857989590142743 l4.131189606246316,-12.71449424009382 l-10.815594803123155,7.857989590142752 l-4.131189606246316,12.71449424009382z"/>
<path fill="#B31B1B" fill-opacity="0.37" d="m-10.815594803123158,7.857989590142743 l4.131189606246316,12.71449424009382 l-10.815594803123155,-7.857989590142752 l-4.131189606246316,-12.71449424009382z"/>
<path fill="#B31B1B" fill-opacity="0.37" d="m-10.815594803123158,7.857989590142745 l-10.815594803123165,-7.857989590142741 l4.131189606246327,12.714494240093813 l10.815594803123165,7.857989590142741z"/>
<path fill="#B31B1B" fill-opacity="0.9" d="m-21.631189606246323,-4.391395611590773e-15 l10.815594803123165,-7.857989590142741 l10.815594803123158,7.857989590142745 l-10.815594803123165,7.857989590142741z"/>
<path fill="#B31B1B" fill-opacity="0.9" d="m-21.631189606246323,4.391395611590773e-15 l10.815594803123165,7.857989590142741 l10.815594803123158,-7.857989590142745 l-10.815594803123165,-7.857989590142741z"/>
<path fill="#B31B1B" fill-opacity="0.9" d="m-6.684405196876842,-20.572483830236564 l-4.131189606246316,12.71449424009382 l10.815594803123158,7.857989590142743 l4.131189606246316,-12.71449424009382z"/>
<path fill="#B31B1B" fill-opacity="0.9" d="m-6.684405196876842,20.572483830236564 l-4.131189606246316,-12.71449424009382 l10.815594803123158,-7.857989590142743 l4.131189606246316,12.71449424009382z"/>
<path fill="#B31B1B" fill-opacity="0.9" d="m-6.684405196876838,-20.572483830236564 l10.815594803123158,7.857989590142749 l-4.131189606246321,12.714494240093815 l-10.815594803123158,-7.857989590142749z"/>
<path fill="#B31B1B" fill-opacity="0.9" d="m-6.684405196876838,20.572483830236564 l10.815594803123158,-7.857989590142749 l-4.131189606246321,-12.714494240093815 l-10.815594803123158,7.857989590142749z"/>
<path fill="#B31B1B" fill-opacity="0.9" d="m-10.815594803123156,-33.28697807033038 l13.368810393753678,0.0 l4.131189606246319,12.71449424009382 l-13.368810393753678,-0.0z"/>
<path fill="#B31B1B" fill-opacity="0.9" d="m-10.815594803123156,33.28697807033038 l13.368810393753678,0.0 l4.131189606246319,-12.71449424009382 l-13.368810393753678,-0.0z"/>
<path fill="#B31B1B" fill-opacity="0.37" d="m2.553215590630522,-33.28697807033038 l10.815594803123162,-7.8579895901427435 l-13.36881039375368,0.0 l-10.815594803123162,7.8579895901427435z"/>
<path fill="#B31B1B" fill-opacity="0.37" d="m2.553215590630522,33.28697807033038 l10.815594803123162,7.8579895901427435 l-13.36881039375368,0.0 l-10.815594803123162,-7.8579895901427435z"/>
<path fill="#B31B1B" fill-opacity="0.37" d="m4.131189606246317,-12.714494240093817 l13.368810393753684,-5.329070518200751e-15 l-10.815594803123165,-7.857989590142738 l-13.368810393753684,5.329070518200751e-15z"/>
<path fill="#B31B1B" fill-opacity="0.37" d="m4.131189606246317,12.714494240093817 l13.368810393753684,5.329070518200751e-15 l-10.815594803123165,7.857989590142738 l-13.368810393753684,-5.329070518200751e-15z"/>
<path fill="#B31B1B" fill-opacity="0.37" d="m4.131189606246321,-12.714494240093815 l-10.815594803123158,-7.857989590142749 l13.36881039375368,7.105427357601002e-15 l10.815594803123158,7.857989590142749z"/>
<path fill="#B31B1B" fill-opacity="0.37" d="m4.131189606246321,12.714494240093815 l-10.815594803123158,7.857989590142749 l13.36881039375368,-7.105427357601002e-15 l10.815594803123158,-7.857989590142749z"/>
<path fill="#B31B1B" fill-opacity="0.9" d="m17.5,-12.714494240093822 l-13.368810393753684,5.329070518200751e-15 l-4.131189606246317,12.714494240093817 l13.368810393753684,-5.329070518200751e-15z"/>
<path fill="#B31B1B" fill-opacity="0.9" d="m17.5,12.714494240093822 l-13.368810393753684,-5.329070518200751e-15 l-4.131189606246317,-12.714494240093817 l13.368810393753684,5.329070518200751e-15z"/>
<path fill="#B31B1B" fill-opacity="0.9" d="m17.500000000000004,-12.714494240093817 l-4.131189606246323,12.714494240093817 l-13.36881039375368,0.0 l4.131189606246323,-12.714494240093817z"/>
<path fill="#B31B1B" fill-opacity="0.9" d="m17.500000000000004,12.714494240093817 l-4.131189606246323,-12.714494240093817 l-13.36881039375368,0.0 l4.131189606246323,12.714494240093817z"/>
<path fill="#B31B1B" fill-opacity="0.9" d="m17.500000000000004,-53.859461900566934 l-4.13118960624632,12.714494240093813 l-13.36881039375368,0.0 l4.13118960624632,-12.714494240093813z"/>
<path fill="#B31B1B" fill-opacity="0.9" d="m17.500000000000004,53.859461900566934 l-4.13118960624632,-12.714494240093813 l-13.36881039375368,0.0 l4.13118960624632,12.714494240093813z"/>
<path fill="#B31B1B" fill-opacity="0.9" d="m13.368810393753673,-41.14496766047313 l4.131189606246323,12.714494240093817 l-10.815594803123162,7.857989590142751 l-4.131189606246323,-12.714494240093817z"/>
<path fill="#B31B1B" fill-opacity="0.9" d="m13.368810393753673,41.14496766047313 l4.131189606246323,-12.714494240093817 l-10.815594803123162,-7.857989590142751 l-4.131189606246323,12.714494240093817z"/>
<path fill="#B31B1B" fill-opacity="0.9" d="m13.368810393753684,-41.14496766047312 l-10.815594803123162,7.8579895901427435 l4.131189606246319,12.71449424009382 l10.815594803123162,-7.8579895901427435z"/>
<path fill="#B31B1B" fill-opacity="0.9" d="m13.368810393753684,41.14496766047312 l-10.815594803123162,-7.8579895901427435 l4.131189606246319,-12.71449424009382 l10.815594803123162,7.8579895901427435z"/>
<path fill="#B31B1B" fill-opacity="0.9" d="m28.315594803123155,-20.572483830236568 l-10.815594803123158,-7.8579895901427435 l-10.815594803123162,7.857989590142751 l10.815594803123158,7.8579895901427435z"/>
<path fill="#B31B1B" fill-opacity="0.9" d="m28.315594803123155,20.572483830236568 l-10.815594803123158,7.8579895901427435 l-10.815594803123162,-7.857989590142751 l10.815594803123158,-7.8579895901427435z"/>
<path fill="#B31B1B" fill-opacity="0.37" d="m13.36881039375368,0.0 l4.131189606246323,12.714494240093817 l4.131189606246313,-12.714494240093817 l-4.131189606246323,-12.714494240093817z"/>
<path fill="#B31B1B" fill-opacity="0.9" d="m17.49999999999999,-53.85946190056694 l-4.131189606246316,12.714494240093813 l10.815594803123162,7.8579895901427435 l4.131189606246316,-12.714494240093813z"/>
<path fill="#B31B1B" fill-opacity="0.9" d="m17.49999999999999,53.85946190056694 l-4.131189606246316,-12.714494240093813 l10.815594803123162,-7.8579895901427435 l4.131189606246316,12.714494240093813z"/>
<path fill="#B31B1B" fill-opacity="0.37" d="m17.499999999999996,-28.43047342037931 l-4.131189606246323,-12.714494240093817 l10.815594803123162,7.8579895901427435 l4.131189606246323,12.714494240093817z"/>
<path fill="#B31B1B" fill-opacity="0.37" d="m17.499999999999996,28.43047342037931 l-4.131189606246323,12.714494240093817 l10.815594803123162,-7.8579895901427435 l4.131189606246323,-12.714494240093817z"/>
<path fill="#B31B1B" fill-opacity="0.9" d="m28.31559480312316,-20.57248383023656 l4.131189606246323,12.714494240093815 l-10.815594803123169,7.857989590142745 l-4.131189606246323,-12.714494240093815z"/>
<path fill="#B31B1B" fill-opacity="0.9" d="m28.31559480312316,20.57248383023656 l4.131189606246323,-12.714494240093815 l-10.815594803123169,-7.857989590142745 l-4.131189606246323,12.714494240093815z"/>
<path fill="#B31B1B" fill-opacity="0.9" d="m43.26237921249265,0.0 l-10.815594803123162,7.857989590142745 l-10.815594803123169,-7.857989590142745 l10.815594803123162,-7.857989590142745z"/>
<path fill="#B31B1B" fill-opacity="0.37" d="m32.446784409369485,-7.857989590142745 l10.815594803123162,7.857989590142745 l-4.131189606246323,-12.714494240093817 l-10.815594803123162,-7.857989590142745z"/>
<path fill="#B31B1B" fill-opacity="0.37" d="m32.446784409369485,7.857989590142745 l10.815594803123162,-7.857989590142745 l-4.131189606246323,12.714494240093817 l-10.815594803123162,7.857989590142745z"/>
<path fill="#B31B1B" fill-opacity="0.9" d="m56.63118960624632,-0.0 l-13.368810393753677,0.0 l-4.131189606246323,-12.714494240093817 l13.368810393753677,-0.0z"/>
<path fill="#B31B1B" fill-opacity="0.9" d="m56.63118960624632,0.0 l-13.368810393753677,0.0 l-4.131189606246323,12.714494240093817 l13.368810393753677,-0.0z"/>
</g>
</svg>