<?xml version="1.0" encoding="utf-8"?>
<svg width="100%" height="100%" viewBox="-70.0 -70.0 140.0 140.0" preserveAspectRatio="xMidYMid meet" version="1.1" baseProfile="full" xmlns="http://www.w3.org/2000/svg">
<g style="stroke:#FFFFFF; stroke-width: 0.4957427527495585; stroke-linejoin: round;">
<path fill="#B31B1B" fill-opacity="0.9" d="m-41.68440519687684,-20.572483830236564 l2.553215590630529,-7.857989590142751 l-6.684405196876845,-4.85650464995107 l-2.553215590630529,7.857989590142751z"/>
<path fill="#B31B1B" fill-opacity="0.9" d="m-41.68440519687684,20.572483830236564 l2.553215590630529,7.857989590142751 l-6.684405196876845,4.85650464995107 l-2.553215590630529,-7.857989590142751z"/>
<path fill="#B31B1B" fill-opacity="0.9" d="m-32.44678440936948,-33.28697807033038 l-6.684405196876845,4.856504649951077 l-6.684405196876838,-4.85650464995107 l6.684405196876845,-4.856504649951077z"/>
<path fill="#B31B1B" fill-opacity="0.9" d="m-32.44678440936948,33.28697807033038 l-6.684405196876845,-4.856504649951077 l-6.684405196876838,4.85650464995107 l6.684405196876845,4.856504649951077z"/>
<path fill="#B31B1B" fill-opacity="0.37" d="m-39.13118960624632,-28.4304734203793 l6.684405196876845,-4.856504649951077 l-2.553215590630522,7.857989590142751 l-6.684405196876845,4.856504649951077z"/>
<path fill="#B31B1B" fill-opacity="0.9" d="m-39.13118960624632,-12.71449424009382 l6.684405196876845,-4.856504649951074 l-2.553215590630515,-7.857989590142747 l-6.684405196876845,4.856504649951074z"/>
<path fill="#B31B1B" fill-opacity="0.9" d="m-39.13118960624632,-12.71449424009382 l6.684405196876845,4.85650464995107 l-2.553215590630522,7.8579895901427435 l-6.684405196876845,-4.85650464995107z"/>
<path fill="#B31B1B" fill-opacity="0.9" d="m-39.13118960624632,12.71449424009382 l6.684405196876845,-4.85650464995107 l-2.553215590630522,-7.8579895901427435 l-6.684405196876845,4.85650464995107z"/>
<path fill="#B31B1B" fill-opacity="0.9" d="m-39.13118960624632,12.71449424009382 l6.684405196876845,4.856504649951074 l-2.553215590630515,7.857989590142747 l-6.684405196876845,-4.856504649951074z"/>
<path fill="#B31B1B" fill-opacity="0.37" d="m-39.13118960624632,28.4304734203793 l6.684405196876845,4.856504649951077 l-2.553215590630522,-7.857989590142751 l-6.684405196876845,-4.856504649951077z"/>
<path fill="#B31B1B" fill-opacity="0.37" d="m-39.13118960624631,-28.430473420379315 l-2.553215590630529,7.857989590142751 l6.684405196876845,-4.856504649951077 l2.553215590630529,-7.857989590142751z"/>
<path fill="#B31B1B" fill-opacity="0.37" d="m-39.13118960624631,28.430473420379315 l-2.553215590630529,-7.857989590142751 l6.684405196876845,4.856504649951077 l2.553215590630529,7.857989590142751z"/>
<path fill="#B31B1B" fill-opacity="0.37" d="m-32.44678440936948,-17.570998890044894 l8.262379212492647,3.552713678800501e-15 l-6.6844051968768525,4.85650464995107 l-8.262379212492647,-3.552713678800501e-15z"/>
<path fill="#B31B1B" fill-opacity="0.37" d="m-32.44678440936948,-7.857989590142751 l-6.684405196876845,-4.85650464995107 l8.26237921249264,0.0 l6.684405196876845,4.85650464995107z"/>
<path fill="#B31B1B" fill-opacity="0.37" d="m-32.44678440936948,7.857989590142751 l-6.684405196876845,4.85650464995107 l8.26237921249264,0.0 l6.684405196876845,-4.85650464995107z"/>
<path fill="#B31B1B" fill-opacity="0.37" d="m-32.44678440936948,17.570998890044894 l8.262379212492647,-3.552713678800501e-15 l-6.6844051968768525,-4.85650464995107 l-8.262379212492647,3.552713678800501e-15z"/>
<path fill="#B31B1B" fill-opacity="0.9" d="m-24.18440519687684,-33.28697807033038 l-2.553215590630522,7.857989590142747 l-8.26237921249264,3.552713678800501e-15 l2.553215590630522,-7.857989590142747z"/>
<path fill="#B31B1B" fill-opacity="0.9" d="m-24.18440519687684,-17.570998890044883 l-2.553215590630522,-7.857989590142747 l-8.26237921249264,3.552713678800501e-15 l2.553215590630522,7.857989590142747z"/>
<path fill="#B31B1B" fill-opacity="0.9" d="m-24.18440519687684,-7.857989590142748 l-8.26237921249264,-2.6645352591003757e-15 l-2.553215590630522,7.8579895901427435 l8.26237921249264,2.6645352591003757e-15z"/>
<path fill="#B31B1B" fill-opacity="0.9" d="m-24.18440519687684,7.857989590142748 l-8.26237921249264,2.6645352591003757e-15 l-2.553215590630522,-7.8579895901427435 l8.26237921249264,-2.6645352591003757e-15z"/>
<path fill="#B31B1B" fill-opacity="0.9" d="m-24.18440519687684,17.570998890044883 l-2.553215590630522,7.857989590142747 l-8.26237921249264,-3.552713678800501e-15 l2.553215590630522,-7.857989590142747z"/>
<path fill="#B31B1B" fill-opacity="0.9" d="m-24.18440519687684,33.28697807033038 l-2.553215590630522,-7.857989590142747 l-8.26237921249264,-3.552713678800501e-15 l2.553215590630522,7.857989590142747z"/>
<path fill="#B31B1B" fill-opacity="0.9" d="m-24.18440519687683,-17.57099889004489 l-8.262379212492647,-3.552713678800501e-15 l-2.553215590630515,-7.857989590142747 l8.262379212492647,3.552713678800501e-15z"/>
<path fill="#B31B1B" fill-opacity="0.9" d="m-24.18440519687683,17.57099889004489 l-8.262379212492647,3.552713678800501e-15 l-2.553215590630515,7.857989590142747 l8.262379212492647,-3.552713678800501e-15z"/>
<path fill="#B31B1B" fill-opacity="0.37" d="m-26.73762078750736,-5.4280634920204584e-15 l2.553215590630522,-7.857989590142743 l2.553215590630515,7.8579895901427435 l-2.553215590630522,7.857989590142743z"/>
<path fill="#B31B1B" fill-opacity="0.37" d="m-26.73762078750736,5.4280634920204584e-15 l2.553215590630522,7.857989590142743 l2.553215590630515,-7.8579895901427435 l-2.553215590630522,-7.857989590142743z"/>
<path fill="#B31B1B" fill-opacity="0.37" d="m-26.73762078750736,-25.42898848018763 l2.553215590630522,7.857989590142747 l2.553215590630522,-7.857989590142751 l-2.553215590630522,-7.857989590142747z"/>
<path fill="#B31B1B" fill-opacity="0.9" d="m-17.499999999999996,-12.714494240093817 l-6.684405196876835,-4.856504649951074 l-6.6844051968768525,4.85650464995107 l6.684405196876835,4.856504649951074z"/>
<path fill="#B31B1B" fill-opacity="0.9" d="m-17.499999999999996,12.714494240093817 l-6.684405196876835,4.856504649951074 l-6.6844051968768525,-4.85650464995107 l6.684405196876835,-4.856504649951074z"/>
<path fill="#B31B1B" fill-opacity="0.37" d="m-26.73762078750736,25.42898848018763 l2.553215590630522,-7.857989590142747 l2.553215590630522,7.857989590142751 l-2.553215590630522,7.857989590142747z"/>
<path fill="#B31B1B" fill-opacity="0.9" d="m-17.499999999999996,-12.714494240093817 l2.5532155906305167,7.857989590142743 l-6.684405196876844,4.85650464995107 l-2.5532155906305167,-7.857989590142743z"/>
<path fill="#B31B1B" fill-opacity="0.9" d="m-17.499999999999996,12.714494240093817 l2.5532155906305167,-7.857989590142743 l-6.684405196876844,-4.85650464995107 l-2.5532155906305167,7.857989590142743z"/>
<path fill="#B31B1B" fill-opacity="0.37" d="m-17.5,-28.430473420379307 l-6.684405196876838,-4.85650464995107 l2.553215590630522,7.8579895901427435 l6.684405196876838,4.85650464995107z"/>
<path fill="#B31B1B" fill-opacity="0.37" d="m-17.5,28.430473420379307 l-6.684405196876838,4.85650464995107 l2.553215590630522,-7.8579895901427435 l6.684405196876838,-4.85650464995107z"/>
<path fill="#B31B1B" fill-opacity="0.9" d="m-17.499999999999996,-12.714494240093812 l-6.684405196876842,-4.856504649951072 l2.553215590630522,-7.857989590142751 l6.684405196876842,4.856504649951072z"/>
<path fill="#B31B1B" fill-opacity="0.9" d="m-17.499999999999996,12.714494240093812 l-6.684405196876842,4.856504649951072 l2.553215590630522,7.857989590142751 l6.684405196876842,-4.856504649951072z"/>
<path fill="#B31B1B" fill-opacity="0.9" d="m-24.18440519687684,-33.28697807033038 l6.684405196876838,4.85650464995107 l6.684405196876838,-4.85650464995107 l-6.684405196876838,-4.85650464995107z"/>
<path fill="#B31B1B" fill-opacity="0.9" d="m-24.18440519687684,33.28697807033038 l6.684405196876838,-4.85650464995107 l6.684405196876838,4.85650464995107 l-6.684405196876838,4.85650464995107z"/>
<path fill="#B31B1B" fill-opacity="0.9" d="m-8.26237921249264,-1.6773638655805434e-15 l-6.68440519687684,-4.856504649951073 l-6.684405196876844,4.85650464995107 l6.68440519687684,4.856504649951073z"/>
<path fill="#B31B1B" fill-opacity="0.9" d="m-8.26237921249264,1.6773638655805434e-15 l-6.68440519687684,4.856504649951073 l-6.684405196876844,-4.85650464995107 l6.68440519687684,-4.856504649951073z"/>
<path fill="#B31B1B" fill-opacity="0.9" d="m-14.946784409369478,-20.572483830236557 l-2.553215590630522,-7.857989590142751 l6.684405196876838,-4.85650464995107 l2.553215590630522,7.857989590142751z"/>
<path fill="#B31B1B" fill-opacity="0.37" d="m-14.94678440936948,-4.8565046499510744 l6.68440519687684,4.856504649951073 l-2.5532155906305185,-7.8579895901427435 l-6.68440519687684,-4.856504649951073z"/>
<path fill="#B31B1B" fill-opacity="0.37" d="m-14.94678440936948,4.8565046499510744 l6.68440519687684,-4.856504649951073 l-2.5532155906305185,7.8579895901427435 l-6.68440519687684,4.856504649951073z"/>
<path fill="#B31B1B" fill-opacity="0.9" d="m-14.946784409369478,20.572483830236557 l-2.553215590630522,7.857989590142751 l6.684405196876838,4.85650464995107 l2.553215590630522,-7.857989590142751z"/>
<path fill="#B31B1B" fill-opacity="0.9" d="m-17.499999999999996,-12.714494240093812 l8.262379212492636,-3.552713678800501e-15 l2.5532155906305185,-7.857989590142749 l-8.262379212492636,3.552713678800501e-15z"/>
<path fill="#B31B1B" fill-opacity="0.9" d="m-17.499999999999996,12.714494240093812 l8.262379212492636,3.552713678800501e-15 l2.5532155906305185,7.857989590142749 l-8.262379212492636,-3.552713678800501e-15z"/>
<path fill="#B31B1B" fill-opacity="0.37" d="m-9.23762078750736,-12.714494240093815 l6.68440519687684,4.856504649951071 l-8.262379212492638,1.7763568394002505e-15 l-6.68440519687684,-4.856504649951071z"/>
<path fill="#B31B1B" fill-opacity="0.37" d="m-9.23762078750736,12.714494240093815 l6.68440519687684,-4.856504649951071 l-8.262379212492638,-1.7763568394002505e-15 l-6.68440519687684,4.856504649951071z"/>
<path fill="#B31B1B" fill-opacity="0.37" d="m-8.26237921249264,-25.428988480187634 l-6.684405196876838,4.856504649951077 l8.262379212492636,-7.105427357601002e-15 l6.684405196876838,-4.856504649951077z"/>
<path fill="#B31B1B" fill-opacity="0.37" d="m-8.26237921249264,25.428988480187634 l-6.684405196876838,-4.856504649951077 l8.262379212492636,7.105427357601002e-15 l6.684405196876838,4.856504649951077z"/>
<path fill="#B31B1B" fill-opacity="0.37" d="m-8.262379212492636,-25.428988480187634 l8.26237921249264,3.552713678800501e-15 l-6.684405196876841,4.8565046499510665 l-8.26237921249264,-3.552713678800501e-15z"/>
<path fill="#B31B1B" fill-opacity="0.37" d="m-8.262379212492636,25.428988480187634 l8.26237921249264,-3.552713678800501e-15 l-6.684405196876841,-4.8565046499510665 l-8.26237921249264,3.552713678800501e-15z"/>
<path fill="#B31B1B" fill-opacity="0.9" d="m0.0,-0.0 l-8.26237921249264,-1.6773638655805434e-15 l-2.5532155906305185,-7.8579895901427435 l8.26237921249264,1.6773638655805434e-15z"/>
<path fill="#B31B1B" fill-opacity="0.9" d="m0.0,0.0 l-2.5532155906305207,-7.857989590142744 l-8.262379212492638,1.7763568394002505e-15 l2.5532155906305207,7.857989590142744z"/>
<path fill="#B31B1B" fill-opacity="0.9" d="m0.0,-0.0 l-2.5532155906305207,7.857989590142744 l-8.262379212492638,-1.7763568394002505e-15 l2.5532155906305207,-7.857989590142744z"/>
<path fill="#B31B1B" fill-opacity="0.9" d="m0.0,0.0 l-8.26237921249264,1.6773638655805434e-15 l-2.5532155906305185,7.8579895901427435 l8.26237921249264,-1.6773638655805434e-15z"/>
<path fill="#B31B1B" fill-opacity="0.9" d="m2.6645352591003757e-15,-41.14496766047312 l-2.5532155906305203,7.8579895901427435 l-8.26237921249264,0.0 l2.5532155906305203,-7.8579895901427435z"/>
<path fill="#B31B1B" fill-opacity="0.9" d="m2.6645352591003757e-15,-25.42898848018763 l-2.5532155906305203,-7.857989590142747 l-8.26237921249264,0.0 l2.5532155906305203,7.857989590142747z"/>
<path fill="#B31B1B" fill-opacity="0.9" d="m2.6645352591003757e-15,25.42898848018763 l-2.5532155906305203,7.857989590142747 l-8.26237921249264,0.0 l2.5532155906305203,-7.857989590142747z"/>
<path fill="#B31B1B" fill-opacity="0.9" d="m2.6645352591003757e-15,41.14496766047312 l-2.5532155906305203,-7.8579895901427435 l-8.26237921249264,0.0 l2.5532155906305203,7.8579895901427435z"/>
<path fill="#B31B1B" fill-opacity="0.9" d="m-2.5532155906305207,-7.857989590142744 l-6.68440519687684,-4.856504649951071 l2.5532155906305185,-7.857989590142749 l6.68440519687684,4.856504649951071z"/>
<path fill="#B31B1B" fill-opacity="0.9" d="m-2.5532155906305207,7.857989590142744 l-6.68440519687684,4.856504649951071 l2.5532155906305185,7.857989590142749 l6.68440519687684,-4.856504649951071z"/>
<path fill="#B31B1B" fill-opacity="0.9" d="m-2.5532155906305194,-7.857989590142744 l2.553215590630521,-7.857989590142744 l-6.68440519687684,-4.856504649951075 l-2.553215590630521,7.857989590142744z"/>
<path fill="#B31B1B" fill-opacity="0.9" d="m-2.5532155906305194,7.857989590142744 l2.553215590630521,7.857989590142744 l-6.68440519687684,4.856504649951075 l-2.553215590630521,-7.857989590142744z"/>
<path fill="#B31B1B" fill-opacity="0.9" d="m6.684405196876841,-20.572483830236557 l-6.684405196876839,4.856504649951068 l-6.68440519687684,-4.856504649951075 l6.684405196876839,-4.856504649951068z"/>
<path fill="#B31B1B" fill-opacity="0.9" d="m6.684405196876841,20.572483830236557 l-6.684405196876839,-4.856504649951068 l-6.68440519687684,4.856504649951075 l6.684405196876839,4.856504649951068z"/>
<path fill="#B31B1B" fill-opacity="0.37" d="m-2.5532155906305176,-33.28697807033038 l2.5532155906305203,-7.8579895901427435 l2.5532155906305194,7.8579895901427435 l-2.5532155906305203,7.8579895901427435z"/>
<path fill="#B31B1B" fill-opacity="0.37" d="m-2.5532155906305176,33.28697807033038 l2.5532155906305203,7.8579895901427435 l2.5532155906305194,-7.8579895901427435 l-2.5532155906305203,-7.8579895901427435z"/>
<path fill="#B31B1B" fill-opacity="0.9" d="m0.0,0.0 l6.684405196876839,-4.856504649951074 l-2.553215590630522,-7.8579895901427435 l-6.684405196876839,4.856504649951074z"/>
<path fill="#B31B1B" fill-opacity="0.9" d="m0.0,-0.0 l6.684405196876839,4.856504649951074 l-2.553215590630522,7.8579895901427435 l-6.684405196876839,-4.856504649951074z"/>
<path fill="#B31B1B" fill-opacity="0.9" d="m0.0,-0.0 l-2.5532155906305194,-7.857989590142744 l6.68440519687684,-4.856504649951071 l2.5532155906305194,7.857989590142744z"/>
<path fill="#B31B1B" fill-opacity="0.9" d="m0.0,0.0 l-2.5532155906305194,7.857989590142744 l6.68440519687684,4.856504649951071 l2.5532155906305194,-7.857989590142744z"/>
<path fill="#B31B1B" fill-opacity="0.37" d="m1.7763568394002505e-15,-15.715979180285489 l-2.553215590630521,7.857989590142744 l6.68440519687684,-4.856504649951071 l2.553215590630521,-7.857989590142744z"/>
<path fill="#B31B1B" fill-opacity="0.37" d="m1.7763568394002505e-15,15.715979180285489 l-2.553215590630521,-7.857989590142744 l6.68440519687684,4.856504649951071 l2.553215590630521,7.857989590142744z"/>
<path fill="#B31B1B" fill-opacity="0.37" d="m6.684405196876842,-36.28846301052205 l2.5532155906305203,7.857989590142751 l-6.68440519687684,-4.856504649951077 l-2.5532155906305203,-7.857989590142751z"/>
<path fill="#B31B1B" fill-opacity="0.9" d="m6.684405196876841,-20.572483830236557 l2.553215590630521,-7.8579895901427435 l-6.68440519687684,-4.856504649951077 l-2.553215590630521,7.8579895901427435z"/>
<path fill="#B31B1B" fill-opacity="0.9" d="m6.684405196876841,20.572483830236557 l2.553215590630521,7.8579895901427435 l-6.68440519687684,4.856504649951077 l-2.553215590630521,-7.8579895901427435z"/>
<path fill="#B31B1B" fill-opacity="0.37" d="m6.684405196876842,36.28846301052205 l2.5532155906305203,-7.857989590142751 l-6.68440519687684,4.856504649951077 l-2.5532155906305203,7.857989590142751z"/>
<path fill="#B31B1B" fill-opacity="0.37" d="m9.237620787507359,-12.714494240093819 l-2.5532155906305194,7.857989590142745 l-2.553215590630522,-7.8579895901427435 l2.5532155906305194,-7.857989590142745z"/>
<path fill="#B31B1B" fill-opacity="0.37" d="m9.237620787507359,12.714494240093819 l-2.5532155906305194,-7.857989590142745 l-2.553215590630522,7.8579895901427435 l2.5532155906305194,7.857989590142745z"/>
<path fill="#B31B1B" fill-opacity="0.9" d="m0.0,0.0 l6.684405196876841,4.856504649951072 l6.684405196876839,-4.856504649951072 l-6.684405196876841,-4.856504649951072z"/>
<path fill="#B31B1B" fill-opacity="0.9" d="m2.6645352591003757e-15,-41.14496766047312 l6.684405196876839,4.85650464995107 l6.684405196876842,-4.85650464995107 l-6.684405196876839,-4.85650464995107z"/>
<path fill="#B31B1B" fill-opacity="0.9" d="m2.6645352591003757e-15,41.14496766047312 l6.684405196876839,-4.85650464995107 l6.684405196876842,4.85650464995107 l-6.684405196876839,4.85650464995107z"/>
<path fill="#B31B1B" fill-opacity="0.9" d="m9.237620787507353,-28.430473420379307 l6.684405196876842,-4.856504649951077 l-2.553215590630522,-7.8579895901427435 l-6.684405196876842,4.856504649951077z"/>
<path fill="#B31B1B" fill-opacity="0.9" d="m9.237620787507353,28.430473420379307 l6.684405196876842,4.856504649951077 l-2.553215590630522,7.8579895901427435 l-6.684405196876842,-4.856504649951077z"/>
<path fill="#B31B1B" fill-opacity="0.9" d="m9.237620787507362,-28.4304734203793 l-2.5532155906305203,-7.857989590142751 l6.684405196876842,-4.85650464995107 l2.5532155906305203,7.857989590142751z"/>
<path fill="#B31B1B" fill-opacity="0.9" d="m9.237620787507362,28.4304734203793 l-2.5532155906305203,7.857989590142751 l6.684405196876842,4.85650464995107 l2.5532155906305203,-7.857989590142751z"/>
<path fill="#B31B1B" fill-opacity="0.9" d="m6.684405196876835,-20.57248383023656 l2.5532155906305185,-7.857989590142747 l8.262379212492643,-3.552713678800501e-15 l-2.5532155906305185,7.857989590142747z"/>
<path fill="#B31B1B" fill-opacity="0.9" d="m6.684405196876835,20.57248383023656 l2.5532155906305185,7.857989590142747 l8.262379212492643,3.552713678800501e-15 l-2.5532155906305185,-7.857989590142747z"/>
<path fill="#B31B1B" fill-opacity="0.9" d="m6.684405196876835,-20.57248383023656 l2.553215590630524,7.857989590142742 l8.262379212492641,-3.552713678800501e-15 l-2.553215590630524,-7.857989590142742z"/>
<path fill="#B31B1B" fill-opacity="0.9" d="m6.684405196876835,20.57248383023656 l2.553215590630524,-7.857989590142742 l8.262379212492641,3.552713678800501e-15 l-2.553215590630524,7.857989590142742z"/>
<path fill="#B31B1B" fill-opacity="0.9" d="m6.684405196876839,-4.856504649951074 l2.5532155906305194,-7.857989590142745 l8.262379212492641,-3.552713678800501e-15 l-2.5532155906305194,7.857989590142745z"/>
<path fill="#B31B1B" fill-opacity="0.9" d="m6.684405196876839,4.856504649951074 l2.5532155906305194,7.857989590142745 l8.262379212492641,3.552713678800501e-15 l-2.5532155906305194,-7.857989590142745z"/>
<path fill="#B31B1B" fill-opacity="0.9" d="m6.684405196876843,-46.00147231042419 l8.26237921249264,0.0 l2.553215590630522,-7.8579895901427435 l-8.26237921249264,-0.0z"/>
<path fill="#B31B1B" fill-opacity="0.9" d="m6.684405196876841,-4.856504649951072 l8.26237921249264,0.0 l2.553215590630522,-7.857989590142745 l-8.26237921249264,-0.0z"/>
<path fill="#B31B1B" fill-opacity="0.9" d="m6.684405196876841,4.856504649951072 l8.26237921249264,0.0 l2.553215590630522,7.857989590142745 l-8.26237921249264,-0.0z"/>
<path fill="#B31B1B" fill-opacity="0.9" d="m6.684405196876843,46.00147231042419 l8.26237921249264,0.0 l2.553215590630522,7.8579895901427435 l-8.26237921249264,-0.0z"/>
<path fill="#B31B1B" fill-opacity="0.37" d="m14.94678440936947,-46.0014723104242 l6.684405196876842,4.85650464995107 l-8.26237921249264,0.0 l-6.684405196876842,-4.85650464995107z"/>
<path fill="#B31B1B" fill-opacity="0.37" d="m14.94678440936947,46.0014723104242 l6.684405196876842,-4.85650464995107 l-8.26237921249264,0.0 l-6.684405196876842,4.85650464995107z"/>
<path fill="#B31B1B" fill-opacity="0.37" d="m14.946784409369481,-4.856504649951072 l-8.26237921249264,0.0 l6.684405196876839,4.856504649951072 l8.26237921249264,-0.0z"/>
<path fill="#B31B1B" fill-opacity="0.37" d="m14.946784409369481,4.856504649951072 l-8.26237921249264,0.0 l6.684405196876839,-4.856504649951072 l8.26237921249264,-0.0z"/>
<path fill="#B31B1B" fill-opacity="0.37" d="m14.946784409369481,-46.00147231042419 l-8.26237921249264,0.0 l6.684405196876841,4.85650464995107 l8.26237921249264,-0.0z"/>
<path fill="#B31B1B" fill-opacity="0.37" d="m14.946784409369481,46.00147231042419 l-8.26237921249264,0.0 l6.684405196876841,-4.85650464995107 l8.26237921249264,-0.0z"/>
<path fill="#B31B1B" fill-opacity="0.37" d="m15.922025984384195,-33.286978070330385 l-6.684405196876842,4.856504649951077 l8.262379212492643,-3.552713678800501e-15 l6.684405196876842,-4.856504649951077z"/>
<path fill="#B31B1B" fill-opacity="0.37" d="m15.922025984384195,33.286978070330385 l-6.684405196876842,-4.856504649951077 l8.262379212492643,3.552713678800501e-15 l6.684405196876842,4.856504649951077z"/>
<path fill="#B31B1B" fill-opacity="0.9" d="m24.184405196876835,-33.286978070330385 l-8.26237921249264,0.0 l-2.553215590630522,-7.8579895901427435 l8.26237921249264,-0.0z"/>
<path fill="#B31B1B" fill-opacity="0.9" d="m24.184405196876835,33.286978070330385 l-8.26237921249264,0.0 l-2.553215590630522,7.8579895901427435 l8.26237921249264,-0.0z"/>
<path fill="#B31B1B" fill-opacity="0.9" d="m21.631189606246313,-41.14496766047313 l-6.684405196876842,-4.85650464995107 l2.5532155906305185,-7.8579895901427435 l6.684405196876842,4.85650464995107z"/>
<path fill="#B31B1B" fill-opacity="0.9" d="m21.631189606246313,41.14496766047313 l-6.684405196876842,4.85650464995107 l2.5532155906305185,7.8579895901427435 l6.684405196876842,-4.85650464995107z"/>
<path fill="#B31B1B" fill-opacity="0.37" d="m21.631189606246316,-25.42898848018764 l2.5532155906305185,-7.8579895901427435 l-6.684405196876838,4.856504649951074 l-2.5532155906305185,7.8579895901427435z"/>
<path fill="#B31B1B" fill-opacity="0.37" d="m21.631189606246316,25.42898848018764 l2.5532155906305185,7.8579895901427435 l-6.684405196876838,-4.856504649951074 l-2.5532155906305185,-7.8579895901427435z"/>
<path fill="#B31B1B" fill-opacity="0.37" d="m21.631189606246316,-15.715979180285494 l-6.684405196876842,-4.85650464995107 l2.5532155906305256,7.857989590142742 l6.684405196876842,4.85650464995107z"/>
<path fill="#B31B1B" fill-opacity="0.37" d="m21.631189606246316,15.715979180285494 l-6.684405196876842,4.85650464995107 l2.5532155906305256,-7.857989590142742 l6.684405196876842,-4.85650464995107z"/>
<path fill="#B31B1B" fill-opacity="0.37" d="m21.631189606246323,-15.715979180285489 l2.553215590630515,7.857989590142745 l-6.684405196876835,-4.856504649951074 l-2.553215590630515,-7.857989590142745z"/>
<path fill="#B31B1B" fill-opacity="0.9" d="m21.631189606246316,-0.0 l-6.684405196876835,-4.856504649951072 l2.553215590630522,-7.857989590142745 l6.684405196876835,4.856504649951072z"/>
<path fill="#B31B1B" fill-opacity="0.9" d="m21.631189606246316,0.0 l-6.684405196876835,4.856504649951072 l2.553215590630522,7.857989590142745 l6.684405196876835,-4.856504649951072z"/>
<path fill="#B31B1B" fill-opacity="0.37" d="m21.631189606246323,15.715979180285489 l2.553215590630515,-7.857989590142745 l-6.684405196876835,4.856504649951074 l-2.553215590630515,7.857989590142745z"/>
<path fill="#B31B1B" fill-opacity="0.9" d="m14.946784409369474,-20.572483830236564 l6.684405196876842,-4.856504649951077 l6.684405196876838,4.856504649951074 l-6.684405196876842,4.856504649951077z"/>
<path fill="#B31B1B" fill-opacity="0.9" d="m14.946784409369474,20.572483830236564 l6.684405196876842,4.856504649951077 l6.684405196876838,-4.856504649951074 l-6.684405196876842,-4.856504649951077z"/>
<path fill="#B31B1B" fill-opacity="0.9" d="m24.184405196876835,-33.286978070330385 l-2.5532155906305185,7.8579895901427435 l6.684405196876838,4.856504649951074 l2.5532155906305185,-7.8579895901427435z"/>
<path fill="#B31B1B" fill-opacity="0.9" d="m24.184405196876835,33.286978070330385 l-2.5532155906305185,-7.8579895901427435 l6.684405196876838,-4.856504649951074 l2.5532155906305185,7.8579895901427435z"/>
<path fill="#B31B1B" fill-opacity="0.9" d="m24.18440519687684,-7.8579895901427435 l6.684405196876845,-4.856504649951074 l-2.553215590630522,-7.8579895901427435 l-6.684405196876845,4.856504649951074z"/>
<path fill="#B31B1B" fill-opacity="0.9" d="m24.18440519687684,7.8579895901427435 l6.684405196876845,4.856504649951074 l-2.553215590630522,7.8579895901427435 l-6.684405196876845,-4.856504649951074z"/>
<path fill="#B31B1B" fill-opacity="0.9" d="m21.631189606246316,-0.0 l8.262379212492643,0.0 l2.5532155906305256,-7.857989590142745 l-8.262379212492643,-0.0z"/>
<path fill="#B31B1B" fill-opacity="0.9" d="m21.631189606246316,0.0 l8.262379212492643,0.0 l2.5532155906305256,7.857989590142745 l-8.262379212492643,-0.0z"/>
<path fill="#B31B1B" fill-opacity="0.37" d="m30.868810393753684,-12.714494240093817 l8.26237921249264,0.0 l-6.684405196876838,4.856504649951072 l-8.26237921249264,-0.0z"/>
<path fill="#B31B1B" fill-opacity="0.37" d="m30.868810393753684,12.714494240093817 l8.26237921249264,0.0 l-6.684405196876838,-4.856504649951072 l-8.26237921249264,-0.0z"/>
<path fill="#B31B1B" fill-opacity="0.9" d="m39.13118960624632,-12.714494240093817 l-8.26237921249264,0.0 l-2.553215590630522,-7.8579895901427435 l8.26237921249264,-0.0z"/>
<path fill="#B31B1B" fill-opacity="0.9" d="m39.13118960624632,12.714494240093817 l-8.26237921249264,0.0 l-2.553215590630522,7.8579895901427435 l8.26237921249264,-0.0z"/>
<path fill="#B31B1B" fill-opacity="0.37" d="m36.57797401561581,-4.856504649951073 l-6.684405196876849,4.856504649951073 l2.5532155906305256,-7.857989590142745 l6.684405196876849,-4.856504649951073z"/>
<path fill="#B31B1B" fill-opacity="0.37" d="m36.57797401561581,4.856504649951073 l-6.684405196876849,-4.856504649951073 l2.5532155906305256,7.857989590142745 l6.684405196876849,4.856504649951073z"/>
<path fill="#B31B1B" fill-opacity="0.9" d="m29.89356881873896,0.0 l6.684405196876849,4.856504649951073 l6.684405196876838,-4.856504649951073 l-6.684405196876849,-4.856504649951073z"/>
<path fill="#B31B1B" fill-opacity="0.9" d="m39.13118960624632,-12.714494240093817 l-2.553215590630515,7.857989590142744 l6.684405196876838,4.856504649951073 l2.553215590630515,-7.857989590142744z"/>
<path fill="#B31B1B" fill-opacity="0.9" d="m39.13118960624632,12.714494240093817 l-2.553215590630515,-7.857989590142744 l6.684405196876838,-4.856504649951073 l2.553215590630515,7.857989590142744z"/>
<path fill="#B31B1B" fill-opacity="0.37" d="m48.368810393753684,0.0 l-2.553215590630522,7.857989590142745 l-2.553215590630515,-7.857989590142745 l2.553215590630522,-7.857989590142745z"/>
<path fill="#B31B1B" fill-opacity="0.9" d="m45.81559480312316,-7.857989590142745 l2.553215590630522,7.857989590142745 l8.26237921249264,0.0 l-2.553215590630522,-7.857989590142745z"/>
<path fill="#B31B1B" fill-opacity="0.9" d="m45.81559480312316,7.857989590142745 l2.553215590630522,-7.857989590142745 l8.26237921249264,0.0 l-2.553215590630522,7.857989590142745z"/>
</g>
</svg>