<?xml version="1.0" encoding="utf-8"?>
<svg width="100%" height="100%" viewBox="-70.0 -70.0 140.0 140.0" preserveAspectRatio="xMidYMid meet" version="1.1" baseProfile="full" xmlns="http://www.w3.org/2000/svg">
<g style="stroke:#FFFFFF; stroke-width: 0.30638587087566255; stroke-linejoin: round;">
<path fill="#B31B1B" fill-opacity="0.9" d="m-44.23762078750735,-28.43047342037931 l4.131189606246323,3.0014849401916734 l-1.5779740156158084,4.856504649951074 l-4.131189606246323,-3.0014849401916734z"/>
<path fill="#B31B1B" fill-opacity="0.9" d="m-44.23762078750735,28.43047342037931 l4.131189606246323,-3.0014849401916734 l-1.5779740156158084,-4.856504649951074 l-4.131189606246323,3.0014849401916734z"/>
<path fill="#B31B1B" fill-opacity="0.9" d="m-45.81559480312316,-33.28697807033037 l5.106431181261044,0.0 l1.5779740156157942,4.85650464995107 l-5.106431181261044,-0.0z"/>
<path fill="#B31B1B" fill-opacity="0.9" d="m-45.81559480312316,33.28697807033037 l5.106431181261044,0.0 l1.5779740156157942,-4.85650464995107 l-5.106431181261044,-0.0z"/>
<path fill="#B31B1B" fill-opacity="0.9" d="m-45.815594803123155,-33.286978070330385 l1.5779740156158013,4.856504649951074 l5.106431181261044,-3.552713678800501e-15 l-1.5779740156158013,-4.856504649951074z"/>
<path fill="#B31B1B" fill-opacity="0.9" d="m-45.815594803123155,33.286978070330385 l1.5779740156158013,-4.856504649951074 l5.106431181261044,3.552713678800501e-15 l-1.5779740156158013,4.856504649951074z"/>
<path fill="#B31B1B" fill-opacity="0.37" d="m-40.70916362186212,-17.57099889004489 l4.131189606246323,-3.001484940191677 l-5.106431181261044,3.552713678800501e-15 l-4.131189606246323,3.001484940191677z"/>
<path fill="#B31B1B" fill-opacity="0.37" d="m-40.70916362186212,17.57099889004489 l4.131189606246323,3.001484940191677 l-5.106431181261044,-3.552713678800501e-15 l-4.131189606246323,-3.001484940191677z"/>
<path fill="#B31B1B" fill-opacity="0.37" d="m-40.10643118126103,-25.428988480187638 l-4.131189606246323,-3.0014849401916734 l5.106431181261044,-3.552713678800501e-15 l4.131189606246323,3.0014849401916734z"/>
<path fill="#B31B1B" fill-opacity="0.37" d="m-40.10643118126103,25.428988480187638 l-4.131189606246323,3.0014849401916734 l5.106431181261044,3.552713678800501e-15 l4.131189606246323,-3.0014849401916734z"/>
<path fill="#B31B1B" fill-opacity="0.9" d="m-34.99999999999999,-25.42898848018764 l-5.106431181261037,3.552713678800501e-15 l-1.5779740156158084,4.856504649951074 l5.106431181261037,-3.552713678800501e-15z"/>
<path fill="#B31B1B" fill-opacity="0.9" d="m-34.99999999999999,25.42898848018764 l-5.106431181261037,-3.552713678800501e-15 l-1.5779740156158084,-4.856504649951074 l5.106431181261037,3.552713678800501e-15z"/>
<path fill="#B31B1B" fill-opacity="0.37" d="m-36.5779740156158,-30.285493130138704 l-4.131189606246316,-3.0014849401916663 l1.5779740156157942,4.85650464995107 l4.131189606246316,3.0014849401916663z"/>
<path fill="#B31B1B" fill-opacity="0.9" d="m-36.5779740156158,-4.856504649951077 l1.5779740156158013,-4.856504649951072 l-4.131189606246323,-3.0014849401916717 l-1.5779740156158013,4.856504649951072z"/>
<path fill="#B31B1B" fill-opacity="0.9" d="m-36.5779740156158,4.856504649951077 l1.5779740156158013,4.856504649951072 l-4.131189606246323,3.0014849401916717 l-1.5779740156158013,-4.856504649951072z"/>
<path fill="#B31B1B" fill-opacity="0.37" d="m-36.5779740156158,30.285493130138704 l-4.131189606246316,3.0014849401916663 l1.5779740156157942,-4.85650464995107 l4.131189606246316,-3.0014849401916663z"/>
<path fill="#B31B1B" fill-opacity="0.9" d="m-36.577974015615794,-20.572483830236568 l1.5779740156157942,4.856504649951074 l-4.131189606246323,3.0014849401916734 l-1.5779740156157942,-4.856504649951074z"/>
<path fill="#B31B1B" fill-opacity="0.9" d="m-36.577974015615794,20.572483830236568 l1.5779740156157942,-4.856504649951074 l-4.131189606246323,-3.0014849401916734 l-1.5779740156157942,4.856504649951074z"/>
<path fill="#B31B1B" fill-opacity="0.9" d="m-40.70916362186212,-33.28697807033037 l4.131189606246316,3.0014849401916663 l4.131189606246323,-3.0014849401916734 l-4.131189606246316,-3.0014849401916663z"/>
<path fill="#B31B1B" fill-opacity="0.9" d="m-40.70916362186212,33.28697807033037 l4.131189606246316,-3.0014849401916663 l4.131189606246323,3.0014849401916734 l-4.131189606246316,3.0014849401916663z"/>
<path fill="#B31B1B" fill-opacity="0.9" d="m-30.868810393753684,-12.71449424009382 l-4.131189606246316,-3.0014849401916734 l-4.131189606246323,3.0014849401916734 l4.131189606246316,3.0014849401916734z"/>
<path fill="#B31B1B" fill-opacity="0.9" d="m-30.868810393753684,12.71449424009382 l-4.131189606246316,3.0014849401916734 l-4.131189606246323,-3.0014849401916734 l4.131189606246316,-3.0014849401916734z"/>
<path fill="#B31B1B" fill-opacity="0.9" d="m-35.0,-25.428988480187627 l-1.5779740156158013,-4.856504649951077 l4.131189606246323,-3.0014849401916734 l1.5779740156158013,4.856504649951077z"/>
<path fill="#B31B1B" fill-opacity="0.37" d="m-35.0,-15.715979180285494 l4.131189606246316,3.0014849401916734 l-1.5779740156157942,-4.856504649951074 l-4.131189606246316,-3.0014849401916734z"/>
<path fill="#B31B1B" fill-opacity="0.37" d="m-35.0,-9.713009299902149 l4.131189606246316,-3.0014849401916717 l-1.5779740156157942,4.85650464995107 l-4.131189606246316,3.0014849401916717z"/>
<path fill="#B31B1B" fill-opacity="0.9" d="m-35.0,-7.105427357601002e-15 l-1.5779740156158013,-4.85650464995107 l4.131189606246323,-3.0014849401916734 l1.5779740156158013,4.85650464995107z"/>
<path fill="#B31B1B" fill-opacity="0.9" d="m-35.0,7.105427357601002e-15 l-1.5779740156158013,4.85650464995107 l4.131189606246323,3.0014849401916734 l1.5779740156158013,-4.85650464995107z"/>
<path fill="#B31B1B" fill-opacity="0.37" d="m-35.0,9.713009299902149 l4.131189606246316,3.0014849401916717 l-1.5779740156157942,-4.85650464995107 l-4.131189606246316,-3.0014849401916717z"/>
<path fill="#B31B1B" fill-opacity="0.37" d="m-35.0,15.715979180285494 l4.131189606246316,-3.0014849401916734 l-1.5779740156157942,4.856504649951074 l-4.131189606246316,3.0014849401916734z"/>
<path fill="#B31B1B" fill-opacity="0.9" d="m-35.0,25.428988480187627 l-1.5779740156158013,4.856504649951077 l4.131189606246323,3.0014849401916734 l1.5779740156158013,-4.856504649951077z"/>
<path fill="#B31B1B" fill-opacity="0.9" d="m-34.99999999999999,-25.42898848018764 l4.131189606246323,3.0014849401916734 l-1.5779740156158084,4.856504649951074 l-4.131189606246323,-3.0014849401916734z"/>
<path fill="#B31B1B" fill-opacity="0.9" d="m-34.99999999999999,25.42898848018764 l4.131189606246323,-3.0014849401916734 l-1.5779740156158084,-4.856504649951074 l-4.131189606246323,3.0014849401916734z"/>
<path fill="#B31B1B" fill-opacity="0.37" d="m-29.290836378137882,-33.28697807033038 l-1.5779740156158013,4.856504649951077 l-1.5779740156157942,-4.856504649951077 l1.5779740156158013,-4.856504649951077z"/>
<path fill="#B31B1B" fill-opacity="0.9" d="m-35.0,-25.428988480187627 l4.131189606246316,3.0014849401916734 l4.131189606246323,-3.001484940191677 l-4.131189606246316,-3.0014849401916734z"/>
<path fill="#B31B1B" fill-opacity="0.37" d="m-29.290836378137882,-7.85798959014275 l-1.5779740156158013,4.856504649951072 l-1.5779740156157942,-4.856504649951073 l1.5779740156158013,-4.856504649951072z"/>
<path fill="#B31B1B" fill-opacity="0.9" d="m-35.0,-7.105427357601002e-15 l4.131189606246316,-3.001484940191671 l4.131189606246323,3.0014849401916726 l-4.131189606246316,3.001484940191671z"/>
<path fill="#B31B1B" fill-opacity="0.9" d="m-35.0,7.105427357601002e-15 l4.131189606246316,3.001484940191671 l4.131189606246323,-3.0014849401916726 l-4.131189606246316,-3.001484940191671z"/>
<path fill="#B31B1B" fill-opacity="0.37" d="m-29.290836378137882,7.85798959014275 l-1.5779740156158013,-4.856504649951072 l-1.5779740156157942,4.856504649951073 l1.5779740156158013,4.856504649951072z"/>
<path fill="#B31B1B" fill-opacity="0.9" d="m-35.0,25.428988480187627 l4.131189606246316,-3.0014849401916734 l4.131189606246323,3.001484940191677 l-4.131189606246316,3.0014849401916734z"/>
<path fill="#B31B1B" fill-opacity="0.37" d="m-29.290836378137882,33.28697807033038 l-1.5779740156158013,-4.856504649951077 l-1.5779740156157942,4.856504649951077 l1.5779740156158013,4.856504649951077z"/>
<path fill="#B31B1B" fill-opacity="0.37" d="m-29.290836378137875,-17.570998890044894 l-1.5779740156157942,-4.856504649951074 l-1.5779740156158084,4.856504649951074 l1.5779740156157942,4.856504649951074z"/>
<path fill="#B31B1B" fill-opacity="0.37" d="m-29.290836378137875,17.570998890044894 l-1.5779740156157942,4.856504649951074 l-1.5779740156158084,-4.856504649951074 l1.5779740156157942,-4.856504649951074z"/>
<path fill="#B31B1B" fill-opacity="0.9" d="m-30.868810393753684,-28.4304734203793 l5.106431181261044,-3.552713678800501e-15 l1.5779740156158013,-4.856504649951074 l-5.106431181261044,3.552713678800501e-15z"/>
<path fill="#B31B1B" fill-opacity="0.9" d="m-30.868810393753684,-22.427503539995953 l5.106431181261044,-3.552713678800501e-15 l1.5779740156158013,4.856504649951074 l-5.106431181261044,3.552713678800501e-15z"/>
<path fill="#B31B1B" fill-opacity="0.9" d="m-30.868810393753684,-12.71449424009382 l1.5779740156158013,4.856504649951071 l5.106431181261044,1.7763568394002505e-15 l-1.5779740156158013,-4.856504649951071z"/>
<path fill="#B31B1B" fill-opacity="0.9" d="m-30.868810393753684,-3.001484940191678 l1.5779740156158013,-4.856504649951072 l5.106431181261044,1.7763568394002505e-15 l-1.5779740156158013,4.856504649951072z"/>
<path fill="#B31B1B" fill-opacity="0.9" d="m-30.868810393753684,3.001484940191678 l1.5779740156158013,4.856504649951072 l5.106431181261044,-1.7763568394002505e-15 l-1.5779740156158013,-4.856504649951072z"/>
<path fill="#B31B1B" fill-opacity="0.9" d="m-30.868810393753684,12.71449424009382 l1.5779740156158013,-4.856504649951071 l5.106431181261044,-1.7763568394002505e-15 l-1.5779740156158013,4.856504649951071z"/>
<path fill="#B31B1B" fill-opacity="0.9" d="m-30.868810393753684,22.427503539995953 l5.106431181261044,3.552713678800501e-15 l1.5779740156158013,-4.856504649951074 l-5.106431181261044,-3.552713678800501e-15z"/>
<path fill="#B31B1B" fill-opacity="0.9" d="m-30.868810393753684,28.4304734203793 l5.106431181261044,3.552713678800501e-15 l1.5779740156158013,4.856504649951074 l-5.106431181261044,-3.552713678800501e-15z"/>
<path fill="#B31B1B" fill-opacity="0.9" d="m-30.868810393753684,-12.71449424009382 l1.5779740156158084,-4.856504649951074 l5.106431181261044,3.552713678800501e-15 l-1.5779740156158084,4.856504649951074z"/>
<path fill="#B31B1B" fill-opacity="0.9" d="m-30.868810393753684,12.71449424009382 l1.5779740156158084,4.856504649951074 l5.106431181261044,-3.552713678800501e-15 l-1.5779740156158084,-4.856504649951074z"/>
<path fill="#B31B1B" fill-opacity="0.9" d="m-30.86881039375367,-22.427503539995968 l1.5779740156157942,4.856504649951074 l5.106431181261044,3.552713678800501e-15 l-1.5779740156157942,-4.856504649951074z"/>
<path fill="#B31B1B" fill-opacity="0.9" d="m-30.86881039375367,22.427503539995968 l1.5779740156157942,-4.856504649951074 l5.106431181261044,-3.552713678800501e-15 l-1.5779740156157942,4.856504649951074z"/>
<path fill="#B31B1B" fill-opacity="0.37" d="m-25.76237921249264,-28.430473420379304 l4.131189606246323,3.00148494019167 l-5.106431181261044,3.552713678800501e-15 l-4.131189606246323,-3.00148494019167z"/>
<path fill="#B31B1B" fill-opacity="0.37" d="m-25.76237921249264,-22.427503539995957 l-5.106431181261044,3.552713678800501e-15 l4.131189606246323,-3.001484940191677 l5.106431181261044,-3.552713678800501e-15z"/>
<path fill="#B31B1B" fill-opacity="0.37" d="m-25.76237921249264,-3.001484940191677 l-5.106431181261044,-8.881784197001252e-16 l4.131189606246323,3.0014849401916726 l5.106431181261044,8.881784197001252e-16z"/>
<path fill="#B31B1B" fill-opacity="0.37" d="m-25.76237921249264,3.001484940191677 l-5.106431181261044,8.881784197001252e-16 l4.131189606246323,-3.0014849401916726 l5.106431181261044,-8.881784197001252e-16z"/>
<path fill="#B31B1B" fill-opacity="0.37" d="m-25.76237921249264,22.427503539995957 l-5.106431181261044,-3.552713678800501e-15 l4.131189606246323,3.001484940191677 l5.106431181261044,3.552713678800501e-15z"/>
<path fill="#B31B1B" fill-opacity="0.37" d="m-25.76237921249264,28.430473420379304 l4.131189606246323,-3.00148494019167 l-5.106431181261044,-3.552713678800501e-15 l-4.131189606246323,3.00148494019167z"/>
<path fill="#B31B1B" fill-opacity="0.9" d="m-21.631189606246323,-4.391395611590773e-15 l-4.131189606246316,-3.0014849401916726 l1.5779740156158013,-4.856504649951071 l4.131189606246316,3.0014849401916726z"/>
<path fill="#B31B1B" fill-opacity="0.9" d="m-21.631189606246323,4.391395611590773e-15 l-4.131189606246316,3.0014849401916726 l1.5779740156158013,4.856504649951071 l4.131189606246316,-3.0014849401916726z"/>
<path fill="#B31B1B" fill-opacity="0.9" d="m-21.631189606246316,-25.428988480187634 l-4.131189606246323,-3.00148494019167 l1.5779740156158013,-4.856504649951074 l4.131189606246323,3.00148494019167z"/>
<path fill="#B31B1B" fill-opacity="0.9" d="m-21.631189606246316,-25.428988480187634 l-4.131189606246323,3.001484940191677 l1.5779740156158013,4.856504649951074 l4.131189606246323,-3.001484940191677z"/>
<path fill="#B31B1B" fill-opacity="0.37" d="m-21.631189606246316,-15.715979180285483 l1.5779740156157978,-4.856504649951077 l-4.13118960624632,3.001484940191677 l-1.5779740156157978,4.856504649951077z"/>
<path fill="#B31B1B" fill-opacity="0.37" d="m-21.631189606246316,-9.713009299902147 l-4.131189606246323,-3.0014849401916734 l1.5779740156158013,4.856504649951073 l4.131189606246323,3.0014849401916734z"/>
<path fill="#B31B1B" fill-opacity="0.37" d="m-21.631189606246316,9.713009299902147 l-4.131189606246323,3.0014849401916734 l1.5779740156158013,-4.856504649951073 l4.131189606246323,-3.0014849401916734z"/>
<path fill="#B31B1B" fill-opacity="0.37" d="m-21.631189606246316,15.715979180285483 l1.5779740156157978,4.856504649951077 l-4.13118960624632,-3.001484940191677 l-1.5779740156157978,-4.856504649951077z"/>
<path fill="#B31B1B" fill-opacity="0.9" d="m-21.631189606246316,25.428988480187634 l-4.131189606246323,-3.001484940191677 l1.5779740156158013,-4.856504649951074 l4.131189606246323,3.001484940191677z"/>
<path fill="#B31B1B" fill-opacity="0.9" d="m-21.631189606246316,25.428988480187634 l-4.131189606246323,3.00148494019167 l1.5779740156158013,4.856504649951074 l4.131189606246323,-3.00148494019167z"/>
<path fill="#B31B1B" fill-opacity="0.37" d="m-21.631189606246313,-15.715979180285492 l-4.131189606246327,3.0014849401916717 l1.5779740156158084,-4.85650464995107 l4.131189606246327,-3.0014849401916717z"/>
<path fill="#B31B1B" fill-opacity="0.37" d="m-21.631189606246313,15.715979180285492 l-4.131189606246327,-3.0014849401916717 l1.5779740156158084,4.85650464995107 l4.131189606246327,3.0014849401916717z"/>
<path fill="#B31B1B" fill-opacity="0.9" d="m-25.76237921249264,-12.71449424009382 l4.131189606246327,-3.0014849401916717 l4.131189606246316,3.001484940191675 l-4.131189606246327,3.0014849401916717z"/>
<path fill="#B31B1B" fill-opacity="0.9" d="m-25.76237921249264,12.71449424009382 l4.131189606246327,3.0014849401916717 l4.131189606246316,-3.001484940191675 l-4.131189606246327,-3.0014849401916717z"/>
<path fill="#B31B1B" fill-opacity="0.9" d="m-15.9220259843842,-33.28697807033038 l-4.131189606246322,3.0014849401916734 l-4.131189606246316,-3.0014849401916734 l4.131189606246322,-3.0014849401916734z"/>
<path fill="#B31B1B" fill-opacity="0.9" d="m-15.9220259843842,33.28697807033038 l-4.131189606246322,-3.0014849401916734 l-4.131189606246316,3.0014849401916734 l4.131189606246322,3.0014849401916734z"/>
<path fill="#B31B1B" fill-opacity="0.37" d="m-20.053215590630522,-30.285493130138704 l-1.5779740156157942,4.85650464995107 l4.131189606246316,-3.0014849401916734 l1.5779740156157942,-4.85650464995107z"/>
<path fill="#B31B1B" fill-opacity="0.37" d="m-20.053215590630522,30.285493130138704 l-1.5779740156157942,-4.85650464995107 l4.131189606246316,3.0014849401916734 l1.5779740156157942,4.85650464995107z"/>
<path fill="#B31B1B" fill-opacity="0.9" d="m-20.05321559063052,-20.57248383023656 l-1.5779740156157978,4.856504649951077 l4.13118960624632,3.0014849401916717 l1.5779740156157978,-4.856504649951077z"/>
<path fill="#B31B1B" fill-opacity="0.9" d="m-20.053215590630522,-4.8565046499510744 l4.131189606246323,-3.0014849401916726 l-1.5779740156157978,-4.85650464995107 l-4.131189606246323,3.0014849401916726z"/>
<path fill="#B31B1B" fill-opacity="0.9" d="m-20.053215590630522,4.8565046499510744 l4.131189606246323,3.0014849401916726 l-1.5779740156157978,4.85650464995107 l-4.131189606246323,-3.0014849401916726z"/>
<path fill="#B31B1B" fill-opacity="0.9" d="m-20.05321559063052,20.57248383023656 l-1.5779740156157978,-4.856504649951077 l4.13118960624632,-3.0014849401916717 l1.5779740156157978,4.856504649951077z"/>
<path fill="#B31B1B" fill-opacity="0.9" d="m-21.631189606246323,-4.391395611590773e-15 l5.106431181261041,1.0366678804296858e-15 l1.577974015615803,-4.856504649951071 l-5.106431181261041,-1.0366678804296858e-15z"/>
<path fill="#B31B1B" fill-opacity="0.9" d="m-21.631189606246323,4.391395611590773e-15 l5.106431181261041,-1.0366678804296858e-15 l1.577974015615803,4.856504649951071 l-5.106431181261041,1.0366678804296858e-15z"/>
<path fill="#B31B1B" fill-opacity="0.9" d="m-21.631189606246316,-25.428988480187634 l5.106431181261037,0.0 l1.5779740156158013,4.856504649951077 l-5.106431181261037,-0.0z"/>
<path fill="#B31B1B" fill-opacity="0.9" d="m-21.631189606246316,25.428988480187634 l5.106431181261037,0.0 l1.5779740156158013,-4.856504649951077 l-5.106431181261037,-0.0z"/>
<path fill="#B31B1B" fill-opacity="0.37" d="m-16.52475842498528,-25.428988480187634 l4.13118960624632,-3.0014849401916734 l-5.106431181261041,0.0 l-4.13118960624632,3.0014849401916734z"/>
<path fill="#B31B1B" fill-opacity="0.37" d="m-16.52475842498528,25.428988480187634 l4.13118960624632,3.0014849401916734 l-5.106431181261041,0.0 l-4.13118960624632,-3.0014849401916734z"/>
<path fill="#B31B1B" fill-opacity="0.37" d="m-15.922025984384199,-17.570998890044883 l-4.13118960624632,-3.001484940191677 l5.106431181261041,3.552713678800501e-15 l4.13118960624632,3.001484940191677z"/>
<path fill="#B31B1B" fill-opacity="0.37" d="m-15.922025984384199,-7.857989590142747 l5.106431181261041,1.7763568394002505e-15 l-4.131189606246322,3.001484940191671 l-5.106431181261041,-1.7763568394002505e-15z"/>
<path fill="#B31B1B" fill-opacity="0.37" d="m-15.922025984384199,7.857989590142747 l5.106431181261041,-1.7763568394002505e-15 l-4.131189606246322,-3.001484940191671 l-5.106431181261041,1.7763568394002505e-15z"/>
<path fill="#B31B1B" fill-opacity="0.37" d="m-15.922025984384199,17.570998890044883 l-4.13118960624632,3.001484940191677 l5.106431181261041,-3.552713678800501e-15 l4.13118960624632,-3.001484940191677z"/>
<path fill="#B31B1B" fill-opacity="0.9" d="m-10.815594803123162,-33.28697807033038 l-5.106431181261039,0.0 l-1.5779740156157995,4.85650464995107 l5.106431181261039,-0.0z"/>
<path fill="#B31B1B" fill-opacity="0.9" d="m-10.815594803123162,33.28697807033038 l-5.106431181261039,0.0 l-1.5779740156157995,-4.85650464995107 l5.106431181261039,-0.0z"/>
<path fill="#B31B1B" fill-opacity="0.9" d="m-10.815594803123158,-17.570998890044887 l-1.5779740156157978,4.856504649951074 l-5.106431181261041,1.7763568394002505e-15 l1.5779740156157978,-4.856504649951074z"/>
<path fill="#B31B1B" fill-opacity="0.9" d="m-10.815594803123158,-7.857989590142745 l-5.106431181261041,-1.7763568394002505e-15 l-1.5779740156157978,-4.85650464995107 l5.106431181261041,1.7763568394002505e-15z"/>
<path fill="#B31B1B" fill-opacity="0.9" d="m-10.815594803123158,-7.857989590142743 l-1.5779740156157978,-4.856504649951071 l-5.106431181261041,1.7763568394002505e-15 l1.5779740156157978,4.856504649951071z"/>
<path fill="#B31B1B" fill-opacity="0.9" d="m-10.815594803123158,7.857989590142743 l-1.5779740156157978,4.856504649951071 l-5.106431181261041,-1.7763568394002505e-15 l1.5779740156157978,-4.856504649951071z"/>
<path fill="#B31B1B" fill-opacity="0.9" d="m-10.815594803123158,7.857989590142745 l-5.106431181261041,1.7763568394002505e-15 l-1.5779740156157978,4.85650464995107 l5.106431181261041,-1.7763568394002505e-15z"/>
<path fill="#B31B1B" fill-opacity="0.9" d="m-10.815594803123158,17.570998890044887 l-1.5779740156157978,-4.856504649951074 l-5.106431181261041,-1.7763568394002505e-15 l1.5779740156157978,4.856504649951074z"/>
<path fill="#B31B1B" fill-opacity="0.37" d="m-12.39356881873896,-3.001484940191675 l-4.131189606246323,3.0014849401916717 l1.577974015615803,-4.856504649951071 l4.131189606246323,-3.0014849401916717z"/>
<path fill="#B31B1B" fill-opacity="0.37" d="m-12.39356881873896,3.001484940191675 l-4.131189606246323,-3.0014849401916717 l1.577974015615803,4.856504649951071 l4.131189606246323,3.0014849401916717z"/>
<path fill="#B31B1B" fill-opacity="0.9" d="m-12.39356881873896,-28.430473420379307 l-4.13118960624632,3.0014849401916734 l1.5779740156158013,4.856504649951077 l4.13118960624632,-3.0014849401916734z"/>
<path fill="#B31B1B" fill-opacity="0.9" d="m-12.39356881873896,28.430473420379307 l-4.13118960624632,-3.0014849401916734 l1.5779740156158013,-4.856504649951077 l4.13118960624632,3.0014849401916734z"/>
<path fill="#B31B1B" fill-opacity="0.9" d="m-16.524758424985283,-3.3547277311610873e-15 l4.131189606246323,-3.0014849401916717 l4.13118960624632,3.0014849401916734 l-4.131189606246323,3.0014849401916717z"/>
<path fill="#B31B1B" fill-opacity="0.9" d="m-16.524758424985283,3.3547277311610873e-15 l4.131189606246323,3.0014849401916717 l4.13118960624632,-3.0014849401916734 l-4.131189606246323,-3.0014849401916717z"/>
<path fill="#B31B1B" fill-opacity="0.9" d="m-6.684405196876842,-20.572483830236564 l-4.131189606246316,-3.0014849401916663 l-4.13118960624632,3.0014849401916734 l4.131189606246316,3.0014849401916663z"/>
<path fill="#B31B1B" fill-opacity="0.9" d="m-6.684405196876842,20.572483830236564 l-4.131189606246316,3.0014849401916663 l-4.13118960624632,-3.0014849401916734 l4.131189606246316,-3.0014849401916663z"/>
<path fill="#B31B1B" fill-opacity="0.37" d="m-12.393568818738956,-12.714494240093813 l1.5779740156157978,4.856504649951071 l1.5779740156157978,-4.856504649951073 l-1.5779740156157978,-4.856504649951071z"/>
<path fill="#B31B1B" fill-opacity="0.37" d="m-12.393568818738956,12.714494240093813 l1.5779740156157978,-4.856504649951071 l1.5779740156157978,4.856504649951073 l-1.5779740156157978,4.856504649951071z"/>
<path fill="#B31B1B" fill-opacity="0.9" d="m-10.815594803123162,-33.28697807033038 l-1.5779740156157978,4.85650464995107 l4.13118960624632,3.0014849401916734 l1.5779740156157978,-4.85650464995107z"/>
<path fill="#B31B1B" fill-opacity="0.9" d="m-10.815594803123162,33.28697807033038 l-1.5779740156157978,-4.85650464995107 l4.13118960624632,-3.0014849401916734 l1.5779740156157978,4.85650464995107z"/>
<path fill="#B31B1B" fill-opacity="0.37" d="m-10.815594803123158,-23.57396877042823 l-1.5779740156158013,-4.856504649951077 l4.13118960624632,3.0014849401916734 l1.5779740156158013,4.856504649951077z"/>
<path fill="#B31B1B" fill-opacity="0.9" d="m-10.815594803123158,-7.857989590142745 l-1.5779740156158013,4.85650464995107 l4.13118960624632,3.0014849401916734 l1.5779740156158013,-4.85650464995107z"/>
<path fill="#B31B1B" fill-opacity="0.9" d="m-10.815594803123158,7.857989590142745 l-1.5779740156158013,-4.85650464995107 l4.13118960624632,-3.0014849401916734 l1.5779740156158013,4.85650464995107z"/>
<path fill="#B31B1B" fill-opacity="0.37" d="m-10.815594803123158,23.57396877042823 l-1.5779740156158013,4.856504649951077 l4.13118960624632,-3.0014849401916734 l1.5779740156158013,-4.856504649951077z"/>
<path fill="#B31B1B" fill-opacity="0.9" d="m-10.815594803123156,-33.28697807033038 l4.131189606246319,3.0014849401916734 l-1.5779740156157986,4.85650464995107 l-4.131189606246319,-3.0014849401916734z"/>
<path fill="#B31B1B" fill-opacity="0.9" d="m-10.815594803123156,33.28697807033038 l4.131189606246319,-3.0014849401916734 l-1.5779740156157986,-4.85650464995107 l-4.131189606246319,3.0014849401916734z"/>
<path fill="#B31B1B" fill-opacity="0.9" d="m-6.684405196876842,-20.572483830236564 l1.5779740156157995,4.856504649951074 l-4.131189606246318,3.001484940191675 l-1.5779740156157995,-4.856504649951074z"/>
<path fill="#B31B1B" fill-opacity="0.9" d="m-6.684405196876842,20.572483830236564 l1.5779740156157995,-4.856504649951074 l-4.131189606246318,-3.001484940191675 l-1.5779740156157995,4.856504649951074z"/>
<path fill="#B31B1B" fill-opacity="0.37" d="m-6.68440519687684,-10.859474530334417 l1.5779740156157978,-4.856504649951074 l-4.131189606246318,3.001484940191675 l-1.5779740156157978,4.856504649951074z"/>
<path fill="#B31B1B" fill-opacity="0.37" d="m-6.68440519687684,10.859474530334417 l1.5779740156157978,4.856504649951074 l-4.131189606246318,-3.001484940191675 l-1.5779740156157978,-4.856504649951074z"/>
<path fill="#B31B1B" fill-opacity="0.37" d="m-5.1064311812610415,-1.0366678804296858e-15 l-1.5779740156157986,-4.856504649951072 l-1.5779740156157995,4.856504649951071 l1.5779740156157986,4.856504649951072z"/>
<path fill="#B31B1B" fill-opacity="0.37" d="m-5.1064311812610415,1.0366678804296858e-15 l-1.5779740156157986,4.856504649951072 l-1.5779740156157995,-4.856504649951071 l1.5779740156157986,-4.856504649951072z"/>
<path fill="#B31B1B" fill-opacity="0.9" d="m-10.815594803123158,-7.857989590142743 l4.131189606246318,-3.0014849401916743 l4.13118960624632,3.0014849401916726 l-4.131189606246318,3.0014849401916743z"/>
<path fill="#B31B1B" fill-opacity="0.9" d="m-10.815594803123158,7.857989590142743 l4.131189606246318,3.0014849401916743 l4.13118960624632,-3.0014849401916726 l-4.131189606246318,-3.0014849401916743z"/>
<path fill="#B31B1B" fill-opacity="0.37" d="m-5.106431181261039,-25.428988480187634 l-1.5779740156157986,-4.85650464995107 l-1.5779740156157986,4.85650464995107 l1.5779740156157986,4.85650464995107z"/>
<path fill="#B31B1B" fill-opacity="0.37" d="m-5.106431181261039,25.428988480187634 l-1.5779740156157986,4.85650464995107 l-1.5779740156157986,-4.85650464995107 l1.5779740156157986,-4.85650464995107z"/>
<path fill="#B31B1B" fill-opacity="0.9" d="m-10.815594803123156,-33.28697807033038 l4.131189606246319,-3.0014849401916734 l4.13118960624632,3.0014849401916734 l-4.131189606246319,3.0014849401916734z"/>
<path fill="#B31B1B" fill-opacity="0.9" d="m-10.815594803123156,33.28697807033038 l4.131189606246319,3.0014849401916734 l4.13118960624632,-3.0014849401916734 l-4.131189606246319,-3.0014849401916734z"/>
<path fill="#B31B1B" fill-opacity="0.9" d="m-5.106431181261042,-15.71597918028549 l-1.5779740156157978,4.856504649951074 l4.13118960624632,3.0014849401916726 l1.5779740156157978,-4.856504649951074z"/>
<path fill="#B31B1B" fill-opacity="0.9" d="m-5.106431181261042,15.71597918028549 l-1.5779740156157978,-4.856504649951074 l4.13118960624632,-3.0014849401916726 l1.5779740156157978,4.856504649951074z"/>
<path fill="#B31B1B" fill-opacity="0.9" d="m-5.10643118126104,-15.71597918028549 l4.13118960624632,3.001484940191675 l-1.5779740156157998,4.856504649951071 l-4.13118960624632,-3.001484940191675z"/>
<path fill="#B31B1B" fill-opacity="0.9" d="m-5.10643118126104,15.71597918028549 l4.13118960624632,-3.001484940191675 l-1.5779740156157998,-4.856504649951071 l-4.13118960624632,3.001484940191675z"/>
<path fill="#B31B1B" fill-opacity="0.9" d="m-6.68440519687684,-4.856504649951073 l1.5779740156157986,4.856504649951072 l5.1064311812610415,1.0366678804296858e-15 l-1.5779740156157986,-4.856504649951072z"/>
<path fill="#B31B1B" fill-opacity="0.9" d="m-6.68440519687684,-4.856504649951071 l5.106431181261041,-8.881784197001252e-16 l1.5779740156157995,4.856504649951072 l-5.106431181261041,8.881784197001252e-16z"/>
<path fill="#B31B1B" fill-opacity="0.9" d="m-6.68440519687684,4.856504649951071 l5.106431181261041,8.881784197001252e-16 l1.5779740156157995,-4.856504649951072 l-5.106431181261041,-8.881784197001252e-16z"/>
<path fill="#B31B1B" fill-opacity="0.9" d="m-6.68440519687684,4.856504649951073 l1.5779740156157986,-4.856504649951072 l5.1064311812610415,-1.0366678804296858e-15 l-1.5779740156157986,4.856504649951072z"/>
<path fill="#B31B1B" fill-opacity="0.9" d="m-6.684405196876838,-20.572483830236564 l1.5779740156157986,4.856504649951074 l5.1064311812610415,1.7763568394002505e-15 l-1.5779740156157986,-4.856504649951074z"/>
<path fill="#B31B1B" fill-opacity="0.9" d="m-6.684405196876838,20.572483830236564 l1.5779740156157986,-4.856504649951074 l5.1064311812610415,-1.7763568394002505e-15 l-1.5779740156157986,4.856504649951074z"/>
<path fill="#B31B1B" fill-opacity="0.9" d="m-6.684405196876838,-20.572483830236564 l1.5779740156157995,-4.85650464995107 l5.1064311812610415,3.552713678800501e-15 l-1.5779740156157995,4.85650464995107z"/>
<path fill="#B31B1B" fill-opacity="0.9" d="m-6.684405196876838,20.572483830236564 l1.5779740156157995,4.85650464995107 l5.1064311812610415,-3.552713678800501e-15 l-1.5779740156157995,-4.85650464995107z"/>
<path fill="#B31B1B" fill-opacity="0.9" d="m-6.684405196876837,-36.28846301052205 l5.106431181261041,0.0 l1.577974015615799,-4.85650464995107 l-5.106431181261041,-0.0z"/>
<path fill="#B31B1B" fill-opacity="0.9" d="m-6.684405196876837,-30.285493130138704 l5.106431181261041,0.0 l1.577974015615799,4.856504649951074 l-5.106431181261041,-0.0z"/>
<path fill="#B31B1B" fill-opacity="0.9" d="m-6.684405196876837,30.285493130138704 l5.106431181261041,0.0 l1.577974015615799,-4.856504649951074 l-5.106431181261041,-0.0z"/>
<path fill="#B31B1B" fill-opacity="0.9" d="m-6.684405196876837,36.28846301052205 l5.106431181261041,0.0 l1.577974015615799,4.85650464995107 l-5.106431181261041,-0.0z"/>
<path fill="#B31B1B" fill-opacity="0.37" d="m-1.5779740156157995,-4.856504649951072 l-5.106431181261041,8.881784197001252e-16 l4.13118960624632,-3.0014849401916734 l5.106431181261041,-8.881784197001252e-16z"/>
<path fill="#B31B1B" fill-opacity="0.37" d="m-1.5779740156157995,4.856504649951072 l-5.106431181261041,-8.881784197001252e-16 l4.13118960624632,3.0014849401916734 l5.106431181261041,8.881784197001252e-16z"/>
<path fill="#B31B1B" fill-opacity="0.37" d="m-1.5779740156157986,-4.856504649951072 l4.13118960624632,-3.0014849401916726 l-5.106431181261041,0.0 l-4.13118960624632,3.0014849401916726z"/>
<path fill="#B31B1B" fill-opacity="0.37" d="m-1.5779740156157986,4.856504649951072 l4.13118960624632,3.0014849401916726 l-5.106431181261041,0.0 l-4.13118960624632,-3.0014849401916726z"/>
<path fill="#B31B1B" fill-opacity="0.37" d="m-1.5779740156157964,-36.28846301052205 l4.131189606246318,3.0014849401916734 l-5.10643118126104,0.0 l-4.131189606246318,-3.0014849401916734z"/>
<path fill="#B31B1B" fill-opacity="0.37" d="m-1.5779740156157964,-30.285493130138704 l-5.106431181261041,0.0 l4.13118960624632,-3.0014849401916734 l5.106431181261041,-0.0z"/>
<path fill="#B31B1B" fill-opacity="0.37" d="m-1.5779740156157964,30.285493130138704 l-5.106431181261041,0.0 l4.13118960624632,3.0014849401916734 l5.106431181261041,-0.0z"/>
<path fill="#B31B1B" fill-opacity="0.37" d="m-1.5779740156157964,36.28846301052205 l4.131189606246318,-3.0014849401916734 l-5.10643118126104,0.0 l-4.131189606246318,3.0014849401916734z"/>
<path fill="#B31B1B" fill-opacity="0.37" d="m-0.9752415750147196,-12.714494240093815 l-4.13118960624632,-3.001484940191675 l5.1064311812610415,1.7763568394002505e-15 l4.13118960624632,3.001484940191675z"/>
<path fill="#B31B1B" fill-opacity="0.37" d="m-0.9752415750147196,12.714494240093815 l-4.13118960624632,3.001484940191675 l5.1064311812610415,-1.7763568394002505e-15 l4.13118960624632,-3.001484940191675z"/>
<path fill="#B31B1B" fill-opacity="0.9" d="m4.131189606246321,-12.714494240093815 l-5.106431181261041,0.0 l-1.5779740156157998,4.856504649951071 l5.106431181261041,-0.0z"/>
<path fill="#B31B1B" fill-opacity="0.9" d="m4.131189606246321,12.714494240093815 l-5.106431181261041,0.0 l-1.5779740156157998,-4.856504649951071 l5.106431181261041,-0.0z"/>
<path fill="#B31B1B" fill-opacity="0.9" d="m2.553215590630519,-7.857989590142745 l1.5779740156158009,4.856504649951072 l-4.13118960624632,3.001484940191674 l-1.5779740156158009,-4.856504649951072z"/>
<path fill="#B31B1B" fill-opacity="0.9" d="m2.553215590630519,7.857989590142745 l1.5779740156158009,-4.856504649951072 l-4.13118960624632,-3.001484940191674 l-1.5779740156158009,4.856504649951072z"/>
<path fill="#B31B1B" fill-opacity="0.9" d="m2.553215590630521,-7.857989590142744 l-4.13118960624632,3.0014849401916726 l1.5779740156157986,4.856504649951072 l4.13118960624632,-3.0014849401916726z"/>
<path fill="#B31B1B" fill-opacity="0.9" d="m2.553215590630521,7.857989590142744 l-4.13118960624632,-3.0014849401916726 l1.5779740156157986,-4.856504649951072 l4.13118960624632,3.0014849401916726z"/>
<path fill="#B31B1B" fill-opacity="0.37" d="m2.553215590630521,-17.570998890044883 l1.5779740156157995,4.856504649951068 l-4.131189606246319,-3.0014849401916734 l-1.5779740156157995,-4.856504649951068z"/>
<path fill="#B31B1B" fill-opacity="0.37" d="m2.553215590630521,17.570998890044883 l1.5779740156157995,-4.856504649951068 l-4.131189606246319,3.0014849401916734 l-1.5779740156157995,4.856504649951068z"/>
<path fill="#B31B1B" fill-opacity="0.9" d="m2.553215590630522,-33.28697807033038 l1.5779740156157995,-4.856504649951077 l-4.131189606246319,-3.0014849401916663 l-1.5779740156157995,4.856504649951077z"/>
<path fill="#B31B1B" fill-opacity="0.9" d="m2.553215590630522,-33.28697807033038 l-4.131189606246318,3.0014849401916734 l1.577974015615799,4.856504649951074 l4.131189606246318,-3.0014849401916734z"/>
<path fill="#B31B1B" fill-opacity="0.37" d="m2.553215590630522,-23.57396877042823 l1.5779740156157986,-4.856504649951077 l-4.131189606246318,3.001484940191677 l-1.5779740156157986,4.856504649951077z"/>
<path fill="#B31B1B" fill-opacity="0.37" d="m2.553215590630522,23.57396877042823 l1.5779740156157986,4.856504649951077 l-4.131189606246318,-3.001484940191677 l-1.5779740156157986,-4.856504649951077z"/>
<path fill="#B31B1B" fill-opacity="0.9" d="m2.553215590630522,33.28697807033038 l-4.131189606246318,-3.0014849401916734 l1.577974015615799,-4.856504649951074 l4.131189606246318,3.0014849401916734z"/>
<path fill="#B31B1B" fill-opacity="0.9" d="m2.553215590630522,33.28697807033038 l1.5779740156157995,4.856504649951077 l-4.131189606246319,3.0014849401916663 l-1.5779740156157995,-4.856504649951077z"/>
<path fill="#B31B1B" fill-opacity="0.9" d="m-1.5779740156157986,-20.57248383023656 l4.13118960624632,3.001484940191677 l4.13118960624632,-3.0014849401916734 l-4.13118960624632,-3.001484940191677z"/>
<path fill="#B31B1B" fill-opacity="0.9" d="m-1.5779740156157986,20.57248383023656 l4.13118960624632,-3.001484940191677 l4.13118960624632,3.0014849401916734 l-4.13118960624632,3.001484940191677z"/>
<path fill="#B31B1B" fill-opacity="0.9" d="m8.26237921249264,0.0 l-4.131189606246319,3.001484940191673 l-4.131189606246321,-3.001484940191673 l4.131189606246319,-3.001484940191673z"/>
<path fill="#B31B1B" fill-opacity="0.9" d="m8.262379212492643,-41.14496766047312 l-4.131189606246322,3.0014849401916663 l-4.131189606246319,-3.0014849401916663 l4.131189606246322,-3.0014849401916663z"/>
<path fill="#B31B1B" fill-opacity="0.9" d="m8.262379212492643,41.14496766047312 l-4.131189606246322,-3.0014849401916663 l-4.131189606246319,3.0014849401916663 l4.131189606246322,3.0014849401916663z"/>
<path fill="#B31B1B" fill-opacity="0.9" d="m4.131189606246317,-12.714494240093817 l4.131189606246319,-3.0014849401916734 l-1.5779740156158013,-4.85650464995107 l-4.131189606246319,3.0014849401916734z"/>
<path fill="#B31B1B" fill-opacity="0.9" d="m4.131189606246317,12.714494240093817 l4.131189606246319,3.0014849401916734 l-1.5779740156158013,4.85650464995107 l-4.131189606246319,-3.0014849401916734z"/>
<path fill="#B31B1B" fill-opacity="0.9" d="m4.131189606246317,-12.714494240093817 l4.131189606246321,3.00148494019167 l-1.5779740156157986,4.856504649951074 l-4.131189606246321,-3.00148494019167z"/>
<path fill="#B31B1B" fill-opacity="0.9" d="m4.131189606246317,12.714494240093817 l4.131189606246321,-3.00148494019167 l-1.5779740156157986,-4.856504649951074 l-4.131189606246321,3.00148494019167z"/>
<path fill="#B31B1B" fill-opacity="0.37" d="m4.13118960624632,-3.001484940191674 l-1.5779740156158009,-4.856504649951072 l4.13118960624632,3.0014849401916717 l1.5779740156158009,4.856504649951072z"/>
<path fill="#B31B1B" fill-opacity="0.37" d="m4.13118960624632,3.001484940191674 l-1.5779740156158009,4.856504649951072 l4.13118960624632,-3.0014849401916717 l1.5779740156158009,-4.856504649951072z"/>
<path fill="#B31B1B" fill-opacity="0.9" d="m4.131189606246321,-28.430473420379307 l4.131189606246319,3.0014849401916806 l-1.5779740156157986,4.85650464995107 l-4.131189606246319,-3.0014849401916806z"/>
<path fill="#B31B1B" fill-opacity="0.9" d="m4.131189606246321,-12.714494240093815 l-1.5779740156157995,-4.856504649951068 l4.13118960624632,-3.0014849401916734 l1.5779740156157995,4.856504649951068z"/>
<path fill="#B31B1B" fill-opacity="0.37" d="m4.131189606246321,-3.001484940191673 l4.131189606246319,3.001484940191673 l-1.5779740156157986,-4.856504649951072 l-4.131189606246319,-3.001484940191673z"/>
<path fill="#B31B1B" fill-opacity="0.37" d="m4.131189606246321,3.001484940191673 l4.131189606246319,-3.001484940191673 l-1.5779740156157986,4.856504649951072 l-4.131189606246319,3.001484940191673z"/>
<path fill="#B31B1B" fill-opacity="0.9" d="m4.131189606246321,12.714494240093815 l-1.5779740156157995,4.856504649951068 l4.13118960624632,3.0014849401916734 l1.5779740156157995,-4.856504649951068z"/>
<path fill="#B31B1B" fill-opacity="0.9" d="m4.131189606246321,28.430473420379307 l4.131189606246319,-3.0014849401916806 l-1.5779740156157986,-4.85650464995107 l-4.131189606246319,3.0014849401916806z"/>
<path fill="#B31B1B" fill-opacity="0.37" d="m4.131189606246322,-38.143482720281455 l-1.5779740156157995,4.856504649951077 l4.13118960624632,-3.0014849401916734 l1.5779740156157995,-4.856504649951077z"/>
<path fill="#B31B1B" fill-opacity="0.37" d="m4.131189606246322,38.143482720281455 l-1.5779740156157995,-4.856504649951077 l4.13118960624632,3.0014849401916734 l1.5779740156157995,4.856504649951077z"/>
<path fill="#B31B1B" fill-opacity="0.37" d="m4.1311896062463225,-44.146452600664794 l4.131189606246321,3.0014849401916734 l-1.5779740156158004,-4.85650464995107 l-4.131189606246321,-3.0014849401916734z"/>
<path fill="#B31B1B" fill-opacity="0.37" d="m4.1311896062463225,44.146452600664794 l4.131189606246321,-3.0014849401916734 l-1.5779740156158004,4.85650464995107 l-4.131189606246321,3.0014849401916734z"/>
<path fill="#B31B1B" fill-opacity="0.9" d="m2.553215590630522,-33.28697807033038 l5.106431181261041,0.0 l1.5779740156157995,4.856504649951077 l-5.106431181261041,-0.0z"/>
<path fill="#B31B1B" fill-opacity="0.9" d="m2.553215590630522,33.28697807033038 l5.106431181261041,0.0 l1.5779740156157995,-4.856504649951077 l-5.106431181261041,-0.0z"/>
<path fill="#B31B1B" fill-opacity="0.37" d="m7.659646771891563,-33.28697807033038 l4.13118960624632,-3.0014849401916734 l-5.106431181261041,0.0 l-4.13118960624632,3.0014849401916734z"/>
<path fill="#B31B1B" fill-opacity="0.37" d="m7.659646771891563,33.28697807033038 l4.13118960624632,3.0014849401916734 l-5.106431181261041,0.0 l-4.13118960624632,-3.0014849401916734z"/>
<path fill="#B31B1B" fill-opacity="0.37" d="m8.262379212492633,-25.428988480187634 l5.106431181261044,-3.552713678800501e-15 l-4.131189606246323,-3.00148494019167 l-5.106431181261044,3.552713678800501e-15z"/>
<path fill="#B31B1B" fill-opacity="0.37" d="m8.262379212492633,25.428988480187634 l5.106431181261044,3.552713678800501e-15 l-4.131189606246323,3.00148494019167 l-5.106431181261044,-3.552713678800501e-15z"/>
<path fill="#B31B1B" fill-opacity="0.37" d="m8.262379212492636,-15.71597918028549 l-4.131189606246319,3.0014849401916734 l5.1064311812610415,-1.7763568394002505e-15 l4.131189606246319,-3.0014849401916734z"/>
<path fill="#B31B1B" fill-opacity="0.37" d="m8.262379212492636,15.71597918028549 l-4.131189606246319,-3.0014849401916734 l5.1064311812610415,1.7763568394002505e-15 l4.131189606246319,3.0014849401916734z"/>
<path fill="#B31B1B" fill-opacity="0.37" d="m8.262379212492638,-9.713009299902147 l5.106431181261044,-1.7763568394002505e-15 l-4.131189606246323,-3.00148494019167 l-5.106431181261044,1.7763568394002505e-15z"/>
<path fill="#B31B1B" fill-opacity="0.37" d="m8.262379212492638,9.713009299902147 l5.106431181261044,1.7763568394002505e-15 l-4.131189606246323,3.00148494019167 l-5.106431181261044,-1.7763568394002505e-15z"/>
<path fill="#B31B1B" fill-opacity="0.37" d="m8.26237921249264,-25.428988480187627 l-4.131189606246319,-3.0014849401916806 l5.1064311812610415,7.105427357601002e-15 l4.131189606246319,3.0014849401916806z"/>
<path fill="#B31B1B" fill-opacity="0.37" d="m8.26237921249264,25.428988480187627 l-4.131189606246319,3.0014849401916806 l5.1064311812610415,-7.105427357601002e-15 l4.131189606246319,-3.0014849401916806z"/>
<path fill="#B31B1B" fill-opacity="0.9" d="m13.368810393753677,-25.428988480187638 l-5.106431181261044,3.552713678800501e-15 l-1.5779740156157978,4.856504649951074 l5.106431181261044,-3.552713678800501e-15z"/>
<path fill="#B31B1B" fill-opacity="0.9" d="m13.368810393753677,25.428988480187638 l-5.106431181261044,-3.552713678800501e-15 l-1.5779740156157978,-4.856504649951074 l5.106431181261044,3.552713678800501e-15z"/>
<path fill="#B31B1B" fill-opacity="0.9" d="m13.36881039375368,-15.715979180285492 l-5.106431181261044,1.7763568394002505e-15 l-1.5779740156158013,-4.85650464995107 l5.106431181261044,-1.7763568394002505e-15z"/>
<path fill="#B31B1B" fill-opacity="0.9" d="m13.36881039375368,15.715979180285492 l-5.106431181261044,-1.7763568394002505e-15 l-1.5779740156158013,4.85650464995107 l5.106431181261044,1.7763568394002505e-15z"/>
<path fill="#B31B1B" fill-opacity="0.9" d="m13.368810393753682,-9.713009299902149 l-5.106431181261044,1.7763568394002505e-15 l-1.5779740156157986,4.856504649951074 l5.106431181261044,-1.7763568394002505e-15z"/>
<path fill="#B31B1B" fill-opacity="0.9" d="m13.36881039375368,-0.0 l-1.5779740156157978,-4.856504649951072 l-5.1064311812610415,0.0 l1.5779740156157978,4.856504649951072z"/>
<path fill="#B31B1B" fill-opacity="0.9" d="m13.36881039375368,0.0 l-1.5779740156157978,4.856504649951072 l-5.1064311812610415,0.0 l1.5779740156157978,-4.856504649951072z"/>
<path fill="#B31B1B" fill-opacity="0.9" d="m13.368810393753682,9.713009299902149 l-5.106431181261044,-1.7763568394002505e-15 l-1.5779740156157986,-4.856504649951074 l5.106431181261044,1.7763568394002505e-15z"/>
<path fill="#B31B1B" fill-opacity="0.9" d="m13.368810393753684,-50.85797696037526 l-1.5779740156158013,4.85650464995107 l-5.10643118126104,0.0 l1.5779740156158013,-4.85650464995107z"/>
<path fill="#B31B1B" fill-opacity="0.9" d="m13.368810393753684,-41.14496766047312 l-1.5779740156158013,-4.85650464995107 l-5.10643118126104,0.0 l1.5779740156158013,4.85650464995107z"/>
<path fill="#B31B1B" fill-opacity="0.9" d="m13.368810393753684,-41.14496766047312 l-1.5779740156158013,4.85650464995107 l-5.106431181261041,0.0 l1.5779740156158013,-4.85650464995107z"/>
<path fill="#B31B1B" fill-opacity="0.9" d="m13.368810393753684,-9.713009299902144 l-1.5779740156158013,4.856504649951072 l-5.1064311812610415,0.0 l1.5779740156158013,-4.856504649951072z"/>
<path fill="#B31B1B" fill-opacity="0.9" d="m13.368810393753684,9.713009299902144 l-1.5779740156158013,-4.856504649951072 l-5.1064311812610415,0.0 l1.5779740156158013,4.856504649951072z"/>
<path fill="#B31B1B" fill-opacity="0.9" d="m13.368810393753684,41.14496766047312 l-1.5779740156158013,-4.85650464995107 l-5.106431181261041,0.0 l1.5779740156158013,4.85650464995107z"/>
<path fill="#B31B1B" fill-opacity="0.9" d="m13.368810393753684,41.14496766047312 l-1.5779740156158013,4.85650464995107 l-5.10643118126104,0.0 l1.5779740156158013,-4.85650464995107z"/>
<path fill="#B31B1B" fill-opacity="0.9" d="m13.368810393753684,50.85797696037526 l-1.5779740156158013,-4.85650464995107 l-5.10643118126104,0.0 l1.5779740156158013,4.85650464995107z"/>
<path fill="#B31B1B" fill-opacity="0.9" d="m11.790836378137875,-36.28846301052205 l1.5779740156157978,4.8565046499510665 l-4.13118960624632,3.001484940191677 l-1.5779740156157978,-4.8565046499510665z"/>
<path fill="#B31B1B" fill-opacity="0.9" d="m11.790836378137875,36.28846301052205 l1.5779740156157978,-4.8565046499510665 l-4.13118960624632,-3.001484940191677 l-1.5779740156157978,4.8565046499510665z"/>
<path fill="#B31B1B" fill-opacity="0.9" d="m11.790836378137882,-36.28846301052205 l-4.13118960624632,3.0014849401916734 l1.5779740156157995,4.856504649951077 l4.13118960624632,-3.0014849401916734z"/>
<path fill="#B31B1B" fill-opacity="0.9" d="m11.790836378137882,36.28846301052205 l-4.13118960624632,-3.0014849401916734 l1.5779740156157995,-4.856504649951077 l4.13118960624632,3.0014849401916734z"/>
<path fill="#B31B1B" fill-opacity="0.9" d="m17.499999999999996,-28.43047342037931 l-4.131189606246323,-3.0014849401916734 l-4.13118960624632,3.001484940191677 l4.131189606246323,3.0014849401916734z"/>
<path fill="#B31B1B" fill-opacity="0.9" d="m17.499999999999996,28.43047342037931 l-4.131189606246323,3.0014849401916734 l-4.13118960624632,-3.001484940191677 l4.131189606246323,-3.0014849401916734z"/>
<path fill="#B31B1B" fill-opacity="0.37" d="m11.790836378137877,-20.572483830236564 l1.5779740156157995,-4.856504649951074 l1.5779740156157978,4.856504649951074 l-1.5779740156157995,4.856504649951074z"/>
<path fill="#B31B1B" fill-opacity="0.37" d="m11.790836378137877,20.572483830236564 l1.5779740156157995,4.856504649951074 l1.5779740156157978,-4.856504649951074 l-1.5779740156157995,-4.856504649951074z"/>
<path fill="#B31B1B" fill-opacity="0.9" d="m17.5,-12.714494240093822 l-4.131189606246318,3.0014849401916734 l-4.131189606246323,-3.00148494019167 l4.131189606246318,-3.0014849401916734z"/>
<path fill="#B31B1B" fill-opacity="0.9" d="m17.5,12.714494240093822 l-4.131189606246318,-3.0014849401916734 l-4.131189606246323,3.00148494019167 l4.131189606246318,3.0014849401916734z"/>
<path fill="#B31B1B" fill-opacity="0.37" d="m11.790836378137882,-46.00147231042419 l1.5779740156158013,-4.85650464995107 l1.5779740156157978,4.85650464995107 l-1.5779740156158013,4.85650464995107z"/>
<path fill="#B31B1B" fill-opacity="0.37" d="m11.790836378137882,-4.856504649951072 l1.5779740156158013,-4.856504649951072 l1.5779740156157978,4.856504649951072 l-1.5779740156158013,4.856504649951072z"/>
<path fill="#B31B1B" fill-opacity="0.37" d="m11.790836378137882,4.856504649951072 l1.5779740156158013,4.856504649951072 l1.5779740156157978,-4.856504649951072 l-1.5779740156158013,-4.856504649951072z"/>
<path fill="#B31B1B" fill-opacity="0.37" d="m11.790836378137882,46.00147231042419 l1.5779740156158013,4.85650464995107 l1.5779740156157978,-4.85650464995107 l-1.5779740156158013,-4.85650464995107z"/>
<path fill="#B31B1B" fill-opacity="0.9" d="m13.368810393753673,-41.14496766047313 l-1.5779740156157978,4.856504649951077 l4.13118960624632,3.0014849401916663 l1.5779740156157978,-4.856504649951077z"/>
<path fill="#B31B1B" fill-opacity="0.37" d="m13.368810393753673,-31.431958360570984 l-1.5779740156157978,-4.8565046499510665 l4.13118960624632,3.0014849401916663 l1.5779740156157978,4.8565046499510665z"/>
<path fill="#B31B1B" fill-opacity="0.37" d="m13.368810393753673,31.431958360570984 l-1.5779740156157978,4.8565046499510665 l4.13118960624632,-3.0014849401916663 l1.5779740156157978,-4.8565046499510665z"/>
<path fill="#B31B1B" fill-opacity="0.9" d="m13.368810393753673,41.14496766047313 l-1.5779740156157978,-4.856504649951077 l4.13118960624632,-3.0014849401916663 l1.5779740156157978,4.856504649951077z"/>
<path fill="#B31B1B" fill-opacity="0.9" d="m17.49999999999999,-53.85946190056694 l1.5779740156158013,4.85650464995107 l-4.13118960624632,3.0014849401916734 l-1.5779740156158013,-4.85650464995107z"/>
<path fill="#B31B1B" fill-opacity="0.9" d="m17.49999999999999,53.85946190056694 l1.5779740156158013,-4.85650464995107 l-4.13118960624632,-3.0014849401916734 l-1.5779740156158013,4.85650464995107z"/>
<path fill="#B31B1B" fill-opacity="0.37" d="m17.499999999999993,-44.1464526006648 l1.5779740156157978,-4.85650464995107 l-4.13118960624632,3.0014849401916734 l-1.5779740156157978,4.85650464995107z"/>
<path fill="#B31B1B" fill-opacity="0.37" d="m17.499999999999993,44.1464526006648 l1.5779740156157978,4.85650464995107 l-4.13118960624632,-3.0014849401916734 l-1.5779740156157978,-4.85650464995107z"/>
<path fill="#B31B1B" fill-opacity="0.9" d="m17.499999999999996,-28.43047342037931 l1.5779740156157978,4.85650464995107 l-4.13118960624632,3.001484940191677 l-1.5779740156157978,-4.85650464995107z"/>
<path fill="#B31B1B" fill-opacity="0.9" d="m17.5,-12.714494240093822 l1.5779740156157942,-4.856504649951068 l-4.13118960624632,-3.0014849401916734 l-1.5779740156157942,4.856504649951068z"/>
<path fill="#B31B1B" fill-opacity="0.9" d="m17.5,12.714494240093822 l1.5779740156157942,4.856504649951068 l-4.13118960624632,3.0014849401916734 l-1.5779740156157942,-4.856504649951068z"/>
<path fill="#B31B1B" fill-opacity="0.9" d="m17.499999999999996,28.43047342037931 l1.5779740156157978,-4.85650464995107 l-4.13118960624632,-3.001484940191677 l-1.5779740156157978,4.85650464995107z"/>
<path fill="#B31B1B" fill-opacity="0.9" d="m17.500000000000004,-53.859461900566934 l-4.13118960624632,3.0014849401916734 l1.5779740156157978,4.85650464995107 l4.13118960624632,-3.0014849401916734z"/>
<path fill="#B31B1B" fill-opacity="0.9" d="m17.500000000000004,-12.714494240093817 l-4.13118960624632,3.0014849401916734 l1.5779740156157978,4.856504649951072 l4.13118960624632,-3.0014849401916734z"/>
<path fill="#B31B1B" fill-opacity="0.37" d="m17.5,-3.001484940191673 l-4.13118960624632,3.001484940191673 l1.5779740156158013,-4.856504649951072 l4.13118960624632,-3.001484940191673z"/>
<path fill="#B31B1B" fill-opacity="0.37" d="m17.5,3.001484940191673 l-4.13118960624632,-3.001484940191673 l1.5779740156158013,4.856504649951072 l4.13118960624632,3.001484940191673z"/>
<path fill="#B31B1B" fill-opacity="0.9" d="m17.500000000000004,12.714494240093817 l-4.13118960624632,-3.0014849401916734 l1.5779740156157978,-4.856504649951072 l4.13118960624632,3.0014849401916734z"/>
<path fill="#B31B1B" fill-opacity="0.9" d="m17.500000000000004,53.859461900566934 l-4.13118960624632,-3.0014849401916734 l1.5779740156157978,-4.85650464995107 l4.13118960624632,3.0014849401916734z"/>
<path fill="#B31B1B" fill-opacity="0.9" d="m13.368810393753673,-41.14496766047313 l4.13118960624632,-3.0014849401916734 l4.13118960624632,3.0014849401916734 l-4.13118960624632,3.0014849401916734z"/>
<path fill="#B31B1B" fill-opacity="0.37" d="m19.077974015615794,-33.286978070330385 l-1.5779740156157978,4.856504649951074 l-1.5779740156158013,-4.856504649951074 l1.5779740156157978,-4.856504649951074z"/>
<path fill="#B31B1B" fill-opacity="0.37" d="m19.077974015615794,33.286978070330385 l-1.5779740156157978,-4.856504649951074 l-1.5779740156158013,4.856504649951074 l1.5779740156157978,4.856504649951074z"/>
<path fill="#B31B1B" fill-opacity="0.9" d="m13.368810393753673,41.14496766047313 l4.13118960624632,3.0014849401916734 l4.13118960624632,-3.0014849401916734 l-4.13118960624632,-3.0014849401916734z"/>
<path fill="#B31B1B" fill-opacity="0.9" d="m13.36881039375368,0.0 l4.13118960624632,3.001484940191673 l4.131189606246316,-3.001484940191673 l-4.13118960624632,-3.001484940191673z"/>
<path fill="#B31B1B" fill-opacity="0.9" d="m23.209163621862118,-20.572483830236568 l-4.131189606246323,-3.0014849401916734 l-4.13118960624632,3.001484940191677 l4.131189606246323,3.0014849401916734z"/>
<path fill="#B31B1B" fill-opacity="0.9" d="m23.209163621862118,20.572483830236568 l-4.131189606246323,3.0014849401916734 l-4.13118960624632,-3.001484940191677 l4.131189606246323,-3.0014849401916734z"/>
<path fill="#B31B1B" fill-opacity="0.9" d="m19.07797401561579,-49.00295725061587 l-1.5779740156157978,4.85650464995107 l4.13118960624632,3.0014849401916734 l1.5779740156157978,-4.85650464995107z"/>
<path fill="#B31B1B" fill-opacity="0.9" d="m19.07797401561579,49.00295725061587 l-1.5779740156157978,-4.85650464995107 l4.13118960624632,-3.0014849401916734 l1.5779740156157978,4.85650464995107z"/>
<path fill="#B31B1B" fill-opacity="0.37" d="m19.077974015615794,-23.57396877042824 l4.131189606246323,3.0014849401916734 l-1.5779740156158013,-4.856504649951074 l-4.131189606246323,-3.0014849401916734z"/>
<path fill="#B31B1B" fill-opacity="0.37" d="m19.077974015615794,-17.57099889004489 l4.131189606246323,-3.001484940191677 l-1.5779740156158013,4.856504649951074 l-4.131189606246323,3.001484940191677z"/>
<path fill="#B31B1B" fill-opacity="0.37" d="m19.077974015615794,17.57099889004489 l4.131189606246323,3.001484940191677 l-1.5779740156158013,-4.856504649951074 l-4.131189606246323,-3.001484940191677z"/>
<path fill="#B31B1B" fill-opacity="0.37" d="m19.077974015615794,23.57396877042824 l4.131189606246323,-3.0014849401916734 l-1.5779740156158013,4.856504649951074 l-4.131189606246323,3.0014849401916734z"/>
<path fill="#B31B1B" fill-opacity="0.9" d="m19.0779740156158,-7.857989590142745 l-1.5779740156158013,4.856504649951072 l4.131189606246316,3.001484940191673 l1.5779740156158013,-4.856504649951072z"/>
<path fill="#B31B1B" fill-opacity="0.9" d="m19.0779740156158,7.857989590142745 l-1.5779740156158013,-4.856504649951072 l4.131189606246316,-3.001484940191673 l1.5779740156158013,4.856504649951072z"/>
<path fill="#B31B1B" fill-opacity="0.9" d="m17.499999999999993,-38.143482720281455 l1.5779740156158013,4.85650464995107 l5.106431181261041,0.0 l-1.5779740156158013,-4.85650464995107z"/>
<path fill="#B31B1B" fill-opacity="0.9" d="m17.499999999999993,38.143482720281455 l1.5779740156158013,-4.85650464995107 l5.106431181261041,0.0 l-1.5779740156158013,4.85650464995107z"/>
<path fill="#B31B1B" fill-opacity="0.9" d="m17.499999999999996,-28.43047342037931 l1.5779740156157978,-4.856504649951074 l5.106431181261041,0.0 l-1.5779740156157978,4.856504649951074z"/>
<path fill="#B31B1B" fill-opacity="0.9" d="m17.499999999999996,28.43047342037931 l1.5779740156157978,4.856504649951074 l5.106431181261041,0.0 l-1.5779740156157978,-4.856504649951074z"/>
<path fill="#B31B1B" fill-opacity="0.9" d="m17.500000000000004,-12.714494240093817 l5.106431181261041,1.7763568394002505e-15 l1.5779740156157942,4.856504649951072 l-5.106431181261041,-1.7763568394002505e-15z"/>
<path fill="#B31B1B" fill-opacity="0.9" d="m17.500000000000004,12.714494240093817 l5.106431181261041,-1.7763568394002505e-15 l1.5779740156157942,-4.856504649951072 l-5.106431181261041,1.7763568394002505e-15z"/>
<path fill="#B31B1B" fill-opacity="0.37" d="m22.606431181261033,-38.143482720281455 l-5.106431181261041,0.0 l4.13118960624632,-3.0014849401916734 l5.106431181261041,-0.0z"/>
<path fill="#B31B1B" fill-opacity="0.37" d="m22.606431181261033,38.143482720281455 l-5.106431181261041,0.0 l4.13118960624632,3.0014849401916734 l5.106431181261041,-0.0z"/>
<path fill="#B31B1B" fill-opacity="0.37" d="m22.606431181261037,-28.430473420379315 l-5.106431181261041,3.552713678800501e-15 l4.13118960624632,3.00148494019167 l5.106431181261041,-3.552713678800501e-15z"/>
<path fill="#B31B1B" fill-opacity="0.37" d="m22.606431181261037,28.430473420379315 l-5.106431181261041,-3.552713678800501e-15 l4.13118960624632,-3.00148494019167 l5.106431181261041,3.552713678800501e-15z"/>
<path fill="#B31B1B" fill-opacity="0.37" d="m22.606431181261044,-12.714494240093815 l4.131189606246316,-3.0014849401916734 l-5.106431181261037,0.0 l-4.131189606246316,3.0014849401916734z"/>
<path fill="#B31B1B" fill-opacity="0.37" d="m22.606431181261044,12.714494240093815 l4.131189606246316,3.0014849401916734 l-5.106431181261037,0.0 l-4.131189606246316,-3.0014849401916734z"/>
<path fill="#B31B1B" fill-opacity="0.37" d="m23.209163621862118,-4.856504649951072 l5.106431181261044,-8.881784197001252e-16 l-4.131189606246323,-3.001484940191671 l-5.106431181261044,8.881784197001252e-16z"/>
<path fill="#B31B1B" fill-opacity="0.37" d="m23.209163621862118,4.856504649951072 l5.106431181261044,8.881784197001252e-16 l-4.131189606246323,3.001484940191671 l-5.106431181261044,-8.881784197001252e-16z"/>
<path fill="#B31B1B" fill-opacity="0.9" d="m28.315594803123155,-20.572483830236568 l-1.5779740156157978,-4.856504649951074 l-5.106431181261041,0.0 l1.5779740156157978,4.856504649951074z"/>
<path fill="#B31B1B" fill-opacity="0.9" d="m28.315594803123155,-20.572483830236568 l-5.106431181261037,0.0 l-1.5779740156158013,4.856504649951074 l5.106431181261037,-0.0z"/>
<path fill="#B31B1B" fill-opacity="0.9" d="m28.315594803123155,20.572483830236568 l-5.106431181261037,0.0 l-1.5779740156158013,-4.856504649951074 l5.106431181261037,-0.0z"/>
<path fill="#B31B1B" fill-opacity="0.9" d="m28.315594803123155,20.572483830236568 l-1.5779740156157978,4.856504649951074 l-5.106431181261041,0.0 l1.5779740156157978,-4.856504649951074z"/>
<path fill="#B31B1B" fill-opacity="0.9" d="m28.31559480312316,-4.856504649951073 l-1.5779740156158013,4.856504649951073 l-5.106431181261044,0.0 l1.5779740156158013,-4.856504649951073z"/>
<path fill="#B31B1B" fill-opacity="0.9" d="m28.31559480312316,4.856504649951073 l-1.5779740156158013,-4.856504649951073 l-5.106431181261044,0.0 l1.5779740156158013,4.856504649951073z"/>
<path fill="#B31B1B" fill-opacity="0.9" d="m28.31559480312316,-20.57248383023656 l-1.5779740156158013,4.856504649951072 l-5.106431181261037,0.0 l1.5779740156158013,-4.856504649951072z"/>
<path fill="#B31B1B" fill-opacity="0.9" d="m28.31559480312316,20.57248383023656 l-1.5779740156158013,-4.856504649951072 l-5.106431181261037,0.0 l1.5779740156158013,4.856504649951072z"/>
<path fill="#B31B1B" fill-opacity="0.9" d="m26.737620787507357,-25.42898848018764 l-4.13118960624632,-3.0014849401916734 l1.5779740156157978,-4.85650464995107 l4.13118960624632,3.0014849401916734z"/>
<path fill="#B31B1B" fill-opacity="0.9" d="m26.737620787507357,25.42898848018764 l-4.13118960624632,3.0014849401916734 l1.5779740156157978,4.85650464995107 l4.13118960624632,-3.0014849401916734z"/>
<path fill="#B31B1B" fill-opacity="0.9" d="m26.73762078750736,-15.715979180285489 l1.5779740156158013,4.856504649951072 l-4.131189606246323,3.0014849401916734 l-1.5779740156158013,-4.856504649951072z"/>
<path fill="#B31B1B" fill-opacity="0.9" d="m26.73762078750736,15.715979180285489 l1.5779740156158013,-4.856504649951072 l-4.131189606246323,-3.0014849401916734 l-1.5779740156158013,4.856504649951072z"/>
<path fill="#B31B1B" fill-opacity="0.9" d="m32.446784409369485,-7.857989590142745 l-4.131189606246323,-3.0014849401916717 l-4.131189606246323,3.0014849401916734 l4.131189606246323,3.0014849401916717z"/>
<path fill="#B31B1B" fill-opacity="0.37" d="m26.73762078750736,0.0 l1.5779740156158013,4.856504649951073 l1.5779740156157978,-4.856504649951073 l-1.5779740156158013,-4.856504649951073z"/>
<path fill="#B31B1B" fill-opacity="0.9" d="m32.446784409369485,7.857989590142745 l-4.131189606246323,3.0014849401916717 l-4.131189606246323,-3.0014849401916734 l4.131189606246323,-3.0014849401916717z"/>
<path fill="#B31B1B" fill-opacity="0.9" d="m28.31559480312316,-20.57248383023656 l4.131189606246323,3.00148494019167 l-1.5779740156158013,4.856504649951074 l-4.131189606246323,-3.00148494019167z"/>
<path fill="#B31B1B" fill-opacity="0.37" d="m28.31559480312316,-10.859474530334417 l-1.5779740156158013,-4.856504649951072 l4.131189606246323,3.0014849401916717 l1.5779740156158013,4.856504649951072z"/>
<path fill="#B31B1B" fill-opacity="0.37" d="m28.31559480312316,10.859474530334417 l-1.5779740156158013,4.856504649951072 l4.131189606246323,-3.0014849401916717 l1.5779740156158013,-4.856504649951072z"/>
<path fill="#B31B1B" fill-opacity="0.9" d="m28.31559480312316,20.57248383023656 l4.131189606246323,-3.00148494019167 l-1.5779740156158013,-4.856504649951074 l-4.131189606246323,3.00148494019167z"/>
<path fill="#B31B1B" fill-opacity="0.9" d="m32.446784409369485,-7.857989590142745 l1.5779740156158013,4.856504649951072 l-4.131189606246327,3.0014849401916734 l-1.5779740156158013,-4.856504649951072z"/>
<path fill="#B31B1B" fill-opacity="0.9" d="m32.446784409369485,7.857989590142745 l1.5779740156158013,-4.856504649951072 l-4.131189606246327,-3.0014849401916734 l-1.5779740156158013,4.856504649951072z"/>
<path fill="#B31B1B" fill-opacity="0.37" d="m34.02475842498528,-12.714494240093817 l-1.5779740156157942,4.856504649951072 l-1.5779740156158013,-4.856504649951072 l1.5779740156157942,-4.856504649951072z"/>
<path fill="#B31B1B" fill-opacity="0.37" d="m34.02475842498528,12.714494240093817 l-1.5779740156157942,-4.856504649951072 l-1.5779740156158013,4.856504649951072 l1.5779740156157942,4.856504649951072z"/>
<path fill="#B31B1B" fill-opacity="0.9" d="m38.1559480312316,0.0 l-4.131189606246316,3.0014849401916734 l-4.131189606246327,-3.0014849401916734 l4.131189606246316,-3.0014849401916734z"/>
<path fill="#B31B1B" fill-opacity="0.37" d="m34.024758424985286,-3.0014849401916734 l4.131189606246316,3.0014849401916734 l-1.5779740156157942,-4.856504649951073 l-4.131189606246316,-3.0014849401916734z"/>
<path fill="#B31B1B" fill-opacity="0.37" d="m34.024758424985286,3.0014849401916734 l4.131189606246316,-3.0014849401916734 l-1.5779740156157942,4.856504649951073 l-4.131189606246316,3.0014849401916734z"/>
<path fill="#B31B1B" fill-opacity="0.9" d="m32.446784409369485,-17.57099889004489 l1.5779740156157942,4.856504649951074 l5.106431181261044,0.0 l-1.5779740156157942,-4.856504649951074z"/>
<path fill="#B31B1B" fill-opacity="0.9" d="m32.446784409369485,-7.857989590142745 l5.106431181261044,0.0 l1.5779740156157942,-4.856504649951072 l-5.106431181261044,-0.0z"/>
<path fill="#B31B1B" fill-opacity="0.9" d="m32.446784409369485,7.857989590142745 l5.106431181261044,0.0 l1.5779740156157942,4.856504649951072 l-5.106431181261044,-0.0z"/>
<path fill="#B31B1B" fill-opacity="0.9" d="m32.446784409369485,17.57099889004489 l1.5779740156157942,-4.856504649951074 l5.106431181261044,0.0 l-1.5779740156157942,4.856504649951074z"/>
<path fill="#B31B1B" fill-opacity="0.37" d="m37.55321559063053,-7.857989590142745 l-5.106431181261044,0.0 l4.131189606246323,3.0014849401916726 l5.106431181261044,-0.0z"/>
<path fill="#B31B1B" fill-opacity="0.37" d="m37.55321559063053,7.857989590142745 l-5.106431181261044,0.0 l4.131189606246323,-3.0014849401916726 l5.106431181261044,-0.0z"/>
<path fill="#B31B1B" fill-opacity="0.9" d="m43.26237921249265,-0.0 l-5.106431181261044,0.0 l-1.5779740156157942,-4.856504649951073 l5.106431181261044,-0.0z"/>
<path fill="#B31B1B" fill-opacity="0.9" d="m43.26237921249265,0.0 l-5.106431181261044,0.0 l-1.5779740156157942,4.856504649951073 l5.106431181261044,-0.0z"/>
<path fill="#B31B1B" fill-opacity="0.9" d="m41.684405196876845,-4.856504649951072 l-4.131189606246316,-3.0014849401916734 l1.5779740156157942,-4.856504649951072 l4.131189606246316,3.0014849401916734z"/>
<path fill="#B31B1B" fill-opacity="0.9" d="m41.684405196876845,4.856504649951072 l-4.131189606246316,3.0014849401916734 l1.5779740156157942,4.856504649951072 l4.131189606246316,-3.0014849401916734z"/>
<path fill="#B31B1B" fill-opacity="0.37" d="m43.26237921249265,-9.713009299902144 l-1.5779740156158013,4.856504649951072 l4.131189606246316,-3.0014849401916734 l1.5779740156158013,-4.856504649951072z"/>
<path fill="#B31B1B" fill-opacity="0.9" d="m43.26237921249265,-0.0 l4.131189606246309,-3.0014849401916726 l-1.5779740156157942,-4.856504649951073 l-4.131189606246309,3.0014849401916726z"/>
<path fill="#B31B1B" fill-opacity="0.9" d="m43.26237921249265,0.0 l4.131189606246309,3.0014849401916726 l-1.5779740156157942,4.856504649951073 l-4.131189606246309,-3.0014849401916726z"/>
<path fill="#B31B1B" fill-opacity="0.37" d="m43.26237921249265,9.713009299902144 l-1.5779740156158013,-4.856504649951072 l4.131189606246316,3.0014849401916734 l1.5779740156158013,4.856504649951072z"/>
<path fill="#B31B1B" fill-opacity="0.37" d="m47.393568818738956,-3.0014849401916726 l5.106431181261044,0.0 l-4.131189606246316,3.0014849401916726 l-5.106431181261044,-0.0z"/>
<path fill="#B31B1B" fill-opacity="0.37" d="m47.393568818738956,3.0014849401916726 l5.106431181261044,0.0 l-4.131189606246316,-3.0014849401916726 l-5.106431181261044,-0.0z"/>
<path fill="#B31B1B" fill-opacity="0.9" d="m52.5,-3.0014849401916726 l-5.106431181261044,0.0 l-1.5779740156157942,-4.856504649951073 l5.106431181261044,-0.0z"/>
<path fill="#B31B1B" fill-opacity="0.9" d="m52.5,3.0014849401916726 l-5.106431181261044,0.0 l-1.5779740156157942,4.856504649951073 l5.106431181261044,-0.0z"/>
<path fill="#B31B1B" fill-opacity="0.9" d="m56.63118960624632,0.0 l-4.131189606246323,3.0014849401916726 l-4.131189606246316,-3.0014849401916726 l4.131189606246323,-3.0014849401916726z"/>
</g>
</svg>