<?xml version="1.0" encoding="utf-8"?>
<svg width="100%" height="100%" viewBox="-70.0 -70.0 140.0 140.0" preserveAspectRatio="xMidYMid meet" version="1.1" baseProfile="full" xmlns="http://www.w3.org/2000/svg">
<g style="stroke:#FFFFFF; stroke-width: 1.2978713763747793; stroke-linejoin: round;">
<path fill="#B31B1B" fill-opacity="0.37" d="m39.13118960624632,12.714494240093815 l-21.631189606246327,0.0 l17.500000000000004,-12.714494240093812 l21.631189606246327,-0.0z"/>
<path fill="#B31B1B" fill-opacity="0.37" d="m39.13118960624632,-12.714494240093826 l-21.631189606246327,7.105427357601002e-15 l17.500000000000004,12.714494240093808 l21.631189606246327,-7.105427357601002e-15z"/>
<path fill="#B31B1B" fill-opacity="0.9" d="m17.499999999999996,12.71449424009381 l6.684405196876845,20.572483830236568 l21.631189606246327,-1.4210854715202004e-14 l-6.684405196876845,-20.572483830236568z"/>
<path fill="#B31B1B" fill-opacity="0.9" d="m17.499999999999996,-12.714494240093813 l6.684405196876838,-20.572483830236564 l21.63118960624632,0.0 l-6.684405196876838,20.572483830236564z"/>
<path fill="#B31B1B" fill-opacity="0.9" d="m17.499999999999996,12.714494240093815 l21.631189606246327,0.0 l6.684405196876838,20.572483830236564 l-21.631189606246327,-0.0z"/>
<path fill="#B31B1B" fill-opacity="0.9" d="m17.499999999999996,-12.714494240093819 l21.631189606246327,-7.105427357601002e-15 l6.684405196876824,-20.572483830236564 l-21.631189606246327,7.105427357601002e-15z"/>
<path fill="#B31B1B" fill-opacity="0.37" d="m24.184405196876842,33.28697807033038 l-6.684405196876845,-20.572483830236568 l-6.684405196876831,20.572483830236568 l6.684405196876845,20.572483830236568z"/>
<path fill="#B31B1B" fill-opacity="0.9" d="m0.0,0.0 l17.499999999999996,12.714494240093815 l17.500000000000004,-12.714494240093812 l-17.499999999999996,-12.714494240093815z"/>
<path fill="#B31B1B" fill-opacity="0.9" d="m-0.0,0.0 l17.499999999999996,-12.714494240093819 l17.500000000000004,12.714494240093808 l-17.499999999999996,12.714494240093819z"/>
<path fill="#B31B1B" fill-opacity="0.37" d="m24.184405196876835,-33.28697807033038 l-6.684405196876838,20.572483830236564 l-6.684405196876838,-20.572483830236564 l6.684405196876838,-20.572483830236564z"/>
<path fill="#B31B1B" fill-opacity="0.9" d="m-0.0,0.0 l17.499999999999996,12.71449424009381 l-6.684405196876831,20.572483830236568 l-17.499999999999996,-12.71449424009381z"/>
<path fill="#B31B1B" fill-opacity="0.9" d="m0.0,0.0 l17.499999999999996,-12.714494240093813 l-6.684405196876838,-20.572483830236564 l-17.499999999999996,12.714494240093813z"/>
<path fill="#B31B1B" fill-opacity="0.9" d="m0.0,0.0 l-6.684405196876838,20.572483830236557 l17.5,12.71449424009382 l6.684405196876838,-20.572483830236557z"/>
<path fill="#B31B1B" fill-opacity="0.9" d="m-0.0,0.0 l-6.684405196876844,-20.572483830236557 l17.499999999999996,-12.71449424009382 l6.684405196876844,20.572483830236557z"/>
<path fill="#B31B1B" fill-opacity="0.37" d="m2.374270035541601e-15,41.14496766047312 l-6.684405196876841,-20.572483830236564 l17.5,12.71449424009382 l6.684405196876841,20.572483830236564z"/>
<path fill="#B31B1B" fill-opacity="0.37" d="m-7.703340553742352e-15,-41.14496766047312 l-6.684405196876836,20.572483830236564 l17.499999999999996,-12.71449424009382 l6.684405196876836,-20.572483830236564z"/>
<path fill="#B31B1B" fill-opacity="0.9" d="m-6.684405196876832,20.57248383023656 l-17.5,12.714494240093824 l6.684405196876849,20.572483830236557 l17.5,-12.714494240093824z"/>
<path fill="#B31B1B" fill-opacity="0.9" d="m-6.684405196876837,-20.57248383023656 l-17.5,-12.714494240093824 l6.684405196876842,-20.572483830236557 l17.5,12.714494240093824z"/>
<path fill="#B31B1B" fill-opacity="0.9" d="m-6.684405196876838,20.572483830236557 l6.684405196876841,20.572483830236564 l-17.5,12.714494240093813 l-6.684405196876841,-20.572483830236564z"/>
<path fill="#B31B1B" fill-opacity="0.9" d="m-6.684405196876844,-20.572483830236557 l6.684405196876836,-20.572483830236564 l-17.500000000000004,-12.714494240093813 l-6.684405196876836,20.572483830236564z"/>
<path fill="#B31B1B" fill-opacity="0.9" d="m-0.0,0.0 l-6.684405196876832,20.57248383023656 l-21.63118960624632,1.0658141036401503e-14 l6.684405196876832,-20.57248383023656z"/>
<path fill="#B31B1B" fill-opacity="0.9" d="m0.0,0.0 l-6.684405196876837,-20.57248383023656 l-21.63118960624632,-3.552713678800501e-15 l6.684405196876837,20.57248383023656z"/>
<path fill="#B31B1B" fill-opacity="0.9" d="m0.0,0.0 l-21.631189606246316,2.6490567113039045e-15 l-6.684405196876842,20.57248383023656 l21.631189606246316,-2.6490567113039045e-15z"/>
<path fill="#B31B1B" fill-opacity="0.9" d="m-0.0,0.0 l-21.631189606246316,2.6490567113039045e-15 l-6.684405196876849,-20.57248383023656 l21.631189606246316,-2.6490567113039045e-15z"/>
<path fill="#B31B1B" fill-opacity="0.37" d="m-24.18440519687683,33.286978070330385 l17.5,-12.714494240093824 l-21.63118960624632,1.0658141036401503e-14 l-17.5,12.714494240093824z"/>
<path fill="#B31B1B" fill-opacity="0.37" d="m-24.18440519687684,-33.286978070330385 l17.5,12.714494240093824 l-21.63118960624632,-3.552713678800501e-15 l-17.5,-12.714494240093824z"/>
<path fill="#B31B1B" fill-opacity="0.37" d="m-39.13118960624632,12.714494240093822 l17.500000000000007,-12.71449424009382 l-6.684405196876842,20.57248383023656 l-17.500000000000007,12.71449424009382z"/>
<path fill="#B31B1B" fill-opacity="0.37" d="m-39.13118960624632,-12.714494240093812 l17.500000000000007,12.714494240093813 l-6.684405196876849,-20.57248383023656 l-17.500000000000007,-12.714494240093813z"/>
<path fill="#B31B1B" fill-opacity="0.9" d="m-21.631189606246316,2.6490567113039045e-15 l-17.500000000000007,-12.714494240093813 l-17.5,12.714494240093819 l17.500000000000007,12.714494240093813z"/>
</g>
</svg>