<?xml version="1.0" encoding="utf-8"?>
<svg width="100%" height="100%" viewBox="-70.0 -70.0 140.0 140.0" preserveAspectRatio="xMidYMid meet" version="1.1" baseProfile="full" xmlns="http://www.w3.org/2000/svg">
<g style="stroke:#FFFFFF; stroke-width: 0.802128623625221; stroke-linejoin: round;">
<path fill="#B31B1B" fill-opacity="0.9" d="m45.81559480312316,33.28697807033038 l-10.815594803123169,-7.85798959014274 l4.1311896062463305,-12.714494240093822 l10.815594803123169,7.85798959014274z"/>
<path fill="#B31B1B" fill-opacity="0.9" d="m45.81559480312315,-33.28697807033039 l-10.815594803123155,7.857989590142747 l4.1311896062463305,12.714494240093819 l10.815594803123155,-7.857989590142747z"/>
<path fill="#B31B1B" fill-opacity="0.9" d="m45.81559480312317,33.28697807033036 l-10.815594803123169,-7.85798959014274 l-10.815594803123158,7.857989590142754 l10.815594803123169,7.85798959014274z"/>
<path fill="#B31B1B" fill-opacity="0.37" d="m30.868810393753684,12.714494240093817 l4.131189606246309,12.71449424009382 l4.1311896062463305,-12.714494240093822 l-4.131189606246309,-12.71449424009382z"/>
<path fill="#B31B1B" fill-opacity="0.37" d="m30.868810393753684,-12.714494240093824 l4.131189606246309,-12.71449424009382 l4.1311896062463305,12.714494240093819 l-4.131189606246309,12.71449424009382z"/>
<path fill="#B31B1B" fill-opacity="0.9" d="m45.815594803123155,-33.28697807033038 l-10.815594803123155,7.857989590142747 l-10.815594803123165,-7.857989590142747 l10.815594803123155,-7.857989590142747z"/>
<path fill="#B31B1B" fill-opacity="0.9" d="m35.0,25.428988480187623 l-13.36881039375368,7.105427357601002e-15 l-4.131189606246323,-12.71449424009382 l13.36881039375368,-7.105427357601002e-15z"/>
<path fill="#B31B1B" fill-opacity="0.9" d="m35.0,2.8191635605852654e-15 l-4.131189606246316,12.714494240093813 l-13.368810393753687,-1.7763568394002505e-15 l4.131189606246316,-12.714494240093813z"/>
<path fill="#B31B1B" fill-opacity="0.9" d="m35.0,-1.1391691154616738e-14 l-4.131189606246316,-12.714494240093813 l-13.368810393753687,5.329070518200751e-15 l4.131189606246316,12.714494240093813z"/>
<path fill="#B31B1B" fill-opacity="0.9" d="m35.0,-25.42898848018763 l-13.368810393753687,-7.105427357601002e-15 l-4.131189606246316,12.714494240093824 l13.368810393753687,7.105427357601002e-15z"/>
<path fill="#B31B1B" fill-opacity="0.9" d="m34.99999999999999,25.428988480187638 l-4.131189606246309,-12.71449424009382 l-13.368810393753687,-1.7763568394002505e-15 l4.131189606246309,12.71449424009382z"/>
<path fill="#B31B1B" fill-opacity="0.9" d="m34.99999999999999,-25.428988480187645 l-4.131189606246309,12.71449424009382 l-13.368810393753687,5.329070518200751e-15 l4.131189606246309,-12.71449424009382z"/>
<path fill="#B31B1B" fill-opacity="0.37" d="m21.63118960624632,25.42898848018763 l13.36881039375368,-7.105427357601002e-15 l-10.815594803123158,7.857989590142754 l-13.36881039375368,7.105427357601002e-15z"/>
<path fill="#B31B1B" fill-opacity="0.37" d="m21.631189606246313,-25.428988480187638 l13.368810393753687,7.105427357601002e-15 l-10.815594803123165,-7.857989590142747 l-13.368810393753687,-7.105427357601002e-15z"/>
<path fill="#B31B1B" fill-opacity="0.9" d="m10.815594803123165,33.28697807033038 l10.815594803123155,-7.857989590142747 l-4.131189606246323,-12.71449424009382 l-10.815594803123155,7.857989590142747z"/>
<path fill="#B31B1B" fill-opacity="0.9" d="m10.815594803123158,-33.28697807033038 l10.815594803123155,7.85798959014274 l-4.131189606246316,12.714494240093824 l-10.815594803123155,-7.85798959014274z"/>
<path fill="#B31B1B" fill-opacity="0.37" d="m10.81559480312316,7.857989590142744 l10.815594803123163,-7.857989590142743 l-4.131189606246327,12.714494240093813 l-10.815594803123163,7.857989590142743z"/>
<path fill="#B31B1B" fill-opacity="0.37" d="m10.81559480312316,7.857989590142742 l-4.131189606246315,12.714494240093822 l10.815594803123151,-7.857989590142754 l4.131189606246315,-12.714494240093822z"/>
<path fill="#B31B1B" fill-opacity="0.37" d="m10.815594803123156,-7.8579895901427435 l-4.131189606246317,-12.71449424009382 l10.815594803123158,7.857989590142751 l4.131189606246317,12.71449424009382z"/>
<path fill="#B31B1B" fill-opacity="0.37" d="m10.815594803123156,-7.857989590142746 l10.815594803123167,7.857989590142739 l-4.131189606246327,-12.714494240093812 l-10.815594803123167,-7.857989590142739z"/>
<path fill="#B31B1B" fill-opacity="0.9" d="m21.631189606246323,1.7423389002868673e-15 l-10.815594803123163,7.857989590142743 l-10.81559480312316,-7.857989590142744 l10.815594803123163,-7.857989590142743z"/>
<path fill="#B31B1B" fill-opacity="0.9" d="m21.631189606246323,-7.040452322894679e-15 l-10.815594803123167,-7.857989590142739 l-10.815594803123156,7.857989590142746 l10.815594803123167,7.857989590142739z"/>
<path fill="#B31B1B" fill-opacity="0.9" d="m6.6844051968768445,20.572483830236564 l4.131189606246315,-12.714494240093822 l-10.81559480312316,-7.857989590142742 l-4.131189606246315,12.714494240093822z"/>
<path fill="#B31B1B" fill-opacity="0.9" d="m6.684405196876839,-20.572483830236564 l4.131189606246317,12.71449424009382 l-10.815594803123156,7.8579895901427435 l-4.131189606246317,-12.71449424009382z"/>
<path fill="#B31B1B" fill-opacity="0.9" d="m6.684405196876841,20.572483830236564 l-10.81559480312316,-7.857989590142749 l4.131189606246319,-12.714494240093815 l10.81559480312316,7.857989590142749z"/>
<path fill="#B31B1B" fill-opacity="0.9" d="m6.684405196876836,-20.572483830236564 l-10.815594803123158,7.857989590142749 l4.1311896062463225,12.714494240093815 l10.815594803123158,-7.857989590142749z"/>
<path fill="#B31B1B" fill-opacity="0.9" d="m10.81559480312316,33.28697807033038 l-13.368810393753678,0.0 l-4.13118960624632,-12.71449424009382 l13.368810393753678,-0.0z"/>
<path fill="#B31B1B" fill-opacity="0.9" d="m10.815594803123153,-33.28697807033038 l-13.368810393753678,0.0 l-4.131189606246318,12.71449424009382 l13.368810393753678,-0.0z"/>
<path fill="#B31B1B" fill-opacity="0.37" d="m-2.553215590630518,33.28697807033038 l-10.81559480312316,7.8579895901427435 l13.36881039375368,0.0 l10.81559480312316,-7.8579895901427435z"/>
<path fill="#B31B1B" fill-opacity="0.37" d="m-2.553215590630526,-33.28697807033038 l-10.815594803123163,-7.8579895901427435 l13.368810393753682,0.0 l10.815594803123163,7.8579895901427435z"/>
<path fill="#B31B1B" fill-opacity="0.37" d="m-4.131189606246315,12.714494240093817 l-13.368810393753684,7.105427357601002e-15 l10.815594803123169,7.857989590142736 l13.368810393753684,-7.105427357601002e-15z"/>
<path fill="#B31B1B" fill-opacity="0.37" d="m-4.131189606246319,-12.714494240093817 l-13.36881039375368,-3.552713678800501e-15 l10.815594803123162,-7.85798959014274 l13.36881039375368,3.552713678800501e-15z"/>
<path fill="#B31B1B" fill-opacity="0.37" d="m-4.131189606246319,12.714494240093815 l10.81559480312316,7.857989590142749 l-13.36881039375368,-7.105427357601002e-15 l-10.81559480312316,-7.857989590142749z"/>
<path fill="#B31B1B" fill-opacity="0.37" d="m-4.1311896062463225,-12.714494240093815 l10.815594803123158,-7.857989590142749 l-13.36881039375368,7.105427357601002e-15 l-10.815594803123158,7.857989590142749z"/>
<path fill="#B31B1B" fill-opacity="0.9" d="m-17.5,12.714494240093824 l13.368810393753684,-7.105427357601002e-15 l4.131189606246315,-12.714494240093817 l-13.368810393753684,7.105427357601002e-15z"/>
<path fill="#B31B1B" fill-opacity="0.9" d="m-17.5,-12.71449424009382 l13.36881039375368,3.552713678800501e-15 l4.131189606246319,12.714494240093817 l-13.36881039375368,-3.552713678800501e-15z"/>
<path fill="#B31B1B" fill-opacity="0.9" d="m-17.500000000000004,12.714494240093819 l4.131189606246323,-12.714494240093817 l13.36881039375368,-1.6372070857118312e-15 l-4.131189606246323,12.714494240093817z"/>
<path fill="#B31B1B" fill-opacity="0.9" d="m-17.500000000000004,-12.714494240093815 l4.131189606246323,12.714494240093817 l13.36881039375368,-1.6372070857118312e-15 l-4.131189606246323,-12.714494240093817z"/>
<path fill="#B31B1B" fill-opacity="0.9" d="m-17.499999999999996,53.859461900566934 l4.131189606246318,-12.714494240093813 l13.36881039375368,0.0 l-4.131189606246318,12.714494240093813z"/>
<path fill="#B31B1B" fill-opacity="0.9" d="m-17.50000000000001,-53.859461900566934 l4.131189606246322,12.714494240093813 l13.368810393753682,0.0 l-4.131189606246322,-12.714494240093813z"/>
<path fill="#B31B1B" fill-opacity="0.9" d="m-13.368810393753668,41.14496766047313 l-4.131189606246325,-12.714494240093813 l10.815594803123162,-7.857989590142754 l4.131189606246325,12.714494240093813z"/>
<path fill="#B31B1B" fill-opacity="0.9" d="m-13.368810393753678,-41.14496766047313 l-4.131189606246322,12.71449424009382 l10.815594803123162,7.857989590142747 l4.131189606246322,-12.71449424009382z"/>
<path fill="#B31B1B" fill-opacity="0.9" d="m-13.368810393753678,41.14496766047312 l10.81559480312316,-7.8579895901427435 l-4.13118960624632,-12.71449424009382 l-10.81559480312316,7.8579895901427435z"/>
<path fill="#B31B1B" fill-opacity="0.9" d="m-13.368810393753689,-41.14496766047312 l10.815594803123163,7.8579895901427435 l-4.131189606246318,12.71449424009382 l-10.815594803123163,-7.8579895901427435z"/>
<path fill="#B31B1B" fill-opacity="0.9" d="m-28.31559480312315,20.57248383023657 l10.815594803123158,7.8579895901427435 l10.815594803123162,-7.857989590142754 l-10.815594803123158,-7.8579895901427435z"/>
<path fill="#B31B1B" fill-opacity="0.9" d="m-28.315594803123158,-20.572483830236564 l10.815594803123158,-7.8579895901427435 l10.815594803123162,7.857989590142747 l-10.815594803123158,7.8579895901427435z"/>
<path fill="#B31B1B" fill-opacity="0.37" d="m-13.36881039375368,1.6372070857118312e-15 l-4.131189606246323,-12.714494240093817 l-4.131189606246313,12.714494240093817 l4.131189606246323,12.714494240093817z"/>
<path fill="#B31B1B" fill-opacity="0.9" d="m-17.499999999999982,53.85946190056694 l4.1311896062463145,-12.714494240093813 l-10.815594803123163,-7.8579895901427435 l-4.1311896062463145,12.714494240093813z"/>
<path fill="#B31B1B" fill-opacity="0.9" d="m-17.499999999999996,-53.85946190056694 l4.131189606246318,12.714494240093813 l-10.81559480312316,7.8579895901427435 l-4.131189606246318,-12.714494240093813z"/>
<path fill="#B31B1B" fill-opacity="0.37" d="m-17.499999999999993,28.430473420379315 l4.131189606246325,12.714494240093813 l-10.815594803123163,-7.8579895901427435 l-4.131189606246325,-12.714494240093813z"/>
<path fill="#B31B1B" fill-opacity="0.37" d="m-17.5,-28.430473420379307 l4.131189606246322,-12.71449424009382 l-10.81559480312316,7.8579895901427435 l-4.131189606246322,12.71449424009382z"/>
<path fill="#B31B1B" fill-opacity="0.9" d="m-28.315594803123158,20.572483830236564 l-4.131189606246327,-12.714494240093815 l10.815594803123169,-7.857989590142746 l4.131189606246327,12.714494240093815z"/>
<path fill="#B31B1B" fill-opacity="0.9" d="m-28.315594803123165,-20.572483830236557 l-4.13118960624632,12.714494240093815 l10.815594803123169,7.857989590142744 l4.13118960624632,-12.714494240093815z"/>
<path fill="#B31B1B" fill-opacity="0.9" d="m-43.26237921249265,5.2981134226078114e-15 l10.815594803123162,-7.857989590142747 l10.815594803123169,7.857989590142744 l-10.815594803123162,7.857989590142747z"/>
<path fill="#B31B1B" fill-opacity="0.37" d="m-32.446784409369485,7.857989590142749 l-10.815594803123162,-7.8579895901427435 l4.131189606246323,12.714494240093817 l10.815594803123162,7.8579895901427435z"/>
<path fill="#B31B1B" fill-opacity="0.37" d="m-32.446784409369485,-7.857989590142742 l-10.815594803123162,7.857989590142747 l4.131189606246323,-12.714494240093817 l10.815594803123162,-7.857989590142747z"/>
<path fill="#B31B1B" fill-opacity="0.9" d="m-56.63118960624632,6.935320508319642e-15 l13.368810393753677,-1.6372070857118304e-15 l4.131189606246323,12.714494240093817 l-13.368810393753677,1.6372070857118304e-15z"/>
<path fill="#B31B1B" fill-opacity="0.9" d="m-56.63118960624632,6.935320508319642e-15 l13.368810393753677,-1.6372070857118304e-15 l4.131189606246323,-12.714494240093817 l-13.368810393753677,1.6372070857118304e-15z"/>
</g>
</svg>