<?xml version="1.0" encoding="utf-8"?>
<svg width="100%" height="100%" viewBox="-70.0 -70.0 140.0 140.0" preserveAspectRatio="xMidYMid meet" version="1.1" baseProfile="full" xmlns="http://www.w3.org/2000/svg">
<g style="stroke:#FFFFFF; stroke-width: 0.4957427527495585; stroke-linejoin: round;">
<path fill="#B31B1B" fill-opacity="0.9" d="m41.68440519687684,20.57248383023656 l-2.553215590630529,7.857989590142751 l6.6844051968768525,4.8565046499510665 l2.553215590630529,-7.857989590142751z"/>
<path fill="#B31B1B" fill-opacity="0.9" d="m41.68440519687684,-20.572483830236568 l-2.553215590630529,-7.857989590142751 l6.684405196876838,-4.856504649951074 l2.553215590630529,7.857989590142751z"/>
<path fill="#B31B1B" fill-opacity="0.9" d="m32.446784409369485,33.28697807033037 l6.684405196876838,-4.856504649951074 l6.684405196876845,4.8565046499510665 l-6.684405196876838,4.856504649951074z"/>
<path fill="#B31B1B" fill-opacity="0.9" d="m32.44678440936947,-33.286978070330385 l6.6844051968768525,4.856504649951081 l6.684405196876831,-4.856504649951074 l-6.6844051968768525,-4.856504649951081z"/>
<path fill="#B31B1B" fill-opacity="0.37" d="m39.13118960624632,28.430473420379297 l-6.684405196876838,4.856504649951074 l2.553215590630515,-7.857989590142747 l6.684405196876838,-4.856504649951074z"/>
<path fill="#B31B1B" fill-opacity="0.9" d="m39.13118960624632,12.714494240093815 l-6.684405196876845,4.856504649951075 l2.553215590630515,7.857989590142747 l6.684405196876845,-4.856504649951075z"/>
<path fill="#B31B1B" fill-opacity="0.9" d="m39.13118960624632,12.714494240093815 l-6.684405196876845,-4.856504649951068 l2.553215590630522,-7.857989590142744 l6.684405196876845,4.856504649951068z"/>
<path fill="#B31B1B" fill-opacity="0.9" d="m39.13118960624632,-12.714494240093826 l-6.684405196876845,4.856504649951072 l2.553215590630522,7.857989590142743 l6.684405196876845,-4.856504649951072z"/>
<path fill="#B31B1B" fill-opacity="0.9" d="m39.13118960624632,-12.714494240093826 l-6.684405196876845,-4.856504649951072 l2.553215590630515,-7.857989590142747 l6.684405196876845,4.856504649951072z"/>
<path fill="#B31B1B" fill-opacity="0.37" d="m39.13118960624632,-28.430473420379304 l-6.6844051968768525,-4.856504649951081 l2.553215590630529,7.857989590142754 l6.6844051968768525,4.856504649951081z"/>
<path fill="#B31B1B" fill-opacity="0.37" d="m39.13118960624631,28.43047342037931 l2.553215590630529,-7.857989590142751 l-6.684405196876845,4.856504649951077 l-2.553215590630529,7.857989590142751z"/>
<path fill="#B31B1B" fill-opacity="0.37" d="m39.13118960624631,-28.430473420379318 l2.553215590630529,7.857989590142751 l-6.684405196876845,-4.856504649951077 l-2.553215590630529,-7.857989590142751z"/>
<path fill="#B31B1B" fill-opacity="0.37" d="m32.44678440936948,17.57099889004489 l-8.262379212492643,-3.552713678800501e-15 l6.684405196876849,-4.85650464995107 l8.262379212492643,3.552713678800501e-15z"/>
<path fill="#B31B1B" fill-opacity="0.37" d="m32.44678440936948,7.857989590142747 l6.684405196876845,4.856504649951068 l-8.26237921249264,1.7763568394002505e-15 l-6.684405196876845,-4.856504649951068z"/>
<path fill="#B31B1B" fill-opacity="0.37" d="m32.44678440936948,-7.857989590142754 l6.684405196876845,-4.856504649951072 l-8.26237921249264,1.7763568394002505e-15 l-6.684405196876845,4.856504649951072z"/>
<path fill="#B31B1B" fill-opacity="0.37" d="m32.44678440936948,-17.570998890044898 l-8.26237921249265,3.552713678800501e-15 l6.684405196876856,4.85650464995107 l8.26237921249265,-3.552713678800501e-15z"/>
<path fill="#B31B1B" fill-opacity="0.9" d="m24.184405196876842,33.28697807033038 l2.553215590630522,-7.857989590142751 l8.262379212492636,-3.552713678800501e-15 l-2.553215590630522,7.857989590142751z"/>
<path fill="#B31B1B" fill-opacity="0.9" d="m24.184405196876842,17.57099889004488 l2.553215590630522,7.857989590142747 l8.262379212492636,-3.552713678800501e-15 l-2.553215590630522,-7.857989590142747z"/>
<path fill="#B31B1B" fill-opacity="0.9" d="m24.18440519687684,7.857989590142745 l8.26237921249264,1.7763568394002505e-15 l2.553215590630522,-7.857989590142744 l-8.26237921249264,-1.7763568394002505e-15z"/>
<path fill="#B31B1B" fill-opacity="0.9" d="m24.18440519687684,-7.857989590142751 l8.26237921249264,-3.552713678800501e-15 l2.553215590630522,7.857989590142743 l-8.26237921249264,3.552713678800501e-15z"/>
<path fill="#B31B1B" fill-opacity="0.9" d="m24.184405196876835,-17.570998890044887 l2.553215590630522,-7.857989590142747 l8.262379212492643,3.552713678800501e-15 l-2.553215590630522,7.857989590142747z"/>
<path fill="#B31B1B" fill-opacity="0.9" d="m24.184405196876835,-33.28697807033038 l2.553215590630522,7.8579895901427435 l8.262379212492643,3.552713678800501e-15 l-2.553215590630522,-7.8579895901427435z"/>
<path fill="#B31B1B" fill-opacity="0.9" d="m24.184405196876835,17.570998890044887 l8.262379212492643,3.552713678800501e-15 l2.553215590630515,7.857989590142747 l-8.262379212492643,-3.552713678800501e-15z"/>
<path fill="#B31B1B" fill-opacity="0.9" d="m24.184405196876828,-17.570998890044894 l8.26237921249265,-3.552713678800501e-15 l2.553215590630515,-7.857989590142747 l-8.26237921249265,3.552713678800501e-15z"/>
<path fill="#B31B1B" fill-opacity="0.37" d="m26.73762078750736,2.153649320596796e-15 l-2.553215590630522,7.8579895901427435 l-2.553215590630515,-7.8579895901427435 l2.553215590630522,-7.8579895901427435z"/>
<path fill="#B31B1B" fill-opacity="0.37" d="m26.73762078750736,-8.702477663444122e-15 l-2.553215590630522,-7.857989590142742 l-2.553215590630515,7.8579895901427435 l2.553215590630522,7.857989590142742z"/>
<path fill="#B31B1B" fill-opacity="0.37" d="m26.737620787507364,25.428988480187627 l-2.553215590630522,-7.857989590142747 l-2.553215590630522,7.857989590142751 l2.553215590630522,7.857989590142747z"/>
<path fill="#B31B1B" fill-opacity="0.9" d="m17.499999999999996,12.714494240093815 l6.684405196876838,4.856504649951072 l6.684405196876849,-4.85650464995107 l-6.684405196876838,-4.856504649951072z"/>
<path fill="#B31B1B" fill-opacity="0.9" d="m17.499999999999996,-12.714494240093819 l6.684405196876831,-4.856504649951075 l6.684405196876856,4.85650464995107 l-6.684405196876831,4.856504649951075z"/>
<path fill="#B31B1B" fill-opacity="0.37" d="m26.737620787507357,-25.428988480187634 l-2.553215590630522,7.857989590142747 l-2.553215590630522,-7.857989590142751 l2.553215590630522,-7.857989590142747z"/>
<path fill="#B31B1B" fill-opacity="0.9" d="m17.499999999999996,12.714494240093815 l-2.5532155906305167,-7.857989590142743 l6.684405196876844,-4.856504649951071 l2.5532155906305167,7.857989590142743z"/>
<path fill="#B31B1B" fill-opacity="0.9" d="m17.499999999999996,-12.714494240093819 l-2.5532155906305167,7.857989590142743 l6.684405196876844,4.856504649951069 l2.5532155906305167,-7.857989590142743z"/>
<path fill="#B31B1B" fill-opacity="0.37" d="m17.500000000000004,28.430473420379304 l6.684405196876838,4.856504649951074 l-2.553215590630522,-7.857989590142747 l-6.684405196876838,-4.856504649951074z"/>
<path fill="#B31B1B" fill-opacity="0.37" d="m17.499999999999996,-28.43047342037931 l6.684405196876838,-4.8565046499510665 l-2.553215590630522,7.85798959014274 l-6.684405196876838,4.8565046499510665z"/>
<path fill="#B31B1B" fill-opacity="0.9" d="m17.499999999999996,12.71449424009381 l6.684405196876845,4.85650464995107 l-2.553215590630522,7.857989590142751 l-6.684405196876845,-4.85650464995107z"/>
<path fill="#B31B1B" fill-opacity="0.9" d="m17.499999999999996,-12.714494240093813 l6.684405196876838,-4.856504649951074 l-2.553215590630522,-7.857989590142751 l-6.684405196876838,4.856504649951074z"/>
<path fill="#B31B1B" fill-opacity="0.9" d="m24.184405196876842,33.28697807033038 l-6.684405196876838,-4.856504649951074 l-6.684405196876838,4.856504649951074 l6.684405196876838,4.856504649951074z"/>
<path fill="#B31B1B" fill-opacity="0.9" d="m24.184405196876835,-33.28697807033038 l-6.684405196876838,4.8565046499510665 l-6.684405196876838,-4.8565046499510665 l6.684405196876838,-4.8565046499510665z"/>
<path fill="#B31B1B" fill-opacity="0.9" d="m8.26237921249264,6.655142399884695e-16 l6.68440519687684,4.856504649951072 l6.684405196876844,-4.856504649951071 l-6.68440519687684,-4.856504649951072z"/>
<path fill="#B31B1B" fill-opacity="0.9" d="m8.26237921249264,-2.6892134911726176e-15 l6.68440519687684,-4.856504649951074 l6.684405196876844,4.856504649951069 l-6.68440519687684,4.856504649951074z"/>
<path fill="#B31B1B" fill-opacity="0.9" d="m14.94678440936948,20.572483830236553 l2.553215590630524,7.857989590142751 l-6.684405196876838,4.856504649951074 l-2.553215590630524,-7.857989590142751z"/>
<path fill="#B31B1B" fill-opacity="0.37" d="m14.94678440936948,4.856504649951073 l-6.68440519687684,-4.856504649951072 l2.5532155906305203,7.8579895901427435 l6.68440519687684,4.856504649951072z"/>
<path fill="#B31B1B" fill-opacity="0.37" d="m14.94678440936948,-4.856504649951076 l-6.68440519687684,4.856504649951074 l2.5532155906305167,-7.8579895901427435 l6.68440519687684,-4.856504649951074z"/>
<path fill="#B31B1B" fill-opacity="0.9" d="m14.946784409369476,-20.57248383023656 l2.5532155906305203,-7.857989590142751 l-6.684405196876838,-4.8565046499510665 l-2.5532155906305203,7.857989590142751z"/>
<path fill="#B31B1B" fill-opacity="0.9" d="m17.499999999999996,12.71449424009381 l-8.262379212492634,3.552713678800501e-15 l-2.5532155906305176,7.857989590142751 l8.262379212492634,-3.552713678800501e-15z"/>
<path fill="#B31B1B" fill-opacity="0.9" d="m17.499999999999996,-12.714494240093813 l-8.262379212492638,-3.552713678800501e-15 l-2.5532155906305194,-7.857989590142747 l8.262379212492638,3.552713678800501e-15z"/>
<path fill="#B31B1B" fill-opacity="0.37" d="m9.237620787507362,12.714494240093813 l-6.68440519687684,-4.856504649951069 l8.262379212492638,-2.6645352591003757e-15 l6.68440519687684,4.856504649951069z"/>
<path fill="#B31B1B" fill-opacity="0.37" d="m9.237620787507359,-12.714494240093817 l-6.684405196876838,4.856504649951073 l8.262379212492636,8.881784197001252e-16 l6.684405196876838,-4.856504649951073z"/>
<path fill="#B31B1B" fill-opacity="0.37" d="m8.262379212492643,25.428988480187634 l6.6844051968768365,-4.856504649951081 l-8.262379212492636,1.0658141036401503e-14 l-6.6844051968768365,4.856504649951081z"/>
<path fill="#B31B1B" fill-opacity="0.37" d="m8.262379212492636,-25.428988480187634 l6.68440519687684,4.856504649951074 l-8.262379212492636,-3.552713678800501e-15 l-6.68440519687684,-4.856504649951074z"/>
<path fill="#B31B1B" fill-opacity="0.37" d="m8.26237921249264,25.428988480187634 l-8.26237921249264,-3.552713678800501e-15 l6.68440519687684,-4.8565046499510665 l8.26237921249264,3.552713678800501e-15z"/>
<path fill="#B31B1B" fill-opacity="0.37" d="m8.262379212492633,-25.428988480187634 l-8.262379212492638,3.552713678800501e-15 l6.684405196876842,4.8565046499510665 l8.262379212492638,-3.552713678800501e-15z"/>
<path fill="#B31B1B" fill-opacity="0.9" d="m0.0,0.0 l8.26237921249264,6.655142399884695e-16 l2.5532155906305203,7.8579895901427435 l-8.26237921249264,-6.655142399884695e-16z"/>
<path fill="#B31B1B" fill-opacity="0.9" d="m-0.0,0.0 l2.5532155906305216,7.857989590142744 l8.262379212492638,-2.6645352591003757e-15 l-2.5532155906305216,-7.857989590142744z"/>
<path fill="#B31B1B" fill-opacity="0.9" d="m0.0,0.0 l2.55321559063052,-7.857989590142744 l8.262379212492636,8.881784197001252e-16 l-2.55321559063052,7.857989590142744z"/>
<path fill="#B31B1B" fill-opacity="0.9" d="m-0.0,0.0 l8.26237921249264,-2.6892134911726176e-15 l2.5532155906305167,-7.8579895901427435 l-8.26237921249264,2.6892134911726176e-15z"/>
<path fill="#B31B1B" fill-opacity="0.9" d="m2.374270035541601e-15,41.14496766047312 l2.5532155906305194,-7.8579895901427435 l8.262379212492638,0.0 l-2.5532155906305194,7.8579895901427435z"/>
<path fill="#B31B1B" fill-opacity="0.9" d="m4.496176756812942e-16,25.42898848018763 l2.553215590630521,7.857989590142747 l8.262379212492638,0.0 l-2.553215590630521,-7.857989590142747z"/>
<path fill="#B31B1B" fill-opacity="0.9" d="m-5.778688193882046e-15,-25.42898848018763 l2.5532155906305194,-7.857989590142747 l8.26237921249264,0.0 l-2.5532155906305194,7.857989590142747z"/>
<path fill="#B31B1B" fill-opacity="0.9" d="m-7.703340553742352e-15,-41.14496766047312 l2.553215590630521,7.8579895901427435 l8.26237921249264,0.0 l-2.553215590630521,-7.8579895901427435z"/>
<path fill="#B31B1B" fill-opacity="0.9" d="m2.5532155906305216,7.857989590142744 l6.68440519687684,4.856504649951069 l-2.5532155906305176,7.857989590142751 l-6.68440519687684,-4.856504649951069z"/>
<path fill="#B31B1B" fill-opacity="0.9" d="m2.55321559063052,-7.857989590142744 l6.684405196876838,-4.856504649951073 l-2.5532155906305194,-7.857989590142747 l-6.684405196876838,4.856504649951073z"/>
<path fill="#B31B1B" fill-opacity="0.9" d="m2.5532155906305203,7.857989590142744 l-2.5532155906305203,7.857989590142744 l6.684405196876841,4.856504649951075 l2.5532155906305203,-7.857989590142744z"/>
<path fill="#B31B1B" fill-opacity="0.9" d="m2.5532155906305185,-7.857989590142744 l-2.553215590630522,-7.857989590142744 l6.684405196876839,-4.856504649951075 l2.553215590630522,7.857989590142744z"/>
<path fill="#B31B1B" fill-opacity="0.9" d="m-6.684405196876838,20.572483830236557 l6.684405196876838,-4.856504649951068 l6.684405196876841,4.856504649951075 l-6.684405196876838,4.856504649951068z"/>
<path fill="#B31B1B" fill-opacity="0.9" d="m-6.684405196876844,-20.572483830236557 l6.68440519687684,4.856504649951068 l6.684405196876839,-4.856504649951075 l-6.68440519687684,-4.856504649951068z"/>
<path fill="#B31B1B" fill-opacity="0.37" d="m2.5532155906305216,33.28697807033038 l-2.5532155906305194,7.8579895901427435 l-2.5532155906305203,-7.8579895901427435 l2.5532155906305194,-7.8579895901427435z"/>
<path fill="#B31B1B" fill-opacity="0.37" d="m2.5532155906305136,-33.28697807033038 l-2.553215590630521,-7.8579895901427435 l-2.5532155906305185,7.8579895901427435 l2.553215590630521,7.8579895901427435z"/>
<path fill="#B31B1B" fill-opacity="0.9" d="m-0.0,0.0 l-6.684405196876838,4.8565046499510744 l2.553215590630523,7.857989590142743 l6.684405196876838,-4.8565046499510744z"/>
<path fill="#B31B1B" fill-opacity="0.9" d="m0.0,0.0 l-6.68440519687684,-4.856504649951073 l2.553215590630521,-7.857989590142744 l6.68440519687684,4.856504649951073z"/>
<path fill="#B31B1B" fill-opacity="0.9" d="m0.0,0.0 l2.5532155906305203,7.857989590142744 l-6.684405196876839,4.856504649951071 l-2.5532155906305203,-7.857989590142744z"/>
<path fill="#B31B1B" fill-opacity="0.9" d="m-0.0,0.0 l2.5532155906305185,-7.857989590142744 l-6.684405196876841,-4.856504649951071 l-2.5532155906305185,7.857989590142744z"/>
<path fill="#B31B1B" fill-opacity="0.37" d="m1.4829552046005627e-16,15.715979180285489 l2.5532155906305203,-7.857989590142744 l-6.684405196876839,4.856504649951071 l-2.5532155906305203,7.857989590142744z"/>
<path fill="#B31B1B" fill-opacity="0.37" d="m-3.701009199260557e-15,-15.715979180285489 l2.553215590630522,7.857989590142744 l-6.684405196876841,-4.856504649951071 l-2.553215590630522,-7.857989590142744z"/>
<path fill="#B31B1B" fill-opacity="0.37" d="m-6.684405196876837,36.28846301052205 l-2.553215590630521,-7.857989590142751 l6.68440519687684,4.856504649951077 l2.553215590630521,7.857989590142751z"/>
<path fill="#B31B1B" fill-opacity="0.9" d="m-6.684405196876838,20.572483830236557 l-2.5532155906305203,7.8579895901427435 l6.68440519687684,4.856504649951077 l2.5532155906305203,-7.8579895901427435z"/>
<path fill="#B31B1B" fill-opacity="0.9" d="m-6.684405196876844,-20.572483830236557 l-2.553215590630522,-7.8579895901427435 l6.68440519687684,-4.856504649951077 l2.553215590630522,7.8579895901427435z"/>
<path fill="#B31B1B" fill-opacity="0.37" d="m-6.684405196876846,-36.28846301052205 l-2.5532155906305194,7.857989590142751 l6.68440519687684,-4.856504649951077 l2.5532155906305194,-7.857989590142751z"/>
<path fill="#B31B1B" fill-opacity="0.37" d="m-9.237620787507357,12.71449424009382 l2.5532155906305185,-7.857989590142746 l2.553215590630523,7.857989590142743 l-2.5532155906305185,7.857989590142746z"/>
<path fill="#B31B1B" fill-opacity="0.37" d="m-9.23762078750736,-12.714494240093817 l2.5532155906305203,7.857989590142744 l2.553215590630521,-7.857989590142744 l-2.5532155906305203,-7.857989590142744z"/>
<path fill="#B31B1B" fill-opacity="0.9" d="m-0.0,0.0 l-6.684405196876842,-4.856504649951071 l-6.684405196876838,4.856504649951073 l6.684405196876842,4.856504649951071z"/>
<path fill="#B31B1B" fill-opacity="0.9" d="m2.374270035541601e-15,41.14496766047312 l-6.68440519687684,-4.85650464995107 l-6.684405196876841,4.85650464995107 l6.68440519687684,4.85650464995107z"/>
<path fill="#B31B1B" fill-opacity="0.9" d="m-7.703340553742352e-15,-41.14496766047312 l-6.684405196876838,4.85650464995107 l-6.684405196876843,-4.85650464995107 l6.684405196876838,-4.85650464995107z"/>
<path fill="#B31B1B" fill-opacity="0.9" d="m-9.23762078750735,28.430473420379307 l-6.684405196876842,4.856504649951077 l2.553215590630524,7.8579895901427435 l6.684405196876842,-4.856504649951077z"/>
<path fill="#B31B1B" fill-opacity="0.9" d="m-9.237620787507357,-28.430473420379307 l-6.684405196876842,-4.856504649951077 l2.5532155906305203,-7.8579895901427435 l6.684405196876842,4.856504649951077z"/>
<path fill="#B31B1B" fill-opacity="0.9" d="m-9.237620787507359,28.4304734203793 l2.553215590630521,7.857989590142751 l-6.684405196876841,4.85650464995107 l-2.553215590630521,-7.857989590142751z"/>
<path fill="#B31B1B" fill-opacity="0.9" d="m-9.237620787507366,-28.4304734203793 l2.5532155906305194,-7.857989590142751 l-6.684405196876843,-4.85650464995107 l-2.5532155906305194,7.857989590142751z"/>
<path fill="#B31B1B" fill-opacity="0.9" d="m-6.684405196876832,20.57248383023656 l-2.5532155906305176,7.857989590142747 l-8.262379212492643,7.105427357601002e-15 l2.5532155906305176,-7.857989590142747z"/>
<path fill="#B31B1B" fill-opacity="0.9" d="m-6.684405196876837,-20.57248383023656 l-2.5532155906305194,-7.857989590142747 l-8.262379212492643,0.0 l2.5532155906305194,7.857989590142747z"/>
<path fill="#B31B1B" fill-opacity="0.9" d="m-6.684405196876832,20.57248383023656 l-2.5532155906305247,-7.85798959014274 l-8.262379212492643,3.552713678800501e-15 l2.5532155906305247,7.85798959014274z"/>
<path fill="#B31B1B" fill-opacity="0.9" d="m-6.684405196876837,-20.57248383023656 l-2.553215590630523,7.8579895901427435 l-8.26237921249264,-3.552713678800501e-15 l2.553215590630523,-7.8579895901427435z"/>
<path fill="#B31B1B" fill-opacity="0.9" d="m-6.684405196876838,4.8565046499510744 l-2.5532155906305185,7.857989590142746 l-8.262379212492643,3.552713678800501e-15 l2.5532155906305185,-7.857989590142746z"/>
<path fill="#B31B1B" fill-opacity="0.9" d="m-6.68440519687684,-4.856504649951073 l-2.5532155906305203,-7.857989590142744 l-8.26237921249264,-3.552713678800501e-15 l2.5532155906305203,7.857989590142744z"/>
<path fill="#B31B1B" fill-opacity="0.9" d="m-6.684405196876837,46.00147231042419 l-8.26237921249264,0.0 l-2.5532155906305203,7.8579895901427435 l8.26237921249264,-0.0z"/>
<path fill="#B31B1B" fill-opacity="0.9" d="m-6.68440519687684,4.856504649951073 l-8.262379212492641,8.881784197001252e-16 l-2.553215590630522,7.857989590142745 l8.262379212492641,-8.881784197001252e-16z"/>
<path fill="#B31B1B" fill-opacity="0.9" d="m-6.684405196876842,-4.856504649951071 l-8.26237921249264,8.881784197001252e-16 l-2.553215590630522,-7.857989590142745 l8.26237921249264,-8.881784197001252e-16z"/>
<path fill="#B31B1B" fill-opacity="0.9" d="m-6.684405196876848,-46.00147231042419 l-8.26237921249264,0.0 l-2.553215590630524,-7.8579895901427435 l8.26237921249264,-0.0z"/>
<path fill="#B31B1B" fill-opacity="0.37" d="m-14.946784409369466,46.0014723104242 l-6.684405196876844,-4.85650464995107 l8.262379212492641,0.0 l6.684405196876844,4.85650464995107z"/>
<path fill="#B31B1B" fill-opacity="0.37" d="m-14.946784409369476,-46.0014723104242 l-6.68440519687684,4.85650464995107 l8.262379212492638,0.0 l6.68440519687684,-4.85650464995107z"/>
<path fill="#B31B1B" fill-opacity="0.37" d="m-14.946784409369481,4.856504649951074 l8.262379212492641,-8.881784197001252e-16 l-6.68440519687684,-4.856504649951071 l-8.262379212492641,8.881784197001252e-16z"/>
<path fill="#B31B1B" fill-opacity="0.37" d="m-14.946784409369481,-4.85650464995107 l8.26237921249264,-8.881784197001252e-16 l-6.684405196876838,4.856504649951073 l-8.26237921249264,8.881784197001252e-16z"/>
<path fill="#B31B1B" fill-opacity="0.37" d="m-14.946784409369476,46.00147231042419 l8.26237921249264,0.0 l-6.684405196876841,-4.85650464995107 l-8.26237921249264,-0.0z"/>
<path fill="#B31B1B" fill-opacity="0.37" d="m-14.946784409369487,-46.00147231042419 l8.26237921249264,0.0 l-6.684405196876841,4.85650464995107 l-8.26237921249264,-0.0z"/>
<path fill="#B31B1B" fill-opacity="0.37" d="m-15.922025984384192,33.286978070330385 l6.684405196876842,-4.856504649951077 l-8.262379212492643,7.105427357601002e-15 l-6.684405196876842,4.856504649951077z"/>
<path fill="#B31B1B" fill-opacity="0.37" d="m-15.922025984384199,-33.286978070330385 l6.684405196876842,4.856504649951077 l-8.262379212492643,0.0 l-6.684405196876842,-4.856504649951077z"/>
<path fill="#B31B1B" fill-opacity="0.9" d="m-24.18440519687683,33.286978070330385 l8.26237921249264,0.0 l2.553215590630524,7.8579895901427435 l-8.26237921249264,-0.0z"/>
<path fill="#B31B1B" fill-opacity="0.9" d="m-24.18440519687684,-33.286978070330385 l8.26237921249264,0.0 l2.5532155906305203,-7.8579895901427435 l-8.26237921249264,-0.0z"/>
<path fill="#B31B1B" fill-opacity="0.9" d="m-21.63118960624631,41.14496766047313 l6.684405196876844,4.85650464995107 l-2.5532155906305167,7.8579895901427435 l-6.684405196876844,-4.85650464995107z"/>
<path fill="#B31B1B" fill-opacity="0.9" d="m-21.631189606246316,-41.14496766047313 l6.68440519687684,-4.85650464995107 l-2.5532155906305203,-7.8579895901427435 l-6.68440519687684,4.85650464995107z"/>
<path fill="#B31B1B" fill-opacity="0.37" d="m-21.631189606246313,25.428988480187645 l-2.5532155906305185,7.85798959014274 l6.684405196876838,-4.85650464995107 l2.5532155906305185,-7.85798959014274z"/>
<path fill="#B31B1B" fill-opacity="0.37" d="m-21.63118960624632,-25.428988480187638 l-2.5532155906305185,-7.857989590142747 l6.684405196876838,4.856504649951077 l2.5532155906305185,7.857989590142747z"/>
<path fill="#B31B1B" fill-opacity="0.37" d="m-21.631189606246313,15.715979180285496 l6.68440519687684,4.856504649951072 l-2.5532155906305274,-7.8579895901427435 l-6.68440519687684,-4.856504649951072z"/>
<path fill="#B31B1B" fill-opacity="0.37" d="m-21.63118960624632,-15.715979180285492 l6.684405196876844,-4.856504649951068 l-2.553215590630524,7.85798959014274 l-6.684405196876844,4.856504649951068z"/>
<path fill="#B31B1B" fill-opacity="0.37" d="m-21.63118960624632,15.71597918028549 l-2.5532155906305185,-7.857989590142744 l6.684405196876835,4.856504649951073 l2.5532155906305185,7.857989590142744z"/>
<path fill="#B31B1B" fill-opacity="0.9" d="m-21.631189606246316,2.6490567113039045e-15 l6.684405196876835,4.856504649951071 l-2.553215590630522,7.857989590142745 l-6.684405196876835,-4.856504649951071z"/>
<path fill="#B31B1B" fill-opacity="0.9" d="m-21.631189606246316,2.6490567113039045e-15 l6.684405196876835,-4.856504649951073 l-2.553215590630522,-7.857989590142745 l-6.684405196876835,4.856504649951073z"/>
<path fill="#B31B1B" fill-opacity="0.37" d="m-21.631189606246327,-15.715979180285487 l-2.5532155906305114,7.857989590142746 l6.684405196876835,-4.8565046499510744 l2.5532155906305114,-7.857989590142746z"/>
<path fill="#B31B1B" fill-opacity="0.9" d="m-14.946784409369473,20.572483830236568 l-6.68440519687684,4.856504649951077 l-6.684405196876838,-4.856504649951074 l6.68440519687684,-4.856504649951077z"/>
<path fill="#B31B1B" fill-opacity="0.9" d="m-14.946784409369476,-20.57248383023656 l-6.684405196876844,-4.856504649951077 l-6.684405196876838,4.856504649951074 l6.684405196876844,4.856504649951077z"/>
<path fill="#B31B1B" fill-opacity="0.9" d="m-24.18440519687683,33.286978070330385 l2.5532155906305185,-7.85798959014274 l-6.684405196876838,-4.856504649951074 l-2.5532155906305185,7.85798959014274z"/>
<path fill="#B31B1B" fill-opacity="0.9" d="m-24.18440519687684,-33.286978070330385 l2.5532155906305185,7.857989590142747 l-6.684405196876838,4.856504649951074 l-2.5532155906305185,-7.857989590142747z"/>
<path fill="#B31B1B" fill-opacity="0.9" d="m-24.18440519687684,7.857989590142746 l-6.684405196876845,4.8565046499510744 l2.5532155906305256,7.8579895901427435 l6.684405196876845,-4.8565046499510744z"/>
<path fill="#B31B1B" fill-opacity="0.9" d="m-24.18440519687684,-7.857989590142741 l-6.684405196876845,-4.856504649951073 l2.5532155906305185,-7.8579895901427435 l6.684405196876845,4.856504649951073z"/>
<path fill="#B31B1B" fill-opacity="0.9" d="m-21.631189606246316,2.6490567113039045e-15 l-8.262379212492643,1.011849625592075e-15 l-2.5532155906305256,7.857989590142745 l8.262379212492643,-1.011849625592075e-15z"/>
<path fill="#B31B1B" fill-opacity="0.9" d="m-21.631189606246316,2.6490567113039045e-15 l-8.262379212492643,1.011849625592075e-15 l-2.5532155906305256,-7.857989590142745 l8.262379212492643,-1.011849625592075e-15z"/>
<path fill="#B31B1B" fill-opacity="0.37" d="m-30.868810393753684,12.71449424009382 l-8.26237921249264,1.7763568394002505e-15 l6.684405196876838,-4.856504649951074 l8.26237921249264,-1.7763568394002505e-15z"/>
<path fill="#B31B1B" fill-opacity="0.37" d="m-30.868810393753684,-12.714494240093813 l-8.26237921249264,1.7763568394002505e-15 l6.684405196876838,4.85650464995107 l8.26237921249264,-1.7763568394002505e-15z"/>
<path fill="#B31B1B" fill-opacity="0.9" d="m-39.13118960624632,12.714494240093822 l8.26237921249264,-1.7763568394002505e-15 l2.5532155906305256,7.8579895901427435 l-8.26237921249264,1.7763568394002505e-15z"/>
<path fill="#B31B1B" fill-opacity="0.9" d="m-39.13118960624632,-12.714494240093812 l8.26237921249264,-1.7763568394002505e-15 l2.5532155906305185,-7.8579895901427435 l-8.26237921249264,1.7763568394002505e-15z"/>
<path fill="#B31B1B" fill-opacity="0.37" d="m-36.57797401561581,4.856504649951077 l6.684405196876849,-4.856504649951074 l-2.5532155906305256,7.857989590142745 l-6.684405196876849,4.856504649951074z"/>
<path fill="#B31B1B" fill-opacity="0.37" d="m-36.57797401561581,-4.856504649951068 l6.684405196876849,4.856504649951072 l-2.5532155906305256,-7.857989590142745 l-6.684405196876849,-4.856504649951072z"/>
<path fill="#B31B1B" fill-opacity="0.9" d="m-29.89356881873896,3.6609063368959795e-15 l-6.684405196876849,-4.856504649951072 l-6.684405196876838,4.856504649951074 l6.684405196876849,4.856504649951072z"/>
<path fill="#B31B1B" fill-opacity="0.9" d="m-39.13118960624632,12.714494240093822 l2.553215590630515,-7.857989590142745 l-6.684405196876838,-4.856504649951072 l-2.553215590630515,7.857989590142745z"/>
<path fill="#B31B1B" fill-opacity="0.9" d="m-39.13118960624632,-12.714494240093812 l2.553215590630515,7.8579895901427435 l-6.684405196876838,4.856504649951074 l-2.553215590630515,-7.8579895901427435z"/>
<path fill="#B31B1B" fill-opacity="0.37" d="m-48.368810393753684,5.923470882727568e-15 l2.553215590630522,-7.857989590142746 l2.553215590630515,7.857989590142745 l-2.553215590630522,7.857989590142746z"/>
<path fill="#B31B1B" fill-opacity="0.9" d="m-45.81559480312316,7.857989590142751 l-2.553215590630522,-7.857989590142744 l-8.26237921249264,1.0118496255920742e-15 l2.553215590630522,7.857989590142744z"/>
<path fill="#B31B1B" fill-opacity="0.9" d="m-45.81559480312316,-7.85798959014274 l-2.553215590630522,7.857989590142746 l-8.26237921249264,1.0118496255920742e-15 l2.553215590630522,-7.857989590142746z"/>
</g>
</svg>