<?xml version="1.0" encoding="utf-8"?>
<svg width="100%" height="100%" viewBox="-70.0 -70.0 140.0 140.0" preserveAspectRatio="xMidYMid meet" version="1.1" baseProfile="full" xmlns="http://www.w3.org/2000/svg">
<g style="stroke:#FFFFFF; stroke-width: 0.30638587087566255; stroke-linejoin: round;">
<path fill="#B31B1B" fill-opacity="0.9" d="m44.23762078750735,28.430473420379304 l-4.131189606246323,-3.00148494019167 l1.5779740156158084,-4.856504649951074 l4.131189606246323,3.00148494019167z"/>
<path fill="#B31B1B" fill-opacity="0.9" d="m44.23762078750735,-28.430473420379318 l-4.131189606246323,3.001484940191677 l1.5779740156158084,4.856504649951074 l4.131189606246323,-3.001484940191677z"/>
<path fill="#B31B1B" fill-opacity="0.9" d="m45.81559480312317,33.28697807033036 l-5.106431181261044,0.0 l-1.5779740156158013,-4.8565046499510665 l5.106431181261044,-0.0z"/>
<path fill="#B31B1B" fill-opacity="0.9" d="m45.815594803123155,-33.28697807033038 l-5.106431181261044,0.0 l-1.577974015615787,4.856504649951074 l5.106431181261044,-0.0z"/>
<path fill="#B31B1B" fill-opacity="0.9" d="m45.81559480312316,33.28697807033038 l-1.5779740156158084,-4.856504649951074 l-5.106431181261044,7.105427357601002e-15 l1.5779740156158084,4.856504649951074z"/>
<path fill="#B31B1B" fill-opacity="0.9" d="m45.81559480312315,-33.28697807033039 l-1.5779740156157942,4.856504649951074 l-5.106431181261044,0.0 l1.5779740156157942,-4.856504649951074z"/>
<path fill="#B31B1B" fill-opacity="0.37" d="m40.70916362186212,17.570998890044887 l-4.131189606246323,3.001484940191677 l5.106431181261044,-3.552713678800501e-15 l4.131189606246323,-3.001484940191677z"/>
<path fill="#B31B1B" fill-opacity="0.37" d="m40.70916362186212,-17.570998890044894 l-4.131189606246323,-3.001484940191677 l5.106431181261044,3.552713678800501e-15 l4.131189606246323,3.001484940191677z"/>
<path fill="#B31B1B" fill-opacity="0.37" d="m40.10643118126103,25.428988480187634 l4.131189606246323,3.00148494019167 l-5.106431181261044,7.105427357601002e-15 l-4.131189606246323,-3.00148494019167z"/>
<path fill="#B31B1B" fill-opacity="0.37" d="m40.10643118126103,-25.42898848018764 l4.131189606246323,-3.001484940191677 l-5.106431181261044,0.0 l-4.131189606246323,3.001484940191677z"/>
<path fill="#B31B1B" fill-opacity="0.9" d="m34.99999999999999,25.428988480187638 l5.106431181261037,-3.552713678800501e-15 l1.5779740156158084,-4.856504649951074 l-5.106431181261037,3.552713678800501e-15z"/>
<path fill="#B31B1B" fill-opacity="0.9" d="m34.99999999999999,-25.428988480187645 l5.106431181261037,3.552713678800501e-15 l1.5779740156158084,4.856504649951074 l-5.106431181261037,-3.552713678800501e-15z"/>
<path fill="#B31B1B" fill-opacity="0.37" d="m36.57797401561581,30.2854931301387 l4.131189606246316,3.001484940191663 l-1.5779740156158013,-4.8565046499510665 l-4.131189606246316,-3.001484940191663z"/>
<path fill="#B31B1B" fill-opacity="0.9" d="m36.5779740156158,4.856504649951073 l-1.5779740156158013,4.856504649951073 l4.131189606246323,3.00148494019167 l1.5779740156158013,-4.856504649951073z"/>
<path fill="#B31B1B" fill-opacity="0.9" d="m36.5779740156158,-4.8565046499510816 l-1.5779740156158013,-4.856504649951071 l4.131189606246323,-3.0014849401916734 l1.5779740156158013,4.856504649951071z"/>
<path fill="#B31B1B" fill-opacity="0.37" d="m36.577974015615794,-30.285493130138708 l4.131189606246316,-3.00148494019167 l-1.577974015615787,4.856504649951074 l-4.131189606246316,3.00148494019167z"/>
<path fill="#B31B1B" fill-opacity="0.9" d="m36.577974015615794,20.572483830236564 l-1.5779740156157942,-4.856504649951074 l4.131189606246323,-3.001484940191675 l1.5779740156157942,4.856504649951074z"/>
<path fill="#B31B1B" fill-opacity="0.9" d="m36.577974015615794,-20.57248383023657 l-1.5779740156157942,4.856504649951074 l4.131189606246323,3.0014849401916717 l1.5779740156157942,-4.856504649951074z"/>
<path fill="#B31B1B" fill-opacity="0.9" d="m40.709163621862125,33.28697807033036 l-4.131189606246316,-3.001484940191663 l-4.131189606246323,3.00148494019167 l4.131189606246316,3.001484940191663z"/>
<path fill="#B31B1B" fill-opacity="0.9" d="m40.70916362186211,-33.28697807033038 l-4.131189606246316,3.00148494019167 l-4.131189606246323,-3.001484940191677 l4.131189606246316,-3.00148494019167z"/>
<path fill="#B31B1B" fill-opacity="0.9" d="m30.868810393753684,12.714494240093817 l4.131189606246316,3.0014849401916734 l4.131189606246323,-3.001484940191675 l-4.131189606246316,-3.0014849401916734z"/>
<path fill="#B31B1B" fill-opacity="0.9" d="m30.868810393753684,-12.714494240093824 l4.131189606246316,-3.0014849401916734 l4.131189606246323,3.0014849401916717 l-4.131189606246316,3.0014849401916734z"/>
<path fill="#B31B1B" fill-opacity="0.9" d="m35.0,25.428988480187623 l1.5779740156158084,4.856504649951077 l-4.131189606246323,3.00148494019167 l-1.5779740156158084,-4.856504649951077z"/>
<path fill="#B31B1B" fill-opacity="0.37" d="m35.0,15.71597918028549 l-4.131189606246316,-3.0014849401916734 l1.5779740156157942,4.856504649951074 l4.131189606246316,3.0014849401916734z"/>
<path fill="#B31B1B" fill-opacity="0.37" d="m35.0,9.713009299902145 l-4.131189606246316,3.0014849401916717 l1.5779740156157942,-4.85650464995107 l4.131189606246316,-3.0014849401916717z"/>
<path fill="#B31B1B" fill-opacity="0.9" d="m35.0,2.8191635605852654e-15 l1.5779740156158013,4.85650464995107 l-4.131189606246323,3.0014849401916743 l-1.5779740156158013,-4.85650464995107z"/>
<path fill="#B31B1B" fill-opacity="0.9" d="m35.0,-1.1391691154616738e-14 l1.5779740156158013,-4.85650464995107 l-4.131189606246323,-3.0014849401916726 l-1.5779740156158013,4.85650464995107z"/>
<path fill="#B31B1B" fill-opacity="0.37" d="m35.0,-9.713009299902152 l-4.131189606246316,-3.0014849401916717 l1.5779740156157942,4.85650464995107 l4.131189606246316,3.0014849401916717z"/>
<path fill="#B31B1B" fill-opacity="0.37" d="m35.0,-15.715979180285498 l-4.131189606246316,3.0014849401916734 l1.5779740156157942,-4.856504649951074 l4.131189606246316,-3.0014849401916734z"/>
<path fill="#B31B1B" fill-opacity="0.9" d="m35.0,-25.42898848018763 l1.5779740156157942,-4.856504649951077 l-4.131189606246323,-3.001484940191677 l-1.5779740156157942,4.856504649951077z"/>
<path fill="#B31B1B" fill-opacity="0.9" d="m34.99999999999999,25.428988480187638 l-4.13118960624632,-3.0014849401916734 l1.5779740156158049,-4.856504649951074 l4.13118960624632,3.0014849401916734z"/>
<path fill="#B31B1B" fill-opacity="0.9" d="m34.99999999999999,-25.428988480187645 l-4.131189606246327,3.0014849401916734 l1.577974015615812,4.856504649951074 l4.131189606246327,-3.0014849401916734z"/>
<path fill="#B31B1B" fill-opacity="0.37" d="m29.290836378137886,33.28697807033037 l1.5779740156158013,-4.856504649951074 l1.5779740156157978,4.856504649951074 l-1.5779740156158013,4.856504649951074z"/>
<path fill="#B31B1B" fill-opacity="0.9" d="m35.0,25.428988480187623 l-4.131189606246313,-3.0014849401916734 l-4.131189606246323,3.001484940191677 l4.131189606246313,3.0014849401916734z"/>
<path fill="#B31B1B" fill-opacity="0.37" d="m29.290836378137882,7.857989590142746 l1.5779740156158013,-4.856504649951072 l1.5779740156157942,4.856504649951074 l-1.5779740156158013,4.856504649951072z"/>
<path fill="#B31B1B" fill-opacity="0.9" d="m35.0,2.8191635605852654e-15 l-4.131189606246316,3.0014849401916712 l-4.131189606246323,-3.0014849401916717 l4.131189606246316,-3.0014849401916712z"/>
<path fill="#B31B1B" fill-opacity="0.9" d="m35.0,-1.1391691154616738e-14 l-4.131189606246316,-3.0014849401916703 l-4.131189606246323,3.001484940191673 l4.131189606246316,3.0014849401916703z"/>
<path fill="#B31B1B" fill-opacity="0.37" d="m29.290836378137882,-7.857989590142753 l1.5779740156158013,4.856504649951072 l1.5779740156157942,-4.856504649951072 l-1.5779740156158013,-4.856504649951072z"/>
<path fill="#B31B1B" fill-opacity="0.9" d="m35.0,-25.42898848018763 l-4.13118960624632,3.0014849401916734 l-4.131189606246323,-3.001484940191677 l4.13118960624632,-3.0014849401916734z"/>
<path fill="#B31B1B" fill-opacity="0.37" d="m29.29083637813788,-33.286978070330385 l1.5779740156158013,4.856504649951081 l1.5779740156157906,-4.856504649951081 l-1.5779740156158013,-4.856504649951081z"/>
<path fill="#B31B1B" fill-opacity="0.37" d="m29.29083637813788,17.57099889004489 l1.5779740156157942,4.856504649951074 l1.5779740156158049,-4.856504649951074 l-1.5779740156157942,-4.856504649951074z"/>
<path fill="#B31B1B" fill-opacity="0.37" d="m29.29083637813787,-17.570998890044898 l1.5779740156157942,-4.856504649951074 l1.577974015615812,4.856504649951074 l-1.5779740156157942,4.856504649951074z"/>
<path fill="#B31B1B" fill-opacity="0.9" d="m30.868810393753687,28.430473420379297 l-5.106431181261044,3.552713678800501e-15 l-1.5779740156158013,4.856504649951077 l5.106431181261044,-3.552713678800501e-15z"/>
<path fill="#B31B1B" fill-opacity="0.9" d="m30.868810393753687,22.42750353999595 l-5.106431181261044,3.552713678800501e-15 l-1.5779740156158013,-4.856504649951074 l5.106431181261044,-3.552713678800501e-15z"/>
<path fill="#B31B1B" fill-opacity="0.9" d="m30.868810393753684,12.714494240093817 l-1.5779740156158013,-4.856504649951071 l-5.106431181261044,-8.881784197001252e-16 l1.5779740156158013,4.856504649951071z"/>
<path fill="#B31B1B" fill-opacity="0.9" d="m30.868810393753684,3.001484940191674 l-1.5779740156158013,4.856504649951072 l-5.106431181261044,-8.881784197001252e-16 l1.5779740156158013,-4.856504649951072z"/>
<path fill="#B31B1B" fill-opacity="0.9" d="m30.868810393753684,-3.001484940191682 l-1.5779740156158013,-4.856504649951072 l-5.106431181261044,2.6645352591003757e-15 l1.5779740156158013,4.856504649951072z"/>
<path fill="#B31B1B" fill-opacity="0.9" d="m30.868810393753684,-12.714494240093824 l-1.5779740156158013,4.856504649951071 l-5.106431181261044,2.6645352591003757e-15 l1.5779740156158013,-4.856504649951071z"/>
<path fill="#B31B1B" fill-opacity="0.9" d="m30.86881039375368,-22.427503539995957 l-5.106431181261044,-3.552713678800501e-15 l-1.5779740156158013,4.856504649951074 l5.106431181261044,3.552713678800501e-15z"/>
<path fill="#B31B1B" fill-opacity="0.9" d="m30.86881039375368,-28.430473420379304 l-5.106431181261044,-3.552713678800501e-15 l-1.5779740156158013,-4.85650464995107 l5.106431181261044,3.552713678800501e-15z"/>
<path fill="#B31B1B" fill-opacity="0.9" d="m30.868810393753684,12.714494240093817 l-1.5779740156158049,4.856504649951074 l-5.106431181261044,-3.552713678800501e-15 l1.5779740156158049,-4.856504649951074z"/>
<path fill="#B31B1B" fill-opacity="0.9" d="m30.868810393753684,-12.714494240093824 l-1.577974015615812,-4.856504649951074 l-5.106431181261044,3.552713678800501e-15 l1.577974015615812,4.856504649951074z"/>
<path fill="#B31B1B" fill-opacity="0.9" d="m30.868810393753673,22.427503539995964 l-1.5779740156157942,-4.856504649951074 l-5.106431181261044,-3.552713678800501e-15 l1.5779740156157942,4.856504649951074z"/>
<path fill="#B31B1B" fill-opacity="0.9" d="m30.868810393753666,-22.42750353999597 l-1.5779740156157942,4.856504649951074 l-5.106431181261044,3.552713678800501e-15 l1.5779740156157942,-4.856504649951074z"/>
<path fill="#B31B1B" fill-opacity="0.37" d="m25.762379212492643,28.4304734203793 l-4.131189606246323,-3.00148494019167 l5.106431181261044,-3.552713678800501e-15 l4.131189606246323,3.00148494019167z"/>
<path fill="#B31B1B" fill-opacity="0.37" d="m25.762379212492643,22.427503539995953 l5.106431181261044,-3.552713678800501e-15 l-4.131189606246323,3.001484940191677 l-5.106431181261044,3.552713678800501e-15z"/>
<path fill="#B31B1B" fill-opacity="0.37" d="m25.76237921249264,3.001484940191674 l5.106431181261044,0.0 l-4.131189606246323,-3.0014849401916717 l-5.106431181261044,-0.0z"/>
<path fill="#B31B1B" fill-opacity="0.37" d="m25.76237921249264,-3.00148494019168 l5.106431181261044,-1.7763568394002505e-15 l-4.131189606246323,3.001484940191673 l-5.106431181261044,1.7763568394002505e-15z"/>
<path fill="#B31B1B" fill-opacity="0.37" d="m25.762379212492636,-22.42750353999596 l5.106431181261044,3.552713678800501e-15 l-4.131189606246323,-3.001484940191677 l-5.106431181261044,-3.552713678800501e-15z"/>
<path fill="#B31B1B" fill-opacity="0.37" d="m25.762379212492636,-28.430473420379307 l-4.131189606246323,3.00148494019167 l5.106431181261044,3.552713678800501e-15 l4.131189606246323,-3.00148494019167z"/>
<path fill="#B31B1B" fill-opacity="0.9" d="m21.631189606246323,1.7423389002868673e-15 l4.131189606246316,3.001484940191672 l-1.5779740156158013,4.856504649951072 l-4.131189606246316,-3.001484940191672z"/>
<path fill="#B31B1B" fill-opacity="0.9" d="m21.631189606246323,-7.040452322894679e-15 l4.131189606246316,-3.001484940191673 l-1.5779740156158013,-4.85650464995107 l-4.131189606246316,3.001484940191673z"/>
<path fill="#B31B1B" fill-opacity="0.9" d="m21.63118960624632,25.42898848018763 l4.131189606246323,3.00148494019167 l-1.5779740156158013,4.856504649951077 l-4.131189606246323,-3.00148494019167z"/>
<path fill="#B31B1B" fill-opacity="0.9" d="m21.63118960624632,25.42898848018763 l4.131189606246323,-3.001484940191677 l-1.5779740156158013,-4.856504649951074 l-4.131189606246323,3.001484940191677z"/>
<path fill="#B31B1B" fill-opacity="0.37" d="m21.63118960624632,15.715979180285482 l-1.5779740156157978,4.856504649951075 l4.13118960624632,-3.001484940191677 l1.5779740156157978,-4.856504649951075z"/>
<path fill="#B31B1B" fill-opacity="0.37" d="m21.631189606246316,9.713009299902145 l4.131189606246323,3.0014849401916717 l-1.5779740156158013,-4.856504649951072 l-4.131189606246323,-3.0014849401916717z"/>
<path fill="#B31B1B" fill-opacity="0.37" d="m21.631189606246316,-9.713009299902149 l4.131189606246323,-3.001484940191675 l-1.5779740156158013,4.856504649951074 l-4.131189606246323,3.001484940191675z"/>
<path fill="#B31B1B" fill-opacity="0.37" d="m21.631189606246313,-15.715979180285485 l-1.5779740156157978,-4.856504649951079 l4.13118960624632,3.001484940191677 l1.5779740156157978,4.856504649951079z"/>
<path fill="#B31B1B" fill-opacity="0.9" d="m21.631189606246313,-25.428988480187638 l4.131189606246323,3.001484940191677 l-1.5779740156158013,4.856504649951074 l-4.131189606246323,-3.001484940191677z"/>
<path fill="#B31B1B" fill-opacity="0.9" d="m21.631189606246313,-25.428988480187638 l4.131189606246323,-3.00148494019167 l-1.5779740156158013,-4.85650464995107 l-4.131189606246323,3.00148494019167z"/>
<path fill="#B31B1B" fill-opacity="0.37" d="m21.631189606246316,15.71597918028549 l4.131189606246323,-3.0014849401916734 l-1.5779740156158049,4.85650464995107 l-4.131189606246323,3.0014849401916734z"/>
<path fill="#B31B1B" fill-opacity="0.37" d="m21.63118960624631,-15.715979180285494 l4.1311896062463305,3.00148494019167 l-1.577974015615812,-4.85650464995107 l-4.1311896062463305,-3.00148494019167z"/>
<path fill="#B31B1B" fill-opacity="0.9" d="m25.76237921249264,12.714494240093817 l-4.131189606246323,3.0014849401916734 l-4.13118960624632,-3.001484940191675 l4.131189606246323,-3.0014849401916734z"/>
<path fill="#B31B1B" fill-opacity="0.9" d="m25.76237921249264,-12.714494240093824 l-4.1311896062463305,-3.00148494019167 l-4.131189606246313,3.001484940191675 l4.1311896062463305,3.00148494019167z"/>
<path fill="#B31B1B" fill-opacity="0.9" d="m15.922025984384204,33.28697807033038 l4.131189606246322,-3.001484940191677 l4.131189606246316,3.001484940191677 l-4.131189606246322,3.001484940191677z"/>
<path fill="#B31B1B" fill-opacity="0.9" d="m15.922025984384197,-33.28697807033038 l4.131189606246322,3.00148494019167 l4.131189606246316,-3.00148494019167 l-4.131189606246322,-3.00148494019167z"/>
<path fill="#B31B1B" fill-opacity="0.37" d="m20.053215590630526,30.2854931301387 l1.5779740156157942,-4.85650464995107 l-4.131189606246316,3.0014849401916734 l-1.5779740156157942,4.85650464995107z"/>
<path fill="#B31B1B" fill-opacity="0.37" d="m20.05321559063052,-30.285493130138708 l1.5779740156157942,4.85650464995107 l-4.131189606246316,-3.0014849401916734 l-1.5779740156157942,-4.85650464995107z"/>
<path fill="#B31B1B" fill-opacity="0.9" d="m20.053215590630522,20.572483830236557 l1.5779740156157978,-4.856504649951075 l-4.131189606246323,-3.0014849401916717 l-1.5779740156157978,4.856504649951075z"/>
<path fill="#B31B1B" fill-opacity="0.9" d="m20.053215590630522,4.856504649951072 l-4.131189606246322,3.0014849401916734 l1.577974015615796,4.85650464995107 l4.131189606246322,-3.0014849401916734z"/>
<path fill="#B31B1B" fill-opacity="0.9" d="m20.053215590630522,-4.856504649951077 l-4.131189606246325,-3.0014849401916717 l1.5779740156157995,-4.85650464995107 l4.131189606246325,3.0014849401916717z"/>
<path fill="#B31B1B" fill-opacity="0.9" d="m20.053215590630515,-20.572483830236564 l1.5779740156157978,4.856504649951079 l-4.131189606246316,3.0014849401916717 l-1.5779740156157978,-4.856504649951079z"/>
<path fill="#B31B1B" fill-opacity="0.9" d="m21.631189606246323,1.7423389002868673e-15 l-5.106431181261041,-4.1131042030992836e-16 l-1.577974015615803,4.856504649951072 l5.106431181261041,4.1131042030992836e-16z"/>
<path fill="#B31B1B" fill-opacity="0.9" d="m21.631189606246323,-7.040452322894679e-15 l-5.106431181261041,1.662025340549444e-15 l-1.577974015615803,-4.856504649951071 l5.106431181261041,-1.662025340549444e-15z"/>
<path fill="#B31B1B" fill-opacity="0.9" d="m21.63118960624632,25.42898848018763 l-5.106431181261037,0.0 l-1.577974015615803,-4.856504649951077 l5.106431181261037,-0.0z"/>
<path fill="#B31B1B" fill-opacity="0.9" d="m21.631189606246313,-25.428988480187638 l-5.106431181261037,0.0 l-1.5779740156157995,4.856504649951077 l5.106431181261037,-0.0z"/>
<path fill="#B31B1B" fill-opacity="0.37" d="m16.524758424985283,25.42898848018763 l-4.13118960624632,3.001484940191677 l5.106431181261041,-3.552713678800501e-15 l4.13118960624632,-3.001484940191677z"/>
<path fill="#B31B1B" fill-opacity="0.37" d="m16.524758424985276,-25.428988480187638 l-4.13118960624632,-3.00148494019167 l5.106431181261041,-3.552713678800501e-15 l4.13118960624632,3.00148494019167z"/>
<path fill="#B31B1B" fill-opacity="0.37" d="m15.9220259843842,17.57099889004488 l4.131189606246322,3.001484940191677 l-5.106431181261042,-3.552713678800501e-15 l-4.131189606246322,-3.001484940191677z"/>
<path fill="#B31B1B" fill-opacity="0.37" d="m15.9220259843842,7.857989590142745 l-5.106431181261041,-8.881784197001252e-16 l4.13118960624632,-3.0014849401916717 l5.106431181261041,8.881784197001252e-16z"/>
<path fill="#B31B1B" fill-opacity="0.37" d="m15.922025984384197,-7.857989590142749 l-5.106431181261041,2.6645352591003757e-15 l4.131189606246323,3.00148494019167 l5.106431181261041,-2.6645352591003757e-15z"/>
<path fill="#B31B1B" fill-opacity="0.37" d="m15.922025984384197,-17.570998890044887 l4.131189606246318,-3.001484940191677 l-5.106431181261039,3.552713678800501e-15 l-4.131189606246318,3.001484940191677z"/>
<path fill="#B31B1B" fill-opacity="0.9" d="m10.815594803123165,33.28697807033038 l5.106431181261039,0.0 l1.5779740156157995,-4.856504649951074 l-5.106431181261039,-0.0z"/>
<path fill="#B31B1B" fill-opacity="0.9" d="m10.815594803123158,-33.28697807033038 l5.106431181261039,0.0 l1.5779740156157995,4.8565046499510665 l-5.106431181261039,-0.0z"/>
<path fill="#B31B1B" fill-opacity="0.9" d="m10.81559480312316,17.570998890044887 l1.5779740156157978,-4.856504649951075 l5.106431181261039,-1.7763568394002505e-15 l-1.5779740156157978,4.856504649951075z"/>
<path fill="#B31B1B" fill-opacity="0.9" d="m10.81559480312316,7.857989590142744 l5.106431181261041,8.881784197001252e-16 l1.577974015615796,4.85650464995107 l-5.106431181261041,-8.881784197001252e-16z"/>
<path fill="#B31B1B" fill-opacity="0.9" d="m10.81559480312316,7.857989590142742 l1.5779740156157978,4.85650464995107 l5.106431181261039,-1.7763568394002505e-15 l-1.5779740156157978,-4.85650464995107z"/>
<path fill="#B31B1B" fill-opacity="0.9" d="m10.815594803123156,-7.8579895901427435 l1.5779740156157978,-4.856504649951072 l5.106431181261042,1.7763568394002505e-15 l-1.5779740156157978,4.856504649951072z"/>
<path fill="#B31B1B" fill-opacity="0.9" d="m10.815594803123156,-7.857989590142746 l5.106431181261041,-2.6645352591003757e-15 l1.5779740156157995,-4.85650464995107 l-5.106431181261041,2.6645352591003757e-15z"/>
<path fill="#B31B1B" fill-opacity="0.9" d="m10.815594803123156,-17.570998890044887 l1.5779740156157978,4.856504649951072 l5.106431181261042,1.7763568394002505e-15 l-1.5779740156157978,-4.856504649951072z"/>
<path fill="#B31B1B" fill-opacity="0.37" d="m12.39356881873896,3.001484940191674 l4.131189606246323,-3.0014849401916726 l-1.577974015615803,4.856504649951072 l-4.131189606246323,3.0014849401916726z"/>
<path fill="#B31B1B" fill-opacity="0.37" d="m12.39356881873896,-3.0014849401916766 l4.131189606246323,3.0014849401916712 l-1.577974015615803,-4.856504649951071 l-4.131189606246323,-3.0014849401916712z"/>
<path fill="#B31B1B" fill-opacity="0.9" d="m12.393568818738963,28.430473420379307 l4.13118960624632,-3.001484940191677 l-1.577974015615803,-4.856504649951077 l-4.13118960624632,3.001484940191677z"/>
<path fill="#B31B1B" fill-opacity="0.9" d="m12.393568818738956,-28.430473420379307 l4.13118960624632,3.00148494019167 l-1.5779740156157995,4.856504649951077 l-4.13118960624632,-3.00148494019167z"/>
<path fill="#B31B1B" fill-opacity="0.9" d="m16.524758424985283,1.331028479976939e-15 l-4.131189606246323,3.0014849401916726 l-4.13118960624632,-3.0014849401916734 l4.131189606246323,-3.0014849401916726z"/>
<path fill="#B31B1B" fill-opacity="0.9" d="m16.524758424985283,-5.378426982345235e-15 l-4.131189606246323,-3.0014849401916712 l-4.13118960624632,3.001484940191674 l4.131189606246323,3.0014849401916712z"/>
<path fill="#B31B1B" fill-opacity="0.9" d="m6.6844051968768445,20.572483830236564 l4.131189606246317,3.0014849401916663 l4.131189606246318,-3.001484940191677 l-4.131189606246317,-3.0014849401916663z"/>
<path fill="#B31B1B" fill-opacity="0.9" d="m6.684405196876839,-20.572483830236564 l4.131189606246315,-3.0014849401916663 l4.131189606246322,3.00148494019167 l-4.131189606246315,3.0014849401916663z"/>
<path fill="#B31B1B" fill-opacity="0.37" d="m12.393568818738958,12.714494240093812 l-1.5779740156157978,-4.85650464995107 l-1.5779740156157978,4.856504649951072 l1.5779740156157978,4.85650464995107z"/>
<path fill="#B31B1B" fill-opacity="0.37" d="m12.393568818738954,-12.714494240093815 l-1.5779740156157978,4.856504649951072 l-1.5779740156157978,-4.856504649951074 l1.5779740156157978,-4.856504649951072z"/>
<path fill="#B31B1B" fill-opacity="0.9" d="m10.815594803123165,33.28697807033038 l1.5779740156157978,-4.85650464995107 l-4.13118960624632,-3.0014849401916734 l-1.5779740156157978,4.85650464995107z"/>
<path fill="#B31B1B" fill-opacity="0.9" d="m10.815594803123158,-33.28697807033038 l1.5779740156157978,4.85650464995107 l-4.13118960624632,3.0014849401916734 l-1.5779740156157978,-4.85650464995107z"/>
<path fill="#B31B1B" fill-opacity="0.37" d="m10.815594803123162,23.57396877042823 l1.5779740156158013,4.856504649951077 l-4.13118960624632,-3.0014849401916734 l-1.5779740156158013,-4.856504649951077z"/>
<path fill="#B31B1B" fill-opacity="0.9" d="m10.81559480312316,7.857989590142744 l1.5779740156157995,-4.85650464995107 l-4.13118960624632,-3.0014849401916734 l-1.5779740156157995,4.85650464995107z"/>
<path fill="#B31B1B" fill-opacity="0.9" d="m10.815594803123156,-7.857989590142746 l1.577974015615803,4.85650464995107 l-4.13118960624632,3.001484940191674 l-1.577974015615803,-4.85650464995107z"/>
<path fill="#B31B1B" fill-opacity="0.37" d="m10.815594803123155,-23.57396877042823 l1.5779740156158013,-4.856504649951077 l-4.13118960624632,3.0014849401916734 l-1.5779740156158013,4.856504649951077z"/>
<path fill="#B31B1B" fill-opacity="0.9" d="m10.81559480312316,33.28697807033038 l-4.131189606246319,-3.0014849401916734 l1.5779740156157986,-4.85650464995107 l4.131189606246319,3.0014849401916734z"/>
<path fill="#B31B1B" fill-opacity="0.9" d="m10.815594803123153,-33.28697807033038 l-4.131189606246319,3.0014849401916734 l1.5779740156157986,4.85650464995107 l4.131189606246319,-3.0014849401916734z"/>
<path fill="#B31B1B" fill-opacity="0.9" d="m6.6844051968768445,20.572483830236564 l-1.5779740156158004,-4.856504649951074 l4.131189606246318,-3.001484940191677 l1.5779740156158004,4.856504649951074z"/>
<path fill="#B31B1B" fill-opacity="0.9" d="m6.684405196876839,-20.572483830236564 l-1.5779740156157986,4.856504649951074 l4.131189606246318,3.0014849401916734 l1.5779740156157986,-4.856504649951074z"/>
<path fill="#B31B1B" fill-opacity="0.37" d="m6.684405196876841,10.859474530334417 l-1.5779740156157969,4.856504649951074 l4.131189606246318,-3.001484940191677 l1.5779740156157969,-4.856504649951074z"/>
<path fill="#B31B1B" fill-opacity="0.37" d="m6.684405196876839,-10.859474530334417 l-1.5779740156157986,-4.856504649951074 l4.131189606246318,3.0014849401916734 l1.5779740156157986,4.856504649951074z"/>
<path fill="#B31B1B" fill-opacity="0.37" d="m5.1064311812610415,4.1131042030992856e-16 l1.5779740156157995,4.856504649951072 l1.5779740156157986,-4.856504649951071 l-1.5779740156157995,-4.856504649951072z"/>
<path fill="#B31B1B" fill-opacity="0.37" d="m5.1064311812610415,-1.662025340549443e-15 l1.5779740156157978,-4.856504649951072 l1.5779740156158004,4.856504649951071 l-1.5779740156157978,4.856504649951072z"/>
<path fill="#B31B1B" fill-opacity="0.9" d="m10.81559480312316,7.857989590142742 l-4.131189606246319,3.001484940191675 l-4.13118960624632,-3.0014849401916726 l4.131189606246319,-3.001484940191675z"/>
<path fill="#B31B1B" fill-opacity="0.9" d="m10.815594803123156,-7.8579895901427435 l-4.131189606246317,-3.0014849401916734 l-4.13118960624632,3.0014849401916726 l4.131189606246317,3.0014849401916734z"/>
<path fill="#B31B1B" fill-opacity="0.37" d="m5.106431181261042,25.428988480187634 l1.5779740156157986,4.85650464995107 l1.5779740156157986,-4.85650464995107 l-1.5779740156157986,-4.85650464995107z"/>
<path fill="#B31B1B" fill-opacity="0.37" d="m5.106431181261035,-25.428988480187634 l1.5779740156157986,-4.85650464995107 l1.5779740156157986,4.85650464995107 l-1.5779740156157986,4.85650464995107z"/>
<path fill="#B31B1B" fill-opacity="0.9" d="m10.81559480312316,33.28697807033038 l-4.131189606246318,3.0014849401916734 l-4.13118960624632,-3.0014849401916734 l4.131189606246318,-3.0014849401916734z"/>
<path fill="#B31B1B" fill-opacity="0.9" d="m10.815594803123153,-33.28697807033038 l-4.13118960624632,-3.0014849401916734 l-4.13118960624632,3.0014849401916734 l4.13118960624632,3.0014849401916734z"/>
<path fill="#B31B1B" fill-opacity="0.9" d="m5.106431181261044,15.71597918028549 l1.5779740156157969,-4.856504649951074 l-4.13118960624632,-3.0014849401916726 l-1.5779740156157969,4.856504649951074z"/>
<path fill="#B31B1B" fill-opacity="0.9" d="m5.106431181261041,-15.71597918028549 l1.5779740156157986,4.856504649951074 l-4.13118960624632,3.0014849401916726 l-1.5779740156157986,-4.856504649951074z"/>
<path fill="#B31B1B" fill-opacity="0.9" d="m5.1064311812610415,15.71597918028549 l-4.13118960624632,-3.001484940191675 l1.577974015615799,-4.856504649951071 l4.13118960624632,3.001484940191675z"/>
<path fill="#B31B1B" fill-opacity="0.9" d="m5.106431181261038,-15.71597918028549 l-4.13118960624632,3.001484940191675 l1.5779740156158004,4.856504649951071 l4.13118960624632,-3.001484940191675z"/>
<path fill="#B31B1B" fill-opacity="0.9" d="m6.684405196876841,4.856504649951072 l-1.5779740156157995,-4.856504649951072 l-5.1064311812610415,-4.1131042030992856e-16 l1.5779740156157995,4.856504649951072z"/>
<path fill="#B31B1B" fill-opacity="0.9" d="m6.684405196876841,4.85650464995107 l-5.106431181261041,1.7763568394002505e-15 l-1.5779740156158002,-4.856504649951072 l5.106431181261041,-1.7763568394002505e-15z"/>
<path fill="#B31B1B" fill-opacity="0.9" d="m6.684405196876839,-4.856504649951072 l-5.106431181261041,0.0 l-1.5779740156157989,4.856504649951072 l5.106431181261041,-0.0z"/>
<path fill="#B31B1B" fill-opacity="0.9" d="m6.684405196876839,-4.856504649951074 l-1.5779740156157978,4.856504649951072 l-5.1064311812610415,1.662025340549443e-15 l1.5779740156157978,-4.856504649951072z"/>
<path fill="#B31B1B" fill-opacity="0.9" d="m6.684405196876841,20.572483830236564 l-1.5779740156157995,-4.856504649951074 l-5.1064311812610415,-1.7763568394002505e-15 l1.5779740156157995,4.856504649951074z"/>
<path fill="#B31B1B" fill-opacity="0.9" d="m6.684405196876836,-20.572483830236564 l-1.5779740156157978,4.856504649951074 l-5.1064311812610415,1.7763568394002505e-15 l1.5779740156157978,-4.856504649951074z"/>
<path fill="#B31B1B" fill-opacity="0.9" d="m6.684405196876841,20.572483830236564 l-1.5779740156157986,4.85650464995107 l-5.1064311812610415,-3.552713678800501e-15 l1.5779740156157986,-4.85650464995107z"/>
<path fill="#B31B1B" fill-opacity="0.9" d="m6.684405196876836,-20.572483830236564 l-1.5779740156158004,-4.85650464995107 l-5.1064311812610415,3.552713678800501e-15 l1.5779740156158004,4.85650464995107z"/>
<path fill="#B31B1B" fill-opacity="0.9" d="m6.684405196876842,36.28846301052205 l-5.106431181261041,0.0 l-1.5779740156157984,4.85650464995107 l5.106431181261041,-0.0z"/>
<path fill="#B31B1B" fill-opacity="0.9" d="m6.684405196876841,30.285493130138704 l-5.106431181261041,0.0 l-1.5779740156157998,-4.856504649951074 l5.106431181261041,-0.0z"/>
<path fill="#B31B1B" fill-opacity="0.9" d="m6.684405196876834,-30.285493130138704 l-5.1064311812610415,0.0 l-1.5779740156157984,4.856504649951074 l5.1064311812610415,-0.0z"/>
<path fill="#B31B1B" fill-opacity="0.9" d="m6.684405196876833,-36.28846301052205 l-5.106431181261041,0.0 l-1.5779740156157998,-4.85650464995107 l5.106431181261041,-0.0z"/>
<path fill="#B31B1B" fill-opacity="0.37" d="m1.5779740156158002,4.856504649951072 l5.106431181261041,-1.7763568394002505e-15 l-4.13118960624632,3.0014849401916743 l-5.106431181261041,1.7763568394002505e-15z"/>
<path fill="#B31B1B" fill-opacity="0.37" d="m1.5779740156157989,-4.856504649951072 l5.106431181261041,0.0 l-4.13118960624632,-3.0014849401916726 l-5.106431181261041,-0.0z"/>
<path fill="#B31B1B" fill-opacity="0.37" d="m1.5779740156157993,4.856504649951072 l-4.13118960624632,3.0014849401916726 l5.106431181261041,0.0 l4.13118960624632,-3.0014849401916726z"/>
<path fill="#B31B1B" fill-opacity="0.37" d="m1.577974015615798,-4.856504649951072 l-4.13118960624632,-3.0014849401916726 l5.106431181261041,0.0 l4.13118960624632,3.0014849401916726z"/>
<path fill="#B31B1B" fill-opacity="0.37" d="m1.5779740156158009,36.28846301052205 l-4.131189606246319,-3.0014849401916734 l5.10643118126104,0.0 l4.131189606246319,3.0014849401916734z"/>
<path fill="#B31B1B" fill-opacity="0.37" d="m1.5779740156158002,30.285493130138704 l5.106431181261041,0.0 l-4.13118960624632,3.0014849401916734 l-5.106431181261041,-0.0z"/>
<path fill="#B31B1B" fill-opacity="0.37" d="m1.5779740156157926,-30.285493130138704 l5.1064311812610415,0.0 l-4.13118960624632,-3.0014849401916734 l-5.1064311812610415,-0.0z"/>
<path fill="#B31B1B" fill-opacity="0.37" d="m1.577974015615792,-36.28846301052205 l-4.131189606246318,3.0014849401916734 l5.10643118126104,0.0 l4.131189606246318,-3.0014849401916734z"/>
<path fill="#B31B1B" fill-opacity="0.37" d="m0.9752415750147212,12.714494240093815 l4.13118960624632,3.001484940191675 l-5.1064311812610415,-1.7763568394002505e-15 l-4.13118960624632,-3.001484940191675z"/>
<path fill="#B31B1B" fill-opacity="0.37" d="m0.9752415750147181,-12.714494240093815 l4.13118960624632,-3.001484940191675 l-5.1064311812610415,1.7763568394002505e-15 l-4.13118960624632,3.001484940191675z"/>
<path fill="#B31B1B" fill-opacity="0.9" d="m-4.131189606246319,12.714494240093815 l5.106431181261041,0.0 l1.577974015615799,-4.856504649951071 l-5.106431181261041,-0.0z"/>
<path fill="#B31B1B" fill-opacity="0.9" d="m-4.1311896062463225,-12.714494240093815 l5.106431181261041,0.0 l1.5779740156158004,4.856504649951071 l-5.106431181261041,-0.0z"/>
<path fill="#B31B1B" fill-opacity="0.9" d="m-2.553215590630518,7.857989590142745 l-1.5779740156158018,-4.856504649951071 l4.13118960624632,-3.0014849401916743 l1.5779740156158018,4.856504649951071z"/>
<path fill="#B31B1B" fill-opacity="0.9" d="m-2.55321559063052,-7.857989590142745 l-1.5779740156158,4.856504649951072 l4.13118960624632,3.0014849401916734 l1.5779740156158,-4.856504649951072z"/>
<path fill="#B31B1B" fill-opacity="0.9" d="m-2.5532155906305203,7.857989590142744 l4.13118960624632,-3.0014849401916726 l-1.5779740156157993,-4.856504649951072 l-4.13118960624632,3.0014849401916726z"/>
<path fill="#B31B1B" fill-opacity="0.9" d="m-2.553215590630522,-7.857989590142744 l4.13118960624632,3.0014849401916726 l-1.577974015615798,4.856504649951072 l-4.13118960624632,-3.0014849401916726z"/>
<path fill="#B31B1B" fill-opacity="0.37" d="m-2.553215590630519,17.570998890044883 l-1.5779740156158,-4.856504649951068 l4.131189606246319,3.0014849401916734 l1.5779740156158,4.856504649951068z"/>
<path fill="#B31B1B" fill-opacity="0.37" d="m-2.5532155906305234,-17.570998890044883 l-1.577974015615799,4.856504649951068 l4.131189606246319,-3.0014849401916734 l1.577974015615799,-4.856504649951068z"/>
<path fill="#B31B1B" fill-opacity="0.9" d="m-2.553215590630518,33.28697807033038 l-1.577974015615799,4.856504649951077 l4.13118960624632,3.0014849401916663 l1.577974015615799,-4.856504649951077z"/>
<path fill="#B31B1B" fill-opacity="0.9" d="m-2.553215590630518,33.28697807033038 l4.131189606246318,-3.0014849401916734 l-1.5779740156157998,-4.856504649951074 l-4.131189606246318,3.0014849401916734z"/>
<path fill="#B31B1B" fill-opacity="0.37" d="m-2.553215590630519,23.57396877042823 l-1.5779740156157982,4.856504649951077 l4.131189606246318,-3.001484940191677 l1.5779740156157982,-4.856504649951077z"/>
<path fill="#B31B1B" fill-opacity="0.37" d="m-2.553215590630525,-23.57396877042823 l-1.577974015615799,-4.856504649951077 l4.131189606246318,3.001484940191677 l1.577974015615799,4.856504649951077z"/>
<path fill="#B31B1B" fill-opacity="0.9" d="m-2.553215590630526,-33.28697807033038 l4.131189606246319,3.0014849401916734 l-1.5779740156157984,4.856504649951074 l-4.131189606246319,-3.0014849401916734z"/>
<path fill="#B31B1B" fill-opacity="0.9" d="m-2.553215590630526,-33.28697807033038 l-1.5779740156158,-4.856504649951077 l4.131189606246318,-3.0014849401916663 l1.5779740156158,4.856504649951077z"/>
<path fill="#B31B1B" fill-opacity="0.9" d="m1.577974015615801,20.57248383023656 l-4.13118960624632,-3.001484940191677 l-4.13118960624632,3.0014849401916734 l4.13118960624632,3.001484940191677z"/>
<path fill="#B31B1B" fill-opacity="0.9" d="m1.5779740156157962,-20.57248383023656 l-4.13118960624632,3.001484940191677 l-4.13118960624632,-3.0014849401916734 l4.13118960624632,-3.001484940191677z"/>
<path fill="#B31B1B" fill-opacity="0.9" d="m-8.26237921249264,1.011849625592074e-15 l4.131189606246319,-3.0014849401916734 l4.131189606246321,3.0014849401916726 l-4.131189606246319,3.0014849401916734z"/>
<path fill="#B31B1B" fill-opacity="0.9" d="m-8.262379212492638,41.14496766047312 l4.131189606246321,-3.0014849401916663 l4.13118960624632,3.0014849401916663 l-4.131189606246321,3.0014849401916663z"/>
<path fill="#B31B1B" fill-opacity="0.9" d="m-8.262379212492649,-41.14496766047312 l4.1311896062463225,3.0014849401916663 l4.131189606246318,-3.0014849401916663 l-4.1311896062463225,-3.0014849401916663z"/>
<path fill="#B31B1B" fill-opacity="0.9" d="m-4.131189606246315,12.714494240093817 l-4.131189606246319,3.001484940191675 l1.5779740156158022,4.856504649951068 l4.131189606246319,-3.001484940191675z"/>
<path fill="#B31B1B" fill-opacity="0.9" d="m-4.131189606246319,-12.714494240093817 l-4.131189606246319,-3.0014849401916717 l1.5779740156158004,-4.856504649951072 l4.131189606246319,3.0014849401916717z"/>
<path fill="#B31B1B" fill-opacity="0.9" d="m-4.131189606246315,12.714494240093817 l-4.131189606246321,-3.001484940191668 l1.5779740156157978,-4.8565046499510744 l4.131189606246321,3.001484940191668z"/>
<path fill="#B31B1B" fill-opacity="0.9" d="m-4.131189606246319,-12.714494240093817 l-4.131189606246321,3.0014849401916717 l1.5779740156157995,4.856504649951073 l4.131189606246321,-3.0014849401916717z"/>
<path fill="#B31B1B" fill-opacity="0.37" d="m-4.13118960624632,3.0014849401916743 l1.5779740156158018,4.856504649951071 l-4.13118960624632,-3.001484940191671 l-1.5779740156158018,-4.856504649951071z"/>
<path fill="#B31B1B" fill-opacity="0.37" d="m-4.13118960624632,-3.0014849401916734 l1.5779740156158,-4.856504649951072 l-4.13118960624632,3.0014849401916726 l-1.5779740156158,4.856504649951072z"/>
<path fill="#B31B1B" fill-opacity="0.9" d="m-4.131189606246317,28.430473420379307 l-4.131189606246319,-3.0014849401916806 l1.5779740156157978,-4.85650464995107 l4.131189606246319,3.0014849401916806z"/>
<path fill="#B31B1B" fill-opacity="0.9" d="m-4.131189606246319,12.714494240093815 l1.5779740156158,4.856504649951068 l-4.13118960624632,3.0014849401916734 l-1.5779740156158,-4.856504649951068z"/>
<path fill="#B31B1B" fill-opacity="0.37" d="m-4.131189606246321,3.0014849401916734 l-4.131189606246319,-3.0014849401916726 l1.5779740156157995,4.856504649951072 l4.131189606246319,3.0014849401916726z"/>
<path fill="#B31B1B" fill-opacity="0.37" d="m-4.131189606246321,-3.0014849401916726 l-4.131189606246319,3.0014849401916734 l1.5779740156157978,-4.856504649951072 l4.131189606246319,-3.0014849401916734z"/>
<path fill="#B31B1B" fill-opacity="0.9" d="m-4.1311896062463225,-12.714494240093815 l1.577974015615799,-4.856504649951068 l-4.13118960624632,-3.0014849401916734 l-1.577974015615799,4.856504649951068z"/>
<path fill="#B31B1B" fill-opacity="0.9" d="m-4.131189606246324,-28.430473420379307 l-4.131189606246319,3.0014849401916806 l1.5779740156157995,4.85650464995107 l4.131189606246319,-3.0014849401916806z"/>
<path fill="#B31B1B" fill-opacity="0.37" d="m-4.131189606246317,38.143482720281455 l1.577974015615799,-4.856504649951077 l-4.13118960624632,3.0014849401916734 l-1.577974015615799,4.856504649951077z"/>
<path fill="#B31B1B" fill-opacity="0.37" d="m-4.131189606246326,-38.143482720281455 l1.5779740156158,4.856504649951077 l-4.13118960624632,-3.0014849401916734 l-1.5779740156158,-4.856504649951077z"/>
<path fill="#B31B1B" fill-opacity="0.37" d="m-4.131189606246317,44.146452600664794 l-4.131189606246321,-3.0014849401916734 l1.5779740156158004,4.85650464995107 l4.131189606246321,3.0014849401916734z"/>
<path fill="#B31B1B" fill-opacity="0.37" d="m-4.131189606246328,-44.146452600664794 l-4.131189606246321,3.0014849401916734 l1.5779740156158004,-4.85650464995107 l4.131189606246321,-3.0014849401916734z"/>
<path fill="#B31B1B" fill-opacity="0.9" d="m-2.553215590630518,33.28697807033038 l-5.106431181261041,0.0 l-1.5779740156158004,-4.856504649951077 l5.106431181261041,-0.0z"/>
<path fill="#B31B1B" fill-opacity="0.9" d="m-2.553215590630526,-33.28697807033038 l-5.106431181261041,0.0 l-1.5779740156157986,4.856504649951077 l5.106431181261041,-0.0z"/>
<path fill="#B31B1B" fill-opacity="0.37" d="m-7.659646771891558,33.28697807033038 l-4.131189606246319,3.0014849401916734 l5.10643118126104,0.0 l4.131189606246319,-3.0014849401916734z"/>
<path fill="#B31B1B" fill-opacity="0.37" d="m-7.659646771891567,-33.28697807033038 l-4.131189606246321,-3.0014849401916734 l5.1064311812610415,0.0 l4.131189606246321,3.0014849401916734z"/>
<path fill="#B31B1B" fill-opacity="0.37" d="m-8.262379212492629,25.428988480187634 l-5.106431181261044,3.552713678800501e-15 l4.131189606246323,3.00148494019167 l5.106431181261044,-3.552713678800501e-15z"/>
<path fill="#B31B1B" fill-opacity="0.37" d="m-8.262379212492636,-25.428988480187634 l-5.106431181261044,-3.552713678800501e-15 l4.131189606246323,-3.00148494019167 l5.106431181261044,3.552713678800501e-15z"/>
<path fill="#B31B1B" fill-opacity="0.37" d="m-8.262379212492634,15.715979180285492 l4.131189606246319,-3.001484940191675 l-5.1064311812610415,3.552713678800501e-15 l-4.131189606246319,3.001484940191675z"/>
<path fill="#B31B1B" fill-opacity="0.37" d="m-8.262379212492638,-15.715979180285489 l4.131189606246319,3.0014849401916717 l-5.1064311812610415,0.0 l-4.131189606246319,-3.0014849401916717z"/>
<path fill="#B31B1B" fill-opacity="0.37" d="m-8.262379212492636,9.713009299902149 l-5.106431181261044,1.7763568394002505e-15 l4.131189606246323,3.00148494019167 l5.106431181261044,-1.7763568394002505e-15z"/>
<path fill="#B31B1B" fill-opacity="0.37" d="m-8.26237921249264,-9.713009299902145 l-5.106431181261044,-1.7763568394002505e-15 l4.131189606246323,-3.00148494019167 l5.106431181261044,1.7763568394002505e-15z"/>
<path fill="#B31B1B" fill-opacity="0.37" d="m-8.262379212492636,25.428988480187627 l4.131189606246319,3.0014849401916806 l-5.1064311812610415,-7.105427357601002e-15 l-4.131189606246319,-3.0014849401916806z"/>
<path fill="#B31B1B" fill-opacity="0.37" d="m-8.262379212492643,-25.428988480187627 l4.131189606246319,-3.0014849401916806 l-5.1064311812610415,7.105427357601002e-15 l-4.131189606246319,3.0014849401916806z"/>
<path fill="#B31B1B" fill-opacity="0.9" d="m-13.368810393753673,25.428988480187638 l5.106431181261044,-3.552713678800501e-15 l1.5779740156157969,-4.856504649951074 l-5.106431181261044,3.552713678800501e-15z"/>
<path fill="#B31B1B" fill-opacity="0.9" d="m-13.36881039375368,-25.428988480187638 l5.106431181261044,3.552713678800501e-15 l1.5779740156157986,4.856504649951074 l-5.106431181261044,-3.552713678800501e-15z"/>
<path fill="#B31B1B" fill-opacity="0.9" d="m-13.368810393753678,15.715979180285494 l5.106431181261044,-1.7763568394002505e-15 l1.5779740156158022,4.856504649951068 l-5.106431181261044,1.7763568394002505e-15z"/>
<path fill="#B31B1B" fill-opacity="0.9" d="m-13.368810393753682,-15.71597918028549 l5.106431181261044,1.7763568394002505e-15 l1.5779740156158004,-4.856504649951072 l-5.106431181261044,-1.7763568394002505e-15z"/>
<path fill="#B31B1B" fill-opacity="0.9" d="m-13.36881039375368,9.71300929990215 l5.106431181261044,-1.7763568394002505e-15 l1.5779740156157978,-4.8565046499510744 l-5.106431181261044,1.7763568394002505e-15z"/>
<path fill="#B31B1B" fill-opacity="0.9" d="m-13.36881039375368,1.6372070857118312e-15 l1.5779740156157978,4.856504649951072 l5.106431181261042,-8.881784197001252e-16 l-1.5779740156157978,-4.856504649951072z"/>
<path fill="#B31B1B" fill-opacity="0.9" d="m-13.36881039375368,1.6372070857118312e-15 l1.5779740156157978,-4.856504649951072 l5.106431181261041,-8.881784197001252e-16 l-1.5779740156157978,4.856504649951072z"/>
<path fill="#B31B1B" fill-opacity="0.9" d="m-13.368810393753684,-9.713009299902147 l5.106431181261044,1.7763568394002505e-15 l1.5779740156157995,4.856504649951073 l-5.106431181261044,-1.7763568394002505e-15z"/>
<path fill="#B31B1B" fill-opacity="0.9" d="m-13.368810393753677,50.85797696037526 l1.5779740156157995,-4.85650464995107 l5.10643118126104,0.0 l-1.5779740156157995,4.85650464995107z"/>
<path fill="#B31B1B" fill-opacity="0.9" d="m-13.368810393753678,41.14496766047312 l1.5779740156158013,4.85650464995107 l5.10643118126104,0.0 l-1.5779740156158013,-4.85650464995107z"/>
<path fill="#B31B1B" fill-opacity="0.9" d="m-13.368810393753678,41.14496766047312 l1.5779740156158013,-4.85650464995107 l5.10643118126104,0.0 l-1.5779740156158013,4.85650464995107z"/>
<path fill="#B31B1B" fill-opacity="0.9" d="m-13.368810393753682,9.713009299902145 l1.5779740156157995,-4.856504649951072 l5.106431181261042,-8.881784197001252e-16 l-1.5779740156157995,4.856504649951072z"/>
<path fill="#B31B1B" fill-opacity="0.9" d="m-13.368810393753686,-9.713009299902142 l1.577974015615803,4.856504649951072 l5.106431181261041,-8.881784197001252e-16 l-1.577974015615803,-4.856504649951072z"/>
<path fill="#B31B1B" fill-opacity="0.9" d="m-13.368810393753689,-41.14496766047312 l1.5779740156158013,4.85650464995107 l5.1064311812610415,0.0 l-1.5779740156158013,-4.85650464995107z"/>
<path fill="#B31B1B" fill-opacity="0.9" d="m-13.368810393753689,-41.14496766047312 l1.5779740156158013,-4.85650464995107 l5.10643118126104,0.0 l-1.5779740156158013,4.85650464995107z"/>
<path fill="#B31B1B" fill-opacity="0.9" d="m-13.36881039375369,-50.85797696037526 l1.577974015615803,4.85650464995107 l5.10643118126104,0.0 l-1.577974015615803,-4.85650464995107z"/>
<path fill="#B31B1B" fill-opacity="0.9" d="m-11.79083637813787,36.28846301052205 l-1.5779740156157995,-4.8565046499510665 l4.13118960624632,-3.001484940191677 l1.5779740156157995,4.8565046499510665z"/>
<path fill="#B31B1B" fill-opacity="0.9" d="m-11.79083637813788,-36.28846301052205 l-1.577974015615796,4.8565046499510665 l4.13118960624632,3.001484940191677 l1.577974015615796,-4.8565046499510665z"/>
<path fill="#B31B1B" fill-opacity="0.9" d="m-11.790836378137877,36.28846301052205 l4.131189606246319,-3.0014849401916734 l-1.5779740156158004,-4.856504649951077 l-4.131189606246319,3.0014849401916734z"/>
<path fill="#B31B1B" fill-opacity="0.9" d="m-11.790836378137888,-36.28846301052205 l4.131189606246321,3.0014849401916734 l-1.5779740156157986,4.856504649951077 l-4.131189606246321,-3.0014849401916734z"/>
<path fill="#B31B1B" fill-opacity="0.9" d="m-17.499999999999993,28.430473420379315 l4.131189606246323,3.00148494019167 l4.13118960624632,-3.001484940191677 l-4.131189606246323,-3.00148494019167z"/>
<path fill="#B31B1B" fill-opacity="0.9" d="m-17.5,-28.430473420379307 l4.131189606246323,-3.001484940191677 l4.13118960624632,3.001484940191677 l-4.131189606246323,3.001484940191677z"/>
<path fill="#B31B1B" fill-opacity="0.37" d="m-11.790836378137875,20.572483830236564 l-1.5779740156157978,4.856504649951074 l-1.5779740156157995,-4.85650464995107 l1.5779740156157978,-4.856504649951074z"/>
<path fill="#B31B1B" fill-opacity="0.37" d="m-11.790836378137879,-20.572483830236564 l-1.5779740156158013,-4.856504649951074 l-1.577974015615796,4.856504649951077 l1.5779740156158013,4.856504649951074z"/>
<path fill="#B31B1B" fill-opacity="0.9" d="m-17.5,12.714494240093824 l4.13118960624632,-3.0014849401916734 l4.131189606246323,3.00148494019167 l-4.13118960624632,3.0014849401916734z"/>
<path fill="#B31B1B" fill-opacity="0.9" d="m-17.5,-12.71449424009382 l4.131189606246316,3.0014849401916734 l4.131189606246323,-3.00148494019167 l-4.131189606246316,-3.0014849401916734z"/>
<path fill="#B31B1B" fill-opacity="0.37" d="m-11.790836378137877,46.00147231042419 l-1.5779740156157995,4.85650464995107 l-1.5779740156157995,-4.85650464995107 l1.5779740156157995,-4.85650464995107z"/>
<path fill="#B31B1B" fill-opacity="0.37" d="m-11.790836378137882,4.856504649951074 l-1.5779740156157995,4.856504649951072 l-1.5779740156157995,-4.856504649951072 l1.5779740156157995,-4.856504649951072z"/>
<path fill="#B31B1B" fill-opacity="0.37" d="m-11.790836378137882,-4.85650464995107 l-1.577974015615803,-4.856504649951072 l-1.577974015615796,4.856504649951072 l1.577974015615803,4.856504649951072z"/>
<path fill="#B31B1B" fill-opacity="0.37" d="m-11.790836378137888,-46.00147231042419 l-1.577974015615803,-4.85650464995107 l-1.577974015615796,4.85650464995107 l1.577974015615803,4.85650464995107z"/>
<path fill="#B31B1B" fill-opacity="0.9" d="m-13.368810393753668,41.14496766047313 l1.5779740156157978,-4.856504649951077 l-4.131189606246322,-3.0014849401916663 l-1.5779740156157978,4.856504649951077z"/>
<path fill="#B31B1B" fill-opacity="0.37" d="m-13.36881039375367,31.431958360570984 l1.5779740156157995,4.8565046499510665 l-4.131189606246322,-3.0014849401916663 l-1.5779740156157995,-4.8565046499510665z"/>
<path fill="#B31B1B" fill-opacity="0.37" d="m-13.368810393753677,-31.431958360570984 l1.577974015615796,-4.8565046499510665 l-4.131189606246318,3.0014849401916663 l-1.577974015615796,4.8565046499510665z"/>
<path fill="#B31B1B" fill-opacity="0.9" d="m-13.368810393753678,-41.14496766047313 l1.5779740156157978,4.856504649951077 l-4.131189606246318,3.0014849401916663 l-1.5779740156157978,-4.856504649951077z"/>
<path fill="#B31B1B" fill-opacity="0.9" d="m-17.499999999999982,53.85946190056694 l-1.5779740156158013,-4.85650464995107 l4.131189606246318,-3.0014849401916734 l1.5779740156158013,4.85650464995107z"/>
<path fill="#B31B1B" fill-opacity="0.9" d="m-17.499999999999996,-53.85946190056694 l-1.5779740156158013,4.85650464995107 l4.131189606246322,3.0014849401916734 l1.5779740156158013,-4.85650464995107z"/>
<path fill="#B31B1B" fill-opacity="0.37" d="m-17.499999999999986,44.1464526006648 l-1.5779740156157978,4.85650464995107 l4.131189606246318,-3.0014849401916734 l1.5779740156157978,-4.85650464995107z"/>
<path fill="#B31B1B" fill-opacity="0.37" d="m-17.5,-44.1464526006648 l-1.5779740156157978,-4.85650464995107 l4.131189606246322,3.0014849401916734 l1.5779740156157978,4.85650464995107z"/>
<path fill="#B31B1B" fill-opacity="0.9" d="m-17.499999999999993,28.430473420379315 l-1.5779740156157978,-4.85650464995107 l4.131189606246318,-3.001484940191677 l1.5779740156157978,4.85650464995107z"/>
<path fill="#B31B1B" fill-opacity="0.9" d="m-17.5,12.714494240093824 l-1.5779740156157906,4.85650464995107 l4.131189606246318,3.0014849401916734 l1.5779740156157906,-4.85650464995107z"/>
<path fill="#B31B1B" fill-opacity="0.9" d="m-17.5,-12.71449424009382 l-1.5779740156157978,-4.8565046499510665 l4.131189606246322,-3.0014849401916734 l1.5779740156157978,4.8565046499510665z"/>
<path fill="#B31B1B" fill-opacity="0.9" d="m-17.5,-28.430473420379307 l-1.5779740156157978,4.85650464995107 l4.131189606246322,3.001484940191677 l1.5779740156157978,-4.85650464995107z"/>
<path fill="#B31B1B" fill-opacity="0.9" d="m-17.499999999999996,53.859461900566934 l4.13118960624632,-3.0014849401916734 l-1.5779740156157995,-4.85650464995107 l-4.13118960624632,3.0014849401916734z"/>
<path fill="#B31B1B" fill-opacity="0.9" d="m-17.500000000000004,12.714494240093819 l4.131189606246322,-3.0014849401916734 l-1.5779740156157995,-4.856504649951072 l-4.131189606246322,3.0014849401916734z"/>
<path fill="#B31B1B" fill-opacity="0.37" d="m-17.5,3.001484940191675 l4.13118960624632,-3.0014849401916734 l-1.5779740156158013,4.856504649951072 l-4.13118960624632,3.0014849401916734z"/>
<path fill="#B31B1B" fill-opacity="0.37" d="m-17.5,-3.001484940191671 l4.13118960624632,3.0014849401916726 l-1.5779740156158013,-4.856504649951072 l-4.13118960624632,-3.0014849401916726z"/>
<path fill="#B31B1B" fill-opacity="0.9" d="m-17.500000000000004,-12.714494240093815 l4.131189606246318,3.0014849401916734 l-1.577974015615796,4.856504649951072 l-4.131189606246318,-3.0014849401916734z"/>
<path fill="#B31B1B" fill-opacity="0.9" d="m-17.50000000000001,-53.859461900566934 l4.13118960624632,3.0014849401916734 l-1.577974015615796,4.85650464995107 l-4.13118960624632,-3.0014849401916734z"/>
<path fill="#B31B1B" fill-opacity="0.9" d="m-13.368810393753668,41.14496766047313 l-4.131189606246318,3.0014849401916734 l-4.131189606246323,-3.0014849401916734 l4.131189606246318,-3.0014849401916734z"/>
<path fill="#B31B1B" fill-opacity="0.37" d="m-19.07797401561579,33.286978070330385 l1.5779740156157978,-4.85650464995107 l1.5779740156158013,4.85650464995107 l-1.5779740156157978,4.85650464995107z"/>
<path fill="#B31B1B" fill-opacity="0.37" d="m-19.077974015615798,-33.286978070330385 l1.5779740156157978,4.856504649951077 l1.5779740156158013,-4.856504649951077 l-1.5779740156157978,-4.856504649951077z"/>
<path fill="#B31B1B" fill-opacity="0.9" d="m-13.368810393753678,-41.14496766047313 l-4.131189606246322,-3.0014849401916734 l-4.131189606246316,3.0014849401916734 l4.131189606246322,3.0014849401916734z"/>
<path fill="#B31B1B" fill-opacity="0.9" d="m-13.36881039375368,1.6372070857118312e-15 l-4.13118960624632,-3.0014849401916726 l-4.131189606246316,3.0014849401916734 l4.13118960624632,3.0014849401916726z"/>
<path fill="#B31B1B" fill-opacity="0.9" d="m-23.209163621862114,20.57248383023657 l4.131189606246323,3.0014849401916734 l4.131189606246318,-3.001484940191677 l-4.131189606246323,-3.0014849401916734z"/>
<path fill="#B31B1B" fill-opacity="0.9" d="m-23.20916362186212,-20.572483830236564 l4.131189606246323,-3.0014849401916734 l4.131189606246322,3.001484940191677 l-4.131189606246323,3.0014849401916734z"/>
<path fill="#B31B1B" fill-opacity="0.9" d="m-19.077974015615784,49.00295725061587 l1.5779740156157978,-4.85650464995107 l-4.131189606246323,-3.0014849401916734 l-1.5779740156157978,4.85650464995107z"/>
<path fill="#B31B1B" fill-opacity="0.9" d="m-19.077974015615798,-49.00295725061587 l1.5779740156157978,4.85650464995107 l-4.131189606246316,3.0014849401916734 l-1.5779740156157978,-4.85650464995107z"/>
<path fill="#B31B1B" fill-opacity="0.37" d="m-19.07797401561579,23.573968770428245 l-4.131189606246323,-3.0014849401916734 l1.5779740156158013,4.856504649951074 l4.131189606246323,3.0014849401916734z"/>
<path fill="#B31B1B" fill-opacity="0.37" d="m-19.07797401561579,17.570998890044894 l-4.131189606246323,3.001484940191677 l1.5779740156158013,-4.856504649951075 l4.131189606246323,-3.001484940191677z"/>
<path fill="#B31B1B" fill-opacity="0.37" d="m-19.077974015615798,-17.570998890044887 l-4.131189606246323,-3.001484940191677 l1.5779740156158013,4.856504649951072 l4.131189606246323,3.001484940191677z"/>
<path fill="#B31B1B" fill-opacity="0.37" d="m-19.077974015615798,-23.573968770428237 l-4.131189606246323,3.0014849401916734 l1.5779740156158013,-4.856504649951074 l4.131189606246323,-3.0014849401916734z"/>
<path fill="#B31B1B" fill-opacity="0.9" d="m-19.0779740156158,7.857989590142748 l1.5779740156158013,-4.856504649951073 l-4.131189606246316,-3.0014849401916726 l-1.5779740156158013,4.856504649951073z"/>
<path fill="#B31B1B" fill-opacity="0.9" d="m-19.0779740156158,-7.857989590142743 l1.5779740156158013,4.856504649951072 l-4.131189606246316,3.0014849401916734 l-1.5779740156158013,-4.856504649951072z"/>
<path fill="#B31B1B" fill-opacity="0.9" d="m-17.49999999999999,38.143482720281455 l-1.5779740156158013,-4.85650464995107 l-5.106431181261041,0.0 l1.5779740156158013,4.85650464995107z"/>
<path fill="#B31B1B" fill-opacity="0.9" d="m-17.499999999999996,-38.143482720281455 l-1.5779740156158013,4.85650464995107 l-5.106431181261041,0.0 l1.5779740156158013,-4.85650464995107z"/>
<path fill="#B31B1B" fill-opacity="0.9" d="m-17.499999999999993,28.430473420379315 l-1.5779740156157978,4.85650464995107 l-5.106431181261041,0.0 l1.5779740156157978,-4.85650464995107z"/>
<path fill="#B31B1B" fill-opacity="0.9" d="m-17.5,-28.430473420379307 l-1.5779740156157978,-4.856504649951077 l-5.106431181261041,0.0 l1.5779740156157978,4.856504649951077z"/>
<path fill="#B31B1B" fill-opacity="0.9" d="m-17.500000000000004,12.714494240093819 l-5.106431181261041,0.0 l-1.5779740156157942,-4.856504649951073 l5.106431181261041,-0.0z"/>
<path fill="#B31B1B" fill-opacity="0.9" d="m-17.500000000000004,-12.714494240093815 l-5.106431181261041,3.552713678800501e-15 l-1.5779740156157942,4.856504649951071 l5.106431181261041,-3.552713678800501e-15z"/>
<path fill="#B31B1B" fill-opacity="0.37" d="m-22.60643118126103,38.143482720281455 l5.106431181261041,0.0 l-4.13118960624632,3.0014849401916734 l-5.106431181261041,-0.0z"/>
<path fill="#B31B1B" fill-opacity="0.37" d="m-22.606431181261037,-38.143482720281455 l5.106431181261041,0.0 l-4.13118960624632,-3.0014849401916734 l-5.106431181261041,-0.0z"/>
<path fill="#B31B1B" fill-opacity="0.37" d="m-22.606431181261033,28.430473420379318 l5.106431181261041,-3.552713678800501e-15 l-4.13118960624632,-3.00148494019167 l-5.106431181261041,3.552713678800501e-15z"/>
<path fill="#B31B1B" fill-opacity="0.37" d="m-22.60643118126104,-28.43047342037931 l5.106431181261041,3.552713678800501e-15 l-4.13118960624632,3.00148494019167 l-5.106431181261041,-3.552713678800501e-15z"/>
<path fill="#B31B1B" fill-opacity="0.37" d="m-22.606431181261044,12.714494240093819 l-4.131189606246313,3.0014849401916734 l5.106431181261037,-1.7763568394002505e-15 l4.131189606246313,-3.0014849401916734z"/>
<path fill="#B31B1B" fill-opacity="0.37" d="m-22.606431181261044,-12.714494240093812 l-4.13118960624632,-3.0014849401916734 l5.106431181261037,-1.7763568394002505e-15 l4.13118960624632,3.0014849401916734z"/>
<path fill="#B31B1B" fill-opacity="0.37" d="m-23.209163621862118,4.8565046499510744 l-5.106431181261044,1.7763568394002505e-15 l4.131189606246323,3.00148494019167 l5.106431181261044,-1.7763568394002505e-15z"/>
<path fill="#B31B1B" fill-opacity="0.37" d="m-23.209163621862118,-4.856504649951069 l-5.106431181261044,0.0 l4.131189606246323,-3.0014849401916717 l5.106431181261044,-0.0z"/>
<path fill="#B31B1B" fill-opacity="0.9" d="m-28.31559480312315,20.57248383023657 l1.5779740156157978,4.856504649951074 l5.106431181261041,0.0 l-1.5779740156157978,-4.856504649951074z"/>
<path fill="#B31B1B" fill-opacity="0.9" d="m-28.31559480312315,20.57248383023657 l5.106431181261037,0.0 l1.5779740156158013,-4.856504649951075 l-5.106431181261037,-0.0z"/>
<path fill="#B31B1B" fill-opacity="0.9" d="m-28.315594803123158,-20.572483830236564 l5.106431181261037,0.0 l1.5779740156158013,4.856504649951072 l-5.106431181261037,-0.0z"/>
<path fill="#B31B1B" fill-opacity="0.9" d="m-28.315594803123158,-20.572483830236564 l1.5779740156157978,-4.856504649951074 l5.106431181261041,0.0 l-1.5779740156157978,4.856504649951074z"/>
<path fill="#B31B1B" fill-opacity="0.9" d="m-28.31559480312316,4.856504649951076 l1.5779740156158013,-4.856504649951073 l5.106431181261044,-6.253574601197578e-16 l-1.5779740156158013,4.856504649951073z"/>
<path fill="#B31B1B" fill-opacity="0.9" d="m-28.31559480312316,-4.856504649951069 l1.5779740156158013,4.856504649951073 l5.106431181261044,-6.253574601197578e-16 l-1.5779740156158013,-4.856504649951073z"/>
<path fill="#B31B1B" fill-opacity="0.9" d="m-28.315594803123158,20.572483830236564 l1.5779740156158013,-4.856504649951072 l5.106431181261037,-1.7763568394002505e-15 l-1.5779740156158013,4.856504649951072z"/>
<path fill="#B31B1B" fill-opacity="0.9" d="m-28.315594803123165,-20.572483830236557 l1.5779740156158013,4.856504649951072 l5.106431181261037,-1.7763568394002505e-15 l-1.5779740156158013,-4.856504649951072z"/>
<path fill="#B31B1B" fill-opacity="0.9" d="m-26.737620787507353,25.428988480187645 l4.13118960624632,3.0014849401916734 l-1.5779740156157978,4.8565046499510665 l-4.13118960624632,-3.0014849401916734z"/>
<path fill="#B31B1B" fill-opacity="0.9" d="m-26.73762078750736,-25.428988480187638 l4.13118960624632,-3.0014849401916734 l-1.5779740156157978,-4.856504649951074 l-4.13118960624632,3.0014849401916734z"/>
<path fill="#B31B1B" fill-opacity="0.9" d="m-26.737620787507357,15.715979180285492 l-1.5779740156158049,-4.856504649951072 l4.131189606246323,-3.0014849401916743 l1.5779740156158049,4.856504649951072z"/>
<path fill="#B31B1B" fill-opacity="0.9" d="m-26.737620787507364,-15.715979180285485 l-1.5779740156157978,4.856504649951072 l4.131189606246323,3.0014849401916726 l1.5779740156157978,-4.856504649951072z"/>
<path fill="#B31B1B" fill-opacity="0.9" d="m-32.446784409369485,7.857989590142749 l4.131189606246323,3.0014849401916717 l4.131189606246323,-3.0014849401916743 l-4.131189606246323,-3.0014849401916717z"/>
<path fill="#B31B1B" fill-opacity="0.37" d="m-26.73762078750736,3.2744141714236623e-15 l-1.5779740156158013,-4.856504649951073 l-1.5779740156157978,4.856504649951073 l1.5779740156158013,4.856504649951073z"/>
<path fill="#B31B1B" fill-opacity="0.9" d="m-32.446784409369485,-7.857989590142742 l4.131189606246323,-3.0014849401916717 l4.131189606246323,3.0014849401916726 l-4.131189606246323,3.0014849401916717z"/>
<path fill="#B31B1B" fill-opacity="0.9" d="m-28.315594803123158,20.572483830236564 l-4.131189606246327,-3.00148494019167 l1.5779740156158013,-4.856504649951074 l4.131189606246327,3.00148494019167z"/>
<path fill="#B31B1B" fill-opacity="0.37" d="m-28.31559480312316,10.85947453033442 l1.5779740156158049,4.856504649951072 l-4.131189606246327,-3.0014849401916717 l-1.5779740156158049,-4.856504649951072z"/>
<path fill="#B31B1B" fill-opacity="0.37" d="m-28.31559480312316,-10.859474530334413 l1.5779740156157978,-4.856504649951072 l-4.13118960624632,3.0014849401916717 l-1.5779740156157978,4.856504649951072z"/>
<path fill="#B31B1B" fill-opacity="0.9" d="m-28.315594803123165,-20.572483830236557 l-4.13118960624632,3.00148494019167 l1.5779740156158013,4.856504649951074 l4.13118960624632,-3.00148494019167z"/>
<path fill="#B31B1B" fill-opacity="0.9" d="m-32.446784409369485,7.857989590142749 l-1.5779740156158013,-4.856504649951072 l4.131189606246327,-3.001484940191674 l1.5779740156158013,4.856504649951072z"/>
<path fill="#B31B1B" fill-opacity="0.9" d="m-32.446784409369485,-7.857989590142742 l-1.5779740156158013,4.856504649951072 l4.131189606246327,3.001484940191673 l1.5779740156158013,-4.856504649951072z"/>
<path fill="#B31B1B" fill-opacity="0.37" d="m-34.02475842498528,12.71449424009382 l1.5779740156157942,-4.856504649951072 l1.5779740156158013,4.856504649951072 l-1.5779740156157942,4.856504649951072z"/>
<path fill="#B31B1B" fill-opacity="0.37" d="m-34.02475842498528,-12.714494240093813 l1.5779740156157942,4.856504649951072 l1.5779740156158013,-4.856504649951072 l-1.5779740156157942,-4.856504649951072z"/>
<path fill="#B31B1B" fill-opacity="0.9" d="m-38.1559480312316,4.672755962488054e-15 l4.131189606246316,-3.0014849401916743 l4.131189606246327,3.001484940191673 l-4.131189606246316,3.0014849401916743z"/>
<path fill="#B31B1B" fill-opacity="0.37" d="m-34.024758424985286,3.0014849401916774 l-4.131189606246316,-3.0014849401916726 l1.5779740156157942,4.856504649951073 l4.131189606246316,3.0014849401916726z"/>
<path fill="#B31B1B" fill-opacity="0.37" d="m-34.024758424985286,-3.0014849401916694 l-4.131189606246316,3.0014849401916743 l1.5779740156157942,-4.856504649951073 l4.131189606246316,-3.0014849401916743z"/>
<path fill="#B31B1B" fill-opacity="0.9" d="m-32.446784409369485,17.570998890044894 l-1.5779740156157942,-4.856504649951074 l-5.106431181261044,1.7763568394002505e-15 l1.5779740156157942,4.856504649951074z"/>
<path fill="#B31B1B" fill-opacity="0.9" d="m-32.446784409369485,7.857989590142749 l-5.106431181261044,8.881784197001252e-16 l-1.5779740156157942,4.856504649951073 l5.106431181261044,-8.881784197001252e-16z"/>
<path fill="#B31B1B" fill-opacity="0.9" d="m-32.446784409369485,-7.857989590142742 l-5.106431181261044,8.881784197001252e-16 l-1.5779740156157942,-4.856504649951071 l5.106431181261044,-8.881784197001252e-16z"/>
<path fill="#B31B1B" fill-opacity="0.9" d="m-32.446784409369485,-17.570998890044887 l-1.5779740156157942,4.856504649951074 l-5.106431181261044,1.7763568394002505e-15 l1.5779740156157942,-4.856504649951074z"/>
<path fill="#B31B1B" fill-opacity="0.37" d="m-37.55321559063053,7.85798959014275 l5.106431181261044,-8.881784197001252e-16 l-4.131189606246323,-3.0014849401916717 l-5.106431181261044,8.881784197001252e-16z"/>
<path fill="#B31B1B" fill-opacity="0.37" d="m-37.55321559063053,-7.857989590142741 l5.106431181261044,-8.881784197001252e-16 l-4.131189606246323,3.0014849401916734 l-5.106431181261044,8.881784197001252e-16z"/>
<path fill="#B31B1B" fill-opacity="0.9" d="m-43.26237921249265,5.2981134226078114e-15 l5.106431181261044,-6.253574601197578e-16 l1.5779740156157942,4.856504649951073 l-5.106431181261044,6.253574601197578e-16z"/>
<path fill="#B31B1B" fill-opacity="0.9" d="m-43.26237921249265,5.2981134226078114e-15 l5.106431181261044,-6.253574601197578e-16 l1.5779740156157942,-4.856504649951073 l-5.106431181261044,6.253574601197578e-16z"/>
<path fill="#B31B1B" fill-opacity="0.9" d="m-41.684405196876845,4.856504649951077 l4.131189606246316,3.0014849401916726 l-1.5779740156157942,4.856504649951073 l-4.131189606246316,-3.0014849401916726z"/>
<path fill="#B31B1B" fill-opacity="0.9" d="m-41.684405196876845,-4.8565046499510665 l4.131189606246316,-3.0014849401916743 l-1.5779740156157942,-4.856504649951071 l-4.131189606246316,3.0014849401916743z"/>
<path fill="#B31B1B" fill-opacity="0.37" d="m-43.26237921249265,9.713009299902149 l1.5779740156158013,-4.856504649951072 l-4.131189606246316,3.0014849401916734 l-1.5779740156158013,4.856504649951072z"/>
<path fill="#B31B1B" fill-opacity="0.9" d="m-43.26237921249265,5.2981134226078114e-15 l-4.131189606246309,3.001484940191673 l1.5779740156157942,4.856504649951072 l4.131189606246309,-3.001484940191673z"/>
<path fill="#B31B1B" fill-opacity="0.9" d="m-43.26237921249265,5.2981134226078114e-15 l-4.131189606246309,-3.001484940191672 l1.5779740156157942,-4.856504649951074 l4.131189606246309,3.001484940191672z"/>
<path fill="#B31B1B" fill-opacity="0.37" d="m-43.26237921249265,-9.713009299902138 l1.5779740156158013,4.856504649951072 l-4.131189606246316,-3.0014849401916734 l-1.5779740156158013,-4.856504649951072z"/>
<path fill="#B31B1B" fill-opacity="0.37" d="m-47.393568818738956,3.0014849401916783 l-5.106431181261044,4.440892098500626e-16 l4.131189606246316,-3.001484940191673 l5.106431181261044,-4.440892098500626e-16z"/>
<path fill="#B31B1B" fill-opacity="0.37" d="m-47.393568818738956,-3.001484940191667 l-5.106431181261044,4.440892098500626e-16 l4.131189606246316,3.001484940191672 l5.106431181261044,-4.440892098500626e-16z"/>
<path fill="#B31B1B" fill-opacity="0.9" d="m-52.5,3.0014849401916788 l5.106431181261044,-4.440892098500626e-16 l1.5779740156157942,4.856504649951072 l-5.106431181261044,4.440892098500626e-16z"/>
<path fill="#B31B1B" fill-opacity="0.9" d="m-52.5,-3.0014849401916663 l5.106431181261044,-4.440892098500626e-16 l1.5779740156157942,-4.856504649951074 l-5.106431181261044,4.440892098500626e-16z"/>
<path fill="#B31B1B" fill-opacity="0.9" d="m-56.63118960624632,6.935320508319642e-15 l4.131189606246323,-3.0014849401916734 l4.131189606246316,3.001484940191672 l-4.131189606246323,3.0014849401916734z"/>
</g>
</svg>