<?xml version="1.0" encoding="utf-8"?>
<svg width="100%" height="100%" viewBox="-70.0 -70.0 140.0 140.0" preserveAspectRatio="xMidYMid meet" version="1.1" baseProfile="full" xmlns="http://www.w3.org/2000/svg">
<g style="stroke:#FFFFFF; stroke-width: 1.2978713763747793; stroke-linejoin: round;">
<path fill="#B31B1B" fill-opacity="0.37" d="m12.714494240093819,-39.13118960624632 l-3.552713678800501e-15,21.631189606246327 l-12.71449424009381,-17.500000000000004 l3.552713678800501e-15,-21.631189606246327z"/>
<path fill="#B31B1B" fill-opacity="0.37" d="m-12.714494240093822,-39.13118960624632 l3.552713678800501e-15,21.631189606246327 l12.71449424009381,-17.500000000000004 l-3.552713678800501e-15,-21.631189606246327z"/>
<path fill="#B31B1B" fill-opacity="0.9" d="m12.71449424009381,-17.499999999999996 l20.572483830236568,-6.684405196876845 l-7.105427357601002e-15,-21.63118960624632 l-20.572483830236568,6.684405196876845z"/>
<path fill="#B31B1B" fill-opacity="0.9" d="m-12.714494240093813,-17.499999999999996 l-20.572483830236564,-6.684405196876838 l7.105427357601002e-15,-21.631189606246327 l20.572483830236564,6.684405196876838z"/>
<path fill="#B31B1B" fill-opacity="0.9" d="m12.714494240093815,-17.499999999999996 l3.552713678800501e-15,-21.631189606246327 l20.572483830236564,-6.684405196876831 l-3.552713678800501e-15,21.631189606246327z"/>
<path fill="#B31B1B" fill-opacity="0.9" d="m-12.714494240093819,-17.499999999999996 l-3.552713678800501e-15,-21.631189606246327 l-20.572483830236564,-6.684405196876831 l3.552713678800501e-15,21.631189606246327z"/>
<path fill="#B31B1B" fill-opacity="0.37" d="m33.28697807033038,-24.184405196876842 l-20.572483830236568,6.684405196876845 l20.572483830236568,6.684405196876833 l20.572483830236568,-6.684405196876845z"/>
<path fill="#B31B1B" fill-opacity="0.9" d="m0.0,0.0 l12.714494240093815,-17.499999999999996 l-12.71449424009381,-17.500000000000004 l-12.714494240093815,17.499999999999996z"/>
<path fill="#B31B1B" fill-opacity="0.9" d="m0.0,0.0 l-12.714494240093819,-17.499999999999996 l12.71449424009381,-17.500000000000004 l12.714494240093819,17.499999999999996z"/>
<path fill="#B31B1B" fill-opacity="0.37" d="m-33.28697807033038,-24.184405196876835 l20.572483830236564,6.684405196876838 l-20.572483830236564,6.6844051968768365 l-20.572483830236564,-6.684405196876838z"/>
<path fill="#B31B1B" fill-opacity="0.9" d="m0.0,0.0 l12.71449424009381,-17.499999999999996 l20.572483830236568,6.684405196876833 l-12.71449424009381,17.499999999999996z"/>
<path fill="#B31B1B" fill-opacity="0.9" d="m0.0,0.0 l-12.714494240093813,-17.499999999999996 l-20.572483830236564,6.6844051968768365 l12.714494240093813,17.499999999999996z"/>
<path fill="#B31B1B" fill-opacity="0.9" d="m0.0,0.0 l20.572483830236557,6.68440519687684 l12.71449424009382,-17.5 l-20.572483830236557,-6.68440519687684z"/>
<path fill="#B31B1B" fill-opacity="0.9" d="m0.0,0.0 l-20.572483830236557,6.684405196876842 l-12.71449424009382,-17.499999999999996 l20.572483830236557,-6.684405196876842z"/>
<path fill="#B31B1B" fill-opacity="0.37" d="m41.14496766047312,1.4513261177938737e-16 l-20.572483830236564,6.68440519687684 l12.71449424009382,-17.5 l20.572483830236564,-6.68440519687684z"/>
<path fill="#B31B1B" fill-opacity="0.37" d="m-41.14496766047312,5.183937906421364e-15 l20.572483830236564,6.6844051968768365 l-12.71449424009382,-17.499999999999996 l-20.572483830236564,-6.6844051968768365z"/>
<path fill="#B31B1B" fill-opacity="0.9" d="m20.57248383023656,6.684405196876834 l12.714494240093824,17.499999999999996 l20.572483830236557,-6.684405196876845 l-12.714494240093824,-17.499999999999996z"/>
<path fill="#B31B1B" fill-opacity="0.9" d="m-20.57248383023656,6.684405196876836 l-12.714494240093824,17.500000000000004 l-20.572483830236557,-6.684405196876845 l12.714494240093824,-17.500000000000004z"/>
<path fill="#B31B1B" fill-opacity="0.9" d="m20.572483830236557,6.68440519687684 l20.572483830236564,-6.68440519687684 l12.714494240093813,17.5 l-20.572483830236564,6.68440519687684z"/>
<path fill="#B31B1B" fill-opacity="0.9" d="m-20.572483830236557,6.684405196876842 l-20.572483830236564,-6.6844051968768365 l-12.714494240093813,17.500000000000004 l20.572483830236564,6.6844051968768365z"/>
<path fill="#B31B1B" fill-opacity="0.9" d="m0.0,0.0 l20.57248383023656,6.684405196876834 l7.105427357601002e-15,21.63118960624632 l-20.57248383023656,-6.684405196876834z"/>
<path fill="#B31B1B" fill-opacity="0.9" d="m0.0,0.0 l-20.57248383023656,6.684405196876836 l-7.105427357601002e-15,21.63118960624632 l20.57248383023656,-6.684405196876836z"/>
<path fill="#B31B1B" fill-opacity="0.9" d="m0.0,0.0 l1.3245283556519523e-15,21.631189606246316 l20.57248383023656,6.684405196876845 l-1.3245283556519523e-15,-21.631189606246316z"/>
<path fill="#B31B1B" fill-opacity="0.9" d="m0.0,0.0 l1.3245283556519523e-15,21.631189606246316 l-20.57248383023656,6.684405196876845 l-1.3245283556519523e-15,-21.631189606246316z"/>
<path fill="#B31B1B" fill-opacity="0.37" d="m33.286978070330385,24.18440519687683 l-12.714494240093824,-17.499999999999996 l7.105427357601002e-15,21.63118960624632 l12.714494240093824,17.499999999999996z"/>
<path fill="#B31B1B" fill-opacity="0.37" d="m-33.286978070330385,24.18440519687684 l12.714494240093824,-17.500000000000004 l-7.105427357601002e-15,21.63118960624632 l-12.714494240093824,17.500000000000004z"/>
<path fill="#B31B1B" fill-opacity="0.37" d="m12.714494240093819,39.13118960624632 l-12.714494240093817,-17.500000000000007 l20.57248383023656,6.684405196876845 l12.714494240093817,17.500000000000007z"/>
<path fill="#B31B1B" fill-opacity="0.37" d="m-12.714494240093815,39.13118960624632 l12.714494240093817,-17.500000000000007 l-20.57248383023656,6.684405196876845 l-12.714494240093817,17.500000000000007z"/>
<path fill="#B31B1B" fill-opacity="0.9" d="m1.3245283556519523e-15,21.631189606246316 l-12.714494240093817,17.500000000000007 l12.714494240093819,17.5 l12.714494240093817,-17.500000000000007z"/>
</g>
</svg>