<?xml version="1.0" encoding="utf-8"?>
<svg width="100%" height="100%" viewBox="-70.0 -70.0 140.0 140.0" preserveAspectRatio="xMidYMid meet" version="1.1" baseProfile="full" xmlns="http://www.w3.org/2000/svg">
<g style="stroke:#FFFFFF; stroke-width: 0.802128623625221; stroke-linejoin: round;">
<path fill="#B31B1B" fill-opacity="0.9" d="m33.286978070330385,-45.815594803123155 l-7.857989590142747,10.815594803123162 l-12.714494240093819,-4.1311896062463305 l7.857989590142747,-10.815594803123162z"/>
<path fill="#B31B1B" fill-opacity="0.9" d="m-33.286978070330385,-45.815594803123155 l7.85798959014274,10.815594803123162 l12.714494240093822,-4.1311896062463305 l-7.85798959014274,-10.815594803123162z"/>
<path fill="#B31B1B" fill-opacity="0.9" d="m33.28697807033037,-45.81559480312316 l-7.857989590142747,10.815594803123162 l7.857989590142754,10.815594803123158 l7.857989590142747,-10.815594803123162z"/>
<path fill="#B31B1B" fill-opacity="0.37" d="m12.714494240093819,-30.868810393753684 l12.714494240093819,-4.131189606246309 l-12.714494240093819,-4.1311896062463305 l-12.714494240093819,4.131189606246309z"/>
<path fill="#B31B1B" fill-opacity="0.37" d="m-12.714494240093822,-30.868810393753684 l-12.714494240093822,-4.131189606246309 l12.714494240093822,-4.1311896062463305 l12.714494240093822,4.131189606246309z"/>
<path fill="#B31B1B" fill-opacity="0.9" d="m-33.28697807033037,-45.81559480312316 l7.85798959014274,10.815594803123162 l-7.857989590142747,10.815594803123165 l-7.85798959014274,-10.815594803123162z"/>
<path fill="#B31B1B" fill-opacity="0.9" d="m25.428988480187623,-35.0 l1.0658141036401503e-14,13.368810393753684 l-12.714494240093824,4.13118960624632 l-1.0658141036401503e-14,-13.368810393753684z"/>
<path fill="#B31B1B" fill-opacity="0.9" d="m4.962295459093134e-15,-35.0 l12.714494240093813,4.131189606246316 l-3.552713678800501e-15,13.368810393753687 l-12.714494240093813,-4.131189606246316z"/>
<path fill="#B31B1B" fill-opacity="0.9" d="m-9.24855925610887e-15,-35.0 l-12.714494240093813,4.131189606246316 l3.552713678800501e-15,13.368810393753687 l12.714494240093813,-4.131189606246316z"/>
<path fill="#B31B1B" fill-opacity="0.9" d="m-25.42898848018763,-35.0 l-3.552713678800501e-15,13.368810393753684 l12.71449424009382,4.13118960624632 l3.552713678800501e-15,-13.368810393753684z"/>
<path fill="#B31B1B" fill-opacity="0.9" d="m25.428988480187638,-34.99999999999999 l-12.714494240093819,4.131189606246309 l-3.552713678800501e-15,13.368810393753687 l12.714494240093819,-4.131189606246309z"/>
<path fill="#B31B1B" fill-opacity="0.9" d="m-25.428988480187645,-34.99999999999999 l12.714494240093822,4.131189606246309 l3.552713678800501e-15,13.368810393753687 l-12.714494240093822,-4.131189606246309z"/>
<path fill="#B31B1B" fill-opacity="0.37" d="m25.428988480187634,-21.631189606246316 l-1.0658141036401503e-14,-13.368810393753684 l7.857989590142754,10.815594803123158 l1.0658141036401503e-14,13.368810393753684z"/>
<path fill="#B31B1B" fill-opacity="0.37" d="m-25.428988480187634,-21.631189606246316 l3.552713678800501e-15,-13.368810393753684 l-7.857989590142747,10.815594803123165 l-3.552713678800501e-15,13.368810393753684z"/>
<path fill="#B31B1B" fill-opacity="0.9" d="m33.28697807033038,-10.815594803123163 l-7.8579895901427435,-10.815594803123153 l-12.714494240093824,4.13118960624632 l7.8579895901427435,10.815594803123153z"/>
<path fill="#B31B1B" fill-opacity="0.9" d="m-33.28697807033038,-10.81559480312316 l7.8579895901427435,-10.815594803123156 l12.71449424009382,4.13118960624632 l-7.8579895901427435,10.815594803123156z"/>
<path fill="#B31B1B" fill-opacity="0.37" d="m7.857989590142744,-10.815594803123158 l-7.857989590142742,-10.815594803123165 l12.714494240093812,4.131189606246327 l7.857989590142742,10.815594803123165z"/>
<path fill="#B31B1B" fill-opacity="0.37" d="m7.857989590142742,-10.815594803123158 l12.714494240093822,4.131189606246315 l-7.857989590142754,-10.815594803123155 l-12.714494240093822,-4.131189606246315z"/>
<path fill="#B31B1B" fill-opacity="0.37" d="m-7.8579895901427435,-10.815594803123158 l-12.71449424009382,4.131189606246317 l7.857989590142751,-10.815594803123155 l12.71449424009382,-4.131189606246317z"/>
<path fill="#B31B1B" fill-opacity="0.37" d="m-7.857989590142746,-10.815594803123158 l7.857989590142741,-10.815594803123165 l-12.714494240093813,4.131189606246327 l-7.857989590142741,10.815594803123165z"/>
<path fill="#B31B1B" fill-opacity="0.9" d="m3.06686725593882e-15,-21.631189606246323 l7.857989590142742,10.815594803123165 l-7.857989590142744,10.815594803123158 l-7.857989590142742,-10.815594803123165z"/>
<path fill="#B31B1B" fill-opacity="0.9" d="m-5.715923967242726e-15,-21.631189606246323 l-7.857989590142741,10.815594803123165 l7.857989590142746,10.815594803123158 l7.857989590142741,-10.815594803123165z"/>
<path fill="#B31B1B" fill-opacity="0.9" d="m20.572483830236564,-6.684405196876843 l-12.714494240093822,-4.131189606246315 l-7.857989590142742,10.815594803123158 l12.714494240093822,4.131189606246315z"/>
<path fill="#B31B1B" fill-opacity="0.9" d="m-20.572483830236564,-6.684405196876841 l12.71449424009382,-4.131189606246317 l7.8579895901427435,10.815594803123158 l-12.71449424009382,4.131189606246317z"/>
<path fill="#B31B1B" fill-opacity="0.9" d="m20.572483830236564,-6.684405196876839 l-7.857989590142749,10.815594803123158 l-12.714494240093815,-4.13118960624632 l7.857989590142749,-10.815594803123158z"/>
<path fill="#B31B1B" fill-opacity="0.9" d="m-20.572483830236564,-6.684405196876837 l7.857989590142749,10.815594803123158 l12.714494240093815,-4.131189606246322 l-7.857989590142749,-10.815594803123158z"/>
<path fill="#B31B1B" fill-opacity="0.9" d="m33.28697807033038,-10.815594803123158 l0.0,13.368810393753678 l-12.71449424009382,4.13118960624632 l-0.0,-13.368810393753678z"/>
<path fill="#B31B1B" fill-opacity="0.9" d="m-33.28697807033038,-10.815594803123155 l0.0,13.368810393753678 l12.71449424009382,4.131189606246318 l-0.0,-13.368810393753678z"/>
<path fill="#B31B1B" fill-opacity="0.37" d="m33.28697807033038,2.55321559063052 l7.8579895901427435,10.815594803123162 l0.0,-13.368810393753682 l-7.8579895901427435,-10.815594803123162z"/>
<path fill="#B31B1B" fill-opacity="0.37" d="m-33.28697807033038,2.5532155906305243 l-7.8579895901427435,10.815594803123162 l0.0,-13.36881039375368 l7.8579895901427435,-10.815594803123162z"/>
<path fill="#B31B1B" fill-opacity="0.37" d="m12.714494240093817,4.131189606246316 l7.105427357601002e-15,13.368810393753684 l7.857989590142736,-10.815594803123165 l-7.105427357601002e-15,-13.368810393753684z"/>
<path fill="#B31B1B" fill-opacity="0.37" d="m-12.714494240093817,4.131189606246318 l-3.552713678800501e-15,13.368810393753682 l-7.85798959014274,-10.815594803123165 l3.552713678800501e-15,-13.368810393753682z"/>
<path fill="#B31B1B" fill-opacity="0.37" d="m12.714494240093815,4.13118960624632 l7.857989590142749,-10.815594803123158 l-7.105427357601002e-15,13.36881039375368 l-7.857989590142749,10.815594803123158z"/>
<path fill="#B31B1B" fill-opacity="0.37" d="m-12.714494240093815,4.131189606246322 l-7.857989590142749,-10.815594803123158 l7.105427357601002e-15,13.36881039375368 l7.857989590142749,10.815594803123158z"/>
<path fill="#B31B1B" fill-opacity="0.9" d="m12.714494240093824,17.5 l-7.105427357601002e-15,-13.368810393753684 l-12.714494240093817,-4.131189606246316 l7.105427357601002e-15,13.368810393753684z"/>
<path fill="#B31B1B" fill-opacity="0.9" d="m-12.71449424009382,17.5 l3.552713678800501e-15,-13.368810393753682 l12.714494240093817,-4.131189606246318 l-3.552713678800501e-15,13.368810393753682z"/>
<path fill="#B31B1B" fill-opacity="0.9" d="m12.714494240093819,17.500000000000004 l-12.714494240093819,-4.131189606246323 l-8.186035428559156e-16,-13.36881039375368 l12.714494240093819,4.131189606246323z"/>
<path fill="#B31B1B" fill-opacity="0.9" d="m-12.714494240093815,17.500000000000004 l12.714494240093815,-4.131189606246323 l-8.186035428559156e-16,-13.36881039375368 l-12.714494240093815,4.131189606246323z"/>
<path fill="#B31B1B" fill-opacity="0.9" d="m53.859461900566934,17.5 l-12.714494240093813,-4.131189606246318 l0.0,-13.368810393753682 l12.714494240093813,4.131189606246318z"/>
<path fill="#B31B1B" fill-opacity="0.9" d="m-53.859461900566934,17.500000000000007 l12.714494240093813,-4.131189606246322 l0.0,-13.36881039375368 l-12.714494240093813,4.131189606246322z"/>
<path fill="#B31B1B" fill-opacity="0.9" d="m41.14496766047313,13.368810393753671 l-12.714494240093817,4.131189606246325 l-7.857989590142751,-10.815594803123162 l12.714494240093817,-4.131189606246325z"/>
<path fill="#B31B1B" fill-opacity="0.9" d="m-41.14496766047313,13.368810393753675 l12.714494240093817,4.131189606246322 l7.857989590142751,-10.815594803123162 l-12.714494240093817,-4.131189606246322z"/>
<path fill="#B31B1B" fill-opacity="0.9" d="m41.14496766047312,13.368810393753682 l-7.8579895901427435,-10.815594803123162 l-12.71449424009382,4.13118960624632 l7.8579895901427435,10.815594803123162z"/>
<path fill="#B31B1B" fill-opacity="0.9" d="m-41.14496766047312,13.368810393753686 l7.8579895901427435,-10.815594803123162 l12.71449424009382,4.131189606246318 l-7.8579895901427435,10.815594803123162z"/>
<path fill="#B31B1B" fill-opacity="0.9" d="m20.572483830236568,28.315594803123155 l7.8579895901427435,-10.815594803123158 l-7.857989590142751,-10.815594803123162 l-7.8579895901427435,10.815594803123158z"/>
<path fill="#B31B1B" fill-opacity="0.9" d="m-20.572483830236568,28.315594803123155 l-7.8579895901427435,-10.815594803123158 l7.857989590142751,-10.815594803123162 l7.8579895901427435,10.815594803123158z"/>
<path fill="#B31B1B" fill-opacity="0.37" d="m8.186035428559156e-16,13.36881039375368 l-12.714494240093815,4.131189606246323 l12.714494240093817,4.131189606246313 l12.714494240093815,-4.131189606246323z"/>
<path fill="#B31B1B" fill-opacity="0.9" d="m53.85946190056694,17.499999999999986 l-12.714494240093813,-4.1311896062463145 l-7.8579895901427435,10.81559480312316 l12.714494240093813,4.1311896062463145z"/>
<path fill="#B31B1B" fill-opacity="0.9" d="m-53.85946190056694,17.499999999999993 l12.714494240093813,-4.131189606246318 l7.8579895901427435,10.815594803123163 l-12.714494240093813,4.131189606246318z"/>
<path fill="#B31B1B" fill-opacity="0.37" d="m28.43047342037931,17.499999999999996 l12.714494240093817,-4.131189606246325 l-7.8579895901427435,10.81559480312316 l-12.714494240093817,4.131189606246325z"/>
<path fill="#B31B1B" fill-opacity="0.37" d="m-28.43047342037931,17.499999999999996 l-12.714494240093817,-4.131189606246322 l7.8579895901427435,10.815594803123163 l12.714494240093817,4.131189606246322z"/>
<path fill="#B31B1B" fill-opacity="0.9" d="m20.57248383023656,28.31559480312316 l-12.714494240093813,4.131189606246323 l-7.857989590142746,-10.815594803123169 l12.714494240093813,-4.131189606246323z"/>
<path fill="#B31B1B" fill-opacity="0.9" d="m-20.57248383023656,28.31559480312316 l12.714494240093817,4.131189606246323 l7.857989590142744,-10.815594803123169 l-12.714494240093817,-4.131189606246323z"/>
<path fill="#B31B1B" fill-opacity="0.9" d="m2.6490567113039057e-15,43.26237921249265 l-7.857989590142746,-10.815594803123162 l7.857989590142744,-10.815594803123169 l7.857989590142746,10.815594803123162z"/>
<path fill="#B31B1B" fill-opacity="0.37" d="m7.857989590142747,32.446784409369485 l-7.857989590142744,10.815594803123162 l12.714494240093817,-4.131189606246323 l7.857989590142744,-10.815594803123162z"/>
<path fill="#B31B1B" fill-opacity="0.37" d="m-7.8579895901427435,32.446784409369485 l7.857989590142746,10.815594803123162 l-12.714494240093817,-4.131189606246323 l-7.857989590142746,-10.815594803123162z"/>
<path fill="#B31B1B" fill-opacity="0.9" d="m3.467660254159821e-15,56.63118960624632 l-8.186035428559152e-16,-13.368810393753677 l12.714494240093817,-4.131189606246323 l8.186035428559152e-16,13.368810393753677z"/>
<path fill="#B31B1B" fill-opacity="0.9" d="m3.467660254159821e-15,56.63118960624632 l-8.186035428559152e-16,-13.368810393753677 l-12.714494240093817,-4.131189606246323 l8.186035428559152e-16,13.368810393753677z"/>
</g>
</svg>