<?xml version="1.0" encoding="utf-8"?>
<svg width="100%" height="100%" viewBox="-70.0 -70.0 140.0 140.0" preserveAspectRatio="xMidYMid meet" version="1.1" baseProfile="full" xmlns="http://www.w3.org/2000/svg">
<g style="stroke:#FFFFFF; stroke-width: 0.4957427527495585; stroke-linejoin: round;">
<path fill="#B31B1B" fill-opacity="0.9" d="m20.57248383023656,-41.68440519687684 l7.857989590142751,2.553215590630529 l4.856504649951074,-6.684405196876845 l-7.857989590142751,-2.553215590630529z"/>
<path fill="#B31B1B" fill-opacity="0.9" d="m-20.572483830236568,-41.68440519687684 l-7.857989590142751,2.553215590630529 l-4.8565046499510665,-6.684405196876845 l7.857989590142751,-2.553215590630529z"/>
<path fill="#B31B1B" fill-opacity="0.9" d="m33.28697807033038,-32.44678440936948 l-4.856504649951081,-6.684405196876845 l4.856504649951074,-6.684405196876838 l4.856504649951081,6.684405196876845z"/>
<path fill="#B31B1B" fill-opacity="0.9" d="m-33.28697807033038,-32.44678440936948 l4.856504649951074,-6.684405196876845 l-4.8565046499510665,-6.684405196876838 l-4.856504649951074,6.684405196876845z"/>
<path fill="#B31B1B" fill-opacity="0.37" d="m28.430473420379297,-39.13118960624632 l4.856504649951081,6.684405196876845 l-7.857989590142754,-2.553215590630522 l-4.856504649951081,-6.684405196876845z"/>
<path fill="#B31B1B" fill-opacity="0.9" d="m12.714494240093819,-39.13118960624632 l4.856504649951072,6.684405196876845 l7.857989590142747,-2.553215590630515 l-4.856504649951072,-6.684405196876845z"/>
<path fill="#B31B1B" fill-opacity="0.9" d="m12.714494240093819,-39.13118960624632 l-4.85650464995107,6.684405196876845 l-7.8579895901427435,-2.553215590630522 l4.85650464995107,-6.684405196876845z"/>
<path fill="#B31B1B" fill-opacity="0.9" d="m-12.714494240093822,-39.13118960624632 l4.85650464995107,6.684405196876845 l7.8579895901427435,-2.553215590630522 l-4.85650464995107,-6.684405196876845z"/>
<path fill="#B31B1B" fill-opacity="0.9" d="m-12.714494240093822,-39.13118960624632 l-4.856504649951075,6.684405196876845 l-7.857989590142747,-2.553215590630515 l4.856504649951075,-6.684405196876845z"/>
<path fill="#B31B1B" fill-opacity="0.37" d="m-28.430473420379304,-39.13118960624632 l-4.856504649951074,6.684405196876845 l7.857989590142747,-2.553215590630522 l4.856504649951074,-6.684405196876845z"/>
<path fill="#B31B1B" fill-opacity="0.37" d="m28.43047342037931,-39.13118960624631 l-7.857989590142751,-2.553215590630529 l4.856504649951077,6.684405196876845 l7.857989590142751,2.553215590630529z"/>
<path fill="#B31B1B" fill-opacity="0.37" d="m-28.430473420379318,-39.13118960624631 l7.857989590142751,-2.553215590630529 l-4.856504649951077,6.684405196876845 l-7.857989590142751,2.553215590630529z"/>
<path fill="#B31B1B" fill-opacity="0.37" d="m17.57099889004489,-32.44678440936948 l0.0,8.262379212492647 l-4.856504649951072,-6.6844051968768525 l-0.0,-8.262379212492647z"/>
<path fill="#B31B1B" fill-opacity="0.37" d="m7.857989590142749,-32.44678440936948 l4.85650464995107,-6.684405196876845 l0.0,8.26237921249264 l-4.85650464995107,6.684405196876845z"/>
<path fill="#B31B1B" fill-opacity="0.37" d="m-7.857989590142752,-32.44678440936948 l-4.85650464995107,-6.684405196876845 l0.0,8.26237921249264 l4.85650464995107,6.684405196876845z"/>
<path fill="#B31B1B" fill-opacity="0.37" d="m-17.570998890044898,-32.44678440936948 l7.105427357601002e-15,8.262379212492647 l4.856504649951068,-6.6844051968768525 l-7.105427357601002e-15,-8.262379212492647z"/>
<path fill="#B31B1B" fill-opacity="0.9" d="m33.28697807033038,-24.184405196876842 l-7.857989590142747,-2.5532155906305185 l-7.105427357601002e-15,-8.26237921249264 l7.857989590142747,2.5532155906305185z"/>
<path fill="#B31B1B" fill-opacity="0.9" d="m17.570998890044883,-24.18440519687684 l7.857989590142747,-2.553215590630522 l-7.105427357601002e-15,-8.26237921249264 l-7.857989590142747,2.553215590630522z"/>
<path fill="#B31B1B" fill-opacity="0.9" d="m7.857989590142746,-24.18440519687684 l2.6645352591003757e-15,-8.26237921249264 l-7.8579895901427435,-2.553215590630522 l-2.6645352591003757e-15,8.26237921249264z"/>
<path fill="#B31B1B" fill-opacity="0.9" d="m-7.85798959014275,-24.18440519687684 l-2.6645352591003757e-15,-8.26237921249264 l7.8579895901427435,-2.553215590630522 l2.6645352591003757e-15,8.26237921249264z"/>
<path fill="#B31B1B" fill-opacity="0.9" d="m-17.570998890044883,-24.18440519687684 l-7.857989590142747,-2.553215590630522 l0.0,-8.26237921249264 l7.857989590142747,2.553215590630522z"/>
<path fill="#B31B1B" fill-opacity="0.9" d="m-33.28697807033038,-24.184405196876835 l7.857989590142747,-2.5532155906305256 l0.0,-8.26237921249264 l-7.857989590142747,2.5532155906305256z"/>
<path fill="#B31B1B" fill-opacity="0.9" d="m17.57099889004489,-24.18440519687683 l0.0,-8.262379212492647 l7.857989590142747,-2.553215590630515 l-0.0,8.262379212492647z"/>
<path fill="#B31B1B" fill-opacity="0.9" d="m-17.57099889004489,-24.18440519687683 l-7.105427357601002e-15,-8.262379212492647 l-7.857989590142747,-2.553215590630515 l7.105427357601002e-15,8.262379212492647z"/>
<path fill="#B31B1B" fill-opacity="0.37" d="m3.790856406308627e-15,-26.73762078750736 l7.857989590142743,2.553215590630522 l-7.8579895901427435,2.553215590630515 l-7.857989590142743,-2.553215590630522z"/>
<path fill="#B31B1B" fill-opacity="0.37" d="m-7.0652705777322896e-15,-26.73762078750736 l-7.857989590142743,2.553215590630522 l7.857989590142744,2.553215590630515 l7.857989590142743,-2.553215590630522z"/>
<path fill="#B31B1B" fill-opacity="0.37" d="m25.42898848018763,-26.73762078750736 l-7.857989590142747,2.553215590630522 l7.857989590142751,2.553215590630522 l7.857989590142747,-2.553215590630522z"/>
<path fill="#B31B1B" fill-opacity="0.9" d="m12.714494240093815,-17.499999999999996 l4.856504649951075,-6.684405196876835 l-4.856504649951072,-6.6844051968768525 l-4.856504649951075,6.684405196876835z"/>
<path fill="#B31B1B" fill-opacity="0.9" d="m-12.714494240093819,-17.499999999999996 l-4.856504649951072,-6.684405196876835 l4.856504649951068,-6.6844051968768525 l4.856504649951072,6.684405196876835z"/>
<path fill="#B31B1B" fill-opacity="0.37" d="m-25.42898848018763,-26.73762078750736 l7.857989590142747,2.553215590630522 l-7.857989590142751,2.553215590630522 l-7.857989590142747,-2.553215590630522z"/>
<path fill="#B31B1B" fill-opacity="0.9" d="m12.714494240093815,-17.499999999999996 l-7.857989590142742,2.5532155906305167 l-4.856504649951071,-6.684405196876844 l7.857989590142742,-2.5532155906305167z"/>
<path fill="#B31B1B" fill-opacity="0.9" d="m-12.714494240093819,-17.499999999999996 l7.8579895901427435,2.5532155906305167 l4.85650464995107,-6.684405196876844 l-7.8579895901427435,-2.5532155906305167z"/>
<path fill="#B31B1B" fill-opacity="0.37" d="m28.430473420379307,-17.5 l4.85650464995107,-6.684405196876842 l-7.8579895901427435,2.5532155906305256 l-4.85650464995107,6.684405196876842z"/>
<path fill="#B31B1B" fill-opacity="0.37" d="m-28.430473420379307,-17.5 l-4.85650464995107,-6.684405196876835 l7.8579895901427435,2.5532155906305185 l4.85650464995107,6.684405196876835z"/>
<path fill="#B31B1B" fill-opacity="0.9" d="m12.71449424009381,-17.499999999999996 l4.856504649951074,-6.684405196876842 l7.857989590142751,2.553215590630522 l-4.856504649951074,6.684405196876842z"/>
<path fill="#B31B1B" fill-opacity="0.9" d="m-12.714494240093813,-17.499999999999996 l-4.85650464995107,-6.684405196876842 l-7.857989590142751,2.553215590630522 l4.85650464995107,6.684405196876842z"/>
<path fill="#B31B1B" fill-opacity="0.9" d="m33.28697807033038,-24.184405196876842 l-4.85650464995107,6.684405196876842 l4.85650464995107,6.6844051968768365 l4.85650464995107,-6.684405196876842z"/>
<path fill="#B31B1B" fill-opacity="0.9" d="m-33.28697807033038,-24.184405196876835 l4.85650464995107,6.684405196876835 l-4.85650464995107,6.68440519687684 l-4.85650464995107,-6.684405196876835z"/>
<path fill="#B31B1B" fill-opacity="0.9" d="m1.1714390527845064e-15,-8.26237921249264 l4.856504649951073,-6.68440519687684 l-4.856504649951071,-6.684405196876844 l-4.856504649951073,6.68440519687684z"/>
<path fill="#B31B1B" fill-opacity="0.9" d="m-2.1832886783765805e-15,-8.26237921249264 l-4.856504649951074,-6.68440519687684 l4.85650464995107,-6.684405196876844 l4.856504649951074,6.68440519687684z"/>
<path fill="#B31B1B" fill-opacity="0.9" d="m20.572483830236557,-14.94678440936948 l7.857989590142751,-2.5532155906305203 l4.85650464995107,6.6844051968768365 l-7.857989590142751,2.5532155906305203z"/>
<path fill="#B31B1B" fill-opacity="0.37" d="m4.856504649951074,-14.94678440936948 l-4.856504649951073,6.68440519687684 l7.8579895901427435,-2.5532155906305185 l4.856504649951073,-6.68440519687684z"/>
<path fill="#B31B1B" fill-opacity="0.37" d="m-4.856504649951075,-14.94678440936948 l4.856504649951074,6.68440519687684 l-7.857989590142744,-2.5532155906305185 l-4.856504649951074,-6.68440519687684z"/>
<path fill="#B31B1B" fill-opacity="0.9" d="m-20.572483830236557,-14.946784409369476 l-7.857989590142751,-2.553215590630524 l-4.85650464995107,6.68440519687684 l7.857989590142751,2.553215590630524z"/>
<path fill="#B31B1B" fill-opacity="0.9" d="m12.71449424009381,-17.499999999999996 l5.329070518200751e-15,8.262379212492636 l7.857989590142749,2.5532155906305176 l-5.329070518200751e-15,-8.262379212492636z"/>
<path fill="#B31B1B" fill-opacity="0.9" d="m-12.714494240093813,-17.499999999999996 l-1.7763568394002505e-15,8.262379212492636 l-7.857989590142749,2.5532155906305194 l1.7763568394002505e-15,-8.262379212492636z"/>
<path fill="#B31B1B" fill-opacity="0.37" d="m12.714494240093815,-9.23762078750736 l-4.856504649951071,6.684405196876839 l-2.6645352591003757e-15,-8.262379212492636 l4.856504649951071,-6.684405196876839z"/>
<path fill="#B31B1B" fill-opacity="0.37" d="m-12.714494240093815,-9.23762078750736 l4.856504649951071,6.68440519687684 l8.881784197001252e-16,-8.262379212492638 l-4.856504649951071,-6.68440519687684z"/>
<path fill="#B31B1B" fill-opacity="0.37" d="m25.428988480187634,-8.262379212492641 l-4.856504649951077,-6.684405196876838 l7.105427357601002e-15,8.262379212492636 l4.856504649951077,6.684405196876838z"/>
<path fill="#B31B1B" fill-opacity="0.37" d="m-25.428988480187634,-8.262379212492638 l4.856504649951077,-6.684405196876838 l-7.105427357601002e-15,8.262379212492636 l-4.856504649951077,6.684405196876838z"/>
<path fill="#B31B1B" fill-opacity="0.37" d="m25.428988480187634,-8.262379212492638 l-3.552713678800501e-15,8.26237921249264 l-4.8565046499510665,-6.68440519687684 l3.552713678800501e-15,-8.26237921249264z"/>
<path fill="#B31B1B" fill-opacity="0.37" d="m-25.428988480187634,-8.262379212492634 l3.552713678800501e-15,8.262379212492638 l4.8565046499510665,-6.684405196876842 l-3.552713678800501e-15,-8.262379212492638z"/>
<path fill="#B31B1B" fill-opacity="0.9" d="m0.0,0.0 l1.1714390527845064e-15,-8.26237921249264 l7.8579895901427435,-2.5532155906305185 l-1.1714390527845064e-15,8.26237921249264z"/>
<path fill="#B31B1B" fill-opacity="0.9" d="m0.0,0.0 l7.857989590142744,-2.553215590630521 l-2.6645352591003757e-15,-8.262379212492636 l-7.857989590142744,2.553215590630521z"/>
<path fill="#B31B1B" fill-opacity="0.9" d="m0.0,0.0 l-7.857989590142744,-2.5532155906305203 l8.881784197001252e-16,-8.262379212492638 l7.857989590142744,2.5532155906305203z"/>
<path fill="#B31B1B" fill-opacity="0.9" d="m0.0,0.0 l-2.1832886783765805e-15,-8.26237921249264 l-7.857989590142744,-2.5532155906305185 l2.1832886783765805e-15,8.26237921249264z"/>
<path fill="#B31B1B" fill-opacity="0.9" d="m41.14496766047312,1.4513261177938737e-16 l-7.8579895901427435,-2.55321559063052 l0.0,-8.262379212492638 l7.8579895901427435,2.55321559063052z"/>
<path fill="#B31B1B" fill-opacity="0.9" d="m25.42898848018763,1.1074587917095407e-15 l7.857989590142747,-2.5532155906305207 l0.0,-8.262379212492638 l-7.857989590142747,2.5532155906305207z"/>
<path fill="#B31B1B" fill-opacity="0.9" d="m-25.42898848018763,4.221611726491211e-15 l-7.857989590142747,-2.55321559063052 l0.0,-8.26237921249264 l7.857989590142747,2.55321559063052z"/>
<path fill="#B31B1B" fill-opacity="0.9" d="m-41.14496766047312,5.183937906421364e-15 l7.8579895901427435,-2.5532155906305207 l0.0,-8.26237921249264 l-7.8579895901427435,2.5532155906305207z"/>
<path fill="#B31B1B" fill-opacity="0.9" d="m7.857989590142744,-2.553215590630521 l4.856504649951071,-6.684405196876839 l7.857989590142749,2.5532155906305176 l-4.856504649951071,6.684405196876839z"/>
<path fill="#B31B1B" fill-opacity="0.9" d="m-7.857989590142744,-2.5532155906305203 l-4.856504649951071,-6.68440519687684 l-7.857989590142749,2.5532155906305194 l4.856504649951071,6.68440519687684z"/>
<path fill="#B31B1B" fill-opacity="0.9" d="m7.857989590142744,-2.55321559063052 l7.857989590142744,2.5532155906305207 l4.856504649951075,-6.68440519687684 l-7.857989590142744,-2.5532155906305207z"/>
<path fill="#B31B1B" fill-opacity="0.9" d="m-7.857989590142744,-2.553215590630519 l-7.857989590142744,2.5532155906305216 l-4.856504649951075,-6.68440519687684 l7.857989590142744,-2.5532155906305216z"/>
<path fill="#B31B1B" fill-opacity="0.9" d="m20.572483830236557,6.68440519687684 l-4.856504649951068,-6.684405196876839 l4.856504649951075,-6.68440519687684 l4.856504649951068,6.684405196876839z"/>
<path fill="#B31B1B" fill-opacity="0.9" d="m-20.572483830236557,6.684405196876842 l4.856504649951068,-6.684405196876839 l-4.856504649951075,-6.68440519687684 l-4.856504649951068,6.684405196876839z"/>
<path fill="#B31B1B" fill-opacity="0.37" d="m33.28697807033038,-2.55321559063052 l7.8579895901427435,2.55321559063052 l-7.8579895901427435,2.55321559063052 l-7.8579895901427435,-2.55321559063052z"/>
<path fill="#B31B1B" fill-opacity="0.37" d="m-33.28697807033038,-2.5532155906305154 l-7.8579895901427435,2.5532155906305207 l7.8579895901427435,2.553215590630519 l7.8579895901427435,-2.5532155906305207z"/>
<path fill="#B31B1B" fill-opacity="0.9" d="m0.0,0.0 l4.856504649951074,6.684405196876839 l7.8579895901427435,-2.553215590630523 l-4.856504649951074,-6.684405196876839z"/>
<path fill="#B31B1B" fill-opacity="0.9" d="m0.0,0.0 l-4.856504649951074,6.684405196876839 l-7.8579895901427435,-2.553215590630521 l4.856504649951074,-6.684405196876839z"/>
<path fill="#B31B1B" fill-opacity="0.9" d="m0.0,0.0 l7.857989590142744,-2.55321559063052 l4.856504649951071,6.68440519687684 l-7.857989590142744,2.55321559063052z"/>
<path fill="#B31B1B" fill-opacity="0.9" d="m0.0,0.0 l-7.857989590142744,-2.553215590630519 l-4.856504649951071,6.68440519687684 l7.857989590142744,2.553215590630519z"/>
<path fill="#B31B1B" fill-opacity="0.37" d="m15.715979180285489,8.140306594700971e-16 l-7.857989590142744,-2.5532155906305207 l4.856504649951071,6.68440519687684 l7.857989590142744,2.5532155906305207z"/>
<path fill="#B31B1B" fill-opacity="0.37" d="m-15.715979180285489,2.738683019330404e-15 l7.857989590142744,-2.5532155906305216 l-4.856504649951071,6.68440519687684 l-7.857989590142744,2.5532155906305216z"/>
<path fill="#B31B1B" fill-opacity="0.37" d="m36.28846301052205,6.684405196876839 l-7.857989590142751,2.553215590630521 l4.856504649951077,-6.68440519687684 l7.857989590142751,-2.553215590630521z"/>
<path fill="#B31B1B" fill-opacity="0.9" d="m20.572483830236557,6.68440519687684 l7.8579895901427435,2.5532155906305203 l4.856504649951077,-6.68440519687684 l-7.8579895901427435,-2.5532155906305203z"/>
<path fill="#B31B1B" fill-opacity="0.9" d="m-20.572483830236557,6.684405196876842 l-7.8579895901427435,2.553215590630522 l-4.856504649951077,-6.68440519687684 l7.8579895901427435,-2.553215590630522z"/>
<path fill="#B31B1B" fill-opacity="0.37" d="m-36.28846301052205,6.6844051968768445 l7.857989590142751,2.5532155906305194 l-4.856504649951077,-6.68440519687684 l-7.857989590142751,-2.5532155906305194z"/>
<path fill="#B31B1B" fill-opacity="0.37" d="m12.714494240093819,9.237620787507359 l-7.857989590142745,-2.5532155906305194 l7.8579895901427435,-2.553215590630523 l7.857989590142745,2.5532155906305194z"/>
<path fill="#B31B1B" fill-opacity="0.37" d="m-12.714494240093819,9.237620787507359 l7.857989590142745,-2.5532155906305194 l-7.8579895901427435,-2.553215590630521 l-7.857989590142745,2.5532155906305194z"/>
<path fill="#B31B1B" fill-opacity="0.9" d="m0.0,0.0 l-4.856504649951072,6.684405196876841 l4.856504649951073,6.684405196876839 l4.856504649951072,-6.684405196876841z"/>
<path fill="#B31B1B" fill-opacity="0.9" d="m41.14496766047312,1.4513261177938737e-16 l-4.85650464995107,6.684405196876839 l4.85650464995107,6.684405196876843 l4.85650464995107,-6.684405196876839z"/>
<path fill="#B31B1B" fill-opacity="0.9" d="m-41.14496766047312,5.183937906421364e-15 l4.85650464995107,6.684405196876839 l-4.85650464995107,6.684405196876841 l-4.85650464995107,-6.684405196876839z"/>
<path fill="#B31B1B" fill-opacity="0.9" d="m28.430473420379307,9.237620787507351 l4.856504649951077,6.684405196876842 l7.8579895901427435,-2.553215590630522 l-4.856504649951077,-6.684405196876842z"/>
<path fill="#B31B1B" fill-opacity="0.9" d="m-28.430473420379307,9.237620787507355 l-4.856504649951077,6.684405196876842 l-7.8579895901427435,-2.553215590630522 l4.856504649951077,-6.684405196876842z"/>
<path fill="#B31B1B" fill-opacity="0.9" d="m28.4304734203793,9.23762078750736 l7.857989590142751,-2.553215590630521 l4.85650464995107,6.684405196876843 l-7.857989590142751,2.553215590630521z"/>
<path fill="#B31B1B" fill-opacity="0.9" d="m-28.4304734203793,9.237620787507364 l-7.857989590142751,-2.5532155906305194 l-4.85650464995107,6.684405196876841 l7.857989590142751,2.5532155906305194z"/>
<path fill="#B31B1B" fill-opacity="0.9" d="m20.57248383023656,6.684405196876834 l7.857989590142747,2.5532155906305176 l3.552713678800501e-15,8.262379212492645 l-7.857989590142747,-2.5532155906305176z"/>
<path fill="#B31B1B" fill-opacity="0.9" d="m-20.57248383023656,6.684405196876836 l-7.857989590142747,2.5532155906305194 l-3.552713678800501e-15,8.262379212492641 l7.857989590142747,-2.5532155906305194z"/>
<path fill="#B31B1B" fill-opacity="0.9" d="m20.57248383023656,6.684405196876834 l-7.857989590142742,2.5532155906305247 l5.329070518200751e-15,8.262379212492641 l7.857989590142742,-2.5532155906305247z"/>
<path fill="#B31B1B" fill-opacity="0.9" d="m-20.57248383023656,6.684405196876836 l7.857989590142742,2.553215590630523 l-1.7763568394002505e-15,8.262379212492641 l-7.857989590142742,-2.553215590630523z"/>
<path fill="#B31B1B" fill-opacity="0.9" d="m4.856504649951074,6.684405196876839 l7.857989590142745,2.5532155906305194 l5.329070518200751e-15,8.262379212492641 l-7.857989590142745,-2.5532155906305194z"/>
<path fill="#B31B1B" fill-opacity="0.9" d="m-4.856504649951074,6.684405196876839 l-7.857989590142745,2.5532155906305194 l-1.7763568394002505e-15,8.262379212492641 l7.857989590142745,-2.5532155906305194z"/>
<path fill="#B31B1B" fill-opacity="0.9" d="m46.00147231042419,6.68440519687684 l0.0,8.262379212492638 l7.8579895901427435,2.553215590630522 l-0.0,-8.262379212492638z"/>
<path fill="#B31B1B" fill-opacity="0.9" d="m4.856504649951072,6.684405196876841 l8.881784197001252e-16,8.26237921249264 l7.857989590142746,2.553215590630522 l-8.881784197001252e-16,-8.26237921249264z"/>
<path fill="#B31B1B" fill-opacity="0.9" d="m-4.856504649951072,6.684405196876841 l8.881784197001252e-16,8.26237921249264 l-7.857989590142744,2.553215590630522 l-8.881784197001252e-16,-8.26237921249264z"/>
<path fill="#B31B1B" fill-opacity="0.9" d="m-46.00147231042419,6.684405196876845 l0.0,8.26237921249264 l-7.8579895901427435,2.553215590630522 l-0.0,-8.26237921249264z"/>
<path fill="#B31B1B" fill-opacity="0.37" d="m46.0014723104242,14.946784409369467 l-4.85650464995107,6.684405196876842 l0.0,-8.262379212492638 l4.85650464995107,-6.684405196876842z"/>
<path fill="#B31B1B" fill-opacity="0.37" d="m-46.0014723104242,14.946784409369474 l4.85650464995107,6.684405196876842 l0.0,-8.262379212492641 l-4.85650464995107,-6.684405196876842z"/>
<path fill="#B31B1B" fill-opacity="0.37" d="m4.856504649951073,14.946784409369481 l-8.881784197001252e-16,-8.26237921249264 l-4.856504649951071,6.684405196876839 l8.881784197001252e-16,8.26237921249264z"/>
<path fill="#B31B1B" fill-opacity="0.37" d="m-4.856504649951071,14.946784409369481 l-8.881784197001252e-16,-8.26237921249264 l4.856504649951073,6.684405196876839 l8.881784197001252e-16,8.26237921249264z"/>
<path fill="#B31B1B" fill-opacity="0.37" d="m46.00147231042419,14.946784409369478 l0.0,-8.262379212492638 l-4.85650464995107,6.684405196876842 l-0.0,8.262379212492638z"/>
<path fill="#B31B1B" fill-opacity="0.37" d="m-46.00147231042419,14.946784409369485 l0.0,-8.26237921249264 l4.85650464995107,6.68440519687684 l-0.0,8.26237921249264z"/>
<path fill="#B31B1B" fill-opacity="0.37" d="m33.286978070330385,15.922025984384193 l-4.856504649951077,-6.684405196876842 l3.552713678800501e-15,8.262379212492645 l4.856504649951077,6.684405196876842z"/>
<path fill="#B31B1B" fill-opacity="0.37" d="m-33.286978070330385,15.922025984384197 l4.856504649951077,-6.684405196876842 l-3.552713678800501e-15,8.262379212492641 l-4.856504649951077,6.684405196876842z"/>
<path fill="#B31B1B" fill-opacity="0.9" d="m33.286978070330385,24.18440519687683 l0.0,-8.262379212492638 l7.8579895901427435,-2.553215590630522 l-0.0,8.262379212492638z"/>
<path fill="#B31B1B" fill-opacity="0.9" d="m-33.286978070330385,24.18440519687684 l0.0,-8.262379212492641 l-7.8579895901427435,-2.553215590630522 l-0.0,8.262379212492641z"/>
<path fill="#B31B1B" fill-opacity="0.9" d="m41.14496766047313,21.63118960624631 l4.85650464995107,-6.684405196876842 l7.8579895901427435,2.5532155906305185 l-4.85650464995107,6.684405196876842z"/>
<path fill="#B31B1B" fill-opacity="0.9" d="m-41.14496766047313,21.631189606246316 l-4.85650464995107,-6.684405196876842 l-7.8579895901427435,2.5532155906305185 l4.85650464995107,6.684405196876842z"/>
<path fill="#B31B1B" fill-opacity="0.37" d="m25.42898848018764,21.631189606246316 l7.8579895901427435,2.553215590630515 l-4.856504649951074,-6.684405196876835 l-7.8579895901427435,-2.553215590630515z"/>
<path fill="#B31B1B" fill-opacity="0.37" d="m-25.42898848018764,21.631189606246316 l-7.8579895901427435,2.553215590630522 l4.856504649951074,-6.684405196876842 l7.8579895901427435,-2.553215590630522z"/>
<path fill="#B31B1B" fill-opacity="0.37" d="m15.715979180285496,21.631189606246316 l4.856504649951068,-6.684405196876844 l-7.85798959014274,2.5532155906305274 l-4.856504649951068,6.684405196876844z"/>
<path fill="#B31B1B" fill-opacity="0.37" d="m-15.715979180285492,21.631189606246316 l-4.856504649951072,-6.68440519687684 l7.8579895901427435,2.553215590630524 l4.856504649951072,6.68440519687684z"/>
<path fill="#B31B1B" fill-opacity="0.37" d="m15.71597918028549,21.631189606246323 l-7.857989590142745,2.553215590630515 l4.856504649951074,-6.684405196876835 l7.857989590142745,-2.553215590630515z"/>
<path fill="#B31B1B" fill-opacity="0.9" d="m1.3245283556519523e-15,21.631189606246316 l4.856504649951072,-6.684405196876835 l7.857989590142746,2.553215590630522 l-4.856504649951072,6.684405196876835z"/>
<path fill="#B31B1B" fill-opacity="0.9" d="m1.3245283556519523e-15,21.631189606246316 l-4.856504649951072,-6.684405196876835 l-7.857989590142744,2.553215590630522 l4.856504649951072,6.684405196876835z"/>
<path fill="#B31B1B" fill-opacity="0.37" d="m-15.715979180285487,21.631189606246323 l7.857989590142745,2.553215590630515 l-4.856504649951074,-6.684405196876835 l-7.857989590142745,-2.553215590630515z"/>
<path fill="#B31B1B" fill-opacity="0.9" d="m20.572483830236564,14.946784409369473 l4.856504649951077,6.684405196876844 l-4.856504649951074,6.684405196876838 l-4.856504649951077,-6.684405196876844z"/>
<path fill="#B31B1B" fill-opacity="0.9" d="m-20.572483830236564,14.946784409369476 l-4.856504649951077,6.68440519687684 l4.856504649951074,6.684405196876838 l4.856504649951077,-6.68440519687684z"/>
<path fill="#B31B1B" fill-opacity="0.9" d="m33.286978070330385,24.18440519687683 l-7.8579895901427435,-2.553215590630515 l-4.856504649951074,6.684405196876838 l7.8579895901427435,2.553215590630515z"/>
<path fill="#B31B1B" fill-opacity="0.9" d="m-33.286978070330385,24.18440519687684 l7.8579895901427435,-2.553215590630522 l4.856504649951074,6.684405196876838 l-7.8579895901427435,2.553215590630522z"/>
<path fill="#B31B1B" fill-opacity="0.9" d="m7.857989590142745,24.18440519687684 l4.856504649951074,6.684405196876845 l7.857989590142742,-2.553215590630522 l-4.856504649951074,-6.684405196876845z"/>
<path fill="#B31B1B" fill-opacity="0.9" d="m-7.857989590142742,24.18440519687684 l-4.856504649951074,6.684405196876845 l-7.857989590142745,-2.553215590630522 l4.856504649951074,-6.684405196876845z"/>
<path fill="#B31B1B" fill-opacity="0.9" d="m1.3245283556519523e-15,21.631189606246316 l5.059248127960375e-16,8.262379212492643 l7.857989590142745,2.5532155906305256 l-5.059248127960375e-16,-8.262379212492643z"/>
<path fill="#B31B1B" fill-opacity="0.9" d="m1.3245283556519523e-15,21.631189606246316 l5.059248127960375e-16,8.262379212492643 l-7.857989590142745,2.5532155906305256 l-5.059248127960375e-16,-8.262379212492643z"/>
<path fill="#B31B1B" fill-opacity="0.37" d="m12.714494240093819,30.868810393753684 l0.0,8.26237921249264 l-4.856504649951072,-6.684405196876838 l-0.0,-8.26237921249264z"/>
<path fill="#B31B1B" fill-opacity="0.37" d="m-12.714494240093815,30.868810393753684 l0.0,8.26237921249264 l4.856504649951072,-6.684405196876838 l-0.0,-8.26237921249264z"/>
<path fill="#B31B1B" fill-opacity="0.9" d="m12.714494240093819,39.13118960624632 l0.0,-8.26237921249264 l7.857989590142742,-2.553215590630522 l-0.0,8.26237921249264z"/>
<path fill="#B31B1B" fill-opacity="0.9" d="m-12.714494240093815,39.13118960624632 l0.0,-8.26237921249264 l-7.857989590142745,-2.553215590630522 l-0.0,8.26237921249264z"/>
<path fill="#B31B1B" fill-opacity="0.37" d="m4.856504649951075,36.57797401561581 l-4.856504649951074,-6.684405196876849 l7.857989590142745,2.5532155906305256 l4.856504649951074,6.684405196876849z"/>
<path fill="#B31B1B" fill-opacity="0.37" d="m-4.85650464995107,36.57797401561581 l4.856504649951072,-6.684405196876849 l-7.857989590142745,2.5532155906305256 l-4.856504649951072,6.684405196876849z"/>
<path fill="#B31B1B" fill-opacity="0.9" d="m1.8304531684479897e-15,29.89356881873896 l-4.856504649951072,6.684405196876849 l4.856504649951073,6.684405196876838 l4.856504649951072,-6.684405196876849z"/>
<path fill="#B31B1B" fill-opacity="0.9" d="m12.714494240093819,39.13118960624632 l-7.8579895901427435,-2.553215590630515 l-4.856504649951073,6.684405196876838 l7.8579895901427435,2.553215590630515z"/>
<path fill="#B31B1B" fill-opacity="0.9" d="m-12.714494240093815,39.13118960624632 l7.857989590142745,-2.553215590630515 l4.856504649951073,6.684405196876838 l-7.857989590142745,2.553215590630515z"/>
<path fill="#B31B1B" fill-opacity="0.37" d="m2.961735441363784e-15,48.368810393753684 l-7.857989590142745,-2.553215590630522 l7.857989590142745,-2.553215590630515 l7.857989590142745,2.553215590630522z"/>
<path fill="#B31B1B" fill-opacity="0.9" d="m7.857989590142748,45.81559480312316 l-7.857989590142745,2.553215590630522 l5.059248127960371e-16,8.26237921249264 l7.857989590142745,-2.553215590630522z"/>
<path fill="#B31B1B" fill-opacity="0.9" d="m-7.857989590142743,45.81559480312316 l7.857989590142745,2.553215590630522 l5.059248127960371e-16,8.26237921249264 l-7.857989590142745,-2.553215590630522z"/>
</g>
</svg>