<?xml version="1.0" encoding="utf-8"?>
<svg width="100%" height="100%" viewBox="-70.0 -70.0 140.0 140.0" preserveAspectRatio="xMidYMid meet" version="1.1" baseProfile="full" xmlns="http://www.w3.org/2000/svg">
<g style="stroke:#FFFFFF; stroke-width: 0.30638587087566255; stroke-linejoin: round;">
<path fill="#B31B1B" fill-opacity="0.9" d="m28.430473420379307,-44.23762078750735 l-3.0014849401916734,4.131189606246323 l-4.856504649951074,-1.5779740156158084 l3.0014849401916734,-4.131189606246323z"/>
<path fill="#B31B1B" fill-opacity="0.9" d="m-28.430473420379315,-44.23762078750735 l3.0014849401916734,4.131189606246323 l4.856504649951074,-1.5779740156158084 l-3.0014849401916734,-4.131189606246323z"/>
<path fill="#B31B1B" fill-opacity="0.9" d="m33.28697807033037,-45.81559480312316 l0.0,5.106431181261044 l-4.856504649951074,1.5779740156157942 l-0.0,-5.106431181261044z"/>
<path fill="#B31B1B" fill-opacity="0.9" d="m-33.28697807033037,-45.81559480312316 l0.0,5.106431181261044 l4.8565046499510665,1.5779740156157942 l-0.0,-5.106431181261044z"/>
<path fill="#B31B1B" fill-opacity="0.9" d="m33.286978070330385,-45.815594803123155 l-4.856504649951077,1.5779740156158013 l3.552713678800501e-15,5.106431181261044 l4.856504649951077,-1.5779740156158013z"/>
<path fill="#B31B1B" fill-opacity="0.9" d="m-33.286978070330385,-45.815594803123155 l4.85650464995107,1.5779740156158013 l-3.552713678800501e-15,5.106431181261044 l-4.85650464995107,-1.5779740156158013z"/>
<path fill="#B31B1B" fill-opacity="0.37" d="m17.570998890044887,-40.70916362186212 l3.001484940191677,4.131189606246323 l-3.552713678800501e-15,-5.106431181261044 l-3.001484940191677,-4.131189606246323z"/>
<path fill="#B31B1B" fill-opacity="0.37" d="m-17.570998890044894,-40.70916362186212 l-3.001484940191677,4.131189606246323 l3.552713678800501e-15,-5.106431181261044 l3.001484940191677,-4.131189606246323z"/>
<path fill="#B31B1B" fill-opacity="0.37" d="m25.428988480187634,-40.10643118126103 l3.0014849401916734,-4.131189606246323 l3.552713678800501e-15,5.106431181261044 l-3.0014849401916734,4.131189606246323z"/>
<path fill="#B31B1B" fill-opacity="0.37" d="m-25.42898848018764,-40.10643118126103 l-3.0014849401916734,-4.131189606246323 l-3.552713678800501e-15,5.106431181261044 l3.0014849401916734,4.131189606246323z"/>
<path fill="#B31B1B" fill-opacity="0.9" d="m25.428988480187638,-34.99999999999999 l-3.552713678800501e-15,-5.106431181261037 l-4.856504649951074,-1.5779740156158084 l3.552713678800501e-15,5.106431181261037z"/>
<path fill="#B31B1B" fill-opacity="0.9" d="m-25.428988480187645,-34.99999999999999 l3.552713678800501e-15,-5.106431181261037 l4.856504649951074,-1.5779740156158084 l-3.552713678800501e-15,5.106431181261037z"/>
<path fill="#B31B1B" fill-opacity="0.37" d="m30.2854931301387,-36.5779740156158 l3.00148494019167,-4.131189606246316 l-4.856504649951074,1.5779740156157942 l-3.00148494019167,4.131189606246316z"/>
<path fill="#B31B1B" fill-opacity="0.9" d="m4.8565046499510744,-36.5779740156158 l4.856504649951073,1.5779740156158013 l3.0014849401916717,-4.131189606246323 l-4.856504649951073,-1.5779740156158013z"/>
<path fill="#B31B1B" fill-opacity="0.9" d="m-4.85650464995108,-36.5779740156158 l-4.856504649951071,1.5779740156158013 l-3.0014849401916717,-4.131189606246323 l4.856504649951071,-1.5779740156158013z"/>
<path fill="#B31B1B" fill-opacity="0.37" d="m-30.285493130138708,-36.5779740156158 l-3.001484940191663,-4.131189606246316 l4.8565046499510665,1.5779740156157942 l3.001484940191663,4.131189606246316z"/>
<path fill="#B31B1B" fill-opacity="0.9" d="m20.572483830236564,-36.577974015615794 l-4.856504649951072,1.5779740156157942 l-3.0014849401916734,-4.131189606246323 l4.856504649951072,-1.5779740156157942z"/>
<path fill="#B31B1B" fill-opacity="0.9" d="m-20.57248383023657,-36.577974015615794 l4.856504649951075,1.5779740156157942 l3.0014849401916734,-4.131189606246323 l-4.856504649951075,-1.5779740156157942z"/>
<path fill="#B31B1B" fill-opacity="0.9" d="m33.28697807033037,-40.70916362186212 l-3.00148494019167,4.131189606246316 l3.001484940191677,4.131189606246323 l3.00148494019167,-4.131189606246316z"/>
<path fill="#B31B1B" fill-opacity="0.9" d="m-33.28697807033037,-40.70916362186212 l3.001484940191663,4.131189606246316 l-3.00148494019167,4.131189606246323 l-3.001484940191663,-4.131189606246316z"/>
<path fill="#B31B1B" fill-opacity="0.9" d="m12.714494240093819,-30.868810393753684 l3.0014849401916734,-4.131189606246316 l-3.0014849401916734,-4.131189606246323 l-3.0014849401916734,4.131189606246316z"/>
<path fill="#B31B1B" fill-opacity="0.9" d="m-12.714494240093822,-30.868810393753684 l-3.0014849401916734,-4.131189606246316 l3.0014849401916734,-4.131189606246323 l3.0014849401916734,4.131189606246316z"/>
<path fill="#B31B1B" fill-opacity="0.9" d="m25.428988480187623,-35.0 l4.856504649951077,-1.5779740156158013 l3.001484940191677,4.131189606246323 l-4.856504649951077,1.5779740156158013z"/>
<path fill="#B31B1B" fill-opacity="0.37" d="m15.715979180285492,-35.0 l-3.0014849401916734,4.131189606246316 l4.856504649951072,-1.5779740156157942 l3.0014849401916734,-4.131189606246316z"/>
<path fill="#B31B1B" fill-opacity="0.37" d="m9.713009299902147,-35.0 l3.0014849401916717,4.131189606246316 l-4.85650464995107,-1.5779740156157942 l-3.0014849401916717,-4.131189606246316z"/>
<path fill="#B31B1B" fill-opacity="0.9" d="m4.962295459093134e-15,-35.0 l4.856504649951069,-1.5779740156158013 l3.0014849401916743,4.131189606246323 l-4.856504649951069,1.5779740156158013z"/>
<path fill="#B31B1B" fill-opacity="0.9" d="m-9.24855925610887e-15,-35.0 l-4.856504649951071,-1.5779740156158013 l-3.0014849401916726,4.131189606246323 l4.856504649951071,1.5779740156158013z"/>
<path fill="#B31B1B" fill-opacity="0.37" d="m-9.71300929990215,-35.0 l-3.0014849401916717,4.131189606246316 l4.85650464995107,-1.5779740156157942 l3.0014849401916717,-4.131189606246316z"/>
<path fill="#B31B1B" fill-opacity="0.37" d="m-15.715979180285496,-35.0 l3.0014849401916734,4.131189606246316 l-4.856504649951075,-1.5779740156157942 l-3.0014849401916734,-4.131189606246316z"/>
<path fill="#B31B1B" fill-opacity="0.9" d="m-25.42898848018763,-35.0 l-4.856504649951077,-1.5779740156158013 l-3.00148494019167,4.131189606246323 l4.856504649951077,1.5779740156158013z"/>
<path fill="#B31B1B" fill-opacity="0.9" d="m25.428988480187638,-34.99999999999999 l-3.0014849401916734,4.131189606246323 l-4.856504649951074,-1.5779740156158084 l3.0014849401916734,-4.131189606246323z"/>
<path fill="#B31B1B" fill-opacity="0.9" d="m-25.428988480187645,-34.99999999999999 l3.0014849401916734,4.131189606246323 l4.856504649951074,-1.5779740156158084 l-3.0014849401916734,-4.131189606246323z"/>
<path fill="#B31B1B" fill-opacity="0.37" d="m33.28697807033038,-29.290836378137886 l-4.856504649951081,-1.5779740156157978 l4.856504649951081,-1.5779740156157942 l4.856504649951081,1.5779740156157978z"/>
<path fill="#B31B1B" fill-opacity="0.9" d="m25.428988480187623,-35.0 l-3.0014849401916734,4.131189606246316 l3.0014849401916806,4.131189606246323 l3.0014849401916734,-4.131189606246316z"/>
<path fill="#B31B1B" fill-opacity="0.37" d="m7.857989590142748,-29.290836378137882 l-4.856504649951072,-1.5779740156158013 l4.856504649951073,-1.5779740156157942 l4.856504649951072,1.5779740156158013z"/>
<path fill="#B31B1B" fill-opacity="0.9" d="m4.962295459093134e-15,-35.0 l3.0014849401916712,4.131189606246316 l-3.001484940191672,4.131189606246323 l-3.0014849401916712,-4.131189606246316z"/>
<path fill="#B31B1B" fill-opacity="0.9" d="m-9.24855925610887e-15,-35.0 l-3.0014849401916703,4.131189606246316 l3.0014849401916726,4.131189606246323 l3.0014849401916703,-4.131189606246316z"/>
<path fill="#B31B1B" fill-opacity="0.37" d="m-7.8579895901427514,-29.290836378137882 l4.856504649951072,-1.5779740156158013 l-4.856504649951073,-1.5779740156157942 l-4.856504649951072,1.5779740156158013z"/>
<path fill="#B31B1B" fill-opacity="0.9" d="m-25.42898848018763,-35.0 l3.0014849401916734,4.131189606246316 l-3.0014849401916734,4.131189606246323 l-3.0014849401916734,-4.131189606246316z"/>
<path fill="#B31B1B" fill-opacity="0.37" d="m-33.28697807033038,-29.29083637813788 l4.856504649951074,-1.5779740156158049 l-4.856504649951074,-1.5779740156157942 l-4.856504649951074,1.5779740156158049z"/>
<path fill="#B31B1B" fill-opacity="0.37" d="m17.57099889004489,-29.290836378137875 l4.856504649951074,-1.5779740156157942 l-4.856504649951074,-1.5779740156158084 l-4.856504649951074,1.5779740156157942z"/>
<path fill="#B31B1B" fill-opacity="0.37" d="m-17.570998890044898,-29.290836378137875 l-4.856504649951074,-1.5779740156157942 l4.856504649951074,-1.5779740156158084 l4.856504649951074,1.5779740156157942z"/>
<path fill="#B31B1B" fill-opacity="0.9" d="m28.430473420379297,-30.868810393753684 l7.105427357601002e-15,5.106431181261044 l4.856504649951074,1.5779740156157978 l-7.105427357601002e-15,-5.106431181261044z"/>
<path fill="#B31B1B" fill-opacity="0.9" d="m22.42750353999595,-30.868810393753684 l7.105427357601002e-15,5.106431181261044 l-4.856504649951074,1.5779740156158013 l-7.105427357601002e-15,-5.106431181261044z"/>
<path fill="#B31B1B" fill-opacity="0.9" d="m12.714494240093819,-30.868810393753684 l-4.856504649951071,1.5779740156158013 l-1.7763568394002505e-15,5.106431181261044 l4.856504649951071,-1.5779740156158013z"/>
<path fill="#B31B1B" fill-opacity="0.9" d="m3.001484940191676,-30.868810393753684 l4.856504649951072,1.5779740156158013 l-1.7763568394002505e-15,5.106431181261044 l-4.856504649951072,-1.5779740156158013z"/>
<path fill="#B31B1B" fill-opacity="0.9" d="m-3.0014849401916797,-30.868810393753684 l-4.856504649951072,1.5779740156158013 l1.7763568394002505e-15,5.106431181261044 l4.856504649951072,-1.5779740156158013z"/>
<path fill="#B31B1B" fill-opacity="0.9" d="m-12.714494240093822,-30.868810393753684 l4.856504649951071,1.5779740156158013 l1.7763568394002505e-15,5.106431181261044 l-4.856504649951071,-1.5779740156158013z"/>
<path fill="#B31B1B" fill-opacity="0.9" d="m-22.427503539995957,-30.868810393753684 l0.0,5.106431181261044 l4.856504649951074,1.5779740156158013 l-0.0,-5.106431181261044z"/>
<path fill="#B31B1B" fill-opacity="0.9" d="m-28.430473420379304,-30.868810393753684 l0.0,5.106431181261044 l-4.856504649951074,1.5779740156158049 l-0.0,-5.106431181261044z"/>
<path fill="#B31B1B" fill-opacity="0.9" d="m12.714494240093819,-30.868810393753684 l4.856504649951072,1.5779740156158084 l0.0,5.106431181261044 l-4.856504649951072,-1.5779740156158084z"/>
<path fill="#B31B1B" fill-opacity="0.9" d="m-12.714494240093822,-30.868810393753684 l-4.856504649951075,1.5779740156158084 l7.105427357601002e-15,5.106431181261044 l4.856504649951075,-1.5779740156158084z"/>
<path fill="#B31B1B" fill-opacity="0.9" d="m22.427503539995964,-30.86881039375367 l-4.856504649951074,1.5779740156157942 l0.0,5.106431181261044 l4.856504649951074,-1.5779740156157942z"/>
<path fill="#B31B1B" fill-opacity="0.9" d="m-22.42750353999597,-30.86881039375367 l4.856504649951074,1.5779740156157942 l7.105427357601002e-15,5.106431181261044 l-4.856504649951074,-1.5779740156157942z"/>
<path fill="#B31B1B" fill-opacity="0.37" d="m28.430473420379304,-25.76237921249264 l-3.00148494019167,4.131189606246323 l-3.552713678800501e-15,-5.106431181261044 l3.00148494019167,-4.131189606246323z"/>
<path fill="#B31B1B" fill-opacity="0.37" d="m22.427503539995957,-25.76237921249264 l-7.105427357601002e-15,-5.106431181261044 l3.0014849401916806,4.131189606246323 l7.105427357601002e-15,5.106431181261044z"/>
<path fill="#B31B1B" fill-opacity="0.37" d="m3.001484940191675,-25.76237921249264 l8.881784197001252e-16,-5.106431181261044 l-3.001484940191672,4.131189606246323 l-8.881784197001252e-16,5.106431181261044z"/>
<path fill="#B31B1B" fill-opacity="0.37" d="m-3.0014849401916788,-25.76237921249264 l-8.881784197001252e-16,-5.106431181261044 l3.0014849401916726,4.131189606246323 l8.881784197001252e-16,5.106431181261044z"/>
<path fill="#B31B1B" fill-opacity="0.37" d="m-22.427503539995957,-25.76237921249264 l0.0,-5.106431181261044 l-3.0014849401916734,4.131189606246323 l-0.0,5.106431181261044z"/>
<path fill="#B31B1B" fill-opacity="0.37" d="m-28.430473420379304,-25.76237921249264 l3.00148494019167,4.131189606246323 l3.552713678800501e-15,-5.106431181261044 l-3.00148494019167,-4.131189606246323z"/>
<path fill="#B31B1B" fill-opacity="0.9" d="m3.06686725593882e-15,-21.631189606246323 l3.001484940191672,-4.131189606246316 l4.856504649951071,1.5779740156158013 l-3.001484940191672,4.131189606246316z"/>
<path fill="#B31B1B" fill-opacity="0.9" d="m-5.715923967242726e-15,-21.631189606246323 l-3.001484940191673,-4.131189606246316 l-4.856504649951071,1.5779740156158013 l3.001484940191673,4.131189606246316z"/>
<path fill="#B31B1B" fill-opacity="0.9" d="m25.428988480187634,-21.631189606246316 l3.00148494019167,-4.131189606246323 l4.856504649951074,1.5779740156157978 l-3.00148494019167,4.131189606246323z"/>
<path fill="#B31B1B" fill-opacity="0.9" d="m25.428988480187634,-21.631189606246316 l-3.001484940191677,-4.131189606246323 l-4.856504649951074,1.5779740156158013 l3.001484940191677,4.131189606246323z"/>
<path fill="#B31B1B" fill-opacity="0.37" d="m15.715979180285482,-21.631189606246316 l4.856504649951079,1.5779740156157978 l-3.001484940191677,-4.13118960624632 l-4.856504649951079,-1.5779740156157978z"/>
<path fill="#B31B1B" fill-opacity="0.37" d="m9.713009299902145,-21.631189606246316 l3.0014849401916734,-4.131189606246323 l-4.856504649951073,1.5779740156158013 l-3.0014849401916734,4.131189606246323z"/>
<path fill="#B31B1B" fill-opacity="0.37" d="m-9.713009299902149,-21.631189606246316 l-3.0014849401916734,-4.131189606246323 l4.856504649951073,1.5779740156158013 l3.0014849401916734,4.131189606246323z"/>
<path fill="#B31B1B" fill-opacity="0.37" d="m-15.715979180285485,-21.631189606246316 l-4.856504649951075,1.5779740156157978 l3.001484940191677,-4.13118960624632 l4.856504649951075,-1.5779740156157978z"/>
<path fill="#B31B1B" fill-opacity="0.9" d="m-25.428988480187634,-21.631189606246316 l3.001484940191677,-4.131189606246323 l4.856504649951074,1.5779740156158013 l-3.001484940191677,4.131189606246323z"/>
<path fill="#B31B1B" fill-opacity="0.9" d="m-25.428988480187634,-21.631189606246316 l-3.00148494019167,-4.131189606246323 l-4.856504649951074,1.5779740156158049 l3.00148494019167,4.131189606246323z"/>
<path fill="#B31B1B" fill-opacity="0.37" d="m15.71597918028549,-21.631189606246313 l-3.0014849401916717,-4.131189606246327 l4.856504649951072,1.5779740156158084 l3.0014849401916717,4.131189606246327z"/>
<path fill="#B31B1B" fill-opacity="0.37" d="m-15.715979180285494,-21.631189606246313 l3.0014849401916717,-4.131189606246327 l-4.856504649951068,1.5779740156158084 l-3.0014849401916717,4.131189606246327z"/>
<path fill="#B31B1B" fill-opacity="0.9" d="m12.714494240093819,-25.76237921249264 l3.0014849401916717,4.131189606246327 l-3.001484940191675,4.131189606246316 l-3.0014849401916717,-4.131189606246327z"/>
<path fill="#B31B1B" fill-opacity="0.9" d="m-12.714494240093822,-25.76237921249264 l-3.0014849401916717,4.131189606246327 l3.001484940191675,4.131189606246316 l3.0014849401916717,-4.131189606246327z"/>
<path fill="#B31B1B" fill-opacity="0.9" d="m33.28697807033038,-15.922025984384202 l-3.0014849401916734,-4.131189606246323 l3.0014849401916734,-4.131189606246316 l3.0014849401916734,4.131189606246323z"/>
<path fill="#B31B1B" fill-opacity="0.9" d="m-33.28697807033038,-15.922025984384199 l3.0014849401916734,-4.13118960624632 l-3.0014849401916734,-4.131189606246316 l-3.0014849401916734,4.13118960624632z"/>
<path fill="#B31B1B" fill-opacity="0.37" d="m30.285493130138704,-20.053215590630526 l-4.85650464995107,-1.5779740156157906 l3.0014849401916734,4.131189606246316 l4.85650464995107,1.5779740156157906z"/>
<path fill="#B31B1B" fill-opacity="0.37" d="m-30.285493130138704,-20.05321559063052 l4.85650464995107,-1.5779740156157978 l-3.0014849401916734,4.131189606246316 l-4.85650464995107,1.5779740156157978z"/>
<path fill="#B31B1B" fill-opacity="0.9" d="m20.57248383023656,-20.05321559063052 l-4.856504649951079,-1.5779740156157978 l-3.0014849401916717,4.13118960624632 l4.856504649951079,1.5779740156157978z"/>
<path fill="#B31B1B" fill-opacity="0.9" d="m4.856504649951074,-20.053215590630522 l3.0014849401916726,4.131189606246323 l4.856504649951069,-1.5779740156157978 l-3.0014849401916726,-4.131189606246323z"/>
<path fill="#B31B1B" fill-opacity="0.9" d="m-4.856504649951075,-20.053215590630522 l-3.0014849401916726,4.131189606246323 l-4.856504649951071,-1.5779740156157978 l3.0014849401916726,-4.131189606246323z"/>
<path fill="#B31B1B" fill-opacity="0.9" d="m-20.57248383023656,-20.05321559063052 l4.856504649951075,-1.5779740156157978 l3.0014849401916717,4.13118960624632 l-4.856504649951075,1.5779740156157978z"/>
<path fill="#B31B1B" fill-opacity="0.9" d="m3.06686725593882e-15,-21.631189606246323 l-7.239891503698069e-16,5.106431181261041 l4.856504649951071,1.577974015615803 l7.239891503698069e-16,-5.106431181261041z"/>
<path fill="#B31B1B" fill-opacity="0.9" d="m-5.715923967242726e-15,-21.631189606246323 l1.349346610489565e-15,5.106431181261041 l-4.856504649951071,1.577974015615803 l-1.349346610489565e-15,-5.106431181261041z"/>
<path fill="#B31B1B" fill-opacity="0.9" d="m25.428988480187634,-21.631189606246316 l0.0,5.106431181261037 l-4.856504649951077,1.5779740156157995 l-0.0,-5.106431181261037z"/>
<path fill="#B31B1B" fill-opacity="0.9" d="m-25.428988480187634,-21.631189606246316 l0.0,5.106431181261037 l4.856504649951077,1.577974015615803 l-0.0,-5.106431181261037z"/>
<path fill="#B31B1B" fill-opacity="0.37" d="m25.428988480187634,-16.52475842498528 l3.0014849401916734,4.131189606246318 l0.0,-5.106431181261039 l-3.0014849401916734,-4.131189606246318z"/>
<path fill="#B31B1B" fill-opacity="0.37" d="m-25.428988480187634,-16.52475842498528 l-3.0014849401916734,4.131189606246322 l0.0,-5.106431181261042 l3.0014849401916734,-4.131189606246322z"/>
<path fill="#B31B1B" fill-opacity="0.37" d="m17.570998890044883,-15.9220259843842 l3.001484940191677,-4.131189606246318 l-3.552713678800501e-15,5.106431181261039 l-3.001484940191677,4.131189606246318z"/>
<path fill="#B31B1B" fill-opacity="0.37" d="m7.857989590142746,-15.922025984384199 l-1.7763568394002505e-15,5.106431181261041 l-3.001484940191671,-4.131189606246322 l1.7763568394002505e-15,-5.106431181261041z"/>
<path fill="#B31B1B" fill-opacity="0.37" d="m-7.857989590142748,-15.922025984384199 l1.7763568394002505e-15,5.106431181261041 l3.001484940191671,-4.131189606246322 l-1.7763568394002505e-15,-5.106431181261041z"/>
<path fill="#B31B1B" fill-opacity="0.37" d="m-17.570998890044883,-15.922025984384197 l-3.001484940191677,-4.131189606246322 l3.552713678800501e-15,5.106431181261042 l3.001484940191677,4.131189606246322z"/>
<path fill="#B31B1B" fill-opacity="0.9" d="m33.28697807033038,-10.815594803123163 l0.0,-5.106431181261039 l-4.85650464995107,-1.5779740156157978 l-0.0,5.106431181261039z"/>
<path fill="#B31B1B" fill-opacity="0.9" d="m-33.28697807033038,-10.81559480312316 l0.0,-5.106431181261039 l4.85650464995107,-1.5779740156158013 l-0.0,5.106431181261039z"/>
<path fill="#B31B1B" fill-opacity="0.9" d="m17.570998890044887,-10.81559480312316 l-4.856504649951074,-1.577974015615796 l-3.552713678800501e-15,-5.106431181261041 l4.856504649951074,1.577974015615796z"/>
<path fill="#B31B1B" fill-opacity="0.9" d="m7.857989590142744,-10.815594803123158 l1.7763568394002505e-15,-5.106431181261041 l4.856504649951069,-1.5779740156157978 l-1.7763568394002505e-15,5.106431181261041z"/>
<path fill="#B31B1B" fill-opacity="0.9" d="m7.857989590142742,-10.815594803123158 l4.856504649951072,-1.5779740156157978 l-3.552713678800501e-15,-5.106431181261041 l-4.856504649951072,1.5779740156157978z"/>
<path fill="#B31B1B" fill-opacity="0.9" d="m-7.8579895901427435,-10.815594803123158 l-4.85650464995107,-1.5779740156157978 l0.0,-5.106431181261041 l4.85650464995107,1.5779740156157978z"/>
<path fill="#B31B1B" fill-opacity="0.9" d="m-7.857989590142746,-10.815594803123158 l-1.7763568394002505e-15,-5.106431181261041 l-4.856504649951071,-1.5779740156157978 l1.7763568394002505e-15,5.106431181261041z"/>
<path fill="#B31B1B" fill-opacity="0.9" d="m-17.570998890044887,-10.815594803123156 l4.856504649951074,-1.5779740156157995 l0.0,-5.106431181261041 l-4.856504649951074,1.5779740156157995z"/>
<path fill="#B31B1B" fill-opacity="0.37" d="m3.0014849401916743,-12.39356881873896 l-3.001484940191672,-4.131189606246323 l4.856504649951071,1.577974015615803 l3.001484940191672,4.131189606246323z"/>
<path fill="#B31B1B" fill-opacity="0.37" d="m-3.001484940191676,-12.39356881873896 l3.0014849401916717,-4.131189606246323 l-4.856504649951071,1.577974015615803 l-3.0014849401916717,4.131189606246323z"/>
<path fill="#B31B1B" fill-opacity="0.9" d="m28.430473420379307,-12.393568818738961 l-3.0014849401916734,-4.131189606246318 l-4.856504649951077,1.5779740156157995 l3.0014849401916734,4.131189606246318z"/>
<path fill="#B31B1B" fill-opacity="0.9" d="m-28.430473420379307,-12.393568818738958 l3.0014849401916734,-4.131189606246322 l4.856504649951077,1.577974015615803 l-3.0014849401916734,4.131189606246322z"/>
<path fill="#B31B1B" fill-opacity="0.9" d="m2.342878105569013e-15,-16.524758424985283 l3.001484940191672,4.131189606246323 l-3.001484940191673,4.13118960624632 l-3.001484940191672,-4.131189606246323z"/>
<path fill="#B31B1B" fill-opacity="0.9" d="m-4.366577356753161e-15,-16.524758424985283 l-3.0014849401916717,4.131189606246323 l3.001484940191674,4.13118960624632 l3.0014849401916717,-4.131189606246323z"/>
<path fill="#B31B1B" fill-opacity="0.9" d="m20.572483830236564,-6.684405196876843 l3.0014849401916663,-4.131189606246317 l-3.0014849401916734,-4.13118960624632 l-3.0014849401916663,4.131189606246317z"/>
<path fill="#B31B1B" fill-opacity="0.9" d="m-20.572483830236564,-6.684405196876841 l-3.0014849401916663,-4.131189606246315 l3.0014849401916734,-4.13118960624632 l3.0014849401916663,4.131189606246315z"/>
<path fill="#B31B1B" fill-opacity="0.37" d="m12.714494240093813,-12.393568818738956 l-4.856504649951072,1.5779740156157978 l4.856504649951074,1.5779740156157978 l4.856504649951072,-1.5779740156157978z"/>
<path fill="#B31B1B" fill-opacity="0.37" d="m-12.714494240093813,-12.393568818738956 l4.85650464995107,1.5779740156157978 l-4.856504649951072,1.5779740156157978 l-4.85650464995107,-1.5779740156157978z"/>
<path fill="#B31B1B" fill-opacity="0.9" d="m33.28697807033038,-10.815594803123163 l-4.85650464995107,-1.5779740156157978 l-3.0014849401916734,4.13118960624632 l4.85650464995107,1.5779740156157978z"/>
<path fill="#B31B1B" fill-opacity="0.9" d="m-33.28697807033038,-10.81559480312316 l4.85650464995107,-1.5779740156157978 l3.0014849401916734,4.13118960624632 l-4.85650464995107,1.5779740156157978z"/>
<path fill="#B31B1B" fill-opacity="0.37" d="m23.57396877042823,-10.81559480312316 l4.856504649951077,-1.5779740156158013 l-3.0014849401916734,4.13118960624632 l-4.856504649951077,1.5779740156158013z"/>
<path fill="#B31B1B" fill-opacity="0.9" d="m7.857989590142744,-10.815594803123158 l-4.85650464995107,-1.5779740156158013 l-3.001484940191673,4.13118960624632 l4.85650464995107,1.5779740156158013z"/>
<path fill="#B31B1B" fill-opacity="0.9" d="m-7.857989590142746,-10.815594803123158 l4.85650464995107,-1.5779740156158013 l3.001484940191674,4.13118960624632 l-4.85650464995107,1.5779740156158013z"/>
<path fill="#B31B1B" fill-opacity="0.37" d="m-23.57396877042823,-10.815594803123156 l-4.856504649951077,-1.5779740156158013 l3.0014849401916734,4.13118960624632 l4.856504649951077,1.5779740156158013z"/>
<path fill="#B31B1B" fill-opacity="0.9" d="m33.28697807033038,-10.815594803123158 l-3.0014849401916734,4.131189606246319 l-4.85650464995107,-1.5779740156157986 l3.0014849401916734,-4.131189606246319z"/>
<path fill="#B31B1B" fill-opacity="0.9" d="m-33.28697807033038,-10.815594803123155 l3.0014849401916734,4.131189606246319 l4.85650464995107,-1.5779740156157986 l-3.0014849401916734,-4.131189606246319z"/>
<path fill="#B31B1B" fill-opacity="0.9" d="m20.572483830236564,-6.684405196876843 l-4.856504649951074,1.5779740156157995 l-3.001484940191675,-4.131189606246317 l4.856504649951074,-1.5779740156157995z"/>
<path fill="#B31B1B" fill-opacity="0.9" d="m-20.572483830236564,-6.684405196876841 l4.856504649951074,1.5779740156157995 l3.001484940191675,-4.131189606246319 l-4.856504649951074,-1.5779740156157995z"/>
<path fill="#B31B1B" fill-opacity="0.37" d="m10.859474530334417,-6.684405196876841 l4.856504649951074,1.5779740156157978 l-3.001484940191675,-4.131189606246317 l-4.856504649951074,-1.5779740156157978z"/>
<path fill="#B31B1B" fill-opacity="0.37" d="m-10.859474530334417,-6.684405196876839 l-4.856504649951074,1.5779740156157978 l3.001484940191675,-4.131189606246319 l4.856504649951074,-1.5779740156157978z"/>
<path fill="#B31B1B" fill-opacity="0.37" d="m7.239891503698072e-16,-5.1064311812610415 l4.856504649951072,-1.5779740156157986 l-4.856504649951072,-1.5779740156157995 l-4.856504649951072,1.5779740156157986z"/>
<path fill="#B31B1B" fill-opacity="0.37" d="m-1.3493466104895643e-15,-5.1064311812610415 l-4.856504649951071,-1.5779740156157986 l4.856504649951071,-1.5779740156157995 l4.856504649951071,1.5779740156157986z"/>
<path fill="#B31B1B" fill-opacity="0.9" d="m7.857989590142742,-10.815594803123158 l3.001484940191675,4.131189606246317 l-3.0014849401916726,4.13118960624632 l-3.001484940191675,-4.131189606246317z"/>
<path fill="#B31B1B" fill-opacity="0.9" d="m-7.8579895901427435,-10.815594803123158 l-3.0014849401916734,4.131189606246319 l3.0014849401916726,4.131189606246319 l3.0014849401916734,-4.131189606246319z"/>
<path fill="#B31B1B" fill-opacity="0.37" d="m25.428988480187634,-5.106431181261041 l4.85650464995107,-1.5779740156157986 l-4.85650464995107,-1.5779740156157986 l-4.85650464995107,1.5779740156157986z"/>
<path fill="#B31B1B" fill-opacity="0.37" d="m-25.428988480187634,-5.106431181261037 l-4.85650464995107,-1.5779740156157986 l4.85650464995107,-1.5779740156157986 l4.85650464995107,1.5779740156157986z"/>
<path fill="#B31B1B" fill-opacity="0.9" d="m33.28697807033038,-10.815594803123158 l3.0014849401916734,4.131189606246318 l-3.0014849401916734,4.13118960624632 l-3.0014849401916734,-4.131189606246318z"/>
<path fill="#B31B1B" fill-opacity="0.9" d="m-33.28697807033038,-10.815594803123155 l-3.0014849401916734,4.13118960624632 l3.0014849401916734,4.13118960624632 l3.0014849401916734,-4.13118960624632z"/>
<path fill="#B31B1B" fill-opacity="0.9" d="m15.71597918028549,-5.106431181261043 l-4.856504649951074,-1.5779740156157978 l-3.0014849401916726,4.13118960624632 l4.856504649951074,1.5779740156157978z"/>
<path fill="#B31B1B" fill-opacity="0.9" d="m-15.71597918028549,-5.1064311812610415 l4.856504649951074,-1.5779740156157978 l3.0014849401916726,4.131189606246319 l-4.856504649951074,1.5779740156157978z"/>
<path fill="#B31B1B" fill-opacity="0.9" d="m15.71597918028549,-5.106431181261041 l-3.001484940191675,4.13118960624632 l-4.856504649951071,-1.5779740156157995 l3.001484940191675,-4.13118960624632z"/>
<path fill="#B31B1B" fill-opacity="0.9" d="m-15.71597918028549,-5.106431181261039 l3.001484940191675,4.13118960624632 l4.856504649951071,-1.5779740156158 l-3.001484940191675,-4.13118960624632z"/>
<path fill="#B31B1B" fill-opacity="0.9" d="m4.856504649951073,-6.68440519687684 l-4.856504649951072,1.5779740156157986 l-7.239891503698072e-16,5.1064311812610415 l4.856504649951072,-1.5779740156157986z"/>
<path fill="#B31B1B" fill-opacity="0.9" d="m4.856504649951071,-6.68440519687684 l8.881784197001252e-16,5.106431181261041 l-4.856504649951072,1.5779740156157998 l-8.881784197001252e-16,-5.106431181261041z"/>
<path fill="#B31B1B" fill-opacity="0.9" d="m-4.856504649951071,-6.68440519687684 l-8.881784197001252e-16,5.106431181261041 l4.856504649951072,1.5779740156157993 l8.881784197001252e-16,-5.106431181261041z"/>
<path fill="#B31B1B" fill-opacity="0.9" d="m-4.856504649951073,-6.68440519687684 l4.856504649951071,1.5779740156157986 l1.3493466104895643e-15,5.1064311812610415 l-4.856504649951071,-1.5779740156157986z"/>
<path fill="#B31B1B" fill-opacity="0.9" d="m20.572483830236564,-6.684405196876839 l-4.856504649951074,1.5779740156157986 l-1.7763568394002505e-15,5.1064311812610415 l4.856504649951074,-1.5779740156157986z"/>
<path fill="#B31B1B" fill-opacity="0.9" d="m-20.572483830236564,-6.684405196876837 l4.856504649951074,1.5779740156157986 l1.7763568394002505e-15,5.1064311812610415 l-4.856504649951074,-1.5779740156157986z"/>
<path fill="#B31B1B" fill-opacity="0.9" d="m20.572483830236564,-6.684405196876839 l4.85650464995107,1.5779740156157986 l-3.552713678800501e-15,5.1064311812610415 l-4.85650464995107,-1.5779740156157986z"/>
<path fill="#B31B1B" fill-opacity="0.9" d="m-20.572483830236564,-6.684405196876837 l-4.85650464995107,1.5779740156158004 l3.552713678800501e-15,5.1064311812610415 l4.85650464995107,-1.5779740156158004z"/>
<path fill="#B31B1B" fill-opacity="0.9" d="m36.28846301052205,-6.68440519687684 l0.0,5.1064311812610415 l4.85650464995107,1.5779740156157989 l-0.0,-5.1064311812610415z"/>
<path fill="#B31B1B" fill-opacity="0.9" d="m30.285493130138704,-6.684405196876839 l0.0,5.106431181261041 l-4.856504649951074,1.5779740156157993 l-0.0,-5.106431181261041z"/>
<path fill="#B31B1B" fill-opacity="0.9" d="m-30.285493130138704,-6.684405196876836 l0.0,5.106431181261041 l4.856504649951074,1.5779740156157989 l-0.0,-5.106431181261041z"/>
<path fill="#B31B1B" fill-opacity="0.9" d="m-36.28846301052205,-6.684405196876835 l0.0,5.106431181261041 l-4.85650464995107,1.5779740156157993 l-0.0,-5.106431181261041z"/>
<path fill="#B31B1B" fill-opacity="0.37" d="m4.856504649951072,-1.5779740156157998 l-8.881784197001252e-16,-5.106431181261041 l3.0014849401916734,4.131189606246319 l8.881784197001252e-16,5.106431181261041z"/>
<path fill="#B31B1B" fill-opacity="0.37" d="m-4.856504649951072,-1.5779740156157993 l8.881784197001252e-16,-5.106431181261041 l-3.0014849401916734,4.13118960624632 l-8.881784197001252e-16,5.106431181261041z"/>
<path fill="#B31B1B" fill-opacity="0.37" d="m4.856504649951072,-1.5779740156157989 l3.0014849401916726,4.13118960624632 l0.0,-5.106431181261041 l-3.0014849401916726,-4.13118960624632z"/>
<path fill="#B31B1B" fill-opacity="0.37" d="m-4.856504649951072,-1.5779740156157984 l-3.0014849401916726,4.13118960624632 l0.0,-5.106431181261041 l3.0014849401916726,-4.13118960624632z"/>
<path fill="#B31B1B" fill-opacity="0.37" d="m36.28846301052205,-1.5779740156157986 l-3.0014849401916734,4.131189606246318 l0.0,-5.10643118126104 l3.0014849401916734,-4.131189606246318z"/>
<path fill="#B31B1B" fill-opacity="0.37" d="m30.285493130138704,-1.5779740156157982 l0.0,-5.106431181261041 l3.0014849401916734,4.13118960624632 l-0.0,5.106431181261041z"/>
<path fill="#B31B1B" fill-opacity="0.37" d="m-30.285493130138704,-1.5779740156157946 l0.0,-5.106431181261041 l-3.0014849401916734,4.13118960624632 l-0.0,5.106431181261041z"/>
<path fill="#B31B1B" fill-opacity="0.37" d="m-36.28846301052205,-1.5779740156157942 l3.0014849401916734,4.131189606246318 l0.0,-5.10643118126104 l-3.0014849401916734,-4.131189606246318z"/>
<path fill="#B31B1B" fill-opacity="0.37" d="m12.714494240093815,-0.9752415750147204 l3.001484940191675,-4.13118960624632 l-1.7763568394002505e-15,5.1064311812610415 l-3.001484940191675,4.13118960624632z"/>
<path fill="#B31B1B" fill-opacity="0.37" d="m-12.714494240093815,-0.9752415750147189 l-3.001484940191675,-4.13118960624632 l1.7763568394002505e-15,5.1064311812610415 l3.001484940191675,4.13118960624632z"/>
<path fill="#B31B1B" fill-opacity="0.9" d="m12.714494240093815,4.13118960624632 l0.0,-5.106431181261041 l-4.856504649951071,-1.5779740156157995 l-0.0,5.106431181261041z"/>
<path fill="#B31B1B" fill-opacity="0.9" d="m-12.714494240093815,4.131189606246322 l0.0,-5.106431181261041 l4.856504649951071,-1.5779740156158 l-0.0,5.106431181261041z"/>
<path fill="#B31B1B" fill-opacity="0.9" d="m7.857989590142745,2.5532155906305185 l-4.856504649951071,1.5779740156158013 l-3.0014849401916743,-4.13118960624632 l4.856504649951071,-1.5779740156158013z"/>
<path fill="#B31B1B" fill-opacity="0.9" d="m-7.857989590142745,2.5532155906305194 l4.856504649951072,1.5779740156158004 l3.0014849401916734,-4.13118960624632 l-4.856504649951072,-1.5779740156158004z"/>
<path fill="#B31B1B" fill-opacity="0.9" d="m7.857989590142744,2.5532155906305207 l-3.0014849401916726,-4.13118960624632 l-4.856504649951072,1.5779740156157989 l3.0014849401916726,4.13118960624632z"/>
<path fill="#B31B1B" fill-opacity="0.9" d="m-7.857989590142744,2.5532155906305216 l3.0014849401916726,-4.13118960624632 l4.856504649951072,1.5779740156157984 l-3.0014849401916726,4.13118960624632z"/>
<path fill="#B31B1B" fill-opacity="0.37" d="m17.570998890044883,2.5532155906305203 l-4.856504649951068,1.5779740156157995 l3.0014849401916734,-4.131189606246319 l4.856504649951068,-1.5779740156157995z"/>
<path fill="#B31B1B" fill-opacity="0.37" d="m-17.570998890044883,2.553215590630522 l4.856504649951068,1.5779740156157995 l-3.0014849401916734,-4.131189606246319 l-4.856504649951068,-1.5779740156157995z"/>
<path fill="#B31B1B" fill-opacity="0.9" d="m33.28697807033038,2.55321559063052 l4.856504649951077,1.577974015615799 l3.0014849401916663,-4.131189606246319 l-4.856504649951077,-1.577974015615799z"/>
<path fill="#B31B1B" fill-opacity="0.9" d="m33.28697807033038,2.55321559063052 l-3.0014849401916734,-4.131189606246318 l-4.856504649951074,1.5779740156157993 l3.0014849401916734,4.131189606246318z"/>
<path fill="#B31B1B" fill-opacity="0.37" d="m23.57396877042823,2.5532155906305207 l4.856504649951077,1.5779740156157982 l-3.001484940191677,-4.131189606246318 l-4.856504649951077,-1.5779740156157982z"/>
<path fill="#B31B1B" fill-opacity="0.37" d="m-23.57396877042823,2.5532155906305234 l-4.856504649951077,1.577974015615799 l3.001484940191677,-4.131189606246318 l4.856504649951077,-1.577974015615799z"/>
<path fill="#B31B1B" fill-opacity="0.9" d="m-33.28697807033038,2.5532155906305243 l3.0014849401916734,-4.131189606246319 l4.856504649951074,1.5779740156157989 l-3.0014849401916734,4.131189606246319z"/>
<path fill="#B31B1B" fill-opacity="0.9" d="m-33.28697807033038,2.5532155906305243 l-4.856504649951077,1.5779740156158 l-3.0014849401916663,-4.131189606246319 l4.856504649951077,-1.5779740156158z"/>
<path fill="#B31B1B" fill-opacity="0.9" d="m20.57248383023656,-1.5779740156158 l-3.001484940191677,4.13118960624632 l3.0014849401916734,4.13118960624632 l3.001484940191677,-4.13118960624632z"/>
<path fill="#B31B1B" fill-opacity="0.9" d="m-20.57248383023656,-1.5779740156157973 l3.001484940191677,4.13118960624632 l-3.0014849401916734,4.13118960624632 l-3.001484940191677,-4.13118960624632z"/>
<path fill="#B31B1B" fill-opacity="0.9" d="m5.05924812796037e-16,8.26237921249264 l-3.001484940191673,-4.131189606246319 l3.0014849401916726,-4.131189606246321 l3.001484940191673,4.131189606246319z"/>
<path fill="#B31B1B" fill-opacity="0.9" d="m41.14496766047312,8.262379212492641 l-3.0014849401916663,-4.1311896062463225 l3.0014849401916663,-4.131189606246319 l3.0014849401916663,4.1311896062463225z"/>
<path fill="#B31B1B" fill-opacity="0.9" d="m-41.14496766047312,8.262379212492645 l3.0014849401916663,-4.131189606246321 l-3.0014849401916663,-4.131189606246319 l-3.0014849401916663,4.131189606246321z"/>
<path fill="#B31B1B" fill-opacity="0.9" d="m12.714494240093817,4.131189606246316 l3.0014849401916734,4.131189606246318 l4.85650464995107,-1.5779740156158004 l-3.0014849401916734,-4.131189606246318z"/>
<path fill="#B31B1B" fill-opacity="0.9" d="m-12.714494240093817,4.131189606246318 l-3.0014849401916734,4.13118960624632 l-4.85650464995107,-1.5779740156158022 l3.0014849401916734,-4.13118960624632z"/>
<path fill="#B31B1B" fill-opacity="0.9" d="m12.714494240093817,4.131189606246316 l-3.00148494019167,4.131189606246322 l-4.856504649951074,-1.5779740156157986 l3.00148494019167,-4.131189606246322z"/>
<path fill="#B31B1B" fill-opacity="0.9" d="m-12.714494240093817,4.131189606246318 l3.00148494019167,4.13118960624632 l4.856504649951074,-1.5779740156157986 l-3.00148494019167,-4.13118960624632z"/>
<path fill="#B31B1B" fill-opacity="0.37" d="m3.0014849401916743,4.13118960624632 l4.856504649951071,-1.5779740156158013 l-3.0014849401916717,4.131189606246321 l-4.856504649951071,1.5779740156158013z"/>
<path fill="#B31B1B" fill-opacity="0.37" d="m-3.0014849401916734,4.13118960624632 l-4.856504649951072,-1.5779740156158004 l3.0014849401916717,4.13118960624632 l4.856504649951072,1.5779740156158004z"/>
<path fill="#B31B1B" fill-opacity="0.9" d="m28.430473420379307,4.131189606246319 l-3.0014849401916806,4.131189606246319 l-4.85650464995107,-1.5779740156157978 l3.0014849401916806,-4.131189606246319z"/>
<path fill="#B31B1B" fill-opacity="0.9" d="m12.714494240093815,4.13118960624632 l4.856504649951068,-1.5779740156157995 l3.0014849401916734,4.13118960624632 l-4.856504649951068,1.5779740156157995z"/>
<path fill="#B31B1B" fill-opacity="0.37" d="m3.0014849401916734,4.131189606246321 l-3.001484940191673,4.131189606246319 l4.856504649951071,-1.5779740156157986 l3.001484940191673,-4.131189606246319z"/>
<path fill="#B31B1B" fill-opacity="0.37" d="m-3.0014849401916726,4.131189606246321 l3.001484940191673,4.131189606246319 l-4.856504649951073,-1.5779740156157986 l-3.001484940191673,-4.131189606246319z"/>
<path fill="#B31B1B" fill-opacity="0.9" d="m-12.714494240093815,4.131189606246322 l-4.856504649951068,-1.5779740156157995 l-3.0014849401916734,4.13118960624632 l4.856504649951068,1.5779740156157995z"/>
<path fill="#B31B1B" fill-opacity="0.9" d="m-28.430473420379307,4.1311896062463225 l3.0014849401916806,4.131189606246319 l4.85650464995107,-1.5779740156157995 l-3.0014849401916806,-4.131189606246319z"/>
<path fill="#B31B1B" fill-opacity="0.37" d="m38.143482720281455,4.131189606246319 l-4.856504649951077,-1.577974015615799 l3.0014849401916734,4.13118960624632 l4.856504649951077,1.577974015615799z"/>
<path fill="#B31B1B" fill-opacity="0.37" d="m-38.143482720281455,4.131189606246324 l4.856504649951077,-1.5779740156158 l-3.0014849401916734,4.13118960624632 l-4.856504649951077,1.5779740156158z"/>
<path fill="#B31B1B" fill-opacity="0.37" d="m44.146452600664794,4.13118960624632 l-3.0014849401916734,4.131189606246322 l4.85650464995107,-1.5779740156158013 l3.0014849401916734,-4.131189606246322z"/>
<path fill="#B31B1B" fill-opacity="0.37" d="m-44.146452600664794,4.131189606246325 l3.0014849401916734,4.13118960624632 l-4.85650464995107,-1.5779740156157995 l-3.0014849401916734,-4.13118960624632z"/>
<path fill="#B31B1B" fill-opacity="0.9" d="m33.28697807033038,2.55321559063052 l0.0,5.106431181261041 l-4.856504649951077,1.5779740156157995 l-0.0,-5.106431181261041z"/>
<path fill="#B31B1B" fill-opacity="0.9" d="m-33.28697807033038,2.5532155906305243 l0.0,5.106431181261041 l4.856504649951077,1.5779740156157995 l-0.0,-5.106431181261041z"/>
<path fill="#B31B1B" fill-opacity="0.37" d="m33.28697807033038,7.659646771891561 l3.0014849401916734,4.13118960624632 l0.0,-5.1064311812610415 l-3.0014849401916734,-4.13118960624632z"/>
<path fill="#B31B1B" fill-opacity="0.37" d="m-33.28697807033038,7.659646771891564 l-3.0014849401916734,4.13118960624632 l0.0,-5.10643118126104 l3.0014849401916734,-4.13118960624632z"/>
<path fill="#B31B1B" fill-opacity="0.37" d="m25.428988480187634,8.26237921249263 l3.552713678800501e-15,5.106431181261044 l3.00148494019167,-4.131189606246323 l-3.552713678800501e-15,-5.106431181261044z"/>
<path fill="#B31B1B" fill-opacity="0.37" d="m-25.428988480187634,8.262379212492634 l-3.552713678800501e-15,5.106431181261044 l-3.00148494019167,-4.131189606246323 l3.552713678800501e-15,-5.106431181261044z"/>
<path fill="#B31B1B" fill-opacity="0.37" d="m15.71597918028549,8.262379212492634 l-3.0014849401916734,-4.131189606246318 l1.7763568394002505e-15,5.106431181261042 l3.0014849401916734,4.131189606246318z"/>
<path fill="#B31B1B" fill-opacity="0.37" d="m-15.71597918028549,8.262379212492638 l3.0014849401916734,-4.13118960624632 l-1.7763568394002505e-15,5.106431181261041 l-3.0014849401916734,4.13118960624632z"/>
<path fill="#B31B1B" fill-opacity="0.37" d="m9.713009299902147,8.262379212492638 l1.7763568394002505e-15,5.106431181261044 l3.00148494019167,-4.131189606246323 l-1.7763568394002505e-15,-5.106431181261044z"/>
<path fill="#B31B1B" fill-opacity="0.37" d="m-9.713009299902147,8.262379212492638 l-1.7763568394002505e-15,5.106431181261044 l-3.00148494019167,-4.131189606246323 l1.7763568394002505e-15,-5.106431181261044z"/>
<path fill="#B31B1B" fill-opacity="0.37" d="m25.428988480187627,8.262379212492638 l3.0014849401916806,-4.131189606246319 l-7.105427357601002e-15,5.1064311812610415 l-3.0014849401916806,4.131189606246319z"/>
<path fill="#B31B1B" fill-opacity="0.37" d="m-25.428988480187627,8.262379212492641 l-3.0014849401916806,-4.131189606246319 l7.105427357601002e-15,5.1064311812610415 l3.0014849401916806,4.131189606246319z"/>
<path fill="#B31B1B" fill-opacity="0.9" d="m25.428988480187638,13.368810393753675 l-3.552713678800501e-15,-5.106431181261044 l-4.856504649951074,-1.5779740156157969 l3.552713678800501e-15,5.106431181261044z"/>
<path fill="#B31B1B" fill-opacity="0.9" d="m-25.428988480187638,13.368810393753678 l3.552713678800501e-15,-5.106431181261044 l4.856504649951074,-1.5779740156157986 l-3.552713678800501e-15,5.106431181261044z"/>
<path fill="#B31B1B" fill-opacity="0.9" d="m15.715979180285492,13.368810393753678 l-1.7763568394002505e-15,-5.106431181261044 l4.85650464995107,-1.5779740156158004 l1.7763568394002505e-15,5.106431181261044z"/>
<path fill="#B31B1B" fill-opacity="0.9" d="m-15.715979180285492,13.368810393753682 l1.7763568394002505e-15,-5.106431181261044 l-4.85650464995107,-1.5779740156158022 l-1.7763568394002505e-15,5.106431181261044z"/>
<path fill="#B31B1B" fill-opacity="0.9" d="m9.713009299902149,13.368810393753682 l-1.7763568394002505e-15,-5.106431181261044 l-4.856504649951074,-1.5779740156157986 l1.7763568394002505e-15,5.106431181261044z"/>
<path fill="#B31B1B" fill-opacity="0.9" d="m8.186035428559156e-16,13.36881039375368 l4.856504649951072,-1.5779740156157978 l-8.881784197001252e-16,-5.1064311812610415 l-4.856504649951072,1.5779740156157978z"/>
<path fill="#B31B1B" fill-opacity="0.9" d="m8.186035428559156e-16,13.36881039375368 l-4.856504649951072,-1.5779740156157978 l-8.881784197001252e-16,-5.1064311812610415 l4.856504649951072,1.5779740156157978z"/>
<path fill="#B31B1B" fill-opacity="0.9" d="m-9.713009299902149,13.368810393753682 l1.7763568394002505e-15,-5.106431181261044 l4.856504649951074,-1.5779740156157986 l-1.7763568394002505e-15,5.106431181261044z"/>
<path fill="#B31B1B" fill-opacity="0.9" d="m50.85797696037526,13.36881039375368 l-4.85650464995107,-1.5779740156158013 l0.0,-5.106431181261039 l4.85650464995107,1.5779740156158013z"/>
<path fill="#B31B1B" fill-opacity="0.9" d="m41.14496766047312,13.368810393753682 l4.85650464995107,-1.577974015615803 l0.0,-5.106431181261039 l-4.85650464995107,1.577974015615803z"/>
<path fill="#B31B1B" fill-opacity="0.9" d="m41.14496766047312,13.368810393753682 l-4.85650464995107,-1.5779740156158013 l0.0,-5.1064311812610415 l4.85650464995107,1.5779740156158013z"/>
<path fill="#B31B1B" fill-opacity="0.9" d="m9.713009299902144,13.368810393753684 l-4.856504649951071,-1.5779740156158013 l-8.881784197001252e-16,-5.1064311812610415 l4.856504649951071,1.5779740156158013z"/>
<path fill="#B31B1B" fill-opacity="0.9" d="m-9.713009299902144,13.368810393753684 l4.856504649951073,-1.5779740156158013 l-8.881784197001252e-16,-5.1064311812610415 l-4.856504649951073,1.5779740156158013z"/>
<path fill="#B31B1B" fill-opacity="0.9" d="m-41.14496766047312,13.368810393753686 l4.85650464995107,-1.5779740156158013 l0.0,-5.10643118126104 l-4.85650464995107,1.5779740156158013z"/>
<path fill="#B31B1B" fill-opacity="0.9" d="m-41.14496766047312,13.368810393753686 l-4.85650464995107,-1.5779740156157995 l0.0,-5.106431181261041 l4.85650464995107,1.5779740156157995z"/>
<path fill="#B31B1B" fill-opacity="0.9" d="m-50.85797696037526,13.368810393753687 l4.85650464995107,-1.5779740156158013 l0.0,-5.106431181261041 l-4.85650464995107,1.5779740156158013z"/>
<path fill="#B31B1B" fill-opacity="0.9" d="m36.28846301052205,11.790836378137874 l-4.8565046499510665,1.5779740156157978 l-3.001484940191677,-4.13118960624632 l4.8565046499510665,-1.5779740156157978z"/>
<path fill="#B31B1B" fill-opacity="0.9" d="m-36.28846301052205,11.790836378137877 l4.8565046499510665,1.5779740156157978 l3.001484940191677,-4.13118960624632 l-4.8565046499510665,-1.5779740156157978z"/>
<path fill="#B31B1B" fill-opacity="0.9" d="m36.28846301052205,11.79083637813788 l-3.0014849401916734,-4.13118960624632 l-4.856504649951077,1.5779740156157995 l3.0014849401916734,4.13118960624632z"/>
<path fill="#B31B1B" fill-opacity="0.9" d="m-36.28846301052205,11.790836378137884 l3.0014849401916734,-4.13118960624632 l4.856504649951077,1.5779740156157995 l-3.0014849401916734,4.13118960624632z"/>
<path fill="#B31B1B" fill-opacity="0.9" d="m28.43047342037931,17.499999999999996 l3.0014849401916734,-4.131189606246325 l-3.001484940191677,-4.13118960624632 l-3.0014849401916734,4.131189606246325z"/>
<path fill="#B31B1B" fill-opacity="0.9" d="m-28.43047342037931,17.499999999999996 l-3.0014849401916734,-4.131189606246322 l3.001484940191677,-4.13118960624632 l3.0014849401916734,4.131189606246322z"/>
<path fill="#B31B1B" fill-opacity="0.37" d="m20.572483830236564,11.790836378137875 l4.856504649951074,1.5779740156157995 l-4.856504649951074,1.5779740156157978 l-4.856504649951074,-1.5779740156157995z"/>
<path fill="#B31B1B" fill-opacity="0.37" d="m-20.572483830236564,11.790836378137879 l-4.856504649951074,1.5779740156157995 l4.856504649951074,1.5779740156157978 l4.856504649951074,-1.5779740156157995z"/>
<path fill="#B31B1B" fill-opacity="0.9" d="m12.714494240093824,17.5 l-3.001484940191675,-4.131189606246318 l3.00148494019167,-4.131189606246323 l3.001484940191675,4.131189606246318z"/>
<path fill="#B31B1B" fill-opacity="0.9" d="m-12.71449424009382,17.5 l3.0014849401916717,-4.131189606246318 l-3.00148494019167,-4.131189606246323 l-3.0014849401916717,4.131189606246318z"/>
<path fill="#B31B1B" fill-opacity="0.37" d="m46.00147231042419,11.790836378137879 l4.85650464995107,1.5779740156158013 l-4.85650464995107,1.5779740156157978 l-4.85650464995107,-1.5779740156158013z"/>
<path fill="#B31B1B" fill-opacity="0.37" d="m4.856504649951073,11.790836378137882 l4.856504649951071,1.5779740156158013 l-4.856504649951071,1.5779740156157978 l-4.856504649951071,-1.5779740156158013z"/>
<path fill="#B31B1B" fill-opacity="0.37" d="m-4.856504649951071,11.790836378137882 l-4.856504649951073,1.5779740156158013 l4.856504649951073,1.5779740156157978 l4.856504649951073,-1.5779740156158013z"/>
<path fill="#B31B1B" fill-opacity="0.37" d="m-46.00147231042419,11.790836378137886 l-4.85650464995107,1.5779740156158013 l4.85650464995107,1.5779740156157978 l4.85650464995107,-1.5779740156158013z"/>
<path fill="#B31B1B" fill-opacity="0.9" d="m41.14496766047313,13.368810393753671 l-4.856504649951077,-1.5779740156157978 l-3.0014849401916663,4.13118960624632 l4.856504649951077,1.5779740156157978z"/>
<path fill="#B31B1B" fill-opacity="0.37" d="m31.431958360570984,13.368810393753671 l4.8565046499510665,-1.5779740156157978 l-3.0014849401916663,4.13118960624632 l-4.8565046499510665,1.5779740156157978z"/>
<path fill="#B31B1B" fill-opacity="0.37" d="m-31.431958360570984,13.368810393753675 l-4.8565046499510665,-1.5779740156157978 l3.0014849401916663,4.13118960624632 l4.8565046499510665,1.5779740156157978z"/>
<path fill="#B31B1B" fill-opacity="0.9" d="m-41.14496766047313,13.368810393753675 l4.856504649951077,-1.5779740156157978 l3.0014849401916663,4.13118960624632 l-4.856504649951077,1.5779740156157978z"/>
<path fill="#B31B1B" fill-opacity="0.9" d="m53.85946190056694,17.499999999999986 l-4.85650464995107,1.5779740156158013 l-3.0014849401916734,-4.13118960624632 l4.85650464995107,-1.5779740156158013z"/>
<path fill="#B31B1B" fill-opacity="0.9" d="m-53.85946190056694,17.499999999999993 l4.85650464995107,1.5779740156158013 l3.0014849401916734,-4.13118960624632 l-4.85650464995107,-1.5779740156158013z"/>
<path fill="#B31B1B" fill-opacity="0.37" d="m44.1464526006648,17.49999999999999 l4.85650464995107,1.5779740156157978 l-3.0014849401916734,-4.13118960624632 l-4.85650464995107,-1.5779740156157978z"/>
<path fill="#B31B1B" fill-opacity="0.37" d="m-44.1464526006648,17.499999999999996 l-4.85650464995107,1.5779740156157978 l3.0014849401916734,-4.13118960624632 l4.85650464995107,-1.5779740156157978z"/>
<path fill="#B31B1B" fill-opacity="0.9" d="m28.43047342037931,17.499999999999996 l-4.85650464995107,1.5779740156157978 l-3.001484940191677,-4.131189606246322 l4.85650464995107,-1.5779740156157978z"/>
<path fill="#B31B1B" fill-opacity="0.9" d="m12.714494240093824,17.5 l4.8565046499510665,1.5779740156157942 l3.0014849401916734,-4.131189606246322 l-4.8565046499510665,-1.5779740156157942z"/>
<path fill="#B31B1B" fill-opacity="0.9" d="m-12.71449424009382,17.5 l-4.85650464995107,1.5779740156157942 l-3.0014849401916734,-4.131189606246318 l4.85650464995107,-1.5779740156157942z"/>
<path fill="#B31B1B" fill-opacity="0.9" d="m-28.43047342037931,17.499999999999996 l4.85650464995107,1.5779740156157978 l3.001484940191677,-4.131189606246318 l-4.85650464995107,-1.5779740156157978z"/>
<path fill="#B31B1B" fill-opacity="0.9" d="m53.859461900566934,17.5 l-3.0014849401916734,-4.13118960624632 l-4.85650464995107,1.5779740156157978 l3.0014849401916734,4.13118960624632z"/>
<path fill="#B31B1B" fill-opacity="0.9" d="m12.714494240093819,17.500000000000004 l-3.001484940191675,-4.13118960624632 l-4.856504649951071,1.5779740156157978 l3.001484940191675,4.13118960624632z"/>
<path fill="#B31B1B" fill-opacity="0.37" d="m3.001484940191674,17.5 l-3.001484940191673,-4.13118960624632 l4.856504649951072,1.5779740156158013 l3.001484940191673,4.13118960624632z"/>
<path fill="#B31B1B" fill-opacity="0.37" d="m-3.001484940191672,17.5 l3.001484940191673,-4.13118960624632 l-4.856504649951072,1.5779740156158013 l-3.001484940191673,4.13118960624632z"/>
<path fill="#B31B1B" fill-opacity="0.9" d="m-12.714494240093815,17.500000000000004 l3.0014849401916717,-4.13118960624632 l4.856504649951073,1.5779740156157978 l-3.0014849401916717,4.13118960624632z"/>
<path fill="#B31B1B" fill-opacity="0.9" d="m-53.859461900566934,17.500000000000007 l3.0014849401916734,-4.13118960624632 l4.85650464995107,1.5779740156157978 l-3.0014849401916734,4.13118960624632z"/>
<path fill="#B31B1B" fill-opacity="0.9" d="m41.14496766047313,13.368810393753671 l3.0014849401916734,4.131189606246318 l-3.0014849401916734,4.13118960624632 l-3.0014849401916734,-4.131189606246318z"/>
<path fill="#B31B1B" fill-opacity="0.37" d="m33.286978070330385,19.07797401561579 l-4.856504649951074,-1.5779740156157942 l4.856504649951074,-1.577974015615803 l4.856504649951074,1.5779740156157942z"/>
<path fill="#B31B1B" fill-opacity="0.37" d="m-33.286978070330385,19.077974015615798 l4.856504649951074,-1.5779740156158013 l-4.856504649951074,-1.5779740156157995 l-4.856504649951074,1.5779740156158013z"/>
<path fill="#B31B1B" fill-opacity="0.9" d="m-41.14496766047313,13.368810393753675 l-3.0014849401916734,4.131189606246322 l3.0014849401916734,4.13118960624632 l3.0014849401916734,-4.131189606246322z"/>
<path fill="#B31B1B" fill-opacity="0.9" d="m8.186035428559156e-16,13.36881039375368 l-3.001484940191673,4.13118960624632 l3.0014849401916734,4.131189606246316 l3.001484940191673,-4.13118960624632z"/>
<path fill="#B31B1B" fill-opacity="0.9" d="m20.572483830236568,23.209163621862118 l3.0014849401916734,-4.131189606246323 l-3.001484940191677,-4.131189606246322 l-3.0014849401916734,4.131189606246323z"/>
<path fill="#B31B1B" fill-opacity="0.9" d="m-20.572483830236568,23.209163621862118 l-3.0014849401916734,-4.131189606246323 l3.001484940191677,-4.131189606246318 l3.0014849401916734,4.131189606246323z"/>
<path fill="#B31B1B" fill-opacity="0.9" d="m49.00295725061587,19.077974015615787 l-4.85650464995107,-1.5779740156157978 l-3.0014849401916734,4.13118960624632 l4.85650464995107,1.5779740156157978z"/>
<path fill="#B31B1B" fill-opacity="0.9" d="m-49.00295725061587,19.077974015615794 l4.85650464995107,-1.5779740156157978 l3.0014849401916734,4.13118960624632 l-4.85650464995107,1.5779740156157978z"/>
<path fill="#B31B1B" fill-opacity="0.37" d="m23.57396877042824,19.077974015615794 l-3.0014849401916734,4.131189606246323 l4.856504649951074,-1.5779740156158013 l3.0014849401916734,-4.131189606246323z"/>
<path fill="#B31B1B" fill-opacity="0.37" d="m17.57099889004489,19.077974015615794 l3.001484940191677,4.131189606246323 l-4.856504649951072,-1.5779740156158013 l-3.001484940191677,-4.131189606246323z"/>
<path fill="#B31B1B" fill-opacity="0.37" d="m-17.57099889004489,19.077974015615794 l-3.001484940191677,4.131189606246323 l4.856504649951075,-1.5779740156158013 l3.001484940191677,-4.131189606246323z"/>
<path fill="#B31B1B" fill-opacity="0.37" d="m-23.57396877042824,19.077974015615794 l3.0014849401916734,4.131189606246323 l-4.856504649951074,-1.5779740156158013 l-3.0014849401916734,-4.131189606246323z"/>
<path fill="#B31B1B" fill-opacity="0.9" d="m7.857989590142746,19.0779740156158 l-4.856504649951072,-1.5779740156158013 l-3.0014849401916726,4.131189606246316 l4.856504649951072,1.5779740156158013z"/>
<path fill="#B31B1B" fill-opacity="0.9" d="m-7.857989590142744,19.0779740156158 l4.856504649951072,-1.5779740156158013 l3.0014849401916734,4.131189606246316 l-4.856504649951072,1.5779740156158013z"/>
<path fill="#B31B1B" fill-opacity="0.9" d="m38.143482720281455,17.49999999999999 l-4.85650464995107,1.5779740156158013 l0.0,5.106431181261041 l4.85650464995107,-1.5779740156158013z"/>
<path fill="#B31B1B" fill-opacity="0.9" d="m-38.143482720281455,17.499999999999996 l4.85650464995107,1.5779740156158013 l0.0,5.106431181261041 l-4.85650464995107,-1.5779740156158013z"/>
<path fill="#B31B1B" fill-opacity="0.9" d="m28.43047342037931,17.499999999999996 l4.856504649951074,1.5779740156157942 l0.0,5.106431181261041 l-4.856504649951074,-1.5779740156157942z"/>
<path fill="#B31B1B" fill-opacity="0.9" d="m-28.43047342037931,17.499999999999996 l-4.856504649951074,1.5779740156158013 l0.0,5.106431181261041 l4.856504649951074,-1.5779740156158013z"/>
<path fill="#B31B1B" fill-opacity="0.9" d="m12.714494240093819,17.500000000000004 l-1.7763568394002505e-15,5.106431181261041 l-4.856504649951072,1.5779740156157942 l1.7763568394002505e-15,-5.106431181261041z"/>
<path fill="#B31B1B" fill-opacity="0.9" d="m-12.714494240093815,17.500000000000004 l1.7763568394002505e-15,5.106431181261041 l4.856504649951072,1.5779740156157942 l-1.7763568394002505e-15,-5.106431181261041z"/>
<path fill="#B31B1B" fill-opacity="0.37" d="m38.143482720281455,22.60643118126103 l0.0,-5.106431181261041 l3.0014849401916734,4.13118960624632 l-0.0,5.106431181261041z"/>
<path fill="#B31B1B" fill-opacity="0.37" d="m-38.143482720281455,22.606431181261037 l0.0,-5.106431181261041 l-3.0014849401916734,4.13118960624632 l-0.0,5.106431181261041z"/>
<path fill="#B31B1B" fill-opacity="0.37" d="m28.430473420379315,22.606431181261037 l-3.552713678800501e-15,-5.106431181261041 l-3.00148494019167,4.13118960624632 l3.552713678800501e-15,5.106431181261041z"/>
<path fill="#B31B1B" fill-opacity="0.37" d="m-28.430473420379315,22.606431181261037 l3.552713678800501e-15,-5.106431181261041 l3.00148494019167,4.13118960624632 l-3.552713678800501e-15,5.106431181261041z"/>
<path fill="#B31B1B" fill-opacity="0.37" d="m12.714494240093817,22.606431181261044 l3.0014849401916734,4.131189606246316 l0.0,-5.106431181261037 l-3.0014849401916734,-4.131189606246316z"/>
<path fill="#B31B1B" fill-opacity="0.37" d="m-12.714494240093813,22.606431181261044 l-3.0014849401916734,4.131189606246316 l0.0,-5.106431181261037 l3.0014849401916734,-4.131189606246316z"/>
<path fill="#B31B1B" fill-opacity="0.37" d="m4.856504649951074,23.209163621862118 l8.881784197001252e-16,5.106431181261044 l3.001484940191671,-4.131189606246323 l-8.881784197001252e-16,-5.106431181261044z"/>
<path fill="#B31B1B" fill-opacity="0.37" d="m-4.85650464995107,23.209163621862118 l-8.881784197001252e-16,5.106431181261044 l-3.001484940191671,-4.131189606246323 l8.881784197001252e-16,-5.106431181261044z"/>
<path fill="#B31B1B" fill-opacity="0.9" d="m20.572483830236568,28.315594803123155 l4.856504649951074,-1.5779740156157978 l0.0,-5.106431181261041 l-4.856504649951074,1.5779740156157978z"/>
<path fill="#B31B1B" fill-opacity="0.9" d="m20.572483830236568,28.315594803123155 l0.0,-5.106431181261037 l-4.856504649951072,-1.5779740156158013 l-0.0,5.106431181261037z"/>
<path fill="#B31B1B" fill-opacity="0.9" d="m-20.572483830236568,28.315594803123155 l0.0,-5.106431181261037 l4.856504649951075,-1.5779740156158013 l-0.0,5.106431181261037z"/>
<path fill="#B31B1B" fill-opacity="0.9" d="m-20.572483830236568,28.315594803123155 l-4.856504649951074,-1.5779740156157978 l0.0,-5.106431181261041 l4.856504649951074,1.5779740156157978z"/>
<path fill="#B31B1B" fill-opacity="0.9" d="m4.8565046499510744,28.31559480312316 l-4.856504649951073,-1.5779740156158013 l-3.126787300598789e-16,-5.106431181261044 l4.856504649951073,1.5779740156158013z"/>
<path fill="#B31B1B" fill-opacity="0.9" d="m-4.856504649951071,28.31559480312316 l4.856504649951073,-1.5779740156158013 l-3.126787300598789e-16,-5.106431181261044 l-4.856504649951073,1.5779740156158013z"/>
<path fill="#B31B1B" fill-opacity="0.9" d="m20.57248383023656,28.31559480312316 l-4.85650464995107,-1.5779740156158013 l0.0,-5.106431181261037 l4.85650464995107,1.5779740156158013z"/>
<path fill="#B31B1B" fill-opacity="0.9" d="m-20.57248383023656,28.31559480312316 l4.856504649951074,-1.5779740156158013 l0.0,-5.106431181261037 l-4.856504649951074,1.5779740156158013z"/>
<path fill="#B31B1B" fill-opacity="0.9" d="m25.42898848018764,26.737620787507357 l3.0014849401916734,-4.13118960624632 l4.85650464995107,1.5779740156157942 l-3.0014849401916734,4.13118960624632z"/>
<path fill="#B31B1B" fill-opacity="0.9" d="m-25.42898848018764,26.737620787507357 l-3.0014849401916734,-4.13118960624632 l-4.85650464995107,1.5779740156158013 l3.0014849401916734,4.13118960624632z"/>
<path fill="#B31B1B" fill-opacity="0.9" d="m15.71597918028549,26.73762078750736 l-4.856504649951072,1.5779740156158013 l-3.0014849401916734,-4.131189606246323 l4.856504649951072,-1.5779740156158013z"/>
<path fill="#B31B1B" fill-opacity="0.9" d="m-15.715979180285487,26.73762078750736 l4.856504649951072,1.5779740156158013 l3.0014849401916734,-4.131189606246323 l-4.856504649951072,-1.5779740156158013z"/>
<path fill="#B31B1B" fill-opacity="0.9" d="m7.857989590142747,32.446784409369485 l3.0014849401916717,-4.131189606246323 l-3.0014849401916734,-4.131189606246323 l-3.0014849401916717,4.131189606246323z"/>
<path fill="#B31B1B" fill-opacity="0.37" d="m1.6372070857118312e-15,26.73762078750736 l-4.856504649951073,1.5779740156158013 l4.856504649951073,1.5779740156157978 l4.856504649951073,-1.5779740156158013z"/>
<path fill="#B31B1B" fill-opacity="0.9" d="m-7.8579895901427435,32.446784409369485 l-3.0014849401916717,-4.131189606246323 l3.0014849401916734,-4.131189606246323 l3.0014849401916717,4.131189606246323z"/>
<path fill="#B31B1B" fill-opacity="0.9" d="m20.57248383023656,28.31559480312316 l-3.0014849401916663,4.131189606246323 l-4.856504649951075,-1.5779740156158013 l3.0014849401916663,-4.131189606246323z"/>
<path fill="#B31B1B" fill-opacity="0.37" d="m10.859474530334419,28.31559480312316 l4.856504649951072,-1.5779740156158013 l-3.0014849401916717,4.131189606246323 l-4.856504649951072,1.5779740156158013z"/>
<path fill="#B31B1B" fill-opacity="0.37" d="m-10.859474530334415,28.31559480312316 l-4.856504649951072,-1.5779740156158013 l3.0014849401916717,4.131189606246323 l4.856504649951072,1.5779740156158013z"/>
<path fill="#B31B1B" fill-opacity="0.9" d="m-20.57248383023656,28.31559480312316 l3.0014849401916734,4.131189606246323 l4.856504649951072,-1.5779740156158013 l-3.0014849401916734,-4.131189606246323z"/>
<path fill="#B31B1B" fill-opacity="0.9" d="m7.857989590142747,32.446784409369485 l-4.856504649951072,1.5779740156158013 l-3.001484940191674,-4.131189606246327 l4.856504649951072,-1.5779740156158013z"/>
<path fill="#B31B1B" fill-opacity="0.9" d="m-7.8579895901427435,32.446784409369485 l4.856504649951072,1.5779740156158013 l3.001484940191673,-4.131189606246327 l-4.856504649951072,-1.5779740156158013z"/>
<path fill="#B31B1B" fill-opacity="0.37" d="m12.714494240093819,34.02475842498528 l-4.856504649951072,-1.5779740156157942 l4.856504649951072,-1.5779740156158013 l4.856504649951072,1.5779740156157942z"/>
<path fill="#B31B1B" fill-opacity="0.37" d="m-12.714494240093815,34.02475842498528 l4.856504649951072,-1.5779740156157942 l-4.856504649951072,-1.5779740156158013 l-4.856504649951072,1.5779740156157942z"/>
<path fill="#B31B1B" fill-opacity="0.9" d="m2.336377981244027e-15,38.1559480312316 l-3.0014849401916734,-4.131189606246316 l3.001484940191673,-4.131189606246327 l3.0014849401916734,4.131189606246316z"/>
<path fill="#B31B1B" fill-opacity="0.37" d="m3.0014849401916757,34.024758424985286 l-3.0014849401916734,4.131189606246316 l4.856504649951073,-1.5779740156157942 l3.0014849401916734,-4.131189606246316z"/>
<path fill="#B31B1B" fill-opacity="0.37" d="m-3.0014849401916712,34.024758424985286 l3.0014849401916734,4.131189606246316 l-4.856504649951073,-1.5779740156157942 l-3.0014849401916734,-4.131189606246316z"/>
<path fill="#B31B1B" fill-opacity="0.9" d="m17.570998890044894,32.446784409369485 l-4.856504649951075,1.5779740156157942 l0.0,5.106431181261044 l4.856504649951075,-1.5779740156157942z"/>
<path fill="#B31B1B" fill-opacity="0.9" d="m7.857989590142747,32.446784409369485 l8.881784197001252e-16,5.106431181261044 l4.856504649951071,1.5779740156157942 l-8.881784197001252e-16,-5.106431181261044z"/>
<path fill="#B31B1B" fill-opacity="0.9" d="m-7.8579895901427435,32.446784409369485 l8.881784197001252e-16,5.106431181261044 l-4.856504649951073,1.5779740156157942 l-8.881784197001252e-16,-5.106431181261044z"/>
<path fill="#B31B1B" fill-opacity="0.9" d="m-17.570998890044887,32.446784409369485 l4.856504649951072,1.5779740156157942 l0.0,5.106431181261044 l-4.856504649951072,-1.5779740156157942z"/>
<path fill="#B31B1B" fill-opacity="0.37" d="m7.857989590142748,37.55321559063053 l-8.881784197001252e-16,-5.106431181261044 l-3.0014849401916717,4.131189606246323 l8.881784197001252e-16,5.106431181261044z"/>
<path fill="#B31B1B" fill-opacity="0.37" d="m-7.857989590142743,37.55321559063053 l-8.881784197001252e-16,-5.106431181261044 l3.0014849401916734,4.131189606246323 l8.881784197001252e-16,5.106431181261044z"/>
<path fill="#B31B1B" fill-opacity="0.9" d="m2.6490567113039057e-15,43.26237921249265 l-3.126787300598789e-16,-5.106431181261044 l4.856504649951073,-1.5779740156157942 l3.126787300598789e-16,5.106431181261044z"/>
<path fill="#B31B1B" fill-opacity="0.9" d="m2.6490567113039057e-15,43.26237921249265 l-3.126787300598789e-16,-5.106431181261044 l-4.856504649951073,-1.5779740156157942 l3.126787300598789e-16,5.106431181261044z"/>
<path fill="#B31B1B" fill-opacity="0.9" d="m4.8565046499510744,41.684405196876845 l3.0014849401916734,-4.131189606246316 l4.856504649951071,1.5779740156157942 l-3.0014849401916734,4.131189606246316z"/>
<path fill="#B31B1B" fill-opacity="0.9" d="m-4.856504649951069,41.684405196876845 l-3.0014849401916734,-4.131189606246316 l-4.856504649951073,1.5779740156157942 l3.0014849401916734,4.131189606246316z"/>
<path fill="#B31B1B" fill-opacity="0.37" d="m9.713009299902145,43.26237921249265 l-4.856504649951071,-1.5779740156158013 l3.0014849401916734,4.131189606246316 l4.856504649951071,1.5779740156158013z"/>
<path fill="#B31B1B" fill-opacity="0.9" d="m2.6490567113039057e-15,43.26237921249265 l3.001484940191673,4.131189606246309 l4.856504649951072,-1.5779740156157942 l-3.001484940191673,-4.131189606246309z"/>
<path fill="#B31B1B" fill-opacity="0.9" d="m2.6490567113039057e-15,43.26237921249265 l-3.001484940191672,4.131189606246309 l-4.856504649951074,-1.5779740156157942 l3.001484940191672,-4.131189606246309z"/>
<path fill="#B31B1B" fill-opacity="0.37" d="m-9.713009299902142,43.26237921249265 l4.856504649951073,-1.5779740156158013 l-3.0014849401916734,4.131189606246316 l-4.856504649951073,1.5779740156158013z"/>
<path fill="#B31B1B" fill-opacity="0.37" d="m3.0014849401916757,47.393568818738956 l0.0,5.106431181261044 l-3.0014849401916726,-4.131189606246316 l-0.0,-5.106431181261044z"/>
<path fill="#B31B1B" fill-opacity="0.37" d="m-3.0014849401916694,47.393568818738956 l0.0,5.106431181261044 l3.0014849401916726,-4.131189606246316 l-0.0,-5.106431181261044z"/>
<path fill="#B31B1B" fill-opacity="0.9" d="m3.0014849401916757,52.5 l0.0,-5.106431181261044 l4.856504649951072,-1.5779740156157942 l-0.0,5.106431181261044z"/>
<path fill="#B31B1B" fill-opacity="0.9" d="m-3.0014849401916694,52.5 l0.0,-5.106431181261044 l-4.856504649951074,-1.5779740156157942 l-0.0,5.106431181261044z"/>
<path fill="#B31B1B" fill-opacity="0.9" d="m3.467660254159821e-15,56.63118960624632 l-3.001484940191673,-4.131189606246323 l3.0014849401916726,-4.131189606246316 l3.001484940191673,4.131189606246323z"/>
</g>
</svg>