<?xml version="1.0" encoding="utf-8"?>
<svg width="100%" height="100%" viewBox="-70.0 -70.0 140.0 140.0" preserveAspectRatio="xMidYMid meet" version="1.1" baseProfile="full" xmlns="http://www.w3.org/2000/svg">
<g style="stroke:#FFFFFF; stroke-width: 1.2978713763747793; stroke-linejoin: round;">
<path fill="#B31B1B" fill-opacity="0.37" d="m36.66043462300096,-18.679424429945684 l-15.295560855708743,15.29556085570874 l3.3838635742369476,-21.364873767292217 l15.295560855708743,-15.29556085570874z"/>
<path fill="#B31B1B" fill-opacity="0.37" d="m18.679424429945676,-36.66043462300097 l-15.295560855708736,15.29556085570875 l21.364873767292217,-3.383863574236951 l15.295560855708736,-15.29556085570875z"/>
<path fill="#B31B1B" fill-opacity="0.9" d="m21.364873767292213,-3.3838635742369476 l19.273531065121087,9.820354579300663 l15.295560855708729,-15.29556085570875 l-19.273531065121087,-9.820354579300663z"/>
<path fill="#B31B1B" fill-opacity="0.9" d="m3.383863574236944,-21.364873767292213 l-9.820354579300663,-19.273531065121087 l15.295560855708743,-15.295560855708736 l9.820354579300663,19.273531065121087z"/>
<path fill="#B31B1B" fill-opacity="0.9" d="m21.364873767292217,-3.383863574236944 l15.295560855708743,-15.29556085570874 l19.273531065121084,9.820354579300666 l-15.295560855708743,15.29556085570874z"/>
<path fill="#B31B1B" fill-opacity="0.9" d="m3.3838635742369405,-21.364873767292217 l15.295560855708736,-15.29556085570875 l-9.820354579300663,-19.273531065121077 l-15.295560855708736,15.29556085570875z"/>
<path fill="#B31B1B" fill-opacity="0.37" d="m40.6384048324133,6.436491005063715 l-19.273531065121087,-9.820354579300663 l9.820354579300666,19.273531065121084 l19.273531065121087,9.820354579300663z"/>
<path fill="#B31B1B" fill-opacity="0.9" d="m0.0,0.0 l21.364873767292217,-3.383863574236944 l3.3838635742369476,-21.364873767292217 l-21.364873767292217,3.383863574236944z"/>
<path fill="#B31B1B" fill-opacity="0.9" d="m-0.0,0.0 l3.3838635742369405,-21.364873767292217 l21.364873767292217,-3.383863574236951 l-3.3838635742369405,21.364873767292217z"/>
<path fill="#B31B1B" fill-opacity="0.37" d="m-6.4364910050637185,-40.6384048324133 l9.820354579300663,19.273531065121087 l-19.273531065121084,-9.820354579300666 l-9.820354579300663,-19.273531065121087z"/>
<path fill="#B31B1B" fill-opacity="0.9" d="m-0.0,0.0 l21.364873767292213,-3.3838635742369476 l9.820354579300666,19.273531065121084 l-21.364873767292213,3.3838635742369476z"/>
<path fill="#B31B1B" fill-opacity="0.9" d="m0.0,0.0 l3.383863574236944,-21.364873767292213 l-19.273531065121084,-9.820354579300666 l-3.383863574236944,21.364873767292213z"/>
<path fill="#B31B1B" fill-opacity="0.9" d="m0.0,0.0 l9.820354579300655,19.27353106512108 l21.36487376729222,-3.3838635742369405 l-9.820354579300655,-19.27353106512108z"/>
<path fill="#B31B1B" fill-opacity="0.9" d="m-0.0,0.0 l-19.273531065121084,-9.820354579300652 l3.383863574236937,-21.364873767292224 l19.273531065121084,9.820354579300652z"/>
<path fill="#B31B1B" fill-opacity="0.37" d="m29.09388564442174,29.093885644421743 l-19.273531065121084,-9.820354579300663 l21.36487376729222,-3.3838635742369405 l19.273531065121084,9.820354579300663z"/>
<path fill="#B31B1B" fill-opacity="0.37" d="m-29.093885644421746,-29.093885644421736 l9.820354579300663,19.273531065121084 l3.383863574236937,-21.364873767292224 l-9.820354579300663,-19.273531065121084z"/>
<path fill="#B31B1B" fill-opacity="0.9" d="m9.820354579300663,19.27353106512108 l-3.383863574236937,21.36487376729222 l19.27353106512108,9.820354579300655 l3.383863574236937,-21.36487376729222z"/>
<path fill="#B31B1B" fill-opacity="0.9" d="m-19.27353106512108,-9.820354579300659 l-21.36487376729222,3.3838635742369405 l-9.820354579300655,-19.273531065121087 l21.36487376729222,-3.3838635742369405z"/>
<path fill="#B31B1B" fill-opacity="0.9" d="m9.820354579300655,19.27353106512108 l19.273531065121084,9.820354579300663 l-3.3838635742369405,21.364873767292213 l-19.273531065121084,-9.820354579300663z"/>
<path fill="#B31B1B" fill-opacity="0.9" d="m-19.273531065121084,-9.820354579300652 l-9.820354579300663,-19.273531065121084 l-21.364873767292217,3.3838635742369476 l9.820354579300663,19.273531065121084z"/>
<path fill="#B31B1B" fill-opacity="0.9" d="m-0.0,0.0 l9.820354579300663,19.27353106512108 l-15.295560855708732,15.29556085570874 l-9.820354579300663,-19.27353106512108z"/>
<path fill="#B31B1B" fill-opacity="0.9" d="m0.0,0.0 l-19.27353106512108,-9.820354579300659 l-15.29556085570874,15.29556085570873 l19.27353106512108,9.820354579300659z"/>
<path fill="#B31B1B" fill-opacity="0.9" d="m0.0,0.0 l-15.295560855708734,15.295560855708736 l9.820354579300655,19.273531065121084 l15.295560855708734,-15.295560855708736z"/>
<path fill="#B31B1B" fill-opacity="0.9" d="m-0.0,0.0 l-15.295560855708734,15.295560855708736 l-19.273531065121084,-9.820354579300652 l15.295560855708734,-15.295560855708736z"/>
<path fill="#B31B1B" fill-opacity="0.37" d="m6.436491005063726,40.6384048324133 l3.383863574236937,-21.36487376729222 l-15.295560855708732,15.29556085570874 l-3.383863574236937,21.36487376729222z"/>
<path fill="#B31B1B" fill-opacity="0.37" d="m-40.6384048324133,-6.4364910050637185 l21.36487376729222,-3.3838635742369405 l-15.29556085570874,15.29556085570873 l-21.36487376729222,3.3838635742369405z"/>
<path fill="#B31B1B" fill-opacity="0.37" d="m-18.67942442994568,36.66043462300096 l3.383863574236946,-21.364873767292224 l9.820354579300655,19.273531065121084 l-3.383863574236946,21.364873767292224z"/>
<path fill="#B31B1B" fill-opacity="0.37" d="m-36.66043462300095,18.67942442994569 l21.364873767292217,-3.3838635742369547 l-19.273531065121084,-9.820354579300652 l-21.364873767292217,3.3838635742369547z"/>
<path fill="#B31B1B" fill-opacity="0.9" d="m-15.295560855708734,15.295560855708736 l-21.364873767292217,3.3838635742369547 l-3.3838635742369476,21.364873767292217 l21.364873767292217,-3.3838635742369547z"/>
</g>
</svg>