<?xml version="1.0" encoding="utf-8"?>
<svg width="100%" height="100%" viewBox="-70.0 -70.0 140.0 140.0" preserveAspectRatio="xMidYMid meet" version="1.1" baseProfile="full" xmlns="http://www.w3.org/2000/svg">
<g style="stroke:#FFFFFF; stroke-width: 0.802128623625221; stroke-linejoin: round;">
<path fill="#B31B1B" fill-opacity="0.9" d="m55.93396568812204,-8.859069850645017 l-13.20421815353761,2.0913427021711364 l-6.069312911583474,-11.911697281471803 l13.20421815353761,-2.0913427021711364z"/>
<path fill="#B31B1B" fill-opacity="0.9" d="m8.859069850645014,-55.93396568812204 l-2.0913427021711364,13.204218153537603 l11.911697281471799,6.069312911583474 l2.0913427021711364,-13.204218153537603z"/>
<path fill="#B31B1B" fill-opacity="0.9" d="m55.93396568812203,-8.859069850645035 l-13.204218153537596,2.09134270217114 l-2.091342702171133,13.20421815353761 l13.204218153537596,-2.09134270217114z"/>
<path fill="#B31B1B" fill-opacity="0.37" d="m30.818050253112645,-12.83704006005737 l11.911697281471788,6.06931291158349 l-6.069312911583474,-11.911697281471803 l-11.911697281471788,-6.06931291158349z"/>
<path fill="#B31B1B" fill-opacity="0.37" d="m12.837040060057367,-30.818050253112652 l-6.06931291158349,-11.911697281471788 l11.911697281471799,6.069312911583474 l6.06931291158349,11.911697281471788z"/>
<path fill="#B31B1B" fill-opacity="0.9" d="m8.859069850645025,-55.933965688122036 l-2.0913427021711364,13.204218153537603 l-13.204218153537607,2.091342702171133 l2.0913427021711364,-13.204218153537603z"/>
<path fill="#B31B1B" fill-opacity="0.9" d="m42.72974753458443,-6.767727148473895 l-9.453176485820421,9.453176485820432 l-11.911697281471799,-6.069312911583484 l9.453176485820421,-9.453176485820432z"/>
<path fill="#B31B1B" fill-opacity="0.9" d="m24.748737341529164,-24.74873734152916 l6.069312911583481,11.91169728147179 l-9.453176485820428,9.453176485820427 l-6.069312911583481,-11.91169728147179z"/>
<path fill="#B31B1B" fill-opacity="0.9" d="m24.748737341529157,-24.748737341529168 l-11.91169728147179,-6.069312911583484 l-9.453176485820427,9.453176485820435 l11.91169728147179,6.069312911583484z"/>
<path fill="#B31B1B" fill-opacity="0.9" d="m6.767727148473888,-42.72974753458443 l-9.45317648582043,9.453176485820421 l6.069312911583486,11.911697281471799 l9.45317648582043,-9.453176485820421z"/>
<path fill="#B31B1B" fill-opacity="0.9" d="m42.72974753458443,-6.767727148473881 l-11.911697281471788,-6.06931291158349 l-9.453176485820428,9.453176485820427 l11.911697281471788,6.06931291158349z"/>
<path fill="#B31B1B" fill-opacity="0.9" d="m6.7677271484738775,-42.72974753458444 l6.06931291158349,11.911697281471788 l-9.453176485820427,9.453176485820435 l-6.06931291158349,-11.911697281471788z"/>
<path fill="#B31B1B" fill-opacity="0.37" d="m33.27657104876401,2.6854493373465367 l9.453176485820421,-9.453176485820432 l-2.091342702171133,13.20421815353761 l-9.453176485820421,9.453176485820432z"/>
<path fill="#B31B1B" fill-opacity="0.37" d="m-2.685449337346542,-33.27657104876401 l9.45317648582043,-9.453176485820421 l-13.204218153537607,2.091342702171133 l-9.45317648582043,9.453176485820421z"/>
<path fill="#B31B1B" fill-opacity="0.9" d="m31.18522834659288,15.889667490884136 l2.091342702171133,-13.2042181535376 l-11.911697281471799,-6.069312911583484 l-2.091342702171133,13.2042181535376z"/>
<path fill="#B31B1B" fill-opacity="0.9" d="m-15.889667490884142,-31.18522834659288 l13.2042181535376,-2.091342702171133 l6.069312911583486,11.911697281471799 l-13.2042181535376,2.091342702171133z"/>
<path fill="#B31B1B" fill-opacity="0.37" d="m13.204218153537603,-2.0913427021711337 l2.09134270217114,-13.204218153537603 l6.069312911583474,11.911697281471794 l-2.09134270217114,13.204218153537603z"/>
<path fill="#B31B1B" fill-opacity="0.37" d="m13.2042181535376,-2.0913427021711355 l6.069312911583488,11.911697281471792 l2.0913427021711257,-13.204218153537605 l-6.069312911583488,-11.911697281471792z"/>
<path fill="#B31B1B" fill-opacity="0.37" d="m2.0913427021711337,-13.2042181535376 l-11.911697281471795,-6.069312911583484 l13.204218153537607,-2.0913427021711293 l11.911697281471795,6.069312911583484z"/>
<path fill="#B31B1B" fill-opacity="0.37" d="m2.091342702171132,-13.204218153537603 l13.204218153537603,-2.0913427021711417 l-11.911697281471795,-6.069312911583472 l-13.204218153537603,2.0913427021711417z"/>
<path fill="#B31B1B" fill-opacity="0.9" d="m15.295560855708743,-15.295560855708738 l-2.09134270217114,13.204218153537603 l-13.204218153537603,2.0913427021711337 l2.09134270217114,-13.204218153537603z"/>
<path fill="#B31B1B" fill-opacity="0.9" d="m15.295560855708736,-15.295560855708745 l-13.204218153537603,2.0913427021711417 l-2.091342702171132,13.204218153537603 l13.204218153537603,-2.0913427021711417z"/>
<path fill="#B31B1B" fill-opacity="0.9" d="m19.273531065121087,9.820354579300657 l-6.069312911583488,-11.911697281471792 l-13.2042181535376,2.0913427021711355 l6.069312911583488,11.911697281471792z"/>
<path fill="#B31B1B" fill-opacity="0.9" d="m-9.820354579300663,-19.273531065121084 l11.911697281471795,6.069312911583484 l-2.0913427021711337,13.2042181535376 l-11.911697281471795,-6.069312911583484z"/>
<path fill="#B31B1B" fill-opacity="0.9" d="m19.273531065121087,9.820354579300659 l-13.204218153537607,2.0913427021711346 l-6.06931291158348,-11.911697281471794 l13.204218153537607,-2.0913427021711346z"/>
<path fill="#B31B1B" fill-opacity="0.9" d="m-9.820354579300663,-19.273531065121084 l-2.0913427021711293,13.204218153537605 l11.911697281471792,6.069312911583479 l2.0913427021711293,-13.204218153537605z"/>
<path fill="#B31B1B" fill-opacity="0.9" d="m31.185228346592876,15.88966749088414 l-9.453176485820421,9.453176485820425 l-11.911697281471799,-6.069312911583484 l9.453176485820421,-9.453176485820425z"/>
<path fill="#B31B1B" fill-opacity="0.9" d="m-15.889667490884147,-31.185228346592876 l-9.453176485820421,9.453176485820425 l6.069312911583484,11.911697281471799 l9.453176485820421,-9.453176485820425z"/>
<path fill="#B31B1B" fill-opacity="0.37" d="m21.732051860772454,25.342843976704565 l-2.0913427021711364,13.204218153537603 l9.453176485820421,-9.453176485820425 l2.0913427021711364,-13.204218153537603z"/>
<path fill="#B31B1B" fill-opacity="0.37" d="m-25.342843976704568,-21.73205186077245 l-13.2042181535376,2.09134270217114 l9.453176485820421,-9.453176485820425 l13.2042181535376,-2.09134270217114z"/>
<path fill="#B31B1B" fill-opacity="0.37" d="m6.069312911583484,11.91169728147179 l-9.453176485820423,9.453176485820434 l13.204218153537601,-2.0913427021711435 l9.453176485820423,-9.453176485820434z"/>
<path fill="#B31B1B" fill-opacity="0.37" d="m-11.911697281471792,-6.0693129115834825 l-9.453176485820432,9.453176485820425 l2.0913427021711435,-13.204218153537601 l9.453176485820432,-9.453176485820425z"/>
<path fill="#B31B1B" fill-opacity="0.37" d="m6.06931291158348,11.911697281471794 l13.204218153537607,-2.0913427021711346 l-9.453176485820432,9.453176485820421 l-13.204218153537607,2.0913427021711346z"/>
<path fill="#B31B1B" fill-opacity="0.37" d="m-11.911697281471792,-6.069312911583479 l2.0913427021711293,-13.204218153537605 l-9.453176485820421,9.453176485820432 l-2.0913427021711293,13.204218153537605z"/>
<path fill="#B31B1B" fill-opacity="0.9" d="m-3.3838635742369387,21.364873767292224 l9.453176485820423,-9.453176485820434 l-6.069312911583484,-11.91169728147179 l-9.453176485820423,9.453176485820434z"/>
<path fill="#B31B1B" fill-opacity="0.9" d="m-21.364873767292224,3.3838635742369423 l9.453176485820432,-9.453176485820425 l11.911697281471792,6.0693129115834825 l-9.453176485820432,9.453176485820425z"/>
<path fill="#B31B1B" fill-opacity="0.9" d="m-3.383863574236946,21.364873767292224 l-6.069312911583479,-11.911697281471797 l9.453176485820425,-9.453176485820427 l6.069312911583479,11.911697281471797z"/>
<path fill="#B31B1B" fill-opacity="0.9" d="m-21.364873767292224,3.3838635742369494 l11.911697281471799,6.069312911583477 l9.453176485820425,-9.453176485820427 l-11.911697281471799,-6.069312911583477z"/>
<path fill="#B31B1B" fill-opacity="0.9" d="m25.7100220701848,50.458759411713956 l-6.069312911583481,-11.911697281471788 l9.453176485820421,-9.453176485820425 l6.069312911583481,11.911697281471788z"/>
<path fill="#B31B1B" fill-opacity="0.9" d="m-50.45875941171396,-25.710022070184788 l11.911697281471795,6.069312911583477 l9.453176485820421,-9.453176485820425 l-11.911697281471795,-6.069312911583477z"/>
<path fill="#B31B1B" fill-opacity="0.9" d="m19.640709158601332,38.54706213024217 l-11.911697281471799,-6.069312911583481 l2.0913427021711293,-13.204218153537607 l11.911697281471799,6.069312911583481z"/>
<path fill="#B31B1B" fill-opacity="0.9" d="m-38.54706213024217,-19.64070915860132 l6.069312911583481,11.911697281471794 l13.204218153537607,-2.091342702171131 l-6.069312911583481,-11.911697281471794z"/>
<path fill="#B31B1B" fill-opacity="0.9" d="m19.640709158601318,38.54706213024217 l2.0913427021711364,-13.204218153537603 l-11.911697281471799,-6.069312911583484 l-2.0913427021711364,13.204218153537603z"/>
<path fill="#B31B1B" fill-opacity="0.9" d="m-38.54706213024217,-19.64070915860131 l13.2042181535376,-2.09134270217114 l6.069312911583484,11.911697281471799 l-13.2042181535376,2.09134270217114z"/>
<path fill="#B31B1B" fill-opacity="0.9" d="m-5.47520627640807,34.56909192082982 l13.204218153537603,-2.091342702171133 l2.0913427021711293,-13.204218153537607 l-13.204218153537603,2.091342702171133z"/>
<path fill="#B31B1B" fill-opacity="0.9" d="m-34.56909192082982,5.475206276408072 l2.091342702171133,-13.2042181535376 l13.204218153537607,-2.091342702171131 l-2.091342702171133,13.2042181535376z"/>
<path fill="#B31B1B" fill-opacity="0.37" d="m-9.453176485820425,9.453176485820427 l-11.911697281471799,-6.069312911583477 l6.06931291158349,11.911697281471787 l11.911697281471799,6.069312911583477z"/>
<path fill="#B31B1B" fill-opacity="0.9" d="m25.710022070184806,50.458759411713956 l-6.069312911583474,-11.911697281471788 l-13.204218153537607,2.091342702171133 l6.069312911583474,11.911697281471788z"/>
<path fill="#B31B1B" fill-opacity="0.9" d="m-50.458759411713956,-25.710022070184806 l11.911697281471788,6.069312911583484 l-2.091342702171133,13.204218153537603 l-11.911697281471788,-6.069312911583484z"/>
<path fill="#B31B1B" fill-opacity="0.37" d="m7.729011877129533,32.47774921865869 l11.911697281471799,6.069312911583481 l-13.204218153537607,2.091342702171133 l-11.911697281471799,-6.069312911583481z"/>
<path fill="#B31B1B" fill-opacity="0.37" d="m-32.47774921865869,-7.729011877129528 l-6.069312911583481,-11.911697281471794 l-2.091342702171133,13.204218153537603 l6.069312911583481,11.911697281471794z"/>
<path fill="#B31B1B" fill-opacity="0.9" d="m-5.475206276408079,34.56909192082982 l-11.911697281471794,-6.069312911583474 l2.091342702171138,-13.20421815353761 l11.911697281471794,6.069312911583474z"/>
<path fill="#B31B1B" fill-opacity="0.9" d="m-34.56909192082982,5.475206276408084 l6.069312911583477,11.911697281471792 l13.204218153537608,-2.09134270217114 l-6.069312911583477,-11.911697281471792z"/>
<path fill="#B31B1B" fill-opacity="0.9" d="m-30.59112171141748,30.591121711417482 l2.0913427021711364,-13.204218153537607 l13.204218153537608,-2.09134270217114 l-2.0913427021711364,13.204218153537607z"/>
<path fill="#B31B1B" fill-opacity="0.37" d="m-17.386903557879872,28.499779009246346 l-13.204218153537607,2.0913427021711364 l11.911697281471799,6.069312911583477 l13.204218153537607,-2.0913427021711364z"/>
<path fill="#B31B1B" fill-opacity="0.37" d="m-28.499779009246343,17.386903557879876 l-2.0913427021711364,13.204218153537607 l-6.069312911583474,-11.911697281471792 l2.0913427021711364,-13.204218153537607z"/>
<path fill="#B31B1B" fill-opacity="0.9" d="m-40.0442981972379,40.04429819723791 l9.453176485820421,-9.453176485820425 l11.911697281471799,6.069312911583477 l-9.453176485820421,9.453176485820425z"/>
<path fill="#B31B1B" fill-opacity="0.9" d="m-40.0442981972379,40.04429819723791 l9.453176485820421,-9.453176485820425 l-6.069312911583474,-11.911697281471792 l-9.453176485820421,9.453176485820425z"/>
</g>
</svg>