<?xml version="1.0" encoding="utf-8"?>
<svg width="100%" height="100%" viewBox="-70.0 -70.0 140.0 140.0" preserveAspectRatio="xMidYMid meet" version="1.1" baseProfile="full" xmlns="http://www.w3.org/2000/svg">
<g style="stroke:#FFFFFF; stroke-width: 0.4957427527495585; stroke-linejoin: round;">
<path fill="#B31B1B" fill-opacity="0.9" d="m44.02226840665025,-14.928382762228507 l3.7510416677171747,7.361833783649301 l8.16065561375462,-1.2925208720658112 l-3.7510416677171747,-7.361833783649301z"/>
<path fill="#B31B1B" fill-opacity="0.9" d="m14.928382762228496,-44.02226840665025 l-7.361833783649297,-3.7510416677171747 l1.2925208720658148,-8.16065561375462 l7.361833783649297,3.7510416677171747z"/>
<path fill="#B31B1B" fill-opacity="0.9" d="m46.480789202301615,0.5941066351754003 l1.2925208720658006,-8.160655613754624 l8.160655613754614,-1.2925208720658112 l-1.2925208720658006,8.160655613754624z"/>
<path fill="#B31B1B" fill-opacity="0.9" d="m-0.5941066351754074,-46.480789202301615 l8.160655613754624,-1.2925208720658148 l1.2925208720658077,-8.160655613754606 l-8.160655613754624,1.2925208720658148z"/>
<path fill="#B31B1B" fill-opacity="0.37" d="m47.773310074367416,-7.566548978579224 l-1.2925208720658006,8.160655613754624 l-3.751041667717182,-7.3618337836492955 l1.2925208720658006,-8.160655613754624z"/>
<path fill="#B31B1B" fill-opacity="0.9" d="m36.66043462300096,-18.679424429945684 l-1.2925208720658148,8.160655613754619 l7.361833783649288,3.7510416677171836 l1.2925208720658148,-8.160655613754619z"/>
<path fill="#B31B1B" fill-opacity="0.9" d="m36.66043462300096,-18.679424429945684 l-8.160655613754617,1.2925208720658148 l-3.7510416677171783,-7.361833783649292 l8.160655613754617,-1.2925208720658148z"/>
<path fill="#B31B1B" fill-opacity="0.9" d="m18.679424429945676,-36.66043462300097 l-1.2925208720658112,8.16065561375462 l7.361833783649292,3.7510416677171783 l1.2925208720658112,-8.16065561375462z"/>
<path fill="#B31B1B" fill-opacity="0.9" d="m18.679424429945676,-36.66043462300097 l-8.160655613754617,1.2925208720658148 l-3.751041667717182,-7.361833783649288 l8.160655613754617,-1.2925208720658148z"/>
<path fill="#B31B1B" fill-opacity="0.37" d="m7.566548978579217,-47.77331007436743 l-8.160655613754624,1.2925208720658148 l7.3618337836492955,3.751041667717182 l8.160655613754624,-1.2925208720658148z"/>
<path fill="#B31B1B" fill-opacity="0.37" d="m47.77331007436742,-7.566548978579206 l-3.7510416677171747,-7.361833783649301 l-1.2925208720658148,8.160655613754626 l3.7510416677171747,7.361833783649301z"/>
<path fill="#B31B1B" fill-opacity="0.37" d="m7.566548978579199,-47.77331007436742 l7.361833783649297,3.7510416677171747 l-8.160655613754619,1.2925208720658077 l-7.361833783649297,-3.7510416677171747z"/>
<path fill="#B31B1B" fill-opacity="0.37" d="m35.367913750935145,-10.518768816191065 l-5.842384369888315,5.842384369888316 l1.2925208720658148,-8.160655613754622 l5.842384369888315,-5.842384369888316z"/>
<path fill="#B31B1B" fill-opacity="0.37" d="m28.499779009246343,-17.38690355787987 l8.160655613754617,-1.2925208720658148 l-5.842384369888315,5.842384369888313 l-8.160655613754617,1.2925208720658148z"/>
<path fill="#B31B1B" fill-opacity="0.37" d="m17.386903557879865,-28.499779009246346 l1.2925208720658112,-8.16065561375462 l-5.842384369888309,5.842384369888315 l-1.2925208720658112,8.16065561375462z"/>
<path fill="#B31B1B" fill-opacity="0.37" d="m10.51876881619106,-35.36791375093515 l-5.842384369888316,5.842384369888322 l8.160655613754624,-1.292520872065822 l5.842384369888316,-5.842384369888322z"/>
<path fill="#B31B1B" fill-opacity="0.9" d="m40.6384048324133,6.436491005063715 l-3.7510416677171747,-7.3618337836492955 l5.842384369888308,-5.842384369888315 l3.7510416677171747,7.3618337836492955z"/>
<path fill="#B31B1B" fill-opacity="0.9" d="m29.52552938104683,-4.676384446302757 l7.3618337836492955,3.7510416677171765 l5.842384369888308,-5.842384369888315 l-7.3618337836492955,-3.7510416677171765z"/>
<path fill="#B31B1B" fill-opacity="0.9" d="m22.65739463935803,-11.544519187991558 l5.842384369888311,-5.842384369888311 l-3.7510416677171783,-7.361833783649292 l-5.842384369888311,5.842384369888311z"/>
<path fill="#B31B1B" fill-opacity="0.9" d="m11.544519187991556,-22.657394639358028 l5.842384369888309,-5.842384369888318 l7.361833783649292,3.7510416677171783 l-5.842384369888309,5.842384369888318z"/>
<path fill="#B31B1B" fill-opacity="0.9" d="m4.676384446302755,-29.52552938104683 l-3.7510416677171783,-7.3618337836492955 l5.842384369888311,-5.842384369888308 l3.7510416677171783,7.3618337836492955z"/>
<path fill="#B31B1B" fill-opacity="0.9" d="m-6.4364910050637185,-40.6384048324133 l7.3618337836492955,3.7510416677171747 l5.842384369888311,-5.842384369888308 l-7.3618337836492955,-3.7510416677171747z"/>
<path fill="#B31B1B" fill-opacity="0.9" d="m29.52552938104683,-4.676384446302748 l5.842384369888315,-5.842384369888316 l7.361833783649288,3.7510416677171836 l-5.842384369888315,5.842384369888316z"/>
<path fill="#B31B1B" fill-opacity="0.9" d="m4.676384446302743,-29.52552938104683 l5.842384369888316,-5.842384369888322 l-3.751041667717182,-7.361833783649288 l-5.842384369888316,5.842384369888322z"/>
<path fill="#B31B1B" fill-opacity="0.37" d="m18.906352971640853,-18.90635297164085 l3.7510416677171783,7.361833783649292 l-7.361833783649288,-3.75104166771718 l-3.7510416677171783,-7.361833783649292z"/>
<path fill="#B31B1B" fill-opacity="0.37" d="m18.906352971640846,-18.906352971640857 l-7.36183378364929,-3.751041667717171 l3.75104166771718,7.361833783649283 l7.36183378364929,3.751041667717171z"/>
<path fill="#B31B1B" fill-opacity="0.37" d="m36.887363164696126,-0.9253427785855806 l-7.3618337836492955,-3.7510416677171765 l3.751041667717182,7.361833783649294 l7.3618337836492955,3.7510416677171765z"/>
<path fill="#B31B1B" fill-opacity="0.9" d="m21.364873767292217,-3.383863574236944 l8.160655613754614,-1.2925208720658041 l1.2925208720658148,-8.160655613754622 l-8.160655613754614,1.2925208720658041z"/>
<path fill="#B31B1B" fill-opacity="0.9" d="m3.3838635742369405,-21.364873767292217 l1.2925208720658024,-8.160655613754614 l8.160655613754624,-1.292520872065822 l-1.2925208720658024,8.160655613754614z"/>
<path fill="#B31B1B" fill-opacity="0.37" d="m0.925342778585577,-36.887363164696126 l3.7510416677171783,7.3618337836492955 l-7.361833783649297,-3.751041667717182 l-3.7510416677171783,-7.3618337836492955z"/>
<path fill="#B31B1B" fill-opacity="0.9" d="m21.364873767292217,-3.383863574236944 l-7.361833783649288,-3.7510416677171765 l1.2925208720658148,-8.160655613754617 l7.361833783649288,3.7510416677171765z"/>
<path fill="#B31B1B" fill-opacity="0.9" d="m3.3838635742369405,-21.364873767292217 l3.7510416677171783,7.361833783649287 l8.160655613754617,-1.2925208720658148 l-3.7510416677171783,-7.361833783649287z"/>
<path fill="#B31B1B" fill-opacity="0.37" d="m32.47774921865869,7.729011877129523 l8.160655613754614,-1.2925208720658077 l-7.361833783649288,-3.7510416677171783 l-8.160655613754614,1.2925208720658077z"/>
<path fill="#B31B1B" fill-opacity="0.37" d="m-7.729011877129528,-32.47774921865869 l1.2925208720658095,-8.160655613754614 l3.7510416677171765,7.361833783649288 l-1.2925208720658095,8.160655613754614z"/>
<path fill="#B31B1B" fill-opacity="0.9" d="m21.364873767292213,-3.3838635742369476 l8.160655613754617,-1.2925208720658095 l3.751041667717182,7.361833783649294 l-8.160655613754617,1.2925208720658095z"/>
<path fill="#B31B1B" fill-opacity="0.9" d="m3.383863574236944,-21.364873767292213 l1.2925208720658112,-8.160655613754617 l-7.361833783649297,-3.751041667717182 l-1.2925208720658112,8.160655613754617z"/>
<path fill="#B31B1B" fill-opacity="0.9" d="m40.6384048324133,6.436491005063715 l-8.160655613754614,1.2925208720658077 l-1.2925208720658077,8.160655613754614 l8.160655613754614,-1.2925208720658077z"/>
<path fill="#B31B1B" fill-opacity="0.9" d="m-6.4364910050637185,-40.6384048324133 l-1.2925208720658095,8.160655613754614 l-8.160655613754614,1.2925208720658077 l1.2925208720658095,-8.160655613754614z"/>
<path fill="#B31B1B" fill-opacity="0.9" d="m5.842384369888312,-5.842384369888311 l8.160655613754617,-1.2925208720658095 l1.2925208720658148,-8.160655613754617 l-8.160655613754617,1.2925208720658095z"/>
<path fill="#B31B1B" fill-opacity="0.9" d="m5.84238436988831,-5.842384369888313 l1.2925208720658086,-8.160655613754617 l8.160655613754617,-1.2925208720658148 l-1.2925208720658086,8.160655613754617z"/>
<path fill="#B31B1B" fill-opacity="0.9" d="m25.11591543500939,3.9779702094123426 l7.3618337836492955,3.75104166771718 l-1.2925208720658077,8.160655613754614 l-7.3618337836492955,-3.75104166771718z"/>
<path fill="#B31B1B" fill-opacity="0.37" d="m14.003039983642928,-7.134905241954121 l-8.160655613754617,1.2925208720658095 l7.361833783649291,3.7510416677171774 l8.160655613754617,-1.2925208720658095z"/>
<path fill="#B31B1B" fill-opacity="0.37" d="m7.134905241954119,-14.00303998364293 l-1.2925208720658086,8.160655613754617 l-3.7510416677171783,-7.36183378364929 l1.2925208720658086,-8.160655613754617z"/>
<path fill="#B31B1B" fill-opacity="0.9" d="m-3.977970209412348,-25.11591543500939 l-3.75104166771718,-7.3618337836492955 l-8.160655613754614,1.2925208720658077 l3.75104166771718,7.3618337836492955z"/>
<path fill="#B31B1B" fill-opacity="0.9" d="m21.364873767292213,-3.3838635742369476 l-5.842384369888308,5.842384369888314 l3.751041667717182,7.361833783649291 l5.842384369888308,-5.842384369888314z"/>
<path fill="#B31B1B" fill-opacity="0.9" d="m3.383863574236944,-21.364873767292213 l-5.842384369888311,5.842384369888308 l-7.3618337836492955,-3.7510416677171783 l5.842384369888311,-5.842384369888308z"/>
<path fill="#B31B1B" fill-opacity="0.37" d="m15.522489397403906,2.458520795651366 l-8.160655613754614,1.2925208720658095 l5.8423843698883084,-5.842384369888311 l8.160655613754614,-1.2925208720658095z"/>
<path fill="#B31B1B" fill-opacity="0.37" d="m-2.458520795651367,-15.522489397403906 l-1.2925208720658103,8.160655613754614 l5.842384369888311,-5.8423843698883084 l1.2925208720658103,-8.160655613754614z"/>
<path fill="#B31B1B" fill-opacity="0.37" d="m23.823394562943587,12.138625823166961 l1.2925208720658041,-8.160655613754619 l-5.842384369888304,5.842384369888315 l-1.2925208720658041,8.160655613754619z"/>
<path fill="#B31B1B" fill-opacity="0.37" d="m-12.138625823166965,-23.823394562943584 l8.160655613754617,-1.2925208720658077 l-5.842384369888315,5.842384369888308 l-8.160655613754617,1.2925208720658077z"/>
<path fill="#B31B1B" fill-opacity="0.37" d="m23.823394562943584,12.138625823166963 l-5.842384369888315,5.842384369888313 l1.2925208720658183,-8.160655613754617 l5.842384369888315,-5.842384369888313z"/>
<path fill="#B31B1B" fill-opacity="0.37" d="m-12.138625823166969,-23.823394562943584 l-5.842384369888308,5.842384369888315 l8.160655613754614,-1.2925208720658148 l5.842384369888308,-5.842384369888315z"/>
<path fill="#B31B1B" fill-opacity="0.9" d="m0.0,0.0 l5.842384369888312,-5.842384369888311 l7.361833783649291,3.7510416677171774 l-5.842384369888312,5.842384369888311z"/>
<path fill="#B31B1B" fill-opacity="0.9" d="m-0.0,0.0 l7.361833783649291,3.7510416677171756 l5.8423843698883084,-5.842384369888311 l-7.361833783649291,-3.7510416677171756z"/>
<path fill="#B31B1B" fill-opacity="0.9" d="m0.0,0.0 l-3.7510416677171774,-7.361833783649291 l5.842384369888311,-5.8423843698883084 l3.7510416677171774,7.361833783649291z"/>
<path fill="#B31B1B" fill-opacity="0.9" d="m-0.0,0.0 l5.84238436988831,-5.842384369888313 l-3.7510416677171783,-7.36183378364929 l-5.84238436988831,5.842384369888313z"/>
<path fill="#B31B1B" fill-opacity="0.9" d="m29.09388564442174,29.093885644421743 l-3.7510416677171747,-7.361833783649292 l5.842384369888311,-5.842384369888311 l3.7510416677171747,7.361833783649292z"/>
<path fill="#B31B1B" fill-opacity="0.9" d="m17.98101019305527,17.981010193055276 l7.3618337836492955,3.7510416677171747 l5.842384369888311,-5.842384369888311 l-7.3618337836492955,-3.7510416677171747z"/>
<path fill="#B31B1B" fill-opacity="0.9" d="m-17.981010193055276,-17.98101019305527 l-3.751041667717182,-7.3618337836492955 l5.842384369888311,-5.842384369888311 l3.751041667717182,7.3618337836492955z"/>
<path fill="#B31B1B" fill-opacity="0.9" d="m-29.093885644421746,-29.093885644421736 l7.361833783649288,3.751041667717171 l5.842384369888311,-5.842384369888311 l-7.361833783649288,-3.751041667717171z"/>
<path fill="#B31B1B" fill-opacity="0.9" d="m7.361833783649291,3.7510416677171756 l8.160655613754614,-1.2925208720658095 l3.751041667717182,7.361833783649291 l-8.160655613754614,1.2925208720658095z"/>
<path fill="#B31B1B" fill-opacity="0.9" d="m-3.7510416677171774,-7.361833783649291 l1.2925208720658103,-8.160655613754614 l-7.3618337836492955,-3.7510416677171783 l-1.2925208720658103,8.160655613754614z"/>
<path fill="#B31B1B" fill-opacity="0.9" d="m7.36183378364929,3.751041667717177 l3.7510416677171765,7.361833783649292 l8.16065561375462,-1.2925208720658095 l-3.7510416677171765,-7.361833783649292z"/>
<path fill="#B31B1B" fill-opacity="0.9" d="m-3.7510416677171783,-7.36183378364929 l-7.361833783649292,-3.7510416677171747 l1.2925208720658077,-8.160655613754619 l7.361833783649292,3.7510416677171747z"/>
<path fill="#B31B1B" fill-opacity="0.9" d="m9.820354579300655,19.27353106512108 l1.2925208720658112,-8.160655613754612 l8.16065561375462,-1.2925208720658095 l-1.2925208720658112,8.160655613754612z"/>
<path fill="#B31B1B" fill-opacity="0.9" d="m-19.273531065121084,-9.820354579300652 l8.160655613754614,-1.292520872065813 l1.2925208720658077,-8.160655613754619 l-8.160655613754614,1.292520872065813z"/>
<path fill="#B31B1B" fill-opacity="0.37" d="m25.342843976704565,21.73205186077245 l3.7510416677171747,7.361833783649292 l-7.361833783649285,-3.7510416677171783 l-3.7510416677171747,-7.361833783649292z"/>
<path fill="#B31B1B" fill-opacity="0.37" d="m-21.732051860772458,-25.342843976704565 l-7.361833783649288,-3.751041667717171 l3.7510416677171783,7.361833783649285 l7.361833783649288,3.751041667717171z"/>
<path fill="#B31B1B" fill-opacity="0.9" d="m-0.0,0.0 l-1.2925208720658068,8.160655613754617 l7.361833783649291,3.751041667717173 l1.2925208720658068,-8.160655613754617z"/>
<path fill="#B31B1B" fill-opacity="0.9" d="m0.0,0.0 l-8.160655613754617,1.2925208720658086 l-3.7510416677171747,-7.361833783649291 l8.160655613754617,-1.2925208720658086z"/>
<path fill="#B31B1B" fill-opacity="0.9" d="m0.0,0.0 l7.36183378364929,3.751041667717177 l-1.2925208720658103,8.160655613754617 l-7.36183378364929,-3.751041667717177z"/>
<path fill="#B31B1B" fill-opacity="0.9" d="m-0.0,0.0 l-3.7510416677171783,-7.36183378364929 l-8.160655613754614,1.2925208720658112 l3.7510416677171783,7.36183378364929z"/>
<path fill="#B31B1B" fill-opacity="0.37" d="m11.112875451366467,11.112875451366468 l-3.7510416677171765,-7.361833783649292 l-1.2925208720658103,8.160655613754617 l3.7510416677171765,7.361833783649292z"/>
<path fill="#B31B1B" fill-opacity="0.37" d="m-11.11287545136647,-11.112875451366465 l7.361833783649292,3.7510416677171747 l-8.160655613754614,1.2925208720658112 l-7.361833783649292,-3.7510416677171747z"/>
<path fill="#B31B1B" fill-opacity="0.37" d="m20.933230030667126,30.38640651648755 l-7.3618337836492955,-3.7510416677171783 l8.160655613754624,-1.2925208720658077 l7.3618337836492955,3.7510416677171783z"/>
<path fill="#B31B1B" fill-opacity="0.9" d="m9.820354579300655,19.27353106512108 l3.7510416677171747,7.361833783649292 l8.160655613754624,-1.2925208720658077 l-3.7510416677171747,-7.361833783649292z"/>
<path fill="#B31B1B" fill-opacity="0.9" d="m-19.273531065121084,-9.820354579300652 l-7.361833783649288,-3.7510416677171783 l1.2925208720658041,-8.16065561375462 l7.361833783649288,3.7510416677171783z"/>
<path fill="#B31B1B" fill-opacity="0.37" d="m-30.386406516487554,-20.933230030667122 l3.751041667717182,7.361833783649292 l1.2925208720658041,-8.16065561375462 l-3.751041667717182,-7.361833783649292z"/>
<path fill="#B31B1B" fill-opacity="0.37" d="m2.4585207956513715,15.522489397403907 l-3.7510416677171783,-7.36183378364929 l7.361833783649291,3.751041667717173 l3.7510416677171783,7.36183378364929z"/>
<path fill="#B31B1B" fill-opacity="0.37" d="m-15.522489397403909,-2.458520795651369 l7.361833783649292,3.7510416677171774 l-3.7510416677171747,-7.361833783649291 l-7.361833783649292,-3.7510416677171774z"/>
<path fill="#B31B1B" fill-opacity="0.9" d="m-0.0,0.0 l-8.160655613754617,1.2925208720658112 l-1.2925208720658077,8.160655613754615 l8.160655613754617,-1.2925208720658112z"/>
<path fill="#B31B1B" fill-opacity="0.9" d="m29.09388564442174,29.093885644421743 l-8.160655613754614,1.2925208720658077 l-1.2925208720658077,8.160655613754617 l8.160655613754614,-1.2925208720658077z"/>
<path fill="#B31B1B" fill-opacity="0.9" d="m-29.093885644421746,-29.093885644421736 l-1.2925208720658077,8.160655613754614 l-8.160655613754614,1.2925208720658112 l1.2925208720658077,-8.160655613754614z"/>
<path fill="#B31B1B" fill-opacity="0.9" d="m13.571396247017844,26.635364848770372 l-1.2925208720658077,8.16065561375462 l7.3618337836492955,3.7510416677171747 l1.2925208720658077,-8.16065561375462z"/>
<path fill="#B31B1B" fill-opacity="0.9" d="m-26.635364848770372,-13.571396247017839 l-8.16065561375462,1.2925208720658077 l-3.7510416677171747,-7.36183378364929 l8.16065561375462,-1.2925208720658077z"/>
<path fill="#B31B1B" fill-opacity="0.9" d="m13.57139624701783,26.635364848770372 l7.3618337836492955,3.7510416677171783 l-1.2925208720658077,8.160655613754617 l-7.3618337836492955,-3.7510416677171783z"/>
<path fill="#B31B1B" fill-opacity="0.9" d="m-26.635364848770372,-13.57139624701783 l-3.751041667717182,-7.361833783649292 l-8.160655613754614,1.2925208720658112 l3.751041667717182,7.361833783649292z"/>
<path fill="#B31B1B" fill-opacity="0.9" d="m9.820354579300663,19.27353106512108 l3.751041667717182,7.361833783649292 l-5.842384369888311,5.842384369888315 l-3.751041667717182,-7.361833783649292z"/>
<path fill="#B31B1B" fill-opacity="0.9" d="m-19.27353106512108,-9.820354579300659 l-7.361833783649292,-3.75104166771718 l-5.842384369888315,5.842384369888311 l7.361833783649292,3.75104166771718z"/>
<path fill="#B31B1B" fill-opacity="0.9" d="m9.820354579300663,19.27353106512108 l-7.361833783649291,-3.751041667717173 l-5.84238436988831,5.842384369888316 l7.361833783649291,3.751041667717173z"/>
<path fill="#B31B1B" fill-opacity="0.9" d="m-19.27353106512108,-9.820354579300659 l3.751041667717171,7.36183378364929 l-5.842384369888315,5.842384369888311 l-3.751041667717171,-7.36183378364929z"/>
<path fill="#B31B1B" fill-opacity="0.9" d="m-1.2925208720658068,8.160655613754617 l3.7510416677171783,7.36183378364929 l-5.84238436988831,5.842384369888316 l-3.7510416677171783,-7.36183378364929z"/>
<path fill="#B31B1B" fill-opacity="0.9" d="m-8.160655613754617,1.2925208720658086 l-7.361833783649292,-3.7510416677171774 l-5.842384369888315,5.842384369888311 l7.361833783649292,3.7510416677171774z"/>
<path fill="#B31B1B" fill-opacity="0.9" d="m27.801364772355928,37.25454125817636 l-5.842384369888311,5.842384369888308 l3.751041667717182,7.361833783649288 l5.842384369888311,-5.842384369888308z"/>
<path fill="#B31B1B" fill-opacity="0.9" d="m-1.29252087206581,8.160655613754617 l-5.842384369888313,5.842384369888313 l3.7510416677171765,7.361833783649294 l5.842384369888313,-5.842384369888313z"/>
<path fill="#B31B1B" fill-opacity="0.9" d="m-8.160655613754617,1.2925208720658112 l-5.842384369888311,5.842384369888313 l-7.3618337836492955,-3.7510416677171747 l5.842384369888311,-5.842384369888313z"/>
<path fill="#B31B1B" fill-opacity="0.9" d="m-37.25454125817636,-27.801364772355928 l-5.842384369888308,5.842384369888311 l-7.3618337836492955,-3.751041667717171 l5.842384369888308,-5.842384369888311z"/>
<path fill="#B31B1B" fill-opacity="0.37" d="m21.95898040246763,43.09692562806466 l-8.160655613754612,1.2925208720658148 l5.842384369888313,-5.842384369888308 l8.160655613754612,-1.2925208720658148z"/>
<path fill="#B31B1B" fill-opacity="0.37" d="m-43.09692562806467,-21.958980402467624 l-1.2925208720658148,8.160655613754615 l5.842384369888315,-5.842384369888313 l1.2925208720658148,-8.160655613754615z"/>
<path fill="#B31B1B" fill-opacity="0.37" d="m-7.134905241954122,14.00303998364293 l5.842384369888313,-5.842384369888313 l-8.160655613754615,1.2925208720658095 l-5.842384369888313,5.842384369888313z"/>
<path fill="#B31B1B" fill-opacity="0.37" d="m-14.003039983642928,7.134905241954124 l5.842384369888311,-5.842384369888313 l-1.2925208720658077,8.160655613754615 l-5.842384369888311,5.842384369888313z"/>
<path fill="#B31B1B" fill-opacity="0.37" d="m21.958980402467617,43.09692562806467 l5.842384369888311,-5.842384369888308 l-8.16065561375461,1.2925208720658077 l-5.842384369888311,5.842384369888308z"/>
<path fill="#B31B1B" fill-opacity="0.37" d="m-43.09692562806467,-21.958980402467617 l5.842384369888308,-5.842384369888311 l-1.2925208720658077,8.160655613754617 l-5.842384369888308,5.842384369888311z"/>
<path fill="#B31B1B" fill-opacity="0.37" d="m12.278875374952037,34.79602046252499 l1.2925208720658077,-8.16065561375462 l-5.842384369888311,5.842384369888315 l-1.2925208720658077,8.16065561375462z"/>
<path fill="#B31B1B" fill-opacity="0.37" d="m-34.79602046252499,-12.278875374952031 l8.16065561375462,-1.2925208720658077 l-5.842384369888315,5.842384369888311 l-8.16065561375462,1.2925208720658077z"/>
<path fill="#B31B1B" fill-opacity="0.9" d="m6.436491005063726,40.6384048324133 l5.842384369888311,-5.842384369888308 l7.3618337836492955,3.7510416677171747 l-5.842384369888311,5.842384369888308z"/>
<path fill="#B31B1B" fill-opacity="0.9" d="m-40.6384048324133,-6.4364910050637185 l5.842384369888308,-5.842384369888313 l-3.7510416677171747,-7.36183378364929 l-5.842384369888308,5.842384369888313z"/>
<path fill="#B31B1B" fill-opacity="0.9" d="m13.79832478871302,44.389446500130475 l8.160655613754612,-1.2925208720658148 l3.7510416677171747,7.3618337836492955 l-8.160655613754612,1.2925208720658148z"/>
<path fill="#B31B1B" fill-opacity="0.9" d="m-44.38944650013048,-13.798324788713009 l1.2925208720658148,-8.160655613754615 l-7.361833783649288,-3.751041667717182 l-1.2925208720658148,8.160655613754615z"/>
<path fill="#B31B1B" fill-opacity="0.37" d="m2.6854493373465456,33.27657104876401 l3.75104166771718,7.361833783649288 l1.2925208720658077,-8.160655613754614 l-3.75104166771718,-7.361833783649288z"/>
<path fill="#B31B1B" fill-opacity="0.37" d="m-33.27657104876401,-2.685449337346544 l-7.361833783649288,-3.7510416677171747 l8.160655613754614,-1.2925208720658095 l7.361833783649288,3.7510416677171747z"/>
<path fill="#B31B1B" fill-opacity="0.37" d="m-4.182685404342262,26.408436307075206 l8.160655613754617,-1.2925208720658148 l-7.361833783649294,-3.7510416677171676 l-8.160655613754617,1.2925208720658148z"/>
<path fill="#B31B1B" fill-opacity="0.37" d="m-26.408436307075206,4.182685404342266 l1.2925208720658112,-8.160655613754615 l3.751041667717171,7.361833783649292 l-1.2925208720658112,8.160655613754615z"/>
<path fill="#B31B1B" fill-opacity="0.37" d="m-4.182685404342271,26.408436307075206 l-7.361833783649288,-3.751041667717182 l8.160655613754614,-1.2925208720658006 l7.361833783649288,3.751041667717182z"/>
<path fill="#B31B1B" fill-opacity="0.9" d="m-15.295560855708734,15.295560855708736 l8.160655613754612,-1.292520872065806 l3.7510416677171765,7.361833783649294 l-8.160655613754612,1.292520872065806z"/>
<path fill="#B31B1B" fill-opacity="0.9" d="m-15.295560855708734,15.295560855708736 l1.292520872065806,-8.160655613754612 l-7.3618337836492955,-3.7510416677171747 l-1.292520872065806,8.160655613754612z"/>
<path fill="#B31B1B" fill-opacity="0.37" d="m-26.408436307075206,4.1826854043422745 l3.751041667717182,7.361833783649287 l1.2925208720658006,-8.160655613754612 l-3.751041667717182,-7.361833783649287z"/>
<path fill="#B31B1B" fill-opacity="0.9" d="m3.977970209412355,25.11591543500939 l-1.2925208720658095,8.16065561375462 l-8.160655613754615,1.2925208720658077 l1.2925208720658095,-8.16065561375462z"/>
<path fill="#B31B1B" fill-opacity="0.9" d="m-25.115915435009395,-3.9779702094123497 l-8.160655613754617,1.292520872065806 l-1.2925208720658077,8.160655613754615 l8.160655613754617,-1.292520872065806z"/>
<path fill="#B31B1B" fill-opacity="0.9" d="m6.436491005063726,40.6384048324133 l-3.75104166771718,-7.361833783649288 l-8.160655613754615,1.2925208720658077 l3.75104166771718,7.361833783649288z"/>
<path fill="#B31B1B" fill-opacity="0.9" d="m-40.6384048324133,-6.4364910050637185 l7.361833783649288,3.7510416677171747 l-1.2925208720658077,8.160655613754615 l-7.361833783649288,-3.7510416677171747z"/>
<path fill="#B31B1B" fill-opacity="0.9" d="m-11.54451918799156,22.657394639358024 l-1.2925208720658095,8.16065561375462 l7.36183378364929,3.7510416677171747 l1.2925208720658095,-8.16065561375462z"/>
<path fill="#B31B1B" fill-opacity="0.9" d="m-22.657394639358024,11.544519187991561 l-8.16065561375462,1.292520872065813 l-3.7510416677171747,-7.36183378364929 l8.16065561375462,-1.292520872065813z"/>
<path fill="#B31B1B" fill-opacity="0.9" d="m-15.295560855708734,15.295560855708736 l-5.842384369888313,5.842384369888315 l3.7510416677171747,7.3618337836492955 l5.842384369888313,-5.842384369888315z"/>
<path fill="#B31B1B" fill-opacity="0.9" d="m-15.295560855708734,15.295560855708736 l-5.842384369888313,5.842384369888315 l-7.3618337836492955,-3.7510416677171747 l5.842384369888313,-5.842384369888315z"/>
<path fill="#B31B1B" fill-opacity="0.37" d="m-12.837040060057369,30.818050253112645 l-5.842384369888311,5.842384369888315 l1.2925208720658077,-8.160655613754614 l5.842384369888311,-5.842384369888315z"/>
<path fill="#B31B1B" fill-opacity="0.37" d="m-30.818050253112645,12.837040060057374 l-5.842384369888308,5.842384369888316 l8.16065561375461,-1.2925208720658148 l5.842384369888308,-5.842384369888316z"/>
<path fill="#B31B1B" fill-opacity="0.9" d="m-18.67942442994568,36.66043462300096 l5.842384369888311,-5.842384369888315 l7.36183378364929,3.7510416677171747 l-5.842384369888311,5.842384369888315z"/>
<path fill="#B31B1B" fill-opacity="0.9" d="m-36.66043462300095,18.67942442994569 l5.842384369888308,-5.842384369888316 l-3.7510416677171747,-7.36183378364929 l-5.842384369888308,5.842384369888316z"/>
<path fill="#B31B1B" fill-opacity="0.37" d="m-22.430466097662862,29.298600839351675 l1.2925208720658148,-8.160655613754624 l3.7510416677171747,7.3618337836492955 l-1.2925208720658148,8.160655613754624z"/>
<path fill="#B31B1B" fill-opacity="0.37" d="m-29.298600839351668,22.43046609766287 l8.16065561375462,-1.2925208720658183 l-7.3618337836492955,-3.7510416677171747 l-8.16065561375462,1.2925208720658183z"/>
<path fill="#B31B1B" fill-opacity="0.9" d="m-21.137945225597047,21.13794522559705 l-8.16065561375462,1.2925208720658183 l-1.2925208720658112,8.160655613754614 l8.16065561375462,-1.2925208720658183z"/>
<path fill="#B31B1B" fill-opacity="0.9" d="m-18.67942442994568,36.66043462300096 l-3.751041667717182,-7.361833783649285 l-8.160655613754617,1.2925208720658077 l3.751041667717182,7.361833783649285z"/>
<path fill="#B31B1B" fill-opacity="0.9" d="m-36.66043462300095,18.67942442994569 l7.361833783649285,3.7510416677171783 l-1.2925208720658112,8.160655613754614 l-7.361833783649285,-3.7510416677171783z"/>
<path fill="#B31B1B" fill-opacity="0.37" d="m-34.201913827349586,34.20191382734959 l-3.7510416677171747,-7.361833783649292 l7.361833783649281,3.751041667717182 l3.7510416677171747,7.361833783649292z"/>
<path fill="#B31B1B" fill-opacity="0.9" d="m-26.840080043700294,37.95295549506677 l-7.361833783649292,-3.7510416677171747 l-5.842384369888315,5.842384369888315 l7.361833783649292,3.7510416677171747z"/>
<path fill="#B31B1B" fill-opacity="0.9" d="m-37.95295549506676,26.8400800437003 l3.7510416677171747,7.361833783649292 l-5.842384369888315,5.842384369888315 l-3.7510416677171747,-7.361833783649292z"/>
</g>
</svg>