<?xml version="1.0" encoding="utf-8"?>
<svg width="100%" height="100%" viewBox="-70.0 -70.0 140.0 140.0" preserveAspectRatio="xMidYMid meet" version="1.1" baseProfile="full" xmlns="http://www.w3.org/2000/svg">
<g style="stroke:#FFFFFF; stroke-width: 0.30638587087566255; stroke-linejoin: round;">
<path fill="#B31B1B" fill-opacity="0.9" d="m51.38410219029954,-11.177341094511323 l-5.0435625397829895,0.7988218301053287 l-2.318271243866299,-4.549863497822512 l5.0435625397829895,-0.7988218301053287z"/>
<path fill="#B31B1B" fill-opacity="0.9" d="m11.177341094511313,-51.384102190299544 l-0.7988218301053251,5.043562539782997 l4.549863497822509,2.318271243866299 l0.7988218301053251,-5.043562539782997z"/>
<path fill="#B31B1B" fill-opacity="0.9" d="m55.93396568812203,-8.859069850645035 l-3.6107921159321137,3.6107921159321172 l-4.5498634978225,-2.318271243866306 l3.6107921159321137,-3.6107921159321172z"/>
<path fill="#B31B1B" fill-opacity="0.9" d="m8.859069850645025,-55.933965688122036 l-3.6107921159321137,3.610792115932121 l2.318271243866306,4.549863497822486 l3.6107921159321137,-3.610792115932121z"/>
<path fill="#B31B1B" fill-opacity="0.9" d="m55.93396568812204,-8.859069850645017 l-4.549863497822507,-2.318271243866306 l-3.6107921159321137,3.6107921159321172 l4.549863497822507,2.318271243866306z"/>
<path fill="#B31B1B" fill-opacity="0.9" d="m8.859069850645014,-55.93396568812204 l2.318271243866299,4.5498634978225 l-3.6107921159321137,3.610792115932121 l-2.318271243866299,-4.5498634978225z"/>
<path fill="#B31B1B" fill-opacity="0.37" d="m41.21029812082346,-16.361153186079378 l-0.7988218301053251,5.043562539782991 l3.6107921159321137,-3.610792115932121 l0.7988218301053251,-5.043562539782991z"/>
<path fill="#B31B1B" fill-opacity="0.37" d="m16.36115318607937,-41.21029812082346 l-5.0435625397829895,0.7988218301053251 l3.6107921159321155,-3.6107921159321137 l5.0435625397829895,-0.7988218301053251z"/>
<path fill="#B31B1B" fill-opacity="0.37" d="m46.34053965051655,-10.378519264405995 l5.0435625397829895,-0.7988218301053287 l-3.6107921159321137,3.6107921159321172 l-5.0435625397829895,0.7988218301053287z"/>
<path fill="#B31B1B" fill-opacity="0.37" d="m10.378519264405988,-46.34053965051655 l0.7988218301053251,-5.043562539782997 l-3.6107921159321137,3.610792115932121 l-0.7988218301053251,5.043562539782997z"/>
<path fill="#B31B1B" fill-opacity="0.9" d="m42.72974753458443,-6.767727148473881 l3.6107921159321137,-3.6107921159321137 l-2.318271243866299,-4.549863497822512 l-3.6107921159321137,3.6107921159321137z"/>
<path fill="#B31B1B" fill-opacity="0.9" d="m6.7677271484738775,-42.72974753458444 l3.61079211593211,-3.6107921159321066 l4.549863497822509,2.318271243866299 l-3.61079211593211,3.6107921159321066z"/>
<path fill="#B31B1B" fill-opacity="0.37" d="m47.27961103240694,-4.449455904607589 l5.043562539782975,-0.7988218301053287 l-4.5498634978225,-2.318271243866306 l-5.043562539782975,0.7988218301053287z"/>
<path fill="#B31B1B" fill-opacity="0.9" d="m29.298600839351668,-22.43046609766286 l2.3182712438663025,4.549863497822503 l5.0435625397829895,-0.7988218301053287 l-2.3182712438663025,-4.549863497822503z"/>
<path fill="#B31B1B" fill-opacity="0.9" d="m22.430466097662855,-29.29860083935167 l-4.549863497822503,-2.3182712438663025 l0.7988218301053251,-5.043562539782993 l4.549863497822503,2.3182712438663025z"/>
<path fill="#B31B1B" fill-opacity="0.37" d="m4.449455904607582,-47.27961103240694 l0.7988218301053287,-5.043562539782975 l2.318271243866306,4.549863497822486 l-0.7988218301053287,5.043562539782975z"/>
<path fill="#B31B1B" fill-opacity="0.9" d="m40.411476290718134,-11.317590646296386 l-4.5498634978225,-2.318271243866308 l0.7988218301053251,-5.0435625397829895 l4.5498634978225,2.318271243866308z"/>
<path fill="#B31B1B" fill-opacity="0.9" d="m11.317590646296381,-40.411476290718134 l2.318271243866308,4.5498634978225 l5.043562539782988,-0.7988218301053323 l-2.318271243866308,-4.5498634978225z"/>
<path fill="#B31B1B" fill-opacity="0.9" d="m52.323173572189916,-5.248277734712918 l-5.043562539782975,0.7988218301053287 l-0.7988218301053251,5.0435625397829895 l5.043562539782975,-0.7988218301053287z"/>
<path fill="#B31B1B" fill-opacity="0.9" d="m5.248277734712911,-52.323173572189916 l-0.7988218301053287,5.043562539782975 l-5.0435625397829895,0.7988218301053251 l0.7988218301053287,-5.043562539782975z"/>
<path fill="#B31B1B" fill-opacity="0.9" d="m30.818050253112645,-12.83704006005737 l5.0435625397829895,-0.7988218301053234 l0.7988218301053251,-5.0435625397829895 l-5.0435625397829895,0.7988218301053234z"/>
<path fill="#B31B1B" fill-opacity="0.9" d="m12.837040060057367,-30.818050253112652 l0.7988218301053216,-5.043562539782982 l5.043562539782988,-0.7988218301053323 l-0.7988218301053216,5.043562539782982z"/>
<path fill="#B31B1B" fill-opacity="0.9" d="m42.72974753458443,-6.767727148473895 l4.549863497822507,2.318271243866306 l-0.7988218301053251,5.0435625397829895 l-4.549863497822507,-2.318271243866306z"/>
<path fill="#B31B1B" fill-opacity="0.37" d="m35.861612792895635,-13.635861890162694 l-5.0435625397829895,0.7988218301053234 l4.5498634978225,2.318271243866306 l5.0435625397829895,-0.7988218301053234z"/>
<path fill="#B31B1B" fill-opacity="0.37" d="m31.61687208321797,-17.880602599840355 l-0.7988218301053251,5.043562539782984 l-2.3182712438663025,-4.549863497822498 l0.7988218301053251,-5.043562539782984z"/>
<path fill="#B31B1B" fill-opacity="0.9" d="m24.748737341529164,-24.74873734152916 l4.549863497822503,2.3182712438663025 l-0.7988218301053251,5.0435625397829895 l-4.549863497822503,-2.3182712438663025z"/>
<path fill="#B31B1B" fill-opacity="0.9" d="m24.748737341529157,-24.748737341529168 l-2.3182712438663025,-4.549863497822503 l-5.0435625397829895,0.7988218301053251 l2.3182712438663025,4.549863497822503z"/>
<path fill="#B31B1B" fill-opacity="0.37" d="m17.88060259984035,-31.616872083217974 l-5.043562539782984,0.7988218301053216 l4.549863497822498,2.318271243866306 l5.043562539782984,-0.7988218301053216z"/>
<path fill="#B31B1B" fill-opacity="0.37" d="m13.635861890162689,-35.861612792895635 l-0.7988218301053216,5.043562539782982 l-2.318271243866308,-4.5498634978225 l0.7988218301053216,-5.043562539782982z"/>
<path fill="#B31B1B" fill-opacity="0.9" d="m6.767727148473888,-42.72974753458443 l-2.318271243866306,-4.549863497822507 l-5.0435625397829895,0.7988218301053251 l2.318271243866306,4.549863497822507z"/>
<path fill="#B31B1B" fill-opacity="0.9" d="m42.72974753458443,-6.767727148473881 l-5.0435625397829895,0.7988218301053287 l-2.318271243866299,-4.549863497822512 l5.0435625397829895,-0.7988218301053287z"/>
<path fill="#B31B1B" fill-opacity="0.9" d="m6.7677271484738775,-42.72974753458444 l-0.7988218301053305,5.0435625397829895 l4.549863497822512,2.318271243866299 l0.7988218301053305,-5.0435625397829895z"/>
<path fill="#B31B1B" fill-opacity="0.37" d="m44.249196948345414,2.8256988891315977 l-2.318271243866306,-4.549863497822507 l4.549863497822507,2.3182712438663096 l2.318271243866306,4.549863497822507z"/>
<path fill="#B31B1B" fill-opacity="0.9" d="m42.72974753458443,-6.767727148473895 l-5.043562539782982,0.7988218301053216 l-0.7988218301053251,5.043562539782993 l5.043562539782982,-0.7988218301053216z"/>
<path fill="#B31B1B" fill-opacity="0.37" d="m26.268186755290145,-15.155311303923673 l-2.3182712438663025,-4.549863497822502 l4.5498634978225,2.318271243866306 l2.3182712438663025,4.549863497822502z"/>
<path fill="#B31B1B" fill-opacity="0.9" d="m24.748737341529164,-24.74873734152916 l-0.7988218301053216,5.043562539782986 l-5.0435625397829895,0.7988218301053251 l0.7988218301053216,-5.043562539782986z"/>
<path fill="#B31B1B" fill-opacity="0.9" d="m24.748737341529157,-24.748737341529168 l-5.043562539782986,0.7988218301053216 l-0.7988218301053251,5.0435625397829895 l5.043562539782986,-0.7988218301053216z"/>
<path fill="#B31B1B" fill-opacity="0.37" d="m15.155311303923668,-26.268186755290145 l4.549863497822503,2.318271243866299 l-2.318271243866306,-4.5498634978225 l-4.549863497822503,-2.318271243866299z"/>
<path fill="#B31B1B" fill-opacity="0.9" d="m6.767727148473888,-42.72974753458443 l-0.7988218301053216,5.043562539782982 l-5.0435625397829895,0.7988218301053251 l0.7988218301053216,-5.043562539782982z"/>
<path fill="#B31B1B" fill-opacity="0.37" d="m-2.825698889131605,-44.249196948345414 l4.5498634978225105,2.318271243866306 l-2.318271243866313,-4.549863497822507 l-4.5498634978225105,-2.318271243866306z"/>
<path fill="#B31B1B" fill-opacity="0.37" d="m33.13632149697895,-8.287176562234864 l4.549863497822493,2.3182712438663113 l-2.318271243866299,-4.549863497822512 l-4.549863497822493,-2.3182712438663113z"/>
<path fill="#B31B1B" fill-opacity="0.37" d="m8.287176562234858,-33.13632149697895 l-2.3182712438663113,-4.5498634978225 l4.549863497822512,2.318271243866299 l2.3182712438663113,4.5498634978225z"/>
<path fill="#B31B1B" fill-opacity="0.9" d="m41.93092570447911,-1.7241646086909093 l-3.6107921159321137,3.6107921159321172 l2.318271243866306,4.549863497822507 l3.6107921159321137,-3.6107921159321172z"/>
<path fill="#B31B1B" fill-opacity="0.9" d="m37.68618499480145,-5.968905318368574 l-3.6107921159321137,3.610792115932121 l-4.549863497822507,-2.3182712438663042 l3.6107921159321137,-3.610792115932121z"/>
<path fill="#B31B1B" fill-opacity="0.9" d="m30.818050253112645,-12.83704006005737 l-4.5498634978225,-2.3182712438663025 l-3.6107921159321137,3.6107921159321155 l4.5498634978225,2.3182712438663025z"/>
<path fill="#B31B1B" fill-opacity="0.9" d="m23.949915511423843,-19.705174801746175 l2.3182712438663025,4.549863497822502 l-3.6107921159321137,3.6107921159321155 l-2.3182712438663025,-4.549863497822502z"/>
<path fill="#B31B1B" fill-opacity="0.9" d="m19.70517480174617,-23.949915511423846 l-4.549863497822503,-2.318271243866299 l-3.610792115932112,3.6107921159321172 l4.549863497822503,2.318271243866299z"/>
<path fill="#B31B1B" fill-opacity="0.9" d="m12.837040060057367,-30.818050253112652 l2.3182712438663007,4.549863497822507 l-3.610792115932112,3.6107921159321172 l-2.3182712438663007,-4.549863497822507z"/>
<path fill="#B31B1B" fill-opacity="0.9" d="m5.9689053183685665,-37.68618499480145 l-3.6107921159321155,3.6107921159321137 l2.3182712438663042,4.549863497822507 l3.6107921159321155,-3.6107921159321137z"/>
<path fill="#B31B1B" fill-opacity="0.9" d="m1.7241646086909057,-41.93092570447911 l-3.6107921159321172,3.6107921159321137 l-4.549863497822507,-2.318271243866306 l3.6107921159321172,-3.6107921159321137z"/>
<path fill="#B31B1B" fill-opacity="0.9" d="m30.818050253112645,-12.83704006005737 l2.318271243866306,4.549863497822507 l-3.610792115932121,3.6107921159321155 l-2.318271243866306,-4.549863497822507z"/>
<path fill="#B31B1B" fill-opacity="0.9" d="m12.837040060057367,-30.818050253112652 l-4.549863497822509,-2.318271243866299 l-3.6107921159321155,3.610792115932121 l4.549863497822509,2.318271243866299z"/>
<path fill="#B31B1B" fill-opacity="0.9" d="m37.686184994801444,-5.968905318368552 l-4.549863497822493,-2.3182712438663113 l-3.610792115932121,3.6107921159321155 l4.549863497822493,2.3182712438663113z"/>
<path fill="#B31B1B" fill-opacity="0.9" d="m5.968905318368547,-37.68618499480145 l2.3182712438663113,4.5498634978225 l-3.6107921159321155,3.610792115932121 l-2.3182712438663113,-4.5498634978225z"/>
<path fill="#B31B1B" fill-opacity="0.37" d="m38.320133588546994,1.886627507241208 l-5.043562539782982,0.7988218301053287 l3.6107921159321137,-3.6107921159321172 l5.043562539782982,-0.7988218301053287z"/>
<path fill="#B31B1B" fill-opacity="0.37" d="m34.07539287886934,-2.358113202436453 l3.6107921159321137,-3.610792115932121 l-0.7988218301053251,5.043562539782993 l-3.6107921159321137,3.610792115932121z"/>
<path fill="#B31B1B" fill-opacity="0.37" d="m20.339123395491725,-16.09438268581406 l3.6107921159321172,-3.6107921159321137 l-5.0435625397829895,0.7988218301053251 l-3.6107921159321172,3.6107921159321137z"/>
<path fill="#B31B1B" fill-opacity="0.37" d="m16.09438268581406,-20.339123395491725 l3.61079211593211,-3.610792115932121 l-0.7988218301053251,5.0435625397829895 l-3.61079211593211,3.610792115932121z"/>
<path fill="#B31B1B" fill-opacity="0.37" d="m2.358113202436451,-34.07539287886934 l3.6107921159321155,-3.6107921159321137 l-5.0435625397829895,0.7988218301053251 l-3.6107921159321155,3.6107921159321137z"/>
<path fill="#B31B1B" fill-opacity="0.37" d="m-1.8866275072412115,-38.320133588546994 l-0.7988218301053305,5.043562539782982 l3.610792115932119,-3.6107921159321137 l0.7988218301053305,-5.043562539782982z"/>
<path fill="#B31B1B" fill-opacity="0.9" d="m15.295560855708743,-15.295560855708738 l5.043562539782982,-0.7988218301053234 l2.318271243866306,4.549863497822503 l-5.043562539782982,0.7988218301053234z"/>
<path fill="#B31B1B" fill-opacity="0.9" d="m15.295560855708736,-15.295560855708745 l0.7988218301053251,-5.043562539782981 l-4.549863497822505,-2.3182712438663025 l-0.7988218301053251,5.043562539782981z"/>
<path fill="#B31B1B" fill-opacity="0.9" d="m33.27657104876401,2.6854493373465367 l5.043562539782982,-0.7988218301053287 l2.318271243866306,4.549863497822507 l-5.043562539782982,0.7988218301053287z"/>
<path fill="#B31B1B" fill-opacity="0.9" d="m33.27657104876401,2.6854493373465367 l0.7988218301053251,-5.0435625397829895 l-4.549863497822507,-2.3182712438663042 l-0.7988218301053251,5.0435625397829895z"/>
<path fill="#B31B1B" fill-opacity="0.37" d="m26.4084363070752,-4.182685404342273 l2.318271243866306,4.549863497822503 l0.7988218301053251,-5.043562539782988 l-2.318271243866306,-4.549863497822503z"/>
<path fill="#B31B1B" fill-opacity="0.37" d="m22.163695597397542,-8.427426114019928 l5.0435625397829895,-0.7988218301053251 l-4.5498634978225,-2.3182712438663042 l-5.0435625397829895,0.7988218301053251z"/>
<path fill="#B31B1B" fill-opacity="0.37" d="m8.427426114019925,-22.163695597397542 l0.7988218301053287,-5.0435625397829895 l2.3182712438663025,4.549863497822503 l-0.7988218301053287,5.0435625397829895z"/>
<path fill="#B31B1B" fill-opacity="0.37" d="m4.182685404342269,-26.4084363070752 l-4.549863497822505,-2.3182712438663096 l5.043562539782991,-0.7988218301053216 l4.549863497822505,2.3182712438663096z"/>
<path fill="#B31B1B" fill-opacity="0.9" d="m-2.685449337346542,-33.27657104876401 l5.043562539782993,-0.7988218301053251 l2.3182712438663042,4.549863497822507 l-5.043562539782993,0.7988218301053251z"/>
<path fill="#B31B1B" fill-opacity="0.9" d="m-2.685449337346542,-33.27657104876401 l0.7988218301053305,-5.043562539782982 l-4.549863497822507,-2.318271243866306 l-0.7988218301053305,5.043562539782982z"/>
<path fill="#B31B1B" fill-opacity="0.37" d="m26.4084363070752,-4.182685404342266 l0.7988218301053323,-5.043562539782988 l2.318271243866299,4.549863497822505 l-0.7988218301053323,5.043562539782988z"/>
<path fill="#B31B1B" fill-opacity="0.37" d="m4.18268540434226,-26.408436307075203 l5.043562539782993,-0.7988218301053287 l-4.5498634978225105,-2.318271243866299 l-5.043562539782993,0.7988218301053287z"/>
<path fill="#B31B1B" fill-opacity="0.9" d="m27.20725813718053,-9.226247944125253 l-0.7988218301053323,5.043562539782988 l-5.043562539782982,0.7988218301053216 l0.7988218301053323,-5.043562539782988z"/>
<path fill="#B31B1B" fill-opacity="0.9" d="m9.226247944125253,-27.20725813718053 l-5.043562539782993,0.7988218301053287 l-0.7988218301053198,5.043562539782986 l5.043562539782993,-0.7988218301053287z"/>
<path fill="#B31B1B" fill-opacity="0.9" d="m34.79602046252499,12.278875374952024 l0.7988218301053251,-5.0435625397829895 l5.043562539782982,-0.7988218301053198 l-0.7988218301053251,5.0435625397829895z"/>
<path fill="#B31B1B" fill-opacity="0.9" d="m-12.27887537495203,-34.79602046252499 l5.0435625397829895,-0.7988218301053251 l0.7988218301053216,-5.043562539782982 l-5.0435625397829895,0.7988218301053251z"/>
<path fill="#B31B1B" fill-opacity="0.37" d="m35.59484229263032,7.235312835169035 l-2.318271243866306,-4.549863497822498 l-0.7988218301053251,5.043562539782986 l2.318271243866306,4.549863497822498z"/>
<path fill="#B31B1B" fill-opacity="0.37" d="m-7.23531283516904,-35.59484229263032 l4.549863497822498,2.318271243866306 l-5.043562539782986,0.7988218301053251 l-4.549863497822498,-2.318271243866306z"/>
<path fill="#B31B1B" fill-opacity="0.9" d="m28.726707550941505,0.36717809348023067 l-2.318271243866306,-4.549863497822503 l-5.043562539782986,0.7988218301053251 l2.318271243866306,4.549863497822503z"/>
<path fill="#B31B1B" fill-opacity="0.9" d="m17.613832099575045,-10.745697357886236 l-0.7988218301053287,5.0435625397829895 l4.5498634978225,2.3182712438663025 l0.7988218301053287,-5.0435625397829895z"/>
<path fill="#B31B1B" fill-opacity="0.9" d="m10.745697357886234,-17.613832099575045 l-5.04356253978299,0.7988218301053287 l-2.3182712438663033,-4.5498634978225 l5.04356253978299,-0.7988218301053287z"/>
<path fill="#B31B1B" fill-opacity="0.9" d="m-0.367178093480236,-28.72670755094151 l4.549863497822505,2.3182712438663096 l-0.7988218301053251,5.043562539782986 l-4.549863497822505,-2.3182712438663096z"/>
<path fill="#B31B1B" fill-opacity="0.9" d="m15.295560855708743,-15.295560855708738 l-3.6107921159321155,3.610792115932112 l2.3182712438663007,4.549863497822505 l3.6107921159321155,-3.610792115932112z"/>
<path fill="#B31B1B" fill-opacity="0.9" d="m15.295560855708736,-15.295560855708745 l-3.610792115932112,3.6107921159321155 l-4.549863497822505,-2.3182712438663007 l3.610792115932112,-3.6107921159321155z"/>
<path fill="#B31B1B" fill-opacity="0.9" d="m33.27657104876401,2.6854493373465367 l-3.6107921159321137,3.610792115932112 l-4.549863497822507,-2.318271243866306 l3.6107921159321137,-3.610792115932112z"/>
<path fill="#B31B1B" fill-opacity="0.9" d="m-2.685449337346542,-33.27657104876401 l-3.610792115932112,3.6107921159321137 l2.318271243866306,4.549863497822507 l3.610792115932112,-3.6107921159321137z"/>
<path fill="#B31B1B" fill-opacity="0.37" d="m29.6657789328319,6.296241453278649 l-0.7988218301053251,5.043562539782988 l3.6107921159321137,-3.6107921159321137 l0.7988218301053251,-5.043562539782988z"/>
<path fill="#B31B1B" fill-opacity="0.37" d="m-6.296241453278654,-29.6657789328319 l-5.043562539782988,0.7988218301053251 l3.6107921159321137,-3.6107921159321137 l5.043562539782988,-0.7988218301053251z"/>
<path fill="#B31B1B" fill-opacity="0.37" d="m23.683145011158516,1.165999923585554 l5.0435625397829895,-0.7988218301053234 l-3.6107921159321137,3.610792115932112 l-5.0435625397829895,0.7988218301053234z"/>
<path fill="#B31B1B" fill-opacity="0.37" d="m16.815010269469717,-5.7021348181032465 l-3.6107921159321137,3.610792115932113 l0.7988218301053251,-5.043562539782987 l3.6107921159321137,-3.610792115932113z"/>
<path fill="#B31B1B" fill-opacity="0.37" d="m5.702134818103244,-16.815010269469717 l-3.610792115932112,3.6107921159321137 l5.043562539782987,-0.7988218301053269 l3.610792115932112,-3.6107921159321137z"/>
<path fill="#B31B1B" fill-opacity="0.37" d="m-1.1659999235855576,-23.683145011158516 l0.7988218301053216,-5.043562539782993 l-3.610792115932112,3.6107921159321172 l-0.7988218301053216,5.043562539782993z"/>
<path fill="#B31B1B" fill-opacity="0.9" d="m31.18522834659288,15.889667490884136 l3.6107921159321137,-3.610792115932112 l-2.318271243866306,-4.549863497822502 l-3.6107921159321137,3.610792115932112z"/>
<path fill="#B31B1B" fill-opacity="0.9" d="m-15.889667490884142,-31.18522834659288 l3.610792115932112,-3.6107921159321137 l4.549863497822502,2.318271243866306 l-3.610792115932112,3.6107921159321137z"/>
<path fill="#B31B1B" fill-opacity="0.9" d="m20.07235289522641,4.7767920395176695 l-2.318271243866306,-4.5498634978225 l3.61079211593211,-3.6107921159321172 l2.318271243866306,4.5498634978225z"/>
<path fill="#B31B1B" fill-opacity="0.9" d="m13.204218153537603,-2.0913427021711337 l3.6107921159321137,-3.610792115932113 l4.5498634978225,2.3182712438663025 l-3.6107921159321137,3.610792115932113z"/>
<path fill="#B31B1B" fill-opacity="0.9" d="m13.2042181535376,-2.0913427021711355 l4.549863497822503,2.318271243866305 l3.61079211593211,-3.6107921159321172 l-4.549863497822503,-2.318271243866305z"/>
<path fill="#B31B1B" fill-opacity="0.9" d="m2.0913427021711337,-13.2042181535376 l-2.318271243866305,-4.5498634978225 l3.6107921159321155,-3.6107921159321137 l2.318271243866305,4.5498634978225z"/>
<path fill="#B31B1B" fill-opacity="0.9" d="m2.091342702171132,-13.204218153537603 l3.610792115932112,-3.6107921159321137 l-2.3182712438663033,-4.5498634978225 l-3.610792115932112,3.6107921159321137z"/>
<path fill="#B31B1B" fill-opacity="0.9" d="m-4.776792039517674,-20.072352895226405 l4.5498634978225025,2.318271243866306 l3.6107921159321155,-3.6107921159321137 l-4.5498634978225025,-2.318271243866306z"/>
<path fill="#B31B1B" fill-opacity="0.37" d="m10.885946909671299,-6.641206199993636 l0.7988218301053287,-5.0435625397829895 l2.3182712438663007,4.549863497822505 l-0.7988218301053287,5.0435625397829895z"/>
<path fill="#B31B1B" fill-opacity="0.37" d="m6.6412061999936345,-10.8859469096713 l5.0435625397829895,-0.7988218301053287 l-4.549863497822505,-2.3182712438663007 l-5.0435625397829895,0.7988218301053287z"/>
<path fill="#B31B1B" fill-opacity="0.9" d="m28.866957102726573,11.339803993061636 l0.7988218301053251,-5.043562539782988 l-4.549863497822507,-2.318271243866306 l-0.7988218301053251,5.043562539782988z"/>
<path fill="#B31B1B" fill-opacity="0.9" d="m-11.339803993061642,-28.866957102726573 l5.043562539782988,-0.7988218301053251 l2.318271243866306,4.549863497822507 l-5.043562539782988,0.7988218301053251z"/>
<path fill="#B31B1B" fill-opacity="0.9" d="m11.684768739776628,-11.684768739776626 l-0.7988218301053287,5.0435625397829895 l-5.043562539782987,0.7988218301053251 l0.7988218301053287,-5.0435625397829895z"/>
<path fill="#B31B1B" fill-opacity="0.9" d="m11.684768739776624,-11.68476873977663 l-5.0435625397829895,0.7988218301053287 l-0.7988218301053243,5.043562539782988 l5.0435625397829895,-0.7988218301053287z"/>
<path fill="#B31B1B" fill-opacity="0.9" d="m19.273531065121087,9.820354579300657 l5.043562539782982,-0.7988218301053269 l0.7988218301053216,-5.043562539782988 l-5.043562539782982,0.7988218301053269z"/>
<path fill="#B31B1B" fill-opacity="0.9" d="m-9.820354579300663,-19.273531065121084 l0.7988218301053287,-5.043562539782982 l5.043562539782986,-0.7988218301053251 l-0.7988218301053287,5.043562539782982z"/>
<path fill="#B31B1B" fill-opacity="0.37" d="m17.754081651360103,0.22692854169516963 l-4.549863497822503,-2.318271243866305 l2.318271243866306,4.549863497822502 l4.549863497822503,2.318271243866305z"/>
<path fill="#B31B1B" fill-opacity="0.37" d="m-0.2269285416951714,-17.7540816513601 l2.318271243866305,4.5498634978225 l-4.549863497822501,-2.318271243866306 l-2.318271243866305,-4.5498634978225z"/>
<path fill="#B31B1B" fill-opacity="0.9" d="m31.18522834659288,15.889667490884136 l-2.318271243866306,-4.5498634978225 l-5.043562539782986,0.7988218301053251 l2.318271243866306,4.5498634978225z"/>
<path fill="#B31B1B" fill-opacity="0.9" d="m-15.889667490884142,-31.18522834659288 l4.5498634978225,2.318271243866306 l-0.7988218301053234,5.0435625397829895 l-4.5498634978225,-2.318271243866306z"/>
<path fill="#B31B1B" fill-opacity="0.37" d="m24.31709360490407,9.02153274919533 l4.549863497822503,2.318271243866306 l-5.043562539782986,0.7988218301053251 l-4.549863497822503,-2.318271243866306z"/>
<path fill="#B31B1B" fill-opacity="0.9" d="m13.204218153537603,-2.0913427021711337 l-2.3182712438663042,-4.5498634978225025 l-5.043562539782987,0.7988218301053251 l2.3182712438663042,4.5498634978225025z"/>
<path fill="#B31B1B" fill-opacity="0.9" d="m2.091342702171132,-13.204218153537603 l4.5498634978225025,2.3182712438663025 l-0.7988218301053243,5.043562539782988 l-4.5498634978225025,-2.3182712438663025z"/>
<path fill="#B31B1B" fill-opacity="0.37" d="m-9.021532749195334,-24.317093604904066 l-2.318271243866308,-4.549863497822507 l-0.7988218301053234,5.0435625397829895 l2.318271243866308,4.549863497822507z"/>
<path fill="#B31B1B" fill-opacity="0.9" d="m31.185228346592876,15.88966749088414 l-5.043562539782986,0.7988218301053251 l-2.318271243866306,-4.549863497822502 l5.043562539782986,-0.7988218301053251z"/>
<path fill="#B31B1B" fill-opacity="0.9" d="m-15.889667490884147,-31.185228346592876 l-0.7988218301053216,5.0435625397829895 l4.5498634978225,2.3182712438663025 l0.7988218301053216,-5.0435625397829895z"/>
<path fill="#B31B1B" fill-opacity="0.9" d="m19.273531065121087,9.820354579300657 l-4.549863497822502,-2.3182712438663042 l0.7988218301053198,-5.043562539782987 l4.549863497822502,2.3182712438663042z"/>
<path fill="#B31B1B" fill-opacity="0.9" d="m-9.820354579300663,-19.273531065121084 l2.318271243866308,4.5498634978225 l5.043562539782988,-0.7988218301053216 l-2.318271243866308,-4.5498634978225z"/>
<path fill="#B31B1B" fill-opacity="0.37" d="m12.405396323432278,2.9522198376118505 l2.318271243866308,4.5498634978225025 l0.7988218301053198,-5.043562539782987 l-2.318271243866308,-4.5498634978225025z"/>
<path fill="#B31B1B" fill-opacity="0.37" d="m-2.9522198376118522,-12.405396323432278 l-4.5498634978225025,-2.318271243866306 l5.043562539782988,-0.7988218301053216 l4.5498634978225025,2.318271243866306z"/>
<path fill="#B31B1B" fill-opacity="0.37" d="m3.610792115932115,-3.610792115932114 l4.549863497822502,2.3182712438663042 l-2.318271243866305,-4.549863497822502 l-4.549863497822502,-2.3182712438663042z"/>
<path fill="#B31B1B" fill-opacity="0.37" d="m3.6107921159321132,-3.610792115932116 l-2.3182712438663047,-4.549863497822502 l4.549863497822502,2.3182712438663042 l2.3182712438663047,4.549863497822502z"/>
<path fill="#B31B1B" fill-opacity="0.9" d="m13.2042181535376,-2.0913427021711355 l-0.7988218301053216,5.043562539782986 l-5.043562539782987,0.7988218301053251 l0.7988218301053216,-5.043562539782986z"/>
<path fill="#B31B1B" fill-opacity="0.9" d="m2.0913427021711337,-13.2042181535376 l-5.043562539782986,0.7988218301053216 l-0.7988218301053251,5.043562539782987 l5.043562539782986,-0.7988218301053216z"/>
<path fill="#B31B1B" fill-opacity="0.37" d="m21.59180230898739,14.370218077123159 l4.5498634978225,2.318271243866306 l-2.318271243866306,-4.549863497822502 l-4.5498634978225,-2.318271243866306z"/>
<path fill="#B31B1B" fill-opacity="0.37" d="m-14.370218077123164,-21.591802308987386 l-2.3182712438663042,-4.5498634978225 l4.5498634978225,2.3182712438663025 l2.3182712438663042,4.5498634978225z"/>
<path fill="#B31B1B" fill-opacity="0.9" d="m31.185228346592876,15.88966749088414 l-0.7988218301053251,5.043562539782986 l-5.043562539782986,0.7988218301053251 l0.7988218301053251,-5.043562539782986z"/>
<path fill="#B31B1B" fill-opacity="0.9" d="m-15.889667490884147,-31.185228346592876 l-5.043562539782982,0.7988218301053287 l-0.7988218301053287,5.043562539782982 l5.043562539782982,-0.7988218301053287z"/>
<path fill="#B31B1B" fill-opacity="0.9" d="m14.723667567298586,7.502083335434353 l-2.318271243866308,-4.5498634978225025 l-5.043562539782987,0.7988218301053251 l2.318271243866308,4.5498634978225025z"/>
<path fill="#B31B1B" fill-opacity="0.9" d="m-7.502083335434355,-14.723667567298584 l4.5498634978225025,2.318271243866306 l-0.7988218301053251,5.043562539782987 l-4.5498634978225025,-2.318271243866306z"/>
<path fill="#B31B1B" fill-opacity="0.9" d="m14.723667567298584,7.502083335434355 l-5.0435625397829895,0.7988218301053234 l-2.3182712438663042,-4.549863497822502 l5.0435625397829895,-0.7988218301053234z"/>
<path fill="#B31B1B" fill-opacity="0.9" d="m-7.502083335434357,-14.723667567298582 l-0.7988218301053216,5.043562539782988 l4.5498634978225,2.3182712438663042 l0.7988218301053216,-5.043562539782988z"/>
<path fill="#B31B1B" fill-opacity="0.9" d="m8.160655613754617,-1.29252087206581 l-4.549863497822502,-2.3182712438663042 l-3.610792115932115,3.610792115932114 l4.549863497822502,2.3182712438663042z"/>
<path fill="#B31B1B" fill-opacity="0.9" d="m8.160655613754615,-1.2925208720658112 l-3.6107921159321137,3.6107921159321155 l-4.549863497822502,-2.3182712438663042 l3.6107921159321137,-3.6107921159321155z"/>
<path fill="#B31B1B" fill-opacity="0.9" d="m1.29252087206581,-8.160655613754615 l-3.6107921159321146,3.6107921159321137 l2.3182712438663047,4.549863497822502 l3.6107921159321146,-3.6107921159321137z"/>
<path fill="#B31B1B" fill-opacity="0.9" d="m1.2925208720658086,-8.160655613754617 l2.3182712438663047,4.549863497822502 l-3.6107921159321132,3.610792115932116 l-2.3182712438663047,-4.549863497822502z"/>
<path fill="#B31B1B" fill-opacity="0.9" d="m19.273531065121087,9.820354579300659 l-4.549863497822503,-2.3182712438663042 l-3.6107921159321172,3.6107921159321137 l4.549863497822503,2.3182712438663042z"/>
<path fill="#B31B1B" fill-opacity="0.9" d="m-9.820354579300663,-19.273531065121084 l2.318271243866306,4.549863497822502 l-3.6107921159321137,3.6107921159321172 l-2.318271243866306,-4.549863497822502z"/>
<path fill="#B31B1B" fill-opacity="0.9" d="m19.273531065121087,9.820354579300659 l2.3182712438663025,4.5498634978225 l-3.610792115932121,3.6107921159321172 l-2.3182712438663025,-4.5498634978225z"/>
<path fill="#B31B1B" fill-opacity="0.9" d="m-9.820354579300663,-19.273531065121084 l-4.549863497822502,-2.3182712438663025 l-3.610792115932112,3.6107921159321172 l4.549863497822502,2.3182712438663025z"/>
<path fill="#B31B1B" fill-opacity="0.9" d="m30.38640651648755,20.933230030667126 l-3.6107921159321137,3.6107921159321137 l2.3182712438663025,4.549863497822503 l3.6107921159321137,-3.6107921159321137z"/>
<path fill="#B31B1B" fill-opacity="0.9" d="m26.14166580680989,16.688489320989465 l-3.6107921159321137,3.6107921159321137 l-4.549863497822507,-2.3182712438663025 l3.6107921159321137,-3.6107921159321137z"/>
<path fill="#B31B1B" fill-opacity="0.9" d="m-16.68848932098947,-26.141665806809886 l-3.6107921159321137,3.6107921159321137 l2.318271243866306,4.549863497822503 l3.6107921159321137,-3.6107921159321137z"/>
<path fill="#B31B1B" fill-opacity="0.9" d="m-20.93323003066713,-30.386406516487547 l-3.6107921159321137,3.6107921159321137 l-4.549863497822503,-2.3182712438663025 l3.6107921159321137,-3.6107921159321137z"/>
<path fill="#B31B1B" fill-opacity="0.37" d="m4.549863497822502,2.3182712438663042 l3.6107921159321137,-3.6107921159321155 l-0.7988218301053243,5.043562539782987 l-3.6107921159321137,3.6107921159321155z"/>
<path fill="#B31B1B" fill-opacity="0.37" d="m-2.3182712438663047,-4.549863497822502 l3.6107921159321146,-3.6107921159321137 l-5.043562539782988,0.7988218301053243 l-3.6107921159321146,3.6107921159321137z"/>
<path fill="#B31B1B" fill-opacity="0.37" d="m4.549863497822502,2.3182712438663047 l-0.7988218301053251,5.043562539782986 l3.6107921159321137,-3.610792115932114 l0.7988218301053251,-5.043562539782986z"/>
<path fill="#B31B1B" fill-opacity="0.37" d="m-2.318271243866305,-4.549863497822502 l-5.043562539782987,0.798821830105326 l3.6107921159321137,-3.6107921159321146 l5.043562539782987,-0.798821830105326z"/>
<path fill="#B31B1B" fill-opacity="0.37" d="m26.775614400555437,24.54402214659924 l-5.043562539782982,0.7988218301053251 l3.61079211593211,-3.6107921159321137 l5.043562539782982,-0.7988218301053251z"/>
<path fill="#B31B1B" fill-opacity="0.37" d="m22.530873690877776,20.29928143692158 l3.6107921159321137,-3.6107921159321137 l-0.7988218301053251,5.043562539782986 l-3.6107921159321137,3.6107921159321137z"/>
<path fill="#B31B1B" fill-opacity="0.37" d="m-20.299281436921582,-22.530873690877772 l3.6107921159321137,-3.6107921159321137 l-5.0435625397829895,0.7988218301053216 l-3.6107921159321137,3.6107921159321137z"/>
<path fill="#B31B1B" fill-opacity="0.37" d="m-24.544022146599243,-26.775614400555433 l-0.7988218301053251,5.043562539782982 l3.61079211593211,-3.6107921159321137 l0.7988218301053251,-5.043562539782982z"/>
<path fill="#B31B1B" fill-opacity="0.37" d="m9.680105027515594,8.300905165539678 l5.0435625397829895,-0.7988218301053234 l-3.6107921159321172,3.6107921159321137 l-5.0435625397829895,0.7988218301053234z"/>
<path fill="#B31B1B" fill-opacity="0.37" d="m-8.300905165539678,-9.680105027515594 l0.7988218301053216,-5.043562539782988 l-3.6107921159321137,3.6107921159321172 l-0.7988218301053216,5.043562539782988z"/>
<path fill="#B31B1B" fill-opacity="0.9" d="m6.06931291158348,11.911697281471794 l3.6107921159321146,-3.6107921159321155 l-2.3182712438663042,-4.549863497822502 l-3.6107921159321146,3.6107921159321155z"/>
<path fill="#B31B1B" fill-opacity="0.9" d="m-11.911697281471792,-6.069312911583479 l3.6107921159321137,-3.6107921159321155 l4.5498634978225,2.3182712438663042 l-3.6107921159321137,3.6107921159321155z"/>
<path fill="#B31B1B" fill-opacity="0.9" d="m3.751041667717179,7.36183378364929 l-4.549863497822503,-2.3182712438663025 l0.7988218301053238,-5.043562539782988 l4.549863497822503,2.3182712438663025z"/>
<path fill="#B31B1B" fill-opacity="0.9" d="m-7.361833783649291,-3.7510416677171783 l2.3182712438663033,4.549863497822503 l5.043562539782988,-0.7988218301053247 l-2.3182712438663033,-4.549863497822503z"/>
<path fill="#B31B1B" fill-opacity="0.9" d="m3.7510416677171765,7.361833783649291 l0.7988218301053251,-5.043562539782986 l-4.549863497822502,-2.3182712438663047 l-0.7988218301053251,5.043562539782986z"/>
<path fill="#B31B1B" fill-opacity="0.9" d="m-7.361833783649292,-3.7510416677171756 l5.043562539782987,-0.798821830105326 l2.318271243866305,4.549863497822502 l-5.043562539782987,0.798821830105326z"/>
<path fill="#B31B1B" fill-opacity="0.37" d="m10.61917640940598,14.229968525338094 l-4.549863497822501,-2.3182712438663007 l5.043562539782987,-0.7988218301053251 l4.549863497822501,2.3182712438663007z"/>
<path fill="#B31B1B" fill-opacity="0.37" d="m-14.229968525338094,-10.619176409405977 l2.3182712438663025,4.549863497822498 l0.7988218301053216,-5.043562539782986 l-2.3182712438663025,-4.549863497822498z"/>
<path fill="#B31B1B" fill-opacity="0.9" d="m21.732051860772454,25.342843976704565 l2.318271243866306,4.549863497822507 l5.043562539782979,-0.7988218301053287 l-2.318271243866306,-4.549863497822507z"/>
<path fill="#B31B1B" fill-opacity="0.9" d="m21.732051860772454,25.342843976704565 l0.7988218301053216,-5.043562539782986 l-4.549863497822507,-2.3182712438663025 l-0.7988218301053216,5.043562539782986z"/>
<path fill="#B31B1B" fill-opacity="0.37" d="m14.863917119083643,18.474709235015755 l2.318271243866308,4.549863497822507 l0.798821830105318,-5.043562539782986 l-2.318271243866308,-4.549863497822507z"/>
<path fill="#B31B1B" fill-opacity="0.37" d="m-18.47470923501576,-14.86391711908364 l-4.549863497822507,-2.318271243866308 l5.0435625397829895,-0.7988218301053216 l4.549863497822507,2.318271243866308z"/>
<path fill="#B31B1B" fill-opacity="0.9" d="m-25.342843976704568,-21.73205186077245 l5.043562539782986,-0.7988218301053216 l2.318271243866306,4.549863497822503 l-5.043562539782986,0.7988218301053216z"/>
<path fill="#B31B1B" fill-opacity="0.9" d="m-25.342843976704568,-21.73205186077245 l-4.549863497822507,-2.318271243866306 l0.7988218301053287,-5.043562539782979 l4.549863497822507,2.318271243866306z"/>
<path fill="#B31B1B" fill-opacity="0.9" d="m15.66273894918897,13.431146695232771 l-5.0435625397829895,0.7988218301053234 l-0.7988218301053251,5.043562539782986 l5.0435625397829895,-0.7988218301053234z"/>
<path fill="#B31B1B" fill-opacity="0.9" d="m-13.431146695232773,-15.662738949188968 l-0.7988218301053216,5.043562539782991 l-5.0435625397829895,0.7988218301053251 l0.7988218301053216,-5.043562539782991z"/>
<path fill="#B31B1B" fill-opacity="0.9" d="m-5.842384369888311,5.842384369888312 l0.7988218301053234,-5.043562539782986 l5.043562539782988,-0.798821830105326 l-0.7988218301053234,5.043562539782986z"/>
<path fill="#B31B1B" fill-opacity="0.9" d="m23.251501274533428,34.936270014310054 l0.7988218301053323,-5.043562539782982 l5.043562539782979,-0.7988218301053287 l-0.7988218301053323,5.043562539782982z"/>
<path fill="#B31B1B" fill-opacity="0.9" d="m-34.936270014310054,-23.251501274533425 l5.043562539782979,-0.7988218301053323 l0.7988218301053287,-5.043562539782979 l-5.043562539782979,0.7988218301053323z"/>
<path fill="#B31B1B" fill-opacity="0.9" d="m6.069312911583484,11.91169728147179 l-0.7988218301053225,5.043562539782988 l4.549863497822501,2.3182712438663025 l0.7988218301053225,-5.043562539782988z"/>
<path fill="#B31B1B" fill-opacity="0.9" d="m-11.911697281471792,-6.0693129115834825 l-5.043562539782986,0.7988218301053234 l-2.3182712438663025,-4.5498634978225 l5.043562539782986,-0.7988218301053234z"/>
<path fill="#B31B1B" fill-opacity="0.9" d="m6.069312911583484,11.91169728147179 l-5.043562539782985,0.7988218301053287 l-2.318271243866306,-4.549863497822502 l5.043562539782985,-0.7988218301053287z"/>
<path fill="#B31B1B" fill-opacity="0.9" d="m-11.911697281471792,-6.0693129115834825 l-0.7988218301053287,5.043562539782986 l4.549863497822503,2.318271243866305 l0.7988218301053287,-5.043562539782986z"/>
<path fill="#B31B1B" fill-opacity="0.37" d="m-0.7988218301053238,5.043562539782988 l4.549863497822503,2.3182712438663025 l-5.043562539782986,0.7988218301053269 l-4.549863497822503,-2.3182712438663025z"/>
<path fill="#B31B1B" fill-opacity="0.37" d="m-5.043562539782988,0.7988218301053247 l-2.3182712438663033,-4.549863497822503 l-0.798821830105326,5.043562539782987 l2.3182712438663033,4.549863497822503z"/>
<path fill="#B31B1B" fill-opacity="0.9" d="m17.18218836294995,23.024572732838262 l-5.0435625397829895,0.798821830105318 l-2.318271243866306,-4.5498634978225 l5.0435625397829895,-0.798821830105318z"/>
<path fill="#B31B1B" fill-opacity="0.9" d="m6.06931291158348,11.911697281471794 l4.549863497822501,2.3182712438663007 l-0.7988218301053251,5.043562539782986 l-4.549863497822501,-2.3182712438663007z"/>
<path fill="#B31B1B" fill-opacity="0.37" d="m-0.7988218301053251,5.043562539782988 l-5.043562539782986,0.7988218301053243 l4.549863497822502,2.318271243866305 l5.043562539782986,-0.7988218301053243z"/>
<path fill="#B31B1B" fill-opacity="0.37" d="m-5.043562539782988,0.798821830105326 l-0.7988218301053234,5.043562539782986 l-2.318271243866306,-4.549863497822501 l0.7988218301053234,-5.043562539782986z"/>
<path fill="#B31B1B" fill-opacity="0.9" d="m-11.911697281471792,-6.069312911583479 l-2.3182712438663025,-4.549863497822498 l-5.0435625397829895,0.7988218301053251 l2.3182712438663025,4.549863497822498z"/>
<path fill="#B31B1B" fill-opacity="0.9" d="m-23.024572732838266,-17.182188362949947 l-0.798821830105318,5.0435625397829895 l4.5498634978225,2.318271243866306 l0.798821830105318,-5.0435625397829895z"/>
<path fill="#B31B1B" fill-opacity="0.37" d="m24.05032310463876,29.89270747452707 l-2.318271243866306,-4.549863497822507 l-0.7988218301053287,5.043562539782986 l2.318271243866306,4.549863497822507z"/>
<path fill="#B31B1B" fill-opacity="0.37" d="m-29.892707474527075,-24.050323104638757 l4.549863497822507,2.318271243866306 l-5.043562539782986,0.7988218301053287 l-4.549863497822507,-2.318271243866306z"/>
<path fill="#B31B1B" fill-opacity="0.37" d="m28.295063814316418,34.13744818420473 l-5.0435625397829895,0.7988218301053251 l4.5498634978225,2.318271243866306 l5.0435625397829895,-0.7988218301053251z"/>
<path fill="#B31B1B" fill-opacity="0.37" d="m-34.13744818420473,-28.295063814316414 l-0.7988218301053251,5.0435625397829895 l-2.318271243866306,-4.549863497822503 l0.7988218301053251,-5.0435625397829895z"/>
<path fill="#B31B1B" fill-opacity="0.9" d="m21.732051860772454,25.342843976704565 l-3.6107921159321137,3.6107921159321137 l-4.5498634978225105,-2.318271243866306 l3.6107921159321137,-3.6107921159321137z"/>
<path fill="#B31B1B" fill-opacity="0.9" d="m-25.342843976704568,-21.73205186077245 l-3.6107921159321137,3.6107921159321137 l2.3182712438663096,4.549863497822507 l3.6107921159321137,-3.6107921159321137z"/>
<path fill="#B31B1B" fill-opacity="0.37" d="m18.12125974484034,28.95363609263668 l-0.7988218301053287,5.0435625397829895 l3.6107921159321137,-3.6107921159321172 l0.7988218301053287,-5.0435625397829895z"/>
<path fill="#B31B1B" fill-opacity="0.37" d="m-28.953636092636682,-18.121259744840337 l-5.043562539782986,0.7988218301053287 l3.6107921159321137,-3.6107921159321137 l5.043562539782986,-0.7988218301053287z"/>
<path fill="#B31B1B" fill-opacity="0.37" d="m12.138625823166969,23.82339456294358 l-3.610792115932112,3.610792115932121 l5.043562539782988,-0.7988218301053287 l3.610792115932112,-3.610792115932121z"/>
<path fill="#B31B1B" fill-opacity="0.37" d="m-23.823394562943584,-12.138625823166965 l-3.610792115932121,3.6107921159321137 l0.7988218301053323,-5.043562539782988 l3.610792115932121,-3.6107921159321137z"/>
<path fill="#B31B1B" fill-opacity="0.37" d="m5.270491081478162,16.955259821254778 l0.7988218301053225,-5.043562539782988 l-3.610792115932113,3.6107921159321172 l-0.7988218301053225,5.043562539782988z"/>
<path fill="#B31B1B" fill-opacity="0.37" d="m-16.955259821254778,-5.270491081478159 l5.043562539782986,-0.7988218301053234 l-3.6107921159321172,3.6107921159321137 l-5.043562539782986,0.7988218301053234z"/>
<path fill="#B31B1B" fill-opacity="0.37" d="m1.0257503718004992,12.710519111577119 l-3.6107921159321155,3.610792115932119 l5.043562539782988,-0.7988218301053305 l3.6107921159321155,-3.610792115932119z"/>
<path fill="#B31B1B" fill-opacity="0.37" d="m-12.71051911157712,-1.0257503718004966 l-3.6107921159321172,3.6107921159321155 l0.7988218301053287,-5.043562539782988 l3.6107921159321172,-3.6107921159321155z"/>
<path fill="#B31B1B" fill-opacity="0.37" d="m12.138625823166961,23.82339456294358 l5.0435625397829895,-0.798821830105318 l-3.610792115932121,3.61079211593211 l-5.0435625397829895,0.798821830105318z"/>
<path fill="#B31B1B" fill-opacity="0.37" d="m-23.823394562943584,-12.138625823166958 l0.798821830105318,-5.0435625397829895 l-3.6107921159321066,3.6107921159321172 l-0.798821830105318,5.0435625397829895z"/>
<path fill="#B31B1B" fill-opacity="0.9" d="m8.527833707234857,27.4341866788757 l3.610792115932112,-3.610792115932121 l-2.318271243866306,-4.5498634978225 l-3.610792115932112,3.610792115932121z"/>
<path fill="#B31B1B" fill-opacity="0.9" d="m-27.434186678875705,-8.527833707234851 l3.610792115932121,-3.6107921159321137 l4.549863497822503,2.318271243866306 l-3.610792115932121,3.6107921159321137z"/>
<path fill="#B31B1B" fill-opacity="0.9" d="m1.6596989655460455,20.566051937186895 l3.6107921159321164,-3.6107921159321172 l4.549863497822501,2.3182712438663025 l-3.6107921159321164,3.6107921159321172z"/>
<path fill="#B31B1B" fill-opacity="0.9" d="m-20.566051937186895,-1.659698965546042 l3.6107921159321172,-3.6107921159321172 l-2.3182712438663025,-4.5498634978225 l-3.6107921159321172,3.6107921159321172z"/>
<path fill="#B31B1B" fill-opacity="0.9" d="m-2.5850417441316162,16.321311227509238 l3.6107921159321155,-3.610792115932119 l-2.318271243866306,-4.549863497822502 l-3.6107921159321155,3.610792115932119z"/>
<path fill="#B31B1B" fill-opacity="0.9" d="m-9.453176485820425,9.453176485820427 l4.5498634978225,2.3182712438663042 l3.610792115932115,-3.6107921159321137 l-4.5498634978225,-2.3182712438663042z"/>
<path fill="#B31B1B" fill-opacity="0.9" d="m-9.453176485820425,9.453176485820427 l-2.318271243866306,-4.549863497822502 l3.6107921159321137,-3.6107921159321137 l2.318271243866306,4.549863497822502z"/>
<path fill="#B31B1B" fill-opacity="0.9" d="m-16.321311227509238,2.585041744131619 l3.6107921159321172,-3.6107921159321155 l4.549863497822503,2.318271243866305 l-3.6107921159321172,3.6107921159321155z"/>
<path fill="#B31B1B" fill-opacity="0.9" d="m26.508843900290117,45.41519687193097 l-2.3182712438663025,-4.5498634978225 l3.6107921159321137,-3.6107921159321137 l2.3182712438663025,4.5498634978225z"/>
<path fill="#B31B1B" fill-opacity="0.9" d="m19.640709158601318,38.54706213024217 l4.549863497822496,2.318271243866306 l3.6107921159321137,-3.6107921159321137 l-4.549863497822496,-2.318271243866306z"/>
<path fill="#B31B1B" fill-opacity="0.9" d="m19.640709158601318,38.54706213024217 l-2.318271243866306,-4.5498634978225 l3.6107921159321137,-3.6107921159321172 l2.318271243866306,4.5498634978225z"/>
<path fill="#B31B1B" fill-opacity="0.9" d="m-2.58504174413162,16.321311227509234 l-2.318271243866305,-4.549863497822503 l3.610792115932115,-3.6107921159321137 l2.318271243866305,4.549863497822503z"/>
<path fill="#B31B1B" fill-opacity="0.9" d="m-16.321311227509234,2.5850417441316225 l4.549863497822503,2.3182712438663025 l3.6107921159321137,-3.6107921159321137 l-4.549863497822503,-2.3182712438663025z"/>
<path fill="#B31B1B" fill-opacity="0.9" d="m-38.54706213024217,-19.64070915860131 l4.5498634978225,2.3182712438663025 l3.6107921159321137,-3.6107921159321137 l-4.5498634978225,-2.3182712438663025z"/>
<path fill="#B31B1B" fill-opacity="0.9" d="m-38.54706213024217,-19.64070915860131 l-2.318271243866306,-4.549863497822503 l3.6107921159321137,-3.6107921159321137 l2.318271243866306,4.549863497822503z"/>
<path fill="#B31B1B" fill-opacity="0.9" d="m-45.41519687193097,-26.508843900290117 l4.5498634978225,2.3182712438663025 l3.6107921159321137,-3.6107921159321137 l-4.5498634978225,-2.3182712438663025z"/>
<path fill="#B31B1B" fill-opacity="0.9" d="m17.32243791473502,33.99719863241966 l-4.549863497822498,-2.3182712438663025 l0.7988218301053234,-5.043562539782986 l4.549863497822498,2.3182712438663025z"/>
<path fill="#B31B1B" fill-opacity="0.9" d="m-33.99719863241966,-17.322437914735012 l2.318271243866299,4.549863497822496 l5.0435625397829895,-0.7988218301053234 l-2.318271243866299,-4.549863497822496z"/>
<path fill="#B31B1B" fill-opacity="0.9" d="m17.322437914735012,33.99719863241967 l0.7988218301053287,-5.0435625397829895 l-4.5498634978225105,-2.318271243866306 l-0.7988218301053287,5.0435625397829895z"/>
<path fill="#B31B1B" fill-opacity="0.9" d="m-33.99719863241967,-17.32243791473501 l5.043562539782986,-0.7988218301053287 l2.3182712438663096,4.549863497822507 l-5.043562539782986,0.7988218301053287z"/>
<path fill="#B31B1B" fill-opacity="0.9" d="m7.729011877129533,32.47774921865869 l5.043562539782988,-0.7988218301053287 l0.7988218301053234,-5.043562539782986 l-5.043562539782988,0.7988218301053287z"/>
<path fill="#B31B1B" fill-opacity="0.9" d="m-32.47774921865869,-7.729011877129528 l0.7988218301053251,-5.043562539782988 l5.0435625397829895,-0.7988218301053234 l-0.7988218301053251,5.043562539782988z"/>
<path fill="#B31B1B" fill-opacity="0.37" d="m6.209562463368551,22.884323181053198 l2.318271243866306,4.549863497822503 l-4.549863497822502,-2.3182712438663096 l-2.318271243866306,-4.549863497822503z"/>
<path fill="#B31B1B" fill-opacity="0.37" d="m-22.884323181053198,-6.209562463368547 l-4.549863497822507,-2.3182712438663042 l2.3182712438663096,4.549863497822502 l4.549863497822507,2.3182712438663042z"/>
<path fill="#B31B1B" fill-opacity="0.9" d="m-3.3838635742369387,21.364873767292224 l0.7988218301053225,-5.043562539782986 l5.043562539782988,-0.7988218301053305 l-0.7988218301053225,5.043562539782986z"/>
<path fill="#B31B1B" fill-opacity="0.9" d="m-21.364873767292224,3.3838635742369423 l5.043562539782986,-0.7988218301053234 l0.7988218301053287,-5.043562539782988 l-5.043562539782986,0.7988218301053234z"/>
<path fill="#B31B1B" fill-opacity="0.37" d="m24.190572656423814,40.865333374108474 l2.3182712438663025,4.5498634978225 l-4.5498634978225,-2.318271243866306 l-2.3182712438663025,-4.5498634978225z"/>
<path fill="#B31B1B" fill-opacity="0.37" d="m-4.903312987997925,11.77144772968673 l2.318271243866305,4.549863497822503 l-4.5498634978225025,-2.3182712438663042 l-2.318271243866305,-4.549863497822503z"/>
<path fill="#B31B1B" fill-opacity="0.37" d="m-11.77144772968673,4.903312987997925 l-4.549863497822503,-2.3182712438663025 l2.318271243866306,4.549863497822502 l4.549863497822503,2.3182712438663025z"/>
<path fill="#B31B1B" fill-opacity="0.37" d="m-40.865333374108474,-24.190572656423814 l-4.5498634978225,-2.3182712438663025 l2.318271243866306,4.5498634978225 l4.5498634978225,2.3182712438663025z"/>
<path fill="#B31B1B" fill-opacity="0.9" d="m19.640709158601332,38.54706213024217 l-2.318271243866313,-4.549863497822507 l-5.043562539782982,0.7988218301053323 l2.318271243866313,4.549863497822507z"/>
<path fill="#B31B1B" fill-opacity="0.37" d="m12.772574416912521,31.678927388553358 l4.549863497822498,2.3182712438663025 l-5.043562539782982,0.7988218301053323 l-4.549863497822498,-2.3182712438663025z"/>
<path fill="#B31B1B" fill-opacity="0.37" d="m-31.67892738855336,-12.772574416912516 l-2.318271243866299,-4.549863497822496 l-0.7988218301053323,5.043562539782981 l2.318271243866299,4.549863497822496z"/>
<path fill="#B31B1B" fill-opacity="0.9" d="m-38.54706213024217,-19.64070915860132 l4.549863497822507,2.3182712438663096 l-0.7988218301053323,5.043562539782981 l-4.549863497822507,-2.3182712438663096z"/>
<path fill="#B31B1B" fill-opacity="0.9" d="m25.710022070184806,50.458759411713956 l-4.549863497822493,-2.318271243866306 l0.798821830105318,-5.0435625397829895 l4.549863497822493,2.318271243866306z"/>
<path fill="#B31B1B" fill-opacity="0.9" d="m-50.458759411713956,-25.710022070184806 l2.318271243866299,4.549863497822503 l5.0435625397829895,-0.7988218301053216 l-2.318271243866299,-4.549863497822503z"/>
<path fill="#B31B1B" fill-opacity="0.37" d="m18.841887328496004,43.59062467002515 l2.3182712438663096,4.5498634978225 l0.798821830105318,-5.0435625397829895 l-2.3182712438663096,-4.5498634978225z"/>
<path fill="#B31B1B" fill-opacity="0.37" d="m-43.59062467002515,-18.841887328496 l-4.549863497822507,-2.3182712438663025 l5.0435625397829895,-0.7988218301053216 l4.549863497822507,2.3182712438663025z"/>
<path fill="#B31B1B" fill-opacity="0.9" d="m7.729011877129533,32.47774921865869 l-4.5498634978225,-2.318271243866306 l0.7988218301053216,-5.0435625397829895 l4.5498634978225,2.318271243866306z"/>
<path fill="#B31B1B" fill-opacity="0.9" d="m-3.3838635742369387,21.364873767292224 l2.318271243866306,4.549863497822493 l5.043562539782988,-0.7988218301053251 l-2.318271243866306,-4.549863497822493z"/>
<path fill="#B31B1B" fill-opacity="0.9" d="m-21.364873767292224,3.3838635742369423 l-4.549863497822493,-2.318271243866306 l0.7988218301053216,-5.043562539782986 l4.549863497822493,2.318271243866306z"/>
<path fill="#B31B1B" fill-opacity="0.9" d="m-32.47774921865869,-7.729011877129528 l2.3182712438663025,4.5498634978225 l5.0435625397829895,-0.7988218301053216 l-2.3182712438663025,-4.5498634978225z"/>
<path fill="#B31B1B" fill-opacity="0.9" d="m25.7100220701848,50.458759411713956 l0.798821830105318,-5.043562539782982 l-4.5498634978225,-2.318271243866306 l-0.798821830105318,5.043562539782982z"/>
<path fill="#B31B1B" fill-opacity="0.9" d="m-3.383863574236946,21.364873767292224 l0.798821830105326,-5.0435625397829895 l-4.5498634978225025,-2.3182712438663042 l-0.798821830105326,5.0435625397829895z"/>
<path fill="#B31B1B" fill-opacity="0.37" d="m-10.25199831592575,14.496739025603413 l0.7988218301053251,-5.043562539782986 l2.3182712438663025,4.549863497822503 l-0.7988218301053251,5.043562539782986z"/>
<path fill="#B31B1B" fill-opacity="0.37" d="m-14.49673902560341,10.251998315925752 l5.043562539782986,-0.7988218301053251 l-4.549863497822503,-2.3182712438663025 l-5.043562539782986,0.7988218301053251z"/>
<path fill="#B31B1B" fill-opacity="0.9" d="m-21.364873767292224,3.3838635742369494 l5.0435625397829895,-0.7988218301053269 l2.318271243866306,4.549863497822502 l-5.0435625397829895,0.7988218301053269z"/>
<path fill="#B31B1B" fill-opacity="0.9" d="m-50.45875941171396,-25.710022070184788 l5.0435625397829895,-0.7988218301053287 l2.318271243866306,4.5498634978225 l-5.0435625397829895,0.7988218301053287z"/>
<path fill="#B31B1B" fill-opacity="0.9" d="m19.640709158601332,38.54706213024217 l-0.7988218301053287,5.043562539782982 l-5.043562539782984,0.7988218301053251 l0.7988218301053287,-5.043562539782982z"/>
<path fill="#B31B1B" fill-opacity="0.37" d="m10.04728312099584,37.02761271648119 l-2.318271243866306,-4.5498634978225 l4.549863497822503,2.318271243866306 l2.318271243866306,4.5498634978225z"/>
<path fill="#B31B1B" fill-opacity="0.37" d="m-37.02761271648119,-10.047283120995834 l4.5498634978225,2.318271243866306 l-2.318271243866306,-4.549863497822503 l-4.5498634978225,-2.318271243866306z"/>
<path fill="#B31B1B" fill-opacity="0.9" d="m-38.54706213024217,-19.64070915860132 l-5.043562539782982,0.7988218301053216 l-0.7988218301053323,5.043562539782991 l5.043562539782982,-0.7988218301053216z"/>
<path fill="#B31B1B" fill-opacity="0.9" d="m-9.453176485820425,9.453176485820427 l-5.043562539782986,0.7988218301053251 l-0.7988218301053234,5.043562539782984 l5.043562539782986,-0.7988218301053251z"/>
<path fill="#B31B1B" fill-opacity="0.9" d="m-1.864414160475956,30.958299804897713 l5.0435625397829895,-0.7988218301053323 l0.7988218301053216,-5.0435625397829895 l-5.0435625397829895,0.7988218301053323z"/>
<path fill="#B31B1B" fill-opacity="0.9" d="m-30.95829980489771,1.8644141604759614 l0.7988218301053251,-5.0435625397829895 l5.0435625397829895,-0.7988218301053216 l-0.7988218301053251,5.0435625397829895z"/>
<path fill="#B31B1B" fill-opacity="0.9" d="m21.160158572362313,48.14048816784765 l-2.3182712438663096,-4.5498634978225 l-5.043562539782984,0.7988218301053251 l2.3182712438663096,4.5498634978225z"/>
<path fill="#B31B1B" fill-opacity="0.9" d="m-48.14048816784766,-21.160158572362302 l4.549863497822507,2.3182712438663025 l-0.7988218301053323,5.043562539782991 l-4.549863497822507,-2.3182712438663025z"/>
<path fill="#B31B1B" fill-opacity="0.37" d="m3.1791483793070334,30.15947797479238 l-5.0435625397829895,0.7988218301053323 l4.549863497822502,2.318271243866299 l5.0435625397829895,-0.7988218301053323z"/>
<path fill="#B31B1B" fill-opacity="0.37" d="m-1.0655923303706327,25.914737265114717 l-0.7988218301053234,5.043562539782997 l-2.318271243866306,-4.549863497822507 l0.7988218301053234,-5.043562539782997z"/>
<path fill="#B31B1B" fill-opacity="0.37" d="m-25.914737265114717,1.0655923303706363 l-5.043562539782993,0.7988218301053251 l4.549863497822503,2.3182712438663042 l5.043562539782993,-0.7988218301053251z"/>
<path fill="#B31B1B" fill-opacity="0.37" d="m-30.159477974792384,-3.179148379307028 l-0.7988218301053251,5.0435625397829895 l-2.3182712438663025,-4.549863497822505 l0.7988218301053251,-5.0435625397829895z"/>
<path fill="#B31B1B" fill-opacity="0.9" d="m-7.933727072059446,19.046602523425918 l-2.3182712438663042,-4.549863497822505 l-5.043562539782984,0.7988218301053234 l2.3182712438663042,4.549863497822505z"/>
<path fill="#B31B1B" fill-opacity="0.9" d="m-19.046602523425918,7.933727072059448 l4.549863497822507,2.3182712438663033 l-0.7988218301053234,5.043562539782984 l-4.549863497822507,-2.3182712438663033z"/>
<path fill="#B31B1B" fill-opacity="0.9" d="m14.597146618818343,39.34588396034749 l-4.549863497822503,-2.318271243866306 l-3.6107921159321137,3.6107921159321137 l4.549863497822503,2.318271243866306z"/>
<path fill="#B31B1B" fill-opacity="0.9" d="m-39.34588396034749,-14.597146618818337 l2.318271243866306,4.549863497822503 l-3.6107921159321137,3.6107921159321155 l-2.318271243866306,-4.549863497822503z"/>
<path fill="#B31B1B" fill-opacity="0.9" d="m7.729011877129533,32.47774921865869 l2.318271243866306,4.5498634978225 l-3.6107921159321137,3.6107921159321137 l-2.318271243866306,-4.5498634978225z"/>
<path fill="#B31B1B" fill-opacity="0.9" d="m-32.47774921865869,-7.729011877129528 l-4.5498634978225,-2.318271243866306 l-3.6107921159321137,3.6107921159321155 l4.5498634978225,2.318271243866306z"/>
<path fill="#B31B1B" fill-opacity="0.9" d="m-3.383863574236946,21.364873767292224 l-3.6107921159321155,3.6107921159321137 l-4.549863497822498,-2.318271243866313 l3.6107921159321155,-3.6107921159321137z"/>
<path fill="#B31B1B" fill-opacity="0.9" d="m-21.364873767292224,3.3838635742369494 l-3.61079211593211,3.6107921159321137 l2.3182712438663096,4.549863497822498 l3.61079211593211,-3.6107921159321137z"/>
<path fill="#B31B1B" fill-opacity="0.37" d="m10.986354502886229,42.95667607627961 l3.6107921159321137,-3.6107921159321137 l-0.7988218301053234,5.043562539782982 l-3.6107921159321137,3.6107921159321137z"/>
<path fill="#B31B1B" fill-opacity="0.37" d="m-42.95667607627961,-10.986354502886222 l3.6107921159321137,-3.6107921159321155 l-5.0435625397829895,0.7988218301053287 l-3.6107921159321137,3.6107921159321155z"/>
<path fill="#B31B1B" fill-opacity="0.37" d="m4.11821976119742,36.0885413345908 l3.6107921159321137,-3.6107921159321137 l-5.043562539782988,0.7988218301053251 l-3.6107921159321137,3.6107921159321137z"/>
<path fill="#B31B1B" fill-opacity="0.37" d="m-36.0885413345908,-4.118219761197414 l3.6107921159321137,-3.6107921159321137 l-0.7988218301053251,5.043562539782984 l-3.6107921159321137,3.6107921159321137z"/>
<path fill="#B31B1B" fill-opacity="0.37" d="m-6.994655690169061,24.975665883224337 l-0.7988218301053198,5.043562539782982 l3.61079211593211,-3.6107921159321137 l0.7988218301053198,-5.043562539782982z"/>
<path fill="#B31B1B" fill-opacity="0.37" d="m-24.975665883224334,6.994655690169063 l-5.043562539782986,0.7988218301053234 l3.6107921159321137,-3.610792115932112 l5.043562539782986,-0.7988218301053234z"/>
<path fill="#B31B1B" fill-opacity="0.37" d="m-12.97728961184243,19.84542435353124 l-3.6107921159321172,3.6107921159321172 l5.043562539782988,-0.7988218301053323 l3.6107921159321172,-3.6107921159321172z"/>
<path fill="#B31B1B" fill-opacity="0.37" d="m-19.845424353531236,12.977289611842433 l-3.6107921159321172,3.6107921159321172 l0.7988218301053287,-5.0435625397829895 l3.6107921159321172,-3.6107921159321172z"/>
<path fill="#B31B1B" fill-opacity="0.9" d="m-5.47520627640807,34.56909192082982 l4.549863497822503,2.318271243866306 l3.610792115932112,-3.6107921159321137 l-4.549863497822503,-2.318271243866306z"/>
<path fill="#B31B1B" fill-opacity="0.9" d="m-5.47520627640807,34.56909192082982 l3.6107921159321137,-3.6107921159321066 l-2.318271243866306,-4.549863497822507 l-3.6107921159321137,3.6107921159321066z"/>
<path fill="#B31B1B" fill-opacity="0.9" d="m-34.56909192082982,5.475206276408072 l3.61079211593211,-3.61079211593211 l4.549863497822503,2.3182712438663042 l-3.61079211593211,3.61079211593211z"/>
<path fill="#B31B1B" fill-opacity="0.9" d="m-34.56909192082982,5.475206276408072 l-2.318271243866306,-4.549863497822502 l3.6107921159321137,-3.6107921159321137 l2.318271243866306,4.549863497822502z"/>
<path fill="#B31B1B" fill-opacity="0.9" d="m-16.588081727774547,23.456216469463357 l-2.3182712438663025,-4.549863497822503 l3.6107921159321155,-3.6107921159321172 l2.3182712438663025,4.549863497822503z"/>
<path fill="#B31B1B" fill-opacity="0.9" d="m-23.456216469463353,16.58808172777455 l4.549863497822503,2.3182712438663025 l3.6107921159321155,-3.6107921159321172 l-4.549863497822503,-2.3182712438663025z"/>
<path fill="#B31B1B" fill-opacity="0.9" d="m-5.475206276408079,34.56909192082982 l-2.3182712438663025,-4.5498634978225 l3.61079211593211,-3.6107921159321137 l2.3182712438663025,4.5498634978225z"/>
<path fill="#B31B1B" fill-opacity="0.9" d="m-34.56909192082982,5.475206276408084 l4.5498634978225,2.3182712438663025 l3.6107921159321137,-3.610792115932112 l-4.5498634978225,-2.3182712438663025z"/>
<path fill="#B31B1B" fill-opacity="0.9" d="m-0.9253427785855664,36.887363164696126 l5.043562539782986,-0.7988218301053251 l2.318271243866306,4.5498634978225 l-5.043562539782986,0.7988218301053251z"/>
<path fill="#B31B1B" fill-opacity="0.9" d="m-36.887363164696126,0.9253427785855699 l0.7988218301053251,-5.043562539782984 l-4.5498634978225,-2.3182712438663042 l-0.7988218301053251,5.043562539782984z"/>
<path fill="#B31B1B" fill-opacity="0.9" d="m-7.793477520274381,30.01922842300732 l-4.549863497822505,-2.3182712438663025 l0.7988218301053269,-5.043562539782993 l4.549863497822505,2.3182712438663025z"/>
<path fill="#B31B1B" fill-opacity="0.9" d="m-30.01922842300732,7.7934775202743864 l2.318271243866306,4.549863497822503 l5.0435625397829895,-0.7988218301053287 l-2.318271243866306,-4.549863497822503z"/>
<path fill="#B31B1B" fill-opacity="0.9" d="m-17.386903557879872,28.499779009246346 l5.043562539782986,-0.7988218301053287 l0.7988218301053269,-5.043562539782993 l-5.043562539782986,0.7988218301053287z"/>
<path fill="#B31B1B" fill-opacity="0.37" d="m-18.90635297164085,18.906352971640853 l-4.549863497822503,-2.3182712438663025 l2.318271243866306,4.5498634978225 l4.549863497822503,2.3182712438663025z"/>
<path fill="#B31B1B" fill-opacity="0.9" d="m-28.499779009246343,17.386903557879876 l0.7988218301053287,-5.043562539782986 l5.0435625397829895,-0.7988218301053287 l-0.7988218301053287,5.043562539782986z"/>
<path fill="#B31B1B" fill-opacity="0.9" d="m-5.475206276408079,34.56909192082982 l-5.043562539782986,0.7988218301053323 l-2.3182712438663042,-4.549863497822507 l5.043562539782986,-0.7988218301053323z"/>
<path fill="#B31B1B" fill-opacity="0.37" d="m-12.343341018096886,27.700957179141017 l4.549863497822505,2.3182712438663025 l-5.043562539782988,0.7988218301053251 l-4.549863497822505,-2.3182712438663025z"/>
<path fill="#B31B1B" fill-opacity="0.37" d="m-27.700957179141014,12.34334101809689 l-2.318271243866306,-4.549863497822503 l-0.7988218301053251,5.043562539782988 l2.318271243866306,4.549863497822503z"/>
<path fill="#B31B1B" fill-opacity="0.9" d="m-34.56909192082982,5.475206276408084 l-0.7988218301053323,5.043562539782986 l4.549863497822507,2.3182712438663042 l0.7988218301053323,-5.043562539782986z"/>
<path fill="#B31B1B" fill-opacity="0.9" d="m-17.386903557879872,28.499779009246346 l-4.549863497822503,-2.3182712438663025 l0.7988218301053287,-5.043562539782993 l4.549863497822503,2.3182712438663025z"/>
<path fill="#B31B1B" fill-opacity="0.9" d="m-28.499779009246343,17.386903557879876 l2.3182712438663025,4.549863497822503 l5.043562539782993,-0.7988218301053287 l-2.3182712438663025,-4.549863497822503z"/>
<path fill="#B31B1B" fill-opacity="0.37" d="m-15.068632314013566,33.049642507068846 l-2.318271243866306,-4.5498634978225 l4.549863497822503,2.318271243866299 l2.318271243866306,4.5498634978225z"/>
<path fill="#B31B1B" fill-opacity="0.37" d="m-33.04964250706884,15.068632314013572 l4.549863497822496,2.3182712438663042 l-2.3182712438663025,-4.549863497822502 l-4.549863497822496,-2.3182712438663042z"/>
<path fill="#B31B1B" fill-opacity="0.9" d="m-26.98032959548536,26.980329595485365 l0.7988218301053216,-5.043562539782986 l5.043562539782993,-0.7988218301053287 l-0.7988218301053216,5.043562539782986z"/>
<path fill="#B31B1B" fill-opacity="0.37" d="m-21.936767055702376,26.181507765380044 l-5.043562539782986,0.7988218301053216 l4.5498634978225,2.3182712438663096 l5.043562539782986,-0.7988218301053216z"/>
<path fill="#B31B1B" fill-opacity="0.37" d="m-26.18150776538004,21.93676705570238 l-0.7988218301053216,5.043562539782986 l-2.318271243866306,-4.549863497822496 l0.7988218301053216,-5.043562539782986z"/>
<path fill="#B31B1B" fill-opacity="0.9" d="m-10.518768816191065,35.36791375093515 l-4.549863497822502,-2.318271243866306 l-3.6107921159321137,3.6107921159321137 l4.549863497822502,2.318271243866306z"/>
<path fill="#B31B1B" fill-opacity="0.9" d="m-17.386903557879872,28.499779009246346 l-3.6107921159321172,3.6107921159321137 l2.3182712438663096,4.5498634978225 l3.6107921159321172,-3.6107921159321137z"/>
<path fill="#B31B1B" fill-opacity="0.9" d="m-28.499779009246343,17.386903557879876 l-3.6107921159321172,3.6107921159321172 l-4.549863497822493,-2.3182712438663025 l3.6107921159321172,-3.6107921159321172z"/>
<path fill="#B31B1B" fill-opacity="0.9" d="m-35.36791375093515,10.51876881619107 l2.318271243866313,4.549863497822502 l-3.6107921159321137,3.610792115932119 l-2.318271243866313,-4.549863497822502z"/>
<path fill="#B31B1B" fill-opacity="0.37" d="m-20.99769567381199,32.11057112517846 l3.6107921159321172,-3.6107921159321137 l-5.0435625397829895,0.7988218301053287 l-3.6107921159321172,3.6107921159321137z"/>
<path fill="#B31B1B" fill-opacity="0.37" d="m-32.11057112517846,20.997695673811993 l3.6107921159321172,-3.6107921159321172 l-0.7988218301053251,5.043562539782993 l-3.6107921159321172,3.6107921159321172z"/>
<path fill="#B31B1B" fill-opacity="0.9" d="m-30.59112171141748,30.591121711417482 l3.6107921159321172,-3.6107921159321172 l4.5498634978225,2.3182712438663096 l-3.6107921159321172,3.6107921159321172z"/>
<path fill="#B31B1B" fill-opacity="0.9" d="m-30.59112171141748,30.591121711417482 l3.6107921159321172,-3.6107921159321172 l-2.318271243866306,-4.549863497822496 l-3.6107921159321172,3.6107921159321172z"/>
<path fill="#B31B1B" fill-opacity="0.9" d="m-26.041258213594976,32.909392955283785 l5.043562539782986,-0.7988218301053251 l2.3182712438663096,4.5498634978225 l-5.043562539782986,0.7988218301053251z"/>
<path fill="#B31B1B" fill-opacity="0.9" d="m-32.909392955283785,26.04125821359498 l0.7988218301053251,-5.043562539782986 l-4.549863497822493,-2.3182712438663025 l-0.7988218301053251,5.043562539782986z"/>
<path fill="#B31B1B" fill-opacity="0.37" d="m-23.722986969728673,37.45925645310629 l-2.3182712438663025,-4.549863497822507 l-0.798821830105318,5.043562539782982 l2.3182712438663025,4.549863497822507z"/>
<path fill="#B31B1B" fill-opacity="0.9" d="m-30.59112171141748,30.591121711417482 l-0.7988218301053145,5.043562539782979 l4.5498634978225,2.318271243866306 l0.7988218301053145,-5.043562539782979z"/>
<path fill="#B31B1B" fill-opacity="0.9" d="m-30.59112171141748,30.591121711417482 l-5.043562539782975,0.7988218301053216 l-2.318271243866306,-4.549863497822503 l5.043562539782975,-0.7988218301053216z"/>
<path fill="#B31B1B" fill-opacity="0.37" d="m-37.459256453106285,23.722986969728677 l4.5498634978225,2.3182712438663025 l-5.043562539782975,0.7988218301053216 l-4.5498634978225,-2.3182712438663025z"/>
<path fill="#B31B1B" fill-opacity="0.37" d="m-31.389943541522793,35.63468425120046 l-3.6107921159321172,3.6107921159321137 l0.7988218301053251,-5.043562539782982 l3.6107921159321172,-3.6107921159321137z"/>
<path fill="#B31B1B" fill-opacity="0.37" d="m-35.634684251200454,31.389943541522804 l-3.6107921159321137,3.6107921159321137 l5.043562539782982,-0.7988218301053251 l3.6107921159321137,-3.6107921159321137z"/>
<path fill="#B31B1B" fill-opacity="0.9" d="m-35.00073565745491,39.245476367132575 l3.6107921159321172,-3.6107921159321137 l4.5498634978225,2.318271243866306 l-3.6107921159321172,3.6107921159321137z"/>
<path fill="#B31B1B" fill-opacity="0.9" d="m-39.24547636713257,35.00073565745492 l3.6107921159321137,-3.6107921159321137 l-2.318271243866306,-4.549863497822503 l-3.6107921159321137,3.6107921159321137z"/>
<path fill="#B31B1B" fill-opacity="0.9" d="m-40.0442981972379,40.04429819723791 l0.7988218301053323,-5.0435625397829895 l5.043562539782982,-0.7988218301053251 l-0.7988218301053323,5.0435625397829895z"/>
</g>
</svg>