<?xml version="1.0" encoding="utf-8"?>
<svg width="100%" height="100%" viewBox="-70.0 -70.0 140.0 140.0" preserveAspectRatio="xMidYMid meet" version="1.1" baseProfile="full" xmlns="http://www.w3.org/2000/svg">
<g style="stroke:#FFFFFF; stroke-width: 1.2978713763747793; stroke-linejoin: round;">
<path fill="#B31B1B" fill-opacity="0.37" d="m-18.679424429945684,-36.66043462300097 l15.295560855708741,15.29556085570875 l-21.364873767292217,-3.383863574236951 l-15.295560855708741,-15.29556085570875z"/>
<path fill="#B31B1B" fill-opacity="0.37" d="m-36.66043462300097,-18.679424429945684 l15.29556085570875,15.295560855708741 l-3.383863574236951,-21.364873767292217 l-15.29556085570875,-15.295560855708741z"/>
<path fill="#B31B1B" fill-opacity="0.9" d="m-3.383863574236946,-21.364873767292217 l9.820354579300664,-19.273531065121084 l-15.29556085570875,-15.295560855708743 l-9.820354579300664,19.273531065121084z"/>
<path fill="#B31B1B" fill-opacity="0.9" d="m-21.364873767292217,-3.383863574236946 l-19.273531065121084,9.820354579300664 l-15.295560855708743,-15.29556085570875 l19.273531065121084,-9.820354579300664z"/>
<path fill="#B31B1B" fill-opacity="0.9" d="m-3.3838635742369423,-21.364873767292217 l-15.295560855708741,-15.29556085570875 l9.82035457930067,-19.273531065121077 l15.295560855708741,15.29556085570875z"/>
<path fill="#B31B1B" fill-opacity="0.9" d="m-21.364873767292217,-3.3838635742369423 l-15.29556085570875,-15.295560855708741 l-19.273531065121077,9.82035457930067 l15.29556085570875,15.295560855708741z"/>
<path fill="#B31B1B" fill-opacity="0.37" d="m6.4364910050637185,-40.6384048324133 l-9.820354579300664,19.273531065121084 l19.273531065121084,-9.820354579300666 l9.820354579300664,-19.273531065121084z"/>
<path fill="#B31B1B" fill-opacity="0.9" d="m0.0,0.0 l-3.3838635742369423,-21.364873767292217 l-21.364873767292217,-3.383863574236951 l3.3838635742369423,21.364873767292217z"/>
<path fill="#B31B1B" fill-opacity="0.9" d="m0.0,0.0 l-21.364873767292217,-3.3838635742369423 l-3.383863574236951,-21.364873767292217 l21.364873767292217,3.3838635742369423z"/>
<path fill="#B31B1B" fill-opacity="0.37" d="m-40.6384048324133,6.4364910050637185 l19.273531065121084,-9.820354579300664 l-9.820354579300666,19.273531065121084 l-19.273531065121084,9.820354579300664z"/>
<path fill="#B31B1B" fill-opacity="0.9" d="m0.0,0.0 l-3.383863574236946,-21.364873767292217 l19.273531065121084,-9.820354579300666 l3.383863574236946,21.364873767292217z"/>
<path fill="#B31B1B" fill-opacity="0.9" d="m0.0,0.0 l-21.364873767292217,-3.383863574236946 l-9.820354579300666,19.273531065121084 l21.364873767292217,3.383863574236946z"/>
<path fill="#B31B1B" fill-opacity="0.9" d="m0.0,0.0 l19.273531065121084,-9.820354579300655 l-3.3838635742369405,-21.364873767292224 l-19.273531065121084,9.820354579300655z"/>
<path fill="#B31B1B" fill-opacity="0.9" d="m0.0,0.0 l-9.820354579300655,19.273531065121084 l-21.364873767292224,-3.3838635742369405 l9.820354579300655,-19.273531065121084z"/>
<path fill="#B31B1B" fill-opacity="0.37" d="m29.093885644421746,-29.09388564442174 l-9.820354579300663,19.273531065121084 l-3.3838635742369405,-21.364873767292224 l9.820354579300663,-19.273531065121084z"/>
<path fill="#B31B1B" fill-opacity="0.37" d="m-29.09388564442174,29.093885644421746 l19.273531065121084,-9.820354579300663 l-21.364873767292224,-3.3838635742369405 l-19.273531065121084,9.820354579300663z"/>
<path fill="#B31B1B" fill-opacity="0.9" d="m19.27353106512108,-9.820354579300663 l21.364873767292227,3.3838635742369405 l9.820354579300648,-19.273531065121084 l-21.364873767292227,-3.3838635742369405z"/>
<path fill="#B31B1B" fill-opacity="0.9" d="m-9.820354579300663,19.27353106512108 l3.3838635742369405,21.364873767292227 l-19.273531065121084,9.820354579300648 l-3.3838635742369405,-21.364873767292227z"/>
<path fill="#B31B1B" fill-opacity="0.9" d="m19.273531065121084,-9.820354579300655 l9.820354579300663,-19.273531065121084 l21.364873767292224,3.383863574236944 l-9.820354579300663,19.273531065121084z"/>
<path fill="#B31B1B" fill-opacity="0.9" d="m-9.820354579300655,19.273531065121084 l-19.273531065121084,9.820354579300663 l3.383863574236944,21.364873767292224 l19.273531065121084,-9.820354579300663z"/>
<path fill="#B31B1B" fill-opacity="0.9" d="m0.0,0.0 l19.27353106512108,-9.820354579300663 l15.29556085570874,15.295560855708732 l-19.27353106512108,9.820354579300663z"/>
<path fill="#B31B1B" fill-opacity="0.9" d="m0.0,0.0 l-9.820354579300663,19.27353106512108 l15.295560855708732,15.29556085570874 l9.820354579300663,-19.27353106512108z"/>
<path fill="#B31B1B" fill-opacity="0.9" d="m0.0,0.0 l15.295560855708736,15.295560855708736 l19.27353106512109,-9.820354579300654 l-15.295560855708736,-15.295560855708736z"/>
<path fill="#B31B1B" fill-opacity="0.9" d="m0.0,0.0 l15.295560855708736,15.295560855708736 l-9.820354579300654,19.27353106512109 l-15.295560855708736,-15.295560855708736z"/>
<path fill="#B31B1B" fill-opacity="0.37" d="m40.63840483241331,-6.436491005063722 l-21.364873767292227,-3.3838635742369405 l15.29556085570874,15.295560855708732 l21.364873767292227,3.3838635742369405z"/>
<path fill="#B31B1B" fill-opacity="0.37" d="m-6.436491005063722,40.63840483241331 l-3.3838635742369405,-21.364873767292227 l15.295560855708732,15.29556085570874 l3.3838635742369405,21.364873767292227z"/>
<path fill="#B31B1B" fill-opacity="0.37" d="m36.66043462300097,18.679424429945687 l-21.36487376729223,-3.383863574236951 l19.27353106512109,-9.820354579300654 l21.36487376729223,3.383863574236951z"/>
<path fill="#B31B1B" fill-opacity="0.37" d="m18.679424429945687,36.66043462300097 l-3.383863574236951,-21.36487376729223 l-9.820354579300654,19.27353106512109 l3.383863574236951,21.36487376729223z"/>
<path fill="#B31B1B" fill-opacity="0.9" d="m15.295560855708736,15.295560855708736 l3.383863574236951,21.36487376729223 l21.36487376729222,3.3838635742369405 l-3.383863574236951,-21.36487376729223z"/>
</g>
</svg>