<?xml version="1.0" encoding="utf-8"?>
<svg width="100%" height="100%" viewBox="-70.0 -70.0 140.0 140.0" preserveAspectRatio="xMidYMid meet" version="1.1" baseProfile="full" xmlns="http://www.w3.org/2000/svg">
<g style="stroke:#FFFFFF; stroke-width: 0.802128623625221; stroke-linejoin: round;">
<path fill="#B31B1B" fill-opacity="0.9" d="m-8.859069850645014,-55.93396568812204 l2.091342702171133,13.204218153537603 l-11.911697281471803,6.069312911583474 l-2.091342702171133,-13.204218153537603z"/>
<path fill="#B31B1B" fill-opacity="0.9" d="m-55.93396568812204,-8.859069850645014 l13.204218153537603,2.091342702171133 l6.069312911583474,-11.911697281471803 l-13.204218153537603,-2.091342702171133z"/>
<path fill="#B31B1B" fill-opacity="0.9" d="m-8.859069850645032,-55.93396568812204 l2.09134270217114,13.20421815353761 l13.20421815353761,2.091342702171133 l-2.09134270217114,-13.20421815353761z"/>
<path fill="#B31B1B" fill-opacity="0.37" d="m-12.83704006005737,-30.818050253112652 l6.06931291158349,-11.911697281471788 l-11.911697281471803,6.069312911583474 l-6.06931291158349,11.911697281471788z"/>
<path fill="#B31B1B" fill-opacity="0.37" d="m-30.818050253112652,-12.83704006005737 l-11.911697281471788,6.06931291158349 l6.069312911583474,-11.911697281471803 l11.911697281471788,-6.06931291158349z"/>
<path fill="#B31B1B" fill-opacity="0.9" d="m-55.93396568812204,-8.859069850645032 l13.20421815353761,2.09134270217114 l2.091342702171133,13.20421815353761 l-13.20421815353761,-2.09134270217114z"/>
<path fill="#B31B1B" fill-opacity="0.9" d="m-6.767727148473892,-42.72974753458443 l9.453176485820432,9.453176485820421 l-6.069312911583486,11.911697281471795 l-9.453176485820432,-9.453176485820421z"/>
<path fill="#B31B1B" fill-opacity="0.9" d="m-24.74873734152916,-24.748737341529168 l11.91169728147179,-6.069312911583484 l9.453176485820428,9.453176485820435 l-11.91169728147179,6.069312911583484z"/>
<path fill="#B31B1B" fill-opacity="0.9" d="m-24.748737341529168,-24.74873734152916 l-6.069312911583484,11.91169728147179 l9.453176485820435,9.453176485820428 l6.069312911583484,-11.91169728147179z"/>
<path fill="#B31B1B" fill-opacity="0.9" d="m-42.72974753458443,-6.767727148473892 l9.453176485820421,9.453176485820432 l11.911697281471795,-6.069312911583486 l-9.453176485820421,-9.453176485820432z"/>
<path fill="#B31B1B" fill-opacity="0.9" d="m-6.767727148473881,-42.72974753458444 l-6.06931291158349,11.911697281471788 l9.453176485820428,9.453176485820435 l6.06931291158349,-11.911697281471788z"/>
<path fill="#B31B1B" fill-opacity="0.9" d="m-42.72974753458444,-6.767727148473881 l11.911697281471788,-6.06931291158349 l9.453176485820435,9.453176485820428 l-11.911697281471788,6.06931291158349z"/>
<path fill="#B31B1B" fill-opacity="0.37" d="m2.6854493373465402,-33.27657104876401 l-9.453176485820432,-9.453176485820421 l13.20421815353761,2.091342702171133 l9.453176485820432,9.453176485820421z"/>
<path fill="#B31B1B" fill-opacity="0.37" d="m-33.27657104876401,2.6854493373465402 l-9.453176485820421,-9.453176485820432 l2.091342702171133,13.20421815353761 l9.453176485820421,9.453176485820432z"/>
<path fill="#B31B1B" fill-opacity="0.9" d="m15.88966749088414,-31.185228346592883 l-13.2042181535376,-2.0913427021711293 l-6.069312911583486,11.911697281471795 l13.2042181535376,2.0913427021711293z"/>
<path fill="#B31B1B" fill-opacity="0.9" d="m-31.185228346592883,15.88966749088414 l-2.0913427021711293,-13.2042181535376 l11.911697281471795,-6.069312911583486 l2.0913427021711293,13.2042181535376z"/>
<path fill="#B31B1B" fill-opacity="0.37" d="m-2.091342702171133,-13.204218153537603 l-13.204218153537605,-2.0913427021711417 l11.911697281471795,-6.069312911583472 l13.204218153537605,2.0913427021711417z"/>
<path fill="#B31B1B" fill-opacity="0.37" d="m-2.0913427021711346,-13.204218153537601 l11.911697281471795,-6.06931291158349 l-13.204218153537607,-2.0913427021711257 l-11.911697281471795,6.06931291158349z"/>
<path fill="#B31B1B" fill-opacity="0.37" d="m-13.204218153537601,-2.0913427021711346 l-6.06931291158349,11.911697281471795 l-2.0913427021711257,-13.204218153537607 l6.06931291158349,-11.911697281471795z"/>
<path fill="#B31B1B" fill-opacity="0.37" d="m-13.204218153537603,-2.091342702171133 l-2.0913427021711417,-13.204218153537605 l-6.069312911583472,11.911697281471795 l2.0913427021711417,13.204218153537605z"/>
<path fill="#B31B1B" fill-opacity="0.9" d="m-15.295560855708738,-15.295560855708745 l13.204218153537605,2.0913427021711417 l2.091342702171133,13.204218153537603 l-13.204218153537605,-2.0913427021711417z"/>
<path fill="#B31B1B" fill-opacity="0.9" d="m-15.295560855708745,-15.295560855708738 l2.0913427021711417,13.204218153537605 l13.204218153537603,2.091342702171133 l-2.0913427021711417,-13.204218153537605z"/>
<path fill="#B31B1B" fill-opacity="0.9" d="m9.82035457930066,-19.27353106512109 l-11.911697281471795,6.06931291158349 l2.0913427021711346,13.204218153537601 l11.911697281471795,-6.06931291158349z"/>
<path fill="#B31B1B" fill-opacity="0.9" d="m-19.27353106512109,9.82035457930066 l6.06931291158349,-11.911697281471795 l13.204218153537601,2.0913427021711346 l-6.06931291158349,11.911697281471795z"/>
<path fill="#B31B1B" fill-opacity="0.9" d="m9.820354579300663,-19.273531065121087 l2.091342702171131,13.204218153537608 l-11.911697281471794,6.069312911583479 l-2.091342702171131,-13.204218153537608z"/>
<path fill="#B31B1B" fill-opacity="0.9" d="m-19.273531065121087,9.820354579300663 l13.204218153537608,2.091342702171131 l6.069312911583479,-11.911697281471794 l-13.204218153537608,-2.091342702171131z"/>
<path fill="#B31B1B" fill-opacity="0.9" d="m15.889667490884143,-31.18522834659288 l9.453176485820425,9.453176485820425 l-6.069312911583484,11.911697281471799 l-9.453176485820425,-9.453176485820425z"/>
<path fill="#B31B1B" fill-opacity="0.9" d="m-31.18522834659288,15.889667490884143 l9.453176485820425,9.453176485820425 l11.911697281471799,-6.069312911583484 l-9.453176485820425,-9.453176485820425z"/>
<path fill="#B31B1B" fill-opacity="0.37" d="m25.342843976704568,-21.732051860772454 l13.2042181535376,2.09134270217114 l-9.453176485820421,-9.453176485820425 l-13.2042181535376,-2.09134270217114z"/>
<path fill="#B31B1B" fill-opacity="0.37" d="m-21.732051860772454,25.342843976704568 l2.09134270217114,13.2042181535376 l-9.453176485820425,-9.453176485820421 l-2.09134270217114,-13.2042181535376z"/>
<path fill="#B31B1B" fill-opacity="0.37" d="m11.911697281471792,-6.069312911583484 l9.453176485820432,9.453176485820425 l-2.0913427021711435,-13.204218153537603 l-9.453176485820432,-9.453176485820425z"/>
<path fill="#B31B1B" fill-opacity="0.37" d="m-6.069312911583484,11.911697281471792 l9.453176485820425,9.453176485820432 l-13.204218153537603,-2.0913427021711435 l-9.453176485820425,-9.453176485820432z"/>
<path fill="#B31B1B" fill-opacity="0.37" d="m11.911697281471794,-6.069312911583479 l-2.091342702171131,-13.204218153537608 l9.453176485820421,9.453176485820432 l2.091342702171131,13.204218153537608z"/>
<path fill="#B31B1B" fill-opacity="0.37" d="m-6.069312911583479,11.911697281471794 l-13.204218153537608,-2.091342702171131 l9.453176485820432,9.453176485820421 l13.204218153537608,2.091342702171131z"/>
<path fill="#B31B1B" fill-opacity="0.9" d="m21.364873767292224,3.3838635742369405 l-9.453176485820432,-9.453176485820425 l-11.911697281471792,6.069312911583484 l9.453176485820432,9.453176485820425z"/>
<path fill="#B31B1B" fill-opacity="0.9" d="m3.3838635742369405,21.364873767292224 l-9.453176485820425,-9.453176485820432 l6.069312911583484,-11.911697281471792 l9.453176485820425,9.453176485820432z"/>
<path fill="#B31B1B" fill-opacity="0.9" d="m21.364873767292224,3.3838635742369476 l-11.911697281471797,6.069312911583479 l-9.453176485820427,-9.453176485820427 l11.911697281471797,-6.069312911583479z"/>
<path fill="#B31B1B" fill-opacity="0.9" d="m3.3838635742369476,21.364873767292224 l6.069312911583479,-11.911697281471797 l-9.453176485820427,-9.453176485820427 l-6.069312911583479,11.911697281471797z"/>
<path fill="#B31B1B" fill-opacity="0.9" d="m50.45875941171397,-25.710022070184795 l-11.911697281471803,6.069312911583481 l-9.453176485820421,-9.453176485820425 l11.911697281471803,-6.069312911583481z"/>
<path fill="#B31B1B" fill-opacity="0.9" d="m-25.710022070184795,50.45875941171397 l6.069312911583481,-11.911697281471803 l-9.453176485820425,-9.453176485820421 l-6.069312911583481,11.911697281471803z"/>
<path fill="#B31B1B" fill-opacity="0.9" d="m38.54706213024217,-19.64070915860133 l-6.069312911583474,11.911697281471797 l-13.204218153537614,-2.091342702171131 l6.069312911583474,-11.911697281471797z"/>
<path fill="#B31B1B" fill-opacity="0.9" d="m-19.64070915860133,38.54706213024217 l11.911697281471797,-6.069312911583474 l-2.091342702171131,-13.204218153537614 l-11.911697281471797,6.069312911583474z"/>
<path fill="#B31B1B" fill-opacity="0.9" d="m38.54706213024217,-19.640709158601314 l-13.2042181535376,-2.09134270217114 l-6.069312911583484,11.911697281471799 l13.2042181535376,2.09134270217114z"/>
<path fill="#B31B1B" fill-opacity="0.9" d="m-19.640709158601314,38.54706213024217 l-2.09134270217114,-13.2042181535376 l11.911697281471799,-6.069312911583484 l2.09134270217114,13.2042181535376z"/>
<path fill="#B31B1B" fill-opacity="0.9" d="m34.56909192082982,5.47520627640807 l-2.0913427021711257,-13.204218153537601 l-13.204218153537614,-2.091342702171131 l2.0913427021711257,13.204218153537601z"/>
<path fill="#B31B1B" fill-opacity="0.9" d="m5.47520627640807,34.56909192082982 l-13.204218153537601,-2.0913427021711257 l-2.091342702171131,-13.204218153537614 l13.204218153537601,2.0913427021711257z"/>
<path fill="#B31B1B" fill-opacity="0.37" d="m9.453176485820427,9.453176485820427 l-6.069312911583479,11.911697281471797 l11.911697281471788,-6.069312911583488 l6.069312911583479,-11.911697281471797z"/>
<path fill="#B31B1B" fill-opacity="0.9" d="m50.458759411713956,-25.710022070184806 l-11.911697281471788,6.069312911583477 l2.09134270217114,13.204218153537607 l11.911697281471788,-6.069312911583477z"/>
<path fill="#B31B1B" fill-opacity="0.9" d="m-25.710022070184806,50.458759411713956 l6.069312911583477,-11.911697281471788 l13.204218153537607,2.09134270217114 l-6.069312911583477,11.911697281471788z"/>
<path fill="#B31B1B" fill-opacity="0.37" d="m32.477749218658694,-7.7290118771295315 l6.069312911583474,-11.911697281471797 l2.09134270217114,13.204218153537607 l-6.069312911583474,11.911697281471797z"/>
<path fill="#B31B1B" fill-opacity="0.37" d="m-7.7290118771295315,32.477749218658694 l-11.911697281471797,6.069312911583474 l13.204218153537607,2.09134270217114 l11.911697281471797,-6.069312911583474z"/>
<path fill="#B31B1B" fill-opacity="0.9" d="m34.56909192082983,5.475206276408082 l-6.069312911583481,11.911697281471794 l-13.20421815353761,-2.09134270217114 l6.069312911583481,-11.911697281471794z"/>
<path fill="#B31B1B" fill-opacity="0.9" d="m5.475206276408082,34.56909192082983 l11.911697281471794,-6.069312911583481 l-2.09134270217114,-13.20421815353761 l-11.911697281471794,6.069312911583481z"/>
<path fill="#B31B1B" fill-opacity="0.9" d="m30.591121711417482,30.591121711417482 l-13.204218153537607,-2.0913427021711364 l-2.09134270217114,-13.20421815353761 l13.204218153537607,2.0913427021711364z"/>
<path fill="#B31B1B" fill-opacity="0.37" d="m28.499779009246346,17.386903557879876 l2.0913427021711364,13.204218153537607 l6.069312911583484,-11.911697281471795 l-2.0913427021711364,-13.204218153537607z"/>
<path fill="#B31B1B" fill-opacity="0.37" d="m17.386903557879876,28.499779009246346 l13.204218153537607,2.0913427021711364 l-11.911697281471795,6.069312911583484 l-13.204218153537607,-2.0913427021711364z"/>
<path fill="#B31B1B" fill-opacity="0.9" d="m40.04429819723791,40.04429819723791 l-9.453176485820425,-9.453176485820425 l6.069312911583484,-11.911697281471795 l9.453176485820425,9.453176485820425z"/>
<path fill="#B31B1B" fill-opacity="0.9" d="m40.04429819723791,40.04429819723791 l-9.453176485820425,-9.453176485820425 l-11.911697281471795,6.069312911583484 l9.453176485820425,9.453176485820425z"/>
</g>
</svg>