<?xml version="1.0" encoding="utf-8"?>
<svg width="100%" height="100%" viewBox="-70.0 -70.0 140.0 140.0" preserveAspectRatio="xMidYMid meet" version="1.1" baseProfile="full" xmlns="http://www.w3.org/2000/svg">
<g style="stroke:#FFFFFF; stroke-width: 0.4957427527495585; stroke-linejoin: round;">
<path fill="#B31B1B" fill-opacity="0.9" d="m-14.928382762228503,-44.022268406650255 l7.361833783649301,-3.7510416677171747 l-1.2925208720658112,-8.160655613754614 l-7.361833783649301,3.7510416677171747z"/>
<path fill="#B31B1B" fill-opacity="0.9" d="m-44.022268406650255,-14.928382762228503 l-3.7510416677171747,7.361833783649301 l-8.160655613754614,-1.2925208720658112 l3.7510416677171747,-7.361833783649301z"/>
<path fill="#B31B1B" fill-opacity="0.9" d="m0.5941066351754039,-46.48078920230162 l-8.160655613754628,-1.2925208720658077 l-1.2925208720658077,-8.160655613754614 l8.160655613754628,1.2925208720658077z"/>
<path fill="#B31B1B" fill-opacity="0.9" d="m-46.48078920230162,0.5941066351754039 l-1.2925208720658077,-8.160655613754628 l-8.160655613754614,-1.2925208720658077 l1.2925208720658077,8.160655613754628z"/>
<path fill="#B31B1B" fill-opacity="0.37" d="m-7.566548978579224,-47.77331007436743 l8.160655613754628,1.2925208720658077 l-7.3618337836492955,3.751041667717189 l-8.160655613754628,-1.2925208720658077z"/>
<path fill="#B31B1B" fill-opacity="0.9" d="m-18.679424429945684,-36.66043462300097 l8.16065561375462,1.2925208720658148 l3.751041667717182,-7.361833783649288 l-8.16065561375462,-1.2925208720658148z"/>
<path fill="#B31B1B" fill-opacity="0.9" d="m-18.679424429945684,-36.66043462300097 l1.2925208720658148,8.16065561375462 l-7.361833783649292,3.7510416677171783 l-1.2925208720658148,-8.16065561375462z"/>
<path fill="#B31B1B" fill-opacity="0.9" d="m-36.66043462300097,-18.679424429945684 l8.16065561375462,1.2925208720658148 l3.7510416677171783,-7.361833783649292 l-8.16065561375462,-1.2925208720658148z"/>
<path fill="#B31B1B" fill-opacity="0.9" d="m-36.66043462300097,-18.679424429945684 l1.2925208720658148,8.16065561375462 l-7.361833783649288,3.751041667717182 l-1.2925208720658148,-8.16065561375462z"/>
<path fill="#B31B1B" fill-opacity="0.37" d="m-47.77331007436743,-7.566548978579224 l1.2925208720658077,8.160655613754628 l3.751041667717189,-7.3618337836492955 l-1.2925208720658077,-8.160655613754628z"/>
<path fill="#B31B1B" fill-opacity="0.37" d="m-7.566548978579203,-47.77331007436743 l-7.361833783649301,3.7510416677171747 l8.160655613754622,1.2925208720658148 l7.361833783649301,-3.7510416677171747z"/>
<path fill="#B31B1B" fill-opacity="0.37" d="m-47.77331007436743,-7.566548978579203 l3.7510416677171747,-7.361833783649301 l1.2925208720658148,8.160655613754622 l-3.7510416677171747,7.361833783649301z"/>
<path fill="#B31B1B" fill-opacity="0.37" d="m-10.518768816191063,-35.36791375093515 l5.842384369888316,5.842384369888322 l-8.160655613754624,-1.292520872065822 l-5.842384369888316,-5.842384369888322z"/>
<path fill="#B31B1B" fill-opacity="0.37" d="m-17.38690355787987,-28.499779009246346 l-1.2925208720658148,-8.16065561375462 l5.842384369888313,5.842384369888315 l1.2925208720658148,8.16065561375462z"/>
<path fill="#B31B1B" fill-opacity="0.37" d="m-28.499779009246346,-17.38690355787987 l-8.16065561375462,-1.2925208720658148 l5.842384369888315,5.842384369888313 l8.16065561375462,1.2925208720658148z"/>
<path fill="#B31B1B" fill-opacity="0.37" d="m-35.36791375093515,-10.518768816191063 l5.842384369888322,5.842384369888316 l-1.292520872065822,-8.160655613754624 l-5.842384369888322,-5.842384369888316z"/>
<path fill="#B31B1B" fill-opacity="0.9" d="m6.4364910050637185,-40.6384048324133 l-7.361833783649299,3.7510416677171747 l-5.842384369888311,-5.842384369888308 l7.361833783649299,-3.7510416677171747z"/>
<path fill="#B31B1B" fill-opacity="0.9" d="m-4.676384446302755,-29.52552938104683 l3.7510416677171747,-7.3618337836492955 l-5.842384369888311,-5.842384369888308 l-3.7510416677171747,7.3618337836492955z"/>
<path fill="#B31B1B" fill-opacity="0.9" d="m-11.544519187991556,-22.65739463935803 l-5.842384369888313,-5.842384369888315 l-7.361833783649292,3.7510416677171783 l5.842384369888313,5.842384369888315z"/>
<path fill="#B31B1B" fill-opacity="0.9" d="m-22.65739463935803,-11.544519187991556 l-5.842384369888315,-5.842384369888313 l3.7510416677171783,-7.361833783649292 l5.842384369888315,5.842384369888313z"/>
<path fill="#B31B1B" fill-opacity="0.9" d="m-29.52552938104683,-4.676384446302755 l-7.3618337836492955,3.7510416677171747 l-5.842384369888308,-5.842384369888311 l7.3618337836492955,-3.7510416677171747z"/>
<path fill="#B31B1B" fill-opacity="0.9" d="m-40.6384048324133,6.4364910050637185 l3.7510416677171747,-7.361833783649299 l-5.842384369888308,-5.842384369888311 l-3.7510416677171747,7.361833783649299z"/>
<path fill="#B31B1B" fill-opacity="0.9" d="m-4.676384446302746,-29.52552938104683 l-5.842384369888316,-5.842384369888322 l3.751041667717182,-7.361833783649288 l5.842384369888316,5.842384369888322z"/>
<path fill="#B31B1B" fill-opacity="0.9" d="m-29.52552938104683,-4.676384446302746 l-5.842384369888322,-5.842384369888316 l-7.361833783649288,3.751041667717182 l5.842384369888322,5.842384369888316z"/>
<path fill="#B31B1B" fill-opacity="0.37" d="m-18.90635297164085,-18.906352971640857 l7.361833783649294,-3.7510416677171747 l-3.751041667717182,7.361833783649287 l-7.361833783649294,3.7510416677171747z"/>
<path fill="#B31B1B" fill-opacity="0.37" d="m-18.906352971640857,-18.90635297164085 l-3.7510416677171747,7.361833783649294 l7.361833783649287,-3.751041667717182 l3.7510416677171747,-7.361833783649294z"/>
<path fill="#B31B1B" fill-opacity="0.37" d="m-0.9253427785855806,-36.887363164696126 l-3.7510416677171747,7.3618337836492955 l7.3618337836492955,-3.751041667717182 l3.7510416677171747,-7.3618337836492955z"/>
<path fill="#B31B1B" fill-opacity="0.9" d="m-3.3838635742369423,-21.364873767292217 l-1.2925208720658041,-8.160655613754614 l-8.160655613754624,-1.292520872065822 l1.2925208720658041,8.160655613754614z"/>
<path fill="#B31B1B" fill-opacity="0.9" d="m-21.364873767292217,-3.3838635742369423 l-8.160655613754614,-1.2925208720658041 l-1.292520872065822,-8.160655613754624 l8.160655613754614,1.2925208720658041z"/>
<path fill="#B31B1B" fill-opacity="0.37" d="m-36.887363164696126,-0.9253427785855806 l7.3618337836492955,-3.7510416677171747 l-3.751041667717182,7.3618337836492955 l-7.3618337836492955,3.7510416677171747z"/>
<path fill="#B31B1B" fill-opacity="0.9" d="m-3.3838635742369423,-21.364873767292217 l-3.7510416677171783,7.361833783649287 l-8.160655613754617,-1.2925208720658148 l3.7510416677171783,-7.361833783649287z"/>
<path fill="#B31B1B" fill-opacity="0.9" d="m-21.364873767292217,-3.3838635742369423 l7.361833783649287,-3.7510416677171783 l-1.2925208720658148,-8.160655613754617 l-7.361833783649287,3.7510416677171783z"/>
<path fill="#B31B1B" fill-opacity="0.37" d="m7.729011877129526,-32.47774921865869 l-1.2925208720658077,-8.160655613754614 l-3.7510416677171783,7.361833783649288 l1.2925208720658077,8.160655613754614z"/>
<path fill="#B31B1B" fill-opacity="0.37" d="m-32.47774921865869,7.729011877129526 l-8.160655613754614,-1.2925208720658077 l7.361833783649288,-3.7510416677171783 l8.160655613754614,1.2925208720658077z"/>
<path fill="#B31B1B" fill-opacity="0.9" d="m-3.383863574236946,-21.364873767292217 l-1.2925208720658095,-8.160655613754614 l7.3618337836492955,-3.751041667717182 l1.2925208720658095,8.160655613754614z"/>
<path fill="#B31B1B" fill-opacity="0.9" d="m-21.364873767292217,-3.383863574236946 l-8.160655613754614,-1.2925208720658095 l-3.751041667717182,7.3618337836492955 l8.160655613754614,1.2925208720658095z"/>
<path fill="#B31B1B" fill-opacity="0.9" d="m6.4364910050637185,-40.6384048324133 l1.2925208720658077,8.160655613754614 l8.160655613754614,1.2925208720658041 l-1.2925208720658077,-8.160655613754614z"/>
<path fill="#B31B1B" fill-opacity="0.9" d="m-40.6384048324133,6.4364910050637185 l8.160655613754614,1.2925208720658077 l1.2925208720658041,8.160655613754614 l-8.160655613754614,-1.2925208720658077z"/>
<path fill="#B31B1B" fill-opacity="0.9" d="m-5.842384369888311,-5.842384369888313 l-1.2925208720658095,-8.160655613754617 l-8.160655613754617,-1.2925208720658148 l1.2925208720658095,8.160655613754617z"/>
<path fill="#B31B1B" fill-opacity="0.9" d="m-5.842384369888313,-5.842384369888311 l-8.160655613754617,-1.2925208720658095 l-1.2925208720658148,-8.160655613754617 l8.160655613754617,1.2925208720658095z"/>
<path fill="#B31B1B" fill-opacity="0.9" d="m3.977970209412346,-25.11591543500939 l3.75104166771718,-7.3618337836492955 l8.160655613754614,1.2925208720658041 l-3.75104166771718,7.3618337836492955z"/>
<path fill="#B31B1B" fill-opacity="0.37" d="m-7.134905241954121,-14.00303998364293 l1.2925208720658095,8.160655613754617 l3.7510416677171783,-7.36183378364929 l-1.2925208720658095,-8.160655613754617z"/>
<path fill="#B31B1B" fill-opacity="0.37" d="m-14.00303998364293,-7.134905241954121 l8.160655613754617,1.2925208720658095 l-7.36183378364929,3.7510416677171783 l-8.160655613754617,-1.2925208720658095z"/>
<path fill="#B31B1B" fill-opacity="0.9" d="m-25.11591543500939,3.977970209412346 l-7.3618337836492955,3.75104166771718 l1.2925208720658041,8.160655613754614 l7.3618337836492955,-3.75104166771718z"/>
<path fill="#B31B1B" fill-opacity="0.9" d="m-3.383863574236946,-21.364873767292217 l5.842384369888312,5.842384369888311 l7.361833783649295,-3.7510416677171854 l-5.842384369888312,-5.842384369888311z"/>
<path fill="#B31B1B" fill-opacity="0.9" d="m-21.364873767292217,-3.383863574236946 l5.842384369888311,5.842384369888312 l-3.7510416677171854,7.361833783649295 l-5.842384369888311,-5.842384369888312z"/>
<path fill="#B31B1B" fill-opacity="0.37" d="m2.458520795651366,-15.522489397403906 l1.2925208720658103,8.160655613754614 l-5.842384369888311,-5.842384369888309 l-1.2925208720658103,-8.160655613754614z"/>
<path fill="#B31B1B" fill-opacity="0.37" d="m-15.522489397403906,2.458520795651366 l8.160655613754614,1.2925208720658103 l-5.842384369888309,-5.842384369888311 l-8.160655613754614,-1.2925208720658103z"/>
<path fill="#B31B1B" fill-opacity="0.37" d="m12.138625823166965,-23.823394562943587 l-8.160655613754619,-1.2925208720658041 l5.842384369888315,5.8423843698883005 l8.160655613754619,1.2925208720658041z"/>
<path fill="#B31B1B" fill-opacity="0.37" d="m-23.823394562943587,12.138625823166965 l-1.2925208720658041,-8.160655613754619 l5.8423843698883005,5.842384369888315 l1.2925208720658041,8.160655613754619z"/>
<path fill="#B31B1B" fill-opacity="0.37" d="m12.138625823166967,-23.823394562943584 l5.842384369888309,5.842384369888315 l-8.160655613754614,-1.2925208720658183 l-5.842384369888309,-5.842384369888315z"/>
<path fill="#B31B1B" fill-opacity="0.37" d="m-23.823394562943584,12.138625823166967 l5.842384369888315,5.842384369888309 l-1.2925208720658183,-8.160655613754614 l-5.842384369888315,-5.842384369888309z"/>
<path fill="#B31B1B" fill-opacity="0.9" d="m0.0,0.0 l-5.842384369888311,-5.842384369888313 l3.7510416677171783,-7.36183378364929 l5.842384369888311,5.842384369888313z"/>
<path fill="#B31B1B" fill-opacity="0.9" d="m0.0,0.0 l3.7510416677171765,-7.361833783649292 l-5.842384369888311,-5.842384369888309 l-3.7510416677171765,7.361833783649292z"/>
<path fill="#B31B1B" fill-opacity="0.9" d="m0.0,0.0 l-7.361833783649292,3.7510416677171765 l-5.842384369888309,-5.842384369888311 l7.361833783649292,-3.7510416677171765z"/>
<path fill="#B31B1B" fill-opacity="0.9" d="m0.0,0.0 l-5.842384369888313,-5.842384369888311 l-7.36183378364929,3.7510416677171783 l5.842384369888313,5.842384369888311z"/>
<path fill="#B31B1B" fill-opacity="0.9" d="m29.093885644421746,-29.09388564442174 l-7.361833783649292,3.751041667717171 l-5.842384369888311,-5.842384369888311 l7.361833783649292,-3.751041667717171z"/>
<path fill="#B31B1B" fill-opacity="0.9" d="m17.981010193055276,-17.98101019305527 l3.7510416677171783,-7.361833783649299 l-5.842384369888311,-5.842384369888311 l-3.7510416677171783,7.361833783649299z"/>
<path fill="#B31B1B" fill-opacity="0.9" d="m-17.98101019305527,17.981010193055276 l-7.361833783649299,3.7510416677171783 l-5.842384369888311,-5.842384369888311 l7.361833783649299,-3.7510416677171783z"/>
<path fill="#B31B1B" fill-opacity="0.9" d="m-29.09388564442174,29.093885644421746 l3.751041667717171,-7.361833783649292 l-5.842384369888311,-5.842384369888311 l-3.751041667717171,7.361833783649292z"/>
<path fill="#B31B1B" fill-opacity="0.9" d="m3.7510416677171765,-7.361833783649292 l-1.2925208720658103,-8.160655613754614 l7.361833783649295,-3.7510416677171854 l1.2925208720658103,8.160655613754614z"/>
<path fill="#B31B1B" fill-opacity="0.9" d="m-7.361833783649292,3.7510416677171765 l-8.160655613754614,-1.2925208720658103 l-3.7510416677171854,7.361833783649295 l8.160655613754614,1.2925208720658103z"/>
<path fill="#B31B1B" fill-opacity="0.9" d="m3.751041667717178,-7.36183378364929 l7.361833783649292,-3.7510416677171765 l-1.2925208720658077,-8.16065561375462 l-7.361833783649292,3.7510416677171765z"/>
<path fill="#B31B1B" fill-opacity="0.9" d="m-7.36183378364929,3.751041667717178 l-3.7510416677171765,7.361833783649292 l-8.16065561375462,-1.2925208720658077 l3.7510416677171765,-7.361833783649292z"/>
<path fill="#B31B1B" fill-opacity="0.9" d="m19.273531065121084,-9.820354579300655 l-8.160655613754614,-1.2925208720658112 l-1.2925208720658077,-8.16065561375462 l8.160655613754614,1.2925208720658112z"/>
<path fill="#B31B1B" fill-opacity="0.9" d="m-9.820354579300655,19.273531065121084 l-1.2925208720658112,-8.160655613754614 l-8.16065561375462,-1.2925208720658077 l1.2925208720658112,8.160655613754614z"/>
<path fill="#B31B1B" fill-opacity="0.37" d="m21.732051860772454,-25.342843976704568 l7.361833783649292,-3.751041667717171 l-3.7510416677171783,7.361833783649285 l-7.361833783649292,3.751041667717171z"/>
<path fill="#B31B1B" fill-opacity="0.37" d="m-25.342843976704568,21.732051860772454 l-3.751041667717171,7.361833783649292 l7.361833783649285,-3.7510416677171783 l3.751041667717171,-7.361833783649292z"/>
<path fill="#B31B1B" fill-opacity="0.9" d="m0.0,0.0 l8.160655613754617,1.2925208720658077 l3.7510416677171747,-7.361833783649292 l-8.160655613754617,-1.2925208720658077z"/>
<path fill="#B31B1B" fill-opacity="0.9" d="m0.0,0.0 l1.2925208720658077,8.160655613754617 l-7.361833783649292,3.7510416677171747 l-1.2925208720658077,-8.160655613754617z"/>
<path fill="#B31B1B" fill-opacity="0.9" d="m0.0,0.0 l3.751041667717178,-7.36183378364929 l8.160655613754615,1.2925208720658112 l-3.751041667717178,7.36183378364929z"/>
<path fill="#B31B1B" fill-opacity="0.9" d="m0.0,0.0 l-7.36183378364929,3.751041667717178 l1.2925208720658112,8.160655613754615 l7.36183378364929,-3.751041667717178z"/>
<path fill="#B31B1B" fill-opacity="0.37" d="m11.11287545136647,-11.112875451366467 l-7.361833783649292,3.7510416677171765 l8.160655613754615,1.2925208720658112 l7.361833783649292,-3.7510416677171765z"/>
<path fill="#B31B1B" fill-opacity="0.37" d="m-11.112875451366467,11.11287545136647 l3.7510416677171765,-7.361833783649292 l1.2925208720658112,8.160655613754615 l-3.7510416677171765,7.361833783649292z"/>
<path fill="#B31B1B" fill-opacity="0.37" d="m30.386406516487554,-20.933230030667126 l-3.751041667717182,7.3618337836492955 l-1.2925208720658041,-8.160655613754624 l3.751041667717182,-7.3618337836492955z"/>
<path fill="#B31B1B" fill-opacity="0.9" d="m19.273531065121084,-9.820354579300655 l7.361833783649288,-3.7510416677171747 l-1.2925208720658041,-8.160655613754624 l-7.361833783649288,3.7510416677171747z"/>
<path fill="#B31B1B" fill-opacity="0.9" d="m-9.820354579300655,19.273531065121084 l-3.7510416677171747,7.361833783649288 l-8.160655613754624,-1.2925208720658041 l3.7510416677171747,-7.361833783649288z"/>
<path fill="#B31B1B" fill-opacity="0.37" d="m-20.933230030667126,30.386406516487554 l7.3618337836492955,-3.751041667717182 l-8.160655613754624,-1.2925208720658041 l-7.3618337836492955,3.751041667717182z"/>
<path fill="#B31B1B" fill-opacity="0.37" d="m15.522489397403909,-2.4585207956513706 l-7.361833783649292,3.7510416677171783 l3.7510416677171747,-7.361833783649292 l7.361833783649292,-3.7510416677171783z"/>
<path fill="#B31B1B" fill-opacity="0.37" d="m-2.4585207956513706,15.522489397403909 l3.7510416677171783,-7.361833783649292 l-7.361833783649292,3.7510416677171747 l-3.7510416677171783,7.361833783649292z"/>
<path fill="#B31B1B" fill-opacity="0.9" d="m0.0,0.0 l1.2925208720658108,8.160655613754617 l8.160655613754615,1.2925208720658095 l-1.2925208720658108,-8.160655613754617z"/>
<path fill="#B31B1B" fill-opacity="0.9" d="m29.093885644421746,-29.09388564442174 l1.2925208720658077,8.160655613754614 l8.160655613754614,1.2925208720658112 l-1.2925208720658077,-8.160655613754614z"/>
<path fill="#B31B1B" fill-opacity="0.9" d="m-29.09388564442174,29.093885644421746 l8.160655613754614,1.2925208720658077 l1.2925208720658112,8.160655613754614 l-8.160655613754614,-1.2925208720658077z"/>
<path fill="#B31B1B" fill-opacity="0.9" d="m26.635364848770372,-13.571396247017843 l8.16065561375462,1.2925208720658077 l3.7510416677171747,-7.361833783649294 l-8.16065561375462,-1.2925208720658077z"/>
<path fill="#B31B1B" fill-opacity="0.9" d="m-13.571396247017843,26.635364848770372 l1.2925208720658077,8.16065561375462 l-7.361833783649294,3.7510416677171747 l-1.2925208720658077,-8.16065561375462z"/>
<path fill="#B31B1B" fill-opacity="0.9" d="m26.635364848770372,-13.57139624701783 l3.751041667717182,-7.3618337836492955 l8.160655613754614,1.2925208720658112 l-3.751041667717182,7.3618337836492955z"/>
<path fill="#B31B1B" fill-opacity="0.9" d="m-13.57139624701783,26.635364848770372 l-7.3618337836492955,3.751041667717182 l1.2925208720658112,8.160655613754614 l7.3618337836492955,-3.751041667717182z"/>
<path fill="#B31B1B" fill-opacity="0.9" d="m19.27353106512108,-9.820354579300663 l7.361833783649292,-3.75104166771718 l5.842384369888322,5.842384369888311 l-7.361833783649292,3.75104166771718z"/>
<path fill="#B31B1B" fill-opacity="0.9" d="m-9.820354579300663,19.27353106512108 l-3.75104166771718,7.361833783649292 l5.842384369888311,5.842384369888322 l3.75104166771718,-7.361833783649292z"/>
<path fill="#B31B1B" fill-opacity="0.9" d="m19.27353106512108,-9.820354579300663 l-3.751041667717171,7.361833783649292 l5.842384369888315,5.842384369888311 l3.751041667717171,-7.361833783649292z"/>
<path fill="#B31B1B" fill-opacity="0.9" d="m-9.820354579300663,19.27353106512108 l7.361833783649292,-3.751041667717171 l5.842384369888311,5.842384369888315 l-7.361833783649292,3.751041667717171z"/>
<path fill="#B31B1B" fill-opacity="0.9" d="m8.160655613754617,1.2925208720658077 l7.361833783649292,-3.7510416677171783 l5.842384369888315,5.842384369888311 l-7.361833783649292,3.7510416677171783z"/>
<path fill="#B31B1B" fill-opacity="0.9" d="m1.2925208720658077,8.160655613754617 l-3.7510416677171783,7.361833783649292 l5.842384369888311,5.842384369888315 l3.7510416677171783,-7.361833783649292z"/>
<path fill="#B31B1B" fill-opacity="0.9" d="m37.25454125817636,-27.801364772355928 l5.842384369888308,5.842384369888311 l7.361833783649303,-3.7510416677171783 l-5.842384369888308,-5.842384369888311z"/>
<path fill="#B31B1B" fill-opacity="0.9" d="m8.160655613754617,1.2925208720658108 l5.842384369888313,5.842384369888313 l7.361833783649294,-3.7510416677171765 l-5.842384369888313,-5.842384369888313z"/>
<path fill="#B31B1B" fill-opacity="0.9" d="m1.2925208720658108,8.160655613754617 l5.842384369888313,5.842384369888313 l-3.7510416677171765,7.361833783649294 l-5.842384369888313,-5.842384369888313z"/>
<path fill="#B31B1B" fill-opacity="0.9" d="m-27.801364772355928,37.25454125817636 l5.842384369888311,5.842384369888308 l-3.7510416677171783,7.361833783649303 l-5.842384369888311,-5.842384369888308z"/>
<path fill="#B31B1B" fill-opacity="0.37" d="m43.09692562806467,-21.95898040246763 l1.2925208720658148,8.160655613754615 l-5.842384369888315,-5.842384369888313 l-1.2925208720658148,-8.160655613754615z"/>
<path fill="#B31B1B" fill-opacity="0.37" d="m-21.95898040246763,43.09692562806467 l8.160655613754615,1.2925208720658148 l-5.842384369888313,-5.842384369888315 l-8.160655613754615,-1.2925208720658148z"/>
<path fill="#B31B1B" fill-opacity="0.37" d="m14.00303998364293,7.134905241954124 l-5.842384369888313,-5.842384369888313 l1.2925208720658095,8.160655613754615 l5.842384369888313,5.842384369888313z"/>
<path fill="#B31B1B" fill-opacity="0.37" d="m7.134905241954124,14.00303998364293 l-5.842384369888313,-5.842384369888313 l8.160655613754615,1.2925208720658095 l5.842384369888313,5.842384369888313z"/>
<path fill="#B31B1B" fill-opacity="0.37" d="m43.09692562806467,-21.958980402467617 l-5.842384369888308,-5.842384369888311 l1.2925208720658077,8.160655613754614 l5.842384369888308,5.842384369888311z"/>
<path fill="#B31B1B" fill-opacity="0.37" d="m-21.958980402467617,43.09692562806467 l-5.842384369888311,-5.842384369888308 l8.160655613754614,1.2925208720658077 l5.842384369888311,5.842384369888308z"/>
<path fill="#B31B1B" fill-opacity="0.37" d="m34.79602046252499,-12.278875374952035 l-8.16065561375462,-1.2925208720658077 l5.842384369888322,5.842384369888311 l8.16065561375462,1.2925208720658077z"/>
<path fill="#B31B1B" fill-opacity="0.37" d="m-12.278875374952035,34.79602046252499 l-1.2925208720658077,-8.16065561375462 l5.842384369888311,5.842384369888322 l1.2925208720658077,8.16065561375462z"/>
<path fill="#B31B1B" fill-opacity="0.9" d="m40.63840483241331,-6.436491005063722 l-5.842384369888315,-5.842384369888313 l3.7510416677171747,-7.361833783649294 l5.842384369888315,5.842384369888313z"/>
<path fill="#B31B1B" fill-opacity="0.9" d="m-6.436491005063722,40.63840483241331 l-5.842384369888313,-5.842384369888315 l-7.361833783649294,3.7510416677171747 l5.842384369888313,5.842384369888315z"/>
<path fill="#B31B1B" fill-opacity="0.9" d="m44.38944650013048,-13.798324788713016 l-1.2925208720658148,-8.160655613754615 l7.361833783649288,-3.7510416677171747 l1.2925208720658148,8.160655613754615z"/>
<path fill="#B31B1B" fill-opacity="0.9" d="m-13.798324788713016,44.38944650013048 l-8.160655613754615,-1.2925208720658148 l-3.7510416677171747,7.361833783649288 l8.160655613754615,1.2925208720658148z"/>
<path fill="#B31B1B" fill-opacity="0.37" d="m33.27657104876401,-2.685449337346544 l7.3618337836492955,-3.7510416677171783 l-8.160655613754614,-1.2925208720658095 l-7.3618337836492955,3.7510416677171783z"/>
<path fill="#B31B1B" fill-opacity="0.37" d="m-2.685449337346544,33.27657104876401 l-3.7510416677171783,7.3618337836492955 l-1.2925208720658095,-8.160655613754614 l3.7510416677171783,-7.3618337836492955z"/>
<path fill="#B31B1B" fill-opacity="0.37" d="m26.408436307075206,4.182685404342264 l-1.2925208720658077,-8.160655613754617 l-3.7510416677171747,7.361833783649294 l1.2925208720658077,8.160655613754617z"/>
<path fill="#B31B1B" fill-opacity="0.37" d="m4.182685404342264,26.408436307075206 l-8.160655613754617,-1.2925208720658077 l7.361833783649294,-3.7510416677171747 l8.160655613754617,1.2925208720658077z"/>
<path fill="#B31B1B" fill-opacity="0.37" d="m26.40843630707521,4.182685404342273 l-3.7510416677171854,7.361833783649287 l-1.2925208720658006,-8.160655613754612 l3.7510416677171854,-7.361833783649287z"/>
<path fill="#B31B1B" fill-opacity="0.9" d="m15.295560855708736,15.295560855708736 l-1.292520872065806,-8.160655613754612 l7.361833783649294,-3.7510416677171765 l1.292520872065806,8.160655613754612z"/>
<path fill="#B31B1B" fill-opacity="0.9" d="m15.295560855708736,15.295560855708736 l-8.160655613754612,-1.292520872065806 l-3.7510416677171765,7.361833783649294 l8.160655613754612,1.292520872065806z"/>
<path fill="#B31B1B" fill-opacity="0.37" d="m4.182685404342273,26.40843630707521 l7.361833783649287,-3.7510416677171854 l-8.160655613754612,-1.2925208720658006 l-7.361833783649287,3.7510416677171854z"/>
<path fill="#B31B1B" fill-opacity="0.9" d="m25.1159154350094,-3.9779702094123532 l8.160655613754614,1.2925208720658095 l1.2925208720658077,8.160655613754614 l-8.160655613754614,-1.2925208720658095z"/>
<path fill="#B31B1B" fill-opacity="0.9" d="m-3.9779702094123532,25.1159154350094 l1.2925208720658095,8.160655613754614 l8.160655613754614,1.2925208720658077 l-1.2925208720658095,-8.160655613754614z"/>
<path fill="#B31B1B" fill-opacity="0.9" d="m40.63840483241331,-6.436491005063722 l-7.3618337836492955,3.7510416677171783 l1.2925208720658077,8.160655613754614 l7.3618337836492955,-3.7510416677171783z"/>
<path fill="#B31B1B" fill-opacity="0.9" d="m-6.436491005063722,40.63840483241331 l3.7510416677171783,-7.3618337836492955 l8.160655613754614,1.2925208720658077 l-3.7510416677171783,7.3618337836492955z"/>
<path fill="#B31B1B" fill-opacity="0.9" d="m22.657394639358024,11.54451918799156 l8.160655613754624,1.292520872065813 l3.7510416677171783,-7.36183378364929 l-8.160655613754624,-1.292520872065813z"/>
<path fill="#B31B1B" fill-opacity="0.9" d="m11.54451918799156,22.657394639358024 l1.292520872065813,8.160655613754624 l-7.36183378364929,3.7510416677171783 l-1.292520872065813,-8.160655613754624z"/>
<path fill="#B31B1B" fill-opacity="0.9" d="m15.295560855708736,15.295560855708736 l5.842384369888315,5.842384369888315 l7.3618337836492955,-3.7510416677171747 l-5.842384369888315,-5.842384369888315z"/>
<path fill="#B31B1B" fill-opacity="0.9" d="m15.295560855708736,15.295560855708736 l5.842384369888315,5.842384369888315 l-3.7510416677171747,7.3618337836492955 l-5.842384369888315,-5.842384369888315z"/>
<path fill="#B31B1B" fill-opacity="0.37" d="m30.81805025311265,12.837040060057372 l5.842384369888318,5.842384369888315 l-8.16065561375462,-1.2925208720658112 l-5.842384369888318,-5.842384369888315z"/>
<path fill="#B31B1B" fill-opacity="0.37" d="m12.837040060057372,30.81805025311265 l5.842384369888315,5.842384369888318 l-1.2925208720658112,-8.16065561375462 l-5.842384369888315,-5.842384369888318z"/>
<path fill="#B31B1B" fill-opacity="0.9" d="m36.66043462300097,18.679424429945687 l-5.842384369888318,-5.842384369888315 l3.7510416677171783,-7.36183378364929 l5.842384369888318,5.842384369888315z"/>
<path fill="#B31B1B" fill-opacity="0.9" d="m18.679424429945687,36.66043462300097 l-5.842384369888315,-5.842384369888318 l-7.36183378364929,3.7510416677171783 l5.842384369888315,5.842384369888318z"/>
<path fill="#B31B1B" fill-opacity="0.37" d="m29.298600839351675,22.43046609766287 l-8.160655613754624,-1.2925208720658183 l7.3618337836492955,-3.7510416677171747 l8.160655613754624,1.2925208720658183z"/>
<path fill="#B31B1B" fill-opacity="0.37" d="m22.43046609766287,29.298600839351675 l-1.2925208720658183,-8.160655613754624 l-3.7510416677171747,7.3618337836492955 l1.2925208720658183,8.160655613754624z"/>
<path fill="#B31B1B" fill-opacity="0.9" d="m21.13794522559705,21.13794522559705 l1.2925208720658183,8.160655613754624 l8.160655613754614,1.2925208720658077 l-1.2925208720658183,-8.160655613754624z"/>
<path fill="#B31B1B" fill-opacity="0.9" d="m36.66043462300097,18.679424429945687 l-7.361833783649292,3.751041667717182 l1.2925208720658077,8.160655613754614 l7.361833783649292,-3.751041667717182z"/>
<path fill="#B31B1B" fill-opacity="0.9" d="m18.679424429945687,36.66043462300097 l3.751041667717182,-7.361833783649292 l8.160655613754614,1.2925208720658077 l-3.751041667717182,7.361833783649292z"/>
<path fill="#B31B1B" fill-opacity="0.37" d="m34.20191382734959,34.20191382734959 l-7.361833783649292,3.751041667717182 l3.751041667717182,-7.361833783649292 l7.361833783649292,-3.751041667717182z"/>
<path fill="#B31B1B" fill-opacity="0.9" d="m37.952955495066774,26.8400800437003 l-3.751041667717182,7.361833783649292 l5.842384369888315,5.842384369888315 l3.751041667717182,-7.361833783649292z"/>
<path fill="#B31B1B" fill-opacity="0.9" d="m26.8400800437003,37.952955495066774 l7.361833783649292,-3.751041667717182 l5.842384369888315,5.842384369888315 l-7.361833783649292,3.751041667717182z"/>
</g>
</svg>