<?xml version="1.0" encoding="utf-8"?>
<svg width="100%" height="100%" viewBox="-70.0 -70.0 140.0 140.0" preserveAspectRatio="xMidYMid meet" version="1.1" baseProfile="full" xmlns="http://www.w3.org/2000/svg">
<g style="stroke:#FFFFFF; stroke-width: 0.30638587087566255; stroke-linejoin: round;">
<path fill="#B31B1B" fill-opacity="0.9" d="m-11.17734109451132,-51.384102190299544 l0.7988218301053287,5.043562539782997 l-4.549863497822512,2.318271243866292 l-0.7988218301053287,-5.043562539782997z"/>
<path fill="#B31B1B" fill-opacity="0.9" d="m-51.384102190299544,-11.17734109451132 l5.043562539782997,0.7988218301053287 l2.318271243866292,-4.549863497822512 l-5.043562539782997,-0.7988218301053287z"/>
<path fill="#B31B1B" fill-opacity="0.9" d="m-8.859069850645032,-55.93396568812204 l3.6107921159321172,3.610792115932121 l-2.3182712438663096,4.549863497822493 l-3.6107921159321172,-3.610792115932121z"/>
<path fill="#B31B1B" fill-opacity="0.9" d="m-55.93396568812204,-8.859069850645032 l3.610792115932121,3.6107921159321172 l4.549863497822493,-2.3182712438663096 l-3.610792115932121,-3.6107921159321172z"/>
<path fill="#B31B1B" fill-opacity="0.9" d="m-8.859069850645014,-55.93396568812204 l-2.318271243866306,4.5498634978225 l3.6107921159321172,3.6107921159321137 l2.318271243866306,-4.5498634978225z"/>
<path fill="#B31B1B" fill-opacity="0.9" d="m-55.93396568812204,-8.859069850645014 l4.5498634978225,-2.318271243866306 l3.6107921159321137,3.6107921159321172 l-4.5498634978225,2.318271243866306z"/>
<path fill="#B31B1B" fill-opacity="0.37" d="m-16.361153186079378,-41.21029812082346 l5.043562539782993,0.798821830105318 l-3.610792115932119,-3.6107921159321137 l-5.043562539782993,-0.798821830105318z"/>
<path fill="#B31B1B" fill-opacity="0.37" d="m-41.21029812082346,-16.361153186079378 l0.798821830105318,5.043562539782993 l-3.6107921159321137,-3.610792115932119 l-0.798821830105318,-5.043562539782993z"/>
<path fill="#B31B1B" fill-opacity="0.37" d="m-10.378519264405991,-46.34053965051655 l-0.7988218301053287,-5.043562539782997 l3.6107921159321172,3.6107921159321137 l0.7988218301053287,5.043562539782997z"/>
<path fill="#B31B1B" fill-opacity="0.37" d="m-46.34053965051655,-10.378519264405991 l-5.043562539782997,-0.7988218301053287 l3.6107921159321137,3.6107921159321172 l5.043562539782997,0.7988218301053287z"/>
<path fill="#B31B1B" fill-opacity="0.9" d="m-6.767727148473881,-42.72974753458444 l-3.61079211593211,-3.6107921159321066 l-4.549863497822512,2.318271243866292 l3.61079211593211,3.6107921159321066z"/>
<path fill="#B31B1B" fill-opacity="0.9" d="m-42.72974753458444,-6.767727148473881 l-3.6107921159321066,-3.61079211593211 l2.318271243866292,-4.549863497822512 l3.6107921159321066,3.61079211593211z"/>
<path fill="#B31B1B" fill-opacity="0.37" d="m-4.449455904607586,-47.27961103240695 l-0.7988218301053287,-5.043562539782975 l-2.3182712438663096,4.549863497822493 l0.7988218301053287,5.043562539782975z"/>
<path fill="#B31B1B" fill-opacity="0.9" d="m-22.43046609766286,-29.29860083935167 l4.549863497822503,-2.3182712438663025 l-0.7988218301053287,-5.043562539782993 l-4.549863497822503,2.3182712438663025z"/>
<path fill="#B31B1B" fill-opacity="0.9" d="m-29.29860083935167,-22.43046609766286 l-2.3182712438663025,4.549863497822503 l-5.043562539782993,-0.7988218301053287 l2.3182712438663025,-4.549863497822503z"/>
<path fill="#B31B1B" fill-opacity="0.37" d="m-47.27961103240695,-4.449455904607586 l-5.043562539782975,-0.7988218301053287 l4.549863497822493,-2.3182712438663096 l5.043562539782975,0.7988218301053287z"/>
<path fill="#B31B1B" fill-opacity="0.9" d="m-11.317590646296384,-40.41147629071814 l-2.318271243866308,4.549863497822507 l-5.043562539782991,-0.7988218301053323 l2.318271243866308,-4.549863497822507z"/>
<path fill="#B31B1B" fill-opacity="0.9" d="m-40.41147629071814,-11.317590646296384 l4.549863497822507,-2.318271243866308 l-0.7988218301053323,-5.043562539782991 l-4.549863497822507,2.318271243866308z"/>
<path fill="#B31B1B" fill-opacity="0.9" d="m-5.248277734712914,-52.32317357218992 l0.7988218301053287,5.043562539782975 l5.0435625397829895,0.7988218301053251 l-0.7988218301053287,-5.043562539782975z"/>
<path fill="#B31B1B" fill-opacity="0.9" d="m-52.32317357218992,-5.248277734712914 l5.043562539782975,0.7988218301053287 l0.7988218301053251,5.0435625397829895 l-5.043562539782975,-0.7988218301053287z"/>
<path fill="#B31B1B" fill-opacity="0.9" d="m-12.83704006005737,-30.818050253112652 l-0.7988218301053216,-5.043562539782982 l-5.043562539782991,-0.7988218301053323 l0.7988218301053216,5.043562539782982z"/>
<path fill="#B31B1B" fill-opacity="0.9" d="m-30.818050253112652,-12.83704006005737 l-5.043562539782982,-0.7988218301053216 l-0.7988218301053323,-5.043562539782991 l5.043562539782982,0.7988218301053216z"/>
<path fill="#B31B1B" fill-opacity="0.9" d="m-6.767727148473892,-42.72974753458443 l2.318271243866306,-4.549863497822514 l5.0435625397829895,0.7988218301053251 l-2.318271243866306,4.549863497822514z"/>
<path fill="#B31B1B" fill-opacity="0.37" d="m-13.635861890162692,-35.861612792895635 l0.7988218301053216,5.043562539782982 l2.318271243866308,-4.5498634978225 l-0.7988218301053216,-5.043562539782982z"/>
<path fill="#B31B1B" fill-opacity="0.37" d="m-17.880602599840355,-31.616872083217974 l5.043562539782984,0.7988218301053216 l-4.549863497822498,2.318271243866306 l-5.043562539782984,-0.7988218301053216z"/>
<path fill="#B31B1B" fill-opacity="0.9" d="m-24.74873734152916,-24.748737341529168 l2.3182712438663025,-4.549863497822503 l5.0435625397829895,0.7988218301053251 l-2.3182712438663025,4.549863497822503z"/>
<path fill="#B31B1B" fill-opacity="0.9" d="m-24.748737341529168,-24.74873734152916 l-4.549863497822503,2.3182712438663025 l0.7988218301053251,5.0435625397829895 l4.549863497822503,-2.3182712438663025z"/>
<path fill="#B31B1B" fill-opacity="0.37" d="m-31.616872083217974,-17.880602599840355 l0.7988218301053216,5.043562539782984 l2.318271243866306,-4.549863497822498 l-0.7988218301053216,-5.043562539782984z"/>
<path fill="#B31B1B" fill-opacity="0.37" d="m-35.861612792895635,-13.635861890162692 l5.043562539782982,0.7988218301053216 l-4.5498634978225,2.318271243866308 l-5.043562539782982,-0.7988218301053216z"/>
<path fill="#B31B1B" fill-opacity="0.9" d="m-42.72974753458443,-6.767727148473892 l-4.549863497822514,2.318271243866306 l0.7988218301053251,5.0435625397829895 l4.549863497822514,-2.318271243866306z"/>
<path fill="#B31B1B" fill-opacity="0.9" d="m-6.767727148473881,-42.72974753458444 l0.7988218301053305,5.0435625397829895 l-4.549863497822512,2.318271243866299 l-0.7988218301053305,-5.0435625397829895z"/>
<path fill="#B31B1B" fill-opacity="0.9" d="m-42.72974753458444,-6.767727148473881 l5.0435625397829895,0.7988218301053305 l2.318271243866299,-4.549863497822512 l-5.0435625397829895,-0.7988218301053305z"/>
<path fill="#B31B1B" fill-opacity="0.37" d="m2.8256988891316013,-44.24919694834542 l-4.5498634978225105,2.318271243866313 l2.318271243866313,-4.549863497822514 l4.5498634978225105,-2.318271243866313z"/>
<path fill="#B31B1B" fill-opacity="0.9" d="m-6.767727148473892,-42.72974753458443 l0.7988218301053216,5.043562539782982 l5.0435625397829895,0.7988218301053251 l-0.7988218301053216,-5.043562539782982z"/>
<path fill="#B31B1B" fill-opacity="0.37" d="m-15.155311303923671,-26.26818675529015 l-4.549863497822503,2.3182712438663025 l2.318271243866306,-4.5498634978225 l4.549863497822503,-2.3182712438663025z"/>
<path fill="#B31B1B" fill-opacity="0.9" d="m-24.74873734152916,-24.748737341529168 l5.043562539782986,0.7988218301053216 l0.7988218301053251,5.0435625397829895 l-5.043562539782986,-0.7988218301053216z"/>
<path fill="#B31B1B" fill-opacity="0.9" d="m-24.748737341529168,-24.74873734152916 l0.7988218301053216,5.043562539782986 l5.0435625397829895,0.7988218301053251 l-0.7988218301053216,-5.043562539782986z"/>
<path fill="#B31B1B" fill-opacity="0.37" d="m-26.26818675529015,-15.155311303923671 l2.3182712438663025,-4.549863497822503 l-4.5498634978225,2.318271243866306 l-2.3182712438663025,4.549863497822503z"/>
<path fill="#B31B1B" fill-opacity="0.9" d="m-42.72974753458443,-6.767727148473892 l5.043562539782982,0.7988218301053216 l0.7988218301053251,5.0435625397829895 l-5.043562539782982,-0.7988218301053216z"/>
<path fill="#B31B1B" fill-opacity="0.37" d="m-44.24919694834542,2.8256988891316013 l2.318271243866313,-4.5498634978225105 l-4.549863497822514,2.318271243866313 l-2.318271243866313,4.5498634978225105z"/>
<path fill="#B31B1B" fill-opacity="0.37" d="m-8.287176562234862,-33.13632149697895 l2.3182712438663113,-4.5498634978225 l-4.549863497822512,2.318271243866299 l-2.3182712438663113,4.5498634978225z"/>
<path fill="#B31B1B" fill-opacity="0.37" d="m-33.13632149697895,-8.287176562234862 l-4.5498634978225,2.3182712438663113 l2.318271243866299,-4.549863497822512 l4.5498634978225,-2.3182712438663113z"/>
<path fill="#B31B1B" fill-opacity="0.9" d="m-1.7241646086909093,-41.93092570447911 l3.610792115932121,3.6107921159321137 l4.549863497822507,-2.318271243866306 l-3.610792115932121,-3.6107921159321137z"/>
<path fill="#B31B1B" fill-opacity="0.9" d="m-5.96890531836857,-37.68618499480145 l3.610792115932119,3.6107921159321137 l-2.3182712438663042,4.549863497822507 l-3.610792115932119,-3.6107921159321137z"/>
<path fill="#B31B1B" fill-opacity="0.9" d="m-12.83704006005737,-30.818050253112652 l-2.3182712438663007,4.549863497822503 l3.6107921159321155,3.6107921159321172 l2.3182712438663007,-4.549863497822503z"/>
<path fill="#B31B1B" fill-opacity="0.9" d="m-19.705174801746175,-23.949915511423846 l4.549863497822503,-2.3182712438663025 l3.6107921159321155,3.6107921159321172 l-4.549863497822503,2.3182712438663025z"/>
<path fill="#B31B1B" fill-opacity="0.9" d="m-23.949915511423846,-19.705174801746175 l-2.3182712438663025,4.549863497822503 l3.6107921159321172,3.6107921159321155 l2.3182712438663025,-4.549863497822503z"/>
<path fill="#B31B1B" fill-opacity="0.9" d="m-30.818050253112652,-12.83704006005737 l4.549863497822503,-2.3182712438663007 l3.6107921159321172,3.6107921159321155 l-4.549863497822503,2.3182712438663007z"/>
<path fill="#B31B1B" fill-opacity="0.9" d="m-37.68618499480145,-5.96890531836857 l3.6107921159321137,3.610792115932119 l4.549863497822507,-2.3182712438663042 l-3.6107921159321137,-3.610792115932119z"/>
<path fill="#B31B1B" fill-opacity="0.9" d="m-41.93092570447911,-1.7241646086909093 l3.6107921159321137,3.610792115932121 l-2.318271243866306,4.549863497822507 l-3.6107921159321137,-3.610792115932121z"/>
<path fill="#B31B1B" fill-opacity="0.9" d="m-12.83704006005737,-30.818050253112652 l4.549863497822509,-2.318271243866299 l3.6107921159321155,3.610792115932121 l-4.549863497822509,2.318271243866299z"/>
<path fill="#B31B1B" fill-opacity="0.9" d="m-30.818050253112652,-12.83704006005737 l-2.318271243866299,4.549863497822509 l3.610792115932121,3.6107921159321155 l2.318271243866299,-4.549863497822509z"/>
<path fill="#B31B1B" fill-opacity="0.9" d="m-5.9689053183685505,-37.68618499480145 l-2.3182712438663113,4.5498634978225 l3.6107921159321155,3.610792115932121 l2.3182712438663113,-4.5498634978225z"/>
<path fill="#B31B1B" fill-opacity="0.9" d="m-37.68618499480145,-5.9689053183685505 l4.5498634978225,-2.3182712438663113 l3.610792115932121,3.6107921159321155 l-4.5498634978225,2.3182712438663113z"/>
<path fill="#B31B1B" fill-opacity="0.37" d="m1.8866275072412115,-38.320133588546994 l0.7988218301053287,5.043562539782982 l-3.610792115932121,-3.6107921159321137 l-0.7988218301053287,-5.043562539782982z"/>
<path fill="#B31B1B" fill-opacity="0.37" d="m-2.358113202436451,-34.07539287886934 l-3.610792115932119,-3.6107921159321137 l5.0435625397829895,0.7988218301053251 l3.610792115932119,3.6107921159321137z"/>
<path fill="#B31B1B" fill-opacity="0.37" d="m-16.09438268581406,-20.339123395491725 l-3.6107921159321137,-3.610792115932121 l0.7988218301053251,5.0435625397829895 l3.6107921159321137,3.610792115932121z"/>
<path fill="#B31B1B" fill-opacity="0.37" d="m-20.339123395491725,-16.09438268581406 l-3.610792115932121,-3.6107921159321137 l5.0435625397829895,0.7988218301053251 l3.610792115932121,3.6107921159321137z"/>
<path fill="#B31B1B" fill-opacity="0.37" d="m-34.07539287886934,-2.358113202436451 l-3.6107921159321137,-3.610792115932119 l0.7988218301053251,5.0435625397829895 l3.6107921159321137,3.610792115932119z"/>
<path fill="#B31B1B" fill-opacity="0.37" d="m-38.320133588546994,1.8866275072412115 l5.043562539782982,0.7988218301053287 l-3.6107921159321137,-3.610792115932121 l-5.043562539782982,-0.7988218301053287z"/>
<path fill="#B31B1B" fill-opacity="0.9" d="m-15.295560855708738,-15.295560855708745 l-0.7988218301053234,-5.043562539782981 l4.549863497822505,-2.318271243866306 l0.7988218301053234,5.043562539782981z"/>
<path fill="#B31B1B" fill-opacity="0.9" d="m-15.295560855708745,-15.295560855708738 l-5.043562539782981,-0.7988218301053234 l-2.318271243866306,4.549863497822505 l5.043562539782981,0.7988218301053234z"/>
<path fill="#B31B1B" fill-opacity="0.9" d="m2.6854493373465402,-33.27657104876401 l-0.7988218301053287,-5.043562539782982 l4.549863497822507,-2.318271243866306 l0.7988218301053287,5.043562539782982z"/>
<path fill="#B31B1B" fill-opacity="0.9" d="m2.6854493373465402,-33.27657104876401 l-5.043562539782991,-0.7988218301053251 l-2.3182712438663042,4.549863497822507 l5.043562539782991,0.7988218301053251z"/>
<path fill="#B31B1B" fill-opacity="0.37" d="m-4.182685404342271,-26.4084363070752 l4.549863497822503,-2.318271243866313 l-5.043562539782988,-0.798821830105318 l-4.549863497822503,2.318271243866313z"/>
<path fill="#B31B1B" fill-opacity="0.37" d="m-8.427426114019926,-22.163695597397545 l-0.7988218301053269,-5.043562539782986 l-2.3182712438663025,4.5498634978225 l0.7988218301053269,5.043562539782986z"/>
<path fill="#B31B1B" fill-opacity="0.37" d="m-22.163695597397545,-8.427426114019926 l-5.043562539782986,-0.7988218301053269 l4.5498634978225,-2.3182712438663025 l5.043562539782986,0.7988218301053269z"/>
<path fill="#B31B1B" fill-opacity="0.37" d="m-26.4084363070752,-4.182685404342271 l-2.318271243866313,4.549863497822503 l-0.798821830105318,-5.043562539782988 l2.318271243866313,-4.549863497822503z"/>
<path fill="#B31B1B" fill-opacity="0.9" d="m-33.27657104876401,2.6854493373465402 l-0.7988218301053251,-5.043562539782991 l4.549863497822507,-2.3182712438663042 l0.7988218301053251,5.043562539782991z"/>
<path fill="#B31B1B" fill-opacity="0.9" d="m-33.27657104876401,2.6854493373465402 l-5.043562539782982,-0.7988218301053287 l-2.318271243866306,4.549863497822507 l5.043562539782982,0.7988218301053287z"/>
<path fill="#B31B1B" fill-opacity="0.37" d="m-4.182685404342264,-26.408436307075206 l-5.0435625397829895,-0.7988218301053251 l4.549863497822507,-2.318271243866299 l5.0435625397829895,0.7988218301053251z"/>
<path fill="#B31B1B" fill-opacity="0.37" d="m-26.408436307075206,-4.182685404342264 l-0.7988218301053251,-5.0435625397829895 l-2.318271243866299,4.549863497822507 l0.7988218301053251,5.0435625397829895z"/>
<path fill="#B31B1B" fill-opacity="0.9" d="m-9.226247944125253,-27.20725813718053 l5.0435625397829895,0.7988218301053251 l0.7988218301053216,5.0435625397829895 l-5.0435625397829895,-0.7988218301053251z"/>
<path fill="#B31B1B" fill-opacity="0.9" d="m-27.20725813718053,-9.226247944125253 l0.7988218301053251,5.0435625397829895 l5.0435625397829895,0.7988218301053216 l-0.7988218301053251,-5.0435625397829895z"/>
<path fill="#B31B1B" fill-opacity="0.9" d="m12.278875374952028,-34.79602046252499 l-5.0435625397829895,-0.7988218301053251 l-0.7988218301053198,-5.043562539782982 l5.0435625397829895,0.7988218301053251z"/>
<path fill="#B31B1B" fill-opacity="0.9" d="m-34.79602046252499,12.278875374952028 l-0.7988218301053251,-5.0435625397829895 l-5.043562539782982,-0.7988218301053198 l0.7988218301053251,5.0435625397829895z"/>
<path fill="#B31B1B" fill-opacity="0.37" d="m7.235312835169038,-35.59484229263032 l-4.549863497822498,2.318271243866306 l5.043562539782986,0.7988218301053251 l4.549863497822498,-2.318271243866306z"/>
<path fill="#B31B1B" fill-opacity="0.37" d="m-35.59484229263032,7.235312835169038 l2.318271243866306,-4.549863497822498 l0.7988218301053251,5.043562539782986 l-2.318271243866306,4.549863497822498z"/>
<path fill="#B31B1B" fill-opacity="0.9" d="m0.36717809348023245,-28.726707550941512 l-4.549863497822503,2.318271243866313 l0.7988218301053251,5.043562539782982 l4.549863497822503,-2.318271243866313z"/>
<path fill="#B31B1B" fill-opacity="0.9" d="m-10.745697357886236,-17.613832099575045 l5.04356253978299,0.7988218301053287 l2.3182712438663033,-4.5498634978225 l-5.04356253978299,-0.7988218301053287z"/>
<path fill="#B31B1B" fill-opacity="0.9" d="m-17.613832099575045,-10.745697357886236 l0.7988218301053287,5.04356253978299 l-4.5498634978225,2.3182712438663033 l-0.7988218301053287,-5.04356253978299z"/>
<path fill="#B31B1B" fill-opacity="0.9" d="m-28.726707550941512,0.36717809348023245 l2.318271243866313,-4.549863497822503 l5.043562539782982,0.7988218301053251 l-2.318271243866313,4.549863497822503z"/>
<path fill="#B31B1B" fill-opacity="0.9" d="m-15.295560855708738,-15.295560855708745 l3.610792115932112,3.6107921159321155 l4.549863497822505,-2.3182712438663007 l-3.610792115932112,-3.6107921159321155z"/>
<path fill="#B31B1B" fill-opacity="0.9" d="m-15.295560855708745,-15.295560855708738 l3.6107921159321155,3.610792115932112 l-2.3182712438663007,4.549863497822505 l-3.6107921159321155,-3.610792115932112z"/>
<path fill="#B31B1B" fill-opacity="0.9" d="m2.6854493373465402,-33.27657104876401 l3.610792115932112,3.6107921159321137 l-2.318271243866306,4.549863497822507 l-3.610792115932112,-3.6107921159321137z"/>
<path fill="#B31B1B" fill-opacity="0.9" d="m-33.27657104876401,2.6854493373465402 l3.6107921159321137,3.610792115932112 l4.549863497822507,-2.318271243866306 l-3.6107921159321137,-3.610792115932112z"/>
<path fill="#B31B1B" fill-opacity="0.37" d="m6.296241453278652,-29.6657789328319 l5.043562539782988,0.7988218301053216 l-3.6107921159321137,-3.61079211593211 l-5.043562539782988,-0.7988218301053216z"/>
<path fill="#B31B1B" fill-opacity="0.37" d="m-29.6657789328319,6.296241453278652 l0.7988218301053216,5.043562539782988 l-3.61079211593211,-3.6107921159321137 l-0.7988218301053216,-5.043562539782988z"/>
<path fill="#B31B1B" fill-opacity="0.37" d="m1.1659999235855558,-23.68314501115852 l-0.7988218301053234,-5.043562539782993 l3.6107921159321137,3.610792115932121 l0.7988218301053234,5.043562539782993z"/>
<path fill="#B31B1B" fill-opacity="0.37" d="m-5.702134818103246,-16.815010269469717 l3.610792115932113,3.6107921159321137 l-5.043562539782988,-0.7988218301053269 l-3.610792115932113,-3.6107921159321137z"/>
<path fill="#B31B1B" fill-opacity="0.37" d="m-16.815010269469717,-5.702134818103246 l3.6107921159321137,3.610792115932113 l-0.7988218301053269,-5.043562539782988 l-3.6107921159321137,-3.610792115932113z"/>
<path fill="#B31B1B" fill-opacity="0.37" d="m-23.68314501115852,1.1659999235855558 l-5.043562539782993,-0.7988218301053234 l3.610792115932121,3.6107921159321137 l5.043562539782993,0.7988218301053234z"/>
<path fill="#B31B1B" fill-opacity="0.9" d="m15.88966749088414,-31.185228346592883 l-3.610792115932112,-3.61079211593211 l-4.549863497822502,2.318271243866306 l3.610792115932112,3.61079211593211z"/>
<path fill="#B31B1B" fill-opacity="0.9" d="m-31.185228346592883,15.88966749088414 l-3.61079211593211,-3.610792115932112 l2.318271243866306,-4.549863497822502 l3.61079211593211,3.610792115932112z"/>
<path fill="#B31B1B" fill-opacity="0.9" d="m4.776792039517673,-20.07235289522641 l-4.549863497822502,2.318271243866306 l-3.6107921159321172,-3.6107921159321137 l4.549863497822502,-2.318271243866306z"/>
<path fill="#B31B1B" fill-opacity="0.9" d="m-2.091342702171133,-13.204218153537603 l-3.610792115932113,-3.6107921159321137 l2.3182712438663033,-4.5498634978225 l3.610792115932113,3.6107921159321137z"/>
<path fill="#B31B1B" fill-opacity="0.9" d="m-2.0913427021711346,-13.204218153537601 l2.318271243866306,-4.549863497822502 l-3.6107921159321172,-3.6107921159321137 l-2.318271243866306,4.549863497822502z"/>
<path fill="#B31B1B" fill-opacity="0.9" d="m-13.204218153537601,-2.0913427021711346 l-4.549863497822502,2.318271243866306 l-3.6107921159321137,-3.6107921159321172 l4.549863497822502,-2.318271243866306z"/>
<path fill="#B31B1B" fill-opacity="0.9" d="m-13.204218153537603,-2.091342702171133 l-3.6107921159321137,-3.610792115932113 l-4.5498634978225,2.3182712438663033 l3.6107921159321137,3.610792115932113z"/>
<path fill="#B31B1B" fill-opacity="0.9" d="m-20.07235289522641,4.776792039517673 l2.318271243866306,-4.549863497822502 l-3.6107921159321137,-3.6107921159321172 l-2.318271243866306,4.549863497822502z"/>
<path fill="#B31B1B" fill-opacity="0.37" d="m-6.641206199993636,-10.8859469096713 l-5.0435625397829895,-0.7988218301053287 l4.549863497822505,-2.3182712438663007 l5.0435625397829895,0.7988218301053287z"/>
<path fill="#B31B1B" fill-opacity="0.37" d="m-10.8859469096713,-6.641206199993636 l-0.7988218301053287,-5.0435625397829895 l-2.3182712438663007,4.549863497822505 l0.7988218301053287,5.0435625397829895z"/>
<path fill="#B31B1B" fill-opacity="0.9" d="m11.33980399306164,-28.866957102726577 l-5.043562539782988,-0.7988218301053216 l-2.318271243866306,4.549863497822507 l5.043562539782988,0.7988218301053216z"/>
<path fill="#B31B1B" fill-opacity="0.9" d="m-28.866957102726577,11.33980399306164 l-0.7988218301053216,-5.043562539782988 l4.549863497822507,-2.318271243866306 l0.7988218301053216,5.043562539782988z"/>
<path fill="#B31B1B" fill-opacity="0.9" d="m-11.684768739776626,-11.68476873977663 l5.0435625397829895,0.7988218301053287 l0.7988218301053251,5.043562539782988 l-5.0435625397829895,-0.7988218301053287z"/>
<path fill="#B31B1B" fill-opacity="0.9" d="m-11.68476873977663,-11.684768739776626 l0.7988218301053287,5.0435625397829895 l5.043562539782988,0.7988218301053251 l-0.7988218301053287,-5.0435625397829895z"/>
<path fill="#B31B1B" fill-opacity="0.9" d="m9.82035457930066,-19.27353106512109 l-0.7988218301053269,-5.043562539782979 l-5.043562539782988,-0.7988218301053216 l0.7988218301053269,5.043562539782979z"/>
<path fill="#B31B1B" fill-opacity="0.9" d="m-19.27353106512109,9.82035457930066 l-5.043562539782979,-0.7988218301053269 l-0.7988218301053216,-5.043562539782988 l5.043562539782979,0.7988218301053269z"/>
<path fill="#B31B1B" fill-opacity="0.37" d="m0.2269285416951714,-17.754081651360103 l-2.318271243866306,4.549863497822502 l4.549863497822501,-2.3182712438663042 l2.318271243866306,-4.549863497822502z"/>
<path fill="#B31B1B" fill-opacity="0.37" d="m-17.754081651360103,0.2269285416951714 l4.549863497822502,-2.318271243866306 l-2.3182712438663042,4.549863497822501 l-4.549863497822502,2.318271243866306z"/>
<path fill="#B31B1B" fill-opacity="0.9" d="m15.88966749088414,-31.185228346592883 l-4.5498634978225,2.318271243866306 l0.7988218301053251,5.0435625397829895 l4.5498634978225,-2.318271243866306z"/>
<path fill="#B31B1B" fill-opacity="0.9" d="m-31.185228346592883,15.88966749088414 l2.318271243866306,-4.5498634978225 l5.0435625397829895,0.7988218301053251 l-2.318271243866306,4.5498634978225z"/>
<path fill="#B31B1B" fill-opacity="0.37" d="m9.021532749195334,-24.31709360490407 l2.318271243866306,-4.549863497822507 l0.7988218301053251,5.0435625397829895 l-2.318271243866306,4.549863497822507z"/>
<path fill="#B31B1B" fill-opacity="0.9" d="m-2.091342702171133,-13.204218153537603 l-4.549863497822503,2.3182712438663025 l0.7988218301053251,5.043562539782988 l4.549863497822503,-2.3182712438663025z"/>
<path fill="#B31B1B" fill-opacity="0.9" d="m-13.204218153537603,-2.091342702171133 l2.3182712438663025,-4.549863497822503 l5.043562539782988,0.7988218301053251 l-2.3182712438663025,4.549863497822503z"/>
<path fill="#B31B1B" fill-opacity="0.37" d="m-24.31709360490407,9.021532749195334 l-4.549863497822507,2.318271243866306 l5.0435625397829895,0.7988218301053251 l4.549863497822507,-2.318271243866306z"/>
<path fill="#B31B1B" fill-opacity="0.9" d="m15.889667490884143,-31.18522834659288 l0.7988218301053251,5.0435625397829895 l-4.549863497822502,2.318271243866306 l-0.7988218301053251,-5.0435625397829895z"/>
<path fill="#B31B1B" fill-opacity="0.9" d="m-31.18522834659288,15.889667490884143 l5.0435625397829895,0.7988218301053251 l2.318271243866306,-4.549863497822502 l-5.0435625397829895,-0.7988218301053251z"/>
<path fill="#B31B1B" fill-opacity="0.9" d="m9.82035457930066,-19.27353106512109 l-2.318271243866306,4.549863497822505 l-5.043562539782989,-0.7988218301053198 l2.318271243866306,-4.549863497822505z"/>
<path fill="#B31B1B" fill-opacity="0.9" d="m-19.27353106512109,9.82035457930066 l4.549863497822505,-2.318271243866306 l-0.7988218301053198,-5.043562539782989 l-4.549863497822505,2.318271243866306z"/>
<path fill="#B31B1B" fill-opacity="0.37" d="m2.9522198376118514,-12.405396323432278 l4.549863497822503,-2.318271243866308 l-5.043562539782989,-0.7988218301053198 l-4.549863497822503,2.318271243866308z"/>
<path fill="#B31B1B" fill-opacity="0.37" d="m-12.405396323432278,2.9522198376118514 l-2.318271243866308,4.549863497822503 l-0.7988218301053198,-5.043562539782989 l2.318271243866308,-4.549863497822503z"/>
<path fill="#B31B1B" fill-opacity="0.37" d="m-3.610792115932114,-3.610792115932116 l2.3182712438663047,-4.549863497822502 l-4.549863497822502,2.3182712438663042 l-2.3182712438663047,4.549863497822502z"/>
<path fill="#B31B1B" fill-opacity="0.37" d="m-3.610792115932116,-3.610792115932114 l-4.549863497822502,2.3182712438663047 l2.3182712438663042,-4.549863497822502 l4.549863497822502,-2.3182712438663047z"/>
<path fill="#B31B1B" fill-opacity="0.9" d="m-2.0913427021711346,-13.204218153537601 l5.043562539782986,0.7988218301053234 l0.7988218301053251,5.043562539782986 l-5.043562539782986,-0.7988218301053234z"/>
<path fill="#B31B1B" fill-opacity="0.9" d="m-13.204218153537601,-2.0913427021711346 l0.7988218301053234,5.043562539782986 l5.043562539782986,0.7988218301053251 l-0.7988218301053234,-5.043562539782986z"/>
<path fill="#B31B1B" fill-opacity="0.37" d="m14.370218077123162,-21.59180230898739 l2.318271243866306,-4.5498634978225 l-4.549863497822502,2.318271243866306 l-2.318271243866306,4.5498634978225z"/>
<path fill="#B31B1B" fill-opacity="0.37" d="m-21.59180230898739,14.370218077123162 l-4.5498634978225,2.318271243866306 l2.318271243866306,-4.549863497822502 l4.5498634978225,-2.318271243866306z"/>
<path fill="#B31B1B" fill-opacity="0.9" d="m15.889667490884143,-31.18522834659288 l5.043562539782986,0.7988218301053287 l0.7988218301053251,5.043562539782982 l-5.043562539782986,-0.7988218301053287z"/>
<path fill="#B31B1B" fill-opacity="0.9" d="m-31.18522834659288,15.889667490884143 l0.7988218301053287,5.043562539782986 l5.043562539782982,0.7988218301053251 l-0.7988218301053287,-5.043562539782986z"/>
<path fill="#B31B1B" fill-opacity="0.9" d="m7.502083335434355,-14.723667567298586 l-4.549863497822503,2.318271243866308 l0.7988218301053251,5.043562539782986 l4.549863497822503,-2.318271243866308z"/>
<path fill="#B31B1B" fill-opacity="0.9" d="m-14.723667567298586,7.502083335434355 l2.318271243866308,-4.549863497822503 l5.043562539782986,0.7988218301053251 l-2.318271243866308,4.549863497822503z"/>
<path fill="#B31B1B" fill-opacity="0.9" d="m7.502083335434357,-14.723667567298584 l0.7988218301053216,5.0435625397829895 l-4.5498634978225,2.3182712438663042 l-0.7988218301053216,-5.0435625397829895z"/>
<path fill="#B31B1B" fill-opacity="0.9" d="m-14.723667567298584,7.502083335434357 l5.0435625397829895,0.7988218301053216 l2.3182712438663042,-4.5498634978225 l-5.0435625397829895,-0.7988218301053216z"/>
<path fill="#B31B1B" fill-opacity="0.9" d="m-1.2925208720658095,-8.160655613754617 l-2.3182712438663047,4.549863497822502 l3.610792115932114,3.610792115932116 l2.3182712438663047,-4.549863497822502z"/>
<path fill="#B31B1B" fill-opacity="0.9" d="m-1.2925208720658108,-8.160655613754615 l3.610792115932115,3.610792115932113 l-2.3182712438663042,4.5498634978225025 l-3.610792115932115,-3.610792115932113z"/>
<path fill="#B31B1B" fill-opacity="0.9" d="m-8.160655613754615,-1.2925208720658108 l3.610792115932113,3.610792115932115 l4.5498634978225025,-2.3182712438663042 l-3.610792115932113,-3.610792115932115z"/>
<path fill="#B31B1B" fill-opacity="0.9" d="m-8.160655613754617,-1.2925208720658095 l4.549863497822502,-2.3182712438663047 l3.610792115932116,3.610792115932114 l-4.549863497822502,2.3182712438663047z"/>
<path fill="#B31B1B" fill-opacity="0.9" d="m9.820354579300663,-19.273531065121087 l-2.318271243866306,4.549863497822503 l3.6107921159321137,3.6107921159321172 l2.318271243866306,-4.549863497822503z"/>
<path fill="#B31B1B" fill-opacity="0.9" d="m-19.273531065121087,9.820354579300663 l4.549863497822503,-2.318271243866306 l3.6107921159321172,3.6107921159321137 l-4.549863497822503,2.318271243866306z"/>
<path fill="#B31B1B" fill-opacity="0.9" d="m9.820354579300663,-19.273531065121087 l4.5498634978225,-2.3182712438663025 l3.6107921159321137,3.610792115932121 l-4.5498634978225,2.3182712438663025z"/>
<path fill="#B31B1B" fill-opacity="0.9" d="m-19.273531065121087,9.820354579300663 l-2.3182712438663025,4.5498634978225 l3.610792115932121,3.6107921159321137 l2.3182712438663025,-4.5498634978225z"/>
<path fill="#B31B1B" fill-opacity="0.9" d="m20.93323003066713,-30.38640651648755 l3.6107921159321137,3.6107921159321137 l4.549863497822503,-2.3182712438663025 l-3.6107921159321137,-3.6107921159321137z"/>
<path fill="#B31B1B" fill-opacity="0.9" d="m16.68848932098947,-26.14166580680989 l3.6107921159321137,3.6107921159321137 l-2.318271243866306,4.549863497822507 l-3.6107921159321137,-3.6107921159321137z"/>
<path fill="#B31B1B" fill-opacity="0.9" d="m-26.14166580680989,16.68848932098947 l3.6107921159321137,3.6107921159321137 l4.549863497822507,-2.318271243866306 l-3.6107921159321137,-3.6107921159321137z"/>
<path fill="#B31B1B" fill-opacity="0.9" d="m-30.38640651648755,20.93323003066713 l3.6107921159321137,3.6107921159321137 l-2.3182712438663025,4.549863497822503 l-3.6107921159321137,-3.6107921159321137z"/>
<path fill="#B31B1B" fill-opacity="0.37" d="m2.3182712438663042,-4.5498634978225025 l-3.610792115932115,-3.610792115932113 l5.043562539782988,0.7988218301053234 l3.610792115932115,3.610792115932113z"/>
<path fill="#B31B1B" fill-opacity="0.37" d="m-4.5498634978225025,2.3182712438663042 l-3.610792115932113,-3.610792115932115 l0.7988218301053234,5.043562539782988 l3.610792115932113,3.610792115932115z"/>
<path fill="#B31B1B" fill-opacity="0.37" d="m2.318271243866305,-4.549863497822502 l5.043562539782987,0.7988218301053251 l-3.610792115932114,-3.6107921159321137 l-5.043562539782987,-0.7988218301053251z"/>
<path fill="#B31B1B" fill-opacity="0.37" d="m-4.549863497822502,2.318271243866305 l0.7988218301053251,5.043562539782987 l-3.6107921159321137,-3.610792115932114 l-0.7988218301053251,-5.043562539782987z"/>
<path fill="#B31B1B" fill-opacity="0.37" d="m24.544022146599243,-26.775614400555437 l0.7988218301053251,5.043562539782982 l-3.6107921159321137,-3.6107921159321137 l-0.7988218301053251,-5.043562539782982z"/>
<path fill="#B31B1B" fill-opacity="0.37" d="m20.299281436921582,-22.530873690877776 l-3.6107921159321137,-3.6107921159321137 l5.043562539782986,0.7988218301053216 l3.6107921159321137,3.6107921159321137z"/>
<path fill="#B31B1B" fill-opacity="0.37" d="m-22.530873690877776,20.299281436921582 l-3.6107921159321137,-3.6107921159321137 l0.7988218301053216,5.043562539782986 l3.6107921159321137,3.6107921159321137z"/>
<path fill="#B31B1B" fill-opacity="0.37" d="m-26.775614400555437,24.544022146599243 l5.043562539782982,0.7988218301053251 l-3.6107921159321137,-3.6107921159321137 l-5.043562539782982,-0.7988218301053251z"/>
<path fill="#B31B1B" fill-opacity="0.37" d="m8.300905165539678,-9.680105027515594 l-0.7988218301053216,-5.0435625397829895 l3.6107921159321137,3.6107921159321172 l0.7988218301053216,5.0435625397829895z"/>
<path fill="#B31B1B" fill-opacity="0.37" d="m-9.680105027515594,8.300905165539678 l-5.0435625397829895,-0.7988218301053216 l3.6107921159321172,3.6107921159321137 l5.0435625397829895,0.7988218301053216z"/>
<path fill="#B31B1B" fill-opacity="0.9" d="m11.911697281471794,-6.069312911583479 l-3.6107921159321155,-3.6107921159321155 l-4.5498634978225,2.3182712438663042 l3.6107921159321155,3.6107921159321155z"/>
<path fill="#B31B1B" fill-opacity="0.9" d="m-6.069312911583479,11.911697281471794 l-3.6107921159321155,-3.6107921159321155 l2.3182712438663042,-4.5498634978225 l3.6107921159321155,3.6107921159321155z"/>
<path fill="#B31B1B" fill-opacity="0.9" d="m7.361833783649291,-3.751041667717179 l-2.3182712438663033,4.549863497822503 l-5.043562539782988,-0.7988218301053243 l2.3182712438663033,-4.549863497822503z"/>
<path fill="#B31B1B" fill-opacity="0.9" d="m-3.751041667717179,7.361833783649291 l4.549863497822503,-2.3182712438663033 l-0.7988218301053243,-5.043562539782988 l-4.549863497822503,2.3182712438663033z"/>
<path fill="#B31B1B" fill-opacity="0.9" d="m7.361833783649292,-3.7510416677171765 l-5.043562539782987,-0.7988218301053251 l-2.318271243866305,4.549863497822502 l5.043562539782987,0.7988218301053251z"/>
<path fill="#B31B1B" fill-opacity="0.9" d="m-3.7510416677171765,7.361833783649292 l-0.7988218301053251,-5.043562539782987 l4.549863497822502,-2.318271243866305 l0.7988218301053251,5.043562539782987z"/>
<path fill="#B31B1B" fill-opacity="0.37" d="m14.229968525338094,-10.61917640940598 l-2.3182712438663007,4.549863497822502 l-0.7988218301053234,-5.043562539782988 l2.3182712438663007,-4.549863497822502z"/>
<path fill="#B31B1B" fill-opacity="0.37" d="m-10.61917640940598,14.229968525338094 l4.549863497822502,-2.3182712438663007 l-5.043562539782988,-0.7988218301053234 l-4.549863497822502,2.3182712438663007z"/>
<path fill="#B31B1B" fill-opacity="0.9" d="m25.342843976704568,-21.732051860772454 l4.549863497822507,-2.318271243866306 l-0.7988218301053287,-5.043562539782979 l-4.549863497822507,2.318271243866306z"/>
<path fill="#B31B1B" fill-opacity="0.9" d="m25.342843976704568,-21.732051860772454 l-5.043562539782986,-0.7988218301053216 l-2.318271243866306,4.549863497822507 l5.043562539782986,0.7988218301053216z"/>
<path fill="#B31B1B" fill-opacity="0.37" d="m18.47470923501576,-14.863917119083643 l4.549863497822507,-2.318271243866308 l-5.0435625397829895,-0.798821830105318 l-4.549863497822507,2.318271243866308z"/>
<path fill="#B31B1B" fill-opacity="0.37" d="m-14.863917119083643,18.47470923501576 l-2.318271243866308,4.549863497822507 l-0.798821830105318,-5.0435625397829895 l2.318271243866308,-4.549863497822507z"/>
<path fill="#B31B1B" fill-opacity="0.9" d="m-21.732051860772454,25.342843976704568 l-0.7988218301053216,-5.043562539782986 l4.549863497822507,-2.318271243866306 l0.7988218301053216,5.043562539782986z"/>
<path fill="#B31B1B" fill-opacity="0.9" d="m-21.732051860772454,25.342843976704568 l-2.318271243866306,4.549863497822507 l-5.043562539782979,-0.7988218301053287 l2.318271243866306,-4.549863497822507z"/>
<path fill="#B31B1B" fill-opacity="0.9" d="m13.431146695232773,-15.66273894918897 l0.7988218301053216,5.0435625397829895 l5.0435625397829895,0.7988218301053251 l-0.7988218301053216,-5.0435625397829895z"/>
<path fill="#B31B1B" fill-opacity="0.9" d="m-15.66273894918897,13.431146695232773 l5.0435625397829895,0.7988218301053216 l0.7988218301053251,5.0435625397829895 l-5.0435625397829895,-0.7988218301053216z"/>
<path fill="#B31B1B" fill-opacity="0.9" d="m5.842384369888312,5.842384369888312 l-5.043562539782986,-0.7988218301053243 l-0.7988218301053256,-5.043562539782988 l5.043562539782986,0.7988218301053243z"/>
<path fill="#B31B1B" fill-opacity="0.9" d="m34.936270014310054,-23.251501274533428 l-5.043562539782979,-0.7988218301053323 l-0.7988218301053287,-5.043562539782979 l5.043562539782979,0.7988218301053323z"/>
<path fill="#B31B1B" fill-opacity="0.9" d="m-23.251501274533428,34.936270014310054 l-0.7988218301053323,-5.043562539782979 l-5.043562539782979,-0.7988218301053287 l0.7988218301053323,5.043562539782979z"/>
<path fill="#B31B1B" fill-opacity="0.9" d="m11.911697281471792,-6.069312911583484 l5.043562539782986,0.7988218301053234 l2.3182712438663025,-4.549863497822502 l-5.043562539782986,-0.7988218301053234z"/>
<path fill="#B31B1B" fill-opacity="0.9" d="m-6.069312911583484,11.911697281471792 l0.7988218301053234,5.043562539782986 l-4.549863497822502,2.3182712438663025 l-0.7988218301053234,-5.043562539782986z"/>
<path fill="#B31B1B" fill-opacity="0.9" d="m11.911697281471792,-6.069312911583484 l0.7988218301053287,5.043562539782986 l-4.549863497822503,2.318271243866306 l-0.7988218301053287,-5.043562539782986z"/>
<path fill="#B31B1B" fill-opacity="0.9" d="m-6.069312911583484,11.911697281471792 l5.043562539782986,0.7988218301053287 l2.318271243866306,-4.549863497822503 l-5.043562539782986,-0.7988218301053287z"/>
<path fill="#B31B1B" fill-opacity="0.37" d="m5.043562539782988,0.7988218301053243 l2.3182712438663033,-4.549863497822503 l0.798821830105326,5.043562539782987 l-2.3182712438663033,4.549863497822503z"/>
<path fill="#B31B1B" fill-opacity="0.37" d="m0.7988218301053243,5.043562539782988 l-4.549863497822503,2.3182712438663033 l5.043562539782987,0.798821830105326 l4.549863497822503,-2.3182712438663033z"/>
<path fill="#B31B1B" fill-opacity="0.9" d="m23.024572732838266,-17.18218836294995 l0.798821830105318,5.0435625397829895 l-4.5498634978225,2.318271243866306 l-0.798821830105318,-5.0435625397829895z"/>
<path fill="#B31B1B" fill-opacity="0.9" d="m11.911697281471794,-6.069312911583479 l2.3182712438663007,-4.549863497822502 l5.0435625397829895,0.7988218301053251 l-2.3182712438663007,4.549863497822502z"/>
<path fill="#B31B1B" fill-opacity="0.37" d="m5.043562539782988,0.7988218301053256 l0.7988218301053243,5.043562539782986 l2.318271243866305,-4.549863497822502 l-0.7988218301053243,-5.043562539782986z"/>
<path fill="#B31B1B" fill-opacity="0.37" d="m0.7988218301053256,5.043562539782988 l5.043562539782986,0.7988218301053243 l-4.549863497822502,2.318271243866305 l-5.043562539782986,-0.7988218301053243z"/>
<path fill="#B31B1B" fill-opacity="0.9" d="m-6.069312911583479,11.911697281471794 l-4.549863497822502,2.3182712438663007 l0.7988218301053251,5.0435625397829895 l4.549863497822502,-2.3182712438663007z"/>
<path fill="#B31B1B" fill-opacity="0.9" d="m-17.18218836294995,23.024572732838266 l5.0435625397829895,0.798821830105318 l2.318271243866306,-4.5498634978225 l-5.0435625397829895,-0.798821830105318z"/>
<path fill="#B31B1B" fill-opacity="0.37" d="m29.892707474527075,-24.05032310463876 l-4.549863497822507,2.318271243866306 l5.043562539782986,0.7988218301053287 l4.549863497822507,-2.318271243866306z"/>
<path fill="#B31B1B" fill-opacity="0.37" d="m-24.05032310463876,29.892707474527075 l2.318271243866306,-4.549863497822507 l0.7988218301053287,5.043562539782986 l-2.318271243866306,4.549863497822507z"/>
<path fill="#B31B1B" fill-opacity="0.37" d="m34.137448184204736,-28.295063814316418 l0.798821830105318,5.0435625397829895 l2.318271243866306,-4.5498634978225 l-0.798821830105318,-5.0435625397829895z"/>
<path fill="#B31B1B" fill-opacity="0.37" d="m-28.295063814316418,34.137448184204736 l5.0435625397829895,0.798821830105318 l-4.5498634978225,2.318271243866306 l-5.0435625397829895,-0.798821830105318z"/>
<path fill="#B31B1B" fill-opacity="0.9" d="m25.342843976704568,-21.732051860772454 l3.6107921159321172,3.6107921159321172 l-2.318271243866313,4.549863497822507 l-3.6107921159321172,-3.6107921159321172z"/>
<path fill="#B31B1B" fill-opacity="0.9" d="m-21.732051860772454,25.342843976704568 l3.6107921159321172,3.6107921159321172 l4.549863497822507,-2.318271243866313 l-3.6107921159321172,-3.6107921159321172z"/>
<path fill="#B31B1B" fill-opacity="0.37" d="m28.953636092636685,-18.121259744840337 l5.043562539782982,0.7988218301053251 l-3.6107921159321137,-3.6107921159321137 l-5.043562539782982,-0.7988218301053251z"/>
<path fill="#B31B1B" fill-opacity="0.37" d="m-18.121259744840337,28.953636092636685 l0.7988218301053251,5.043562539782982 l-3.6107921159321137,-3.6107921159321137 l-0.7988218301053251,-5.043562539782982z"/>
<path fill="#B31B1B" fill-opacity="0.37" d="m23.823394562943584,-12.138625823166969 l3.610792115932121,3.6107921159321137 l-0.7988218301053323,-5.043562539782988 l-3.610792115932121,-3.6107921159321137z"/>
<path fill="#B31B1B" fill-opacity="0.37" d="m-12.138625823166969,23.823394562943584 l3.6107921159321137,3.610792115932121 l-5.043562539782988,-0.7988218301053323 l-3.6107921159321137,-3.610792115932121z"/>
<path fill="#B31B1B" fill-opacity="0.37" d="m16.955259821254778,-5.270491081478161 l-5.043562539782986,-0.7988218301053234 l3.6107921159321172,3.6107921159321137 l5.043562539782986,0.7988218301053234z"/>
<path fill="#B31B1B" fill-opacity="0.37" d="m-5.270491081478161,16.955259821254778 l-0.7988218301053234,-5.043562539782986 l3.6107921159321137,3.6107921159321172 l0.7988218301053234,5.043562539782986z"/>
<path fill="#B31B1B" fill-opacity="0.37" d="m12.71051911157712,-1.0257503718004983 l3.6107921159321172,3.6107921159321164 l-0.7988218301053287,-5.043562539782989 l-3.6107921159321172,-3.6107921159321164z"/>
<path fill="#B31B1B" fill-opacity="0.37" d="m-1.0257503718004983,12.71051911157712 l3.6107921159321164,3.6107921159321172 l-5.043562539782989,-0.7988218301053287 l-3.6107921159321164,-3.6107921159321172z"/>
<path fill="#B31B1B" fill-opacity="0.37" d="m23.823394562943584,-12.138625823166961 l-0.798821830105318,-5.0435625397829895 l3.6107921159321066,3.610792115932121 l0.798821830105318,5.0435625397829895z"/>
<path fill="#B31B1B" fill-opacity="0.37" d="m-12.138625823166961,23.823394562943584 l-5.0435625397829895,-0.798821830105318 l3.610792115932121,3.6107921159321066 l5.0435625397829895,0.798821830105318z"/>
<path fill="#B31B1B" fill-opacity="0.9" d="m27.434186678875705,-8.527833707234855 l-3.610792115932121,-3.6107921159321137 l-4.549863497822503,2.318271243866306 l3.610792115932121,3.6107921159321137z"/>
<path fill="#B31B1B" fill-opacity="0.9" d="m-8.527833707234855,27.434186678875705 l-3.6107921159321137,-3.610792115932121 l2.318271243866306,-4.549863497822503 l3.6107921159321137,3.610792115932121z"/>
<path fill="#B31B1B" fill-opacity="0.9" d="m20.5660519371869,-1.6596989655460437 l-3.610792115932121,-3.6107921159321172 l2.3182712438663025,-4.549863497822502 l3.610792115932121,3.6107921159321172z"/>
<path fill="#B31B1B" fill-opacity="0.9" d="m-1.6596989655460437,20.5660519371869 l-3.6107921159321172,-3.610792115932121 l-4.549863497822502,2.3182712438663025 l3.6107921159321172,3.610792115932121z"/>
<path fill="#B31B1B" fill-opacity="0.9" d="m16.321311227509238,2.585041744131618 l-3.6107921159321172,-3.6107921159321164 l-4.549863497822503,2.318271243866306 l3.6107921159321172,3.6107921159321164z"/>
<path fill="#B31B1B" fill-opacity="0.9" d="m9.453176485820427,9.453176485820427 l2.3182712438663042,-4.549863497822502 l-3.6107921159321137,-3.610792115932114 l-2.3182712438663042,4.549863497822502z"/>
<path fill="#B31B1B" fill-opacity="0.9" d="m9.453176485820427,9.453176485820427 l-4.549863497822502,2.3182712438663042 l-3.610792115932114,-3.6107921159321137 l4.549863497822502,-2.3182712438663042z"/>
<path fill="#B31B1B" fill-opacity="0.9" d="m2.585041744131618,16.321311227509238 l-3.6107921159321164,-3.6107921159321172 l2.318271243866306,-4.549863497822503 l3.6107921159321164,3.6107921159321172z"/>
<path fill="#B31B1B" fill-opacity="0.9" d="m45.41519687193097,-26.508843900290117 l-4.5498634978225,2.3182712438663025 l-3.6107921159321137,-3.6107921159321137 l4.5498634978225,-2.3182712438663025z"/>
<path fill="#B31B1B" fill-opacity="0.9" d="m38.54706213024217,-19.640709158601314 l2.318271243866306,-4.5498634978225 l-3.6107921159321137,-3.6107921159321137 l-2.318271243866306,4.5498634978225z"/>
<path fill="#B31B1B" fill-opacity="0.9" d="m38.54706213024217,-19.640709158601314 l-4.5498634978225,2.3182712438663025 l-3.6107921159321137,-3.6107921159321137 l4.5498634978225,-2.3182712438663025z"/>
<path fill="#B31B1B" fill-opacity="0.9" d="m16.321311227509234,2.5850417441316216 l-4.549863497822503,2.3182712438663033 l-3.6107921159321137,-3.610792115932114 l4.549863497822503,-2.3182712438663033z"/>
<path fill="#B31B1B" fill-opacity="0.9" d="m2.5850417441316216,16.321311227509234 l2.3182712438663033,-4.549863497822503 l-3.610792115932114,-3.6107921159321137 l-2.3182712438663033,4.549863497822503z"/>
<path fill="#B31B1B" fill-opacity="0.9" d="m-19.640709158601314,38.54706213024217 l2.3182712438663025,-4.5498634978225 l-3.6107921159321137,-3.6107921159321137 l-2.3182712438663025,4.5498634978225z"/>
<path fill="#B31B1B" fill-opacity="0.9" d="m-19.640709158601314,38.54706213024217 l-4.5498634978225,2.318271243866306 l-3.6107921159321137,-3.6107921159321137 l4.5498634978225,-2.318271243866306z"/>
<path fill="#B31B1B" fill-opacity="0.9" d="m-26.508843900290117,45.41519687193097 l2.3182712438663025,-4.5498634978225 l-3.6107921159321137,-3.6107921159321137 l-2.3182712438663025,4.5498634978225z"/>
<path fill="#B31B1B" fill-opacity="0.9" d="m33.99719863241967,-17.322437914735016 l-2.318271243866306,4.549863497822496 l-5.0435625397829895,-0.7988218301053234 l2.318271243866306,-4.549863497822496z"/>
<path fill="#B31B1B" fill-opacity="0.9" d="m-17.322437914735016,33.99719863241967 l4.549863497822496,-2.318271243866306 l-0.7988218301053234,-5.0435625397829895 l-4.549863497822496,2.318271243866306z"/>
<path fill="#B31B1B" fill-opacity="0.9" d="m33.99719863241967,-17.322437914735012 l-5.043562539782982,-0.7988218301053251 l-2.318271243866313,4.549863497822507 l5.043562539782982,0.7988218301053251z"/>
<path fill="#B31B1B" fill-opacity="0.9" d="m-17.322437914735012,33.99719863241967 l-0.7988218301053251,-5.043562539782982 l4.549863497822507,-2.318271243866313 l0.7988218301053251,5.043562539782982z"/>
<path fill="#B31B1B" fill-opacity="0.9" d="m32.477749218658694,-7.7290118771295315 l-0.7988218301053323,-5.043562539782988 l-5.0435625397829895,-0.7988218301053234 l0.7988218301053323,5.043562539782988z"/>
<path fill="#B31B1B" fill-opacity="0.9" d="m-7.7290118771295315,32.477749218658694 l-5.043562539782988,-0.7988218301053323 l-0.7988218301053234,-5.0435625397829895 l5.043562539782988,0.7988218301053323z"/>
<path fill="#B31B1B" fill-opacity="0.37" d="m22.884323181053198,-6.209562463368551 l4.549863497822507,-2.3182712438663042 l-2.318271243866306,4.549863497822502 l-4.549863497822507,2.3182712438663042z"/>
<path fill="#B31B1B" fill-opacity="0.37" d="m-6.209562463368551,22.884323181053198 l-2.3182712438663042,4.549863497822507 l4.549863497822502,-2.318271243866306 l2.3182712438663042,-4.549863497822507z"/>
<path fill="#B31B1B" fill-opacity="0.9" d="m21.364873767292224,3.3838635742369405 l-5.043562539782986,-0.7988218301053225 l-0.7988218301053287,-5.043562539782989 l5.043562539782986,0.7988218301053225z"/>
<path fill="#B31B1B" fill-opacity="0.9" d="m3.3838635742369405,21.364873767292224 l-0.7988218301053225,-5.043562539782986 l-5.043562539782989,-0.7988218301053287 l0.7988218301053225,5.043562539782986z"/>
<path fill="#B31B1B" fill-opacity="0.37" d="m40.865333374108474,-24.190572656423814 l4.5498634978225,-2.3182712438663025 l-2.318271243866306,4.5498634978225 l-4.5498634978225,2.3182712438663025z"/>
<path fill="#B31B1B" fill-opacity="0.37" d="m11.77144772968673,4.903312987997925 l4.549863497822503,-2.3182712438663033 l-2.3182712438663042,4.5498634978225025 l-4.549863497822503,2.3182712438663033z"/>
<path fill="#B31B1B" fill-opacity="0.37" d="m4.903312987997925,11.77144772968673 l-2.3182712438663033,4.549863497822503 l4.5498634978225025,-2.3182712438663042 l2.3182712438663033,-4.549863497822503z"/>
<path fill="#B31B1B" fill-opacity="0.37" d="m-24.190572656423814,40.865333374108474 l-2.3182712438663025,4.5498634978225 l4.5498634978225,-2.318271243866306 l2.3182712438663025,-4.5498634978225z"/>
<path fill="#B31B1B" fill-opacity="0.9" d="m38.54706213024217,-19.64070915860133 l-4.5498634978225,2.318271243866313 l0.7988218301053251,5.043562539782981 l4.5498634978225,-2.318271243866313z"/>
<path fill="#B31B1B" fill-opacity="0.37" d="m31.67892738855336,-12.77257441691252 l2.318271243866306,-4.549863497822496 l0.7988218301053251,5.043562539782981 l-2.318271243866306,4.549863497822496z"/>
<path fill="#B31B1B" fill-opacity="0.37" d="m-12.77257441691252,31.67892738855336 l-4.549863497822496,2.318271243866306 l5.043562539782981,0.7988218301053251 l4.549863497822496,-2.318271243866306z"/>
<path fill="#B31B1B" fill-opacity="0.9" d="m-19.64070915860133,38.54706213024217 l2.318271243866313,-4.5498634978225 l5.043562539782981,0.7988218301053251 l-2.318271243866313,4.5498634978225z"/>
<path fill="#B31B1B" fill-opacity="0.9" d="m50.458759411713956,-25.710022070184806 l-2.318271243866292,4.549863497822496 l-5.043562539782997,-0.7988218301053216 l2.318271243866292,-4.549863497822496z"/>
<path fill="#B31B1B" fill-opacity="0.9" d="m-25.710022070184806,50.458759411713956 l4.549863497822496,-2.318271243866292 l-0.7988218301053216,-5.043562539782997 l-4.549863497822496,2.318271243866292z"/>
<path fill="#B31B1B" fill-opacity="0.37" d="m43.59062467002516,-18.841887328496 l4.549863497822507,-2.3182712438663096 l-5.043562539782997,-0.7988218301053216 l-4.549863497822507,2.3182712438663096z"/>
<path fill="#B31B1B" fill-opacity="0.37" d="m-18.841887328496,43.59062467002516 l-2.3182712438663096,4.549863497822507 l-0.7988218301053216,-5.043562539782997 l2.3182712438663096,-4.549863497822507z"/>
<path fill="#B31B1B" fill-opacity="0.9" d="m32.477749218658694,-7.7290118771295315 l-2.318271243866306,4.5498634978225 l-5.0435625397829895,-0.7988218301053216 l2.318271243866306,-4.5498634978225z"/>
<path fill="#B31B1B" fill-opacity="0.9" d="m21.364873767292224,3.3838635742369405 l4.549863497822496,-2.318271243866306 l-0.7988218301053216,-5.043562539782988 l-4.549863497822496,2.318271243866306z"/>
<path fill="#B31B1B" fill-opacity="0.9" d="m3.3838635742369405,21.364873767292224 l-2.318271243866306,4.549863497822496 l-5.043562539782988,-0.7988218301053216 l2.318271243866306,-4.549863497822496z"/>
<path fill="#B31B1B" fill-opacity="0.9" d="m-7.7290118771295315,32.477749218658694 l4.5498634978225,-2.318271243866306 l-0.7988218301053216,-5.0435625397829895 l-4.5498634978225,2.318271243866306z"/>
<path fill="#B31B1B" fill-opacity="0.9" d="m50.45875941171397,-25.710022070184795 l-5.043562539782997,-0.7988218301053216 l-2.318271243866306,4.5498634978225 l5.043562539782997,0.7988218301053216z"/>
<path fill="#B31B1B" fill-opacity="0.9" d="m21.364873767292224,3.3838635742369476 l-5.0435625397829895,-0.798821830105326 l-2.3182712438663042,4.5498634978225025 l5.0435625397829895,0.798821830105326z"/>
<path fill="#B31B1B" fill-opacity="0.37" d="m14.496739025603414,10.25199831592575 l-5.043562539782988,-0.7988218301053234 l4.549863497822503,-2.3182712438663025 l5.043562539782988,0.7988218301053234z"/>
<path fill="#B31B1B" fill-opacity="0.37" d="m10.25199831592575,14.496739025603414 l-0.7988218301053234,-5.043562539782988 l-2.3182712438663025,4.549863497822503 l0.7988218301053234,5.043562539782988z"/>
<path fill="#B31B1B" fill-opacity="0.9" d="m3.3838635742369476,21.364873767292224 l-0.798821830105326,-5.0435625397829895 l4.5498634978225025,-2.3182712438663042 l0.798821830105326,5.0435625397829895z"/>
<path fill="#B31B1B" fill-opacity="0.9" d="m-25.710022070184795,50.45875941171397 l-0.7988218301053216,-5.043562539782997 l4.5498634978225,-2.318271243866306 l0.7988218301053216,5.043562539782997z"/>
<path fill="#B31B1B" fill-opacity="0.9" d="m38.54706213024217,-19.64070915860133 l5.0435625397829895,0.7988218301053287 l0.7988218301053251,5.043562539782984 l-5.0435625397829895,-0.7988218301053287z"/>
<path fill="#B31B1B" fill-opacity="0.37" d="m37.027612716481194,-10.047283120995838 l-4.5498634978225,2.318271243866306 l2.318271243866299,-4.549863497822503 l4.5498634978225,-2.318271243866306z"/>
<path fill="#B31B1B" fill-opacity="0.37" d="m-10.047283120995838,37.027612716481194 l2.318271243866306,-4.5498634978225 l-4.549863497822503,2.318271243866299 l-2.318271243866306,4.5498634978225z"/>
<path fill="#B31B1B" fill-opacity="0.9" d="m-19.64070915860133,38.54706213024217 l0.7988218301053287,5.0435625397829895 l5.043562539782984,0.7988218301053251 l-0.7988218301053287,-5.0435625397829895z"/>
<path fill="#B31B1B" fill-opacity="0.9" d="m9.453176485820427,9.453176485820427 l0.7988218301053234,5.043562539782988 l5.043562539782986,0.7988218301053216 l-0.7988218301053234,-5.043562539782988z"/>
<path fill="#B31B1B" fill-opacity="0.9" d="m30.958299804897713,1.8644141604759596 l-0.7988218301053251,-5.043562539782991 l-5.0435625397829895,-0.7988218301053216 l0.7988218301053251,5.043562539782991z"/>
<path fill="#B31B1B" fill-opacity="0.9" d="m1.8644141604759596,30.958299804897713 l-5.043562539782991,-0.7988218301053251 l-0.7988218301053216,-5.0435625397829895 l5.043562539782991,0.7988218301053251z"/>
<path fill="#B31B1B" fill-opacity="0.9" d="m48.140488167847664,-21.16015857236231 l-4.549863497822507,2.3182712438663096 l0.7988218301053251,5.043562539782984 l4.549863497822507,-2.3182712438663096z"/>
<path fill="#B31B1B" fill-opacity="0.9" d="m-21.16015857236231,48.140488167847664 l2.3182712438663096,-4.549863497822507 l5.043562539782984,0.7988218301053251 l-2.3182712438663096,4.549863497822507z"/>
<path fill="#B31B1B" fill-opacity="0.37" d="m30.159477974792388,-3.1791483793070316 l0.7988218301053251,5.043562539782991 l2.318271243866299,-4.549863497822503 l-0.7988218301053251,-5.043562539782991z"/>
<path fill="#B31B1B" fill-opacity="0.37" d="m25.91473726511472,1.0655923303706345 l5.043562539782993,0.7988218301053251 l-4.549863497822507,2.3182712438663042 l-5.043562539782993,-0.7988218301053251z"/>
<path fill="#B31B1B" fill-opacity="0.37" d="m1.0655923303706345,25.91473726511472 l0.7988218301053251,5.043562539782993 l2.3182712438663042,-4.549863497822507 l-0.7988218301053251,-5.043562539782993z"/>
<path fill="#B31B1B" fill-opacity="0.37" d="m-3.1791483793070316,30.159477974792388 l5.043562539782991,0.7988218301053251 l-4.549863497822503,2.318271243866299 l-5.043562539782991,-0.7988218301053251z"/>
<path fill="#B31B1B" fill-opacity="0.9" d="m19.046602523425918,7.9337270720594475 l-4.549863497822503,2.3182712438663025 l0.7988218301053216,5.043562539782986 l4.549863497822503,-2.3182712438663025z"/>
<path fill="#B31B1B" fill-opacity="0.9" d="m7.9337270720594475,19.046602523425918 l2.3182712438663025,-4.549863497822503 l5.043562539782986,0.7988218301053216 l-2.3182712438663025,4.549863497822503z"/>
<path fill="#B31B1B" fill-opacity="0.9" d="m39.34588396034749,-14.597146618818341 l-2.318271243866299,4.549863497822503 l3.6107921159321137,3.6107921159321155 l2.318271243866299,-4.549863497822503z"/>
<path fill="#B31B1B" fill-opacity="0.9" d="m-14.597146618818341,39.34588396034749 l4.549863497822503,-2.318271243866299 l3.6107921159321155,3.6107921159321137 l-4.549863497822503,2.318271243866299z"/>
<path fill="#B31B1B" fill-opacity="0.9" d="m32.477749218658694,-7.7290118771295315 l4.5498634978225,-2.318271243866306 l3.6107921159321137,3.6107921159321155 l-4.5498634978225,2.318271243866306z"/>
<path fill="#B31B1B" fill-opacity="0.9" d="m-7.7290118771295315,32.477749218658694 l-2.318271243866306,4.5498634978225 l3.6107921159321155,3.6107921159321137 l2.318271243866306,-4.5498634978225z"/>
<path fill="#B31B1B" fill-opacity="0.9" d="m21.364873767292224,3.3838635742369476 l3.6107921159321137,3.6107921159321155 l-2.318271243866313,4.549863497822496 l-3.6107921159321137,-3.6107921159321155z"/>
<path fill="#B31B1B" fill-opacity="0.9" d="m3.3838635742369476,21.364873767292224 l3.6107921159321155,3.6107921159321137 l4.549863497822496,-2.318271243866313 l-3.6107921159321155,-3.6107921159321137z"/>
<path fill="#B31B1B" fill-opacity="0.37" d="m42.95667607627961,-10.986354502886226 l-3.6107921159321137,-3.6107921159321155 l5.0435625397829895,0.7988218301053251 l3.6107921159321137,3.6107921159321155z"/>
<path fill="#B31B1B" fill-opacity="0.37" d="m-10.986354502886226,42.95667607627961 l-3.6107921159321155,-3.6107921159321137 l0.7988218301053251,5.0435625397829895 l3.6107921159321155,3.6107921159321137z"/>
<path fill="#B31B1B" fill-opacity="0.37" d="m36.08854133459081,-4.118219761197418 l-3.6107921159321137,-3.6107921159321137 l0.798821830105318,5.043562539782988 l3.6107921159321137,3.6107921159321137z"/>
<path fill="#B31B1B" fill-opacity="0.37" d="m-4.118219761197418,36.08854133459081 l-3.6107921159321137,-3.6107921159321137 l5.043562539782988,0.798821830105318 l3.6107921159321137,3.6107921159321137z"/>
<path fill="#B31B1B" fill-opacity="0.37" d="m24.975665883224337,6.994655690169063 l5.043562539782982,0.7988218301053216 l-3.61079211593211,-3.610792115932112 l-5.043562539782982,-0.7988218301053216z"/>
<path fill="#B31B1B" fill-opacity="0.37" d="m6.994655690169063,24.975665883224337 l0.7988218301053216,5.043562539782982 l-3.610792115932112,-3.61079211593211 l-0.7988218301053216,-5.043562539782982z"/>
<path fill="#B31B1B" fill-opacity="0.37" d="m19.84542435353124,12.977289611842433 l3.6107921159321172,3.6107921159321172 l-0.7988218301053323,-5.043562539782991 l-3.6107921159321172,-3.6107921159321172z"/>
<path fill="#B31B1B" fill-opacity="0.37" d="m12.977289611842433,19.84542435353124 l3.6107921159321172,3.6107921159321172 l-5.043562539782991,-0.7988218301053323 l-3.6107921159321172,-3.6107921159321172z"/>
<path fill="#B31B1B" fill-opacity="0.9" d="m34.56909192082982,5.47520627640807 l2.318271243866306,-4.5498634978225 l-3.6107921159321137,-3.6107921159321137 l-2.318271243866306,4.5498634978225z"/>
<path fill="#B31B1B" fill-opacity="0.9" d="m34.56909192082982,5.47520627640807 l-3.6107921159321066,-3.61079211593211 l-4.549863497822507,2.3182712438663042 l3.6107921159321066,3.61079211593211z"/>
<path fill="#B31B1B" fill-opacity="0.9" d="m5.47520627640807,34.56909192082982 l-3.61079211593211,-3.6107921159321066 l2.3182712438663042,-4.549863497822507 l3.61079211593211,3.6107921159321066z"/>
<path fill="#B31B1B" fill-opacity="0.9" d="m5.47520627640807,34.56909192082982 l-4.5498634978225,2.318271243866306 l-3.6107921159321137,-3.6107921159321137 l4.5498634978225,-2.318271243866306z"/>
<path fill="#B31B1B" fill-opacity="0.9" d="m23.456216469463357,16.58808172777455 l-4.549863497822503,2.3182712438663025 l-3.6107921159321172,-3.6107921159321172 l4.549863497822503,-2.3182712438663025z"/>
<path fill="#B31B1B" fill-opacity="0.9" d="m16.58808172777455,23.456216469463357 l2.3182712438663025,-4.549863497822503 l-3.6107921159321172,-3.6107921159321172 l-2.3182712438663025,4.549863497822503z"/>
<path fill="#B31B1B" fill-opacity="0.9" d="m34.56909192082983,5.475206276408082 l-4.549863497822507,2.3182712438663025 l-3.61079211593211,-3.610792115932112 l4.549863497822507,-2.3182712438663025z"/>
<path fill="#B31B1B" fill-opacity="0.9" d="m5.475206276408082,34.56909192082983 l2.3182712438663025,-4.549863497822507 l-3.610792115932112,-3.61079211593211 l-2.3182712438663025,4.549863497822507z"/>
<path fill="#B31B1B" fill-opacity="0.9" d="m36.887363164696126,0.9253427785855699 l-0.798821830105318,-5.043562539782988 l4.5498634978225,-2.3182712438663042 l0.798821830105318,5.043562539782988z"/>
<path fill="#B31B1B" fill-opacity="0.9" d="m0.9253427785855699,36.887363164696126 l-5.043562539782988,-0.798821830105318 l-2.3182712438663042,4.5498634978225 l5.043562539782988,0.798821830105318z"/>
<path fill="#B31B1B" fill-opacity="0.9" d="m30.01922842300732,7.793477520274385 l-2.3182712438663025,4.549863497822505 l-5.043562539782993,-0.7988218301053305 l2.3182712438663025,-4.549863497822505z"/>
<path fill="#B31B1B" fill-opacity="0.9" d="m7.793477520274385,30.01922842300732 l4.549863497822505,-2.3182712438663025 l-0.7988218301053305,-5.043562539782993 l-4.549863497822505,2.3182712438663025z"/>
<path fill="#B31B1B" fill-opacity="0.9" d="m28.499779009246346,17.386903557879876 l-0.7988218301053287,-5.043562539782986 l-5.043562539782993,-0.7988218301053305 l0.7988218301053287,5.043562539782986z"/>
<path fill="#B31B1B" fill-opacity="0.37" d="m18.906352971640853,18.906352971640853 l-2.3182712438663025,4.549863497822503 l4.5498634978225,-2.318271243866306 l2.3182712438663025,-4.549863497822503z"/>
<path fill="#B31B1B" fill-opacity="0.9" d="m17.386903557879876,28.499779009246346 l-5.043562539782986,-0.7988218301053287 l-0.7988218301053305,-5.043562539782993 l5.043562539782986,0.7988218301053287z"/>
<path fill="#B31B1B" fill-opacity="0.9" d="m34.56909192082983,5.475206276408082 l0.7988218301053251,5.043562539782986 l-4.549863497822503,2.3182712438663042 l-0.7988218301053251,-5.043562539782986z"/>
<path fill="#B31B1B" fill-opacity="0.37" d="m27.700957179141017,12.34334101809689 l2.3182712438663025,-4.549863497822505 l0.7988218301053287,5.043562539782988 l-2.3182712438663025,4.549863497822505z"/>
<path fill="#B31B1B" fill-opacity="0.37" d="m12.34334101809689,27.700957179141017 l-4.549863497822505,2.3182712438663025 l5.043562539782988,0.7988218301053287 l4.549863497822505,-2.3182712438663025z"/>
<path fill="#B31B1B" fill-opacity="0.9" d="m5.475206276408082,34.56909192082983 l5.043562539782986,0.7988218301053251 l2.3182712438663042,-4.549863497822503 l-5.043562539782986,-0.7988218301053251z"/>
<path fill="#B31B1B" fill-opacity="0.9" d="m28.499779009246346,17.386903557879876 l-2.3182712438663025,4.549863497822503 l-5.043562539782993,-0.7988218301053287 l2.3182712438663025,-4.549863497822503z"/>
<path fill="#B31B1B" fill-opacity="0.9" d="m17.386903557879876,28.499779009246346 l4.549863497822503,-2.3182712438663025 l-0.7988218301053287,-5.043562539782993 l-4.549863497822503,2.3182712438663025z"/>
<path fill="#B31B1B" fill-opacity="0.37" d="m33.049642507068846,15.06863231401357 l-4.5498634978225,2.318271243866306 l2.3182712438663025,-4.549863497822503 l4.5498634978225,-2.318271243866306z"/>
<path fill="#B31B1B" fill-opacity="0.37" d="m15.06863231401357,33.049642507068846 l2.318271243866306,-4.5498634978225 l-4.549863497822503,2.3182712438663025 l-2.318271243866306,4.5498634978225z"/>
<path fill="#B31B1B" fill-opacity="0.9" d="m26.980329595485365,26.980329595485365 l-5.043562539782986,-0.7988218301053216 l-0.7988218301053287,-5.043562539782993 l5.043562539782986,0.7988218301053216z"/>
<path fill="#B31B1B" fill-opacity="0.37" d="m26.181507765380044,21.93676705570238 l0.7988218301053216,5.043562539782986 l2.3182712438663096,-4.549863497822496 l-0.7988218301053216,-5.043562539782986z"/>
<path fill="#B31B1B" fill-opacity="0.37" d="m21.93676705570238,26.181507765380044 l5.043562539782986,0.7988218301053216 l-4.549863497822496,2.3182712438663096 l-5.043562539782986,-0.7988218301053216z"/>
<path fill="#B31B1B" fill-opacity="0.9" d="m35.36791375093515,10.518768816191068 l-2.318271243866306,4.549863497822502 l3.610792115932121,3.6107921159321172 l2.318271243866306,-4.549863497822502z"/>
<path fill="#B31B1B" fill-opacity="0.9" d="m28.499779009246346,17.386903557879876 l3.610792115932121,3.6107921159321172 l4.5498634978225,-2.318271243866306 l-3.610792115932121,-3.6107921159321172z"/>
<path fill="#B31B1B" fill-opacity="0.9" d="m17.386903557879876,28.499779009246346 l3.6107921159321172,3.610792115932121 l-2.318271243866306,4.5498634978225 l-3.6107921159321172,-3.610792115932121z"/>
<path fill="#B31B1B" fill-opacity="0.9" d="m10.518768816191068,35.36791375093515 l4.549863497822502,-2.318271243866306 l3.6107921159321172,3.610792115932121 l-4.549863497822502,2.318271243866306z"/>
<path fill="#B31B1B" fill-opacity="0.37" d="m32.11057112517847,20.997695673811993 l-3.610792115932121,-3.6107921159321172 l0.7988218301053287,5.043562539782993 l3.610792115932121,3.6107921159321172z"/>
<path fill="#B31B1B" fill-opacity="0.37" d="m20.997695673811993,32.11057112517847 l-3.6107921159321172,-3.610792115932121 l5.043562539782993,0.7988218301053287 l3.6107921159321172,3.610792115932121z"/>
<path fill="#B31B1B" fill-opacity="0.9" d="m30.591121711417482,30.591121711417482 l-3.6107921159321172,-3.6107921159321172 l2.3182712438663096,-4.549863497822496 l3.6107921159321172,3.6107921159321172z"/>
<path fill="#B31B1B" fill-opacity="0.9" d="m30.591121711417482,30.591121711417482 l-3.6107921159321172,-3.6107921159321172 l-4.549863497822496,2.3182712438663096 l3.6107921159321172,3.6107921159321172z"/>
<path fill="#B31B1B" fill-opacity="0.9" d="m32.909392955283785,26.04125821359498 l-0.798821830105318,-5.043562539782986 l4.5498634978225,-2.318271243866306 l0.798821830105318,5.043562539782986z"/>
<path fill="#B31B1B" fill-opacity="0.9" d="m26.04125821359498,32.909392955283785 l-5.043562539782986,-0.798821830105318 l-2.318271243866306,4.5498634978225 l5.043562539782986,0.798821830105318z"/>
<path fill="#B31B1B" fill-opacity="0.37" d="m37.45925645310629,23.722986969728677 l-4.549863497822507,2.3182712438663025 l5.0435625397829895,0.7988218301053216 l4.549863497822507,-2.3182712438663025z"/>
<path fill="#B31B1B" fill-opacity="0.9" d="m30.591121711417482,30.591121711417482 l5.043562539782979,0.798821830105318 l2.318271243866313,-4.5498634978225 l-5.043562539782979,-0.798821830105318z"/>
<path fill="#B31B1B" fill-opacity="0.9" d="m30.591121711417482,30.591121711417482 l0.798821830105318,5.043562539782979 l-4.5498634978225,2.318271243866313 l-0.798821830105318,-5.043562539782979z"/>
<path fill="#B31B1B" fill-opacity="0.37" d="m23.722986969728677,37.45925645310629 l2.3182712438663025,-4.549863497822507 l0.7988218301053216,5.0435625397829895 l-2.3182712438663025,4.549863497822507z"/>
<path fill="#B31B1B" fill-opacity="0.37" d="m35.63468425120046,31.3899435415228 l3.6107921159321137,3.6107921159321172 l-5.043562539782982,-0.7988218301053251 l-3.6107921159321137,-3.6107921159321172z"/>
<path fill="#B31B1B" fill-opacity="0.37" d="m31.3899435415228,35.63468425120046 l3.6107921159321172,3.6107921159321137 l-0.7988218301053251,-5.043562539782982 l-3.6107921159321172,-3.6107921159321137z"/>
<path fill="#B31B1B" fill-opacity="0.9" d="m39.245476367132575,35.00073565745492 l-3.6107921159321137,-3.6107921159321172 l2.318271243866313,-4.5498634978225 l3.6107921159321137,3.6107921159321172z"/>
<path fill="#B31B1B" fill-opacity="0.9" d="m35.00073565745492,39.245476367132575 l-3.6107921159321172,-3.6107921159321137 l-4.5498634978225,2.318271243866313 l3.6107921159321172,3.6107921159321137z"/>
<path fill="#B31B1B" fill-opacity="0.9" d="m40.04429819723791,40.04429819723791 l-5.0435625397829895,-0.7988218301053323 l-0.7988218301053251,-5.043562539782982 l5.0435625397829895,0.7988218301053323z"/>
</g>
</svg>