<?xml version="1.0" encoding="utf-8"?>
<svg width="100%" height="100%" viewBox="-70.0 -70.0 140.0 140.0" preserveAspectRatio="xMidYMid meet" version="1.1" baseProfile="full" xmlns="http://www.w3.org/2000/svg">
<g style="stroke:#FFFFFF; stroke-width: 1.2978713763747793; stroke-linejoin: round;">
<path fill="#B31B1B" fill-opacity="0.37" d="m-17.500000000000004,-12.714494240093819 l6.684405196876842,-20.572483830236557 l-17.5,12.714494240093813 l-6.684405196876842,20.572483830236557z"/>
<path fill="#B31B1B" fill-opacity="0.37" d="m-17.500000000000004,12.714494240093819 l6.684405196876842,20.572483830236557 l-17.5,-12.714494240093813 l-6.684405196876842,-20.572483830236557z"/>
<path fill="#B31B1B" fill-opacity="0.9" d="m-35.0,-0.0 l17.499999999999996,12.714494240093819 l17.500000000000004,-12.714494240093819 l-17.499999999999996,-12.714494240093819z"/>
<path fill="#B31B1B" fill-opacity="0.9" d="m-10.815594803123162,-33.28697807033038 l17.500000000000004,12.714494240093813 l-6.684405196876841,20.572483830236564 l-17.500000000000004,-12.714494240093813z"/>
<path fill="#B31B1B" fill-opacity="0.9" d="m-10.815594803123162,33.28697807033038 l17.500000000000004,-12.714494240093813 l-6.684405196876841,-20.572483830236564 l-17.500000000000004,12.714494240093813z"/>
<path fill="#B31B1B" fill-opacity="0.37" d="m6.684405196876841,-20.572483830236564 l21.63118960624632,3.552713678800501e-15 l-17.5,-12.714494240093817 l-21.63118960624632,-3.552713678800501e-15z"/>
<path fill="#B31B1B" fill-opacity="0.37" d="m6.684405196876841,20.572483830236564 l21.63118960624632,-3.552713678800501e-15 l-17.5,12.714494240093817 l-21.63118960624632,3.552713678800501e-15z"/>
<path fill="#B31B1B" fill-opacity="0.9" d="m28.31559480312316,-20.57248383023656 l-6.684405196876838,20.57248383023656 l-21.631189606246323,0.0 l6.684405196876838,-20.57248383023656z"/>
<path fill="#B31B1B" fill-opacity="0.9" d="m28.31559480312316,20.57248383023656 l-6.684405196876838,-20.57248383023656 l-21.631189606246323,0.0 l6.684405196876838,20.57248383023656z"/>
<path fill="#B31B1B" fill-opacity="0.37" d="m21.631189606246323,0.0 l6.684405196876838,20.57248383023656 l6.684405196876838,-20.57248383023656 l-6.684405196876838,-20.57248383023656z"/>
</g>
</svg>