<?xml version="1.0" encoding="utf-8"?>
<svg width="100%" height="100%" viewBox="-70.0 -70.0 140.0 140.0" preserveAspectRatio="xMidYMid meet" version="1.1" baseProfile="full" xmlns="http://www.w3.org/2000/svg">
<g style="stroke:#FFFFFF; stroke-width: 0.802128623625221; stroke-linejoin: round;">
<path fill="#B31B1B" fill-opacity="0.9" d="m-28.31559480312316,-20.572483830236564 l4.13118960624632,12.714494240093817 l-10.815594803123158,7.857989590142747 l-4.13118960624632,-12.714494240093817z"/>
<path fill="#B31B1B" fill-opacity="0.9" d="m-28.31559480312316,20.572483830236564 l4.13118960624632,-12.714494240093817 l-10.815594803123158,-7.857989590142747 l-4.13118960624632,12.714494240093817z"/>
<path fill="#B31B1B" fill-opacity="0.9" d="m-13.368810393753678,0.0 l-10.815594803123163,7.857989590142747 l-10.815594803123158,-7.857989590142747 l10.815594803123163,-7.857989590142747z"/>
<path fill="#B31B1B" fill-opacity="0.37" d="m-24.184405196876842,-7.857989590142747 l-4.13118960624632,-12.714494240093817 l10.815594803123158,7.857989590142745 l4.13118960624632,12.714494240093817z"/>
<path fill="#B31B1B" fill-opacity="0.37" d="m-24.184405196876842,7.857989590142747 l-4.13118960624632,12.714494240093817 l10.815594803123158,-7.857989590142745 l4.13118960624632,-12.714494240093817z"/>
<path fill="#B31B1B" fill-opacity="0.9" d="m-28.31559480312316,-20.572483830236564 l13.368810393753678,0.0 l4.131189606246322,-12.714494240093813 l-13.368810393753678,-0.0z"/>
<path fill="#B31B1B" fill-opacity="0.9" d="m-28.31559480312316,20.572483830236564 l13.368810393753678,0.0 l4.131189606246322,12.714494240093813 l-13.368810393753678,-0.0z"/>
<path fill="#B31B1B" fill-opacity="0.37" d="m-14.946784409369483,-20.572483830236564 l-13.368810393753678,0.0 l10.815594803123158,7.857989590142745 l13.368810393753678,-0.0z"/>
<path fill="#B31B1B" fill-opacity="0.37" d="m-14.946784409369483,20.572483830236564 l-13.368810393753678,0.0 l10.815594803123158,-7.857989590142745 l13.368810393753678,-0.0z"/>
<path fill="#B31B1B" fill-opacity="0.9" d="m0.0,-0.0 l-4.13118960624632,-12.714494240093815 l-13.368810393753684,-3.552713678800501e-15 l4.13118960624632,12.714494240093815z"/>
<path fill="#B31B1B" fill-opacity="0.9" d="m0.0,0.0 l-4.13118960624632,12.714494240093815 l-13.368810393753684,3.552713678800501e-15 l4.13118960624632,-12.714494240093815z"/>
<path fill="#B31B1B" fill-opacity="0.9" d="m-4.13118960624632,-12.714494240093815 l4.131189606246321,-12.714494240093819 l-10.815594803123162,-7.8579895901427435 l-4.131189606246321,12.714494240093819z"/>
<path fill="#B31B1B" fill-opacity="0.9" d="m-4.13118960624632,12.714494240093815 l4.131189606246321,12.714494240093819 l-10.815594803123162,7.8579895901427435 l-4.131189606246321,-12.714494240093819z"/>
<path fill="#B31B1B" fill-opacity="0.9" d="m10.81559480312316,-33.28697807033038 l-10.815594803123158,7.8579895901427435 l-10.815594803123162,-7.8579895901427435 l10.815594803123158,-7.8579895901427435z"/>
<path fill="#B31B1B" fill-opacity="0.9" d="m10.81559480312316,33.28697807033038 l-10.815594803123158,-7.8579895901427435 l-10.815594803123162,7.8579895901427435 l10.815594803123158,7.8579895901427435z"/>
<path fill="#B31B1B" fill-opacity="0.9" d="m0.0,-0.0 l10.815594803123158,-7.8579895901427435 l-4.131189606246317,-12.71449424009382 l-10.815594803123158,7.8579895901427435z"/>
<path fill="#B31B1B" fill-opacity="0.9" d="m0.0,0.0 l10.815594803123158,7.8579895901427435 l-4.131189606246317,12.71449424009382 l-10.815594803123158,-7.8579895901427435z"/>
<path fill="#B31B1B" fill-opacity="0.37" d="m8.881784197001252e-16,-25.428988480187634 l10.815594803123158,-7.8579895901427435 l-4.131189606246319,12.714494240093813 l-10.815594803123158,7.8579895901427435z"/>
<path fill="#B31B1B" fill-opacity="0.37" d="m8.881784197001252e-16,25.428988480187634 l10.815594803123158,7.8579895901427435 l-4.131189606246319,-12.714494240093813 l-10.815594803123158,-7.8579895901427435z"/>
<path fill="#B31B1B" fill-opacity="0.37" d="m14.946784409369478,-20.572483830236564 l-4.131189606246318,-12.714494240093813 l-4.131189606246319,12.714494240093813 l4.131189606246318,12.714494240093813z"/>
<path fill="#B31B1B" fill-opacity="0.37" d="m14.946784409369478,20.572483830236564 l-4.131189606246318,12.714494240093813 l-4.131189606246319,-12.714494240093813 l4.131189606246318,-12.714494240093813z"/>
<path fill="#B31B1B" fill-opacity="0.9" d="m0.0,0.0 l10.815594803123158,7.8579895901427435 l10.815594803123165,-7.8579895901427435 l-10.815594803123158,-7.8579895901427435z"/>
<path fill="#B31B1B" fill-opacity="0.9" d="m10.81559480312316,-33.28697807033038 l4.131189606246318,12.714494240093813 l13.368810393753684,3.552713678800501e-15 l-4.131189606246318,-12.714494240093813z"/>
<path fill="#B31B1B" fill-opacity="0.9" d="m10.815594803123158,-7.8579895901427435 l13.368810393753684,0.0 l4.13118960624632,-12.714494240093817 l-13.368810393753684,-0.0z"/>
<path fill="#B31B1B" fill-opacity="0.9" d="m10.815594803123158,7.8579895901427435 l13.368810393753684,0.0 l4.13118960624632,12.714494240093817 l-13.368810393753684,-0.0z"/>
<path fill="#B31B1B" fill-opacity="0.9" d="m10.81559480312316,33.28697807033038 l4.131189606246318,-12.714494240093813 l13.368810393753684,-3.552713678800501e-15 l-4.131189606246318,12.714494240093813z"/>
<path fill="#B31B1B" fill-opacity="0.37" d="m24.184405196876842,-7.8579895901427435 l10.815594803123158,7.8579895901427435 l-13.368810393753677,0.0 l-10.815594803123158,-7.8579895901427435z"/>
<path fill="#B31B1B" fill-opacity="0.37" d="m24.184405196876842,7.8579895901427435 l10.815594803123158,-7.8579895901427435 l-13.368810393753677,0.0 l-10.815594803123158,7.8579895901427435z"/>
<path fill="#B31B1B" fill-opacity="0.9" d="m35.0,-0.0 l-10.815594803123158,-7.8579895901427435 l4.13118960624632,-12.714494240093817 l10.815594803123158,7.8579895901427435z"/>
<path fill="#B31B1B" fill-opacity="0.9" d="m35.0,0.0 l-10.815594803123158,7.8579895901427435 l4.13118960624632,12.714494240093817 l10.815594803123158,-7.8579895901427435z"/>
</g>
</svg>