<?xml version="1.0" encoding="utf-8"?>
<svg width="100%" height="100%" viewBox="-70.0 -70.0 140.0 140.0" preserveAspectRatio="xMidYMid meet" version="1.1" baseProfile="full" xmlns="http://www.w3.org/2000/svg">
<g style="stroke:#FFFFFF; stroke-width: 0.4957427527495585; stroke-linejoin: round;">
<path fill="#B31B1B" fill-opacity="0.9" d="m-32.446784409369485,-7.857989590142744 l6.684405196876845,-4.856504649951073 l-2.553215590630522,-7.857989590142747 l-6.684405196876845,4.856504649951073z"/>
<path fill="#B31B1B" fill-opacity="0.9" d="m-32.446784409369485,7.857989590142744 l6.684405196876845,4.856504649951073 l-2.553215590630522,7.857989590142747 l-6.684405196876845,-4.856504649951073z"/>
<path fill="#B31B1B" fill-opacity="0.9" d="m-35.0,0.0 l2.553215590630515,-7.857989590142744 l8.262379212492643,-2.6645352591003757e-15 l-2.553215590630515,7.857989590142744z"/>
<path fill="#B31B1B" fill-opacity="0.9" d="m-35.0,-0.0 l2.553215590630515,7.857989590142744 l8.262379212492643,2.6645352591003757e-15 l-2.553215590630515,-7.857989590142744z"/>
<path fill="#B31B1B" fill-opacity="0.37" d="m-25.76237921249264,-12.714494240093817 l8.262379212492636,-1.7763568394002505e-15 l-6.684405196876838,4.856504649951072 l-8.262379212492636,1.7763568394002505e-15z"/>
<path fill="#B31B1B" fill-opacity="0.37" d="m-25.76237921249264,12.714494240093817 l8.262379212492636,1.7763568394002505e-15 l-6.684405196876838,-4.856504649951072 l-8.262379212492636,-1.7763568394002505e-15z"/>
<path fill="#B31B1B" fill-opacity="0.9" d="m-17.5,-28.430473420379307 l-2.553215590630522,7.8579895901427435 l-8.26237921249264,0.0 l2.553215590630522,-7.8579895901427435z"/>
<path fill="#B31B1B" fill-opacity="0.9" d="m-17.500000000000004,-12.714494240093819 l-2.5532155906305185,-7.857989590142745 l-8.26237921249264,0.0 l2.5532155906305185,7.857989590142745z"/>
<path fill="#B31B1B" fill-opacity="0.9" d="m-17.500000000000004,12.714494240093819 l-2.5532155906305185,7.857989590142745 l-8.26237921249264,0.0 l2.5532155906305185,-7.857989590142745z"/>
<path fill="#B31B1B" fill-opacity="0.9" d="m-17.5,28.430473420379307 l-2.553215590630522,-7.8579895901427435 l-8.26237921249264,0.0 l2.553215590630522,7.8579895901427435z"/>
<path fill="#B31B1B" fill-opacity="0.37" d="m-20.053215590630522,-4.856504649951074 l-6.684405196876842,4.856504649951074 l2.553215590630522,-7.857989590142747 l6.684405196876842,-4.856504649951074z"/>
<path fill="#B31B1B" fill-opacity="0.37" d="m-20.053215590630522,4.856504649951074 l-6.684405196876842,-4.856504649951074 l2.553215590630522,7.857989590142747 l6.684405196876842,4.856504649951074z"/>
<path fill="#B31B1B" fill-opacity="0.9" d="m-26.737620787507364,0.0 l6.684405196876842,4.856504649951074 l6.684405196876844,-4.856504649951074 l-6.684405196876842,-4.856504649951074z"/>
<path fill="#B31B1B" fill-opacity="0.37" d="m-20.053215590630522,-20.572483830236564 l2.5532155906305185,7.857989590142745 l2.5532155906305203,-7.857989590142745 l-2.5532155906305185,-7.857989590142745z"/>
<path fill="#B31B1B" fill-opacity="0.37" d="m-20.053215590630522,20.572483830236564 l2.5532155906305185,-7.857989590142745 l2.5532155906305203,7.857989590142745 l-2.5532155906305185,7.857989590142745z"/>
<path fill="#B31B1B" fill-opacity="0.9" d="m-17.500000000000004,-12.714494240093819 l-2.5532155906305185,7.857989590142745 l6.684405196876844,4.856504649951074 l2.5532155906305185,-7.857989590142745z"/>
<path fill="#B31B1B" fill-opacity="0.9" d="m-17.500000000000004,12.714494240093819 l-2.5532155906305185,-7.857989590142745 l6.684405196876844,-4.856504649951074 l2.5532155906305185,7.857989590142745z"/>
<path fill="#B31B1B" fill-opacity="0.9" d="m-10.815594803123162,-33.28697807033038 l-6.684405196876838,4.85650464995107 l2.5532155906305167,7.8579895901427435 l6.684405196876838,-4.85650464995107z"/>
<path fill="#B31B1B" fill-opacity="0.37" d="m-10.815594803123163,-17.57099889004489 l2.553215590630522,-7.8579895901427435 l-6.684405196876842,4.85650464995107 l-2.553215590630522,7.8579895901427435z"/>
<path fill="#B31B1B" fill-opacity="0.37" d="m-10.815594803123163,17.57099889004489 l2.553215590630522,7.8579895901427435 l-6.684405196876842,-4.85650464995107 l-2.553215590630522,-7.8579895901427435z"/>
<path fill="#B31B1B" fill-opacity="0.9" d="m-10.815594803123162,33.28697807033038 l-6.684405196876838,-4.85650464995107 l2.5532155906305167,-7.8579895901427435 l6.684405196876838,4.85650464995107z"/>
<path fill="#B31B1B" fill-opacity="0.9" d="m-17.500000000000004,-12.714494240093819 l6.68440519687684,-4.856504649951072 l6.684405196876844,4.856504649951075 l-6.68440519687684,4.856504649951072z"/>
<path fill="#B31B1B" fill-opacity="0.9" d="m-17.500000000000004,12.714494240093819 l6.68440519687684,4.856504649951072 l6.684405196876844,-4.856504649951075 l-6.68440519687684,-4.856504649951072z"/>
<path fill="#B31B1B" fill-opacity="0.37" d="m-8.26237921249264,0.0 l-2.553215590630524,7.857989590142747 l-2.553215590630515,-7.857989590142747 l2.553215590630524,-7.857989590142747z"/>
<path fill="#B31B1B" fill-opacity="0.9" d="m-8.262379212492641,-25.428988480187634 l6.684405196876843,4.856504649951074 l-2.553215590630521,7.857989590142745 l-6.684405196876843,-4.856504649951074z"/>
<path fill="#B31B1B" fill-opacity="0.9" d="m-8.262379212492641,25.428988480187634 l6.684405196876843,-4.856504649951074 l-2.553215590630521,-7.857989590142745 l-6.684405196876843,4.856504649951074z"/>
<path fill="#B31B1B" fill-opacity="0.9" d="m-10.815594803123163,-7.857989590142747 l8.262379212492643,2.6645352591003757e-15 l2.5532155906305207,7.857989590142744 l-8.262379212492643,-2.6645352591003757e-15z"/>
<path fill="#B31B1B" fill-opacity="0.9" d="m-10.815594803123163,7.857989590142747 l8.262379212492643,-2.6645352591003757e-15 l2.5532155906305207,-7.857989590142744 l-8.262379212492643,2.6645352591003757e-15z"/>
<path fill="#B31B1B" fill-opacity="0.9" d="m-10.815594803123162,-33.28697807033038 l8.26237921249264,0.0 l2.553215590630524,7.8579895901427435 l-8.26237921249264,-0.0z"/>
<path fill="#B31B1B" fill-opacity="0.9" d="m-10.815594803123162,33.28697807033038 l8.26237921249264,0.0 l2.553215590630524,-7.8579895901427435 l-8.26237921249264,-0.0z"/>
<path fill="#B31B1B" fill-opacity="0.37" d="m-2.5532155906305207,-7.857989590142744 l6.684405196876842,-4.8565046499510744 l-8.26237921249264,3.552713678800501e-15 l-6.684405196876842,4.8565046499510744z"/>
<path fill="#B31B1B" fill-opacity="0.37" d="m-2.5532155906305207,7.857989590142744 l6.684405196876842,4.8565046499510744 l-8.26237921249264,-3.552713678800501e-15 l-6.684405196876842,-4.8565046499510744z"/>
<path fill="#B31B1B" fill-opacity="0.37" d="m-1.5779740156157986,-20.57248383023656 l-6.684405196876843,-4.856504649951074 l8.262379212492643,0.0 l6.684405196876843,4.856504649951074z"/>
<path fill="#B31B1B" fill-opacity="0.37" d="m-1.5779740156157986,20.57248383023656 l-6.684405196876843,4.856504649951074 l8.262379212492643,0.0 l6.684405196876843,-4.856504649951074z"/>
<path fill="#B31B1B" fill-opacity="0.9" d="m6.684405196876841,-20.572483830236564 l-8.26237921249264,3.552713678800501e-15 l-2.553215590630521,7.857989590142745 l8.26237921249264,-3.552713678800501e-15z"/>
<path fill="#B31B1B" fill-opacity="0.9" d="m6.684405196876841,20.572483830236564 l-8.26237921249264,-3.552713678800501e-15 l-2.553215590630521,-7.857989590142745 l8.26237921249264,3.552713678800501e-15z"/>
<path fill="#B31B1B" fill-opacity="0.37" d="m4.13118960624632,-28.430473420379307 l2.553215590630521,7.8579895901427435 l-6.68440519687684,-4.85650464995107 l-2.553215590630521,-7.8579895901427435z"/>
<path fill="#B31B1B" fill-opacity="0.9" d="m4.131189606246321,-12.714494240093819 l2.5532155906305194,7.857989590142747 l-6.68440519687684,4.856504649951072 l-2.5532155906305194,-7.857989590142747z"/>
<path fill="#B31B1B" fill-opacity="0.9" d="m4.131189606246321,12.714494240093819 l2.5532155906305194,-7.857989590142747 l-6.68440519687684,-4.856504649951072 l-2.5532155906305194,7.857989590142747z"/>
<path fill="#B31B1B" fill-opacity="0.37" d="m4.13118960624632,28.430473420379307 l2.553215590630521,-7.8579895901427435 l-6.68440519687684,4.85650464995107 l-2.553215590630521,7.8579895901427435z"/>
<path fill="#B31B1B" fill-opacity="0.9" d="m-2.553215590630523,-33.28697807033038 l6.684405196876843,4.85650464995107 l6.68440519687684,-4.85650464995107 l-6.684405196876843,-4.85650464995107z"/>
<path fill="#B31B1B" fill-opacity="0.9" d="m-2.553215590630523,33.28697807033038 l6.684405196876843,-4.85650464995107 l6.68440519687684,4.85650464995107 l-6.684405196876843,4.85650464995107z"/>
<path fill="#B31B1B" fill-opacity="0.9" d="m13.368810393753684,0.0 l-6.684405196876844,4.856504649951072 l-6.68440519687684,-4.856504649951072 l6.684405196876844,-4.856504649951072z"/>
<path fill="#B31B1B" fill-opacity="0.9" d="m6.684405196876841,-20.572483830236564 l6.684405196876839,-4.85650464995107 l-2.5532155906305203,-7.8579895901427435 l-6.684405196876839,4.85650464995107z"/>
<path fill="#B31B1B" fill-opacity="0.9" d="m6.684405196876841,-20.572483830236564 l6.684405196876837,4.856504649951074 l-2.5532155906305203,7.857989590142747 l-6.684405196876837,-4.856504649951074z"/>
<path fill="#B31B1B" fill-opacity="0.37" d="m6.68440519687684,-4.856504649951072 l6.684405196876844,4.856504649951072 l-2.5532155906305256,-7.8579895901427435 l-6.684405196876844,-4.856504649951072z"/>
<path fill="#B31B1B" fill-opacity="0.37" d="m6.68440519687684,4.856504649951072 l6.684405196876844,-4.856504649951072 l-2.5532155906305256,7.8579895901427435 l-6.684405196876844,4.856504649951072z"/>
<path fill="#B31B1B" fill-opacity="0.9" d="m6.684405196876841,20.572483830236564 l6.684405196876837,-4.856504649951074 l-2.5532155906305203,-7.857989590142747 l-6.684405196876837,4.856504649951074z"/>
<path fill="#B31B1B" fill-opacity="0.9" d="m6.684405196876841,20.572483830236564 l6.684405196876839,4.85650464995107 l-2.5532155906305203,7.8579895901427435 l-6.684405196876839,-4.85650464995107z"/>
<path fill="#B31B1B" fill-opacity="0.37" d="m13.368810393753678,-15.71597918028549 l8.262379212492645,1.7763568394002505e-15 l-6.684405196876845,-4.856504649951075 l-8.262379212492645,-1.7763568394002505e-15z"/>
<path fill="#B31B1B" fill-opacity="0.37" d="m13.368810393753678,15.71597918028549 l8.262379212492645,-1.7763568394002505e-15 l-6.684405196876845,4.856504649951075 l-8.262379212492645,1.7763568394002505e-15z"/>
<path fill="#B31B1B" fill-opacity="0.37" d="m13.36881039375368,-25.428988480187634 l-6.684405196876839,4.85650464995107 l8.262379212492636,0.0 l6.684405196876839,-4.85650464995107z"/>
<path fill="#B31B1B" fill-opacity="0.37" d="m13.36881039375368,25.428988480187634 l-6.684405196876839,-4.85650464995107 l8.262379212492636,0.0 l6.684405196876839,4.85650464995107z"/>
<path fill="#B31B1B" fill-opacity="0.9" d="m21.631189606246323,-25.428988480187634 l-8.262379212492643,0.0 l-2.5532155906305203,-7.8579895901427435 l8.262379212492643,-0.0z"/>
<path fill="#B31B1B" fill-opacity="0.9" d="m21.631189606246323,-15.715979180285489 l-2.553215590630522,7.857989590142745 l-8.262379212492643,0.0 l2.553215590630522,-7.857989590142745z"/>
<path fill="#B31B1B" fill-opacity="0.9" d="m21.631189606246323,-0.0 l-2.553215590630522,-7.8579895901427435 l-8.262379212492643,0.0 l2.553215590630522,7.8579895901427435z"/>
<path fill="#B31B1B" fill-opacity="0.9" d="m21.631189606246323,0.0 l-2.553215590630522,7.8579895901427435 l-8.262379212492643,0.0 l2.553215590630522,-7.8579895901427435z"/>
<path fill="#B31B1B" fill-opacity="0.9" d="m21.631189606246323,15.715979180285489 l-2.553215590630522,-7.857989590142745 l-8.262379212492643,0.0 l2.553215590630522,7.857989590142745z"/>
<path fill="#B31B1B" fill-opacity="0.9" d="m21.631189606246323,25.428988480187634 l-8.262379212492643,0.0 l-2.5532155906305203,7.8579895901427435 l8.262379212492643,-0.0z"/>
<path fill="#B31B1B" fill-opacity="0.9" d="m28.31559480312316,-20.57248383023656 l-6.684405196876838,-4.856504649951074 l-6.684405196876845,4.85650464995107 l6.684405196876838,4.856504649951074z"/>
<path fill="#B31B1B" fill-opacity="0.9" d="m28.31559480312316,20.57248383023656 l-6.684405196876838,4.856504649951074 l-6.684405196876845,-4.85650464995107 l6.684405196876838,-4.856504649951074z"/>
<path fill="#B31B1B" fill-opacity="0.37" d="m19.0779740156158,-7.8579895901427435 l2.553215590630522,-7.857989590142745 l2.5532155906305185,7.857989590142745 l-2.553215590630522,7.857989590142745z"/>
<path fill="#B31B1B" fill-opacity="0.37" d="m19.0779740156158,7.8579895901427435 l2.553215590630522,7.857989590142745 l2.5532155906305185,-7.857989590142745 l-2.553215590630522,-7.857989590142745z"/>
<path fill="#B31B1B" fill-opacity="0.9" d="m28.31559480312316,-20.57248383023656 l2.553215590630522,7.8579895901427435 l-6.684405196876842,4.856504649951074 l-2.553215590630522,-7.8579895901427435z"/>
<path fill="#B31B1B" fill-opacity="0.37" d="m28.31559480312316,-4.856504649951072 l-6.684405196876838,4.856504649951072 l2.5532155906305185,-7.8579895901427435 l6.684405196876838,-4.856504649951072z"/>
<path fill="#B31B1B" fill-opacity="0.37" d="m28.31559480312316,4.856504649951072 l-6.684405196876838,-4.856504649951072 l2.5532155906305185,7.8579895901427435 l6.684405196876838,4.856504649951072z"/>
<path fill="#B31B1B" fill-opacity="0.9" d="m28.31559480312316,20.57248383023656 l2.553215590630522,-7.8579895901427435 l-6.684405196876842,-4.856504649951074 l-2.553215590630522,7.8579895901427435z"/>
<path fill="#B31B1B" fill-opacity="0.9" d="m21.631189606246323,0.0 l6.684405196876838,4.856504649951072 l6.684405196876838,-4.856504649951072 l-6.684405196876838,-4.856504649951072z"/>
<path fill="#B31B1B" fill-opacity="0.9" d="m30.868810393753684,-12.714494240093817 l-2.553215590630522,7.857989590142745 l6.684405196876838,4.856504649951072 l2.553215590630522,-7.857989590142745z"/>
<path fill="#B31B1B" fill-opacity="0.9" d="m30.868810393753684,12.714494240093817 l-2.553215590630522,-7.857989590142745 l6.684405196876838,-4.856504649951072 l2.553215590630522,7.857989590142745z"/>
</g>
</svg>