<?xml version="1.0" encoding="utf-8"?>
<svg width="100%" height="100%" viewBox="-70.0 -70.0 140.0 140.0" preserveAspectRatio="xMidYMid meet" version="1.1" baseProfile="full" xmlns="http://www.w3.org/2000/svg">
<g style="stroke:#FFFFFF; stroke-width: 0.30638587087566255; stroke-linejoin: round;">
<path fill="#B31B1B" fill-opacity="0.37" d="m-33.422025984384206,-4.856504649951072 l5.106431181261044,-1.7763568394002505e-15 l-4.131189606246323,-3.001484940191671 l-5.106431181261044,1.7763568394002505e-15z"/>
<path fill="#B31B1B" fill-opacity="0.37" d="m-33.422025984384206,4.856504649951072 l5.106431181261044,1.7763568394002505e-15 l-4.131189606246323,3.001484940191671 l-5.106431181261044,-1.7763568394002505e-15z"/>
<path fill="#B31B1B" fill-opacity="0.9" d="m-28.31559480312316,-4.856504649951074 l-5.106431181261044,1.7763568394002505e-15 l-1.5779740156157942,4.856504649951072 l5.106431181261044,-1.7763568394002505e-15z"/>
<path fill="#B31B1B" fill-opacity="0.9" d="m-28.31559480312316,4.856504649951074 l-5.106431181261044,-1.7763568394002505e-15 l-1.5779740156157942,-4.856504649951072 l5.106431181261044,1.7763568394002505e-15z"/>
<path fill="#B31B1B" fill-opacity="0.9" d="m-29.893568818738963,-15.71597918028549 l1.5779740156158013,4.856504649951074 l-4.131189606246323,3.0014849401916726 l-1.5779740156158013,-4.856504649951074z"/>
<path fill="#B31B1B" fill-opacity="0.9" d="m-29.893568818738963,15.71597918028549 l1.5779740156158013,-4.856504649951074 l-4.131189606246323,-3.0014849401916726 l-1.5779740156158013,4.856504649951074z"/>
<path fill="#B31B1B" fill-opacity="0.9" d="m-24.184405196876842,-7.857989590142747 l-4.13118960624632,-3.00148494019167 l-4.131189606246323,3.0014849401916726 l4.13118960624632,3.00148494019167z"/>
<path fill="#B31B1B" fill-opacity="0.37" d="m-29.893568818738963,0.0 l1.5779740156158013,4.856504649951074 l1.5779740156157978,-4.856504649951074 l-1.5779740156158013,-4.856504649951074z"/>
<path fill="#B31B1B" fill-opacity="0.9" d="m-24.184405196876842,7.857989590142747 l-4.13118960624632,3.00148494019167 l-4.131189606246323,-3.0014849401916726 l4.13118960624632,-3.00148494019167z"/>
<path fill="#B31B1B" fill-opacity="0.9" d="m-28.31559480312316,-20.572483830236564 l4.131189606246316,3.0014849401916734 l-1.5779740156157942,4.856504649951074 l-4.131189606246316,-3.0014849401916734z"/>
<path fill="#B31B1B" fill-opacity="0.37" d="m-28.31559480312316,-10.859474530334417 l-1.5779740156158013,-4.856504649951074 l4.131189606246323,3.0014849401916734 l1.5779740156158013,4.856504649951074z"/>
<path fill="#B31B1B" fill-opacity="0.37" d="m-28.31559480312316,10.859474530334417 l-1.5779740156158013,4.856504649951074 l4.131189606246323,-3.0014849401916734 l1.5779740156158013,-4.856504649951074z"/>
<path fill="#B31B1B" fill-opacity="0.9" d="m-28.31559480312316,20.572483830236564 l4.131189606246316,-3.0014849401916734 l-1.5779740156157942,-4.856504649951074 l-4.131189606246316,3.0014849401916734z"/>
<path fill="#B31B1B" fill-opacity="0.9" d="m-24.184405196876842,-7.857989590142747 l1.5779740156157978,4.856504649951074 l-4.13118960624632,3.001484940191674 l-1.5779740156157978,-4.856504649951074z"/>
<path fill="#B31B1B" fill-opacity="0.9" d="m-24.184405196876842,7.857989590142747 l1.5779740156157978,-4.856504649951074 l-4.13118960624632,-3.001484940191674 l-1.5779740156157978,4.856504649951074z"/>
<path fill="#B31B1B" fill-opacity="0.9" d="m-28.31559480312316,-20.572483830236564 l4.131189606246316,3.0014849401916734 l4.131189606246323,-3.0014849401916734 l-4.131189606246316,-3.0014849401916734z"/>
<path fill="#B31B1B" fill-opacity="0.37" d="m-22.606431181261044,-12.714494240093817 l-1.5779740156157978,4.85650464995107 l-1.5779740156157978,-4.85650464995107 l1.5779740156157978,-4.85650464995107z"/>
<path fill="#B31B1B" fill-opacity="0.37" d="m-22.606431181261044,12.714494240093817 l-1.5779740156157978,-4.85650464995107 l-1.5779740156157978,4.85650464995107 l1.5779740156157978,4.85650464995107z"/>
<path fill="#B31B1B" fill-opacity="0.9" d="m-28.31559480312316,20.572483830236564 l4.131189606246316,-3.0014849401916734 l4.131189606246323,3.0014849401916734 l-4.131189606246316,3.0014849401916734z"/>
<path fill="#B31B1B" fill-opacity="0.9" d="m-18.47524157501472,0.0 l-4.131189606246323,3.001484940191674 l-4.13118960624632,-3.001484940191674 l4.131189606246323,-3.001484940191674z"/>
<path fill="#B31B1B" fill-opacity="0.37" d="m-22.606431181261044,-3.001484940191674 l4.131189606246323,3.001484940191674 l-1.5779740156158013,-4.856504649951074 l-4.131189606246323,-3.001484940191674z"/>
<path fill="#B31B1B" fill-opacity="0.37" d="m-22.606431181261044,3.001484940191674 l4.131189606246323,-3.001484940191674 l-1.5779740156158013,4.856504649951074 l-4.131189606246323,3.001484940191674z"/>
<path fill="#B31B1B" fill-opacity="0.9" d="m-24.184405196876845,-17.57099889004489 l5.106431181261044,0.0 l1.5779740156157978,4.856504649951072 l-5.106431181261044,-0.0z"/>
<path fill="#B31B1B" fill-opacity="0.9" d="m-24.184405196876845,17.57099889004489 l5.106431181261044,0.0 l1.5779740156157978,-4.856504649951072 l-5.106431181261044,-0.0z"/>
<path fill="#B31B1B" fill-opacity="0.9" d="m-24.184405196876842,-7.857989590142747 l1.5779740156157978,-4.85650464995107 l5.106431181261041,-1.7763568394002505e-15 l-1.5779740156157978,4.85650464995107z"/>
<path fill="#B31B1B" fill-opacity="0.9" d="m-24.184405196876842,7.857989590142747 l1.5779740156157978,4.85650464995107 l5.106431181261041,1.7763568394002505e-15 l-1.5779740156157978,-4.85650464995107z"/>
<path fill="#B31B1B" fill-opacity="0.9" d="m-24.184405196876842,-23.573968770428237 l5.106431181261041,0.0 l1.5779740156158013,-4.85650464995107 l-5.106431181261041,-0.0z"/>
<path fill="#B31B1B" fill-opacity="0.9" d="m-24.184405196876842,23.573968770428237 l5.106431181261041,0.0 l1.5779740156158013,4.85650464995107 l-5.106431181261041,-0.0z"/>
<path fill="#B31B1B" fill-opacity="0.37" d="m-19.0779740156158,-23.573968770428237 l-5.106431181261041,0.0 l4.13118960624632,3.0014849401916734 l5.106431181261041,-0.0z"/>
<path fill="#B31B1B" fill-opacity="0.37" d="m-19.0779740156158,-17.57099889004489 l4.131189606246318,-3.0014849401916734 l-5.106431181261039,0.0 l-4.131189606246318,3.0014849401916734z"/>
<path fill="#B31B1B" fill-opacity="0.37" d="m-19.0779740156158,-7.857989590142745 l-5.106431181261041,-1.7763568394002505e-15 l4.13118960624632,3.0014849401916734 l5.106431181261041,1.7763568394002505e-15z"/>
<path fill="#B31B1B" fill-opacity="0.37" d="m-19.0779740156158,7.857989590142745 l-5.106431181261041,1.7763568394002505e-15 l4.13118960624632,-3.0014849401916734 l5.106431181261041,-1.7763568394002505e-15z"/>
<path fill="#B31B1B" fill-opacity="0.37" d="m-19.0779740156158,17.57099889004489 l4.131189606246318,3.0014849401916734 l-5.106431181261039,0.0 l-4.131189606246318,-3.0014849401916734z"/>
<path fill="#B31B1B" fill-opacity="0.37" d="m-19.0779740156158,23.573968770428237 l-5.106431181261041,0.0 l4.13118960624632,-3.0014849401916734 l5.106431181261041,-0.0z"/>
<path fill="#B31B1B" fill-opacity="0.9" d="m-13.368810393753678,-0.0 l-5.106431181261042,0.0 l-1.5779740156158013,-4.856504649951074 l5.106431181261042,-0.0z"/>
<path fill="#B31B1B" fill-opacity="0.9" d="m-13.368810393753678,0.0 l-5.106431181261042,0.0 l-1.5779740156158013,4.856504649951074 l5.106431181261042,-0.0z"/>
<path fill="#B31B1B" fill-opacity="0.37" d="m-14.946784409369481,-30.285493130138704 l1.5779740156157978,4.85650464995107 l-4.131189606246316,-3.0014849401916734 l-1.5779740156157978,-4.85650464995107z"/>
<path fill="#B31B1B" fill-opacity="0.9" d="m-14.946784409369483,-20.572483830236564 l-4.131189606246318,-3.0014849401916734 l1.5779740156158013,-4.85650464995107 l4.131189606246318,3.0014849401916734z"/>
<path fill="#B31B1B" fill-opacity="0.9" d="m-14.946784409369483,-20.572483830236564 l-4.131189606246318,3.0014849401916734 l1.5779740156157978,4.856504649951072 l4.131189606246318,-3.0014849401916734z"/>
<path fill="#B31B1B" fill-opacity="0.9" d="m-14.946784409369481,-4.856504649951072 l-4.13118960624632,-3.0014849401916734 l1.5779740156157978,-4.856504649951074 l4.13118960624632,3.0014849401916734z"/>
<path fill="#B31B1B" fill-opacity="0.9" d="m-14.946784409369481,4.856504649951072 l-4.13118960624632,3.0014849401916734 l1.5779740156157978,4.856504649951074 l4.13118960624632,-3.0014849401916734z"/>
<path fill="#B31B1B" fill-opacity="0.9" d="m-14.946784409369483,20.572483830236564 l-4.131189606246318,-3.0014849401916734 l1.5779740156157978,-4.856504649951072 l4.131189606246318,3.0014849401916734z"/>
<path fill="#B31B1B" fill-opacity="0.9" d="m-14.946784409369483,20.572483830236564 l-4.131189606246318,3.0014849401916734 l1.5779740156158013,4.85650464995107 l4.131189606246318,-3.0014849401916734z"/>
<path fill="#B31B1B" fill-opacity="0.37" d="m-14.946784409369481,30.285493130138704 l1.5779740156157978,-4.85650464995107 l-4.131189606246316,3.0014849401916734 l-1.5779740156157978,4.85650464995107z"/>
<path fill="#B31B1B" fill-opacity="0.9" d="m-9.237620787507362,-12.714494240093817 l-4.131189606246322,-3.001484940191675 l-4.13118960624632,3.0014849401916734 l4.131189606246322,3.001484940191675z"/>
<path fill="#B31B1B" fill-opacity="0.9" d="m-9.237620787507362,12.714494240093817 l-4.131189606246322,3.001484940191675 l-4.13118960624632,-3.0014849401916734 l4.131189606246322,-3.001484940191675z"/>
<path fill="#B31B1B" fill-opacity="0.9" d="m-13.368810393753684,-25.428988480187634 l-1.5779740156157978,-4.85650464995107 l4.13118960624632,-3.0014849401916734 l1.5779740156157978,4.85650464995107z"/>
<path fill="#B31B1B" fill-opacity="0.37" d="m-13.368810393753684,-15.715979180285492 l-1.5779740156157995,-4.856504649951072 l4.13118960624632,3.0014849401916734 l1.5779740156157995,4.856504649951072z"/>
<path fill="#B31B1B" fill-opacity="0.37" d="m-13.368810393753684,-9.713009299902145 l4.131189606246322,-3.0014849401916717 l-1.5779740156158013,4.85650464995107 l-4.131189606246322,3.0014849401916717z"/>
<path fill="#B31B1B" fill-opacity="0.37" d="m-13.368810393753684,9.713009299902145 l4.131189606246322,3.0014849401916717 l-1.5779740156158013,-4.85650464995107 l-4.131189606246322,-3.0014849401916717z"/>
<path fill="#B31B1B" fill-opacity="0.37" d="m-13.368810393753684,15.715979180285492 l-1.5779740156157995,4.856504649951072 l4.13118960624632,-3.0014849401916734 l1.5779740156157995,-4.856504649951072z"/>
<path fill="#B31B1B" fill-opacity="0.9" d="m-13.368810393753684,25.428988480187634 l-1.5779740156157978,4.85650464995107 l4.13118960624632,3.0014849401916734 l1.5779740156157978,-4.85650464995107z"/>
<path fill="#B31B1B" fill-opacity="0.9" d="m-13.368810393753678,-0.0 l4.131189606246316,-3.0014849401916734 l-1.5779740156158013,-4.856504649951074 l-4.131189606246316,3.0014849401916734z"/>
<path fill="#B31B1B" fill-opacity="0.9" d="m-13.368810393753678,0.0 l4.131189606246316,3.0014849401916734 l-1.5779740156158013,4.856504649951074 l-4.131189606246316,-3.0014849401916734z"/>
<path fill="#B31B1B" fill-opacity="0.9" d="m-14.946784409369483,-20.572483830236564 l5.106431181261042,0.0 l1.5779740156157995,-4.85650464995107 l-5.106431181261042,-0.0z"/>
<path fill="#B31B1B" fill-opacity="0.9" d="m-14.946784409369483,20.572483830236564 l5.106431181261042,0.0 l1.5779740156157995,4.85650464995107 l-5.106431181261042,-0.0z"/>
<path fill="#B31B1B" fill-opacity="0.37" d="m-9.840353228108441,-20.572483830236564 l4.131189606246322,3.001484940191677 l-5.106431181261044,-3.552713678800501e-15 l-4.131189606246322,-3.001484940191677z"/>
<path fill="#B31B1B" fill-opacity="0.37" d="m-9.840353228108441,20.572483830236564 l4.131189606246322,-3.001484940191677 l-5.106431181261044,3.552713678800501e-15 l-4.131189606246322,3.001484940191677z"/>
<path fill="#B31B1B" fill-opacity="0.37" d="m-9.237620787507362,-28.430473420379307 l5.106431181261043,0.0 l-4.1311896062463225,3.0014849401916734 l-5.106431181261043,-0.0z"/>
<path fill="#B31B1B" fill-opacity="0.37" d="m-9.237620787507362,28.430473420379307 l5.106431181261043,0.0 l-4.1311896062463225,-3.0014849401916734 l-5.106431181261043,-0.0z"/>
<path fill="#B31B1B" fill-opacity="0.37" d="m-9.237620787507362,-3.0014849401916734 l5.1064311812610415,0.0 l-4.131189606246319,3.0014849401916734 l-5.1064311812610415,-0.0z"/>
<path fill="#B31B1B" fill-opacity="0.37" d="m-9.237620787507362,3.0014849401916734 l5.1064311812610415,0.0 l-4.131189606246319,-3.0014849401916734 l-5.1064311812610415,-0.0z"/>
<path fill="#B31B1B" fill-opacity="0.9" d="m-4.131189606246321,-3.0014849401916734 l-1.5779740156157995,-4.856504649951072 l-5.106431181261043,-1.7763568394002505e-15 l1.5779740156157995,4.856504649951072z"/>
<path fill="#B31B1B" fill-opacity="0.9" d="m-4.131189606246321,3.0014849401916734 l-1.5779740156157995,4.856504649951072 l-5.106431181261043,1.7763568394002505e-15 l1.5779740156157995,-4.856504649951072z"/>
<path fill="#B31B1B" fill-opacity="0.9" d="m-4.13118960624632,-12.714494240093815 l-1.5779740156157995,-4.856504649951072 l-5.106431181261044,-3.552713678800501e-15 l1.5779740156157995,4.856504649951072z"/>
<path fill="#B31B1B" fill-opacity="0.9" d="m-4.13118960624632,-12.714494240093815 l-1.5779740156158004,4.85650464995107 l-5.106431181261043,-1.7763568394002505e-15 l1.5779740156158004,-4.85650464995107z"/>
<path fill="#B31B1B" fill-opacity="0.9" d="m-4.13118960624632,12.714494240093815 l-1.5779740156158004,-4.85650464995107 l-5.106431181261043,1.7763568394002505e-15 l1.5779740156158004,4.85650464995107z"/>
<path fill="#B31B1B" fill-opacity="0.9" d="m-4.13118960624632,12.714494240093815 l-1.5779740156157995,4.856504649951072 l-5.106431181261044,3.552713678800501e-15 l1.5779740156157995,-4.856504649951072z"/>
<path fill="#B31B1B" fill-opacity="0.9" d="m-4.131189606246319,-28.430473420379307 l-1.5779740156158022,-4.85650464995107 l-5.106431181261041,0.0 l1.5779740156158022,4.85650464995107z"/>
<path fill="#B31B1B" fill-opacity="0.9" d="m-4.131189606246319,28.430473420379307 l-1.5779740156158022,4.85650464995107 l-5.106431181261041,0.0 l1.5779740156158022,-4.85650464995107z"/>
<path fill="#B31B1B" fill-opacity="0.9" d="m-5.709163621862119,-17.570998890044887 l1.5779740156157995,-4.856504649951074 l-4.131189606246322,-3.0014849401916734 l-1.5779740156157995,4.856504649951074z"/>
<path fill="#B31B1B" fill-opacity="0.9" d="m-5.709163621862119,17.570998890044887 l1.5779740156157995,4.856504649951074 l-4.131189606246322,3.0014849401916734 l-1.5779740156157995,-4.856504649951074z"/>
<path fill="#B31B1B" fill-opacity="0.37" d="m-5.709163621862121,-33.28697807033038 l1.5779740156158022,4.85650464995107 l1.577974015615796,-4.85650464995107 l-1.5779740156158022,-4.85650464995107z"/>
<path fill="#B31B1B" fill-opacity="0.37" d="m-5.709163621862121,33.28697807033038 l1.5779740156158022,-4.85650464995107 l1.577974015615796,4.85650464995107 l-1.5779740156158022,4.85650464995107z"/>
<path fill="#B31B1B" fill-opacity="0.37" d="m-5.70916362186212,-7.857989590142745 l1.5779740156157995,4.856504649951072 l1.5779740156158,-4.856504649951071 l-1.5779740156157995,-4.856504649951072z"/>
<path fill="#B31B1B" fill-opacity="0.37" d="m-5.70916362186212,7.857989590142745 l1.5779740156157995,-4.856504649951072 l1.5779740156158,4.856504649951071 l-1.5779740156157995,4.856504649951072z"/>
<path fill="#B31B1B" fill-opacity="0.9" d="m8.881784197001252e-16,-25.428988480187634 l-4.131189606246321,3.0014849401916734 l-4.131189606246322,-3.0014849401916734 l4.131189606246321,-3.0014849401916734z"/>
<path fill="#B31B1B" fill-opacity="0.9" d="m0.0,0.0 l-4.131189606246321,3.0014849401916734 l-4.131189606246319,-3.0014849401916734 l4.131189606246321,-3.0014849401916734z"/>
<path fill="#B31B1B" fill-opacity="0.9" d="m8.881784197001252e-16,25.428988480187634 l-4.131189606246321,-3.0014849401916734 l-4.131189606246322,3.0014849401916734 l4.131189606246321,3.0014849401916734z"/>
<path fill="#B31B1B" fill-opacity="0.37" d="m-4.13118960624632,-22.42750353999596 l-1.5779740156157995,4.856504649951074 l4.131189606246321,-3.0014849401916734 l1.5779740156157995,-4.856504649951074z"/>
<path fill="#B31B1B" fill-opacity="0.9" d="m-4.13118960624632,-12.714494240093815 l-1.5779740156157995,-4.856504649951072 l4.131189606246321,-3.0014849401916734 l1.5779740156157995,4.856504649951072z"/>
<path fill="#B31B1B" fill-opacity="0.9" d="m-4.13118960624632,12.714494240093815 l-1.5779740156157995,4.856504649951072 l4.131189606246321,3.0014849401916734 l1.5779740156157995,-4.856504649951072z"/>
<path fill="#B31B1B" fill-opacity="0.37" d="m-4.13118960624632,22.42750353999596 l-1.5779740156157995,-4.856504649951074 l4.131189606246321,3.0014849401916734 l1.5779740156157995,4.856504649951074z"/>
<path fill="#B31B1B" fill-opacity="0.9" d="m8.881784197001252e-16,-25.428988480187634 l1.5779740156157978,-4.85650464995107 l-4.131189606246322,-3.0014849401916734 l-1.5779740156157978,4.85650464995107z"/>
<path fill="#B31B1B" fill-opacity="0.9" d="m8.881784197001252e-16,25.428988480187634 l1.5779740156157978,4.85650464995107 l-4.131189606246322,3.0014849401916734 l-1.5779740156157978,-4.85650464995107z"/>
<path fill="#B31B1B" fill-opacity="0.37" d="m-2.220446049250313e-16,-9.713009299902144 l1.5779740156157995,4.856504649951072 l-4.13118960624632,-3.0014849401916726 l-1.5779740156157995,-4.856504649951072z"/>
<path fill="#B31B1B" fill-opacity="0.37" d="m-2.220446049250313e-16,9.713009299902144 l1.5779740156157995,-4.856504649951072 l-4.13118960624632,3.0014849401916726 l-1.5779740156157995,4.856504649951072z"/>
<path fill="#B31B1B" fill-opacity="0.9" d="m0.0,-0.0 l1.5779740156157993,-4.856504649951072 l-4.13118960624632,-3.0014849401916726 l-1.5779740156157993,4.856504649951072z"/>
<path fill="#B31B1B" fill-opacity="0.9" d="m0.0,0.0 l1.5779740156157993,4.856504649951072 l-4.13118960624632,3.0014849401916726 l-1.5779740156157993,-4.856504649951072z"/>
<path fill="#B31B1B" fill-opacity="0.37" d="m1.5779740156157993,-20.57248383023656 l-1.5779740156157984,-4.856504649951074 l-1.5779740156157995,4.856504649951074 l1.5779740156157984,4.856504649951074z"/>
<path fill="#B31B1B" fill-opacity="0.37" d="m1.5779740156157993,20.57248383023656 l-1.5779740156157984,4.856504649951074 l-1.5779740156157995,-4.856504649951074 l1.5779740156157984,-4.856504649951074z"/>
<path fill="#B31B1B" fill-opacity="0.9" d="m-4.13118960624632,-12.714494240093815 l4.13118960624632,3.0014849401916717 l4.131189606246321,-3.001484940191675 l-4.13118960624632,-3.0014849401916717z"/>
<path fill="#B31B1B" fill-opacity="0.9" d="m-4.13118960624632,12.714494240093815 l4.13118960624632,-3.0014849401916717 l4.131189606246321,3.001484940191675 l-4.13118960624632,3.0014849401916717z"/>
<path fill="#B31B1B" fill-opacity="0.9" d="m5.709163621862119,-33.28697807033038 l-4.131189606246321,3.0014849401916734 l-4.131189606246322,-3.0014849401916734 l4.131189606246321,-3.0014849401916734z"/>
<path fill="#B31B1B" fill-opacity="0.9" d="m5.709163621862119,33.28697807033038 l-4.131189606246321,-3.0014849401916734 l-4.131189606246322,3.0014849401916734 l4.131189606246321,3.0014849401916734z"/>
<path fill="#B31B1B" fill-opacity="0.37" d="m1.5779740156157986,-30.285493130138704 l4.131189606246321,-3.0014849401916734 l-1.5779740156157995,4.85650464995107 l-4.131189606246321,3.0014849401916734z"/>
<path fill="#B31B1B" fill-opacity="0.37" d="m1.5779740156157986,30.285493130138704 l4.131189606246321,3.0014849401916734 l-1.5779740156157995,-4.85650464995107 l-4.131189606246321,-3.0014849401916734z"/>
<path fill="#B31B1B" fill-opacity="0.9" d="m1.5779740156157993,-4.856504649951072 l4.13118960624632,-3.0014849401916734 l-1.5779740156157986,-4.856504649951074 l-4.13118960624632,3.0014849401916734z"/>
<path fill="#B31B1B" fill-opacity="0.9" d="m1.5779740156157993,4.856504649951072 l4.13118960624632,3.0014849401916734 l-1.5779740156157986,4.856504649951074 l-4.13118960624632,-3.0014849401916734z"/>
<path fill="#B31B1B" fill-opacity="0.9" d="m-4.440892098500626e-16,-15.715979180285489 l1.5779740156157998,-4.856504649951072 l5.1064311812610415,-3.552713678800501e-15 l-1.5779740156157998,4.856504649951072z"/>
<path fill="#B31B1B" fill-opacity="0.9" d="m0.0,-0.0 l5.1064311812610415,0.0 l1.5779740156157986,-4.856504649951072 l-5.1064311812610415,-0.0z"/>
<path fill="#B31B1B" fill-opacity="0.9" d="m0.0,0.0 l5.1064311812610415,0.0 l1.5779740156157986,4.856504649951072 l-5.1064311812610415,-0.0z"/>
<path fill="#B31B1B" fill-opacity="0.9" d="m-4.440892098500626e-16,15.715979180285489 l1.5779740156157998,4.856504649951072 l5.1064311812610415,3.552713678800501e-15 l-1.5779740156157998,-4.856504649951072z"/>
<path fill="#B31B1B" fill-opacity="0.9" d="m8.881784197001252e-16,-25.428988480187634 l5.10643118126104,0.0 l1.5779740156158004,4.85650464995107 l-5.10643118126104,-0.0z"/>
<path fill="#B31B1B" fill-opacity="0.9" d="m8.881784197001252e-16,25.428988480187634 l5.10643118126104,0.0 l1.5779740156158004,-4.85650464995107 l-5.10643118126104,-0.0z"/>
<path fill="#B31B1B" fill-opacity="0.37" d="m5.106431181261041,-25.428988480187634 l-5.10643118126104,0.0 l4.131189606246319,-3.0014849401916734 l5.10643118126104,-0.0z"/>
<path fill="#B31B1B" fill-opacity="0.37" d="m5.106431181261041,25.428988480187634 l-5.10643118126104,0.0 l4.131189606246319,3.0014849401916734 l5.10643118126104,-0.0z"/>
<path fill="#B31B1B" fill-opacity="0.37" d="m5.1064311812610415,-15.71597918028549 l4.131189606246319,3.0014849401916734 l-5.10643118126104,-1.7763568394002505e-15 l-4.131189606246319,-3.0014849401916734z"/>
<path fill="#B31B1B" fill-opacity="0.37" d="m5.1064311812610415,15.71597918028549 l4.131189606246319,-3.0014849401916734 l-5.10643118126104,1.7763568394002505e-15 l-4.131189606246319,3.0014849401916734z"/>
<path fill="#B31B1B" fill-opacity="0.37" d="m5.709163621862119,-7.857989590142745 l-4.13118960624632,3.0014849401916734 l5.106431181261041,0.0 l4.13118960624632,-3.0014849401916734z"/>
<path fill="#B31B1B" fill-opacity="0.37" d="m5.709163621862119,7.857989590142745 l-4.13118960624632,-3.0014849401916734 l5.106431181261041,0.0 l4.13118960624632,3.0014849401916734z"/>
<path fill="#B31B1B" fill-opacity="0.9" d="m10.815594803123158,-7.8579895901427435 l-5.106431181261039,-1.7763568394002505e-15 l-1.5779740156157986,-4.856504649951074 l5.106431181261039,1.7763568394002505e-15z"/>
<path fill="#B31B1B" fill-opacity="0.9" d="m10.815594803123158,7.8579895901427435 l-5.106431181261039,1.7763568394002505e-15 l-1.5779740156157986,4.856504649951074 l5.106431181261039,-1.7763568394002505e-15z"/>
<path fill="#B31B1B" fill-opacity="0.9" d="m10.81559480312316,-33.28697807033038 l-1.5779740156157995,4.85650464995107 l-5.106431181261041,0.0 l1.5779740156157995,-4.85650464995107z"/>
<path fill="#B31B1B" fill-opacity="0.9" d="m10.81559480312316,33.28697807033038 l-1.5779740156157995,-4.85650464995107 l-5.106431181261041,0.0 l1.5779740156157995,4.85650464995107z"/>
<path fill="#B31B1B" fill-opacity="0.37" d="m9.23762078750736,-3.001484940191673 l-4.131189606246319,3.001484940191673 l1.5779740156157986,-4.856504649951072 l4.131189606246319,-3.001484940191673z"/>
<path fill="#B31B1B" fill-opacity="0.37" d="m9.23762078750736,3.001484940191673 l-4.131189606246319,-3.001484940191673 l1.5779740156157986,4.856504649951072 l4.131189606246319,3.001484940191673z"/>
<path fill="#B31B1B" fill-opacity="0.9" d="m9.23762078750736,-28.430473420379307 l1.5779740156157995,4.856504649951074 l-4.131189606246319,3.00148494019167 l-1.5779740156157995,-4.856504649951074z"/>
<path fill="#B31B1B" fill-opacity="0.9" d="m9.23762078750736,-12.714494240093817 l1.5779740156157995,-4.856504649951074 l-4.131189606246319,-3.0014849401916734 l-1.5779740156157995,4.856504649951074z"/>
<path fill="#B31B1B" fill-opacity="0.9" d="m9.23762078750736,12.714494240093817 l1.5779740156157995,4.856504649951074 l-4.131189606246319,3.0014849401916734 l-1.5779740156157995,-4.856504649951074z"/>
<path fill="#B31B1B" fill-opacity="0.9" d="m9.23762078750736,28.430473420379307 l1.5779740156157995,-4.856504649951074 l-4.131189606246319,-3.00148494019167 l-1.5779740156157995,4.856504649951074z"/>
<path fill="#B31B1B" fill-opacity="0.9" d="m5.1064311812610415,0.0 l4.131189606246319,3.001484940191673 l4.131189606246323,-3.001484940191673 l-4.131189606246319,-3.001484940191673z"/>
<path fill="#B31B1B" fill-opacity="0.9" d="m14.946784409369478,-20.572483830236564 l-4.131189606246318,-3.00148494019167 l-4.131189606246319,3.00148494019167 l4.131189606246318,3.00148494019167z"/>
<path fill="#B31B1B" fill-opacity="0.9" d="m14.946784409369478,20.572483830236564 l-4.131189606246318,3.00148494019167 l-4.131189606246319,-3.00148494019167 l4.131189606246318,-3.00148494019167z"/>
<path fill="#B31B1B" fill-opacity="0.9" d="m10.81559480312316,-33.28697807033038 l-1.5779740156157995,4.85650464995107 l4.13118960624632,3.0014849401916734 l1.5779740156157995,-4.85650464995107z"/>
<path fill="#B31B1B" fill-opacity="0.37" d="m10.81559480312316,-23.573968770428234 l4.131189606246318,3.00148494019167 l-1.5779740156157978,-4.85650464995107 l-4.131189606246318,-3.00148494019167z"/>
<path fill="#B31B1B" fill-opacity="0.37" d="m10.81559480312316,-17.57099889004489 l4.131189606246318,-3.0014849401916734 l-1.5779740156157995,4.856504649951074 l-4.131189606246318,3.0014849401916734z"/>
<path fill="#B31B1B" fill-opacity="0.9" d="m10.815594803123158,-7.8579895901427435 l4.131189606246322,-3.0014849401916734 l-1.5779740156158013,-4.856504649951074 l-4.131189606246322,3.0014849401916734z"/>
<path fill="#B31B1B" fill-opacity="0.9" d="m10.815594803123158,7.8579895901427435 l4.131189606246322,3.0014849401916734 l-1.5779740156158013,4.856504649951074 l-4.131189606246322,-3.0014849401916734z"/>
<path fill="#B31B1B" fill-opacity="0.37" d="m10.81559480312316,17.57099889004489 l4.131189606246318,3.0014849401916734 l-1.5779740156157995,-4.856504649951074 l-4.131189606246318,-3.0014849401916734z"/>
<path fill="#B31B1B" fill-opacity="0.37" d="m10.81559480312316,23.573968770428234 l4.131189606246318,-3.00148494019167 l-1.5779740156157978,4.85650464995107 l-4.131189606246318,3.00148494019167z"/>
<path fill="#B31B1B" fill-opacity="0.9" d="m10.81559480312316,33.28697807033038 l-1.5779740156157995,-4.85650464995107 l4.13118960624632,-3.0014849401916734 l1.5779740156157995,4.85650464995107z"/>
<path fill="#B31B1B" fill-opacity="0.9" d="m10.815594803123158,-7.8579895901427435 l-1.5779740156157978,4.85650464995107 l4.131189606246323,3.001484940191673 l1.5779740156157978,-4.85650464995107z"/>
<path fill="#B31B1B" fill-opacity="0.9" d="m10.815594803123158,7.8579895901427435 l-1.5779740156157978,-4.85650464995107 l4.131189606246323,-3.001484940191673 l1.5779740156157978,4.85650464995107z"/>
<path fill="#B31B1B" fill-opacity="0.37" d="m16.52475842498528,-15.71597918028549 l-1.5779740156157995,4.856504649951074 l-1.5779740156158013,-4.856504649951074 l1.5779740156157995,-4.856504649951074z"/>
<path fill="#B31B1B" fill-opacity="0.37" d="m16.52475842498528,15.71597918028549 l-1.5779740156157995,-4.856504649951074 l-1.5779740156158013,4.856504649951074 l1.5779740156157995,4.856504649951074z"/>
<path fill="#B31B1B" fill-opacity="0.37" d="m16.52475842498528,-25.428988480187634 l-1.5779740156157978,-4.856504649951074 l-1.5779740156158013,4.856504649951074 l1.5779740156157978,4.856504649951074z"/>
<path fill="#B31B1B" fill-opacity="0.9" d="m10.815594803123158,-7.8579895901427435 l4.131189606246322,-3.0014849401916734 l4.131189606246322,3.0014849401916734 l-4.131189606246322,3.0014849401916734z"/>
<path fill="#B31B1B" fill-opacity="0.9" d="m10.815594803123158,7.8579895901427435 l4.131189606246322,3.0014849401916734 l4.131189606246322,-3.0014849401916734 l-4.131189606246322,-3.0014849401916734z"/>
<path fill="#B31B1B" fill-opacity="0.37" d="m16.52475842498528,25.428988480187634 l-1.5779740156157978,4.856504649951074 l-1.5779740156158013,-4.856504649951074 l1.5779740156157978,-4.856504649951074z"/>
<path fill="#B31B1B" fill-opacity="0.37" d="m16.52475842498528,0.0 l-1.5779740156157995,4.856504649951072 l-1.577974015615796,-4.856504649951072 l1.5779740156157995,-4.856504649951072z"/>
<path fill="#B31B1B" fill-opacity="0.9" d="m14.946784409369478,-20.572483830236564 l1.5779740156158013,-4.85650464995107 l5.106431181261044,0.0 l-1.5779740156158013,4.85650464995107z"/>
<path fill="#B31B1B" fill-opacity="0.9" d="m14.946784409369478,-20.572483830236564 l1.5779740156158013,4.856504649951074 l5.106431181261044,1.7763568394002505e-15 l-1.5779740156158013,-4.856504649951074z"/>
<path fill="#B31B1B" fill-opacity="0.9" d="m14.94678440936948,-10.859474530334417 l5.106431181261042,0.0 l1.5779740156158013,-4.856504649951072 l-5.106431181261042,-0.0z"/>
<path fill="#B31B1B" fill-opacity="0.9" d="m14.94678440936948,-4.856504649951072 l5.106431181261042,0.0 l1.5779740156158013,4.856504649951072 l-5.106431181261042,-0.0z"/>
<path fill="#B31B1B" fill-opacity="0.9" d="m14.94678440936948,4.856504649951072 l5.106431181261042,0.0 l1.5779740156158013,-4.856504649951072 l-5.106431181261042,-0.0z"/>
<path fill="#B31B1B" fill-opacity="0.9" d="m14.94678440936948,10.859474530334417 l5.106431181261042,0.0 l1.5779740156158013,4.856504649951072 l-5.106431181261042,-0.0z"/>
<path fill="#B31B1B" fill-opacity="0.9" d="m14.946784409369478,20.572483830236564 l1.5779740156158013,-4.856504649951074 l5.106431181261044,-1.7763568394002505e-15 l-1.5779740156158013,4.856504649951074z"/>
<path fill="#B31B1B" fill-opacity="0.9" d="m14.946784409369478,20.572483830236564 l1.5779740156158013,4.85650464995107 l5.106431181261044,0.0 l-1.5779740156158013,-4.85650464995107z"/>
<path fill="#B31B1B" fill-opacity="0.9" d="m14.946784409369481,-30.285493130138708 l1.5779740156157978,4.856504649951074 l5.106431181261044,0.0 l-1.5779740156157978,-4.856504649951074z"/>
<path fill="#B31B1B" fill-opacity="0.9" d="m14.946784409369481,30.285493130138708 l1.5779740156157978,-4.856504649951074 l5.106431181261044,0.0 l-1.5779740156157978,4.856504649951074z"/>
<path fill="#B31B1B" fill-opacity="0.37" d="m20.053215590630522,-10.859474530334417 l-5.106431181261042,0.0 l4.131189606246322,3.0014849401916734 l5.106431181261042,-0.0z"/>
<path fill="#B31B1B" fill-opacity="0.37" d="m20.053215590630522,-4.856504649951072 l4.13118960624632,-3.0014849401916717 l-5.106431181261041,0.0 l-4.13118960624632,3.0014849401916717z"/>
<path fill="#B31B1B" fill-opacity="0.37" d="m20.053215590630522,4.856504649951072 l4.13118960624632,3.0014849401916717 l-5.106431181261041,0.0 l-4.13118960624632,-3.0014849401916717z"/>
<path fill="#B31B1B" fill-opacity="0.37" d="m20.053215590630522,10.859474530334417 l-5.106431181261042,0.0 l4.131189606246322,-3.0014849401916734 l5.106431181261042,-0.0z"/>
<path fill="#B31B1B" fill-opacity="0.37" d="m24.184405196876842,-23.573968770428234 l-4.131189606246323,3.00148494019167 l1.5779740156158049,-4.85650464995107 l4.131189606246323,-3.00148494019167z"/>
<path fill="#B31B1B" fill-opacity="0.37" d="m24.184405196876842,-17.570998890044887 l1.5779740156157978,4.856504649951072 l-4.131189606246316,-3.0014849401916734 l-1.5779740156157978,-4.856504649951072z"/>
<path fill="#B31B1B" fill-opacity="0.9" d="m24.184405196876842,-7.8579895901427435 l-4.13118960624632,-3.0014849401916734 l1.5779740156158013,-4.856504649951072 l4.13118960624632,3.0014849401916734z"/>
<path fill="#B31B1B" fill-opacity="0.9" d="m24.184405196876842,-7.8579895901427435 l1.5779740156158013,4.85650464995107 l-4.13118960624632,3.001484940191673 l-1.5779740156158013,-4.85650464995107z"/>
<path fill="#B31B1B" fill-opacity="0.9" d="m24.184405196876842,7.8579895901427435 l1.5779740156158013,-4.85650464995107 l-4.13118960624632,-3.001484940191673 l-1.5779740156158013,4.85650464995107z"/>
<path fill="#B31B1B" fill-opacity="0.9" d="m24.184405196876842,7.8579895901427435 l-4.13118960624632,3.0014849401916734 l1.5779740156158013,4.856504649951072 l4.13118960624632,-3.0014849401916734z"/>
<path fill="#B31B1B" fill-opacity="0.37" d="m24.184405196876842,17.570998890044887 l1.5779740156157978,-4.856504649951072 l-4.131189606246316,3.0014849401916734 l-1.5779740156157978,4.856504649951072z"/>
<path fill="#B31B1B" fill-opacity="0.37" d="m24.184405196876842,23.573968770428234 l-4.131189606246323,-3.00148494019167 l1.5779740156158049,4.85650464995107 l4.131189606246323,3.00148494019167z"/>
<path fill="#B31B1B" fill-opacity="0.9" d="m20.05321559063052,-20.572483830236564 l4.131189606246323,-3.00148494019167 l4.13118960624632,3.0014849401916734 l-4.131189606246323,3.00148494019167z"/>
<path fill="#B31B1B" fill-opacity="0.9" d="m20.05321559063052,20.572483830236564 l4.131189606246323,3.00148494019167 l4.13118960624632,-3.0014849401916734 l-4.131189606246323,-3.00148494019167z"/>
<path fill="#B31B1B" fill-opacity="0.9" d="m29.893568818738963,0.0 l-4.13118960624632,3.001484940191673 l-4.13118960624632,-3.001484940191673 l4.13118960624632,-3.001484940191673z"/>
<path fill="#B31B1B" fill-opacity="0.9" d="m25.76237921249264,-12.714494240093815 l4.13118960624632,-3.0014849401916734 l-1.5779740156157978,-4.856504649951072 l-4.13118960624632,3.0014849401916734z"/>
<path fill="#B31B1B" fill-opacity="0.9" d="m25.76237921249264,12.714494240093815 l4.13118960624632,3.0014849401916734 l-1.5779740156157978,4.856504649951072 l-4.13118960624632,-3.0014849401916734z"/>
<path fill="#B31B1B" fill-opacity="0.37" d="m25.762379212492643,-3.001484940191673 l-1.5779740156158013,-4.85650464995107 l4.13118960624632,3.0014849401916717 l1.5779740156158013,4.85650464995107z"/>
<path fill="#B31B1B" fill-opacity="0.37" d="m25.762379212492643,3.001484940191673 l-1.5779740156158013,4.85650464995107 l4.13118960624632,-3.0014849401916717 l1.5779740156158013,-4.85650464995107z"/>
<path fill="#B31B1B" fill-opacity="0.9" d="m24.184405196876842,-7.8579895901427435 l5.106431181261041,-1.7763568394002505e-15 l1.5779740156158013,-4.856504649951072 l-5.106431181261041,1.7763568394002505e-15z"/>
<path fill="#B31B1B" fill-opacity="0.9" d="m24.184405196876842,7.8579895901427435 l5.106431181261041,1.7763568394002505e-15 l1.5779740156158013,4.856504649951072 l-5.106431181261041,-1.7763568394002505e-15z"/>
<path fill="#B31B1B" fill-opacity="0.37" d="m29.290836378137882,-7.857989590142745 l4.131189606246323,3.0014849401916734 l-5.106431181261044,0.0 l-4.131189606246323,-3.0014849401916734z"/>
<path fill="#B31B1B" fill-opacity="0.37" d="m29.290836378137882,7.857989590142745 l4.131189606246323,-3.0014849401916734 l-5.106431181261044,0.0 l-4.131189606246323,3.0014849401916734z"/>
<path fill="#B31B1B" fill-opacity="0.37" d="m29.89356881873896,-15.715979180285489 l-4.13118960624632,3.0014849401916734 l5.106431181261044,-1.7763568394002505e-15 l4.13118960624632,-3.0014849401916734z"/>
<path fill="#B31B1B" fill-opacity="0.37" d="m29.89356881873896,15.715979180285489 l-4.13118960624632,-3.0014849401916734 l5.106431181261044,1.7763568394002505e-15 l4.13118960624632,3.0014849401916734z"/>
<path fill="#B31B1B" fill-opacity="0.9" d="m35.0,-0.0 l-5.106431181261037,0.0 l-1.5779740156158013,-4.856504649951072 l5.106431181261037,-0.0z"/>
<path fill="#B31B1B" fill-opacity="0.9" d="m35.0,0.0 l-5.106431181261037,0.0 l-1.5779740156158013,4.856504649951072 l5.106431181261037,-0.0z"/>
<path fill="#B31B1B" fill-opacity="0.9" d="m33.422025984384206,-4.856504649951072 l-4.131189606246323,-3.0014849401916734 l1.5779740156158013,-4.856504649951072 l4.131189606246323,3.0014849401916734z"/>
<path fill="#B31B1B" fill-opacity="0.9" d="m33.422025984384206,4.856504649951072 l-4.131189606246323,3.0014849401916734 l1.5779740156158013,4.856504649951072 l4.131189606246323,-3.0014849401916734z"/>
</g>
</svg>