<?xml version="1.0" encoding="utf-8"?>
<svg width="100%" height="100%" viewBox="-70.0 -70.0 140.0 140.0" preserveAspectRatio="xMidYMid meet" version="1.1" baseProfile="full" xmlns="http://www.w3.org/2000/svg">
<g style="stroke:#FFFFFF; stroke-width: 0.18935688187389596; stroke-linejoin: round;">
<path fill="#B31B1B" fill-opacity="0.9" d="m-35.0,0.0 l2.553215590630515,-1.8550197097593994 l-0.9752415750147208,-3.0014849401916726 l-2.553215590630515,1.8550197097593994z"/>
<path fill="#B31B1B" fill-opacity="0.9" d="m-35.0,-0.0 l2.553215590630515,1.8550197097593994 l-0.9752415750147208,3.0014849401916726 l-2.553215590630515,-1.8550197097593994z"/>
<path fill="#B31B1B" fill-opacity="0.37" d="m-31.47154283435476,-4.856504649951073 l-0.9752415750147243,3.0014849401916734 l-0.9752415750147208,-3.0014849401916726 l0.9752415750147243,-3.0014849401916734z"/>
<path fill="#B31B1B" fill-opacity="0.9" d="m-35.0,-0.0 l2.553215590630515,1.8550197097593994 l2.553215590630522,-1.8550197097593994 l-2.553215590630515,-1.8550197097593994z"/>
<path fill="#B31B1B" fill-opacity="0.37" d="m-31.47154283435476,4.856504649951073 l-0.9752415750147243,-3.0014849401916734 l-0.9752415750147208,3.0014849401916726 l0.9752415750147243,3.0014849401916734z"/>
<path fill="#B31B1B" fill-opacity="0.9" d="m-31.471542834354764,-10.859474530334417 l2.553215590630522,-1.8550197097594001 l-0.9752415750147208,-3.0014849401916734 l-2.553215590630522,1.8550197097594001z"/>
<path fill="#B31B1B" fill-opacity="0.9" d="m-31.471542834354764,10.859474530334417 l2.553215590630522,1.8550197097594001 l-0.9752415750147208,3.0014849401916734 l-2.553215590630522,-1.8550197097594001z"/>
<path fill="#B31B1B" fill-opacity="0.9" d="m-32.446784409369485,-7.857989590142744 l0.9752415750147208,-3.0014849401916726 l3.1559480312316026,0.0 l-0.9752415750147208,3.0014849401916726z"/>
<path fill="#B31B1B" fill-opacity="0.9" d="m-32.446784409369485,-7.857989590142744 l0.9752415750147243,3.0014849401916717 l3.155948031231599,-8.881784197001252e-16 l-0.9752415750147243,-3.0014849401916717z"/>
<path fill="#B31B1B" fill-opacity="0.9" d="m-32.446784409369485,-1.8550197097593994 l0.9752415750147243,-3.0014849401916734 l3.155948031231599,-8.881784197001252e-16 l-0.9752415750147243,3.0014849401916734z"/>
<path fill="#B31B1B" fill-opacity="0.9" d="m-32.446784409369485,1.8550197097593994 l0.9752415750147243,3.0014849401916734 l3.155948031231599,8.881784197001252e-16 l-0.9752415750147243,-3.0014849401916734z"/>
<path fill="#B31B1B" fill-opacity="0.9" d="m-32.446784409369485,7.857989590142744 l0.9752415750147243,-3.0014849401916717 l3.155948031231599,8.881784197001252e-16 l-0.9752415750147243,3.0014849401916717z"/>
<path fill="#B31B1B" fill-opacity="0.9" d="m-32.446784409369485,7.857989590142744 l0.9752415750147208,3.0014849401916726 l3.1559480312316026,0.0 l-0.9752415750147208,-3.0014849401916726z"/>
<path fill="#B31B1B" fill-opacity="0.37" d="m-29.290836378137882,-17.57099889004489 l2.553215590630522,1.8550197097594001 l-3.1559480312316026,0.0 l-2.553215590630522,-1.8550197097594001z"/>
<path fill="#B31B1B" fill-opacity="0.37" d="m-29.290836378137882,-1.8550197097593994 l-3.1559480312316026,0.0 l2.553215590630522,1.8550197097593994 l3.1559480312316026,-0.0z"/>
<path fill="#B31B1B" fill-opacity="0.37" d="m-29.290836378137882,1.8550197097593994 l-3.1559480312316026,0.0 l2.553215590630522,-1.8550197097593994 l3.1559480312316026,-0.0z"/>
<path fill="#B31B1B" fill-opacity="0.37" d="m-29.290836378137882,17.57099889004489 l2.553215590630522,-1.8550197097594001 l-3.1559480312316026,0.0 l-2.553215590630522,1.8550197097594001z"/>
<path fill="#B31B1B" fill-opacity="0.37" d="m-28.918327243724242,-12.714494240093817 l-2.553215590630522,1.8550197097594001 l3.1559480312316026,0.0 l2.553215590630522,-1.8550197097594001z"/>
<path fill="#B31B1B" fill-opacity="0.37" d="m-28.918327243724242,12.714494240093817 l-2.553215590630522,-1.8550197097594001 l3.1559480312316026,0.0 l2.553215590630522,1.8550197097594001z"/>
<path fill="#B31B1B" fill-opacity="0.9" d="m-25.76237921249264,-12.714494240093817 l-3.1559480312316026,0.0 l-0.9752415750147208,-3.0014849401916734 l3.1559480312316026,-0.0z"/>
<path fill="#B31B1B" fill-opacity="0.9" d="m-25.76237921249264,12.714494240093817 l-3.1559480312316026,0.0 l-0.9752415750147208,3.0014849401916734 l3.1559480312316026,-0.0z"/>
<path fill="#B31B1B" fill-opacity="0.37" d="m-26.737620787507364,-9.713009299902144 l0.9752415750147243,-3.0014849401916734 l-2.553215590630522,1.8550197097594001 l-0.9752415750147243,3.0014849401916734z"/>
<path fill="#B31B1B" fill-opacity="0.37" d="m-26.737620787507364,-6.002969880383347 l-2.553215590630522,-1.8550197097593983 l0.9752415750147243,3.0014849401916717 l2.553215590630522,1.8550197097593983z"/>
<path fill="#B31B1B" fill-opacity="0.9" d="m-26.737620787507364,-0.0 l-2.5532155906305185,-1.8550197097593994 l0.9752415750147208,-3.0014849401916743 l2.5532155906305185,1.8550197097593994z"/>
<path fill="#B31B1B" fill-opacity="0.9" d="m-26.737620787507364,0.0 l-2.5532155906305185,1.8550197097593994 l0.9752415750147208,3.0014849401916743 l2.5532155906305185,-1.8550197097593994z"/>
<path fill="#B31B1B" fill-opacity="0.37" d="m-26.737620787507364,6.002969880383347 l-2.553215590630522,1.8550197097593983 l0.9752415750147243,-3.0014849401916717 l2.553215590630522,-1.8550197097593983z"/>
<path fill="#B31B1B" fill-opacity="0.37" d="m-26.737620787507364,9.713009299902144 l0.9752415750147243,3.0014849401916734 l-2.553215590630522,-1.8550197097594001 l-0.9752415750147243,-3.0014849401916734z"/>
<path fill="#B31B1B" fill-opacity="0.9" d="m-26.73762078750736,-15.71597918028549 l0.9752415750147208,-3.0014849401916734 l-2.553215590630522,-1.8550197097594001 l-0.9752415750147208,3.0014849401916734z"/>
<path fill="#B31B1B" fill-opacity="0.9" d="m-26.73762078750736,15.71597918028549 l0.9752415750147208,3.0014849401916734 l-2.553215590630522,1.8550197097594001 l-0.9752415750147208,-3.0014849401916734z"/>
<path fill="#B31B1B" fill-opacity="0.9" d="m-29.290836378137886,-7.857989590142745 l2.553215590630522,-1.8550197097593983 l2.553215590630522,1.8550197097593966 l-2.553215590630522,1.8550197097593983z"/>
<path fill="#B31B1B" fill-opacity="0.9" d="m-29.290836378137886,7.857989590142745 l2.553215590630522,1.8550197097593983 l2.553215590630522,-1.8550197097593966 l-2.553215590630522,-1.8550197097593983z"/>
<path fill="#B31B1B" fill-opacity="0.9" d="m-23.209163621862118,-20.572483830236564 l-2.553215590630522,1.8550197097594001 l-2.553215590630522,-1.8550197097594001 l2.553215590630522,-1.8550197097594001z"/>
<path fill="#B31B1B" fill-opacity="0.9" d="m-23.209163621862118,20.572483830236564 l-2.553215590630522,-1.8550197097594001 l-2.553215590630522,1.8550197097594001 l2.553215590630522,1.8550197097594001z"/>
<path fill="#B31B1B" fill-opacity="0.37" d="m-25.76237921249264,-22.427503539995964 l2.553215590630522,1.8550197097594001 l-0.9752415750147243,-3.0014849401916734 l-2.553215590630522,-1.8550197097594001z"/>
<path fill="#B31B1B" fill-opacity="0.37" d="m-25.76237921249264,-18.717464120477164 l2.553215590630522,-1.8550197097594001 l-0.9752415750147279,3.0014849401916734 l-2.553215590630522,1.8550197097594001z"/>
<path fill="#B31B1B" fill-opacity="0.9" d="m-25.76237921249264,-12.714494240093817 l2.553215590630515,-1.8550197097594001 l-0.9752415750147208,-3.0014849401916734 l-2.553215590630515,1.8550197097594001z"/>
<path fill="#B31B1B" fill-opacity="0.9" d="m-25.76237921249264,-12.714494240093817 l2.5532155906305185,1.8550197097593983 l-0.9752415750147208,3.0014849401916717 l-2.5532155906305185,-1.8550197097593983z"/>
<path fill="#B31B1B" fill-opacity="0.9" d="m-25.762379212492643,-3.0014849401916734 l2.553215590630522,-1.8550197097594001 l-0.9752415750147208,-3.0014849401916734 l-2.553215590630522,1.8550197097594001z"/>
<path fill="#B31B1B" fill-opacity="0.9" d="m-25.762379212492643,3.0014849401916734 l2.553215590630522,1.8550197097594001 l-0.9752415750147208,3.0014849401916734 l-2.553215590630522,-1.8550197097594001z"/>
<path fill="#B31B1B" fill-opacity="0.9" d="m-25.76237921249264,12.714494240093817 l2.5532155906305185,-1.8550197097593983 l-0.9752415750147208,-3.0014849401916717 l-2.5532155906305185,1.8550197097593983z"/>
<path fill="#B31B1B" fill-opacity="0.9" d="m-25.76237921249264,12.714494240093817 l2.553215590630515,1.8550197097594001 l-0.9752415750147208,3.0014849401916734 l-2.553215590630515,-1.8550197097594001z"/>
<path fill="#B31B1B" fill-opacity="0.37" d="m-25.76237921249264,18.717464120477164 l2.553215590630522,1.8550197097594001 l-0.9752415750147279,-3.0014849401916734 l-2.553215590630522,-1.8550197097594001z"/>
<path fill="#B31B1B" fill-opacity="0.37" d="m-25.76237921249264,22.427503539995964 l2.553215590630522,-1.8550197097594001 l-0.9752415750147243,3.0014849401916734 l-2.553215590630522,1.8550197097594001z"/>
<path fill="#B31B1B" fill-opacity="0.9" d="m-26.737620787507364,-0.0 l3.155948031231599,0.0 l0.9752415750147208,-3.001484940191674 l-3.155948031231599,-0.0z"/>
<path fill="#B31B1B" fill-opacity="0.9" d="m-26.737620787507364,0.0 l3.155948031231599,0.0 l0.9752415750147208,3.001484940191674 l-3.155948031231599,-0.0z"/>
<path fill="#B31B1B" fill-opacity="0.37" d="m-23.209163621862125,-14.569513949853217 l3.155948031231599,0.0 l-2.5532155906305185,1.8550197097594001 l-3.155948031231599,-0.0z"/>
<path fill="#B31B1B" fill-opacity="0.37" d="m-23.209163621862125,14.569513949853217 l3.155948031231599,0.0 l-2.5532155906305185,-1.8550197097594001 l-3.155948031231599,-0.0z"/>
<path fill="#B31B1B" fill-opacity="0.37" d="m-23.20916362186212,-10.859474530334419 l-2.5532155906305185,-1.8550197097593983 l3.1559480312315955,0.0 l2.5532155906305185,1.8550197097593983z"/>
<path fill="#B31B1B" fill-opacity="0.37" d="m-23.20916362186212,-4.856504649951074 l3.155948031231599,0.0 l-2.553215590630522,1.8550197097593997 l-3.155948031231599,-0.0z"/>
<path fill="#B31B1B" fill-opacity="0.37" d="m-23.20916362186212,4.856504649951074 l3.155948031231599,0.0 l-2.553215590630522,-1.8550197097593997 l-3.155948031231599,-0.0z"/>
<path fill="#B31B1B" fill-opacity="0.37" d="m-23.20916362186212,10.859474530334419 l-2.5532155906305185,1.8550197097593983 l3.1559480312315955,0.0 l2.5532155906305185,-1.8550197097593983z"/>
<path fill="#B31B1B" fill-opacity="0.9" d="m-20.053215590630522,-26.57545371061991 l-0.9752415750147208,3.0014849401916734 l-3.155948031231599,0.0 l0.9752415750147208,-3.0014849401916734z"/>
<path fill="#B31B1B" fill-opacity="0.9" d="m-20.053215590630522,-20.572483830236564 l-0.9752415750147208,-3.0014849401916734 l-3.155948031231599,0.0 l0.9752415750147208,3.0014849401916734z"/>
<path fill="#B31B1B" fill-opacity="0.9" d="m-20.053215590630522,-20.572483830236564 l-0.9752415750147243,3.0014849401916734 l-3.155948031231599,0.0 l0.9752415750147243,-3.0014849401916734z"/>
<path fill="#B31B1B" fill-opacity="0.9" d="m-20.053215590630526,-14.569513949853217 l-0.9752415750147208,-3.0014849401916734 l-3.155948031231599,0.0 l0.9752415750147208,3.0014849401916734z"/>
<path fill="#B31B1B" fill-opacity="0.9" d="m-20.053215590630522,-10.85947453033442 l-3.155948031231599,1.7763568394002505e-15 l-0.9752415750147208,3.0014849401916717 l3.155948031231599,-1.7763568394002505e-15z"/>
<path fill="#B31B1B" fill-opacity="0.9" d="m-20.053215590630522,-4.856504649951074 l-3.155948031231599,0.0 l-0.9752415750147208,-3.0014849401916734 l3.155948031231599,-0.0z"/>
<path fill="#B31B1B" fill-opacity="0.9" d="m-20.053215590630522,4.856504649951074 l-3.155948031231599,0.0 l-0.9752415750147208,3.0014849401916734 l3.155948031231599,-0.0z"/>
<path fill="#B31B1B" fill-opacity="0.9" d="m-20.053215590630522,10.85947453033442 l-3.155948031231599,-1.7763568394002505e-15 l-0.9752415750147208,-3.0014849401916717 l3.155948031231599,1.7763568394002505e-15z"/>
<path fill="#B31B1B" fill-opacity="0.9" d="m-20.053215590630526,14.569513949853217 l-0.9752415750147208,3.0014849401916734 l-3.155948031231599,0.0 l0.9752415750147208,-3.0014849401916734z"/>
<path fill="#B31B1B" fill-opacity="0.9" d="m-20.053215590630522,20.572483830236564 l-0.9752415750147243,-3.0014849401916734 l-3.155948031231599,0.0 l0.9752415750147243,3.0014849401916734z"/>
<path fill="#B31B1B" fill-opacity="0.9" d="m-20.053215590630522,20.572483830236564 l-0.9752415750147208,3.0014849401916734 l-3.155948031231599,0.0 l0.9752415750147208,-3.0014849401916734z"/>
<path fill="#B31B1B" fill-opacity="0.9" d="m-20.053215590630522,26.57545371061991 l-0.9752415750147208,-3.0014849401916734 l-3.155948031231599,0.0 l0.9752415750147208,3.0014849401916734z"/>
<path fill="#B31B1B" fill-opacity="0.37" d="m-21.028457165645243,-1.8550197097594 l-2.553215590630522,1.8550197097594 l0.9752415750147208,-3.001484940191674 l2.553215590630522,-1.8550197097594z"/>
<path fill="#B31B1B" fill-opacity="0.37" d="m-21.028457165645243,1.8550197097594 l-2.553215590630522,-1.8550197097594 l0.9752415750147208,3.001484940191674 l2.553215590630522,1.8550197097594z"/>
<path fill="#B31B1B" fill-opacity="0.9" d="m-23.581672756275765,0.0 l2.553215590630522,1.8550197097594 l2.553215590630522,-1.8550197097594 l-2.553215590630522,-1.8550197097594z"/>
<path fill="#B31B1B" fill-opacity="0.37" d="m-21.028457165645243,-23.573968770428237 l0.9752415750147208,-3.0014849401916734 l0.9752415750147208,3.0014849401916734 l-0.9752415750147208,3.0014849401916734z"/>
<path fill="#B31B1B" fill-opacity="0.37" d="m-21.028457165645246,-17.57099889004489 l0.9752415750147208,3.0014849401916734 l0.9752415750147243,-3.0014849401916734 l-0.9752415750147208,-3.0014849401916734z"/>
<path fill="#B31B1B" fill-opacity="0.9" d="m-17.500000000000004,-12.714494240093819 l-2.5532155906305185,1.8550197097593983 l-2.553215590630522,-1.8550197097593966 l2.5532155906305185,-1.8550197097593983z"/>
<path fill="#B31B1B" fill-opacity="0.37" d="m-21.028457165645243,-7.857989590142746 l0.9752415750147208,3.0014849401916726 l0.9752415750147208,-3.0014849401916717 l-0.9752415750147208,-3.0014849401916726z"/>
<path fill="#B31B1B" fill-opacity="0.37" d="m-21.028457165645243,7.857989590142746 l0.9752415750147208,-3.0014849401916726 l0.9752415750147208,3.0014849401916717 l-0.9752415750147208,3.0014849401916726z"/>
<path fill="#B31B1B" fill-opacity="0.9" d="m-17.500000000000004,12.714494240093819 l-2.5532155906305185,-1.8550197097593983 l-2.553215590630522,1.8550197097593966 l2.5532155906305185,1.8550197097593983z"/>
<path fill="#B31B1B" fill-opacity="0.37" d="m-21.028457165645246,17.57099889004489 l0.9752415750147208,-3.0014849401916734 l0.9752415750147243,3.0014849401916734 l-0.9752415750147208,3.0014849401916734z"/>
<path fill="#B31B1B" fill-opacity="0.37" d="m-21.028457165645243,23.573968770428237 l0.9752415750147208,3.0014849401916734 l0.9752415750147208,-3.0014849401916734 l-0.9752415750147208,-3.0014849401916734z"/>
<path fill="#B31B1B" fill-opacity="0.9" d="m-20.053215590630522,-4.856504649951074 l-0.9752415750147208,3.0014849401916734 l2.553215590630522,1.8550197097594 l0.9752415750147208,-3.0014849401916734z"/>
<path fill="#B31B1B" fill-opacity="0.9" d="m-20.053215590630522,4.856504649951074 l-0.9752415750147208,-3.0014849401916734 l2.553215590630522,-1.8550197097594 l0.9752415750147208,3.0014849401916734z"/>
<path fill="#B31B1B" fill-opacity="0.37" d="m-17.500000000000004,-22.427503539995964 l-2.5532155906305185,1.8550197097594001 l0.9752415750147208,-3.0014849401916734 l2.5532155906305185,-1.8550197097594001z"/>
<path fill="#B31B1B" fill-opacity="0.37" d="m-17.500000000000004,-18.717464120477164 l-2.5532155906305185,-1.8550197097594001 l0.9752415750147208,3.0014849401916734 l2.5532155906305185,1.8550197097594001z"/>
<path fill="#B31B1B" fill-opacity="0.9" d="m-17.500000000000004,-12.714494240093819 l0.9752415750147208,-3.0014849401916717 l-2.5532155906305185,-1.8550197097594001 l-0.9752415750147208,3.0014849401916717z"/>
<path fill="#B31B1B" fill-opacity="0.9" d="m-17.500000000000004,-12.714494240093819 l-2.5532155906305185,1.8550197097593983 l0.9752415750147208,3.001484940191675 l2.5532155906305185,-1.8550197097593983z"/>
<path fill="#B31B1B" fill-opacity="0.37" d="m-17.500000000000004,-6.711524359710472 l0.9752415750147208,-3.0014849401916734 l-2.5532155906305185,1.8550197097594001 l-0.9752415750147208,3.0014849401916734z"/>
<path fill="#B31B1B" fill-opacity="0.37" d="m-17.500000000000004,6.711524359710472 l0.9752415750147208,3.0014849401916734 l-2.5532155906305185,-1.8550197097594001 l-0.9752415750147208,-3.0014849401916734z"/>
<path fill="#B31B1B" fill-opacity="0.9" d="m-17.500000000000004,12.714494240093819 l-2.5532155906305185,-1.8550197097593983 l0.9752415750147208,-3.001484940191675 l2.5532155906305185,1.8550197097593983z"/>
<path fill="#B31B1B" fill-opacity="0.9" d="m-17.500000000000004,12.714494240093819 l0.9752415750147208,3.0014849401916717 l-2.5532155906305185,1.8550197097594001 l-0.9752415750147208,-3.0014849401916717z"/>
<path fill="#B31B1B" fill-opacity="0.37" d="m-17.500000000000004,18.717464120477164 l-2.5532155906305185,1.8550197097594001 l0.9752415750147208,-3.0014849401916734 l2.5532155906305185,-1.8550197097594001z"/>
<path fill="#B31B1B" fill-opacity="0.37" d="m-17.500000000000004,22.427503539995964 l-2.5532155906305185,-1.8550197097594001 l0.9752415750147208,3.0014849401916734 l2.5532155906305185,1.8550197097594001z"/>
<path fill="#B31B1B" fill-opacity="0.9" d="m-17.5,-28.430473420379307 l-2.553215590630522,1.8550197097593966 l0.9752415750147208,3.0014849401916734 l2.553215590630522,-1.8550197097593966z"/>
<path fill="#B31B1B" fill-opacity="0.9" d="m-17.5,28.430473420379307 l-2.553215590630522,-1.8550197097593966 l0.9752415750147208,-3.0014849401916734 l2.553215590630522,1.8550197097593966z"/>
<path fill="#B31B1B" fill-opacity="0.9" d="m-20.053215590630522,-20.572483830236564 l2.5532155906305185,1.8550197097594001 l2.5532155906305203,-1.8550197097594001 l-2.5532155906305185,-1.8550197097594001z"/>
<path fill="#B31B1B" fill-opacity="0.9" d="m-20.053215590630522,20.572483830236564 l2.5532155906305185,-1.8550197097594001 l2.5532155906305203,1.8550197097594001 l-2.5532155906305185,1.8550197097594001z"/>
<path fill="#B31B1B" fill-opacity="0.9" d="m-20.053215590630522,-4.856504649951074 l2.5532155906305185,-1.8550197097593983 l2.553215590630522,1.8550197097594001 l-2.5532155906305185,1.8550197097593983z"/>
<path fill="#B31B1B" fill-opacity="0.37" d="m-16.52475842498528,0.0 l-0.9752415750147208,3.001484940191674 l-0.9752415750147208,-3.001484940191674 l0.9752415750147208,-3.001484940191674z"/>
<path fill="#B31B1B" fill-opacity="0.9" d="m-20.053215590630522,4.856504649951074 l2.5532155906305185,1.8550197097593983 l2.553215590630522,-1.8550197097594001 l-2.5532155906305185,-1.8550197097593983z"/>
<path fill="#B31B1B" fill-opacity="0.9" d="m-16.52475842498528,-25.428988480187634 l-0.9752415750147243,3.00148494019167 l2.5532155906305203,1.8550197097594001 l0.9752415750147243,-3.00148494019167z"/>
<path fill="#B31B1B" fill-opacity="0.9" d="m-16.524758424985283,-15.71597918028549 l-0.9752415750147208,-3.0014849401916734 l2.5532155906305203,-1.8550197097594001 l0.9752415750147208,3.0014849401916734z"/>
<path fill="#B31B1B" fill-opacity="0.9" d="m-16.524758424985283,-9.713009299902145 l-0.9752415750147208,3.0014849401916734 l2.553215590630522,1.8550197097594001 l0.9752415750147208,-3.0014849401916734z"/>
<path fill="#B31B1B" fill-opacity="0.9" d="m-16.524758424985283,9.713009299902145 l-0.9752415750147208,-3.0014849401916734 l2.553215590630522,-1.8550197097594001 l0.9752415750147208,3.0014849401916734z"/>
<path fill="#B31B1B" fill-opacity="0.9" d="m-16.524758424985283,15.71597918028549 l-0.9752415750147208,3.0014849401916734 l2.5532155906305203,1.8550197097594001 l0.9752415750147208,-3.0014849401916734z"/>
<path fill="#B31B1B" fill-opacity="0.9" d="m-16.52475842498528,25.428988480187634 l-0.9752415750147243,-3.00148494019167 l2.5532155906305203,-1.8550197097594001 l0.9752415750147243,3.00148494019167z"/>
<path fill="#B31B1B" fill-opacity="0.9" d="m-17.500000000000004,-12.714494240093819 l0.9752415750147208,-3.0014849401916717 l3.155948031231599,-1.7763568394002505e-15 l-0.9752415750147208,3.0014849401916717z"/>
<path fill="#B31B1B" fill-opacity="0.9" d="m-17.500000000000004,-12.714494240093819 l3.155948031231599,0.0 l0.9752415750147208,3.0014849401916734 l-3.155948031231599,-0.0z"/>
<path fill="#B31B1B" fill-opacity="0.9" d="m-17.500000000000004,12.714494240093819 l3.155948031231599,0.0 l0.9752415750147208,-3.0014849401916734 l-3.155948031231599,-0.0z"/>
<path fill="#B31B1B" fill-opacity="0.9" d="m-17.500000000000004,12.714494240093819 l0.9752415750147208,3.0014849401916717 l3.155948031231599,1.7763568394002505e-15 l-0.9752415750147208,-3.0014849401916717z"/>
<path fill="#B31B1B" fill-opacity="0.9" d="m-17.5,-28.430473420379307 l3.1559480312315955,0.0 l0.9752415750147208,3.0014849401916734 l-3.1559480312315955,-0.0z"/>
<path fill="#B31B1B" fill-opacity="0.9" d="m-17.5,28.430473420379307 l3.1559480312315955,0.0 l0.9752415750147208,-3.0014849401916734 l-3.1559480312315955,-0.0z"/>
<path fill="#B31B1B" fill-opacity="0.9" d="m-17.5,-3.001484940191674 l0.9752415750147208,3.001484940191674 l3.155948031231601,0.0 l-0.9752415750147208,-3.001484940191674z"/>
<path fill="#B31B1B" fill-opacity="0.9" d="m-17.5,3.001484940191674 l0.9752415750147208,-3.001484940191674 l3.155948031231601,0.0 l-0.9752415750147208,3.001484940191674z"/>
<path fill="#B31B1B" fill-opacity="0.37" d="m-14.344051968768404,-28.430473420379307 l2.553215590630522,-1.8550197097594001 l-3.155948031231599,3.552713678800501e-15 l-2.553215590630522,1.8550197097594001z"/>
<path fill="#B31B1B" fill-opacity="0.37" d="m-14.344051968768404,28.430473420379307 l2.553215590630522,1.8550197097594001 l-3.155948031231599,-3.552713678800501e-15 l-2.553215590630522,-1.8550197097594001z"/>
<path fill="#B31B1B" fill-opacity="0.37" d="m-14.344051968768401,-3.001484940191673 l-3.155948031231599,-8.881784197001252e-16 l2.5532155906305185,-1.855019709759398 l3.155948031231599,8.881784197001252e-16z"/>
<path fill="#B31B1B" fill-opacity="0.37" d="m-14.344051968768401,3.001484940191673 l-3.155948031231599,8.881784197001252e-16 l2.5532155906305185,1.855019709759398 l3.155948031231599,-8.881784197001252e-16z"/>
<path fill="#B31B1B" fill-opacity="0.37" d="m-13.97154283435476,-23.573968770428234 l-2.5532155906305185,-1.8550197097594001 l3.1559480312315955,0.0 l2.5532155906305185,1.8550197097594001z"/>
<path fill="#B31B1B" fill-opacity="0.37" d="m-13.97154283435476,-17.57099889004489 l3.1559480312315973,0.0 l-2.5532155906305203,1.8550197097593983 l-3.1559480312315973,-0.0z"/>
<path fill="#B31B1B" fill-opacity="0.37" d="m-13.97154283435476,-7.857989590142745 l-2.553215590630522,-1.8550197097594001 l3.155948031231599,0.0 l2.553215590630522,1.8550197097594001z"/>
<path fill="#B31B1B" fill-opacity="0.37" d="m-13.97154283435476,7.857989590142745 l-2.553215590630522,1.8550197097594001 l3.155948031231599,0.0 l2.553215590630522,-1.8550197097594001z"/>
<path fill="#B31B1B" fill-opacity="0.37" d="m-13.97154283435476,17.57099889004489 l3.1559480312315973,0.0 l-2.5532155906305203,-1.8550197097593983 l-3.1559480312315973,-0.0z"/>
<path fill="#B31B1B" fill-opacity="0.37" d="m-13.97154283435476,23.573968770428234 l-2.5532155906305185,1.8550197097594001 l3.1559480312315955,0.0 l2.5532155906305185,-1.8550197097594001z"/>
<path fill="#B31B1B" fill-opacity="0.9" d="m-10.815594803123162,-23.573968770428234 l-0.9752415750147208,3.00148494019167 l-3.155948031231601,0.0 l0.9752415750147208,-3.00148494019167z"/>
<path fill="#B31B1B" fill-opacity="0.9" d="m-10.815594803123163,-17.57099889004489 l-0.975241575014719,-3.0014849401916734 l-3.155948031231601,0.0 l0.975241575014719,3.0014849401916734z"/>
<path fill="#B31B1B" fill-opacity="0.9" d="m-10.815594803123163,-7.857989590142747 l-3.1559480312315973,1.7763568394002505e-15 l-0.9752415750147208,3.0014849401916734 l3.1559480312315973,-1.7763568394002505e-15z"/>
<path fill="#B31B1B" fill-opacity="0.9" d="m-10.815594803123163,7.857989590142747 l-3.1559480312315973,-1.7763568394002505e-15 l-0.9752415750147208,-3.0014849401916734 l3.1559480312315973,1.7763568394002505e-15z"/>
<path fill="#B31B1B" fill-opacity="0.9" d="m-10.815594803123163,17.57099889004489 l-0.975241575014719,3.0014849401916734 l-3.155948031231601,0.0 l0.975241575014719,-3.0014849401916734z"/>
<path fill="#B31B1B" fill-opacity="0.9" d="m-10.815594803123162,23.573968770428234 l-0.9752415750147208,-3.00148494019167 l-3.155948031231601,0.0 l0.9752415750147208,3.00148494019167z"/>
<path fill="#B31B1B" fill-opacity="0.9" d="m-10.815594803123162,-33.28697807033038 l-0.9752415750147208,3.00148494019167 l-3.155948031231599,3.552713678800501e-15 l0.9752415750147208,-3.00148494019167z"/>
<path fill="#B31B1B" fill-opacity="0.9" d="m-10.815594803123162,33.28697807033038 l-0.9752415750147208,-3.00148494019167 l-3.155948031231599,-3.552713678800501e-15 l0.9752415750147208,3.00148494019167z"/>
<path fill="#B31B1B" fill-opacity="0.9" d="m-11.790836378137882,-30.285493130138708 l-2.553215590630522,1.8550197097594001 l0.9752415750147208,3.0014849401916734 l2.553215590630522,-1.8550197097594001z"/>
<path fill="#B31B1B" fill-opacity="0.37" d="m-11.790836378137882,-14.569513949853219 l-2.553215590630522,1.8550197097594001 l0.9752415750147208,-3.0014849401916734 l2.553215590630522,-1.8550197097594001z"/>
<path fill="#B31B1B" fill-opacity="0.37" d="m-11.790836378137882,-10.859474530334419 l-2.553215590630522,-1.8550197097594001 l0.9752415750147208,3.0014849401916734 l2.553215590630522,1.8550197097594001z"/>
<path fill="#B31B1B" fill-opacity="0.37" d="m-11.790836378137882,10.859474530334419 l-2.553215590630522,1.8550197097594001 l0.9752415750147208,-3.0014849401916734 l2.553215590630522,-1.8550197097594001z"/>
<path fill="#B31B1B" fill-opacity="0.37" d="m-11.790836378137882,14.569513949853219 l-2.553215590630522,-1.8550197097594001 l0.9752415750147208,3.0014849401916734 l2.553215590630522,1.8550197097594001z"/>
<path fill="#B31B1B" fill-opacity="0.9" d="m-11.790836378137882,30.285493130138708 l-2.553215590630522,-1.8550197097594001 l0.9752415750147208,-3.0014849401916734 l2.553215590630522,1.8550197097594001z"/>
<path fill="#B31B1B" fill-opacity="0.9" d="m-11.790836378137882,-4.856504649951074 l0.9752415750147225,3.001484940191674 l-2.5532155906305185,1.8550197097593997 l-0.9752415750147225,-3.001484940191674z"/>
<path fill="#B31B1B" fill-opacity="0.9" d="m-11.790836378137882,4.856504649951074 l0.9752415750147225,-3.001484940191674 l-2.5532155906305185,-1.8550197097593997 l-0.9752415750147225,3.001484940191674z"/>
<path fill="#B31B1B" fill-opacity="0.9" d="m-14.344051968768404,-12.714494240093819 l2.553215590630522,-1.8550197097594001 l2.5532155906305203,1.855019709759402 l-2.553215590630522,1.8550197097594001z"/>
<path fill="#B31B1B" fill-opacity="0.9" d="m-14.344051968768404,12.714494240093819 l2.553215590630522,1.8550197097594001 l2.5532155906305203,-1.855019709759402 l-2.553215590630522,-1.8550197097594001z"/>
<path fill="#B31B1B" fill-opacity="0.9" d="m-8.262379212492641,-25.428988480187634 l-2.5532155906305203,-1.8550197097594001 l-2.553215590630522,1.8550197097594001 l2.5532155906305203,1.8550197097594001z"/>
<path fill="#B31B1B" fill-opacity="0.37" d="m-11.790836378137882,-20.572483830236564 l0.975241575014719,3.0014849401916734 l0.9752415750147225,-3.0014849401916734 l-0.975241575014719,-3.0014849401916734z"/>
<path fill="#B31B1B" fill-opacity="0.37" d="m-11.790836378137882,20.572483830236564 l0.975241575014719,-3.0014849401916734 l0.9752415750147225,3.0014849401916734 l-0.975241575014719,3.0014849401916734z"/>
<path fill="#B31B1B" fill-opacity="0.9" d="m-8.262379212492641,25.428988480187634 l-2.5532155906305203,1.8550197097594001 l-2.553215590630522,-1.8550197097594001 l2.5532155906305203,-1.8550197097594001z"/>
<path fill="#B31B1B" fill-opacity="0.9" d="m-8.26237921249264,0.0 l-2.5532155906305203,1.8550197097593997 l-2.5532155906305185,-1.8550197097593997 l2.5532155906305203,-1.8550197097593997z"/>
<path fill="#B31B1B" fill-opacity="0.9" d="m-10.815594803123163,-17.57099889004489 l-0.975241575014719,3.0014849401916717 l2.5532155906305203,1.855019709759402 l0.975241575014719,-3.0014849401916717z"/>
<path fill="#B31B1B" fill-opacity="0.9" d="m-10.815594803123163,-7.857989590142747 l-0.975241575014719,-3.0014849401916717 l2.5532155906305203,-1.8550197097593983 l0.975241575014719,3.0014849401916717z"/>
<path fill="#B31B1B" fill-opacity="0.9" d="m-10.815594803123163,-7.857989590142747 l2.553215590630522,1.8550197097594001 l-0.9752415750147208,3.0014849401916734 l-2.553215590630522,-1.8550197097594001z"/>
<path fill="#B31B1B" fill-opacity="0.9" d="m-10.815594803123163,7.857989590142747 l2.553215590630522,-1.8550197097594001 l-0.9752415750147208,-3.0014849401916734 l-2.553215590630522,1.8550197097594001z"/>
<path fill="#B31B1B" fill-opacity="0.9" d="m-10.815594803123163,7.857989590142747 l-0.975241575014719,3.0014849401916717 l2.5532155906305203,1.8550197097593983 l0.975241575014719,-3.0014849401916717z"/>
<path fill="#B31B1B" fill-opacity="0.9" d="m-10.815594803123163,17.57099889004489 l-0.975241575014719,-3.0014849401916717 l2.5532155906305203,-1.855019709759402 l0.975241575014719,3.0014849401916717z"/>
<path fill="#B31B1B" fill-opacity="0.9" d="m-10.815594803123162,-33.28697807033038 l2.553215590630522,1.8550197097593966 l-0.9752415750147225,3.0014849401916734 l-2.553215590630522,-1.8550197097593966z"/>
<path fill="#B31B1B" fill-opacity="0.37" d="m-10.815594803123162,-27.284008189947034 l-0.9752415750147208,-3.0014849401916734 l2.5532155906305203,1.8550197097594001 l0.9752415750147208,3.0014849401916734z"/>
<path fill="#B31B1B" fill-opacity="0.37" d="m-10.81559480312316,-1.8550197097593997 l2.5532155906305203,1.8550197097593997 l-0.9752415750147225,-3.0014849401916734 l-2.5532155906305203,-1.8550197097593997z"/>
<path fill="#B31B1B" fill-opacity="0.37" d="m-10.81559480312316,1.8550197097593997 l2.5532155906305203,-1.8550197097593997 l-0.9752415750147225,3.0014849401916734 l-2.5532155906305203,1.8550197097593997z"/>
<path fill="#B31B1B" fill-opacity="0.37" d="m-10.815594803123162,27.284008189947034 l-0.9752415750147208,3.0014849401916734 l2.5532155906305203,-1.8550197097594001 l0.9752415750147208,-3.0014849401916734z"/>
<path fill="#B31B1B" fill-opacity="0.9" d="m-10.815594803123162,33.28697807033038 l2.553215590630522,-1.8550197097593966 l-0.9752415750147225,-3.0014849401916734 l-2.553215590630522,1.8550197097593966z"/>
<path fill="#B31B1B" fill-opacity="0.9" d="m-8.262379212492641,-25.428988480187634 l0.9752415750147225,3.0014849401916734 l-2.553215590630522,1.8550197097593966 l-0.9752415750147225,-3.0014849401916734z"/>
<path fill="#B31B1B" fill-opacity="0.37" d="m-8.262379212492641,-19.426018599804287 l0.9752415750147225,-3.0014849401916734 l-2.553215590630522,1.8550197097593966 l-0.9752415750147225,3.0014849401916734z"/>
<path fill="#B31B1B" fill-opacity="0.37" d="m-8.262379212492641,19.426018599804287 l0.9752415750147225,3.0014849401916734 l-2.553215590630522,-1.8550197097593966 l-0.9752415750147225,-3.0014849401916734z"/>
<path fill="#B31B1B" fill-opacity="0.9" d="m-8.262379212492641,25.428988480187634 l0.9752415750147225,-3.0014849401916734 l-2.553215590630522,-1.8550197097593966 l-0.9752415750147225,3.0014849401916734z"/>
<path fill="#B31B1B" fill-opacity="0.9" d="m-10.815594803123162,-33.28697807033038 l2.553215590630522,1.8550197097593966 l2.5532155906305185,-1.8550197097593966 l-2.553215590630522,-1.8550197097593966z"/>
<path fill="#B31B1B" fill-opacity="0.9" d="m-10.815594803123163,-17.57099889004489 l2.553215590630522,-1.8550197097593966 l2.553215590630522,1.8550197097594001 l-2.553215590630522,1.8550197097593966z"/>
<path fill="#B31B1B" fill-opacity="0.9" d="m-10.815594803123163,-7.857989590142747 l2.553215590630522,1.8550197097594001 l2.553215590630521,-1.8550197097593983 l-2.553215590630522,-1.8550197097594001z"/>
<path fill="#B31B1B" fill-opacity="0.37" d="m-7.28713763747792,-3.0014849401916734 l-0.9752415750147216,-3.0014849401916734 l-0.9752415750147208,3.0014849401916734 l0.9752415750147216,3.0014849401916734z"/>
<path fill="#B31B1B" fill-opacity="0.37" d="m-7.28713763747792,3.0014849401916734 l-0.9752415750147216,3.0014849401916734 l-0.9752415750147208,-3.0014849401916734 l0.9752415750147216,-3.0014849401916734z"/>
<path fill="#B31B1B" fill-opacity="0.9" d="m-10.815594803123163,7.857989590142747 l2.553215590630522,-1.8550197097594001 l2.553215590630521,1.8550197097593983 l-2.553215590630522,1.8550197097594001z"/>
<path fill="#B31B1B" fill-opacity="0.9" d="m-10.815594803123163,17.57099889004489 l2.553215590630522,1.8550197097593966 l2.553215590630522,-1.8550197097594001 l-2.553215590630522,-1.8550197097593966z"/>
<path fill="#B31B1B" fill-opacity="0.9" d="m-10.815594803123162,33.28697807033038 l2.553215590630522,-1.8550197097593966 l2.5532155906305185,1.8550197097593966 l-2.553215590630522,1.8550197097593966z"/>
<path fill="#B31B1B" fill-opacity="0.37" d="m-7.287137637477919,-28.430473420379307 l-0.9752415750147208,-3.0014849401916734 l-0.9752415750147225,3.0014849401916734 l0.9752415750147208,3.0014849401916734z"/>
<path fill="#B31B1B" fill-opacity="0.37" d="m-7.287137637477919,-12.714494240093817 l-0.9752415750147225,-3.0014849401916734 l-0.9752415750147208,3.0014849401916734 l0.9752415750147225,3.0014849401916734z"/>
<path fill="#B31B1B" fill-opacity="0.37" d="m-7.287137637477919,12.714494240093817 l-0.9752415750147225,3.0014849401916734 l-0.9752415750147208,-3.0014849401916734 l0.9752415750147225,-3.0014849401916734z"/>
<path fill="#B31B1B" fill-opacity="0.37" d="m-7.287137637477919,28.430473420379307 l-0.9752415750147208,3.0014849401916734 l-0.9752415750147225,-3.0014849401916734 l0.9752415750147208,-3.0014849401916734z"/>
<path fill="#B31B1B" fill-opacity="0.9" d="m-7.287137637477919,-22.42750353999596 l2.553215590630521,1.8550197097594001 l-0.9752415750147216,3.0014849401916734 l-2.553215590630521,-1.8550197097594001z"/>
<path fill="#B31B1B" fill-opacity="0.9" d="m-7.287137637477919,22.42750353999596 l2.553215590630521,-1.8550197097594001 l-0.9752415750147216,-3.0014849401916734 l-2.553215590630521,1.8550197097594001z"/>
<path fill="#B31B1B" fill-opacity="0.9" d="m-8.262379212492641,-6.002969880383347 l3.155948031231599,0.0 l0.9752415750147216,3.0014849401916734 l-3.155948031231599,-0.0z"/>
<path fill="#B31B1B" fill-opacity="0.9" d="m-8.262379212492641,6.002969880383347 l3.155948031231599,0.0 l0.9752415750147216,-3.0014849401916734 l-3.155948031231599,-0.0z"/>
<path fill="#B31B1B" fill-opacity="0.9" d="m-8.262379212492641,-25.428988480187634 l0.9752415750147225,3.0014849401916734 l3.155948031231599,0.0 l-0.9752415750147225,-3.0014849401916734z"/>
<path fill="#B31B1B" fill-opacity="0.9" d="m-8.262379212492641,-15.71597918028549 l3.1559480312316,3.552713678800501e-15 l0.9752415750147216,3.0014849401916717 l-3.1559480312316,-3.552713678800501e-15z"/>
<path fill="#B31B1B" fill-opacity="0.9" d="m-8.262379212492641,-9.713009299902144 l3.155948031231599,0.0 l0.9752415750147225,-3.0014849401916717 l-3.155948031231599,-0.0z"/>
<path fill="#B31B1B" fill-opacity="0.9" d="m-8.262379212492641,9.713009299902144 l3.155948031231599,0.0 l0.9752415750147225,3.0014849401916717 l-3.155948031231599,-0.0z"/>
<path fill="#B31B1B" fill-opacity="0.9" d="m-8.262379212492641,15.71597918028549 l3.1559480312316,-3.552713678800501e-15 l0.9752415750147216,-3.0014849401916717 l-3.1559480312316,3.552713678800501e-15z"/>
<path fill="#B31B1B" fill-opacity="0.9" d="m-8.262379212492641,25.428988480187634 l0.9752415750147225,-3.0014849401916734 l3.155948031231599,0.0 l-0.9752415750147225,3.0014849401916734z"/>
<path fill="#B31B1B" fill-opacity="0.9" d="m-8.26237921249264,-31.43195836057098 l3.1559480312315973,0.0 l0.9752415750147234,3.0014849401916734 l-3.1559480312315973,-0.0z"/>
<path fill="#B31B1B" fill-opacity="0.9" d="m-8.262379212492641,-25.428988480187634 l0.9752415750147225,-3.0014849401916734 l3.1559480312316,0.0 l-0.9752415750147225,3.0014849401916734z"/>
<path fill="#B31B1B" fill-opacity="0.9" d="m-8.26237921249264,-0.0 l0.9752415750147199,-3.0014849401916734 l3.155948031231599,0.0 l-0.9752415750147199,3.0014849401916734z"/>
<path fill="#B31B1B" fill-opacity="0.9" d="m-8.26237921249264,0.0 l0.9752415750147199,3.0014849401916734 l3.155948031231599,0.0 l-0.9752415750147199,-3.0014849401916734z"/>
<path fill="#B31B1B" fill-opacity="0.9" d="m-8.262379212492641,25.428988480187634 l0.9752415750147225,3.0014849401916734 l3.1559480312316,0.0 l-0.9752415750147225,-3.0014849401916734z"/>
<path fill="#B31B1B" fill-opacity="0.9" d="m-8.26237921249264,31.43195836057098 l3.1559480312315973,0.0 l0.9752415750147234,-3.0014849401916734 l-3.1559480312315973,-0.0z"/>
<path fill="#B31B1B" fill-opacity="0.37" d="m-5.106431181261042,-31.43195836057098 l-3.1559480312315973,0.0 l2.5532155906305185,-1.8550197097593966 l3.1559480312315973,-0.0z"/>
<path fill="#B31B1B" fill-opacity="0.37" d="m-5.106431181261042,31.43195836057098 l-3.1559480312315973,0.0 l2.5532155906305185,1.8550197097593966 l3.1559480312315973,-0.0z"/>
<path fill="#B31B1B" fill-opacity="0.37" d="m-5.1064311812610415,-15.715979180285487 l2.553215590630521,-1.8550197097594001 l-3.155948031231599,0.0 l-2.553215590630521,1.8550197097594001z"/>
<path fill="#B31B1B" fill-opacity="0.37" d="m-5.106431181261042,-9.713009299902144 l2.5532155906305216,1.8550197097593992 l-3.1559480312315995,-8.881784197001252e-16 l-2.5532155906305216,-1.8550197097593992z"/>
<path fill="#B31B1B" fill-opacity="0.37" d="m-5.106431181261042,-6.002969880383347 l-3.155948031231599,0.0 l2.553215590630521,-1.8550197097593983 l3.155948031231599,-0.0z"/>
<path fill="#B31B1B" fill-opacity="0.37" d="m-5.106431181261042,6.002969880383347 l-3.155948031231599,0.0 l2.553215590630521,1.8550197097593983 l3.155948031231599,-0.0z"/>
<path fill="#B31B1B" fill-opacity="0.37" d="m-5.106431181261042,9.713009299902144 l2.5532155906305216,-1.8550197097593992 l-3.1559480312315995,8.881784197001252e-16 l-2.5532155906305216,1.8550197097593992z"/>
<path fill="#B31B1B" fill-opacity="0.37" d="m-5.1064311812610415,15.715979180285487 l2.553215590630521,1.8550197097594001 l-3.155948031231599,0.0 l-2.553215590630521,-1.8550197097594001z"/>
<path fill="#B31B1B" fill-opacity="0.37" d="m-4.733922046847398,-20.57248383023656 l-2.553215590630521,-1.8550197097594001 l3.155948031231599,0.0 l2.553215590630521,1.8550197097594001z"/>
<path fill="#B31B1B" fill-opacity="0.37" d="m-4.733922046847398,20.57248383023656 l-2.553215590630521,1.8550197097594001 l3.155948031231599,0.0 l2.553215590630521,-1.8550197097594001z"/>
<path fill="#B31B1B" fill-opacity="0.9" d="m-1.5779740156157986,-20.57248383023656 l-3.155948031231599,0.0 l-0.9752415750147216,3.0014849401916734 l3.155948031231599,-0.0z"/>
<path fill="#B31B1B" fill-opacity="0.9" d="m-1.5779740156157986,20.57248383023656 l-3.155948031231599,0.0 l-0.9752415750147216,-3.0014849401916734 l3.155948031231599,-0.0z"/>
<path fill="#B31B1B" fill-opacity="0.9" d="m-2.553215590630523,-33.28697807033038 l-2.5532155906305194,1.8550197097593966 l0.9752415750147234,3.0014849401916734 l2.5532155906305194,-1.8550197097593966z"/>
<path fill="#B31B1B" fill-opacity="0.9" d="m-2.5532155906305207,-7.857989590142744 l-2.5532155906305216,1.8550197097593975 l0.9752415750147216,3.0014849401916734 l2.5532155906305216,-1.8550197097593975z"/>
<path fill="#B31B1B" fill-opacity="0.37" d="m-2.553215590630521,-1.8550197097593997 l0.9752415750147216,-3.001484940191672 l-2.553215590630521,1.8550197097593983 l-0.9752415750147216,3.001484940191672z"/>
<path fill="#B31B1B" fill-opacity="0.37" d="m-2.553215590630521,1.8550197097593997 l0.9752415750147216,3.001484940191672 l-2.553215590630521,-1.8550197097593983 l-0.9752415750147216,-3.001484940191672z"/>
<path fill="#B31B1B" fill-opacity="0.9" d="m-2.5532155906305207,7.857989590142744 l-2.5532155906305216,-1.8550197097593975 l0.9752415750147216,-3.0014849401916734 l2.5532155906305216,1.8550197097593975z"/>
<path fill="#B31B1B" fill-opacity="0.9" d="m-2.553215590630523,33.28697807033038 l-2.5532155906305194,-1.8550197097593966 l0.9752415750147234,-3.0014849401916734 l2.5532155906305194,1.8550197097593966z"/>
<path fill="#B31B1B" fill-opacity="0.37" d="m-2.5532155906305203,-23.573968770428237 l0.9752415750147216,3.001484940191677 l-2.553215590630521,-1.8550197097594001 l-0.9752415750147216,-3.001484940191677z"/>
<path fill="#B31B1B" fill-opacity="0.9" d="m-2.5532155906305203,-17.570998890044887 l-2.553215590630521,1.8550197097594001 l0.9752415750147216,3.0014849401916717 l2.553215590630521,-1.8550197097594001z"/>
<path fill="#B31B1B" fill-opacity="0.9" d="m-2.5532155906305207,-7.857989590142744 l0.9752415750147214,-3.0014849401916726 l-2.5532155906305203,-1.8550197097593983 l-0.9752415750147214,3.0014849401916726z"/>
<path fill="#B31B1B" fill-opacity="0.9" d="m-2.5532155906305207,7.857989590142744 l0.9752415750147214,3.0014849401916726 l-2.5532155906305203,1.8550197097593983 l-0.9752415750147214,-3.0014849401916726z"/>
<path fill="#B31B1B" fill-opacity="0.9" d="m-2.5532155906305203,17.570998890044887 l-2.553215590630521,-1.8550197097594001 l0.9752415750147216,-3.0014849401916717 l2.553215590630521,1.8550197097594001z"/>
<path fill="#B31B1B" fill-opacity="0.37" d="m-2.5532155906305203,23.573968770428237 l0.9752415750147216,-3.001484940191677 l-2.553215590630521,1.8550197097594001 l-0.9752415750147216,3.001484940191677z"/>
<path fill="#B31B1B" fill-opacity="0.37" d="m-2.55321559063052,-27.284008189947034 l0.9752415750147194,-3.0014849401916734 l-2.5532155906305185,1.8550197097594001 l-0.9752415750147194,3.0014849401916734z"/>
<path fill="#B31B1B" fill-opacity="0.37" d="m-2.55321559063052,27.284008189947034 l0.9752415750147194,3.0014849401916734 l-2.5532155906305185,-1.8550197097594001 l-0.9752415750147194,-3.0014849401916734z"/>
<path fill="#B31B1B" fill-opacity="0.9" d="m-5.106431181261042,-25.428988480187634 l2.553215590630522,1.8550197097593966 l2.553215590630521,-1.8550197097593966 l-2.553215590630522,-1.8550197097593966z"/>
<path fill="#B31B1B" fill-opacity="0.9" d="m-5.1064311812610415,0.0 l2.5532155906305203,1.8550197097593997 l2.553215590630521,-1.8550197097593997 l-2.5532155906305203,-1.8550197097593997z"/>
<path fill="#B31B1B" fill-opacity="0.9" d="m-5.106431181261042,25.428988480187634 l2.553215590630522,-1.8550197097593966 l2.553215590630521,1.8550197097593966 l-2.553215590630522,1.8550197097593966z"/>
<path fill="#B31B1B" fill-opacity="0.9" d="m0.9752415750147221,-12.714494240093817 l-2.553215590630521,1.8550197097594001 l-2.5532155906305203,-1.8550197097593983 l2.553215590630521,-1.8550197097594001z"/>
<path fill="#B31B1B" fill-opacity="0.9" d="m0.9752415750147221,12.714494240093817 l-2.553215590630521,-1.8550197097594001 l-2.5532155906305203,1.8550197097593983 l2.553215590630521,1.8550197097594001z"/>
<path fill="#B31B1B" fill-opacity="0.37" d="m-1.5779740156157993,-14.569513949853214 l-0.975241575014721,-3.0014849401916734 l2.55321559063052,1.8550197097593983 l0.975241575014721,3.0014849401916734z"/>
<path fill="#B31B1B" fill-opacity="0.37" d="m-1.5779740156157993,14.569513949853214 l-0.975241575014721,3.0014849401916734 l2.55321559063052,-1.8550197097593983 l0.975241575014721,-3.0014849401916734z"/>
<path fill="#B31B1B" fill-opacity="0.9" d="m-1.5779740156158004,-30.285493130138708 l2.5532155906305216,1.8550197097594001 l-0.9752415750147204,3.0014849401916734 l-2.5532155906305216,-1.8550197097594001z"/>
<path fill="#B31B1B" fill-opacity="0.37" d="m-1.5779740156157993,-10.859474530334417 l-0.9752415750147214,3.0014849401916726 l2.5532155906305203,-1.8550197097593992 l0.9752415750147214,-3.0014849401916726z"/>
<path fill="#B31B1B" fill-opacity="0.9" d="m-1.5779740156157995,-4.856504649951072 l2.553215590630521,1.8550197097593988 l-0.9752415750147214,3.001484940191673 l-2.553215590630521,-1.8550197097593988z"/>
<path fill="#B31B1B" fill-opacity="0.9" d="m-1.5779740156157995,4.856504649951072 l2.553215590630521,-1.8550197097593988 l-0.9752415750147214,-3.001484940191673 l-2.553215590630521,1.8550197097593988z"/>
<path fill="#B31B1B" fill-opacity="0.37" d="m-1.5779740156157993,10.859474530334417 l-0.9752415750147214,-3.0014849401916726 l2.5532155906305203,1.8550197097593992 l0.9752415750147214,3.0014849401916726z"/>
<path fill="#B31B1B" fill-opacity="0.9" d="m-1.5779740156158004,30.285493130138708 l2.5532155906305216,-1.8550197097594001 l-0.9752415750147204,-3.0014849401916734 l-2.5532155906305216,1.8550197097594001z"/>
<path fill="#B31B1B" fill-opacity="0.9" d="m-1.5779740156157986,-20.57248383023656 l2.55321559063052,1.8550197097594001 l-0.9752415750147216,3.0014849401916717 l-2.55321559063052,-1.8550197097594001z"/>
<path fill="#B31B1B" fill-opacity="0.9" d="m-1.5779740156157986,20.57248383023656 l2.55321559063052,-1.8550197097594001 l-0.9752415750147216,-3.0014849401916717 l-2.55321559063052,1.8550197097594001z"/>
<path fill="#B31B1B" fill-opacity="0.9" d="m-1.5779740156157986,-20.57248383023656 l-0.9752415750147216,-3.001484940191677 l2.553215590630521,-1.8550197097593966 l0.9752415750147216,3.001484940191677z"/>
<path fill="#B31B1B" fill-opacity="0.9" d="m-1.5779740156157986,20.57248383023656 l-0.9752415750147216,3.001484940191677 l2.553215590630521,1.8550197097593966 l0.9752415750147216,-3.001484940191677z"/>
<path fill="#B31B1B" fill-opacity="0.9" d="m-2.553215590630523,-33.28697807033038 l3.155948031231599,0.0 l0.9752415750147225,3.0014849401916734 l-3.155948031231599,-0.0z"/>
<path fill="#B31B1B" fill-opacity="0.9" d="m-2.553215590630523,33.28697807033038 l3.155948031231599,0.0 l0.9752415750147225,-3.0014849401916734 l-3.155948031231599,-0.0z"/>
<path fill="#B31B1B" fill-opacity="0.9" d="m-2.5532155906305207,-7.857989590142744 l3.1559480312315986,-8.881784197001252e-16 l0.9752415750147215,3.0014849401916734 l-3.1559480312315986,8.881784197001252e-16z"/>
<path fill="#B31B1B" fill-opacity="0.9" d="m-2.5532155906305207,7.857989590142744 l3.1559480312315986,8.881784197001252e-16 l0.9752415750147215,-3.0014849401916734 l-3.1559480312315986,-8.881784197001252e-16z"/>
<path fill="#B31B1B" fill-opacity="0.37" d="m0.6027324406010778,-7.857989590142745 l2.553215590630521,-1.8550197097594001 l-3.155948031231599,1.7763568394002505e-15 l-2.553215590630521,1.8550197097594001z"/>
<path fill="#B31B1B" fill-opacity="0.37" d="m0.6027324406010778,7.857989590142745 l2.553215590630521,1.8550197097594001 l-3.155948031231599,-1.7763568394002505e-15 l-2.553215590630521,-1.8550197097594001z"/>
<path fill="#B31B1B" fill-opacity="0.37" d="m0.9752415750147213,-28.430473420379307 l3.1559480312315986,0.0 l-2.553215590630521,-1.8550197097593966 l-3.1559480312315986,-0.0z"/>
<path fill="#B31B1B" fill-opacity="0.37" d="m0.9752415750147213,28.430473420379307 l3.1559480312315986,0.0 l-2.553215590630521,1.8550197097593966 l-3.1559480312315986,-0.0z"/>
<path fill="#B31B1B" fill-opacity="0.37" d="m0.9752415750147212,-18.71746412047716 l3.1559480312315995,-3.552713678800501e-15 l-2.553215590630521,-1.8550197097593966 l-3.1559480312315995,3.552713678800501e-15z"/>
<path fill="#B31B1B" fill-opacity="0.37" d="m0.9752415750147212,18.71746412047716 l3.1559480312315995,3.552713678800501e-15 l-2.553215590630521,1.8550197097593966 l-3.1559480312315995,-3.552713678800501e-15z"/>
<path fill="#B31B1B" fill-opacity="0.37" d="m0.9752415750147214,-3.001484940191673 l3.155948031231598,0.0 l-2.5532155906305203,-1.8550197097593988 l-3.155948031231598,-0.0z"/>
<path fill="#B31B1B" fill-opacity="0.37" d="m0.9752415750147214,3.001484940191673 l3.155948031231598,0.0 l-2.5532155906305203,1.8550197097593988 l-3.155948031231598,-0.0z"/>
<path fill="#B31B1B" fill-opacity="0.37" d="m0.9752415750147218,-22.42750353999596 l-2.5532155906305203,1.8550197097594001 l3.155948031231598,0.0 l2.5532155906305203,-1.8550197097594001z"/>
<path fill="#B31B1B" fill-opacity="0.37" d="m0.9752415750147218,22.42750353999596 l-2.5532155906305203,-1.8550197097594001 l3.155948031231598,0.0 l2.5532155906305203,1.8550197097594001z"/>
<path fill="#B31B1B" fill-opacity="0.9" d="m4.131189606246321,-18.717464120477164 l-3.1559480312315995,3.552713678800501e-15 l-0.9752415750147216,3.0014849401916717 l3.1559480312315995,-3.552713678800501e-15z"/>
<path fill="#B31B1B" fill-opacity="0.9" d="m4.131189606246321,-12.714494240093819 l-0.9752415750147216,-3.0014849401916717 l-3.1559480312315995,1.7763568394002505e-15 l0.9752415750147216,3.0014849401916717z"/>
<path fill="#B31B1B" fill-opacity="0.9" d="m4.13118960624632,-3.001484940191673 l-0.9752415750147208,3.001484940191673 l-3.155948031231599,0.0 l0.9752415750147208,-3.001484940191673z"/>
<path fill="#B31B1B" fill-opacity="0.9" d="m4.13118960624632,3.001484940191673 l-0.9752415750147208,-3.001484940191673 l-3.155948031231599,0.0 l0.9752415750147208,3.001484940191673z"/>
<path fill="#B31B1B" fill-opacity="0.9" d="m4.131189606246321,12.714494240093819 l-0.9752415750147216,3.0014849401916717 l-3.1559480312315995,-1.7763568394002505e-15 l0.9752415750147216,-3.0014849401916717z"/>
<path fill="#B31B1B" fill-opacity="0.9" d="m4.131189606246321,18.717464120477164 l-3.1559480312315995,-3.552713678800501e-15 l-0.9752415750147216,-3.0014849401916717 l3.1559480312315995,3.552713678800501e-15z"/>
<path fill="#B31B1B" fill-opacity="0.9" d="m4.13118960624632,-28.430473420379307 l-0.9752415750147208,3.0014849401916734 l-3.155948031231598,0.0 l0.9752415750147208,-3.0014849401916734z"/>
<path fill="#B31B1B" fill-opacity="0.9" d="m4.131189606246321,-12.714494240093819 l-0.9752415750147216,3.0014849401916734 l-3.155948031231599,1.7763568394002505e-15 l0.9752415750147216,-3.0014849401916734z"/>
<path fill="#B31B1B" fill-opacity="0.9" d="m4.131189606246321,12.714494240093819 l-0.9752415750147216,-3.0014849401916734 l-3.155948031231599,-1.7763568394002505e-15 l0.9752415750147216,3.0014849401916734z"/>
<path fill="#B31B1B" fill-opacity="0.9" d="m4.13118960624632,28.430473420379307 l-0.9752415750147208,-3.0014849401916734 l-3.155948031231598,0.0 l0.9752415750147208,3.0014849401916734z"/>
<path fill="#B31B1B" fill-opacity="0.9" d="m4.131189606246321,-22.42750353999596 l-0.9752415750147216,-3.0014849401916734 l-3.155948031231598,0.0 l0.9752415750147216,3.0014849401916734z"/>
<path fill="#B31B1B" fill-opacity="0.9" d="m4.131189606246321,22.42750353999596 l-0.9752415750147216,3.0014849401916734 l-3.155948031231598,0.0 l0.9752415750147216,-3.0014849401916734z"/>
<path fill="#B31B1B" fill-opacity="0.37" d="m3.155948031231598,-31.43195836057098 l-2.553215590630522,-1.8550197097593966 l0.9752415750147225,3.0014849401916734 l2.553215590630522,1.8550197097593966z"/>
<path fill="#B31B1B" fill-opacity="0.37" d="m3.155948031231598,31.43195836057098 l-2.553215590630522,1.8550197097593966 l0.9752415750147225,-3.0014849401916734 l2.553215590630522,-1.8550197097593966z"/>
<path fill="#B31B1B" fill-opacity="0.9" d="m3.155948031231599,-9.713009299902145 l0.9752415750147208,3.0014849401916734 l-2.5532155906305203,1.8550197097594001 l-0.9752415750147208,-3.0014849401916734z"/>
<path fill="#B31B1B" fill-opacity="0.9" d="m3.155948031231599,9.713009299902145 l0.9752415750147208,-3.0014849401916734 l-2.5532155906305203,-1.8550197097594001 l-0.9752415750147208,3.0014849401916734z"/>
<path fill="#B31B1B" fill-opacity="0.9" d="m0.6027324406010761,-33.28697807033038 l2.553215590630522,1.8550197097593966 l2.553215590630521,-1.8550197097593966 l-2.553215590630522,-1.8550197097593966z"/>
<path fill="#B31B1B" fill-opacity="0.9" d="m0.6027324406010761,33.28697807033038 l2.553215590630522,-1.8550197097593966 l2.553215590630521,1.8550197097593966 l-2.553215590630522,1.8550197097593966z"/>
<path fill="#B31B1B" fill-opacity="0.37" d="m3.155948031231599,-25.428988480187634 l0.9752415750147208,-3.0014849401916734 l0.9752415750147208,3.0014849401916734 l-0.9752415750147208,3.0014849401916734z"/>
<path fill="#B31B1B" fill-opacity="0.9" d="m6.684405196876841,-20.572483830236564 l-2.5532155906305203,-1.8550197097593966 l-2.553215590630521,1.8550197097594001 l2.5532155906305203,1.8550197097593966z"/>
<path fill="#B31B1B" fill-opacity="0.37" d="m3.155948031231599,-15.71597918028549 l0.9752415750147216,-3.0014849401916734 l0.9752415750147208,3.0014849401916734 l-0.9752415750147216,3.0014849401916734z"/>
<path fill="#B31B1B" fill-opacity="0.9" d="m6.68440519687684,-4.856504649951072 l-2.5532155906305203,-1.8550197097594001 l-2.5532155906305203,1.8550197097594001 l2.5532155906305203,1.8550197097594001z"/>
<path fill="#B31B1B" fill-opacity="0.37" d="m3.155948031231599,0.0 l0.9752415750147208,3.001484940191673 l0.9752415750147216,-3.001484940191673 l-0.9752415750147208,-3.001484940191673z"/>
<path fill="#B31B1B" fill-opacity="0.9" d="m6.68440519687684,4.856504649951072 l-2.5532155906305203,1.8550197097594001 l-2.5532155906305203,-1.8550197097594001 l2.5532155906305203,-1.8550197097594001z"/>
<path fill="#B31B1B" fill-opacity="0.37" d="m3.155948031231599,15.71597918028549 l0.9752415750147216,3.0014849401916734 l0.9752415750147208,-3.0014849401916734 l-0.9752415750147216,-3.0014849401916734z"/>
<path fill="#B31B1B" fill-opacity="0.9" d="m6.684405196876841,20.572483830236564 l-2.5532155906305203,1.8550197097593966 l-2.553215590630521,-1.8550197097594001 l2.5532155906305203,-1.8550197097593966z"/>
<path fill="#B31B1B" fill-opacity="0.37" d="m3.155948031231599,25.428988480187634 l0.9752415750147208,3.0014849401916734 l0.9752415750147208,-3.0014849401916734 l-0.9752415750147208,-3.0014849401916734z"/>
<path fill="#B31B1B" fill-opacity="0.9" d="m4.13118960624632,-28.430473420379307 l-0.9752415750147216,-3.0014849401916734 l2.553215590630521,-1.8550197097593966 l0.9752415750147216,3.0014849401916734z"/>
<path fill="#B31B1B" fill-opacity="0.37" d="m4.13118960624632,-6.711524359710472 l-0.9752415750147208,-3.0014849401916734 l2.5532155906305203,1.8550197097594001 l0.9752415750147208,3.0014849401916734z"/>
<path fill="#B31B1B" fill-opacity="0.37" d="m4.13118960624632,6.711524359710472 l-0.9752415750147208,3.0014849401916734 l2.5532155906305203,-1.8550197097594001 l0.9752415750147208,-3.0014849401916734z"/>
<path fill="#B31B1B" fill-opacity="0.9" d="m4.13118960624632,28.430473420379307 l-0.9752415750147216,3.0014849401916734 l2.553215590630521,1.8550197097593966 l0.9752415750147216,-3.0014849401916734z"/>
<path fill="#B31B1B" fill-opacity="0.9" d="m4.131189606246321,-12.714494240093819 l-0.9752415750147216,3.0014849401916734 l2.5532155906305203,1.8550197097594001 l0.9752415750147216,-3.0014849401916734z"/>
<path fill="#B31B1B" fill-opacity="0.9" d="m4.131189606246321,12.714494240093819 l-0.9752415750147216,-3.0014849401916734 l2.5532155906305203,-1.8550197097594001 l0.9752415750147216,3.0014849401916734z"/>
<path fill="#B31B1B" fill-opacity="0.37" d="m6.68440519687684,-26.575453710619907 l0.9752415750147216,3.00148494019167 l-2.553215590630521,-1.8550197097593966 l-0.9752415750147216,-3.00148494019167z"/>
<path fill="#B31B1B" fill-opacity="0.37" d="m6.68440519687684,26.575453710619907 l0.9752415750147216,-3.00148494019167 l-2.553215590630521,1.8550197097593966 l-0.9752415750147216,3.00148494019167z"/>
<path fill="#B31B1B" fill-opacity="0.9" d="m6.684405196876841,-20.572483830236564 l-2.5532155906305203,-1.8550197097593966 l0.9752415750147199,-3.0014849401916734 l2.5532155906305203,1.8550197097593966z"/>
<path fill="#B31B1B" fill-opacity="0.9" d="m6.684405196876841,-20.572483830236564 l0.9752415750147208,3.0014849401916734 l-2.5532155906305203,1.8550197097594001 l-0.9752415750147208,-3.0014849401916734z"/>
<path fill="#B31B1B" fill-opacity="0.37" d="m6.68440519687684,-14.569513949853217 l0.9752415750147216,-3.0014849401916734 l-2.5532155906305203,1.8550197097594001 l-0.9752415750147216,3.0014849401916734z"/>
<path fill="#B31B1B" fill-opacity="0.9" d="m6.68440519687684,-4.856504649951072 l0.9752415750147216,3.0014849401916726 l-2.5532155906305203,1.8550197097593994 l-0.9752415750147216,-3.0014849401916726z"/>
<path fill="#B31B1B" fill-opacity="0.9" d="m6.68440519687684,4.856504649951072 l0.9752415750147216,-3.0014849401916726 l-2.5532155906305203,-1.8550197097593994 l-0.9752415750147216,3.0014849401916726z"/>
<path fill="#B31B1B" fill-opacity="0.37" d="m6.68440519687684,14.569513949853217 l0.9752415750147216,3.0014849401916734 l-2.5532155906305203,-1.8550197097594001 l-0.9752415750147216,-3.0014849401916734z"/>
<path fill="#B31B1B" fill-opacity="0.9" d="m6.684405196876841,20.572483830236564 l0.9752415750147208,-3.0014849401916734 l-2.5532155906305203,-1.8550197097594001 l-0.9752415750147208,3.0014849401916734z"/>
<path fill="#B31B1B" fill-opacity="0.9" d="m6.684405196876841,20.572483830236564 l-2.5532155906305203,1.8550197097593966 l0.9752415750147199,3.0014849401916734 l2.5532155906305203,-1.8550197097593966z"/>
<path fill="#B31B1B" fill-opacity="0.37" d="m7.659646771891561,-33.28697807033038 l-0.9752415750147208,3.0014849401916734 l-0.9752415750147208,-3.0014849401916734 l0.9752415750147208,-3.0014849401916734z"/>
<path fill="#B31B1B" fill-opacity="0.9" d="m4.13118960624632,-28.430473420379307 l2.5532155906305203,1.8550197097594001 l2.5532155906305203,-1.8550197097594001 l-2.5532155906305203,-1.8550197097594001z"/>
<path fill="#B31B1B" fill-opacity="0.9" d="m4.131189606246321,-12.714494240093819 l2.5532155906305194,-1.8550197097593983 l2.5532155906305203,1.8550197097594001 l-2.5532155906305194,1.8550197097593983z"/>
<path fill="#B31B1B" fill-opacity="0.37" d="m7.659646771891561,-7.857989590142744 l-0.9752415750147208,3.0014849401916726 l-0.9752415750147208,-3.0014849401916734 l0.9752415750147208,-3.0014849401916726z"/>
<path fill="#B31B1B" fill-opacity="0.37" d="m7.659646771891561,7.857989590142744 l-0.9752415750147208,-3.0014849401916726 l-0.9752415750147208,3.0014849401916734 l0.9752415750147208,3.0014849401916726z"/>
<path fill="#B31B1B" fill-opacity="0.9" d="m4.131189606246321,12.714494240093819 l2.5532155906305194,1.8550197097593983 l2.5532155906305203,-1.8550197097594001 l-2.5532155906305194,-1.8550197097593983z"/>
<path fill="#B31B1B" fill-opacity="0.9" d="m4.13118960624632,28.430473420379307 l2.5532155906305203,-1.8550197097594001 l2.5532155906305203,1.8550197097594001 l-2.5532155906305203,1.8550197097594001z"/>
<path fill="#B31B1B" fill-opacity="0.37" d="m7.659646771891561,33.28697807033038 l-0.9752415750147208,-3.0014849401916734 l-0.9752415750147208,3.0014849401916734 l0.9752415750147208,3.0014849401916734z"/>
<path fill="#B31B1B" fill-opacity="0.9" d="m10.212862362522085,0.0 l-2.553215590630523,1.8550197097593994 l-2.5532155906305203,-1.8550197097593994 l2.553215590630523,-1.8550197097593994z"/>
<path fill="#B31B1B" fill-opacity="0.9" d="m7.659646771891562,-23.573968770428237 l2.5532155906305194,-1.8550197097593966 l-0.9752415750147208,-3.0014849401916734 l-2.5532155906305194,1.8550197097593966z"/>
<path fill="#B31B1B" fill-opacity="0.9" d="m7.659646771891562,-17.57099889004489 l2.5532155906305194,1.8550197097593983 l-0.9752415750147208,3.001484940191675 l-2.5532155906305194,-1.8550197097593983z"/>
<path fill="#B31B1B" fill-opacity="0.37" d="m7.659646771891562,-1.8550197097593994 l2.553215590630523,1.8550197097593994 l-0.9752415750147243,-3.001484940191673 l-2.553215590630523,-1.8550197097593994z"/>
<path fill="#B31B1B" fill-opacity="0.37" d="m7.659646771891562,1.8550197097593994 l2.553215590630523,-1.8550197097593994 l-0.9752415750147243,3.001484940191673 l-2.553215590630523,1.8550197097593994z"/>
<path fill="#B31B1B" fill-opacity="0.9" d="m7.659646771891562,17.57099889004489 l2.5532155906305194,-1.8550197097593983 l-0.9752415750147208,-3.001484940191675 l-2.5532155906305194,1.8550197097593983z"/>
<path fill="#B31B1B" fill-opacity="0.9" d="m7.659646771891562,23.573968770428237 l2.5532155906305194,1.8550197097593966 l-0.9752415750147208,3.0014849401916734 l-2.5532155906305194,-1.8550197097593966z"/>
<path fill="#B31B1B" fill-opacity="0.9" d="m6.684405196876839,-10.859474530334419 l0.9752415750147216,3.0014849401916743 l3.1559480312315973,8.881784197001252e-16 l-0.9752415750147216,-3.0014849401916743z"/>
<path fill="#B31B1B" fill-opacity="0.9" d="m6.684405196876839,10.859474530334419 l0.9752415750147216,-3.0014849401916743 l3.1559480312315973,-8.881784197001252e-16 l-0.9752415750147216,3.0014849401916743z"/>
<path fill="#B31B1B" fill-opacity="0.9" d="m6.68440519687684,-30.285493130138704 l3.1559480312315973,0.0 l0.9752415750147225,-3.0014849401916734 l-3.1559480312315973,-0.0z"/>
<path fill="#B31B1B" fill-opacity="0.9" d="m6.684405196876841,-20.572483830236564 l3.1559480312315964,0.0 l0.9752415750147225,-3.00148494019167 l-3.1559480312315964,-0.0z"/>
<path fill="#B31B1B" fill-opacity="0.9" d="m6.684405196876841,-20.572483830236564 l3.1559480312315964,0.0 l0.9752415750147225,3.0014849401916734 l-3.1559480312315964,-0.0z"/>
<path fill="#B31B1B" fill-opacity="0.9" d="m6.68440519687684,-4.856504649951072 l3.1559480312315973,8.881784197001252e-16 l0.9752415750147208,-3.0014849401916726 l-3.1559480312315973,-8.881784197001252e-16z"/>
<path fill="#B31B1B" fill-opacity="0.9" d="m6.68440519687684,4.856504649951072 l3.1559480312315973,-8.881784197001252e-16 l0.9752415750147208,3.0014849401916726 l-3.1559480312315973,8.881784197001252e-16z"/>
<path fill="#B31B1B" fill-opacity="0.9" d="m6.684405196876841,20.572483830236564 l3.1559480312315964,0.0 l0.9752415750147225,-3.0014849401916734 l-3.1559480312315964,-0.0z"/>
<path fill="#B31B1B" fill-opacity="0.9" d="m6.684405196876841,20.572483830236564 l3.1559480312315964,0.0 l0.9752415750147225,3.00148494019167 l-3.1559480312315964,-0.0z"/>
<path fill="#B31B1B" fill-opacity="0.9" d="m6.68440519687684,30.285493130138704 l3.1559480312315973,0.0 l0.9752415750147225,3.0014849401916734 l-3.1559480312315973,-0.0z"/>
<path fill="#B31B1B" fill-opacity="0.37" d="m9.840353228108437,-30.285493130138704 l2.553215590630522,1.8550197097593966 l-3.155948031231599,0.0 l-2.553215590630522,-1.8550197097593966z"/>
<path fill="#B31B1B" fill-opacity="0.37" d="m9.840353228108437,-10.859474530334417 l2.5532155906305203,-1.8550197097594001 l-3.1559480312315973,0.0 l-2.5532155906305203,1.8550197097594001z"/>
<path fill="#B31B1B" fill-opacity="0.37" d="m9.840353228108437,-4.856504649951071 l-3.1559480312315973,-8.881784197001252e-16 l2.5532155906305203,1.8550197097593988 l3.1559480312315973,8.881784197001252e-16z"/>
<path fill="#B31B1B" fill-opacity="0.37" d="m9.840353228108437,4.856504649951071 l-3.1559480312315973,8.881784197001252e-16 l2.5532155906305203,-1.8550197097593988 l3.1559480312315973,-8.881784197001252e-16z"/>
<path fill="#B31B1B" fill-opacity="0.37" d="m9.840353228108437,10.859474530334417 l2.5532155906305203,1.8550197097594001 l-3.1559480312315973,0.0 l-2.5532155906305203,-1.8550197097594001z"/>
<path fill="#B31B1B" fill-opacity="0.37" d="m9.840353228108437,30.285493130138704 l2.553215590630522,-1.8550197097593966 l-3.155948031231599,0.0 l-2.553215590630522,1.8550197097593966z"/>
<path fill="#B31B1B" fill-opacity="0.37" d="m10.212862362522081,-25.428988480187634 l-2.5532155906305194,1.8550197097593966 l3.155948031231598,3.552713678800501e-15 l2.5532155906305194,-1.8550197097593966z"/>
<path fill="#B31B1B" fill-opacity="0.37" d="m10.212862362522081,-15.715979180285492 l-2.5532155906305194,-1.8550197097593983 l3.155948031231598,0.0 l2.5532155906305194,1.8550197097593983z"/>
<path fill="#B31B1B" fill-opacity="0.37" d="m10.212862362522081,15.715979180285492 l-2.5532155906305194,1.8550197097593983 l3.155948031231598,0.0 l2.5532155906305194,-1.8550197097593983z"/>
<path fill="#B31B1B" fill-opacity="0.37" d="m10.212862362522081,25.428988480187634 l-2.5532155906305194,-1.8550197097593966 l3.155948031231598,-3.552713678800501e-15 l2.5532155906305194,1.8550197097593966z"/>
<path fill="#B31B1B" fill-opacity="0.9" d="m13.368810393753678,-15.71597918028549 l-3.1559480312315973,-1.7763568394002505e-15 l-0.9752415750147208,3.001484940191675 l3.1559480312315973,1.7763568394002505e-15z"/>
<path fill="#B31B1B" fill-opacity="0.9" d="m13.368810393753678,15.71597918028549 l-3.1559480312315973,1.7763568394002505e-15 l-0.9752415750147208,-3.001484940191675 l3.1559480312315973,-1.7763568394002505e-15z"/>
<path fill="#B31B1B" fill-opacity="0.9" d="m13.36881039375368,-25.428988480187634 l-3.155948031231599,0.0 l-0.9752415750147208,-3.0014849401916734 l3.155948031231599,-0.0z"/>
<path fill="#B31B1B" fill-opacity="0.9" d="m13.36881039375368,25.428988480187634 l-3.155948031231599,0.0 l-0.9752415750147208,3.0014849401916734 l3.155948031231599,-0.0z"/>
<path fill="#B31B1B" fill-opacity="0.9" d="m13.368810393753684,-0.0 l-3.155948031231599,0.0 l-0.9752415750147243,-3.001484940191673 l3.155948031231599,-0.0z"/>
<path fill="#B31B1B" fill-opacity="0.9" d="m13.368810393753684,0.0 l-3.155948031231599,0.0 l-0.9752415750147243,3.001484940191673 l3.155948031231599,-0.0z"/>
<path fill="#B31B1B" fill-opacity="0.9" d="m12.39356881873896,-28.430473420379307 l-2.553215590630522,-1.8550197097593966 l0.9752415750147225,-3.0014849401916734 l2.553215590630522,1.8550197097593966z"/>
<path fill="#B31B1B" fill-opacity="0.37" d="m12.39356881873896,-22.42750353999596 l0.9752415750147208,-3.0014849401916734 l-2.5532155906305203,1.8550197097594001 l-0.9752415750147208,3.0014849401916734z"/>
<path fill="#B31B1B" fill-opacity="0.37" d="m12.39356881873896,-18.717464120477164 l0.975241575014719,3.0014849401916734 l-2.5532155906305185,-1.8550197097594001 l-0.975241575014719,-3.0014849401916734z"/>
<path fill="#B31B1B" fill-opacity="0.9" d="m12.393568818738958,-12.714494240093817 l0.9752415750147225,3.0014849401916734 l-2.553215590630522,1.8550197097594001 l-0.9752415750147225,-3.0014849401916734z"/>
<path fill="#B31B1B" fill-opacity="0.9" d="m12.39356881873896,-3.0014849401916717 l-2.553215590630522,-1.8550197097593992 l0.9752415750147208,-3.0014849401916726 l2.553215590630522,1.8550197097593992z"/>
<path fill="#B31B1B" fill-opacity="0.9" d="m12.39356881873896,3.0014849401916717 l-2.553215590630522,1.8550197097593992 l0.9752415750147208,3.0014849401916726 l2.553215590630522,-1.8550197097593992z"/>
<path fill="#B31B1B" fill-opacity="0.9" d="m12.393568818738958,12.714494240093817 l0.9752415750147225,-3.0014849401916734 l-2.553215590630522,-1.8550197097594001 l-0.9752415750147225,3.0014849401916734z"/>
<path fill="#B31B1B" fill-opacity="0.37" d="m12.39356881873896,18.717464120477164 l0.975241575014719,-3.0014849401916734 l-2.5532155906305185,1.8550197097594001 l-0.975241575014719,3.0014849401916734z"/>
<path fill="#B31B1B" fill-opacity="0.37" d="m12.39356881873896,22.42750353999596 l0.9752415750147208,3.0014849401916734 l-2.5532155906305203,-1.8550197097594001 l-0.9752415750147208,-3.0014849401916734z"/>
<path fill="#B31B1B" fill-opacity="0.9" d="m12.39356881873896,28.430473420379307 l-2.553215590630522,1.8550197097593966 l0.9752415750147225,3.0014849401916734 l2.553215590630522,-1.8550197097593966z"/>
<path fill="#B31B1B" fill-opacity="0.9" d="m9.840353228108437,-20.572483830236564 l2.553215590630522,-1.8550197097593966 l2.5532155906305185,1.8550197097593966 l-2.553215590630522,1.8550197097593966z"/>
<path fill="#B31B1B" fill-opacity="0.9" d="m9.840353228108437,20.572483830236564 l2.553215590630522,1.8550197097593966 l2.5532155906305185,-1.8550197097593966 l-2.553215590630522,-1.8550197097593966z"/>
<path fill="#B31B1B" fill-opacity="0.9" d="m15.922025984384202,-7.8579895901427435 l-2.553215590630522,-1.8550197097594001 l-2.553215590630522,1.8550197097594001 l2.553215590630522,1.8550197097594001z"/>
<path fill="#B31B1B" fill-opacity="0.9" d="m15.922025984384202,7.8579895901427435 l-2.553215590630522,1.8550197097594001 l-2.553215590630522,-1.8550197097594001 l2.553215590630522,-1.8550197097594001z"/>
<path fill="#B31B1B" fill-opacity="0.9" d="m13.368810393753678,-15.71597918028549 l2.553215590630522,-1.8550197097594001 l-0.9752415750147225,-3.0014849401916734 l-2.553215590630522,1.8550197097594001z"/>
<path fill="#B31B1B" fill-opacity="0.9" d="m13.368810393753678,15.71597918028549 l2.553215590630522,1.8550197097594001 l-0.9752415750147225,3.0014849401916734 l-2.553215590630522,-1.8550197097594001z"/>
<path fill="#B31B1B" fill-opacity="0.9" d="m13.36881039375368,-25.428988480187634 l-0.9752415750147208,3.0014849401916734 l2.5532155906305185,1.8550197097593966 l0.9752415750147208,-3.0014849401916734z"/>
<path fill="#B31B1B" fill-opacity="0.9" d="m13.368810393753678,-15.71597918028549 l2.553215590630524,1.8550197097594001 l-0.9752415750147225,3.0014849401916734 l-2.553215590630524,-1.8550197097594001z"/>
<path fill="#B31B1B" fill-opacity="0.9" d="m13.368810393753678,15.71597918028549 l2.553215590630524,-1.8550197097594001 l-0.9752415750147225,-3.0014849401916734 l-2.553215590630524,1.8550197097594001z"/>
<path fill="#B31B1B" fill-opacity="0.9" d="m13.36881039375368,25.428988480187634 l-0.9752415750147208,-3.0014849401916734 l2.5532155906305185,-1.8550197097593966 l0.9752415750147208,3.0014849401916734z"/>
<path fill="#B31B1B" fill-opacity="0.37" d="m13.36881039375368,-31.43195836057098 l-0.9752415750147208,3.0014849401916734 l2.553215590630522,-1.8550197097594001 l0.9752415750147208,-3.0014849401916734z"/>
<path fill="#B31B1B" fill-opacity="0.9" d="m13.36881039375368,-25.428988480187634 l2.553215590630522,-1.8550197097593966 l-0.9752415750147208,-3.001484940191677 l-2.553215590630522,1.8550197097593966z"/>
<path fill="#B31B1B" fill-opacity="0.37" d="m13.36881039375368,-9.713009299902144 l2.553215590630522,1.8550197097594001 l-0.9752415750147225,-3.0014849401916734 l-2.553215590630522,-1.8550197097594001z"/>
<path fill="#B31B1B" fill-opacity="0.37" d="m13.36881039375368,-6.002969880383345 l2.553215590630522,-1.8550197097593983 l-0.9752415750147225,3.0014849401916717 l-2.553215590630522,1.8550197097593983z"/>
<path fill="#B31B1B" fill-opacity="0.9" d="m13.368810393753684,-0.0 l2.5532155906305185,-1.8550197097593988 l-0.9752415750147225,-3.001484940191673 l-2.5532155906305185,1.8550197097593988z"/>
<path fill="#B31B1B" fill-opacity="0.9" d="m13.368810393753684,0.0 l2.5532155906305185,1.8550197097593988 l-0.9752415750147225,3.001484940191673 l-2.5532155906305185,-1.8550197097593988z"/>
<path fill="#B31B1B" fill-opacity="0.37" d="m13.36881039375368,6.002969880383345 l2.553215590630522,1.8550197097593983 l-0.9752415750147225,-3.0014849401916717 l-2.553215590630522,-1.8550197097593983z"/>
<path fill="#B31B1B" fill-opacity="0.37" d="m13.36881039375368,9.713009299902144 l2.553215590630522,-1.8550197097594001 l-0.9752415750147225,3.0014849401916734 l-2.553215590630522,1.8550197097594001z"/>
<path fill="#B31B1B" fill-opacity="0.9" d="m13.36881039375368,25.428988480187634 l2.553215590630522,1.8550197097593966 l-0.9752415750147208,3.001484940191677 l-2.553215590630522,-1.8550197097593966z"/>
<path fill="#B31B1B" fill-opacity="0.37" d="m13.36881039375368,31.43195836057098 l-0.9752415750147208,-3.0014849401916734 l2.553215590630522,1.8550197097594001 l0.9752415750147208,3.0014849401916734z"/>
<path fill="#B31B1B" fill-opacity="0.37" d="m15.9220259843842,-23.573968770428234 l-2.5532155906305203,-1.8550197097594001 l3.155948031231599,0.0 l2.5532155906305203,1.8550197097594001z"/>
<path fill="#B31B1B" fill-opacity="0.37" d="m15.9220259843842,-17.57099889004489 l-2.553215590630522,1.8550197097594001 l3.155948031231601,0.0 l2.553215590630522,-1.8550197097594001z"/>
<path fill="#B31B1B" fill-opacity="0.37" d="m15.9220259843842,17.57099889004489 l-2.553215590630522,-1.8550197097594001 l3.155948031231601,0.0 l2.553215590630522,1.8550197097594001z"/>
<path fill="#B31B1B" fill-opacity="0.37" d="m15.9220259843842,23.573968770428234 l-2.5532155906305203,1.8550197097594001 l3.155948031231599,0.0 l2.5532155906305203,-1.8550197097594001z"/>
<path fill="#B31B1B" fill-opacity="0.37" d="m15.922025984384202,-27.28400818994703 l3.155948031231599,0.0 l-2.553215590630522,1.8550197097593966 l-3.155948031231599,-0.0z"/>
<path fill="#B31B1B" fill-opacity="0.37" d="m15.922025984384202,-13.86095947052609 l3.155948031231599,0.0 l-2.553215590630522,-1.8550197097594001 l-3.155948031231599,-0.0z"/>
<path fill="#B31B1B" fill-opacity="0.37" d="m15.922025984384202,-1.8550197097593988 l3.155948031231599,0.0 l-2.553215590630522,1.8550197097593988 l-3.155948031231599,-0.0z"/>
<path fill="#B31B1B" fill-opacity="0.37" d="m15.922025984384202,1.8550197097593988 l3.155948031231599,0.0 l-2.553215590630522,-1.8550197097593988 l-3.155948031231599,-0.0z"/>
<path fill="#B31B1B" fill-opacity="0.37" d="m15.922025984384202,13.86095947052609 l3.155948031231599,0.0 l-2.553215590630522,1.8550197097594001 l-3.155948031231599,-0.0z"/>
<path fill="#B31B1B" fill-opacity="0.37" d="m15.922025984384202,27.28400818994703 l3.155948031231599,0.0 l-2.553215590630522,-1.8550197097593966 l-3.155948031231599,-0.0z"/>
<path fill="#B31B1B" fill-opacity="0.9" d="m19.0779740156158,-27.28400818994703 l-3.155948031231599,0.0 l-0.9752415750147208,-3.001484940191677 l3.155948031231599,-0.0z"/>
<path fill="#B31B1B" fill-opacity="0.9" d="m19.0779740156158,-23.573968770428234 l-3.155948031231601,0.0 l-0.9752415750147225,3.00148494019167 l3.155948031231601,-0.0z"/>
<path fill="#B31B1B" fill-opacity="0.9" d="m19.0779740156158,-17.570998890044887 l-3.155948031231601,-3.552713678800501e-15 l-0.9752415750147225,-3.0014849401916734 l3.155948031231601,3.552713678800501e-15z"/>
<path fill="#B31B1B" fill-opacity="0.9" d="m19.0779740156158,-13.86095947052609 l-0.9752415750147208,3.0014849401916734 l-3.155948031231601,0.0 l0.9752415750147208,-3.0014849401916734z"/>
<path fill="#B31B1B" fill-opacity="0.9" d="m19.0779740156158,-7.8579895901427435 l-0.9752415750147208,-3.0014849401916734 l-3.155948031231601,0.0 l0.9752415750147208,3.0014849401916734z"/>
<path fill="#B31B1B" fill-opacity="0.9" d="m19.0779740156158,-7.8579895901427435 l-0.9752415750147208,3.0014849401916717 l-3.155948031231601,0.0 l0.9752415750147208,-3.0014849401916717z"/>
<path fill="#B31B1B" fill-opacity="0.9" d="m19.0779740156158,-1.8550197097593988 l-0.9752415750147208,-3.001484940191673 l-3.155948031231601,0.0 l0.9752415750147208,3.001484940191673z"/>
<path fill="#B31B1B" fill-opacity="0.9" d="m19.0779740156158,1.8550197097593988 l-0.9752415750147208,3.001484940191673 l-3.155948031231601,0.0 l0.9752415750147208,-3.001484940191673z"/>
<path fill="#B31B1B" fill-opacity="0.9" d="m19.0779740156158,7.8579895901427435 l-0.9752415750147208,-3.0014849401916717 l-3.155948031231601,0.0 l0.9752415750147208,3.0014849401916717z"/>
<path fill="#B31B1B" fill-opacity="0.9" d="m19.0779740156158,7.8579895901427435 l-0.9752415750147208,3.0014849401916734 l-3.155948031231601,0.0 l0.9752415750147208,-3.0014849401916734z"/>
<path fill="#B31B1B" fill-opacity="0.9" d="m19.0779740156158,13.86095947052609 l-0.9752415750147208,-3.0014849401916734 l-3.155948031231601,0.0 l0.9752415750147208,3.0014849401916734z"/>
<path fill="#B31B1B" fill-opacity="0.9" d="m19.0779740156158,17.570998890044887 l-3.155948031231601,3.552713678800501e-15 l-0.9752415750147225,3.0014849401916734 l3.155948031231601,-3.552713678800501e-15z"/>
<path fill="#B31B1B" fill-opacity="0.9" d="m19.0779740156158,23.573968770428234 l-3.155948031231601,0.0 l-0.9752415750147225,-3.00148494019167 l3.155948031231601,-0.0z"/>
<path fill="#B31B1B" fill-opacity="0.9" d="m19.0779740156158,27.28400818994703 l-3.155948031231599,0.0 l-0.9752415750147208,3.001484940191677 l3.155948031231599,-0.0z"/>
<path fill="#B31B1B" fill-opacity="0.37" d="m18.102732440601077,-20.572483830236564 l0.9752415750147243,-3.00148494019167 l0.9752415750147172,3.00148494019167 l-0.9752415750147243,3.00148494019167z"/>
<path fill="#B31B1B" fill-opacity="0.37" d="m18.102732440601077,20.572483830236564 l0.9752415750147243,3.00148494019167 l0.9752415750147172,-3.00148494019167 l-0.9752415750147243,-3.00148494019167z"/>
<path fill="#B31B1B" fill-opacity="0.9" d="m21.631189606246323,-25.428988480187634 l-2.553215590630522,-1.8550197097593966 l-2.553215590630522,1.8550197097593966 l2.553215590630522,1.8550197097593966z"/>
<path fill="#B31B1B" fill-opacity="0.9" d="m21.631189606246323,-15.715979180285489 l-2.553215590630522,1.8550197097593983 l-2.553215590630522,-1.8550197097594001 l2.553215590630522,-1.8550197097593983z"/>
<path fill="#B31B1B" fill-opacity="0.37" d="m18.10273244060108,-10.859474530334417 l0.9752415750147208,-3.0014849401916734 l0.9752415750147208,3.0014849401916734 l-0.9752415750147208,3.0014849401916734z"/>
<path fill="#B31B1B" fill-opacity="0.37" d="m18.10273244060108,-4.856504649951072 l0.9752415750147208,3.001484940191673 l0.9752415750147208,-3.001484940191673 l-0.9752415750147208,-3.001484940191673z"/>
<path fill="#B31B1B" fill-opacity="0.9" d="m21.631189606246323,0.0 l-2.553215590630522,1.8550197097593988 l-2.553215590630522,-1.8550197097593988 l2.553215590630522,-1.8550197097593988z"/>
<path fill="#B31B1B" fill-opacity="0.37" d="m18.10273244060108,4.856504649951072 l0.9752415750147208,-3.001484940191673 l0.9752415750147208,3.001484940191673 l-0.9752415750147208,3.001484940191673z"/>
<path fill="#B31B1B" fill-opacity="0.37" d="m18.10273244060108,10.859474530334417 l0.9752415750147208,3.0014849401916734 l0.9752415750147208,-3.0014849401916734 l-0.9752415750147208,-3.0014849401916734z"/>
<path fill="#B31B1B" fill-opacity="0.9" d="m21.631189606246323,15.715979180285489 l-2.553215590630522,-1.8550197097593983 l-2.553215590630522,1.8550197097594001 l2.553215590630522,1.8550197097593983z"/>
<path fill="#B31B1B" fill-opacity="0.9" d="m21.631189606246323,25.428988480187634 l-2.553215590630522,1.8550197097593966 l-2.553215590630522,-1.8550197097593966 l2.553215590630522,-1.8550197097593966z"/>
<path fill="#B31B1B" fill-opacity="0.9" d="m21.631189606246323,-25.428988480187634 l0.9752415750147172,3.0014849401916734 l-2.553215590630522,1.8550197097593966 l-0.9752415750147172,-3.0014849401916734z"/>
<path fill="#B31B1B" fill-opacity="0.9" d="m21.631189606246323,-15.715979180285489 l0.9752415750147172,-3.0014849401916717 l-2.553215590630522,-1.8550197097594037 l-0.9752415750147172,3.0014849401916717z"/>
<path fill="#B31B1B" fill-opacity="0.9" d="m21.631189606246323,15.715979180285489 l0.9752415750147172,3.0014849401916717 l-2.553215590630522,1.8550197097594037 l-0.9752415750147172,-3.0014849401916717z"/>
<path fill="#B31B1B" fill-opacity="0.9" d="m21.631189606246323,25.428988480187634 l0.9752415750147172,-3.0014849401916734 l-2.553215590630522,-1.8550197097593966 l-0.9752415750147172,3.0014849401916734z"/>
<path fill="#B31B1B" fill-opacity="0.9" d="m21.631189606246323,-15.715979180285489 l-2.553215590630522,1.8550197097593983 l0.9752415750147208,3.0014849401916734 l2.553215590630522,-1.8550197097593983z"/>
<path fill="#B31B1B" fill-opacity="0.37" d="m21.631189606246323,-9.713009299902144 l-2.553215590630522,1.8550197097594001 l0.9752415750147208,-3.0014849401916734 l2.553215590630522,-1.8550197097594001z"/>
<path fill="#B31B1B" fill-opacity="0.37" d="m21.631189606246323,-6.002969880383345 l-2.553215590630522,-1.8550197097593983 l0.9752415750147208,3.0014849401916717 l2.553215590630522,1.8550197097593983z"/>
<path fill="#B31B1B" fill-opacity="0.9" d="m21.631189606246323,-0.0 l0.9752415750147208,-3.0014849401916717 l-2.553215590630522,-1.8550197097594001 l-0.9752415750147208,3.0014849401916717z"/>
<path fill="#B31B1B" fill-opacity="0.9" d="m21.631189606246323,0.0 l0.9752415750147208,3.0014849401916717 l-2.553215590630522,1.8550197097594001 l-0.9752415750147208,-3.0014849401916717z"/>
<path fill="#B31B1B" fill-opacity="0.37" d="m21.631189606246323,6.002969880383345 l-2.553215590630522,1.8550197097593983 l0.9752415750147208,-3.0014849401916717 l2.553215590630522,-1.8550197097593983z"/>
<path fill="#B31B1B" fill-opacity="0.37" d="m21.631189606246323,9.713009299902144 l-2.553215590630522,-1.8550197097594001 l0.9752415750147208,3.0014849401916734 l2.553215590630522,1.8550197097594001z"/>
<path fill="#B31B1B" fill-opacity="0.9" d="m21.631189606246323,15.715979180285489 l-2.553215590630522,-1.8550197097593983 l0.9752415750147208,-3.0014849401916734 l2.553215590630522,1.8550197097593983z"/>
<path fill="#B31B1B" fill-opacity="0.9" d="m19.0779740156158,-7.8579895901427435 l2.553215590630522,-1.8550197097594001 l2.5532155906305185,1.8550197097594001 l-2.553215590630522,1.8550197097594001z"/>
<path fill="#B31B1B" fill-opacity="0.9" d="m19.0779740156158,7.8579895901427435 l2.553215590630522,1.8550197097594001 l2.5532155906305185,-1.8550197097594001 l-2.553215590630522,-1.8550197097594001z"/>
<path fill="#B31B1B" fill-opacity="0.9" d="m25.159646771891563,-20.57248383023656 l-2.553215590630522,-1.8550197097594001 l-2.553215590630522,1.8550197097593966 l2.553215590630522,1.8550197097594001z"/>
<path fill="#B31B1B" fill-opacity="0.9" d="m25.159646771891563,20.57248383023656 l-2.553215590630522,1.8550197097594001 l-2.553215590630522,-1.8550197097593966 l2.553215590630522,-1.8550197097594001z"/>
<path fill="#B31B1B" fill-opacity="0.37" d="m22.60643118126104,-22.42750353999596 l2.553215590630522,1.8550197097594001 l-0.9752415750147208,-3.0014849401916734 l-2.553215590630522,-1.8550197097594001z"/>
<path fill="#B31B1B" fill-opacity="0.37" d="m22.60643118126104,-18.71746412047716 l2.553215590630522,-1.8550197097594001 l-0.9752415750147208,3.0014849401916734 l-2.553215590630522,1.8550197097594001z"/>
<path fill="#B31B1B" fill-opacity="0.9" d="m22.606431181261044,-12.714494240093815 l-0.9752415750147208,3.0014849401916717 l2.5532155906305185,1.8550197097594001 l0.9752415750147208,-3.0014849401916717z"/>
<path fill="#B31B1B" fill-opacity="0.9" d="m22.606431181261044,-3.0014849401916717 l2.553215590630522,-1.8550197097593992 l-0.9752415750147243,-3.0014849401916726 l-2.553215590630522,1.8550197097593992z"/>
<path fill="#B31B1B" fill-opacity="0.9" d="m22.606431181261044,3.0014849401916717 l2.553215590630522,1.8550197097593992 l-0.9752415750147243,3.0014849401916726 l-2.553215590630522,-1.8550197097593992z"/>
<path fill="#B31B1B" fill-opacity="0.9" d="m22.606431181261044,12.714494240093815 l-0.9752415750147208,-3.0014849401916717 l2.5532155906305185,-1.8550197097594001 l0.9752415750147208,3.0014849401916717z"/>
<path fill="#B31B1B" fill-opacity="0.37" d="m22.60643118126104,18.71746412047716 l2.553215590630522,1.8550197097594001 l-0.9752415750147208,-3.0014849401916734 l-2.553215590630522,-1.8550197097594001z"/>
<path fill="#B31B1B" fill-opacity="0.37" d="m22.60643118126104,22.42750353999596 l2.553215590630522,-1.8550197097594001 l-0.9752415750147208,3.0014849401916734 l-2.553215590630522,1.8550197097594001z"/>
<path fill="#B31B1B" fill-opacity="0.9" d="m21.631189606246323,-15.715979180285489 l3.1559480312315955,1.7763568394002505e-15 l0.9752415750147208,3.0014849401916717 l-3.1559480312315955,-1.7763568394002505e-15z"/>
<path fill="#B31B1B" fill-opacity="0.9" d="m21.631189606246323,15.715979180285489 l3.1559480312315955,-1.7763568394002505e-15 l0.9752415750147208,-3.0014849401916717 l-3.1559480312315955,1.7763568394002505e-15z"/>
<path fill="#B31B1B" fill-opacity="0.9" d="m21.631189606246323,-0.0 l0.9752415750147208,-3.0014849401916717 l3.155948031231599,-1.3322676295501878e-15 l-0.9752415750147208,3.0014849401916717z"/>
<path fill="#B31B1B" fill-opacity="0.9" d="m21.631189606246323,0.0 l0.9752415750147208,3.0014849401916717 l3.155948031231599,1.3322676295501878e-15 l-0.9752415750147208,-3.0014849401916717z"/>
<path fill="#B31B1B" fill-opacity="0.37" d="m24.78713763747792,-15.715979180285487 l2.553215590630522,-1.8550197097594001 l-3.155948031231599,0.0 l-2.553215590630522,1.8550197097594001z"/>
<path fill="#B31B1B" fill-opacity="0.37" d="m24.78713763747792,15.715979180285487 l2.553215590630522,1.8550197097594001 l-3.155948031231599,0.0 l-2.553215590630522,-1.8550197097594001z"/>
<path fill="#B31B1B" fill-opacity="0.37" d="m25.159646771891563,-10.859474530334417 l3.155948031231599,0.0 l-2.553215590630522,-1.8550197097593983 l-3.155948031231599,-0.0z"/>
<path fill="#B31B1B" fill-opacity="0.37" d="m25.159646771891566,-4.856504649951071 l3.1559480312315955,-8.881784197001252e-16 l-2.5532155906305185,1.8550197097593988 l-3.1559480312315955,8.881784197001252e-16z"/>
<path fill="#B31B1B" fill-opacity="0.37" d="m25.159646771891566,4.856504649951071 l3.1559480312315955,8.881784197001252e-16 l-2.5532155906305185,-1.8550197097593988 l-3.1559480312315955,-8.881784197001252e-16z"/>
<path fill="#B31B1B" fill-opacity="0.37" d="m25.159646771891563,10.859474530334417 l3.155948031231599,0.0 l-2.553215590630522,1.8550197097593983 l-3.155948031231599,-0.0z"/>
<path fill="#B31B1B" fill-opacity="0.9" d="m28.31559480312316,-20.57248383023656 l-3.155948031231599,0.0 l-0.9752415750147208,-3.0014849401916734 l3.155948031231599,-0.0z"/>
<path fill="#B31B1B" fill-opacity="0.9" d="m28.31559480312316,-20.57248383023656 l-0.9752415750147208,3.0014849401916734 l-3.155948031231599,0.0 l0.9752415750147208,-3.0014849401916734z"/>
<path fill="#B31B1B" fill-opacity="0.9" d="m28.31559480312316,-10.859474530334417 l-0.9752415750147208,3.0014849401916726 l-3.155948031231599,8.881784197001252e-16 l0.9752415750147208,-3.0014849401916726z"/>
<path fill="#B31B1B" fill-opacity="0.9" d="m28.31559480312316,-4.856504649951072 l-3.1559480312315955,8.881784197001252e-16 l-0.9752415750147243,-3.0014849401916726 l3.1559480312315955,-8.881784197001252e-16z"/>
<path fill="#B31B1B" fill-opacity="0.9" d="m28.31559480312316,4.856504649951072 l-3.1559480312315955,-8.881784197001252e-16 l-0.9752415750147243,3.0014849401916726 l3.1559480312315955,8.881784197001252e-16z"/>
<path fill="#B31B1B" fill-opacity="0.9" d="m28.31559480312316,10.859474530334417 l-0.9752415750147208,-3.0014849401916726 l-3.155948031231599,-8.881784197001252e-16 l0.9752415750147208,3.0014849401916726z"/>
<path fill="#B31B1B" fill-opacity="0.9" d="m28.31559480312316,20.57248383023656 l-0.9752415750147208,-3.0014849401916734 l-3.155948031231599,0.0 l0.9752415750147208,3.0014849401916734z"/>
<path fill="#B31B1B" fill-opacity="0.9" d="m28.31559480312316,20.57248383023656 l-3.155948031231599,0.0 l-0.9752415750147208,3.0014849401916734 l3.155948031231599,-0.0z"/>
<path fill="#B31B1B" fill-opacity="0.9" d="m27.34035322810844,-17.570998890044887 l0.9752415750147208,3.0014849401916734 l-2.553215590630522,1.8550197097593983 l-0.9752415750147208,-3.0014849401916734z"/>
<path fill="#B31B1B" fill-opacity="0.9" d="m27.34035322810844,17.570998890044887 l0.9752415750147208,-3.0014849401916734 l-2.553215590630522,-1.8550197097593983 l-0.9752415750147208,3.0014849401916734z"/>
<path fill="#B31B1B" fill-opacity="0.37" d="m27.34035322810844,-1.8550197097593994 l-2.553215590630522,1.8550197097593994 l0.9752415750147243,-3.001484940191673 l2.553215590630522,-1.8550197097593994z"/>
<path fill="#B31B1B" fill-opacity="0.37" d="m27.34035322810844,1.8550197097593994 l-2.553215590630522,-1.8550197097593994 l0.9752415750147243,3.001484940191673 l2.553215590630522,1.8550197097593994z"/>
<path fill="#B31B1B" fill-opacity="0.9" d="m24.78713763747792,0.0 l2.553215590630522,1.8550197097593994 l2.553215590630522,-1.8550197097593994 l-2.553215590630522,-1.8550197097593994z"/>
<path fill="#B31B1B" fill-opacity="0.9" d="m30.868810393753684,-12.714494240093817 l-2.553215590630522,-1.8550197097593966 l-2.553215590630522,1.8550197097593983 l2.553215590630522,1.8550197097593966z"/>
<path fill="#B31B1B" fill-opacity="0.37" d="m27.34035322810844,-7.857989590142744 l0.9752415750147208,3.0014849401916726 l0.9752415750147208,-3.0014849401916734 l-0.9752415750147208,-3.0014849401916726z"/>
<path fill="#B31B1B" fill-opacity="0.37" d="m27.34035322810844,7.857989590142744 l0.9752415750147208,-3.0014849401916726 l0.9752415750147208,3.0014849401916734 l-0.9752415750147208,3.0014849401916726z"/>
<path fill="#B31B1B" fill-opacity="0.9" d="m30.868810393753684,12.714494240093817 l-2.553215590630522,1.8550197097593966 l-2.553215590630522,-1.8550197097593983 l2.553215590630522,-1.8550197097593966z"/>
<path fill="#B31B1B" fill-opacity="0.9" d="m28.31559480312316,-20.57248383023656 l-0.9752415750147208,3.0014849401916734 l2.5532155906305185,1.8550197097593983 l0.9752415750147208,-3.0014849401916734z"/>
<path fill="#B31B1B" fill-opacity="0.37" d="m28.31559480312316,-14.569513949853214 l-0.9752415750147208,-3.0014849401916734 l2.5532155906305185,1.8550197097593983 l0.9752415750147208,3.0014849401916734z"/>
<path fill="#B31B1B" fill-opacity="0.37" d="m28.31559480312316,14.569513949853214 l-0.9752415750147208,3.0014849401916734 l2.5532155906305185,-1.8550197097593983 l0.9752415750147208,-3.0014849401916734z"/>
<path fill="#B31B1B" fill-opacity="0.9" d="m28.31559480312316,20.57248383023656 l-0.9752415750147208,-3.0014849401916734 l2.5532155906305185,-1.8550197097593983 l0.9752415750147208,3.0014849401916734z"/>
<path fill="#B31B1B" fill-opacity="0.9" d="m28.31559480312316,-4.856504649951072 l-0.9752415750147208,3.0014849401916726 l2.553215590630522,1.8550197097593994 l0.9752415750147208,-3.0014849401916726z"/>
<path fill="#B31B1B" fill-opacity="0.9" d="m28.31559480312316,4.856504649951072 l-0.9752415750147208,-3.0014849401916726 l2.553215590630522,-1.8550197097593994 l0.9752415750147208,3.0014849401916726z"/>
<path fill="#B31B1B" fill-opacity="0.9" d="m30.868810393753684,-12.714494240093817 l0.9752415750147208,3.0014849401916734 l-2.553215590630522,1.8550197097593983 l-0.9752415750147208,-3.0014849401916734z"/>
<path fill="#B31B1B" fill-opacity="0.37" d="m30.868810393753684,-6.711524359710472 l0.9752415750147208,-3.0014849401916717 l-2.553215590630522,1.8550197097593983 l-0.9752415750147208,3.0014849401916717z"/>
<path fill="#B31B1B" fill-opacity="0.37" d="m30.868810393753684,6.711524359710472 l0.9752415750147208,3.0014849401916717 l-2.553215590630522,-1.8550197097593983 l-0.9752415750147208,-3.0014849401916717z"/>
<path fill="#B31B1B" fill-opacity="0.9" d="m30.868810393753684,12.714494240093817 l0.9752415750147208,-3.0014849401916734 l-2.553215590630522,-1.8550197097593983 l-0.9752415750147208,3.0014849401916734z"/>
<path fill="#B31B1B" fill-opacity="0.9" d="m28.31559480312316,-4.856504649951072 l2.553215590630522,-1.8550197097594001 l2.553215590630522,1.8550197097594001 l-2.553215590630522,1.8550197097594001z"/>
<path fill="#B31B1B" fill-opacity="0.37" d="m31.844051968768404,0.0 l-0.9752415750147208,3.001484940191673 l-0.9752415750147208,-3.001484940191673 l0.9752415750147208,-3.001484940191673z"/>
<path fill="#B31B1B" fill-opacity="0.9" d="m28.31559480312316,4.856504649951072 l2.553215590630522,1.8550197097594001 l2.553215590630522,-1.8550197097594001 l-2.553215590630522,-1.8550197097594001z"/>
<path fill="#B31B1B" fill-opacity="0.9" d="m31.844051968768404,-9.713009299902144 l-0.9752415750147208,3.0014849401916717 l2.553215590630522,1.8550197097594001 l0.9752415750147208,-3.0014849401916717z"/>
<path fill="#B31B1B" fill-opacity="0.9" d="m31.844051968768404,9.713009299902144 l-0.9752415750147208,-3.0014849401916717 l2.553215590630522,-1.8550197097594001 l0.9752415750147208,3.0014849401916717z"/>
<path fill="#B31B1B" fill-opacity="0.9" d="m30.868810393753684,-3.001484940191673 l0.9752415750147208,3.001484940191673 l3.1559480312315955,0.0 l-0.9752415750147208,-3.001484940191673z"/>
<path fill="#B31B1B" fill-opacity="0.9" d="m30.868810393753684,3.001484940191673 l0.9752415750147208,-3.001484940191673 l3.1559480312315955,0.0 l-0.9752415750147208,3.001484940191673z"/>
<path fill="#B31B1B" fill-opacity="0.37" d="m34.02475842498528,-3.001484940191673 l-3.1559480312315955,0.0 l2.553215590630522,-1.8550197097593988 l3.1559480312315955,-0.0z"/>
<path fill="#B31B1B" fill-opacity="0.37" d="m34.02475842498528,3.001484940191673 l-3.1559480312315955,0.0 l2.553215590630522,1.8550197097593988 l3.1559480312315955,-0.0z"/>
</g>
</svg>