<?xml version="1.0" encoding="utf-8"?>
<svg width="100%" height="100%" viewBox="-70.0 -70.0 140.0 140.0" preserveAspectRatio="xMidYMid meet" version="1.1" baseProfile="full" xmlns="http://www.w3.org/2000/svg">
<g style="stroke:#FFFFFF; stroke-width: 0.802128623625221; stroke-linejoin: round;">
<path fill="#B31B1B" fill-opacity="0.9" d="m-35.0,-0.0 l16.524758424985276,0.0 l5.106431181261046,-15.715979180285487 l-16.524758424985276,-0.0z"/>
<path fill="#B31B1B" fill-opacity="0.9" d="m-35.0,0.0 l16.524758424985276,0.0 l5.106431181261046,15.715979180285487 l-16.524758424985276,-0.0z"/>
<path fill="#B31B1B" fill-opacity="0.37" d="m-5.10643118126104,-9.713009299902144 l-13.368810393753684,9.713009299902144 l5.106431181261046,-15.715979180285487 l13.368810393753684,-9.713009299902144z"/>
<path fill="#B31B1B" fill-opacity="0.37" d="m-5.10643118126104,9.713009299902144 l-13.368810393753684,-9.713009299902144 l5.106431181261046,15.715979180285487 l13.368810393753684,9.713009299902144z"/>
<path fill="#B31B1B" fill-opacity="0.9" d="m-18.475241575014724,0.0 l13.368810393753684,9.713009299902144 l13.368810393753684,-9.713009299902144 l-13.368810393753684,-9.713009299902144z"/>
<path fill="#B31B1B" fill-opacity="0.9" d="m0.0,-25.428988480187627 l-5.10643118126104,15.715979180285483 l13.368810393753684,9.713009299902144 l5.10643118126104,-15.715979180285483z"/>
<path fill="#B31B1B" fill-opacity="0.9" d="m0.0,25.428988480187627 l-5.10643118126104,-15.715979180285483 l13.368810393753684,-9.713009299902144 l5.10643118126104,15.715979180285483z"/>
<path fill="#B31B1B" fill-opacity="0.37" d="m18.475241575014724,0.0 l-5.106431181261046,15.715979180285487 l-5.1064311812610335,-15.715979180285487 l5.106431181261046,-15.715979180285487z"/>
<path fill="#B31B1B" fill-opacity="0.9" d="m13.368810393753678,-15.715979180285487 l5.106431181261046,15.715979180285487 l16.524758424985276,0.0 l-5.106431181261046,-15.715979180285487z"/>
<path fill="#B31B1B" fill-opacity="0.9" d="m13.368810393753678,15.715979180285487 l5.106431181261046,-15.715979180285487 l16.524758424985276,0.0 l-5.106431181261046,15.715979180285487z"/>
</g>
</svg>