<?xml version="1.0" encoding="utf-8"?>
<svg width="100%" height="100%" viewBox="-70.0 -70.0 140.0 140.0" preserveAspectRatio="xMidYMid meet" version="1.1" baseProfile="full" xmlns="http://www.w3.org/2000/svg">
<g style="stroke:#FFFFFF; stroke-width: 0.4957427527495585; stroke-linejoin: round;">
<path fill="#B31B1B" fill-opacity="0.9" d="m-21.631189606246316,-9.713009299902144 l-3.1559480312316026,9.713009299902144 l-10.212862362522081,0.0 l3.1559480312316026,-9.713009299902144z"/>
<path fill="#B31B1B" fill-opacity="0.9" d="m-21.631189606246316,9.713009299902144 l-3.1559480312316026,-9.713009299902144 l-10.212862362522081,0.0 l3.1559480312316026,9.713009299902144z"/>
<path fill="#B31B1B" fill-opacity="0.37" d="m-24.78713763747792,0.0 l3.1559480312316026,9.713009299902144 l3.155948031231592,-9.713009299902144 l-3.1559480312316026,-9.713009299902144z"/>
<path fill="#B31B1B" fill-opacity="0.9" d="m-13.368810393753678,-15.715979180285487 l3.1559480312315973,9.71300929990214 l-8.262379212492643,6.002969880383346 l-3.1559480312315973,-9.71300929990214z"/>
<path fill="#B31B1B" fill-opacity="0.9" d="m-13.368810393753678,15.715979180285487 l3.1559480312315973,-9.71300929990214 l-8.262379212492643,-6.002969880383346 l-3.1559480312315973,9.71300929990214z"/>
<path fill="#B31B1B" fill-opacity="0.9" d="m-1.9504831500294388,0.0 l-8.262379212492643,6.002969880383346 l-8.262379212492643,-6.002969880383346 l8.262379212492643,-6.002969880383346z"/>
<path fill="#B31B1B" fill-opacity="0.37" d="m-10.212862362522081,-6.002969880383346 l8.262379212492643,6.002969880383346 l-3.155948031231601,-9.713009299902144 l-8.262379212492643,-6.002969880383346z"/>
<path fill="#B31B1B" fill-opacity="0.37" d="m-10.212862362522081,6.002969880383346 l8.262379212492643,-6.002969880383346 l-3.155948031231601,9.713009299902144 l-8.262379212492643,6.002969880383346z"/>
<path fill="#B31B1B" fill-opacity="0.9" d="m-13.368810393753678,-15.715979180285487 l10.212862362522081,0.0 l3.1559480312315977,-9.71300929990214 l-10.212862362522081,-0.0z"/>
<path fill="#B31B1B" fill-opacity="0.9" d="m-13.368810393753678,15.715979180285487 l10.212862362522081,0.0 l3.1559480312315977,9.71300929990214 l-10.212862362522081,-0.0z"/>
<path fill="#B31B1B" fill-opacity="0.37" d="m-3.1559480312315977,-15.715979180285487 l-10.212862362522081,0.0 l8.26237921249264,6.002969880383343 l10.212862362522081,-0.0z"/>
<path fill="#B31B1B" fill-opacity="0.37" d="m-3.1559480312315977,15.715979180285487 l-10.212862362522081,0.0 l8.26237921249264,-6.002969880383343 l10.212862362522081,-0.0z"/>
<path fill="#B31B1B" fill-opacity="0.9" d="m8.262379212492645,-0.0 l-10.212862362522085,0.0 l-3.155948031231601,-9.713009299902144 l10.212862362522085,-0.0z"/>
<path fill="#B31B1B" fill-opacity="0.9" d="m8.262379212492645,0.0 l-10.212862362522085,0.0 l-3.155948031231601,9.713009299902144 l10.212862362522085,-0.0z"/>
<path fill="#B31B1B" fill-opacity="0.9" d="m5.106431181261045,-9.71300929990214 l-8.262379212492643,-6.002969880383347 l3.1559480312315977,-9.71300929990214 l8.262379212492643,6.002969880383347z"/>
<path fill="#B31B1B" fill-opacity="0.9" d="m5.106431181261045,9.71300929990214 l-8.262379212492643,6.002969880383347 l3.1559480312315977,9.71300929990214 l8.262379212492643,-6.002969880383347z"/>
<path fill="#B31B1B" fill-opacity="0.37" d="m8.26237921249264,-19.426018599804284 l-3.1559480312315946,9.713009299902144 l8.262379212492633,-6.002969880383347 l3.1559480312315946,-9.713009299902144z"/>
<path fill="#B31B1B" fill-opacity="0.37" d="m8.26237921249264,19.426018599804284 l-3.1559480312315946,-9.713009299902144 l8.262379212492633,6.002969880383347 l3.1559480312315946,9.713009299902144z"/>
<path fill="#B31B1B" fill-opacity="0.9" d="m8.262379212492645,-0.0 l8.262379212492634,-6.002969880383343 l-3.155948031231601,-9.713009299902144 l-8.262379212492634,6.002969880383343z"/>
<path fill="#B31B1B" fill-opacity="0.9" d="m8.262379212492645,0.0 l8.262379212492634,6.002969880383343 l-3.155948031231601,9.713009299902144 l-8.262379212492634,-6.002969880383343z"/>
<path fill="#B31B1B" fill-opacity="0.37" d="m16.52475842498528,-6.002969880383343 l10.212862362522085,0.0 l-8.26237921249264,6.002969880383343 l-10.212862362522085,-0.0z"/>
<path fill="#B31B1B" fill-opacity="0.37" d="m16.52475842498528,6.002969880383343 l10.212862362522085,0.0 l-8.26237921249264,-6.002969880383343 l-10.212862362522085,-0.0z"/>
<path fill="#B31B1B" fill-opacity="0.9" d="m26.737620787507364,-6.002969880383343 l-10.212862362522085,0.0 l-3.155948031231601,-9.713009299902144 l10.212862362522085,-0.0z"/>
<path fill="#B31B1B" fill-opacity="0.9" d="m26.737620787507364,6.002969880383343 l-10.212862362522085,0.0 l-3.155948031231601,9.713009299902144 l10.212862362522085,-0.0z"/>
<path fill="#B31B1B" fill-opacity="0.9" d="m35.0,0.0 l-8.262379212492636,6.002969880383343 l-8.26237921249264,-6.002969880383343 l8.262379212492636,-6.002969880383343z"/>
</g>
</svg>