<?xml version="1.0" encoding="utf-8"?>
<svg width="100%" height="100%" viewBox="-70.0 -70.0 140.0 140.0" preserveAspectRatio="xMidYMid meet" version="1.1" baseProfile="full" xmlns="http://www.w3.org/2000/svg">
<g style="stroke:#FFFFFF; stroke-width: 0.30638587087566255; stroke-linejoin: round;">
<path fill="#B31B1B" fill-opacity="0.9" d="m-35.0,0.0 l5.106431181261041,3.7100394195187976 l5.106431181261041,-3.7100394195187976 l-5.106431181261041,-3.7100394195187976z"/>
<path fill="#B31B1B" fill-opacity="0.9" d="m-29.89356881873896,-3.7100394195187976 l6.311896062463198,0.0 l1.950483150029445,-6.002969880383346 l-6.311896062463198,-0.0z"/>
<path fill="#B31B1B" fill-opacity="0.9" d="m-29.89356881873896,3.7100394195187976 l6.311896062463198,0.0 l1.950483150029445,6.002969880383346 l-6.311896062463198,-0.0z"/>
<path fill="#B31B1B" fill-opacity="0.37" d="m-23.58167275627576,-3.7100394195187976 l-6.311896062463198,0.0 l5.106431181261041,3.7100394195187976 l6.311896062463198,-0.0z"/>
<path fill="#B31B1B" fill-opacity="0.37" d="m-23.58167275627576,3.7100394195187976 l-6.311896062463198,0.0 l5.106431181261041,-3.7100394195187976 l6.311896062463198,-0.0z"/>
<path fill="#B31B1B" fill-opacity="0.9" d="m-18.475241575014724,-0.0 l-5.106431181261037,-3.7100394195187976 l1.950483150029445,-6.002969880383346 l5.106431181261037,3.7100394195187976z"/>
<path fill="#B31B1B" fill-opacity="0.9" d="m-18.475241575014724,0.0 l-5.106431181261037,3.7100394195187976 l1.950483150029445,6.002969880383346 l5.106431181261037,-3.7100394195187976z"/>
<path fill="#B31B1B" fill-opacity="0.37" d="m-18.47524157501472,-12.00593976076669 l1.9504831500294415,6.002969880383347 l-5.106431181261037,-3.7100394195188002 l-1.9504831500294415,-6.002969880383347z"/>
<path fill="#B31B1B" fill-opacity="0.37" d="m-18.47524157501472,12.00593976076669 l1.9504831500294415,-6.002969880383347 l-5.106431181261037,3.7100394195188002 l-1.9504831500294415,6.002969880383347z"/>
<path fill="#B31B1B" fill-opacity="0.9" d="m-16.52475842498528,-6.002969880383343 l5.106431181261042,-3.7100394195187985 l-1.9504831500294415,-6.002969880383345 l-5.106431181261042,3.7100394195187985z"/>
<path fill="#B31B1B" fill-opacity="0.9" d="m-16.52475842498528,6.002969880383343 l5.106431181261042,3.7100394195187985 l-1.9504831500294415,6.002969880383345 l-5.106431181261042,-3.7100394195187985z"/>
<path fill="#B31B1B" fill-opacity="0.9" d="m-18.475241575014724,-0.0 l6.311896062463198,0.0 l1.950483150029445,-6.002969880383346 l-6.311896062463198,-0.0z"/>
<path fill="#B31B1B" fill-opacity="0.9" d="m-18.475241575014724,0.0 l6.311896062463198,0.0 l1.950483150029445,6.002969880383346 l-6.311896062463198,-0.0z"/>
<path fill="#B31B1B" fill-opacity="0.37" d="m-11.418327243724237,-9.713009299902142 l6.311896062463197,-1.7763568394002505e-15 l-5.1064311812610415,3.7100394195187976 l-6.311896062463197,1.7763568394002505e-15z"/>
<path fill="#B31B1B" fill-opacity="0.37" d="m-11.418327243724237,9.713009299902142 l6.311896062463197,1.7763568394002505e-15 l-5.1064311812610415,-3.7100394195187976 l-6.311896062463197,-1.7763568394002505e-15z"/>
<path fill="#B31B1B" fill-opacity="0.9" d="m-5.10643118126104,-21.71894906066883 l-1.9504831500294424,6.002969880383343 l-6.311896062463196,0.0 l1.9504831500294424,-6.002969880383343z"/>
<path fill="#B31B1B" fill-opacity="0.9" d="m-5.10643118126104,-9.713009299902144 l-6.311896062463197,1.7763568394002505e-15 l-1.9504831500294415,-6.002969880383345 l6.311896062463197,-1.7763568394002505e-15z"/>
<path fill="#B31B1B" fill-opacity="0.9" d="m-5.10643118126104,9.713009299902144 l-6.311896062463197,-1.7763568394002505e-15 l-1.9504831500294415,6.002969880383345 l6.311896062463197,1.7763568394002505e-15z"/>
<path fill="#B31B1B" fill-opacity="0.9" d="m-5.10643118126104,21.71894906066883 l-1.9504831500294424,-6.002969880383343 l-6.311896062463196,0.0 l1.9504831500294424,6.002969880383343z"/>
<path fill="#B31B1B" fill-opacity="0.37" d="m-7.056914331290482,-3.710039419518799 l-5.106431181261044,3.710039419518799 l1.950483150029445,-6.002969880383346 l5.106431181261044,-3.710039419518799z"/>
<path fill="#B31B1B" fill-opacity="0.37" d="m-7.056914331290482,3.710039419518799 l-5.106431181261044,-3.710039419518799 l1.950483150029445,6.002969880383346 l5.106431181261044,3.710039419518799z"/>
<path fill="#B31B1B" fill-opacity="0.9" d="m-12.163345512551526,0.0 l5.106431181261044,3.710039419518799 l5.106431181261043,-3.710039419518799 l-5.106431181261044,-3.710039419518799z"/>
<path fill="#B31B1B" fill-opacity="0.37" d="m-7.056914331290482,-15.715979180285487 l1.9504831500294424,6.002969880383343 l1.950483150029442,-6.002969880383343 l-1.9504831500294424,-6.002969880383343z"/>
<path fill="#B31B1B" fill-opacity="0.37" d="m-7.056914331290482,15.715979180285487 l1.9504831500294424,-6.002969880383343 l1.950483150029442,6.002969880383343 l-1.9504831500294424,6.002969880383343z"/>
<path fill="#B31B1B" fill-opacity="0.9" d="m-5.10643118126104,-9.713009299902144 l-1.9504831500294424,6.002969880383345 l5.106431181261043,3.710039419518799 l1.9504831500294424,-6.002969880383345z"/>
<path fill="#B31B1B" fill-opacity="0.9" d="m-5.10643118126104,9.713009299902144 l-1.9504831500294424,-6.002969880383345 l5.106431181261043,-3.710039419518799 l1.9504831500294424,6.002969880383345z"/>
<path fill="#B31B1B" fill-opacity="0.9" d="m0.0,-25.428988480187627 l-5.10643118126104,3.7100394195187967 l1.950483150029442,6.002969880383343 l5.10643118126104,-3.7100394195187967z"/>
<path fill="#B31B1B" fill-opacity="0.9" d="m0.0,25.428988480187627 l-5.10643118126104,-3.7100394195187967 l1.950483150029442,-6.002969880383343 l5.10643118126104,3.7100394195187967z"/>
<path fill="#B31B1B" fill-opacity="0.37" d="m1.5543122344752192e-15,-13.42304871942094 l1.9504831500294422,-6.002969880383343 l-5.1064311812610415,3.7100394195187967 l-1.9504831500294422,6.002969880383343z"/>
<path fill="#B31B1B" fill-opacity="0.37" d="m1.5543122344752192e-15,13.42304871942094 l1.9504831500294422,6.002969880383343 l-5.1064311812610415,-3.7100394195187967 l-1.9504831500294422,-6.002969880383343z"/>
<path fill="#B31B1B" fill-opacity="0.9" d="m-5.10643118126104,-9.713009299902144 l5.1064311812610415,-3.7100394195187967 l5.106431181261043,3.7100394195188002 l-5.1064311812610415,3.7100394195187967z"/>
<path fill="#B31B1B" fill-opacity="0.9" d="m-5.10643118126104,9.713009299902144 l5.1064311812610415,3.7100394195187967 l5.106431181261043,-3.7100394195188002 l-5.1064311812610415,-3.7100394195187967z"/>
<path fill="#B31B1B" fill-opacity="0.37" d="m1.9504831500294462,0.0 l-1.950483150029444,6.002969880383346 l-1.950483150029441,-6.002969880383346 l1.950483150029444,-6.002969880383346z"/>
<path fill="#B31B1B" fill-opacity="0.9" d="m1.9504831500294437,-19.426018599804284 l-1.9504831500294422,6.002969880383343 l5.106431181261043,3.7100394195188002 l1.9504831500294422,-6.002969880383343z"/>
<path fill="#B31B1B" fill-opacity="0.9" d="m1.9504831500294437,19.426018599804284 l-1.9504831500294422,-6.002969880383343 l5.106431181261043,-3.7100394195188002 l1.9504831500294422,6.002969880383343z"/>
<path fill="#B31B1B" fill-opacity="0.9" d="m0.0,-25.428988480187627 l1.9504831500294437,6.002969880383343 l6.311896062463196,0.0 l-1.9504831500294437,-6.002969880383343z"/>
<path fill="#B31B1B" fill-opacity="0.9" d="m0.0,25.428988480187627 l1.9504831500294437,-6.002969880383343 l6.311896062463196,0.0 l-1.9504831500294437,6.002969880383343z"/>
<path fill="#B31B1B" fill-opacity="0.9" d="m2.220446049250313e-15,-6.002969880383346 l1.950483150029444,6.002969880383346 l6.311896062463199,0.0 l-1.950483150029444,-6.002969880383346z"/>
<path fill="#B31B1B" fill-opacity="0.9" d="m2.220446049250313e-15,6.002969880383346 l1.950483150029444,-6.002969880383346 l6.311896062463199,0.0 l-1.950483150029444,6.002969880383346z"/>
<path fill="#B31B1B" fill-opacity="0.37" d="m6.311896062463202,-6.002969880383343 l-6.3118960624632,-2.6645352591003757e-15 l5.106431181261042,-3.710039419518794 l6.3118960624632,2.6645352591003757e-15z"/>
<path fill="#B31B1B" fill-opacity="0.37" d="m6.311896062463202,6.002969880383343 l-6.3118960624632,2.6645352591003757e-15 l5.106431181261042,3.710039419518794 l6.3118960624632,-2.6645352591003757e-15z"/>
<path fill="#B31B1B" fill-opacity="0.37" d="m7.056914331290486,-15.715979180285487 l-5.106431181261042,-3.7100394195187967 l6.311896062463196,0.0 l5.106431181261042,3.7100394195187967z"/>
<path fill="#B31B1B" fill-opacity="0.37" d="m7.056914331290486,15.715979180285487 l-5.106431181261042,3.7100394195187967 l6.311896062463196,0.0 l5.106431181261042,-3.7100394195187967z"/>
<path fill="#B31B1B" fill-opacity="0.9" d="m13.368810393753678,-15.715979180285487 l-6.311896062463193,0.0 l-1.9504831500294406,6.002969880383347 l6.311896062463193,-0.0z"/>
<path fill="#B31B1B" fill-opacity="0.9" d="m13.368810393753678,15.715979180285487 l-6.311896062463193,0.0 l-1.9504831500294406,-6.002969880383347 l6.311896062463193,-0.0z"/>
<path fill="#B31B1B" fill-opacity="0.9" d="m11.418327243724239,-9.713009299902144 l1.950483150029445,6.002969880383347 l-5.106431181261039,3.710039419518797 l-1.950483150029445,-6.002969880383347z"/>
<path fill="#B31B1B" fill-opacity="0.9" d="m11.418327243724239,9.713009299902144 l1.950483150029445,-6.002969880383347 l-5.106431181261039,-3.710039419518797 l-1.950483150029445,6.002969880383347z"/>
<path fill="#B31B1B" fill-opacity="0.9" d="m18.475241575014724,0.0 l-5.106431181261041,3.710039419518797 l-5.106431181261039,-3.710039419518797 l5.106431181261041,-3.710039419518797z"/>
<path fill="#B31B1B" fill-opacity="0.9" d="m13.368810393753678,-15.715979180285487 l5.106431181261042,3.7100394195187967 l-1.9504831500294415,6.002969880383347 l-5.106431181261042,-3.7100394195187967z"/>
<path fill="#B31B1B" fill-opacity="0.9" d="m13.368810393753678,15.715979180285487 l5.106431181261042,-3.7100394195187967 l-1.9504831500294415,-6.002969880383347 l-5.106431181261042,3.7100394195187967z"/>
<path fill="#B31B1B" fill-opacity="0.37" d="m13.368810393753684,-3.710039419518797 l5.106431181261041,3.710039419518797 l-1.950483150029445,-6.002969880383343 l-5.106431181261041,-3.710039419518797z"/>
<path fill="#B31B1B" fill-opacity="0.37" d="m13.368810393753684,3.710039419518797 l5.106431181261041,-3.710039419518797 l-1.950483150029445,6.002969880383343 l-5.106431181261041,3.710039419518797z"/>
<path fill="#B31B1B" fill-opacity="0.37" d="m20.425724725044162,-6.002969880383343 l-1.9504831500294415,-6.002969880383347 l-1.9504831500294415,6.002969880383347 l1.9504831500294415,6.002969880383347z"/>
<path fill="#B31B1B" fill-opacity="0.37" d="m20.425724725044162,6.002969880383343 l-1.9504831500294415,6.002969880383347 l-1.9504831500294415,-6.002969880383347 l1.9504831500294415,-6.002969880383347z"/>
<path fill="#B31B1B" fill-opacity="0.9" d="m18.47524157501472,-12.00593976076669 l1.9504831500294415,6.002969880383347 l6.311896062463202,0.0 l-1.9504831500294415,-6.002969880383347z"/>
<path fill="#B31B1B" fill-opacity="0.9" d="m18.475241575014724,-0.0 l1.950483150029438,-6.002969880383343 l6.311896062463202,0.0 l-1.950483150029438,6.002969880383343z"/>
<path fill="#B31B1B" fill-opacity="0.9" d="m18.475241575014724,0.0 l1.950483150029438,6.002969880383343 l6.311896062463202,0.0 l-1.950483150029438,-6.002969880383343z"/>
<path fill="#B31B1B" fill-opacity="0.9" d="m18.47524157501472,12.00593976076669 l1.9504831500294415,-6.002969880383347 l6.311896062463202,0.0 l-1.9504831500294415,6.002969880383347z"/>
<path fill="#B31B1B" fill-opacity="0.37" d="m29.893568818738963,-3.710039419518797 l-5.106431181261044,3.710039419518797 l1.950483150029445,-6.002969880383343 l5.106431181261044,-3.710039419518797z"/>
<path fill="#B31B1B" fill-opacity="0.37" d="m29.893568818738963,3.710039419518797 l-5.106431181261044,-3.710039419518797 l1.950483150029445,6.002969880383343 l5.106431181261044,3.710039419518797z"/>
<path fill="#B31B1B" fill-opacity="0.9" d="m24.78713763747792,0.0 l5.106431181261044,3.710039419518797 l5.106431181261037,-3.710039419518797 l-5.106431181261044,-3.710039419518797z"/>
</g>
</svg>