<?xml version="1.0" encoding="utf-8"?>
<svg width="100%" height="100%" viewBox="-70.0 -70.0 140.0 140.0" preserveAspectRatio="xMidYMid meet" version="1.1" baseProfile="full" xmlns="http://www.w3.org/2000/svg">
<g style="stroke:#FFFFFF; stroke-width: 0.18935688187389596; stroke-linejoin: round;">
<path fill="#B31B1B" fill-opacity="0.9" d="m-28.688103937536802,0.0 l-3.1559480312316026,2.292930460864547 l-3.1559480312315955,-2.292930460864547 l3.1559480312316026,-2.292930460864547z"/>
<path fill="#B31B1B" fill-opacity="0.37" d="m-31.844051968768404,-2.292930460864547 l3.1559480312316026,2.292930460864547 l-1.2054648812021576,-3.7100394195187976 l-3.1559480312316026,-2.292930460864547z"/>
<path fill="#B31B1B" fill-opacity="0.37" d="m-31.844051968768404,2.292930460864547 l3.1559480312316026,-2.292930460864547 l-1.2054648812021576,3.7100394195187976 l-3.1559480312316026,2.292930460864547z"/>
<path fill="#B31B1B" fill-opacity="0.9" d="m-24.78713763747792,-7.420078839037597 l-1.205464881202154,3.7100394195187993 l-3.9009663000588866,0.0 l1.205464881202154,-3.7100394195187993z"/>
<path fill="#B31B1B" fill-opacity="0.9" d="m-24.78713763747792,-0.0 l-1.205464881202154,-3.7100394195187976 l-3.9009663000588866,0.0 l1.205464881202154,3.7100394195187976z"/>
<path fill="#B31B1B" fill-opacity="0.9" d="m-24.78713763747792,0.0 l-1.205464881202154,3.7100394195187976 l-3.9009663000588866,0.0 l1.205464881202154,-3.7100394195187976z"/>
<path fill="#B31B1B" fill-opacity="0.9" d="m-24.78713763747792,7.420078839037597 l-1.205464881202154,-3.7100394195187993 l-3.9009663000588866,0.0 l1.205464881202154,3.7100394195187993z"/>
<path fill="#B31B1B" fill-opacity="0.37" d="m-25.992602518680073,-3.7100394195187976 l1.205464881202154,-3.7100394195187993 l1.2054648812021576,3.7100394195187993 l-1.205464881202154,3.7100394195187993z"/>
<path fill="#B31B1B" fill-opacity="0.37" d="m-25.992602518680073,3.7100394195187976 l1.205464881202154,3.7100394195187993 l1.2054648812021576,-3.7100394195187993 l-1.205464881202154,-3.7100394195187993z"/>
<path fill="#B31B1B" fill-opacity="0.37" d="m-21.631189606246323,-2.292930460864547 l-3.1559480312315955,2.292930460864547 l1.2054648812021576,-3.7100394195187976 l3.1559480312315955,-2.292930460864547z"/>
<path fill="#B31B1B" fill-opacity="0.37" d="m-21.631189606246323,2.292930460864547 l-3.1559480312315955,-2.292930460864547 l1.2054648812021576,3.7100394195187976 l3.1559480312315955,2.292930460864547z"/>
<path fill="#B31B1B" fill-opacity="0.9" d="m-21.631189606246316,-9.713009299902144 l-3.1559480312316026,2.2929304608645467 l1.2054648812021576,3.7100394195187993 l3.1559480312316026,-2.2929304608645467z"/>
<path fill="#B31B1B" fill-opacity="0.9" d="m-21.631189606246316,9.713009299902144 l-3.1559480312316026,-2.2929304608645467 l1.2054648812021576,-3.7100394195187993 l3.1559480312316026,2.2929304608645467z"/>
<path fill="#B31B1B" fill-opacity="0.9" d="m-24.78713763747792,0.0 l3.1559480312315955,2.292930460864547 l3.155948031231599,-2.292930460864547 l-3.1559480312315955,-2.292930460864547z"/>
<path fill="#B31B1B" fill-opacity="0.9" d="m-20.425724725044162,-6.002969880383346 l-1.205464881202161,3.710039419518799 l3.155948031231599,2.292930460864547 l1.205464881202161,-3.710039419518799z"/>
<path fill="#B31B1B" fill-opacity="0.9" d="m-20.425724725044162,6.002969880383346 l-1.205464881202161,-3.710039419518799 l3.155948031231599,-2.292930460864547 l1.205464881202161,3.710039419518799z"/>
<path fill="#B31B1B" fill-opacity="0.9" d="m-21.631189606246316,-9.713009299902144 l3.900966300058883,0.0 l1.205464881202154,3.7100394195188002 l-3.900966300058883,-0.0z"/>
<path fill="#B31B1B" fill-opacity="0.9" d="m-21.631189606246316,9.713009299902144 l3.900966300058883,0.0 l1.205464881202154,-3.7100394195188002 l-3.900966300058883,-0.0z"/>
<path fill="#B31B1B" fill-opacity="0.37" d="m-17.730223306187433,-9.713009299902144 l3.1559480312315973,-2.2929304608645467 l-3.900966300058885,0.0 l-3.1559480312315973,2.2929304608645467z"/>
<path fill="#B31B1B" fill-opacity="0.37" d="m-17.730223306187433,9.713009299902144 l3.1559480312315973,2.2929304608645467 l-3.900966300058885,0.0 l-3.1559480312315973,-2.2929304608645467z"/>
<path fill="#B31B1B" fill-opacity="0.37" d="m-17.269776693812567,-3.710039419518797 l3.9009663000588866,-1.7763568394002505e-15 l-3.155948031231599,-2.2929304608645444 l-3.9009663000588866,1.7763568394002505e-15z"/>
<path fill="#B31B1B" fill-opacity="0.37" d="m-17.269776693812567,3.710039419518797 l3.9009663000588866,1.7763568394002505e-15 l-3.155948031231599,2.2929304608645444 l-3.9009663000588866,-1.7763568394002505e-15z"/>
<path fill="#B31B1B" fill-opacity="0.9" d="m-13.36881039375368,-3.710039419518799 l-1.2054648812021576,3.710039419518799 l-3.9009663000588866,0.0 l1.2054648812021576,-3.710039419518799z"/>
<path fill="#B31B1B" fill-opacity="0.9" d="m-13.36881039375368,3.710039419518799 l-1.2054648812021576,-3.710039419518799 l-3.9009663000588866,0.0 l1.2054648812021576,3.710039419518799z"/>
<path fill="#B31B1B" fill-opacity="0.9" d="m-13.368810393753678,-15.715979180285487 l-1.2054648812021576,3.7100394195187967 l-3.900966300058885,0.0 l1.2054648812021576,-3.7100394195187967z"/>
<path fill="#B31B1B" fill-opacity="0.9" d="m-13.368810393753678,15.715979180285487 l-1.2054648812021576,-3.7100394195187967 l-3.900966300058885,0.0 l1.2054648812021576,3.7100394195187967z"/>
<path fill="#B31B1B" fill-opacity="0.9" d="m-14.574275274955836,-12.00593976076669 l1.2054648812021558,3.7100394195187985 l-3.155948031231599,2.2929304608645484 l-1.2054648812021558,-3.7100394195187985z"/>
<path fill="#B31B1B" fill-opacity="0.9" d="m-14.574275274955836,12.00593976076669 l1.2054648812021558,-3.7100394195187985 l-3.155948031231599,-2.2929304608645484 l-1.2054648812021558,3.7100394195187985z"/>
<path fill="#B31B1B" fill-opacity="0.37" d="m-14.574275274955838,0.0 l1.2054648812021576,3.710039419518799 l1.205464881202154,-3.710039419518799 l-1.2054648812021576,-3.710039419518799z"/>
<path fill="#B31B1B" fill-opacity="0.9" d="m-10.212862362522081,-6.002969880383346 l-3.155948031231599,-2.2929304608645458 l-3.155948031231599,2.2929304608645484 l3.155948031231599,2.2929304608645458z"/>
<path fill="#B31B1B" fill-opacity="0.9" d="m-10.212862362522081,6.002969880383346 l-3.155948031231599,2.2929304608645458 l-3.155948031231599,-2.2929304608645484 l3.155948031231599,-2.2929304608645458z"/>
<path fill="#B31B1B" fill-opacity="0.37" d="m-13.36881039375368,-8.295900341247892 l-1.2054648812021558,-3.7100394195187985 l3.155948031231599,2.2929304608645484 l1.2054648812021558,3.7100394195187985z"/>
<path fill="#B31B1B" fill-opacity="0.37" d="m-13.36881039375368,8.295900341247892 l-1.2054648812021558,3.7100394195187985 l3.155948031231599,-2.2929304608645484 l1.2054648812021558,-3.7100394195187985z"/>
<path fill="#B31B1B" fill-opacity="0.9" d="m-13.368810393753678,-15.715979180285487 l3.1559480312315973,2.2929304608645467 l-1.2054648812021558,3.7100394195187985 l-3.1559480312315973,-2.2929304608645467z"/>
<path fill="#B31B1B" fill-opacity="0.9" d="m-13.368810393753678,15.715979180285487 l3.1559480312315973,-2.2929304608645467 l-1.2054648812021558,-3.7100394195187985 l-3.1559480312315973,2.2929304608645467z"/>
<path fill="#B31B1B" fill-opacity="0.9" d="m-10.212862362522081,-6.002969880383346 l1.2054648812021558,3.710039419518798 l-3.155948031231601,2.292930460864548 l-1.2054648812021558,-3.710039419518798z"/>
<path fill="#B31B1B" fill-opacity="0.9" d="m-10.212862362522081,6.002969880383346 l1.2054648812021558,-3.710039419518798 l-3.155948031231601,-2.292930460864548 l-1.2054648812021558,3.710039419518798z"/>
<path fill="#B31B1B" fill-opacity="0.9" d="m-13.368810393753678,-15.715979180285487 l3.1559480312315973,2.2929304608645467 l3.155948031231599,-2.2929304608645467 l-3.1559480312315973,-2.2929304608645467z"/>
<path fill="#B31B1B" fill-opacity="0.37" d="m-9.007397481319925,-9.713009299902144 l-1.2054648812021558,3.7100394195187976 l-1.2054648812021558,-3.710039419518796 l1.2054648812021558,-3.7100394195187976z"/>
<path fill="#B31B1B" fill-opacity="0.37" d="m-9.007397481319925,9.713009299902144 l-1.2054648812021558,-3.7100394195187976 l-1.2054648812021558,3.710039419518796 l1.2054648812021558,3.7100394195187976z"/>
<path fill="#B31B1B" fill-opacity="0.9" d="m-13.368810393753678,15.715979180285487 l3.1559480312315973,-2.2929304608645467 l3.155948031231599,2.2929304608645467 l-3.1559480312315973,2.2929304608645467z"/>
<path fill="#B31B1B" fill-opacity="0.9" d="m-5.851449450088325,0.0 l-3.1559480312316,2.292930460864548 l-3.155948031231601,-2.292930460864548 l3.1559480312316,-2.292930460864548z"/>
<path fill="#B31B1B" fill-opacity="0.37" d="m-9.007397481319925,-2.292930460864548 l3.1559480312316,2.292930460864548 l-1.2054648812021567,-3.710039419518799 l-3.1559480312316,-2.292930460864548z"/>
<path fill="#B31B1B" fill-opacity="0.37" d="m-9.007397481319925,2.292930460864548 l3.1559480312316,-2.292930460864548 l-1.2054648812021567,3.710039419518799 l-3.1559480312316,2.292930460864548z"/>
<path fill="#B31B1B" fill-opacity="0.9" d="m-10.212862362522081,-18.008909641150034 l3.9009663000588857,0.0 l1.2054648812021558,-3.7100394195187967 l-3.9009663000588857,-0.0z"/>
<path fill="#B31B1B" fill-opacity="0.9" d="m-10.212862362522081,-13.42304871942094 l1.2054648812021558,3.7100394195187967 l3.9009663000588857,0.0 l-1.2054648812021558,-3.7100394195187967z"/>
<path fill="#B31B1B" fill-opacity="0.9" d="m-10.212862362522081,-6.002969880383346 l3.9009663000588857,8.881784197001252e-16 l1.2054648812021558,-3.7100394195187985 l-3.9009663000588857,-8.881784197001252e-16z"/>
<path fill="#B31B1B" fill-opacity="0.9" d="m-10.212862362522081,6.002969880383346 l3.9009663000588857,-8.881784197001252e-16 l1.2054648812021558,3.7100394195187985 l-3.9009663000588857,8.881784197001252e-16z"/>
<path fill="#B31B1B" fill-opacity="0.9" d="m-10.212862362522081,13.42304871942094 l1.2054648812021558,-3.7100394195187967 l3.9009663000588857,0.0 l-1.2054648812021558,3.7100394195187967z"/>
<path fill="#B31B1B" fill-opacity="0.9" d="m-10.212862362522081,18.008909641150034 l3.9009663000588857,0.0 l1.2054648812021558,3.7100394195187967 l-3.9009663000588857,-0.0z"/>
<path fill="#B31B1B" fill-opacity="0.37" d="m-6.3118960624631955,-18.008909641150034 l-3.9009663000588857,0.0 l3.155948031231599,2.2929304608645467 l3.9009663000588857,-0.0z"/>
<path fill="#B31B1B" fill-opacity="0.37" d="m-6.3118960624631955,-13.42304871942094 l3.1559480312315977,-2.2929304608645467 l-3.9009663000588843,0.0 l-3.1559480312315977,2.2929304608645467z"/>
<path fill="#B31B1B" fill-opacity="0.37" d="m-6.3118960624631955,-6.002969880383345 l-3.9009663000588857,-8.881784197001252e-16 l3.155948031231599,2.292930460864547 l3.9009663000588857,8.881784197001252e-16z"/>
<path fill="#B31B1B" fill-opacity="0.37" d="m-6.3118960624631955,6.002969880383345 l-3.9009663000588857,8.881784197001252e-16 l3.155948031231599,-2.292930460864547 l3.9009663000588857,-8.881784197001252e-16z"/>
<path fill="#B31B1B" fill-opacity="0.37" d="m-6.3118960624631955,13.42304871942094 l3.1559480312315977,2.2929304608645467 l-3.9009663000588843,0.0 l-3.1559480312315977,-2.2929304608645467z"/>
<path fill="#B31B1B" fill-opacity="0.37" d="m-6.3118960624631955,18.008909641150034 l-3.9009663000588857,0.0 l3.155948031231599,-2.2929304608645467 l3.9009663000588857,-0.0z"/>
<path fill="#B31B1B" fill-opacity="0.9" d="m-1.9504831500294388,-0.0 l-3.9009663000588866,0.0 l-1.2054648812021567,-3.710039419518799 l3.9009663000588866,-0.0z"/>
<path fill="#B31B1B" fill-opacity="0.9" d="m-1.9504831500294388,0.0 l-3.9009663000588866,0.0 l-1.2054648812021567,3.710039419518799 l3.9009663000588866,-0.0z"/>
<path fill="#B31B1B" fill-opacity="0.37" d="m-3.1559480312315977,-23.13605801932308 l1.2054648812021556,3.7100394195187967 l-3.1559480312315973,-2.2929304608645467 l-1.2054648812021556,-3.7100394195187967z"/>
<path fill="#B31B1B" fill-opacity="0.9" d="m-3.1559480312315977,-15.715979180285487 l-3.1559480312315977,-2.2929304608645467 l1.2054648812021558,-3.7100394195187967 l3.1559480312315977,2.2929304608645467z"/>
<path fill="#B31B1B" fill-opacity="0.9" d="m-3.1559480312315977,-15.715979180285487 l-3.1559480312315977,2.2929304608645467 l1.2054648812021558,3.7100394195187967 l3.1559480312315977,-2.2929304608645467z"/>
<path fill="#B31B1B" fill-opacity="0.9" d="m-3.1559480312315977,15.715979180285487 l-3.1559480312315977,-2.2929304608645467 l1.2054648812021558,-3.7100394195187967 l3.1559480312315977,2.2929304608645467z"/>
<path fill="#B31B1B" fill-opacity="0.9" d="m-3.1559480312315977,15.715979180285487 l-3.1559480312315977,2.2929304608645467 l1.2054648812021558,3.7100394195187967 l3.1559480312315977,-2.2929304608645467z"/>
<path fill="#B31B1B" fill-opacity="0.37" d="m-3.1559480312315977,23.13605801932308 l1.2054648812021556,-3.7100394195187967 l-3.1559480312315973,2.2929304608645467 l-1.2054648812021556,3.7100394195187967z"/>
<path fill="#B31B1B" fill-opacity="0.9" d="m-3.1559480312315955,-3.7100394195187976 l-3.1559480312316,-2.2929304608645475 l1.2054648812021558,-3.7100394195187985 l3.1559480312316,2.2929304608645475z"/>
<path fill="#B31B1B" fill-opacity="0.9" d="m-3.1559480312315955,3.7100394195187976 l-3.1559480312316,2.2929304608645475 l1.2054648812021558,3.7100394195187985 l3.1559480312316,-2.2929304608645475z"/>
<path fill="#B31B1B" fill-opacity="0.9" d="m1.2054648812021596,-9.71300929990214 l-3.1559480312316004,-2.29293046086455 l-3.155948031231599,2.2929304608645467 l3.1559480312316004,2.29293046086455z"/>
<path fill="#B31B1B" fill-opacity="0.9" d="m1.2054648812021596,9.71300929990214 l-3.1559480312316004,2.29293046086455 l-3.155948031231599,-2.2929304608645467 l3.1559480312316004,-2.29293046086455z"/>
<path fill="#B31B1B" fill-opacity="0.9" d="m-1.9504831500294422,-19.426018599804284 l-1.2054648812021556,-3.7100394195187967 l3.1559480312315977,-2.2929304608645467 l1.2054648812021556,3.7100394195187967z"/>
<path fill="#B31B1B" fill-opacity="0.9" d="m-1.9504831500294422,19.426018599804284 l-1.2054648812021556,3.7100394195187967 l3.1559480312315977,2.2929304608645467 l1.2054648812021556,-3.7100394195187967z"/>
<path fill="#B31B1B" fill-opacity="0.37" d="m-1.9504831500294408,-12.00593976076669 l-1.205464881202157,-3.7100394195187967 l3.155948031231599,2.2929304608645467 l1.205464881202157,3.7100394195187967z"/>
<path fill="#B31B1B" fill-opacity="0.37" d="m-1.9504831500294408,12.00593976076669 l-1.205464881202157,3.7100394195187967 l3.155948031231599,-2.2929304608645467 l1.205464881202157,-3.7100394195187967z"/>
<path fill="#B31B1B" fill-opacity="0.37" d="m-1.9504831500294404,-7.420078839037597 l-1.2054648812021551,3.7100394195187993 l3.1559480312315977,-2.2929304608645484 l1.2054648812021551,-3.7100394195187993z"/>
<path fill="#B31B1B" fill-opacity="0.37" d="m-1.9504831500294404,7.420078839037597 l-1.2054648812021551,-3.7100394195187993 l3.1559480312315977,2.2929304608645484 l1.2054648812021551,3.7100394195187993z"/>
<path fill="#B31B1B" fill-opacity="0.9" d="m-1.9504831500294388,-0.0 l3.155948031231598,-2.292930460864547 l-1.205464881202157,-3.710039419518799 l-3.155948031231598,2.292930460864547z"/>
<path fill="#B31B1B" fill-opacity="0.9" d="m-1.9504831500294388,0.0 l3.155948031231598,2.292930460864547 l-1.205464881202157,3.710039419518799 l-3.155948031231598,-2.292930460864547z"/>
<path fill="#B31B1B" fill-opacity="0.9" d="m-3.1559480312315977,-15.715979180285487 l3.9009663000588857,0.0 l1.2054648812021558,-3.7100394195187967 l-3.9009663000588857,-0.0z"/>
<path fill="#B31B1B" fill-opacity="0.9" d="m-3.1559480312315977,15.715979180285487 l3.9009663000588857,0.0 l1.2054648812021558,3.7100394195187967 l-3.9009663000588857,-0.0z"/>
<path fill="#B31B1B" fill-opacity="0.37" d="m0.7450182688272879,-15.715979180285487 l3.1559480312316004,2.29293046086455 l-3.9009663000588866,-3.552713678800501e-15 l-3.1559480312316004,-2.29293046086455z"/>
<path fill="#B31B1B" fill-opacity="0.37" d="m0.7450182688272879,15.715979180285487 l3.1559480312316004,-2.29293046086455 l-3.9009663000588866,3.552713678800501e-15 l-3.1559480312316004,2.29293046086455z"/>
<path fill="#B31B1B" fill-opacity="0.37" d="m1.205464881202157,-21.71894906066883 l-3.155948031231599,2.2929304608645467 l3.9009663000588857,0.0 l3.155948031231599,-2.2929304608645467z"/>
<path fill="#B31B1B" fill-opacity="0.37" d="m1.205464881202157,21.71894906066883 l-3.155948031231599,-2.2929304608645467 l3.9009663000588857,0.0 l3.155948031231599,2.2929304608645467z"/>
<path fill="#B31B1B" fill-opacity="0.37" d="m1.205464881202159,-2.292930460864547 l3.9009663000588866,0.0 l-3.1559480312316,2.292930460864547 l-3.9009663000588866,-0.0z"/>
<path fill="#B31B1B" fill-opacity="0.37" d="m1.205464881202159,2.292930460864547 l3.9009663000588866,0.0 l-3.1559480312316,-2.292930460864547 l-3.9009663000588866,-0.0z"/>
<path fill="#B31B1B" fill-opacity="0.9" d="m5.1064311812610415,-21.71894906066883 l-3.900966300058885,0.0 l-1.205464881202157,-3.7100394195187967 l3.900966300058885,-0.0z"/>
<path fill="#B31B1B" fill-opacity="0.9" d="m5.1064311812610415,21.71894906066883 l-3.900966300058885,0.0 l-1.205464881202157,3.7100394195187967 l3.900966300058885,-0.0z"/>
<path fill="#B31B1B" fill-opacity="0.9" d="m5.106431181261045,-9.71300929990214 l-1.2054648812021567,-3.7100394195187967 l-3.9009663000588866,-3.552713678800501e-15 l1.2054648812021567,3.7100394195187967z"/>
<path fill="#B31B1B" fill-opacity="0.9" d="m5.106431181261045,9.71300929990214 l-1.2054648812021567,3.7100394195187967 l-3.9009663000588866,3.552713678800501e-15 l1.2054648812021567,-3.7100394195187967z"/>
<path fill="#B31B1B" fill-opacity="0.9" d="m5.106431181261045,-9.71300929990214 l-1.2054648812021558,3.710039419518796 l-3.900966300058887,-1.7763568394002505e-15 l1.2054648812021558,-3.710039419518796z"/>
<path fill="#B31B1B" fill-opacity="0.9" d="m5.106431181261046,-2.292930460864547 l-3.9009663000588866,0.0 l-1.205464881202157,-3.710039419518799 l3.9009663000588866,-0.0z"/>
<path fill="#B31B1B" fill-opacity="0.9" d="m5.106431181261046,2.292930460864547 l-3.9009663000588866,0.0 l-1.205464881202157,3.710039419518799 l3.9009663000588866,-0.0z"/>
<path fill="#B31B1B" fill-opacity="0.9" d="m5.106431181261045,9.71300929990214 l-1.2054648812021558,-3.710039419518796 l-3.900966300058887,1.7763568394002505e-15 l1.2054648812021558,3.710039419518796z"/>
<path fill="#B31B1B" fill-opacity="0.9" d="m3.9009663000588883,-13.423048719420937 l-3.1559480312316004,-2.29293046086455 l1.2054648812021558,-3.7100394195187967 l3.1559480312316004,2.29293046086455z"/>
<path fill="#B31B1B" fill-opacity="0.9" d="m3.9009663000588883,13.423048719420937 l-3.1559480312316004,2.29293046086455 l1.2054648812021558,3.7100394195187967 l3.1559480312316004,-2.29293046086455z"/>
<path fill="#B31B1B" fill-opacity="0.9" d="m8.26237921249264,-19.426018599804284 l-3.1559480312315973,2.2929304608645467 l-3.1559480312315986,-2.2929304608645467 l3.1559480312315973,-2.2929304608645467z"/>
<path fill="#B31B1B" fill-opacity="0.9" d="m8.26237921249264,19.426018599804284 l-3.1559480312315973,-2.2929304608645467 l-3.1559480312315986,2.2929304608645467 l3.1559480312315973,2.2929304608645467z"/>
<path fill="#B31B1B" fill-opacity="0.37" d="m3.9009663000588892,-6.002969880383344 l1.2054648812021567,3.710039419518797 l1.2054648812021558,-3.7100394195187962 l-1.2054648812021567,-3.710039419518797z"/>
<path fill="#B31B1B" fill-opacity="0.9" d="m8.262379212492645,0.0 l-3.155948031231599,2.292930460864547 l-3.1559480312316,-2.292930460864547 l3.155948031231599,-2.292930460864547z"/>
<path fill="#B31B1B" fill-opacity="0.37" d="m3.9009663000588892,6.002969880383344 l1.2054648812021567,-3.710039419518797 l1.2054648812021558,3.7100394195187962 l-1.2054648812021567,3.710039419518797z"/>
<path fill="#B31B1B" fill-opacity="0.37" d="m5.106431181261042,-17.133088138939737 l-1.205464881202154,3.7100394195188002 l3.1559480312315973,-2.29293046086455 l1.205464881202154,-3.7100394195188002z"/>
<path fill="#B31B1B" fill-opacity="0.37" d="m5.106431181261042,17.133088138939737 l-1.205464881202154,-3.7100394195188002 l3.1559480312315973,2.29293046086455 l1.205464881202154,3.7100394195188002z"/>
<path fill="#B31B1B" fill-opacity="0.9" d="m5.106431181261045,-9.71300929990214 l-1.2054648812021567,-3.7100394195187967 l3.1559480312315973,-2.29293046086455 l1.2054648812021567,3.7100394195187967z"/>
<path fill="#B31B1B" fill-opacity="0.9" d="m5.106431181261045,9.71300929990214 l-1.2054648812021567,3.7100394195187967 l3.1559480312315973,2.29293046086455 l1.2054648812021567,-3.7100394195187967z"/>
<path fill="#B31B1B" fill-opacity="0.37" d="m8.262379212492643,-7.420078839037595 l1.2054648812021558,3.7100394195187976 l-3.1559480312315973,-2.2929304608645458 l-1.2054648812021558,-3.7100394195187976z"/>
<path fill="#B31B1B" fill-opacity="0.37" d="m8.262379212492643,7.420078839037595 l1.2054648812021558,-3.7100394195187976 l-3.1559480312315973,2.2929304608645458 l-1.2054648812021558,3.7100394195187976z"/>
<path fill="#B31B1B" fill-opacity="0.9" d="m8.262379212492645,-0.0 l-3.155948031231599,-2.292930460864547 l1.2054648812021558,-3.7100394195187962 l3.155948031231599,2.292930460864547z"/>
<path fill="#B31B1B" fill-opacity="0.9" d="m8.262379212492645,0.0 l-3.155948031231599,2.292930460864547 l1.2054648812021558,3.7100394195187962 l3.155948031231599,-2.292930460864547z"/>
<path fill="#B31B1B" fill-opacity="0.37" d="m9.467844093694795,-15.715979180285487 l-1.2054648812021558,-3.7100394195187967 l-1.205464881202154,3.7100394195187967 l1.2054648812021558,3.7100394195187967z"/>
<path fill="#B31B1B" fill-opacity="0.37" d="m9.467844093694795,15.715979180285487 l-1.2054648812021558,3.7100394195187967 l-1.205464881202154,-3.7100394195187967 l1.2054648812021558,-3.7100394195187967z"/>
<path fill="#B31B1B" fill-opacity="0.9" d="m5.106431181261045,-9.71300929990214 l3.155948031231598,2.292930460864545 l3.1559480312315955,-2.2929304608645484 l-3.155948031231598,-2.292930460864545z"/>
<path fill="#B31B1B" fill-opacity="0.9" d="m5.106431181261045,9.71300929990214 l3.155948031231598,-2.292930460864545 l3.1559480312315955,2.2929304608645484 l-3.155948031231598,2.292930460864545z"/>
<path fill="#B31B1B" fill-opacity="0.9" d="m9.467844093694799,-3.7100394195187976 l3.1559480312315973,-2.2929304608645467 l-1.2054648812021576,-3.7100394195187993 l-3.1559480312315973,2.2929304608645467z"/>
<path fill="#B31B1B" fill-opacity="0.9" d="m9.467844093694799,3.7100394195187976 l3.1559480312315973,2.2929304608645467 l-1.2054648812021576,3.7100394195187993 l-3.1559480312315973,-2.2929304608645467z"/>
<path fill="#B31B1B" fill-opacity="0.9" d="m8.26237921249264,-19.426018599804284 l1.2054648812021558,3.7100394195187967 l3.900966300058883,0.0 l-1.2054648812021558,-3.7100394195187967z"/>
<path fill="#B31B1B" fill-opacity="0.9" d="m8.26237921249264,19.426018599804284 l1.2054648812021558,-3.7100394195187967 l3.900966300058883,0.0 l-1.2054648812021558,3.7100394195187967z"/>
<path fill="#B31B1B" fill-opacity="0.9" d="m8.262379212492641,-12.005939760766687 l1.205464881202154,-3.7100394195188002 l3.900966300058883,0.0 l-1.205464881202154,3.7100394195188002z"/>
<path fill="#B31B1B" fill-opacity="0.9" d="m8.262379212492641,12.005939760766687 l1.205464881202154,3.7100394195188002 l3.900966300058883,0.0 l-1.205464881202154,-3.7100394195188002z"/>
<path fill="#B31B1B" fill-opacity="0.9" d="m8.262379212492645,-0.0 l3.900966300058885,0.0 l1.205464881202154,-3.710039419518797 l-3.900966300058885,-0.0z"/>
<path fill="#B31B1B" fill-opacity="0.9" d="m8.262379212492645,0.0 l3.900966300058885,0.0 l1.205464881202154,3.710039419518797 l-3.900966300058885,-0.0z"/>
<path fill="#B31B1B" fill-opacity="0.37" d="m12.163345512551524,-12.00593976076669 l3.1559480312315973,2.29293046086455 l-3.900966300058883,-3.552713678800501e-15 l-3.1559480312315973,-2.29293046086455z"/>
<path fill="#B31B1B" fill-opacity="0.37" d="m12.163345512551524,12.00593976076669 l3.1559480312315973,-2.29293046086455 l-3.900966300058883,3.552713678800501e-15 l-3.1559480312315973,2.29293046086455z"/>
<path fill="#B31B1B" fill-opacity="0.37" d="m12.623792124926396,-6.002969880383344 l-3.1559480312315973,2.2929304608645467 l3.900966300058885,4.440892098500626e-16 l3.1559480312315973,-2.2929304608645467z"/>
<path fill="#B31B1B" fill-opacity="0.37" d="m12.623792124926396,6.002969880383344 l-3.1559480312315973,-2.2929304608645467 l3.900966300058885,-4.440892098500626e-16 l3.1559480312315973,2.2929304608645467z"/>
<path fill="#B31B1B" fill-opacity="0.9" d="m16.52475842498528,-6.002969880383343 l-3.900966300058883,-8.881784197001252e-16 l-1.2054648812021576,-3.7100394195187993 l3.900966300058883,8.881784197001252e-16z"/>
<path fill="#B31B1B" fill-opacity="0.9" d="m16.52475842498528,6.002969880383343 l-3.900966300058883,8.881784197001252e-16 l-1.2054648812021576,3.7100394195187993 l3.900966300058883,-8.881784197001252e-16z"/>
<path fill="#B31B1B" fill-opacity="0.9" d="m15.319293543783122,-9.71300929990214 l1.2054648812021576,-3.7100394195188002 l-3.155948031231601,-2.2929304608645467 l-1.2054648812021576,3.7100394195188002z"/>
<path fill="#B31B1B" fill-opacity="0.9" d="m15.319293543783122,9.71300929990214 l1.2054648812021576,3.7100394195188002 l-3.155948031231601,2.2929304608645467 l-1.2054648812021576,-3.7100394195188002z"/>
<path fill="#B31B1B" fill-opacity="0.37" d="m15.319293543783125,-2.2929304608645467 l1.205464881202154,-3.7100394195187967 l-3.1559480312315955,2.292930460864546 l-1.205464881202154,3.7100394195187967z"/>
<path fill="#B31B1B" fill-opacity="0.37" d="m15.319293543783125,2.2929304608645467 l1.205464881202154,3.7100394195187967 l-3.1559480312315955,-2.292930460864546 l-1.205464881202154,-3.7100394195187967z"/>
<path fill="#B31B1B" fill-opacity="0.9" d="m12.16334551255153,0.0 l3.1559480312315955,2.2929304608645467 l3.155948031231599,-2.2929304608645467 l-3.1559480312315955,-2.2929304608645467z"/>
<path fill="#B31B1B" fill-opacity="0.37" d="m16.52475842498528,-13.42304871942094 l-1.2054648812021576,3.7100394195188002 l3.155948031231599,-2.29293046086455 l1.2054648812021576,-3.7100394195188002z"/>
<path fill="#B31B1B" fill-opacity="0.9" d="m16.52475842498528,-6.002969880383343 l3.1559480312315955,-2.2929304608645467 l-1.205464881202154,-3.7100394195188002 l-3.1559480312315955,2.2929304608645467z"/>
<path fill="#B31B1B" fill-opacity="0.9" d="m16.52475842498528,-6.002969880383343 l3.155948031231599,2.292930460864546 l-1.205464881202154,3.710039419518797 l-3.155948031231599,-2.292930460864546z"/>
<path fill="#B31B1B" fill-opacity="0.9" d="m16.52475842498528,6.002969880383343 l3.155948031231599,-2.292930460864546 l-1.205464881202154,-3.710039419518797 l-3.155948031231599,2.292930460864546z"/>
<path fill="#B31B1B" fill-opacity="0.9" d="m16.52475842498528,6.002969880383343 l3.1559480312315955,2.2929304608645467 l-1.205464881202154,3.7100394195188002 l-3.1559480312315955,-2.2929304608645467z"/>
<path fill="#B31B1B" fill-opacity="0.37" d="m16.52475842498528,13.42304871942094 l-1.2054648812021576,-3.7100394195188002 l3.155948031231599,2.29293046086455 l1.2054648812021576,3.7100394195188002z"/>
<path fill="#B31B1B" fill-opacity="0.37" d="m19.680706456216875,-8.29590034124789 l3.90096630005889,0.0 l-3.1559480312316026,2.2929304608645467 l-3.90096630005889,-0.0z"/>
<path fill="#B31B1B" fill-opacity="0.37" d="m19.680706456216875,8.29590034124789 l3.90096630005889,0.0 l-3.1559480312316026,-2.2929304608645467 l-3.90096630005889,-0.0z"/>
<path fill="#B31B1B" fill-opacity="0.37" d="m19.68070645621688,-3.710039419518797 l-3.155948031231599,-2.292930460864546 l3.900966300058883,0.0 l3.155948031231599,2.292930460864546z"/>
<path fill="#B31B1B" fill-opacity="0.37" d="m19.68070645621688,3.710039419518797 l-3.155948031231599,2.292930460864546 l3.900966300058883,0.0 l3.155948031231599,-2.292930460864546z"/>
<path fill="#B31B1B" fill-opacity="0.9" d="m23.581672756275765,-8.29590034124789 l-3.90096630005889,0.0 l-1.205464881202154,-3.7100394195188002 l3.90096630005889,-0.0z"/>
<path fill="#B31B1B" fill-opacity="0.9" d="m23.581672756275765,-3.710039419518797 l-3.9009663000588866,0.0 l-1.205464881202154,3.710039419518797 l3.9009663000588866,-0.0z"/>
<path fill="#B31B1B" fill-opacity="0.9" d="m23.581672756275765,3.710039419518797 l-3.9009663000588866,0.0 l-1.205464881202154,-3.710039419518797 l3.9009663000588866,-0.0z"/>
<path fill="#B31B1B" fill-opacity="0.9" d="m23.581672756275765,8.29590034124789 l-3.90096630005889,0.0 l-1.205464881202154,3.7100394195188002 l3.90096630005889,-0.0z"/>
<path fill="#B31B1B" fill-opacity="0.9" d="m26.737620787507364,-6.002969880383343 l-3.155948031231599,-2.2929304608645467 l-3.1559480312316026,2.2929304608645467 l3.155948031231599,2.2929304608645467z"/>
<path fill="#B31B1B" fill-opacity="0.37" d="m22.37620787507361,0.0 l1.205464881202154,3.710039419518797 l1.205464881202154,-3.710039419518797 l-1.205464881202154,-3.710039419518797z"/>
<path fill="#B31B1B" fill-opacity="0.9" d="m26.737620787507364,6.002969880383343 l-3.155948031231599,2.2929304608645467 l-3.1559480312316026,-2.2929304608645467 l3.155948031231599,-2.2929304608645467z"/>
<path fill="#B31B1B" fill-opacity="0.9" d="m26.737620787507364,-6.002969880383343 l1.205464881202154,3.7100394195187967 l-3.155948031231599,2.2929304608645467 l-1.205464881202154,-3.7100394195187967z"/>
<path fill="#B31B1B" fill-opacity="0.9" d="m26.737620787507364,6.002969880383343 l1.205464881202154,-3.7100394195187967 l-3.155948031231599,-2.2929304608645467 l-1.205464881202154,3.7100394195187967z"/>
<path fill="#B31B1B" fill-opacity="0.9" d="m31.099033699941117,0.0 l-3.155948031231599,2.2929304608645467 l-3.155948031231599,-2.2929304608645467 l3.155948031231599,-2.2929304608645467z"/>
<path fill="#B31B1B" fill-opacity="0.37" d="m27.943085668709518,-2.2929304608645467 l3.155948031231599,2.2929304608645467 l-1.205464881202154,-3.710039419518797 l-3.155948031231599,-2.2929304608645467z"/>
<path fill="#B31B1B" fill-opacity="0.37" d="m27.943085668709518,2.2929304608645467 l3.155948031231599,-2.2929304608645467 l-1.205464881202154,3.710039419518797 l-3.155948031231599,2.2929304608645467z"/>
<path fill="#B31B1B" fill-opacity="0.9" d="m35.0,-0.0 l-3.900966300058883,0.0 l-1.205464881202154,-3.710039419518797 l3.900966300058883,-0.0z"/>
<path fill="#B31B1B" fill-opacity="0.9" d="m35.0,0.0 l-3.900966300058883,0.0 l-1.205464881202154,3.710039419518797 l3.900966300058883,-0.0z"/>
</g>
</svg>