<?xml version="1.0" encoding="utf-8"?>
<svg width="100%" height="100%" viewBox="-70.0 -70.0 140.0 140.0" preserveAspectRatio="xMidYMid meet" version="1.1" baseProfile="full" xmlns="http://www.w3.org/2000/svg">
<g style="stroke:#FFFFFF; stroke-width: 0.1170289890017666; stroke-linejoin: round;">
<path fill="#B31B1B" fill-opacity="0.9" d="m-35.0,-0.0 l2.410929762404308,0.0 l0.7450182688272875,-2.292930460864547 l-2.410929762404308,-0.0z"/>
<path fill="#B31B1B" fill-opacity="0.9" d="m-35.0,0.0 l2.410929762404308,0.0 l0.7450182688272875,2.292930460864547 l-2.410929762404308,-0.0z"/>
<path fill="#B31B1B" fill-opacity="0.37" d="m-30.63858708756625,-1.417108958654251 l-1.9504831500294415,1.417108958654251 l0.7450182688272875,-2.292930460864547 l1.9504831500294415,-1.417108958654251z"/>
<path fill="#B31B1B" fill-opacity="0.37" d="m-30.63858708756625,1.417108958654251 l-1.9504831500294415,-1.417108958654251 l0.7450182688272875,2.292930460864547 l1.9504831500294415,1.417108958654251z"/>
<path fill="#B31B1B" fill-opacity="0.9" d="m-32.58907023759569,0.0 l1.9504831500294415,1.417108958654251 l1.9504831500294486,-1.417108958654251 l-1.9504831500294415,-1.417108958654251z"/>
<path fill="#B31B1B" fill-opacity="0.9" d="m-29.89356881873896,-3.7100394195187976 l-0.745018268827291,2.2929304608645467 l1.9504831500294486,1.417108958654251 l0.745018268827291,-2.2929304608645467z"/>
<path fill="#B31B1B" fill-opacity="0.9" d="m-29.89356881873896,3.7100394195187976 l-0.745018268827291,-2.2929304608645467 l1.9504831500294486,-1.417108958654251 l0.745018268827291,2.2929304608645467z"/>
<path fill="#B31B1B" fill-opacity="0.9" d="m-29.89356881873896,-3.7100394195187976 l1.9504831500294415,-1.417108958654251 l1.950483150029445,1.417108958654251 l-1.9504831500294415,1.417108958654251z"/>
<path fill="#B31B1B" fill-opacity="0.37" d="m-27.19806739988223,0.0 l-0.7450182688272875,2.292930460864547 l-0.745018268827284,-2.292930460864547 l0.7450182688272875,-2.292930460864547z"/>
<path fill="#B31B1B" fill-opacity="0.9" d="m-29.89356881873896,3.7100394195187976 l1.9504831500294415,1.417108958654251 l1.950483150029445,-1.417108958654251 l-1.9504831500294415,-1.417108958654251z"/>
<path fill="#B31B1B" fill-opacity="0.9" d="m-27.943085668709518,-5.1271483781730485 l2.410929762404315,0.0 l0.745018268827284,-2.2929304608645484 l-2.410929762404315,-0.0z"/>
<path fill="#B31B1B" fill-opacity="0.9" d="m-27.943085668709518,-2.292930460864547 l2.410929762404315,0.0 l0.745018268827284,2.292930460864547 l-2.410929762404315,-0.0z"/>
<path fill="#B31B1B" fill-opacity="0.9" d="m-27.943085668709518,2.292930460864547 l2.410929762404315,0.0 l0.745018268827284,-2.292930460864547 l-2.410929762404315,-0.0z"/>
<path fill="#B31B1B" fill-opacity="0.9" d="m-27.943085668709518,5.1271483781730485 l2.410929762404315,0.0 l0.745018268827284,2.2929304608645484 l-2.410929762404315,-0.0z"/>
<path fill="#B31B1B" fill-opacity="0.37" d="m-25.532155906305203,-5.1271483781730485 l-2.410929762404315,0.0 l1.950483150029445,1.417108958654251 l2.410929762404315,-0.0z"/>
<path fill="#B31B1B" fill-opacity="0.37" d="m-25.532155906305203,-2.292930460864547 l1.9504831500294415,-1.4171089586542505 l-2.4109297624043116,0.0 l-1.9504831500294415,1.4171089586542505z"/>
<path fill="#B31B1B" fill-opacity="0.37" d="m-25.532155906305203,2.292930460864547 l1.9504831500294415,1.4171089586542505 l-2.4109297624043116,0.0 l-1.9504831500294415,-1.4171089586542505z"/>
<path fill="#B31B1B" fill-opacity="0.37" d="m-25.532155906305203,5.1271483781730485 l-2.410929762404315,0.0 l1.950483150029445,-1.417108958654251 l2.410929762404315,-0.0z"/>
<path fill="#B31B1B" fill-opacity="0.37" d="m-23.58167275627576,-8.295900341247894 l0.7450182688272875,2.2929304608645484 l-1.950483150029445,-1.4171089586542518 l-0.7450182688272875,-2.2929304608645484z"/>
<path fill="#B31B1B" fill-opacity="0.9" d="m-23.58167275627576,-3.7100394195187976 l-1.9504831500294415,-1.417108958654251 l0.745018268827284,-2.2929304608645484 l1.9504831500294415,1.417108958654251z"/>
<path fill="#B31B1B" fill-opacity="0.9" d="m-23.58167275627576,-3.7100394195187976 l-1.9504831500294415,1.4171089586542505 l0.745018268827284,2.292930460864547 l1.9504831500294415,-1.4171089586542505z"/>
<path fill="#B31B1B" fill-opacity="0.9" d="m-23.58167275627576,3.7100394195187976 l-1.9504831500294415,-1.4171089586542505 l0.745018268827284,-2.292930460864547 l1.9504831500294415,1.4171089586542505z"/>
<path fill="#B31B1B" fill-opacity="0.9" d="m-23.58167275627576,3.7100394195187976 l-1.9504831500294415,1.417108958654251 l0.745018268827284,2.2929304608645484 l1.9504831500294415,-1.417108958654251z"/>
<path fill="#B31B1B" fill-opacity="0.37" d="m-23.58167275627576,8.295900341247894 l0.7450182688272875,-2.2929304608645484 l-1.950483150029445,1.4171089586542518 l-0.7450182688272875,2.2929304608645484z"/>
<path fill="#B31B1B" fill-opacity="0.9" d="m-20.886171337419036,0.0 l-1.9504831500294415,1.417108958654251 l-1.9504831500294415,-1.417108958654251 l1.9504831500294415,-1.417108958654251z"/>
<path fill="#B31B1B" fill-opacity="0.37" d="m-22.836654487448477,-1.417108958654251 l-0.745018268827284,-2.2929304608645467 l1.950483150029438,1.4171089586542505 l0.745018268827284,2.2929304608645467z"/>
<path fill="#B31B1B" fill-opacity="0.37" d="m-22.836654487448477,1.417108958654251 l-0.745018268827284,2.2929304608645467 l1.950483150029438,-1.4171089586542505 l0.745018268827284,-2.2929304608645467z"/>
<path fill="#B31B1B" fill-opacity="0.9" d="m-22.836654487448474,-6.002969880383345 l-0.7450182688272875,-2.2929304608645484 l1.950483150029445,-1.41710895865425 l0.7450182688272875,2.2929304608645484z"/>
<path fill="#B31B1B" fill-opacity="0.9" d="m-22.836654487448474,6.002969880383345 l-0.7450182688272875,2.2929304608645484 l1.950483150029445,1.41710895865425 l0.7450182688272875,-2.2929304608645484z"/>
<path fill="#B31B1B" fill-opacity="0.9" d="m-23.58167275627576,-3.7100394195187976 l2.410929762404308,-4.440892098500626e-16 l0.745018268827291,-2.292930460864548 l-2.410929762404308,4.440892098500626e-16z"/>
<path fill="#B31B1B" fill-opacity="0.9" d="m-23.58167275627576,3.7100394195187976 l2.410929762404308,4.440892098500626e-16 l0.745018268827291,2.292930460864548 l-2.410929762404308,-4.440892098500626e-16z"/>
<path fill="#B31B1B" fill-opacity="0.37" d="m-21.170742993871453,-3.710039419518798 l1.950483150029445,1.417108958654251 l-2.410929762404315,0.0 l-1.950483150029445,-1.417108958654251z"/>
<path fill="#B31B1B" fill-opacity="0.37" d="m-21.170742993871453,3.710039419518798 l1.950483150029445,-1.417108958654251 l-2.410929762404315,0.0 l-1.950483150029445,1.417108958654251z"/>
<path fill="#B31B1B" fill-opacity="0.37" d="m-20.88617133741903,-7.420078839037597 l-1.950483150029445,1.4171089586542518 l2.4109297624043116,-8.881784197001252e-16 l1.950483150029445,-1.4171089586542518z"/>
<path fill="#B31B1B" fill-opacity="0.37" d="m-20.88617133741903,7.420078839037597 l-1.950483150029445,-1.4171089586542518 l2.4109297624043116,8.881784197001252e-16 l1.950483150029445,1.4171089586542518z"/>
<path fill="#B31B1B" fill-opacity="0.9" d="m-18.475241575014724,-0.0 l-2.4109297624043116,0.0 l-0.7450182688272875,-2.292930460864547 l2.4109297624043116,-0.0z"/>
<path fill="#B31B1B" fill-opacity="0.9" d="m-18.475241575014724,0.0 l-2.4109297624043116,0.0 l-0.7450182688272875,2.292930460864547 l2.4109297624043116,-0.0z"/>
<path fill="#B31B1B" fill-opacity="0.9" d="m-18.47524157501472,-12.00593976076669 l-0.745018268827284,2.2929304608645467 l-2.4109297624043116,0.0 l0.745018268827284,-2.2929304608645467z"/>
<path fill="#B31B1B" fill-opacity="0.9" d="m-18.47524157501472,-7.420078839037595 l-0.745018268827284,-2.2929304608645484 l-2.4109297624043116,0.0 l0.745018268827284,2.2929304608645484z"/>
<path fill="#B31B1B" fill-opacity="0.9" d="m-18.47524157501472,7.420078839037595 l-0.745018268827284,2.2929304608645484 l-2.4109297624043116,0.0 l0.745018268827284,-2.2929304608645484z"/>
<path fill="#B31B1B" fill-opacity="0.9" d="m-18.47524157501472,12.00593976076669 l-0.745018268827284,-2.2929304608645467 l-2.4109297624043116,0.0 l0.745018268827284,2.2929304608645467z"/>
<path fill="#B31B1B" fill-opacity="0.9" d="m-19.22025984384201,-2.292930460864547 l-1.950483150029445,-1.417108958654251 l0.745018268827291,-2.292930460864548 l1.950483150029445,1.417108958654251z"/>
<path fill="#B31B1B" fill-opacity="0.9" d="m-19.22025984384201,2.292930460864547 l-1.950483150029445,1.417108958654251 l0.745018268827291,2.292930460864548 l1.950483150029445,-1.417108958654251z"/>
<path fill="#B31B1B" fill-opacity="0.37" d="m-19.220259843842005,-9.713009299902144 l0.745018268827284,-2.2929304608645467 l0.7450182688272875,2.2929304608645467 l-0.745018268827284,2.2929304608645467z"/>
<path fill="#B31B1B" fill-opacity="0.9" d="m-16.52475842498528,-6.002969880383343 l-1.9504831500294415,1.41710895865425 l-1.9504831500294415,-1.4171089586542527 l1.9504831500294415,-1.41710895865425z"/>
<path fill="#B31B1B" fill-opacity="0.9" d="m-16.52475842498528,6.002969880383343 l-1.9504831500294415,-1.41710895865425 l-1.9504831500294415,1.4171089586542527 l1.9504831500294415,1.41710895865425z"/>
<path fill="#B31B1B" fill-opacity="0.37" d="m-19.220259843842005,9.713009299902144 l0.745018268827284,2.2929304608645467 l0.7450182688272875,-2.2929304608645467 l-0.745018268827284,-2.2929304608645467z"/>
<path fill="#B31B1B" fill-opacity="0.9" d="m-18.475241575014724,-0.0 l1.950483150029445,-1.417108958654251 l-0.7450182688272875,-2.292930460864546 l-1.950483150029445,1.417108958654251z"/>
<path fill="#B31B1B" fill-opacity="0.9" d="m-18.475241575014724,0.0 l1.950483150029445,1.417108958654251 l-0.7450182688272875,2.292930460864546 l-1.950483150029445,-1.417108958654251z"/>
<path fill="#B31B1B" fill-opacity="0.37" d="m-18.47524157501472,-4.585860921729093 l-0.7450182688272875,2.292930460864546 l1.9504831500294415,-1.41710895865425 l0.7450182688272875,-2.292930460864546z"/>
<path fill="#B31B1B" fill-opacity="0.37" d="m-18.47524157501472,4.585860921729093 l-0.7450182688272875,-2.292930460864546 l1.9504831500294415,1.41710895865425 l0.7450182688272875,2.292930460864546z"/>
<path fill="#B31B1B" fill-opacity="0.37" d="m-16.52475842498528,-10.58883080211244 l0.7450182688272875,2.29293046086455 l-1.9504831500294415,-1.4171089586542536 l-0.7450182688272875,-2.29293046086455z"/>
<path fill="#B31B1B" fill-opacity="0.9" d="m-16.52475842498528,-6.002969880383343 l0.7450182688272875,-2.2929304608645467 l-1.9504831500294415,-1.4171089586542536 l-0.7450182688272875,2.2929304608645467z"/>
<path fill="#B31B1B" fill-opacity="0.9" d="m-16.52475842498528,6.002969880383343 l0.7450182688272875,2.2929304608645467 l-1.9504831500294415,1.4171089586542536 l-0.7450182688272875,-2.2929304608645467z"/>
<path fill="#B31B1B" fill-opacity="0.37" d="m-16.52475842498528,10.58883080211244 l0.7450182688272875,-2.29293046086455 l-1.9504831500294415,1.4171089586542536 l-0.7450182688272875,2.29293046086455z"/>
<path fill="#B31B1B" fill-opacity="0.9" d="m-18.47524157501472,-12.00593976076669 l1.9504831500294415,1.41710895865425 l1.9504831500294433,-1.41710895865425 l-1.9504831500294415,-1.41710895865425z"/>
<path fill="#B31B1B" fill-opacity="0.37" d="m-15.779740156157994,-3.7100394195187976 l-0.7450182688272857,2.2929304608645467 l-0.7450182688272875,-2.292930460864546 l0.7450182688272857,-2.2929304608645467z"/>
<path fill="#B31B1B" fill-opacity="0.9" d="m-18.475241575014724,0.0 l1.950483150029445,1.417108958654251 l1.9504831500294415,-1.417108958654251 l-1.950483150029445,-1.417108958654251z"/>
<path fill="#B31B1B" fill-opacity="0.37" d="m-15.779740156157994,3.7100394195187976 l-0.7450182688272857,-2.2929304608645467 l-0.7450182688272875,2.292930460864546 l0.7450182688272857,2.2929304608645467z"/>
<path fill="#B31B1B" fill-opacity="0.9" d="m-18.47524157501472,12.00593976076669 l1.9504831500294415,-1.41710895865425 l1.9504831500294433,1.41710895865425 l-1.9504831500294415,1.41710895865425z"/>
<path fill="#B31B1B" fill-opacity="0.9" d="m-15.779740156157992,-8.29590034124789 l1.9504831500294415,-1.4171089586542518 l-0.7450182688272857,-2.2929304608645484 l-1.9504831500294415,1.4171089586542518z"/>
<path fill="#B31B1B" fill-opacity="0.9" d="m-15.779740156157992,8.29590034124789 l1.9504831500294415,1.4171089586542518 l-0.7450182688272857,2.2929304608645484 l-1.9504831500294415,-1.4171089586542518z"/>
<path fill="#B31B1B" fill-opacity="0.9" d="m-16.52475842498528,-6.002969880383343 l0.7450182688272875,-2.2929304608645467 l2.4109297624043116,-1.7763568394002505e-15 l-0.7450182688272875,2.2929304608645467z"/>
<path fill="#B31B1B" fill-opacity="0.9" d="m-16.52475842498528,-6.002969880383343 l0.7450182688272857,2.2929304608645458 l2.4109297624043133,-1.3322676295501878e-15 l-0.7450182688272857,-2.2929304608645458z"/>
<path fill="#B31B1B" fill-opacity="0.9" d="m-16.52475842498528,-1.417108958654251 l2.4109297624043116,0.0 l0.7450182688272875,-2.292930460864548 l-2.4109297624043116,-0.0z"/>
<path fill="#B31B1B" fill-opacity="0.9" d="m-16.52475842498528,1.417108958654251 l2.4109297624043116,0.0 l0.7450182688272875,2.292930460864548 l-2.4109297624043116,-0.0z"/>
<path fill="#B31B1B" fill-opacity="0.9" d="m-16.52475842498528,6.002969880383343 l0.7450182688272857,-2.2929304608645458 l2.4109297624043133,1.3322676295501878e-15 l-0.7450182688272857,2.2929304608645458z"/>
<path fill="#B31B1B" fill-opacity="0.9" d="m-16.52475842498528,6.002969880383343 l0.7450182688272875,2.2929304608645467 l2.4109297624043116,1.7763568394002505e-15 l-0.7450182688272875,-2.2929304608645467z"/>
<path fill="#B31B1B" fill-opacity="0.9" d="m-16.52475842498528,-13.42304871942094 l2.4109297624043116,0.0 l0.7450182688272893,-2.2929304608645467 l-2.4109297624043116,-0.0z"/>
<path fill="#B31B1B" fill-opacity="0.9" d="m-16.52475842498528,13.42304871942094 l2.4109297624043116,0.0 l0.7450182688272893,2.2929304608645467 l-2.4109297624043116,-0.0z"/>
<path fill="#B31B1B" fill-opacity="0.37" d="m-14.113828662580968,-1.417108958654251 l-2.4109297624043116,0.0 l1.9504831500294415,1.417108958654251 l2.4109297624043116,-0.0z"/>
<path fill="#B31B1B" fill-opacity="0.37" d="m-14.113828662580968,1.417108958654251 l-2.4109297624043116,0.0 l1.9504831500294415,-1.417108958654251 l2.4109297624043116,-0.0z"/>
<path fill="#B31B1B" fill-opacity="0.37" d="m-14.113828662580968,-13.42304871942094 l1.950483150029445,1.4171089586542518 l-2.4109297624043133,-1.7763568394002505e-15 l-1.950483150029445,-1.4171089586542518z"/>
<path fill="#B31B1B" fill-opacity="0.37" d="m-14.113828662580968,13.42304871942094 l1.950483150029445,-1.4171089586542518 l-2.4109297624043133,1.7763568394002505e-15 l-1.950483150029445,1.4171089586542518z"/>
<path fill="#B31B1B" fill-opacity="0.37" d="m-13.82925700612855,-9.713009299902142 l-1.9504831500294415,1.4171089586542518 l2.4109297624043116,-1.7763568394002505e-15 l1.9504831500294415,-1.4171089586542518z"/>
<path fill="#B31B1B" fill-opacity="0.37" d="m-13.82925700612855,9.713009299902142 l-1.9504831500294415,-1.4171089586542518 l2.4109297624043116,1.7763568394002505e-15 l1.9504831500294415,1.4171089586542518z"/>
<path fill="#B31B1B" fill-opacity="0.9" d="m-11.418327243724237,-9.713009299902142 l-2.4109297624043133,0.0 l-0.7450182688272857,-2.2929304608645484 l2.4109297624043133,-0.0z"/>
<path fill="#B31B1B" fill-opacity="0.9" d="m-11.418327243724237,9.713009299902142 l-2.4109297624043133,0.0 l-0.7450182688272857,2.2929304608645484 l2.4109297624043133,-0.0z"/>
<path fill="#B31B1B" fill-opacity="0.37" d="m-12.163345512551524,-7.420078839037595 l0.7450182688272875,-2.2929304608645467 l-1.9504831500294433,1.41710895865425 l-0.7450182688272875,2.2929304608645467z"/>
<path fill="#B31B1B" fill-opacity="0.37" d="m-12.163345512551524,-4.585860921729095 l0.7450182688272857,2.292930460864548 l-1.9504831500294415,-1.4171089586542518 l-0.7450182688272857,-2.292930460864548z"/>
<path fill="#B31B1B" fill-opacity="0.9" d="m-12.163345512551526,-0.0 l-1.9504831500294415,-1.417108958654251 l0.7450182688272875,-2.292930460864548 l1.9504831500294415,1.417108958654251z"/>
<path fill="#B31B1B" fill-opacity="0.9" d="m-12.163345512551526,0.0 l-1.9504831500294415,1.417108958654251 l0.7450182688272875,2.292930460864548 l1.9504831500294415,-1.417108958654251z"/>
<path fill="#B31B1B" fill-opacity="0.37" d="m-12.163345512551524,4.585860921729095 l0.7450182688272857,-2.292930460864548 l-1.9504831500294415,1.4171089586542518 l-0.7450182688272857,2.292930460864548z"/>
<path fill="#B31B1B" fill-opacity="0.37" d="m-12.163345512551524,7.420078839037595 l0.7450182688272875,2.2929304608645467 l-1.9504831500294433,-1.41710895865425 l-0.7450182688272875,-2.2929304608645467z"/>
<path fill="#B31B1B" fill-opacity="0.9" d="m-12.163345512551523,-12.005939760766688 l0.7450182688272857,-2.2929304608645467 l-1.9504831500294415,-1.4171089586542518 l-0.7450182688272857,2.2929304608645467z"/>
<path fill="#B31B1B" fill-opacity="0.9" d="m-12.163345512551523,12.005939760766688 l0.7450182688272857,2.2929304608645467 l-1.9504831500294415,1.4171089586542518 l-0.7450182688272857,-2.2929304608645467z"/>
<path fill="#B31B1B" fill-opacity="0.9" d="m-14.113828662580968,-6.002969880383344 l1.9504831500294433,-1.417108958654251 l1.9504831500294433,1.4171089586542491 l-1.9504831500294433,1.417108958654251z"/>
<path fill="#B31B1B" fill-opacity="0.9" d="m-14.113828662580968,6.002969880383344 l1.9504831500294433,1.417108958654251 l1.9504831500294433,-1.4171089586542491 l-1.9504831500294433,-1.417108958654251z"/>
<path fill="#B31B1B" fill-opacity="0.9" d="m-9.467844093694794,-15.715979180285487 l-1.9504831500294433,1.4171089586542518 l-1.9504831500294415,-1.4171089586542518 l1.9504831500294433,-1.4171089586542518z"/>
<path fill="#B31B1B" fill-opacity="0.9" d="m-9.467844093694794,15.715979180285487 l-1.9504831500294433,-1.4171089586542518 l-1.9504831500294415,1.4171089586542518 l1.9504831500294433,1.4171089586542518z"/>
<path fill="#B31B1B" fill-opacity="0.9" d="m-11.418327243724239,-2.292930460864547 l1.9504831500294433,-1.4171089586542513 l-0.7450182688272857,-2.2929304608645475 l-1.9504831500294433,1.4171089586542513z"/>
<path fill="#B31B1B" fill-opacity="0.9" d="m-11.418327243724239,2.292930460864547 l1.9504831500294433,1.4171089586542513 l-0.7450182688272857,2.2929304608645475 l-1.9504831500294433,-1.4171089586542513z"/>
<path fill="#B31B1B" fill-opacity="0.37" d="m-11.418327243724237,-17.133088138939737 l1.9504831500294433,1.41710895865425 l-0.7450182688272875,-2.2929304608645467 l-1.9504831500294433,-1.41710895865425z"/>
<path fill="#B31B1B" fill-opacity="0.37" d="m-11.418327243724237,-14.298870221631235 l-0.7450182688272857,2.2929304608645467 l1.9504831500294415,-1.4171089586542518 l0.7450182688272857,-2.2929304608645467z"/>
<path fill="#B31B1B" fill-opacity="0.9" d="m-11.418327243724237,-9.713009299902142 l1.9504831500294415,-1.4171089586542518 l-0.7450182688272857,-2.2929304608645467 l-1.9504831500294415,1.4171089586542518z"/>
<path fill="#B31B1B" fill-opacity="0.9" d="m-11.418327243724237,-9.713009299902142 l1.9504831500294415,1.4171089586542482 l-0.7450182688272857,2.2929304608645475 l-1.9504831500294415,-1.4171089586542482z"/>
<path fill="#B31B1B" fill-opacity="0.9" d="m-11.418327243724237,9.713009299902142 l1.9504831500294415,-1.4171089586542482 l-0.7450182688272857,-2.2929304608645475 l-1.9504831500294415,1.4171089586542482z"/>
<path fill="#B31B1B" fill-opacity="0.9" d="m-11.418327243724237,9.713009299902142 l1.9504831500294415,1.4171089586542518 l-0.7450182688272857,2.2929304608645467 l-1.9504831500294415,-1.4171089586542518z"/>
<path fill="#B31B1B" fill-opacity="0.37" d="m-11.418327243724237,14.298870221631235 l-0.7450182688272857,-2.2929304608645467 l1.9504831500294415,1.4171089586542518 l0.7450182688272857,2.2929304608645467z"/>
<path fill="#B31B1B" fill-opacity="0.37" d="m-11.418327243724237,17.133088138939737 l1.9504831500294433,-1.41710895865425 l-0.7450182688272875,2.2929304608645467 l-1.9504831500294433,1.41710895865425z"/>
<path fill="#B31B1B" fill-opacity="0.9" d="m-12.163345512551526,-0.0 l2.4109297624043133,0.0 l0.7450182688272875,-2.292930460864548 l-2.4109297624043133,-0.0z"/>
<path fill="#B31B1B" fill-opacity="0.9" d="m-12.163345512551526,0.0 l2.4109297624043133,0.0 l0.7450182688272875,2.292930460864548 l-2.4109297624043133,-0.0z"/>
<path fill="#B31B1B" fill-opacity="0.37" d="m-9.467844093694795,-11.130118258556394 l2.4109297624043133,0.0 l-1.9504831500294433,1.41710895865425 l-2.4109297624043133,-0.0z"/>
<path fill="#B31B1B" fill-opacity="0.37" d="m-9.467844093694795,-8.295900341247894 l-1.9504831500294415,-1.4171089586542482 l2.4109297624043116,-1.7763568394002505e-15 l1.9504831500294415,1.4171089586542482z"/>
<path fill="#B31B1B" fill-opacity="0.37" d="m-9.467844093694795,-3.7100394195187985 l2.4109297624043133,-4.440892098500626e-16 l-1.9504831500294433,1.417108958654251 l-2.4109297624043133,4.440892098500626e-16z"/>
<path fill="#B31B1B" fill-opacity="0.37" d="m-9.467844093694795,3.7100394195187985 l2.4109297624043133,4.440892098500626e-16 l-1.9504831500294433,-1.417108958654251 l-2.4109297624043133,-4.440892098500626e-16z"/>
<path fill="#B31B1B" fill-opacity="0.37" d="m-9.467844093694795,8.295900341247894 l-1.9504831500294415,1.4171089586542482 l2.4109297624043116,1.7763568394002505e-15 l1.9504831500294415,-1.4171089586542482z"/>
<path fill="#B31B1B" fill-opacity="0.37" d="m-9.467844093694795,11.130118258556394 l2.4109297624043133,0.0 l-1.9504831500294433,-1.41710895865425 l-2.4109297624043133,-0.0z"/>
<path fill="#B31B1B" fill-opacity="0.9" d="m-7.056914331290482,-20.30184010201458 l-0.7450182688272866,2.2929304608645467 l-2.4109297624043124,0.0 l0.7450182688272866,-2.2929304608645467z"/>
<path fill="#B31B1B" fill-opacity="0.9" d="m-7.056914331290482,-15.715979180285487 l-0.7450182688272866,-2.2929304608645467 l-2.4109297624043124,0.0 l0.7450182688272866,2.2929304608645467z"/>
<path fill="#B31B1B" fill-opacity="0.9" d="m-7.056914331290482,-15.715979180285487 l-0.7450182688272866,2.2929304608645467 l-2.4109297624043124,0.0 l0.7450182688272866,-2.2929304608645467z"/>
<path fill="#B31B1B" fill-opacity="0.9" d="m-7.056914331290482,-11.130118258556394 l-2.4109297624043133,0.0 l-0.7450182688272857,-2.2929304608645467 l2.4109297624043133,-0.0z"/>
<path fill="#B31B1B" fill-opacity="0.9" d="m-7.056914331290482,-8.295900341247894 l-0.7450182688272866,2.2929304608645484 l-2.4109297624043124,-8.881784197001252e-16 l0.7450182688272866,-2.2929304608645484z"/>
<path fill="#B31B1B" fill-opacity="0.9" d="m-7.056914331290482,-3.710039419518799 l-2.4109297624043133,4.440892098500626e-16 l-0.7450182688272857,-2.2929304608645475 l2.4109297624043133,-4.440892098500626e-16z"/>
<path fill="#B31B1B" fill-opacity="0.9" d="m-7.056914331290482,3.710039419518799 l-2.4109297624043133,-4.440892098500626e-16 l-0.7450182688272857,2.2929304608645475 l2.4109297624043133,4.440892098500626e-16z"/>
<path fill="#B31B1B" fill-opacity="0.9" d="m-7.056914331290482,8.295900341247894 l-0.7450182688272866,-2.2929304608645484 l-2.4109297624043124,8.881784197001252e-16 l0.7450182688272866,2.2929304608645484z"/>
<path fill="#B31B1B" fill-opacity="0.9" d="m-7.056914331290482,11.130118258556394 l-2.4109297624043133,0.0 l-0.7450182688272857,2.2929304608645467 l2.4109297624043133,-0.0z"/>
<path fill="#B31B1B" fill-opacity="0.9" d="m-7.056914331290482,15.715979180285487 l-0.7450182688272866,-2.2929304608645467 l-2.4109297624043124,0.0 l0.7450182688272866,2.2929304608645467z"/>
<path fill="#B31B1B" fill-opacity="0.9" d="m-7.056914331290482,15.715979180285487 l-0.7450182688272866,2.2929304608645467 l-2.4109297624043124,0.0 l0.7450182688272866,-2.2929304608645467z"/>
<path fill="#B31B1B" fill-opacity="0.9" d="m-7.056914331290482,20.30184010201458 l-0.7450182688272866,-2.2929304608645467 l-2.4109297624043124,0.0 l0.7450182688272866,2.2929304608645467z"/>
<path fill="#B31B1B" fill-opacity="0.37" d="m-7.80193260011777,-1.4171089586542513 l-1.9504831500294433,1.4171089586542513 l0.7450182688272875,-2.292930460864548 l1.9504831500294433,-1.4171089586542513z"/>
<path fill="#B31B1B" fill-opacity="0.37" d="m-7.80193260011777,1.4171089586542513 l-1.9504831500294433,-1.4171089586542513 l0.7450182688272875,2.292930460864548 l1.9504831500294433,1.4171089586542513z"/>
<path fill="#B31B1B" fill-opacity="0.9" d="m-9.752415750147213,0.0 l1.9504831500294433,1.4171089586542513 l1.9504831500294442,-1.4171089586542513 l-1.9504831500294433,-1.4171089586542513z"/>
<path fill="#B31B1B" fill-opacity="0.37" d="m-7.801932600117769,-18.008909641150034 l0.7450182688272866,-2.2929304608645467 l0.7450182688272866,2.2929304608645467 l-0.7450182688272866,2.2929304608645467z"/>
<path fill="#B31B1B" fill-opacity="0.37" d="m-7.801932600117769,-13.42304871942094 l0.7450182688272866,2.2929304608645467 l0.7450182688272866,-2.2929304608645467 l-0.7450182688272866,-2.2929304608645467z"/>
<path fill="#B31B1B" fill-opacity="0.9" d="m-5.10643118126104,-9.713009299902144 l-1.9504831500294424,1.41710895865425 l-1.9504831500294433,-1.41710895865425 l1.9504831500294424,-1.41710895865425z"/>
<path fill="#B31B1B" fill-opacity="0.37" d="m-7.801932600117769,-6.002969880383345 l0.7450182688272866,2.292930460864546 l0.7450182688272866,-2.292930460864546 l-0.7450182688272866,-2.292930460864546z"/>
<path fill="#B31B1B" fill-opacity="0.37" d="m-7.801932600117769,6.002969880383345 l0.7450182688272866,-2.292930460864546 l0.7450182688272866,2.292930460864546 l-0.7450182688272866,2.292930460864546z"/>
<path fill="#B31B1B" fill-opacity="0.9" d="m-5.10643118126104,9.713009299902144 l-1.9504831500294424,-1.41710895865425 l-1.9504831500294433,1.41710895865425 l1.9504831500294424,1.41710895865425z"/>
<path fill="#B31B1B" fill-opacity="0.37" d="m-7.801932600117769,13.42304871942094 l0.7450182688272866,-2.2929304608645467 l0.7450182688272866,2.2929304608645467 l-0.7450182688272866,2.2929304608645467z"/>
<path fill="#B31B1B" fill-opacity="0.37" d="m-7.801932600117769,18.008909641150034 l0.7450182688272866,2.2929304608645467 l0.7450182688272866,-2.2929304608645467 l-0.7450182688272866,-2.2929304608645467z"/>
<path fill="#B31B1B" fill-opacity="0.9" d="m-7.056914331290482,-3.710039419518799 l-0.7450182688272875,2.2929304608645475 l1.9504831500294442,1.4171089586542513 l0.7450182688272875,-2.2929304608645475z"/>
<path fill="#B31B1B" fill-opacity="0.9" d="m-7.056914331290482,3.710039419518799 l-0.7450182688272875,-2.2929304608645475 l1.9504831500294442,-1.4171089586542513 l0.7450182688272875,2.2929304608645475z"/>
<path fill="#B31B1B" fill-opacity="0.9" d="m-5.10643118126104,-21.71894906066883 l-1.9504831500294424,1.41710895865425 l0.7450182688272866,2.2929304608645467 l1.9504831500294424,-1.41710895865425z"/>
<path fill="#B31B1B" fill-opacity="0.37" d="m-5.10643118126104,-17.133088138939737 l-1.9504831500294424,1.41710895865425 l0.7450182688272866,-2.2929304608645467 l1.9504831500294424,-1.41710895865425z"/>
<path fill="#B31B1B" fill-opacity="0.37" d="m-5.10643118126104,-14.298870221631235 l-1.9504831500294424,-1.4171089586542518 l0.7450182688272866,2.2929304608645467 l1.9504831500294424,1.4171089586542518z"/>
<path fill="#B31B1B" fill-opacity="0.9" d="m-5.10643118126104,-9.713009299902144 l0.7450182688272866,-2.2929304608645467 l-1.9504831500294424,-1.41710895865425 l-0.7450182688272866,2.2929304608645467z"/>
<path fill="#B31B1B" fill-opacity="0.9" d="m-5.10643118126104,-9.713009299902144 l-1.9504831500294424,1.41710895865425 l0.7450182688272866,2.2929304608645484 l1.9504831500294424,-1.41710895865425z"/>
<path fill="#B31B1B" fill-opacity="0.37" d="m-5.106431181261039,-5.1271483781730485 l0.7450182688272866,-2.2929304608645484 l-1.9504831500294433,1.4171089586542518 l-0.7450182688272866,2.2929304608645484z"/>
<path fill="#B31B1B" fill-opacity="0.37" d="m-5.106431181261039,5.1271483781730485 l0.7450182688272866,2.2929304608645484 l-1.9504831500294433,-1.4171089586542518 l-0.7450182688272866,-2.2929304608645484z"/>
<path fill="#B31B1B" fill-opacity="0.9" d="m-5.10643118126104,9.713009299902144 l-1.9504831500294424,-1.41710895865425 l0.7450182688272866,-2.2929304608645484 l1.9504831500294424,1.41710895865425z"/>
<path fill="#B31B1B" fill-opacity="0.9" d="m-5.10643118126104,9.713009299902144 l0.7450182688272866,2.2929304608645467 l-1.9504831500294424,1.41710895865425 l-0.7450182688272866,-2.2929304608645467z"/>
<path fill="#B31B1B" fill-opacity="0.37" d="m-5.10643118126104,14.298870221631235 l-1.9504831500294424,1.4171089586542518 l0.7450182688272866,-2.2929304608645467 l1.9504831500294424,-1.4171089586542518z"/>
<path fill="#B31B1B" fill-opacity="0.37" d="m-5.10643118126104,17.133088138939737 l-1.9504831500294424,-1.41710895865425 l0.7450182688272866,2.2929304608645467 l1.9504831500294424,1.41710895865425z"/>
<path fill="#B31B1B" fill-opacity="0.9" d="m-5.10643118126104,21.71894906066883 l-1.9504831500294424,-1.41710895865425 l0.7450182688272866,-2.2929304608645467 l1.9504831500294424,1.41710895865425z"/>
<path fill="#B31B1B" fill-opacity="0.9" d="m-7.056914331290482,-15.715979180285487 l1.9504831500294424,1.4171089586542518 l1.950483150029442,-1.4171089586542518 l-1.9504831500294424,-1.4171089586542518z"/>
<path fill="#B31B1B" fill-opacity="0.9" d="m-7.056914331290482,15.715979180285487 l1.9504831500294424,-1.4171089586542518 l1.950483150029442,1.4171089586542518 l-1.9504831500294424,1.4171089586542518z"/>
<path fill="#B31B1B" fill-opacity="0.9" d="m-7.056914331290482,-3.710039419518799 l1.9504831500294433,-1.4171089586542496 l1.9504831500294433,1.417108958654251 l-1.9504831500294433,1.4171089586542496z"/>
<path fill="#B31B1B" fill-opacity="0.37" d="m-4.361412912433752,0.0 l-0.7450182688272866,2.292930460864548 l-0.7450182688272866,-2.292930460864548 l0.7450182688272866,-2.292930460864548z"/>
<path fill="#B31B1B" fill-opacity="0.9" d="m-7.056914331290482,3.710039419518799 l1.9504831500294433,1.4171089586542496 l1.9504831500294433,-1.417108958654251 l-1.9504831500294433,-1.4171089586542496z"/>
<path fill="#B31B1B" fill-opacity="0.9" d="m-4.361412912433753,-19.426018599804284 l-0.7450182688272866,2.2929304608645467 l1.950483150029442,1.41710895865425 l0.7450182688272866,-2.2929304608645467z"/>
<path fill="#B31B1B" fill-opacity="0.9" d="m-4.361412912433753,-12.00593976076669 l-0.7450182688272866,-2.292930460864545 l1.950483150029442,-1.4171089586542518 l0.7450182688272866,2.292930460864545z"/>
<path fill="#B31B1B" fill-opacity="0.9" d="m-4.361412912433753,12.00593976076669 l-0.7450182688272866,2.292930460864545 l1.950483150029442,1.4171089586542518 l0.7450182688272866,-2.292930460864545z"/>
<path fill="#B31B1B" fill-opacity="0.9" d="m-4.361412912433753,19.426018599804284 l-0.7450182688272866,-2.2929304608645467 l1.950483150029442,-1.41710895865425 l0.7450182688272866,2.2929304608645467z"/>
<path fill="#B31B1B" fill-opacity="0.9" d="m-4.361412912433752,-7.420078839037597 l-0.7450182688272866,2.2929304608645484 l1.9504831500294433,1.417108958654251 l0.7450182688272866,-2.2929304608645484z"/>
<path fill="#B31B1B" fill-opacity="0.9" d="m-4.361412912433752,7.420078839037597 l-0.7450182688272866,-2.2929304608645484 l1.9504831500294433,-1.417108958654251 l0.7450182688272866,2.2929304608645484z"/>
<path fill="#B31B1B" fill-opacity="0.9" d="m-5.10643118126104,-21.71894906066883 l2.410929762404311,0.0 l0.7450182688272864,2.2929304608645467 l-2.410929762404311,-0.0z"/>
<path fill="#B31B1B" fill-opacity="0.9" d="m-5.10643118126104,21.71894906066883 l2.410929762404311,0.0 l0.7450182688272864,-2.2929304608645467 l-2.410929762404311,-0.0z"/>
<path fill="#B31B1B" fill-opacity="0.9" d="m-5.10643118126104,-9.713009299902144 l0.7450182688272866,-2.2929304608645467 l2.4109297624043124,0.0 l-0.7450182688272866,2.2929304608645467z"/>
<path fill="#B31B1B" fill-opacity="0.9" d="m-5.10643118126104,-9.713009299902144 l0.7450182688272875,2.2929304608645467 l2.4109297624043116,0.0 l-0.7450182688272875,-2.2929304608645467z"/>
<path fill="#B31B1B" fill-opacity="0.9" d="m-5.10643118126104,9.713009299902144 l0.7450182688272875,-2.2929304608645467 l2.4109297624043116,0.0 l-0.7450182688272875,2.2929304608645467z"/>
<path fill="#B31B1B" fill-opacity="0.9" d="m-5.10643118126104,9.713009299902144 l0.7450182688272866,2.2929304608645467 l2.4109297624043124,0.0 l-0.7450182688272866,-2.2929304608645467z"/>
<path fill="#B31B1B" fill-opacity="0.9" d="m-5.106431181261039,-2.292930460864548 l0.7450182688272866,2.292930460864548 l2.4109297624043133,0.0 l-0.7450182688272866,-2.292930460864548z"/>
<path fill="#B31B1B" fill-opacity="0.9" d="m-5.106431181261039,2.292930460864548 l0.7450182688272866,-2.292930460864548 l2.4109297624043133,0.0 l-0.7450182688272866,2.292930460864548z"/>
<path fill="#B31B1B" fill-opacity="0.37" d="m-2.6955014188567286,-21.71894906066883 l1.9504831500294422,-1.41710895865425 l-2.4109297624043116,0.0 l-1.9504831500294422,1.41710895865425z"/>
<path fill="#B31B1B" fill-opacity="0.37" d="m-2.6955014188567286,21.71894906066883 l1.9504831500294422,1.41710895865425 l-2.4109297624043116,0.0 l-1.9504831500294422,-1.41710895865425z"/>
<path fill="#B31B1B" fill-opacity="0.37" d="m-2.695501418856726,-2.292930460864547 l-2.410929762404313,-8.881784197001252e-16 l1.9504831500294433,-1.4171089586542496 l2.410929762404313,8.881784197001252e-16z"/>
<path fill="#B31B1B" fill-opacity="0.37" d="m-2.695501418856726,2.292930460864547 l-2.410929762404313,8.881784197001252e-16 l1.9504831500294433,1.4171089586542496 l2.410929762404313,-8.881784197001252e-16z"/>
<path fill="#B31B1B" fill-opacity="0.37" d="m-2.4109297624043116,-18.008909641150034 l-1.9504831500294415,-1.41710895865425 l2.4109297624043107,0.0 l1.9504831500294415,1.41710895865425z"/>
<path fill="#B31B1B" fill-opacity="0.37" d="m-2.4109297624043116,18.008909641150034 l-1.9504831500294415,1.41710895865425 l2.4109297624043107,0.0 l1.9504831500294415,-1.41710895865425z"/>
<path fill="#B31B1B" fill-opacity="0.37" d="m-2.4109297624043107,-13.42304871942094 l2.4109297624043124,0.0 l-1.9504831500294424,1.41710895865425 l-2.4109297624043124,-0.0z"/>
<path fill="#B31B1B" fill-opacity="0.37" d="m-2.4109297624043107,13.42304871942094 l2.4109297624043124,0.0 l-1.9504831500294424,-1.41710895865425 l-2.4109297624043124,-0.0z"/>
<path fill="#B31B1B" fill-opacity="0.37" d="m-2.4109297624043093,-6.002969880383345 l-1.9504831500294428,-1.4171089586542518 l2.4109297624043116,0.0 l1.9504831500294428,1.4171089586542518z"/>
<path fill="#B31B1B" fill-opacity="0.37" d="m-2.4109297624043093,6.002969880383345 l-1.9504831500294428,1.4171089586542518 l2.4109297624043116,0.0 l1.9504831500294428,-1.4171089586542518z"/>
<path fill="#B31B1B" fill-opacity="0.9" d="m0.0,-25.428988480187627 l-0.7450182688272864,2.2929304608645467 l-2.4109297624043116,0.0 l0.7450182688272864,-2.2929304608645467z"/>
<path fill="#B31B1B" fill-opacity="0.9" d="m0.0,25.428988480187627 l-0.7450182688272864,-2.2929304608645467 l-2.4109297624043116,0.0 l0.7450182688272864,2.2929304608645467z"/>
<path fill="#B31B1B" fill-opacity="0.9" d="m1.3322676295501878e-15,-18.008909641150034 l-0.7450182688272866,2.2929304608645467 l-2.4109297624043124,0.0 l0.7450182688272866,-2.2929304608645467z"/>
<path fill="#B31B1B" fill-opacity="0.9" d="m1.5543122344752192e-15,-13.42304871942094 l-0.7450182688272868,-2.2929304608645467 l-2.4109297624043124,0.0 l0.7450182688272868,2.2929304608645467z"/>
<path fill="#B31B1B" fill-opacity="0.9" d="m1.5543122344752192e-15,13.42304871942094 l-0.7450182688272868,2.2929304608645467 l-2.4109297624043124,0.0 l0.7450182688272868,-2.2929304608645467z"/>
<path fill="#B31B1B" fill-opacity="0.9" d="m1.3322676295501878e-15,18.008909641150034 l-0.7450182688272866,-2.2929304608645467 l-2.4109297624043124,0.0 l0.7450182688272866,2.2929304608645467z"/>
<path fill="#B31B1B" fill-opacity="0.9" d="m2.220446049250313e-15,-6.002969880383346 l-2.4109297624043116,8.881784197001252e-16 l-0.7450182688272862,2.2929304608645475 l2.4109297624043116,-8.881784197001252e-16z"/>
<path fill="#B31B1B" fill-opacity="0.9" d="m2.220446049250313e-15,6.002969880383346 l-2.4109297624043116,-8.881784197001252e-16 l-0.7450182688272862,-2.2929304608645475 l2.4109297624043116,8.881784197001252e-16z"/>
<path fill="#B31B1B" fill-opacity="0.9" d="m-0.7450182688272864,-23.13605801932308 l-1.9504831500294422,1.41710895865425 l0.7450182688272864,2.2929304608645467 l1.9504831500294422,-1.41710895865425z"/>
<path fill="#B31B1B" fill-opacity="0.9" d="m-0.7450182688272864,23.13605801932308 l-1.9504831500294422,-1.41710895865425 l0.7450182688272864,-2.2929304608645467 l1.9504831500294422,1.41710895865425z"/>
<path fill="#B31B1B" fill-opacity="0.37" d="m-0.7450182688272844,-11.130118258556394 l-1.9504831500294428,1.4171089586542518 l0.7450182688272864,-2.2929304608645484 l1.9504831500294428,-1.4171089586542518z"/>
<path fill="#B31B1B" fill-opacity="0.37" d="m-0.7450182688272844,11.130118258556394 l-1.9504831500294428,-1.4171089586542518 l0.7450182688272864,2.2929304608645484 l1.9504831500294428,1.4171089586542518z"/>
<path fill="#B31B1B" fill-opacity="0.37" d="m-0.745018268827284,-8.295900341247892 l-1.9504831500294433,-1.41710895865425 l0.7450182688272868,2.292930460864545 l1.9504831500294433,1.41710895865425z"/>
<path fill="#B31B1B" fill-opacity="0.37" d="m-0.745018268827284,8.295900341247892 l-1.9504831500294433,1.41710895865425 l0.7450182688272868,-2.292930460864545 l1.9504831500294433,-1.41710895865425z"/>
<path fill="#B31B1B" fill-opacity="0.9" d="m-0.7450182688272837,-3.710039419518799 l0.7450182688272873,2.292930460864548 l-1.9504831500294424,1.417108958654251 l-0.7450182688272873,-2.292930460864548z"/>
<path fill="#B31B1B" fill-opacity="0.9" d="m-0.7450182688272837,3.710039419518799 l0.7450182688272873,-2.292930460864548 l-1.9504831500294424,-1.417108958654251 l-0.7450182688272873,2.292930460864548z"/>
<path fill="#B31B1B" fill-opacity="0.9" d="m-2.6955014188567272,-9.713009299902142 l1.9504831500294428,-1.4171089586542518 l1.950483150029444,1.4171089586542536 l-1.9504831500294428,1.4171089586542518z"/>
<path fill="#B31B1B" fill-opacity="0.9" d="m-2.6955014188567272,9.713009299902142 l1.9504831500294428,1.4171089586542518 l1.950483150029444,-1.4171089586542536 l-1.9504831500294428,-1.4171089586542518z"/>
<path fill="#B31B1B" fill-opacity="0.9" d="m1.9504831500294437,-19.426018599804284 l-1.9504831500294428,-1.41710895865425 l-1.950483150029443,1.41710895865425 l1.9504831500294428,1.41710895865425z"/>
<path fill="#B31B1B" fill-opacity="0.9" d="m1.9504831500294437,19.426018599804284 l-1.9504831500294428,1.41710895865425 l-1.950483150029443,-1.41710895865425 l1.9504831500294428,-1.41710895865425z"/>
<path fill="#B31B1B" fill-opacity="0.37" d="m-0.7450182688272853,-15.715979180285487 l0.7450182688272868,2.2929304608645467 l0.7450182688272864,-2.2929304608645467 l-0.7450182688272868,-2.2929304608645467z"/>
<path fill="#B31B1B" fill-opacity="0.37" d="m-0.7450182688272853,15.715979180285487 l0.7450182688272868,-2.2929304608645467 l0.7450182688272864,2.2929304608645467 l-0.7450182688272868,2.2929304608645467z"/>
<path fill="#B31B1B" fill-opacity="0.9" d="m1.9504831500294462,0.0 l-1.9504831500294426,1.417108958654251 l-1.9504831500294424,-1.417108958654251 l1.9504831500294426,-1.417108958654251z"/>
<path fill="#B31B1B" fill-opacity="0.9" d="m0.0,-25.428988480187627 l-0.7450182688272864,2.2929304608645467 l1.9504831500294433,1.41710895865425 l0.7450182688272864,-2.2929304608645467z"/>
<path fill="#B31B1B" fill-opacity="0.9" d="m0.0,25.428988480187627 l-0.7450182688272864,-2.2929304608645467 l1.9504831500294433,-1.41710895865425 l0.7450182688272864,2.2929304608645467z"/>
<path fill="#B31B1B" fill-opacity="0.37" d="m8.881784197001252e-16,-20.843127558458534 l-0.7450182688272873,-2.2929304608645467 l1.9504831500294433,1.41710895865425 l0.7450182688272873,2.2929304608645467z"/>
<path fill="#B31B1B" fill-opacity="0.37" d="m8.881784197001252e-16,20.843127558458534 l-0.7450182688272873,2.2929304608645467 l1.9504831500294433,-1.41710895865425 l0.7450182688272873,-2.2929304608645467z"/>
<path fill="#B31B1B" fill-opacity="0.9" d="m1.5543122344752192e-15,-13.42304871942094 l-0.745018268827286,2.2929304608645467 l1.950483150029444,1.4171089586542536 l0.745018268827286,-2.2929304608645467z"/>
<path fill="#B31B1B" fill-opacity="0.9" d="m1.5543122344752192e-15,13.42304871942094 l-0.745018268827286,-2.2929304608645467 l1.950483150029444,-1.4171089586542536 l0.745018268827286,2.2929304608645467z"/>
<path fill="#B31B1B" fill-opacity="0.9" d="m2.220446049250313e-15,-6.002969880383346 l1.9504831500294433,1.417108958654251 l-0.7450182688272864,2.292930460864548 l-1.9504831500294433,-1.417108958654251z"/>
<path fill="#B31B1B" fill-opacity="0.9" d="m2.220446049250313e-15,6.002969880383346 l1.9504831500294433,-1.417108958654251 l-0.7450182688272864,-2.292930460864548 l-1.9504831500294433,1.417108958654251z"/>
<path fill="#B31B1B" fill-opacity="0.9" d="m2.220446049250313e-15,-6.002969880383346 l-0.7450182688272862,-2.2929304608645458 l1.9504831500294435,-1.4171089586542482 l0.7450182688272862,2.2929304608645458z"/>
<path fill="#B31B1B" fill-opacity="0.9" d="m2.220446049250313e-15,6.002969880383346 l-0.7450182688272862,2.2929304608645458 l1.9504831500294435,1.4171089586542482 l0.7450182688272862,-2.2929304608645458z"/>
<path fill="#B31B1B" fill-opacity="0.37" d="m3.552713678800501e-15,-1.417108958654251 l1.9504831500294426,1.417108958654251 l-0.7450182688272871,-2.292930460864547 l-1.9504831500294426,-1.417108958654251z"/>
<path fill="#B31B1B" fill-opacity="0.37" d="m3.552713678800501e-15,1.417108958654251 l1.9504831500294426,-1.417108958654251 l-0.7450182688272871,2.292930460864547 l-1.9504831500294426,1.417108958654251z"/>
<path fill="#B31B1B" fill-opacity="0.9" d="m1.9504831500294437,-19.426018599804284 l0.7450182688272871,2.2929304608645467 l-1.9504831500294428,1.41710895865425 l-0.7450182688272871,-2.2929304608645467z"/>
<path fill="#B31B1B" fill-opacity="0.9" d="m1.9504831500294437,19.426018599804284 l0.7450182688272871,-2.2929304608645467 l-1.9504831500294428,-1.41710895865425 l-0.7450182688272871,2.2929304608645467z"/>
<path fill="#B31B1B" fill-opacity="0.37" d="m1.9504831500294444,-14.84015767807519 l0.7450182688272864,-2.2929304608645467 l-1.9504831500294428,1.41710895865425 l-0.7450182688272864,2.2929304608645467z"/>
<path fill="#B31B1B" fill-opacity="0.37" d="m1.9504831500294444,14.84015767807519 l0.7450182688272864,2.2929304608645467 l-1.9504831500294428,-1.41710895865425 l-0.7450182688272864,-2.2929304608645467z"/>
<path fill="#B31B1B" fill-opacity="0.37" d="m2.69550141885673,-21.71894906066883 l-0.7450182688272875,-2.2929304608645467 l-0.7450182688272855,2.2929304608645467 l0.7450182688272875,2.2929304608645467z"/>
<path fill="#B31B1B" fill-opacity="0.37" d="m2.69550141885673,21.71894906066883 l-0.7450182688272875,2.2929304608645467 l-0.7450182688272855,-2.2929304608645467 l0.7450182688272875,-2.2929304608645467z"/>
<path fill="#B31B1B" fill-opacity="0.9" d="m1.5543122344752192e-15,-13.42304871942094 l1.9504831500294428,-1.41710895865425 l1.950483150029444,1.4171089586542536 l-1.9504831500294428,1.41710895865425z"/>
<path fill="#B31B1B" fill-opacity="0.9" d="m1.5543122344752192e-15,13.42304871942094 l1.9504831500294428,1.41710895865425 l1.950483150029444,-1.4171089586542536 l-1.9504831500294428,-1.41710895865425z"/>
<path fill="#B31B1B" fill-opacity="0.9" d="m2.220446049250313e-15,-6.002969880383346 l1.9504831500294433,1.417108958654251 l1.9504831500294437,-1.4171089586542491 l-1.9504831500294433,-1.417108958654251z"/>
<path fill="#B31B1B" fill-opacity="0.9" d="m2.220446049250313e-15,6.002969880383346 l1.9504831500294433,-1.417108958654251 l1.9504831500294437,1.4171089586542491 l-1.9504831500294433,1.417108958654251z"/>
<path fill="#B31B1B" fill-opacity="0.37" d="m2.6955014188567326,-9.71300929990214 l-0.7450182688272879,-2.2929304608645484 l-0.7450182688272851,2.2929304608645484 l0.7450182688272879,2.2929304608645484z"/>
<path fill="#B31B1B" fill-opacity="0.37" d="m2.6955014188567326,-2.292930460864547 l-0.7450182688272871,-2.292930460864548 l-0.7450182688272864,2.292930460864548 l0.7450182688272871,2.292930460864548z"/>
<path fill="#B31B1B" fill-opacity="0.37" d="m2.6955014188567326,2.292930460864547 l-0.7450182688272871,2.292930460864548 l-0.7450182688272864,-2.292930460864548 l0.7450182688272871,-2.292930460864548z"/>
<path fill="#B31B1B" fill-opacity="0.37" d="m2.6955014188567326,9.71300929990214 l-0.7450182688272879,2.2929304608645484 l-0.7450182688272851,-2.2929304608645484 l0.7450182688272879,-2.2929304608645484z"/>
<path fill="#B31B1B" fill-opacity="0.9" d="m2.695501418856731,-17.133088138939737 l-0.7450182688272864,2.2929304608645467 l1.950483150029444,1.4171089586542536 l0.7450182688272864,-2.2929304608645467z"/>
<path fill="#B31B1B" fill-opacity="0.9" d="m2.695501418856731,17.133088138939737 l-0.7450182688272864,-2.2929304608645467 l1.950483150029444,-1.4171089586542536 l0.7450182688272864,2.2929304608645467z"/>
<path fill="#B31B1B" fill-opacity="0.9" d="m1.9504831500294424,-24.011879521533377 l0.7450182688272875,2.2929304608645467 l2.4109297624043116,0.0 l-0.7450182688272875,-2.2929304608645467z"/>
<path fill="#B31B1B" fill-opacity="0.9" d="m1.9504831500294424,24.011879521533377 l0.7450182688272875,-2.2929304608645467 l2.4109297624043116,0.0 l-0.7450182688272875,2.2929304608645467z"/>
<path fill="#B31B1B" fill-opacity="0.9" d="m1.9504831500294437,-19.426018599804284 l0.7450182688272862,-2.2929304608645467 l2.4109297624043116,0.0 l-0.7450182688272862,2.2929304608645467z"/>
<path fill="#B31B1B" fill-opacity="0.9" d="m1.9504831500294437,-19.426018599804284 l0.7450182688272871,2.2929304608645467 l2.4109297624043116,0.0 l-0.7450182688272871,-2.2929304608645467z"/>
<path fill="#B31B1B" fill-opacity="0.9" d="m1.9504831500294437,19.426018599804284 l0.7450182688272871,-2.2929304608645467 l2.4109297624043116,0.0 l-0.7450182688272871,2.2929304608645467z"/>
<path fill="#B31B1B" fill-opacity="0.9" d="m1.9504831500294437,19.426018599804284 l0.7450182688272862,2.2929304608645467 l2.4109297624043116,0.0 l-0.7450182688272862,-2.2929304608645467z"/>
<path fill="#B31B1B" fill-opacity="0.9" d="m1.9504831500294446,-12.005939760766688 l2.410929762404314,1.7763568394002505e-15 l0.7450182688272866,2.2929304608645467 l-2.410929762404314,-1.7763568394002505e-15z"/>
<path fill="#B31B1B" fill-opacity="0.9" d="m1.9504831500294446,12.005939760766688 l2.410929762404314,-1.7763568394002505e-15 l0.7450182688272866,-2.2929304608645467 l-2.410929762404314,1.7763568394002505e-15z"/>
<path fill="#B31B1B" fill-opacity="0.9" d="m1.950483150029445,-7.420078839037595 l2.4109297624043133,1.7763568394002505e-15 l0.7450182688272866,-2.2929304608645467 l-2.4109297624043133,-1.7763568394002505e-15z"/>
<path fill="#B31B1B" fill-opacity="0.9" d="m1.950483150029445,7.420078839037595 l2.4109297624043133,-1.7763568394002505e-15 l0.7450182688272866,2.2929304608645467 l-2.4109297624043133,1.7763568394002505e-15z"/>
<path fill="#B31B1B" fill-opacity="0.9" d="m1.9504831500294455,-4.585860921729095 l0.7450182688272871,2.292930460864548 l2.4109297624043133,0.0 l-0.7450182688272871,-2.292930460864548z"/>
<path fill="#B31B1B" fill-opacity="0.9" d="m1.9504831500294455,4.585860921729095 l0.7450182688272871,-2.292930460864548 l2.4109297624043133,0.0 l-0.7450182688272871,2.292930460864548z"/>
<path fill="#B31B1B" fill-opacity="0.9" d="m1.9504831500294462,-0.0 l0.7450182688272864,-2.292930460864547 l2.4109297624043133,0.0 l-0.7450182688272864,2.292930460864547z"/>
<path fill="#B31B1B" fill-opacity="0.9" d="m1.9504831500294462,0.0 l0.7450182688272864,2.292930460864547 l2.4109297624043133,0.0 l-0.7450182688272864,-2.292930460864547z"/>
<path fill="#B31B1B" fill-opacity="0.37" d="m4.361412912433758,-12.005939760766687 l-2.410929762404314,-1.7763568394002505e-15 l1.9504831500294437,-1.4171089586542482 l2.410929762404314,1.7763568394002505e-15z"/>
<path fill="#B31B1B" fill-opacity="0.37" d="m4.361412912433758,-7.420078839037593 l1.9504831500294433,1.41710895865425 l-2.4109297624043124,-8.881784197001252e-16 l-1.9504831500294433,-1.41710895865425z"/>
<path fill="#B31B1B" fill-opacity="0.37" d="m4.361412912433758,-4.585860921729094 l-2.410929762404313,-8.881784197001252e-16 l1.9504831500294437,-1.4171089586542491 l2.410929762404313,8.881784197001252e-16z"/>
<path fill="#B31B1B" fill-opacity="0.37" d="m4.361412912433758,4.585860921729094 l-2.410929762404313,8.881784197001252e-16 l1.9504831500294437,1.4171089586542491 l2.410929762404313,-8.881784197001252e-16z"/>
<path fill="#B31B1B" fill-opacity="0.37" d="m4.361412912433758,7.420078839037593 l1.9504831500294433,-1.41710895865425 l-2.4109297624043124,8.881784197001252e-16 l-1.9504831500294433,1.41710895865425z"/>
<path fill="#B31B1B" fill-opacity="0.37" d="m4.361412912433758,12.005939760766687 l-2.410929762404314,1.7763568394002505e-15 l1.9504831500294437,1.4171089586542482 l2.410929762404314,-1.7763568394002505e-15z"/>
<path fill="#B31B1B" fill-opacity="0.37" d="m4.645984568886174,-15.715979180285485 l-1.9504831500294433,-1.4171089586542518 l2.4109297624043116,0.0 l1.9504831500294433,1.4171089586542518z"/>
<path fill="#B31B1B" fill-opacity="0.37" d="m4.645984568886174,15.715979180285485 l-1.9504831500294433,1.4171089586542518 l2.4109297624043116,0.0 l1.9504831500294433,-1.4171089586542518z"/>
<path fill="#B31B1B" fill-opacity="0.9" d="m7.056914331290486,-15.715979180285487 l-2.4109297624043116,1.7763568394002505e-15 l-0.7450182688272857,2.2929304608645484 l2.4109297624043116,-1.7763568394002505e-15z"/>
<path fill="#B31B1B" fill-opacity="0.9" d="m7.056914331290486,15.715979180285487 l-2.4109297624043116,-1.7763568394002505e-15 l-0.7450182688272857,-2.2929304608645484 l2.4109297624043116,1.7763568394002505e-15z"/>
<path fill="#B31B1B" fill-opacity="0.37" d="m6.311896062463197,-20.843127558458534 l-1.9504831500294424,1.41710895865425 l0.7450182688272866,-2.2929304608645467 l1.9504831500294424,-1.41710895865425z"/>
<path fill="#B31B1B" fill-opacity="0.37" d="m6.311896062463197,20.843127558458534 l-1.9504831500294424,-1.41710895865425 l0.7450182688272866,2.2929304608645467 l1.9504831500294424,1.41710895865425z"/>
<path fill="#B31B1B" fill-opacity="0.37" d="m6.311896062463198,-18.008909641150034 l0.7450182688272875,2.2929304608645467 l-1.9504831500294433,-1.41710895865425 l-0.7450182688272875,-2.2929304608645467z"/>
<path fill="#B31B1B" fill-opacity="0.37" d="m6.311896062463198,18.008909641150034 l0.7450182688272875,-2.2929304608645467 l-1.9504831500294433,1.41710895865425 l-0.7450182688272875,2.2929304608645467z"/>
<path fill="#B31B1B" fill-opacity="0.9" d="m6.3118960624632,-13.42304871942094 l-1.9504831500294415,1.4171089586542536 l0.7450182688272866,2.2929304608645467 l1.9504831500294415,-1.4171089586542536z"/>
<path fill="#B31B1B" fill-opacity="0.9" d="m6.311896062463202,-6.002969880383343 l-1.9504831500294433,-1.41710895865425 l0.7450182688272866,-2.2929304608645467 l1.9504831500294433,1.41710895865425z"/>
<path fill="#B31B1B" fill-opacity="0.9" d="m6.311896062463202,6.002969880383343 l-1.9504831500294433,1.41710895865425 l0.7450182688272866,2.2929304608645467 l1.9504831500294433,-1.41710895865425z"/>
<path fill="#B31B1B" fill-opacity="0.9" d="m6.3118960624632,13.42304871942094 l-1.9504831500294415,-1.4171089586542536 l0.7450182688272866,-2.2929304608645467 l1.9504831500294415,1.4171089586542536z"/>
<path fill="#B31B1B" fill-opacity="0.9" d="m6.311896062463202,-6.002969880383343 l-1.9504831500294433,1.4171089586542491 l0.7450182688272875,2.292930460864547 l1.9504831500294433,-1.4171089586542491z"/>
<path fill="#B31B1B" fill-opacity="0.37" d="m6.311896062463202,-1.417108958654251 l-1.9504831500294433,1.417108958654251 l0.7450182688272875,-2.292930460864547 l1.9504831500294433,-1.417108958654251z"/>
<path fill="#B31B1B" fill-opacity="0.37" d="m6.311896062463202,1.417108958654251 l-1.9504831500294433,-1.417108958654251 l0.7450182688272875,2.292930460864547 l1.9504831500294433,1.417108958654251z"/>
<path fill="#B31B1B" fill-opacity="0.9" d="m6.311896062463202,6.002969880383343 l-1.9504831500294433,-1.4171089586542491 l0.7450182688272875,-2.292930460864547 l1.9504831500294433,1.4171089586542491z"/>
<path fill="#B31B1B" fill-opacity="0.9" d="m4.361412912433755,-19.426018599804284 l1.9504831500294433,1.41710895865425 l1.9504831500294415,-1.41710895865425 l-1.9504831500294433,-1.41710895865425z"/>
<path fill="#B31B1B" fill-opacity="0.9" d="m4.361412912433755,19.426018599804284 l1.9504831500294433,-1.41710895865425 l1.9504831500294415,1.41710895865425 l-1.9504831500294433,1.41710895865425z"/>
<path fill="#B31B1B" fill-opacity="0.9" d="m4.361412912433758,0.0 l1.9504831500294433,1.417108958654251 l1.9504831500294433,-1.417108958654251 l-1.9504831500294433,-1.417108958654251z"/>
<path fill="#B31B1B" fill-opacity="0.9" d="m9.007397481319929,-9.713009299902142 l-1.9504831500294415,1.4171089586542518 l-1.9504831500294424,-1.41710895865425 l1.9504831500294415,-1.4171089586542518z"/>
<path fill="#B31B1B" fill-opacity="0.9" d="m9.007397481319929,9.713009299902142 l-1.9504831500294415,-1.4171089586542518 l-1.9504831500294424,1.41710895865425 l1.9504831500294415,1.4171089586542518z"/>
<path fill="#B31B1B" fill-opacity="0.9" d="m7.056914331290486,-15.715979180285487 l-0.7450182688272875,-2.2929304608645467 l1.9504831500294415,-1.41710895865425 l0.7450182688272875,2.2929304608645467z"/>
<path fill="#B31B1B" fill-opacity="0.9" d="m7.056914331290486,15.715979180285487 l-0.7450182688272875,2.2929304608645467 l1.9504831500294415,1.41710895865425 l0.7450182688272875,-2.2929304608645467z"/>
<path fill="#B31B1B" fill-opacity="0.9" d="m7.056914331290486,-15.715979180285487 l1.9504831500294415,1.41710895865425 l-0.7450182688272857,2.29293046086455 l-1.9504831500294415,-1.41710895865425z"/>
<path fill="#B31B1B" fill-opacity="0.37" d="m7.056914331290486,-11.13011825855639 l-0.7450182688272857,-2.29293046086455 l1.9504831500294415,1.4171089586542536 l0.7450182688272857,2.29293046086455z"/>
<path fill="#B31B1B" fill-opacity="0.37" d="m7.056914331290486,11.13011825855639 l-0.7450182688272857,2.29293046086455 l1.9504831500294415,-1.4171089586542536 l0.7450182688272857,-2.29293046086455z"/>
<path fill="#B31B1B" fill-opacity="0.9" d="m7.056914331290486,15.715979180285487 l1.9504831500294415,-1.41710895865425 l-0.7450182688272857,-2.29293046086455 l-1.9504831500294415,1.41710895865425z"/>
<path fill="#B31B1B" fill-opacity="0.37" d="m7.056914331290487,-8.29590034124789 l-0.7450182688272857,2.2929304608645467 l1.9504831500294415,-1.4171089586542518 l0.7450182688272857,-2.2929304608645467z"/>
<path fill="#B31B1B" fill-opacity="0.37" d="m7.056914331290487,8.29590034124789 l-0.7450182688272857,-2.2929304608645467 l1.9504831500294415,1.4171089586542518 l0.7450182688272857,2.2929304608645467z"/>
<path fill="#B31B1B" fill-opacity="0.9" d="m7.056914331290488,-3.710039419518797 l-0.7450182688272866,2.292930460864546 l1.9504831500294433,1.417108958654251 l0.7450182688272866,-2.292930460864546z"/>
<path fill="#B31B1B" fill-opacity="0.9" d="m7.056914331290488,3.710039419518797 l-0.7450182688272866,-2.292930460864546 l1.9504831500294433,-1.417108958654251 l0.7450182688272866,2.292930460864546z"/>
<path fill="#B31B1B" fill-opacity="0.9" d="m6.311896062463202,-6.002969880383343 l2.4109297624043116,-1.7763568394002505e-15 l0.7450182688272857,2.2929304608645475 l-2.4109297624043116,1.7763568394002505e-15z"/>
<path fill="#B31B1B" fill-opacity="0.9" d="m6.311896062463202,6.002969880383343 l2.4109297624043116,1.7763568394002505e-15 l0.7450182688272857,-2.2929304608645475 l-2.4109297624043116,-1.7763568394002505e-15z"/>
<path fill="#B31B1B" fill-opacity="0.37" d="m8.722825824867513,-6.002969880383345 l1.9504831500294397,-1.4171089586542518 l-2.41092976240431,1.7763568394002505e-15 l-1.9504831500294397,1.4171089586542518z"/>
<path fill="#B31B1B" fill-opacity="0.37" d="m8.722825824867513,6.002969880383345 l1.9504831500294397,1.4171089586542518 l-2.41092976240431,-1.7763568394002505e-15 l-1.9504831500294397,-1.4171089586542518z"/>
<path fill="#B31B1B" fill-opacity="0.37" d="m9.007397481319927,-17.133088138939737 l-1.9504831500294415,1.41710895865425 l2.41092976240431,0.0 l1.9504831500294415,-1.41710895865425z"/>
<path fill="#B31B1B" fill-opacity="0.37" d="m9.007397481319927,-14.298870221631237 l2.4109297624043116,0.0 l-1.9504831500294433,-1.41710895865425 l-2.4109297624043116,-0.0z"/>
<path fill="#B31B1B" fill-opacity="0.37" d="m9.007397481319927,14.298870221631237 l2.4109297624043116,0.0 l-1.9504831500294433,1.41710895865425 l-2.4109297624043116,-0.0z"/>
<path fill="#B31B1B" fill-opacity="0.37" d="m9.007397481319927,17.133088138939737 l-1.9504831500294415,-1.41710895865425 l2.41092976240431,0.0 l1.9504831500294415,1.41710895865425z"/>
<path fill="#B31B1B" fill-opacity="0.37" d="m9.00739748131993,-2.292930460864547 l2.4109297624043116,4.440892098500626e-16 l-1.9504831500294433,-1.417108958654251 l-2.4109297624043116,-4.440892098500626e-16z"/>
<path fill="#B31B1B" fill-opacity="0.37" d="m9.00739748131993,2.292930460864547 l2.4109297624043116,-4.440892098500626e-16 l-1.9504831500294433,1.417108958654251 l-2.4109297624043116,4.440892098500626e-16z"/>
<path fill="#B31B1B" fill-opacity="0.9" d="m11.418327243724239,-17.133088138939737 l-2.4109297624043116,0.0 l-0.7450182688272875,-2.2929304608645467 l2.4109297624043116,-0.0z"/>
<path fill="#B31B1B" fill-opacity="0.9" d="m11.418327243724239,17.133088138939737 l-2.4109297624043116,0.0 l-0.7450182688272875,2.2929304608645467 l2.4109297624043116,-0.0z"/>
<path fill="#B31B1B" fill-opacity="0.9" d="m11.418327243724239,-14.298870221631237 l-2.4109297624043116,0.0 l-0.7450182688272857,2.29293046086455 l2.4109297624043116,-0.0z"/>
<path fill="#B31B1B" fill-opacity="0.9" d="m11.418327243724239,-9.713009299902144 l-0.7450182688272857,-2.2929304608645467 l-2.4109297624043116,3.552713678800501e-15 l0.7450182688272857,2.2929304608645467z"/>
<path fill="#B31B1B" fill-opacity="0.9" d="m11.418327243724239,-9.713009299902144 l-0.7450182688272857,2.2929304608645467 l-2.41092976240431,1.7763568394002505e-15 l0.7450182688272857,-2.2929304608645467z"/>
<path fill="#B31B1B" fill-opacity="0.9" d="m11.418327243724239,9.713009299902144 l-0.7450182688272857,-2.2929304608645467 l-2.41092976240431,-1.7763568394002505e-15 l0.7450182688272857,2.2929304608645467z"/>
<path fill="#B31B1B" fill-opacity="0.9" d="m11.418327243724239,9.713009299902144 l-0.7450182688272857,2.2929304608645467 l-2.4109297624043116,-3.552713678800501e-15 l0.7450182688272857,-2.2929304608645467z"/>
<path fill="#B31B1B" fill-opacity="0.9" d="m11.418327243724239,14.298870221631237 l-2.4109297624043116,0.0 l-0.7450182688272857,-2.29293046086455 l2.4109297624043116,-0.0z"/>
<path fill="#B31B1B" fill-opacity="0.9" d="m11.418327243724242,-2.2929304608645467 l-0.7450182688272857,2.2929304608645467 l-2.4109297624043116,0.0 l0.7450182688272857,-2.2929304608645467z"/>
<path fill="#B31B1B" fill-opacity="0.9" d="m11.418327243724242,2.2929304608645467 l-0.7450182688272857,-2.2929304608645467 l-2.4109297624043116,0.0 l0.7450182688272857,2.2929304608645467z"/>
<path fill="#B31B1B" fill-opacity="0.9" d="m10.673308974896953,-7.420078839037597 l0.7450182688272875,2.2929304608645484 l-1.9504831500294415,1.417108958654251 l-0.7450182688272875,-2.2929304608645484z"/>
<path fill="#B31B1B" fill-opacity="0.9" d="m10.673308974896953,7.420078839037597 l0.7450182688272875,-2.2929304608645484 l-1.9504831500294415,-1.417108958654251 l-0.7450182688272875,2.2929304608645484z"/>
<path fill="#B31B1B" fill-opacity="0.9" d="m13.368810393753678,-15.715979180285487 l-1.9504831500294397,-1.41710895865425 l-1.9504831500294433,1.41710895865425 l1.9504831500294397,1.41710895865425z"/>
<path fill="#B31B1B" fill-opacity="0.9" d="m13.368810393753678,15.715979180285487 l-1.9504831500294397,1.41710895865425 l-1.9504831500294433,-1.41710895865425 l1.9504831500294397,-1.41710895865425z"/>
<path fill="#B31B1B" fill-opacity="0.37" d="m10.673308974896953,-12.00593976076669 l0.7450182688272857,-2.2929304608645467 l0.7450182688272857,2.2929304608645467 l-0.7450182688272857,2.2929304608645467z"/>
<path fill="#B31B1B" fill-opacity="0.37" d="m10.673308974896953,12.00593976076669 l0.7450182688272857,2.2929304608645467 l0.7450182688272857,-2.2929304608645467 l-0.7450182688272857,-2.2929304608645467z"/>
<path fill="#B31B1B" fill-opacity="0.9" d="m13.368810393753684,-3.710039419518797 l-1.9504831500294433,-1.4171089586542513 l-1.9504831500294415,1.417108958654251 l1.9504831500294433,1.4171089586542513z"/>
<path fill="#B31B1B" fill-opacity="0.37" d="m10.673308974896957,0.0 l0.7450182688272857,2.2929304608645467 l0.7450182688272875,-2.2929304608645467 l-0.7450182688272857,-2.2929304608645467z"/>
<path fill="#B31B1B" fill-opacity="0.9" d="m13.368810393753684,3.710039419518797 l-1.9504831500294433,1.4171089586542513 l-1.9504831500294415,-1.417108958654251 l1.9504831500294433,-1.4171089586542513z"/>
<path fill="#B31B1B" fill-opacity="0.9" d="m11.418327243724239,-9.713009299902144 l-0.7450182688272857,2.2929304608645467 l1.9504831500294433,1.4171089586542527 l0.7450182688272857,-2.2929304608645467z"/>
<path fill="#B31B1B" fill-opacity="0.9" d="m11.418327243724239,9.713009299902144 l-0.7450182688272857,-2.2929304608645467 l1.9504831500294433,-1.4171089586542527 l0.7450182688272857,2.2929304608645467z"/>
<path fill="#B31B1B" fill-opacity="0.37" d="m11.41832724372424,-5.1271483781730485 l-0.7450182688272875,-2.2929304608645484 l1.9504831500294433,1.4171089586542527 l0.7450182688272875,2.2929304608645484z"/>
<path fill="#B31B1B" fill-opacity="0.37" d="m11.41832724372424,5.1271483781730485 l-0.7450182688272875,2.2929304608645484 l1.9504831500294433,-1.4171089586542527 l0.7450182688272875,-2.2929304608645484z"/>
<path fill="#B31B1B" fill-opacity="0.9" d="m13.368810393753678,-15.715979180285487 l0.7450182688272875,2.2929304608645467 l-1.9504831500294415,1.41710895865425 l-0.7450182688272875,-2.2929304608645467z"/>
<path fill="#B31B1B" fill-opacity="0.9" d="m13.368810393753678,15.715979180285487 l0.7450182688272875,-2.2929304608645467 l-1.9504831500294415,-1.41710895865425 l-0.7450182688272875,2.2929304608645467z"/>
<path fill="#B31B1B" fill-opacity="0.37" d="m13.36881039375368,-11.130118258556394 l0.7450182688272857,-2.2929304608645467 l-1.9504831500294415,1.41710895865425 l-0.7450182688272857,2.2929304608645467z"/>
<path fill="#B31B1B" fill-opacity="0.37" d="m13.36881039375368,11.130118258556394 l0.7450182688272857,2.2929304608645467 l-1.9504831500294415,-1.41710895865425 l-0.7450182688272857,-2.2929304608645467z"/>
<path fill="#B31B1B" fill-opacity="0.9" d="m13.368810393753684,-3.710039419518797 l0.7450182688272875,2.2929304608645467 l-1.9504831500294415,1.4171089586542505 l-0.7450182688272875,-2.2929304608645467z"/>
<path fill="#B31B1B" fill-opacity="0.9" d="m13.368810393753684,3.710039419518797 l0.7450182688272875,-2.2929304608645467 l-1.9504831500294415,-1.4171089586542505 l-0.7450182688272875,2.2929304608645467z"/>
<path fill="#B31B1B" fill-opacity="0.9" d="m11.418327243724239,-9.713009299902144 l1.9504831500294415,-1.41710895865425 l1.9504831500294415,1.4171089586542536 l-1.9504831500294415,1.41710895865425z"/>
<path fill="#B31B1B" fill-opacity="0.9" d="m11.418327243724239,9.713009299902144 l1.9504831500294415,1.41710895865425 l1.9504831500294415,-1.4171089586542536 l-1.9504831500294415,-1.41710895865425z"/>
<path fill="#B31B1B" fill-opacity="0.37" d="m14.113828662580968,-6.002969880383343 l-0.745018268827284,2.292930460864546 l-0.7450182688272875,-2.292930460864547 l0.745018268827284,-2.292930460864546z"/>
<path fill="#B31B1B" fill-opacity="0.37" d="m14.113828662580968,6.002969880383343 l-0.745018268827284,-2.292930460864546 l-0.7450182688272875,2.292930460864547 l0.745018268827284,2.292930460864546z"/>
<path fill="#B31B1B" fill-opacity="0.9" d="m16.064311812610413,0.0 l-1.9504831500294415,1.4171089586542505 l-1.9504831500294415,-1.4171089586542505 l1.9504831500294415,-1.4171089586542505z"/>
<path fill="#B31B1B" fill-opacity="0.9" d="m14.113828662580966,-13.42304871942094 l1.9504831500294433,1.4171089586542518 l-0.7450182688272875,2.2929304608645484 l-1.9504831500294433,-1.4171089586542518z"/>
<path fill="#B31B1B" fill-opacity="0.9" d="m14.113828662580966,13.42304871942094 l1.9504831500294433,-1.4171089586542518 l-0.7450182688272875,-2.2929304608645484 l-1.9504831500294433,1.4171089586542518z"/>
<path fill="#B31B1B" fill-opacity="0.37" d="m14.113828662580971,-1.4171089586542505 l1.9504831500294415,1.4171089586542505 l-0.7450182688272875,-2.2929304608645467 l-1.9504831500294415,-1.4171089586542505z"/>
<path fill="#B31B1B" fill-opacity="0.37" d="m14.113828662580971,1.4171089586542505 l1.9504831500294415,-1.4171089586542505 l-0.7450182688272875,2.2929304608645467 l-1.9504831500294415,1.4171089586542505z"/>
<path fill="#B31B1B" fill-opacity="0.9" d="m13.368810393753678,-15.715979180285487 l0.7450182688272875,2.2929304608645467 l2.4109297624043133,0.0 l-0.7450182688272875,-2.2929304608645467z"/>
<path fill="#B31B1B" fill-opacity="0.9" d="m13.368810393753678,15.715979180285487 l0.7450182688272875,-2.2929304608645467 l2.4109297624043133,0.0 l-0.7450182688272875,2.2929304608645467z"/>
<path fill="#B31B1B" fill-opacity="0.9" d="m13.36881039375368,-8.295900341247892 l0.7450182688272875,2.2929304608645484 l2.4109297624043116,0.0 l-0.7450182688272875,-2.2929304608645484z"/>
<path fill="#B31B1B" fill-opacity="0.9" d="m13.36881039375368,8.295900341247892 l0.7450182688272875,-2.2929304608645484 l2.4109297624043116,0.0 l-0.7450182688272875,2.2929304608645484z"/>
<path fill="#B31B1B" fill-opacity="0.9" d="m13.368810393753684,-3.710039419518797 l2.41092976240431,4.440892098500626e-16 l0.7450182688272857,-2.2929304608645467 l-2.41092976240431,-4.440892098500626e-16z"/>
<path fill="#B31B1B" fill-opacity="0.9" d="m13.368810393753684,3.710039419518797 l2.41092976240431,-4.440892098500626e-16 l0.7450182688272857,2.2929304608645467 l-2.41092976240431,4.440892098500626e-16z"/>
<path fill="#B31B1B" fill-opacity="0.37" d="m15.779740156157992,-8.29590034124789 l1.9504831500294415,-1.4171089586542536 l-2.4109297624043116,3.552713678800501e-15 l-1.9504831500294415,1.4171089586542536z"/>
<path fill="#B31B1B" fill-opacity="0.37" d="m15.779740156157992,8.29590034124789 l1.9504831500294415,1.4171089586542536 l-2.4109297624043116,-3.552713678800501e-15 l-1.9504831500294415,-1.4171089586542536z"/>
<path fill="#B31B1B" fill-opacity="0.37" d="m15.779740156157994,-3.7100394195187967 l-2.41092976240431,-4.440892098500626e-16 l1.9504831500294415,1.4171089586542505 l2.41092976240431,4.440892098500626e-16z"/>
<path fill="#B31B1B" fill-opacity="0.37" d="m15.779740156157994,3.7100394195187967 l-2.41092976240431,4.440892098500626e-16 l1.9504831500294415,-1.4171089586542505 l2.41092976240431,-4.440892098500626e-16z"/>
<path fill="#B31B1B" fill-opacity="0.37" d="m16.06431181261041,-12.005939760766688 l-1.9504831500294433,-1.4171089586542518 l2.4109297624043133,0.0 l1.9504831500294433,1.4171089586542518z"/>
<path fill="#B31B1B" fill-opacity="0.37" d="m16.06431181261041,12.005939760766688 l-1.9504831500294433,1.4171089586542518 l2.4109297624043133,0.0 l1.9504831500294433,-1.4171089586542518z"/>
<path fill="#B31B1B" fill-opacity="0.9" d="m18.47524157501472,-12.00593976076669 l-2.4109297624043116,1.7763568394002505e-15 l-0.7450182688272875,2.2929304608645484 l2.4109297624043116,-1.7763568394002505e-15z"/>
<path fill="#B31B1B" fill-opacity="0.9" d="m18.47524157501472,12.00593976076669 l-2.4109297624043116,-1.7763568394002505e-15 l-0.7450182688272875,-2.2929304608645484 l2.4109297624043116,1.7763568394002505e-15z"/>
<path fill="#B31B1B" fill-opacity="0.9" d="m18.475241575014724,-0.0 l-0.7450182688272875,-2.292930460864546 l-2.4109297624043116,-4.440892098500626e-16 l0.7450182688272875,2.292930460864546z"/>
<path fill="#B31B1B" fill-opacity="0.9" d="m18.475241575014724,0.0 l-0.7450182688272875,2.292930460864546 l-2.4109297624043116,4.440892098500626e-16 l0.7450182688272875,-2.292930460864546z"/>
<path fill="#B31B1B" fill-opacity="0.9" d="m17.730223306187433,-9.713009299902144 l0.7450182688272875,2.29293046086455 l-1.9504831500294415,1.41710895865425 l-0.7450182688272875,-2.29293046086455z"/>
<path fill="#B31B1B" fill-opacity="0.9" d="m17.730223306187433,9.713009299902144 l0.7450182688272875,-2.29293046086455 l-1.9504831500294415,-1.41710895865425 l-0.7450182688272875,2.29293046086455z"/>
<path fill="#B31B1B" fill-opacity="0.9" d="m17.730223306187437,-2.292930460864546 l0.745018268827284,-2.292930460864547 l-1.9504831500294415,-1.41710895865425 l-0.745018268827284,2.292930460864547z"/>
<path fill="#B31B1B" fill-opacity="0.9" d="m17.730223306187437,2.292930460864546 l0.745018268827284,2.292930460864547 l-1.9504831500294415,1.41710895865425 l-0.745018268827284,-2.292930460864547z"/>
<path fill="#B31B1B" fill-opacity="0.9" d="m20.425724725044162,-6.002969880383343 l-1.9504831500294415,-1.41710895865425 l-1.9504831500294415,1.41710895865425 l1.9504831500294415,1.41710895865425z"/>
<path fill="#B31B1B" fill-opacity="0.9" d="m20.425724725044162,6.002969880383343 l-1.9504831500294415,1.41710895865425 l-1.9504831500294415,-1.41710895865425 l1.9504831500294415,-1.41710895865425z"/>
<path fill="#B31B1B" fill-opacity="0.9" d="m18.47524157501472,-12.00593976076669 l1.9504831500294415,1.41710895865425 l-0.7450182688272875,2.29293046086455 l-1.9504831500294415,-1.41710895865425z"/>
<path fill="#B31B1B" fill-opacity="0.37" d="m18.47524157501472,-7.420078839037593 l1.9504831500294415,1.41710895865425 l-0.7450182688272875,-2.2929304608645467 l-1.9504831500294415,-1.41710895865425z"/>
<path fill="#B31B1B" fill-opacity="0.37" d="m18.47524157501472,7.420078839037593 l1.9504831500294415,-1.41710895865425 l-0.7450182688272875,2.2929304608645467 l-1.9504831500294415,1.41710895865425z"/>
<path fill="#B31B1B" fill-opacity="0.9" d="m18.47524157501472,12.00593976076669 l1.9504831500294415,-1.41710895865425 l-0.7450182688272875,-2.29293046086455 l-1.9504831500294415,1.41710895865425z"/>
<path fill="#B31B1B" fill-opacity="0.37" d="m18.47524157501472,-4.585860921729093 l1.9504831500294415,-1.41710895865425 l-0.745018268827284,2.292930460864546 l-1.9504831500294415,1.41710895865425z"/>
<path fill="#B31B1B" fill-opacity="0.9" d="m18.475241575014724,-0.0 l-0.7450182688272875,-2.292930460864546 l1.9504831500294415,-1.417108958654251 l0.7450182688272875,2.292930460864546z"/>
<path fill="#B31B1B" fill-opacity="0.9" d="m18.475241575014724,0.0 l-0.7450182688272875,2.292930460864546 l1.9504831500294415,1.417108958654251 l0.7450182688272875,-2.292930460864546z"/>
<path fill="#B31B1B" fill-opacity="0.37" d="m18.47524157501472,4.585860921729093 l1.9504831500294415,1.41710895865425 l-0.745018268827284,-2.292930460864546 l-1.9504831500294415,-1.41710895865425z"/>
<path fill="#B31B1B" fill-opacity="0.37" d="m21.17074299387145,-8.29590034124789 l-0.7450182688272875,-2.29293046086455 l-0.7450182688272875,2.29293046086455 l0.7450182688272875,2.29293046086455z"/>
<path fill="#B31B1B" fill-opacity="0.37" d="m21.17074299387145,-3.7100394195187967 l-0.745018268827284,2.2929304608645467 l-0.7450182688272875,-2.2929304608645467 l0.745018268827284,-2.2929304608645467z"/>
<path fill="#B31B1B" fill-opacity="0.37" d="m21.17074299387145,3.7100394195187967 l-0.745018268827284,-2.2929304608645467 l-0.7450182688272875,2.2929304608645467 l0.745018268827284,2.2929304608645467z"/>
<path fill="#B31B1B" fill-opacity="0.37" d="m21.17074299387145,8.29590034124789 l-0.7450182688272875,2.29293046086455 l-0.7450182688272875,-2.29293046086455 l0.7450182688272875,-2.29293046086455z"/>
<path fill="#B31B1B" fill-opacity="0.9" d="m18.475241575014724,0.0 l1.9504831500294415,1.4171089586542502 l1.950483150029445,-1.4171089586542502 l-1.9504831500294415,-1.4171089586542502z"/>
<path fill="#B31B1B" fill-opacity="0.9" d="m20.425724725044162,-10.58883080211244 l0.7450182688272875,2.29293046086455 l2.410929762404315,0.0 l-0.7450182688272875,-2.29293046086455z"/>
<path fill="#B31B1B" fill-opacity="0.9" d="m20.425724725044162,-6.002969880383343 l0.7450182688272875,-2.2929304608645467 l2.410929762404315,0.0 l-0.7450182688272875,2.2929304608645467z"/>
<path fill="#B31B1B" fill-opacity="0.9" d="m20.425724725044162,-6.002969880383343 l0.7450182688272875,2.2929304608645467 l2.410929762404315,-4.440892098500626e-16 l-0.7450182688272875,-2.2929304608645467z"/>
<path fill="#B31B1B" fill-opacity="0.9" d="m20.425724725044166,-1.4171089586542502 l0.745018268827284,-2.2929304608645467 l2.410929762404315,-4.440892098500626e-16 l-0.745018268827284,2.2929304608645467z"/>
<path fill="#B31B1B" fill-opacity="0.9" d="m20.425724725044166,1.4171089586542502 l0.745018268827284,2.2929304608645467 l2.410929762404315,4.440892098500626e-16 l-0.745018268827284,-2.2929304608645467z"/>
<path fill="#B31B1B" fill-opacity="0.9" d="m20.425724725044162,6.002969880383343 l0.7450182688272875,-2.2929304608645467 l2.410929762404315,4.440892098500626e-16 l-0.7450182688272875,2.2929304608645467z"/>
<path fill="#B31B1B" fill-opacity="0.9" d="m20.425724725044162,6.002969880383343 l0.7450182688272875,2.2929304608645467 l2.410929762404315,0.0 l-0.7450182688272875,-2.2929304608645467z"/>
<path fill="#B31B1B" fill-opacity="0.9" d="m20.425724725044162,10.58883080211244 l0.7450182688272875,-2.29293046086455 l2.410929762404315,0.0 l-0.7450182688272875,2.29293046086455z"/>
<path fill="#B31B1B" fill-opacity="0.37" d="m22.836654487448477,-1.4171089586542502 l-2.4109297624043116,0.0 l1.950483150029445,1.4171089586542502 l2.4109297624043116,-0.0z"/>
<path fill="#B31B1B" fill-opacity="0.37" d="m22.836654487448477,1.4171089586542502 l-2.4109297624043116,0.0 l1.950483150029445,-1.4171089586542502 l2.4109297624043116,-0.0z"/>
<path fill="#B31B1B" fill-opacity="0.37" d="m24.78713763747792,-7.420078839037593 l-1.9504831500294415,1.41710895865425 l0.7450182688272875,-2.2929304608645467 l1.9504831500294415,-1.41710895865425z"/>
<path fill="#B31B1B" fill-opacity="0.37" d="m24.78713763747792,-4.585860921729093 l-1.9504831500294415,-1.41710895865425 l0.7450182688272875,2.292930460864546 l1.9504831500294415,1.41710895865425z"/>
<path fill="#B31B1B" fill-opacity="0.9" d="m24.78713763747792,-0.0 l-1.9504831500294415,-1.4171089586542502 l0.7450182688272875,-2.2929304608645467 l1.9504831500294415,1.4171089586542502z"/>
<path fill="#B31B1B" fill-opacity="0.9" d="m24.78713763747792,0.0 l-1.9504831500294415,1.4171089586542502 l0.7450182688272875,2.2929304608645467 l1.9504831500294415,-1.4171089586542502z"/>
<path fill="#B31B1B" fill-opacity="0.37" d="m24.78713763747792,4.585860921729093 l-1.9504831500294415,1.41710895865425 l0.7450182688272875,-2.292930460864546 l1.9504831500294415,-1.41710895865425z"/>
<path fill="#B31B1B" fill-opacity="0.37" d="m24.78713763747792,7.420078839037593 l-1.9504831500294415,-1.41710895865425 l0.7450182688272875,2.2929304608645467 l1.9504831500294415,1.41710895865425z"/>
<path fill="#B31B1B" fill-opacity="0.9" d="m22.836654487448477,-6.002969880383343 l1.9504831500294415,-1.41710895865425 l1.950483150029445,1.41710895865425 l-1.9504831500294415,1.41710895865425z"/>
<path fill="#B31B1B" fill-opacity="0.9" d="m22.836654487448477,6.002969880383343 l1.9504831500294415,1.41710895865425 l1.950483150029445,-1.41710895865425 l-1.9504831500294415,-1.41710895865425z"/>
<path fill="#B31B1B" fill-opacity="0.9" d="m25.532155906305206,-2.292930460864546 l1.9504831500294415,-1.4171089586542505 l-0.745018268827284,-2.2929304608645467 l-1.9504831500294415,1.4171089586542505z"/>
<path fill="#B31B1B" fill-opacity="0.9" d="m25.532155906305206,2.292930460864546 l1.9504831500294415,1.4171089586542505 l-0.745018268827284,2.2929304608645467 l-1.9504831500294415,-1.4171089586542505z"/>
<path fill="#B31B1B" fill-opacity="0.9" d="m24.78713763747792,-0.0 l2.410929762404315,0.0 l0.745018268827284,-2.2929304608645467 l-2.410929762404315,-0.0z"/>
<path fill="#B31B1B" fill-opacity="0.9" d="m24.78713763747792,0.0 l2.410929762404315,0.0 l0.745018268827284,2.2929304608645467 l-2.410929762404315,-0.0z"/>
<path fill="#B31B1B" fill-opacity="0.37" d="m27.482639056334648,-3.7100394195187967 l2.410929762404315,-4.440892098500626e-16 l-1.950483150029445,1.4171089586542505 l-2.410929762404315,4.440892098500626e-16z"/>
<path fill="#B31B1B" fill-opacity="0.37" d="m27.482639056334648,3.7100394195187967 l2.410929762404315,4.440892098500626e-16 l-1.950483150029445,-1.4171089586542505 l-2.410929762404315,-4.440892098500626e-16z"/>
<path fill="#B31B1B" fill-opacity="0.9" d="m29.893568818738963,-3.710039419518797 l-2.410929762404315,4.440892098500626e-16 l-0.745018268827284,-2.2929304608645467 l2.410929762404315,-4.440892098500626e-16z"/>
<path fill="#B31B1B" fill-opacity="0.9" d="m29.893568818738963,3.710039419518797 l-2.410929762404315,-4.440892098500626e-16 l-0.745018268827284,2.2929304608645467 l2.410929762404315,4.440892098500626e-16z"/>
<path fill="#B31B1B" fill-opacity="0.37" d="m29.148550549911675,-1.4171089586542505 l-1.9504831500294415,1.4171089586542505 l0.745018268827284,-2.2929304608645467 l1.9504831500294415,-1.4171089586542505z"/>
<path fill="#B31B1B" fill-opacity="0.37" d="m29.148550549911675,1.4171089586542505 l-1.9504831500294415,-1.4171089586542505 l0.745018268827284,2.2929304608645467 l1.9504831500294415,1.4171089586542505z"/>
<path fill="#B31B1B" fill-opacity="0.9" d="m27.198067399882234,0.0 l1.9504831500294415,1.4171089586542505 l1.9504831500294415,-1.4171089586542505 l-1.9504831500294415,-1.4171089586542505z"/>
<path fill="#B31B1B" fill-opacity="0.9" d="m29.893568818738963,-3.710039419518797 l-0.7450182688272875,2.2929304608645467 l1.9504831500294415,1.4171089586542505 l0.7450182688272875,-2.2929304608645467z"/>
<path fill="#B31B1B" fill-opacity="0.9" d="m29.893568818738963,3.710039419518797 l-0.7450182688272875,-2.2929304608645467 l1.9504831500294415,-1.4171089586542505 l0.7450182688272875,2.2929304608645467z"/>
<path fill="#B31B1B" fill-opacity="0.37" d="m32.58907023759569,0.0 l-0.7450182688272875,2.2929304608645467 l-0.7450182688272875,-2.2929304608645467 l0.7450182688272875,-2.2929304608645467z"/>
<path fill="#B31B1B" fill-opacity="0.9" d="m31.844051968768404,-2.2929304608645467 l0.7450182688272875,2.2929304608645467 l2.410929762404308,0.0 l-0.7450182688272875,-2.2929304608645467z"/>
<path fill="#B31B1B" fill-opacity="0.9" d="m31.844051968768404,2.2929304608645467 l0.7450182688272875,-2.2929304608645467 l2.410929762404308,0.0 l-0.7450182688272875,2.2929304608645467z"/>
</g>
</svg>